<svg id="AW" xmlns="http://www.w3.org/2000/svg" viewBox="0 0 1792 768"><defs><style>.cls-1{fill:#24265b;stroke:#24265b;stroke-linecap:round;stroke-linejoin:round;stroke-width:3px;}</style></defs><title>beard</title><g id="beard"><path class="cls-1" d="M940.46,126.31c-0.85-2.61-4.63-2-6.38-2.82-1.83-1-10.8-2.89-10.8-2.89s-14.7,2.14-17.29,4.24a8.24,8.24,0,0,0-3.83,7.33c0.25,4.6-8.82-4.53-7.61-8-6.19-3.61-9.27-8.72-9.18-13.89,0,0-.21,17.15,0,19.55a2.94,2.94,0,0,1,2.59-1.15,44.69,44.69,0,0,0,4.17,8.53c1.83,2.7,4.31,3.93,4.83,4.86,0.25,0.45-.47,1.78-1.54,2.13,5.2,4.62,10.8,5.81,14.46,4.86a3.57,3.57,0,0,1-2.44,3.67c2.8,1.19,16.07-.83,19.39-3.2,1.35,0.83,1.22,3,1.22,3s10-3.39,8.7-12.75c2.3-5.4,4.86-10.62,5.57-12.82a5.94,5.94,0,0,1,1.73,2.7s0.61-9,.61-19C944.48,112.11,943.92,124.62,940.46,126.31Zm-3.72,8.56c-0.63,3.16-3,6.85-5.79,7.42-2.22.45-9.3,2.07-3.62-3.62a26.16,26.16,0,0,0-5.39-.95c-1.67,0-4.59,1.27-5.6,1.73-0.32.06-.47,0.11-0.36,0.17,6.62,3.08,1.51,4.62-4.38,3.56-2.93-.53-5.28-3.56-6.39-5.69-0.4-.78-0.35-5.48,1.16-8,3.63-1.56,10.84-4.28,16.9-4.28a21.68,21.68,0,0,1,10.54,2.68,5.62,5.62,0,0,0,1.45,1.16C936.13,130.67,937.15,132.8,936.73,134.87Z"/></g></svg>