<svg id="AW" xmlns="http://www.w3.org/2000/svg" viewBox="0 0 1792 768"><defs><style>.cls-1{fill:#24265b;}</style></defs><title>beard</title><g id="stubble"><path class="cls-1" d="M918.47,130.3a0.71,0.71,0,1,1-.71-0.71A0.71,0.71,0,0,1,918.47,130.3Zm-7.11,1.42a0.71,0.71,0,1,0,.71.71A0.71,0.71,0,0,0,911.36,131.72Zm-2.13,10.67a0.71,0.71,0,1,0,.71.71A0.71,0.71,0,0,0,909.22,142.39Zm2.13,2.13a0.71,0.71,0,1,0,.71.71A0.71,0.71,0,0,0,911.36,144.52Zm-2.13-6.4a0.71,0.71,0,1,0,.71.71A0.71,0.71,0,0,0,909.22,138.12Zm2.13,2.13a0.71,0.71,0,1,0,.71.71A0.71,0.71,0,0,0,911.36,140.26Zm0-17.07a0.71,0.71,0,1,0,.71.71A0.71,0.71,0,0,0,911.36,123.19Zm0,4.27a0.71,0.71,0,1,0,.71.71A0.71,0.71,0,0,0,911.36,127.46Zm0,8.53a0.71,0.71,0,1,0,.71.71A0.71,0.71,0,0,0,911.36,136Zm-6.4,6.4a0.7,0.7,0,0,0-.67.53l1.2,0.65a0.7,0.7,0,0,0,.19-0.47A0.71,0.71,0,0,0,905,142.39Zm-8.53-12.8a0.71,0.71,0,1,0,.71.71A0.71,0.71,0,0,0,896.42,129.59Zm0-4.27a0.71,0.71,0,1,0,.71.71A0.71,0.71,0,0,0,896.42,125.32Zm0,10a0.71,0.71,0,1,0-.71-0.71A0.71,0.71,0,0,0,896.42,135.28Zm8.53,4.27a0.71,0.71,0,1,0-.71-0.71A0.71,0.71,0,0,0,905,139.55Zm0-5.69a0.71,0.71,0,1,0,.71.71A0.71,0.71,0,0,0,905,133.86Zm0-4.27a0.71,0.71,0,1,0,.71.71A0.71,0.71,0,0,0,905,129.59Zm12.8-8.53a0.71,0.71,0,1,0,.71.71A0.71,0.71,0,0,0,917.76,121.06Zm-8.53,12.8a0.71,0.71,0,1,0,.71.71A0.71,0.71,0,0,0,909.22,133.86Zm8.53,4.27a0.71,0.71,0,1,0,.71.71A0.71,0.71,0,0,0,917.76,138.12Zm0,4.27a0.71,0.71,0,1,0,.71.71A0.71,0.71,0,0,0,917.76,142.39Zm0-17.07a0.71,0.71,0,1,0,.71.71A0.71,0.71,0,0,0,917.76,125.32Zm-2.13,14.93a0.71,0.71,0,1,0,.71.71A0.71,0.71,0,0,0,915.62,140.26Zm0,4.27a0.71,0.71,0,1,0,.71.71A0.71,0.71,0,0,0,915.62,144.52Zm2.13-10.67a0.71,0.71,0,1,0,.71.71A0.71,0.71,0,0,0,917.76,133.86Zm-8.53-8.53a0.71,0.71,0,1,0,.71.71A0.71,0.71,0,0,0,909.22,125.32Zm-2.13,6.4a0.71,0.71,0,1,0,.71.71A0.71,0.71,0,0,0,907.09,131.72Zm2.13-2.13a0.71,0.71,0,1,0,.71.71A0.71,0.71,0,0,0,909.22,129.59Zm-2.13,12.09a0.71,0.71,0,1,0-.71-0.71A0.71,0.71,0,0,0,907.09,141.68Zm0-5.69a0.71,0.71,0,1,0,.71.71A0.71,0.71,0,0,0,907.09,136Zm0-8.53a0.71,0.71,0,1,0,.71.71A0.71,0.71,0,0,0,907.09,127.46Zm-8.53,0a0.71,0.71,0,1,0,.71.71A0.71,0.71,0,0,0,898.56,127.46Zm39.82,7.11a0.7,0.7,0,0,0,.29.56l0.63-1.23a0.7,0.7,0,0,0-.22,0A0.71,0.71,0,0,0,938.38,134.57Zm2.13-10.67a0.71,0.71,0,1,0,.71-0.71A0.71,0.71,0,0,0,940.51,123.9Zm-1.42,5.69a0.71,0.71,0,1,0,.71.71A0.71,0.71,0,0,0,939.09,129.59Zm0-4.27a0.71,0.71,0,1,0,.71.71A0.71,0.71,0,0,0,939.09,125.32Zm3.58,0.61,0.07-.23A0.69,0.69,0,0,0,942.66,125.93Zm-1.44,1.52a0.71,0.71,0,0,0,0,1.42,0.7,0.7,0,0,0,.44-0.17l0.25-.65A0.7,0.7,0,0,0,941.22,127.46Zm2.13-6.4a0.71,0.71,0,0,0,0,1.42,0.69,0.69,0,0,0,.21,0c0.08-.41.16-0.82,0.21-1.22A0.7,0.7,0,0,0,943.36,121.06Zm0-4.27a0.71,0.71,0,0,0,0,1.42,0.7,0.7,0,0,0,.68-0.57v-0.22A0.7,0.7,0,0,0,943.36,116.79Zm-8.53,17.07a0.71,0.71,0,1,0,.71.71A0.71,0.71,0,0,0,934.82,133.86Zm2.13,3.56a0.71,0.71,0,1,0-.71-0.71A0.71,0.71,0,0,0,937,137.41Zm-2.13-12.09a0.71,0.71,0,1,0,.71.71A0.71,0.71,0,0,0,934.82,125.32Zm0,4.27a0.71,0.71,0,1,0,.71.71A0.71,0.71,0,0,0,934.82,129.59Zm0,10a0.71,0.71,0,1,0-.71-0.71A0.71,0.71,0,0,0,934.82,139.55Zm2.13-7.82a0.71,0.71,0,1,0,.71.71A0.71,0.71,0,0,0,937,131.72Zm0-4.27a0.71,0.71,0,1,0,.71.71A0.71,0.71,0,0,0,937,127.46ZM902.82,136a0.71,0.71,0,1,0,.71.71A0.71,0.71,0,0,0,902.82,136Zm0-4.27a0.71,0.71,0,1,0,.71.71A0.71,0.71,0,0,0,902.82,131.72Zm-2.13,2.13a0.71,0.71,0,1,0,.71.71A0.71,0.71,0,0,0,900.69,133.86Zm2.13,6.4a0.71,0.71,0,1,0,.71.71A0.71,0.71,0,0,0,902.82,140.26Zm-2.13-2.13a0.71,0.71,0,1,0,.71.71A0.71,0.71,0,0,0,900.69,138.12ZM898.56,136a0.71,0.71,0,1,0,.71.71A0.71,0.71,0,0,0,898.56,136Zm0-4.27a0.71,0.71,0,1,0,.71.71A0.71,0.71,0,0,0,898.56,131.72Zm-7.11-10a0.71,0.71,0,1,0,1.42,0,0.67,0.67,0,0,0,0-.14c-0.23-.19-0.46-0.38-0.68-0.57h0A0.71,0.71,0,0,0,891.44,121.77Zm9.24,7.82a0.71,0.71,0,1,0,.71.71A0.71,0.71,0,0,0,900.69,129.59Zm-6.4,2.13a0.71,0.71,0,1,0,.71.71A0.71,0.71,0,0,0,894.29,131.72Zm0-8.53a0.71,0.71,0,1,0,.71.71A0.71,0.71,0,0,0,894.29,123.19Zm0,4.27a0.71,0.71,0,1,0,.71.71A0.71,0.71,0,0,0,894.29,127.46Zm-2.13,6.4a0.69,0.69,0,0,0-.4.14c0.32,0.31.65,0.61,1,.93a0.69,0.69,0,0,0,.11-0.35A0.71,0.71,0,0,0,892.16,133.86Zm0-8.53a0.71,0.71,0,1,0,.71.71A0.71,0.71,0,0,0,892.16,125.32ZM894.29,136a0.7,0.7,0,0,0-.22,0l0.92,0.74a0.66,0.66,0,0,0,0-.08A0.71,0.71,0,0,0,894.29,136Zm-2.13-5a0.71,0.71,0,1,0-.71-0.71A0.71,0.71,0,0,0,892.16,131Zm32,0.71a0.71,0.71,0,1,0,.71.71A0.71,0.71,0,0,0,924.16,131.72Zm2.13,2.13a0.71,0.71,0,1,0,.71.71A0.71,0.71,0,0,0,926.29,133.86Zm2.13-10.67a0.71,0.71,0,1,0,.71.71A0.71,0.71,0,0,0,928.42,123.19Zm0,8.53a0.71,0.71,0,1,0,.71.71A0.71,0.71,0,0,0,928.42,131.72Zm-2.13-10.67a0.71,0.71,0,1,0,.71.71A0.71,0.71,0,0,0,926.29,121.06Zm0,4.27a0.71,0.71,0,1,0,.71.71A0.71,0.71,0,0,0,926.29,125.32Zm0,4.27a0.71,0.71,0,1,0,.71.71A0.71,0.71,0,0,0,926.29,129.59Zm0,8.53a0.71,0.71,0,1,0,.71.71A0.71,0.71,0,0,0,926.29,138.12Zm2.13-10.67a0.71,0.71,0,1,0,.71.71A0.71,0.71,0,0,0,928.42,127.46Zm2.13-2.13a0.71,0.71,0,1,0,.71.71A0.71,0.71,0,0,0,930.56,125.32Zm0,4.27a0.71,0.71,0,1,0,.71.71A0.71,0.71,0,0,0,930.56,129.59Zm0,4.27a0.71,0.71,0,1,0,.71.71A0.71,0.71,0,0,0,930.56,133.86Zm0-12.8a0.71,0.71,0,1,0,.71.71A0.71,0.71,0,0,0,930.56,121.06Zm-2.13,23.47a0.71,0.71,0,1,0,.71.71A0.71,0.71,0,0,0,928.42,144.52Zm0-8.53a0.71,0.71,0,1,0,.71.71A0.71,0.71,0,0,0,928.42,136Zm0,4.27a0.71,0.71,0,1,0,.71.71A0.71,0.71,0,0,0,928.42,140.26Zm4.27-8.53a0.71,0.71,0,1,0,.71.71A0.71,0.71,0,0,0,932.69,131.72ZM887.18,117.5a0.71,0.71,0,1,0,.71-0.71A0.71,0.71,0,0,0,887.18,117.5Zm2.84,10a0.71,0.71,0,1,0,.71.71A0.71,0.71,0,0,0,890,127.46Zm-2.13-5a0.71,0.71,0,1,0-.71-0.71A0.71,0.71,0,0,0,887.89,122.48Zm0.45,7.28c0.07,0.15.16,0.3,0.25,0.46A0.69,0.69,0,0,0,888.33,129.76Zm1.69,2a0.69,0.69,0,0,0-.32.08c0.27,0.33.57,0.67,0.9,1a0.69,0.69,0,0,0,.13-0.39A0.71,0.71,0,0,0,890,131.72Zm0-8.53a0.71,0.71,0,1,0,.71.71A0.71,0.71,0,0,0,890,123.19Zm-2.13,3.56a0.71,0.71,0,0,0,0-1.42,0.7,0.7,0,0,0-.53.25c0.06,0.36.12,0.72,0.19,1.07A0.69,0.69,0,0,0,887.89,126.75Zm44.8-3.56a0.71,0.71,0,1,0,.71.71A0.71,0.71,0,0,0,932.69,123.19ZM890,118.92a0.71,0.71,0,1,0,.71.71v0c-0.19-.22-0.4-0.44-0.58-0.66Zm36.27,27.73a0.7,0.7,0,0,0-.67.5q0.61-.12,1.19-0.27A0.7,0.7,0,0,0,926.29,146.66Zm6.4-10.67a0.71,0.71,0,1,0,.71.71A0.71,0.71,0,0,0,932.69,136Zm-2.13,6.4a0.71,0.71,0,1,0,.71.71A0.71,0.71,0,0,0,930.56,142.39Zm-4.27,1.42a0.71,0.71,0,1,0-.71-0.71A0.71,0.71,0,0,0,926.29,143.81Zm6.4-16.36a0.71,0.71,0,1,0,.71.71A0.71,0.71,0,0,0,932.69,127.46Zm0,14.22A0.71,0.71,0,1,0,932,141,0.71,0.71,0,0,0,932.69,141.68Zm-12.8,4.27a0.71,0.71,0,1,0-.71-0.71A0.71,0.71,0,0,0,919.89,145.95Zm-6.4-2.13a0.71,0.71,0,1,0-.71-0.71A0.71,0.71,0,0,0,913.49,143.81Zm0,2.84a0.7,0.7,0,0,0-.46.18l1.13,0.34A0.7,0.7,0,0,0,913.49,146.66Zm10.67-6.4a0.71,0.71,0,1,0,.71.71A0.71,0.71,0,0,0,924.16,140.26Zm-5.84,7.53a0.7,0.7,0,0,0,.15-0.42,0.71,0.71,0,1,0-1.42,0,0.69,0.69,0,0,0,.12.38c0.32,0,.64,0,0.94,0h0.2Zm5.84-20.33a0.71,0.71,0,1,0,.71.71A0.71,0.71,0,0,0,924.16,127.46Zm0,17.07a0.71,0.71,0,1,0,.71.71A0.71,0.71,0,0,0,924.16,144.52Zm0-8.53a0.71,0.71,0,1,0,.71.71A0.71,0.71,0,0,0,924.16,136Zm-10.67-2.13a0.71,0.71,0,1,0,.71.71A0.71,0.71,0,0,0,913.49,133.86Zm0-8.53a0.71,0.71,0,1,0,.71.71A0.71,0.71,0,0,0,913.49,125.32Zm2.13,6.4a0.71,0.71,0,1,0,.71.71A0.71,0.71,0,0,0,915.62,131.72Zm0-8.53a0.71,0.71,0,1,0,.71.71A0.71,0.71,0,0,0,915.62,123.19Zm0,4.27a0.71,0.71,0,1,0,.71.71A0.71,0.71,0,0,0,915.62,127.46Zm-2.13,2.13a0.71,0.71,0,1,0,.71.71A0.71,0.71,0,0,0,913.49,129.59Zm10.67-6.4a0.71,0.71,0,1,0,.71.71A0.71,0.71,0,0,0,924.16,123.19Zm-10.67,14.93a0.71,0.71,0,1,0,.71.71A0.71,0.71,0,0,0,913.49,138.12Zm6.4,2.13a0.71,0.71,0,1,0,.71.71A0.71,0.71,0,0,0,919.89,140.26Zm2.13-2.13a0.71,0.71,0,1,0,.71.71A0.71,0.71,0,0,0,922,138.12Zm-2.13-14.93a0.71,0.71,0,1,0,.71.71A0.71,0.71,0,0,0,919.89,123.19Zm0,8.53a0.71,0.71,0,1,0,.71.71A0.71,0.71,0,0,0,919.89,131.72Zm10.67,6.4a0.71,0.71,0,1,0,.71.71A0.71,0.71,0,0,0,930.56,138.12Zm-7.82,9.24a0.71,0.71,0,0,0-1.42,0,0.7,0.7,0,0,0,.09.32l1.29-.11A0.7,0.7,0,0,0,922.73,147.37ZM915.62,136a0.71,0.71,0,1,0,.71.71A0.71,0.71,0,0,0,915.62,136Zm4.27-15.64,0.11,0h-0.2Zm0,7.11a0.71,0.71,0,1,0,.71.71A0.71,0.71,0,0,0,919.89,127.46Zm0,8.53a0.71,0.71,0,1,0,.71.71A0.71,0.71,0,0,0,919.89,136Zm2.13,6.4a0.71,0.71,0,1,0,.71.71A0.71,0.71,0,0,0,922,142.39Zm0-12.8a0.71,0.71,0,1,0,.71.71A0.71,0.71,0,0,0,922,129.59Zm0,4.27a0.71,0.71,0,1,0,.71.71A0.71,0.71,0,0,0,922,133.86Zm0-8.53a0.71,0.71,0,1,0,.71.71A0.71,0.71,0,0,0,922,125.32Zm0-4.27a0.71,0.71,0,1,0,.71.71A0.71,0.71,0,0,0,922,121.06Z"/></g></svg>