<svg id="Instrument" xmlns="http://www.w3.org/2000/svg" viewBox="0 0 1792 768"><defs><style>.cls-1,.cls-8{fill:#eeb9a9;}.cls-1,.cls-2,.cls-3,.cls-4,.cls-5,.cls-6,.cls-8{stroke:#24265b;stroke-width:3px;}.cls-1,.cls-2,.cls-3,.cls-4,.cls-5,.cls-8{stroke-linecap:round;}.cls-1,.cls-6{stroke-miterlimit:10;}.cls-2{fill:#6183b0;}.cls-2,.cls-3,.cls-4,.cls-5,.cls-8{stroke-linejoin:round;}.cls-3,.cls-7{fill:#fff;}.cls-4{fill:none;}.cls-5{fill:#d6cf90;}.cls-6{fill:#24265b;}</style></defs><title>instrument</title><path class="cls-1" d="M990.51,276a79.82,79.82,0,0,0,1.14,13.33c0.48,3-13.44,14.73-13.44,14.73"/><path class="cls-1" d="M991.64,289.36c15.64,2.19,25,7.17,49.07,7.17,4.64,3.56-1.41,17-6.8,16.57-17-1.28-44.41,6.75-60-7.27-4.57-4.12-3.83-15.25-3.83-17.55"/><path class="cls-2" d="M831.43,401.44c4.22,8.29,20.89,31.11,28.53,39.75,11.58,13.09,25.83,15.86,41,9,31.93-14.52,31.79-42.28,44.74-50.07,11.71-7,37.91-3.22,47.54-26.17,2.5-6-3.93-12.79-10-9.77-17.31,8.66-26.73,0-23.05-8.7,4.25-10.08,18-36.67,4.79-33.64-15.64,3.57-12.82-16.82,7.75-28.47,7.58-4.3,4.61-17.53-12.51-14.47-31,5.55-41.61,38.83-63.83,50.92-12.17,6.62-36.71,1.41-54.48,13.43S819.51,378,831.43,401.44Z"/><path class="cls-3" d="M949.33,332.46c-0.09,3.82,6.61,21.61,6.33,26.41-0.66,11.06,14.13,20.06,25.87,11.46,5.71-4.18,8.35,2,7,4.76-7.43,15.37-40.7,18.14-46.12,21.78-10.24,6.88-13.55,31.4-36.1,45.2-12.78,7.82-28.84,1.17-31.82-5.11-1.78-3.73-1.51-7.7,3.09-8.12,17.13-1.57,38.15-15.82,26.19-29.69-4.36-5.06-19.12-28.62-20.66-32.35-3.92-9.48-.46-15.78,5.66-19.67,10.61-6.74,17.69-2.58,28-9.65,6.61-4.55,16.48-14,19.78-18.29C940.83,313.63,949.78,313.63,949.33,332.46Z"/><line class="cls-4" x1="932.72" y1="413.1" x2="935.44" y2="402.73"/><circle class="cls-3" cx="934.34" cy="408.64" r="1.99" transform="matrix(0.99, -0.17, 0.17, 0.99, -56.01, 165.36)"/><rect class="cls-3" x="906.61" y="354.86" width="11.93" height="33.81" rx="3" ry="3" transform="translate(-51.87 573.87) rotate(-34)"/><rect class="cls-3" x="851.09" y="388.11" width="21.88" height="33.81" rx="3" ry="3" transform="translate(-79.11 551.28) rotate(-34)"/><g id="Guitar"><path class="cls-5" d="M1131.89,216.44c3.54-1.33.93-11.53,3.54-12.6,7.31-3,45.92-16.75,59.32-20.92,5.7-1.77,9.59.6,10,4.83s-2.75,11.9-8,15.88c-5,3.78-8.92-1.07-10.34.41-2.45,2.56-13.59,13.53-22.65,24.66-1.47,1.81-9.72-5.39-23.21,2.1C1132.08,235.49,1117.61,221.79,1131.89,216.44Z"/><path class="cls-6" d="M936.68,340.09c3.41-3.26,174.18-110,195.21-123.65,1.94-1.25,11.12,12.61,8.62,14.37s-184.13,127.86-188.41,130S933.27,343.36,936.68,340.09Z"/></g><rect class="cls-3" x="1180.35" y="173.55" width="11.93" height="7.29" rx="3.65" ry="3.65" transform="translate(0.03 354.59) rotate(-17)"/><line class="cls-3" x1="1188.81" y1="185.08" x2="1187.45" y2="180.66"/><rect class="cls-3" x="1165.14" y="178.52" width="11.93" height="7.29" rx="3.65" ry="3.65" transform="matrix(0.95, -0.31, 0.31, 0.95, 1.03, 370.81)"/><line class="cls-3" x1="1173.73" y1="190.01" x2="1172.3" y2="185.61"/><rect class="cls-3" x="1150.01" y="183.76" width="11.93" height="7.29" rx="3.65" ry="3.65" transform="translate(1.97 386.56) rotate(-19)"/><line class="cls-3" x1="1158.75" y1="195.2" x2="1157.24" y2="190.83"/><rect class="cls-3" x="1134.98" y="189.25" width="11.93" height="7.29" rx="3.65" ry="3.65" transform="translate(2.83 401.86) rotate(-20)"/><line class="cls-3" x1="1143.85" y1="200.65" x2="1142.27" y2="196.3"/><circle class="cls-7" cx="1191.33" cy="192.07" r="2.98" transform="translate(-14.38 142.83) rotate(-6.82)"/><circle class="cls-4" cx="1191.33" cy="192.07" r="2.98" transform="translate(-14.38 142.83) rotate(-6.82)"/><circle class="cls-7" cx="1176.14" cy="197.04" r="2.98" transform="translate(-15.87 161.86) rotate(-7.82)"/><circle class="cls-4" cx="1176.14" cy="197.04" r="2.98" transform="translate(-15.87 161.86) rotate(-7.82)"/><circle class="cls-7" cx="1161.05" cy="202.28" r="2.98" transform="translate(-17.29 180.42) rotate(-8.82)"/><circle class="cls-4" cx="1161.05" cy="202.28" r="2.98" transform="translate(-17.29 180.42) rotate(-8.82)"/><circle class="cls-7" cx="1146.05" cy="207.78" r="2.98" transform="translate(-18.65 198.51) rotate(-9.82)"/><circle class="cls-4" cx="1146.05" cy="207.78" r="2.98" transform="translate(-18.65 198.51) rotate(-9.82)"/><circle class="cls-3" cx="905.19" cy="427.44" r="3.98"/><circle class="cls-3" cx="915.71" cy="418.09" r="3.98"/><path class="cls-8" d="M1026.68,282.69l8.12-5.66s-5.61-.89-8.9,1.8S1026.68,282.69,1026.68,282.69Z"/><path class="cls-8" d="M812.33,305.68c0.57,12.4,13.42,28.56,29.62,46.2,10.69,11.64,30.46,24.24,30.46,24.24L886,375V364.66c-7.28-2.85-12.37-13-23.43-29-11.68-16.88-14.22-27.39-21.57-34"/><path class="cls-8" d="M1033.91,313.1c3,0.15,7.23.36,8.82,0,5.85-1.23,13.09-8.11,18.27-15.74,3.73-5.49-4.06-16.55-11.21-19.58-3.7-1.57-6-1.84-10.54,1.19-3.84-.33-6.94,2.52-5.53,4.13-2.37-.44-9,3.34-6.8,4.76-3,.11-3.82,3.86-3.58,5.06,0.62,3.06,7.13,3.4,9,6.06s1.89,4.91.51,6.43"/><path class="cls-4" d="M1049.45,288s-2.86-8.21-11.28-9"/><path class="cls-4" d="M1043.24,290.42a15,15,0,0,0-11.74-7.65"/><path class="cls-4" d="M1037.38,294.83s-1.87-6-10.3-6.75"/><path class="cls-8" d="M871,375.41c2.51,11.36,16.06,27.41,19,26s0.06-4.26-3.42-9.81c4,7,11.41,12.75,14,11.58s-4.92-8.22-7.85-12.89c4.29,5.5,9.23,9,13.07,10.43,3.2,1.16,5.24-2.59,2.86-4.23-4.3-3-7.3-7.82-9.78-11.11,2.29,3.06,7.08,7.64,10.08,8.09,3.72,0.56,6-2.12,1.93-5.09-2.32-1.69-9.69-7.23-13.42-12.61,3.43,0.79,10.22,2.47,9.2-2s-18-6.85-22-9.87"/></svg>