<svg id="Instrument" xmlns="http://www.w3.org/2000/svg" xmlns:xlink="http://www.w3.org/1999/xlink" viewBox="0 0 1792 768"><defs><style>.cls-1,.cls-10,.cls-5{fill:none;}.cls-2{fill:#afa877;}.cls-10,.cls-2,.cls-3,.cls-5,.cls-7{stroke:#24265b;stroke-linecap:round;stroke-linejoin:round;}.cls-2,.cls-3,.cls-5,.cls-7{stroke-width:3px;}.cls-3{fill:#d6cf90;}.cls-4{fill:#fff;}.cls-6{fill:#24265b;}.cls-7{fill:#eeb9a9;}.cls-8{fill:#e3e3e3;}.cls-9{clip-path:url(#clip-path);}.cls-10{stroke-width:1.5px;}</style><clipPath id="clip-path"><path class="cls-1" d="M1471.72,569.41l-72.89,11.73s-7.57-4.89-17.83-10.14c-141.5-72.38-342.09-102-431.3-88.22-9.92-4.28-53.7-26.12-53.7-26.12V422l269.69-43.41,306,156.16v34.67Z"/></clipPath></defs><title>instrument</title><rect class="cls-2" x="1135.81" y="395.72" width="24" height="260"/><ellipse class="cls-2" cx="1147.81" cy="655.72" rx="15" ry="9"/><rect class="cls-2" x="1369.65" y="526.55" width="24" height="260"/><rect class="cls-2" x="884.05" y="435.93" width="24" height="260"/><path class="cls-3" d="M1049,127s109.69,55.51,181.5,92.22c26.67,48.29,146.77,144.6,218.84,181.11,6.1,3.09,18,9.18,18,9.18l48,99.53-9,6L1040,133Z"/><path class="cls-2" d="M1471.72,569.41l-72.89,11.73s-7.57-4.89-17.83-10.14c-141.5-72.38-342.09-102-431.3-88.22-9.92-4.28-53.7-26.12-53.7-26.12l269.69-43.41Z"/><polygon class="cls-3" points="1111.33 385.88 1112 326.03 1488.49 518.15 1488.27 577.97 1111.33 385.88"/><polygon class="cls-3" points="1086.48 351.8 1105.78 362.9 1155.82 376.18 1155.82 366.51 1086.48 351.8"/><polygon class="cls-4" points="1112.33 363.56 1087.41 349.47 1096.93 347.98 1121.84 362.07 1112.33 363.56"/><polygon class="cls-5" points="1112.33 363.56 1087.41 349.47 1096.93 347.98 1121.84 362.07 1112.33 363.56"/><polygon class="cls-4" points="1103.33 364.92 1078.41 350.82 1087.93 349.33 1112.84 363.42 1103.33 364.92"/><polygon class="cls-5" points="1103.33 364.92 1078.41 350.82 1087.93 349.33 1112.84 363.42 1103.33 364.92"/><polygon class="cls-4" points="1094.33 366.26 1069.41 352.17 1078.93 350.68 1103.84 364.77 1094.33 366.26"/><polygon class="cls-5" points="1094.33 366.26 1069.41 352.17 1078.93 350.68 1103.84 364.77 1094.33 366.26"/><polygon class="cls-4" points="1085.33 367.62 1060.41 353.52 1069.93 352.03 1094.84 366.12 1085.33 367.62"/><polygon class="cls-5" points="1085.33 367.62 1060.41 353.52 1069.93 352.03 1094.84 366.12 1085.33 367.62"/><polygon class="cls-4" points="1076.33 368.96 1051.41 354.87 1060.93 353.38 1085.84 367.47 1076.33 368.96"/><polygon class="cls-5" points="1076.33 368.96 1051.41 354.87 1060.93 353.38 1085.84 367.47 1076.33 368.96"/><polygon class="cls-4" points="1067.33 370.31 1042.41 356.22 1051.93 354.73 1076.84 368.82 1067.33 370.31"/><polygon class="cls-5" points="1067.33 370.31 1042.41 356.22 1051.93 354.73 1076.84 368.82 1067.33 370.31"/><polygon class="cls-4" points="1058.33 371.67 1033.41 357.57 1042.93 356.08 1067.84 370.17 1058.33 371.67"/><polygon class="cls-5" points="1058.33 371.67 1033.41 357.57 1042.93 356.08 1067.84 370.17 1058.33 371.67"/><polygon class="cls-4" points="1049.33 373.01 1024.41 358.92 1033.93 357.43 1058.84 371.52 1049.33 373.01"/><polygon class="cls-5" points="1049.33 373.01 1024.41 358.92 1033.93 357.43 1058.84 371.52 1049.33 373.01"/><polygon class="cls-4" points="1040.33 374.37 1015.41 360.27 1024.93 358.78 1049.84 372.87 1040.33 374.37"/><polygon class="cls-5" points="1040.33 374.37 1015.41 360.27 1024.93 358.78 1049.84 372.87 1040.33 374.37"/><polygon class="cls-4" points="1031.33 375.71 1006.41 361.62 1015.93 360.13 1040.84 374.22 1031.33 375.71"/><polygon class="cls-5" points="1031.33 375.71 1006.41 361.62 1015.93 360.13 1040.84 374.22 1031.33 375.71"/><polygon class="cls-4" points="1022.33 377.06 997.41 362.97 1006.93 361.48 1031.84 375.57 1022.33 377.06"/><polygon class="cls-5" points="1022.33 377.06 997.41 362.97 1006.93 361.48 1031.84 375.57 1022.33 377.06"/><polygon class="cls-4" points="1013.33 378.42 988.41 364.32 997.93 362.83 1022.84 376.92 1013.33 378.42"/><polygon class="cls-5" points="1013.33 378.42 988.41 364.32 997.93 362.83 1022.84 376.92 1013.33 378.42"/><polygon class="cls-4" points="1004.33 379.76 979.41 365.67 988.93 364.18 1013.84 378.27 1004.33 379.76"/><polygon class="cls-5" points="1004.33 379.76 979.41 365.67 988.93 364.18 1013.84 378.27 1004.33 379.76"/><polygon class="cls-4" points="995.33 381.12 970.41 367.02 979.93 365.53 1004.84 379.62 995.33 381.12"/><polygon class="cls-5" points="995.33 381.12 970.41 367.02 979.93 365.53 1004.84 379.62 995.33 381.12"/><polygon class="cls-4" points="986.33 382.46 961.41 368.37 970.93 366.88 995.84 380.97 986.33 382.46"/><polygon class="cls-5" points="986.33 382.46 961.41 368.37 970.93 366.88 995.84 380.97 986.33 382.46"/><polygon class="cls-4" points="977.33 383.81 952.41 369.72 961.93 368.23 986.84 382.32 977.33 383.81"/><polygon class="cls-5" points="977.33 383.81 952.41 369.72 961.93 368.23 986.84 382.32 977.33 383.81"/><polygon class="cls-4" points="968.33 385.17 943.41 371.07 952.93 369.58 977.84 383.67 968.33 385.17"/><polygon class="cls-5" points="968.33 385.17 943.41 371.07 952.93 369.58 977.84 383.67 968.33 385.17"/><polygon class="cls-4" points="959.33 386.51 934.41 372.42 943.93 370.93 968.84 385.02 959.33 386.51"/><polygon class="cls-5" points="959.33 386.51 934.41 372.42 943.93 370.93 968.84 385.02 959.33 386.51"/><polygon class="cls-4" points="950.33 387.87 925.41 373.77 934.93 372.28 959.84 386.37 950.33 387.87"/><polygon class="cls-5" points="950.33 387.87 925.41 373.77 934.93 372.28 959.84 386.37 950.33 387.87"/><polygon class="cls-4" points="941.33 389.21 916.41 375.12 925.93 373.63 950.84 387.72 941.33 389.21"/><polygon class="cls-5" points="941.33 389.21 916.41 375.12 925.93 373.63 950.84 387.72 941.33 389.21"/><polygon class="cls-4" points="932.33 390.56 907.41 376.47 916.93 374.98 941.84 389.07 932.33 390.56"/><polygon class="cls-5" points="932.33 390.56 907.41 376.47 916.93 374.98 941.84 389.07 932.33 390.56"/><polygon class="cls-4" points="923.33 391.92 898.41 377.82 907.93 376.33 932.84 390.42 923.33 391.92"/><polygon class="cls-5" points="923.33 391.92 898.41 377.82 907.93 376.33 932.84 390.42 923.33 391.92"/><polygon class="cls-4" points="914.33 393.26 889.41 379.17 898.93 377.68 923.84 391.77 914.33 393.26"/><polygon class="cls-5" points="914.33 393.26 889.41 379.17 898.93 377.68 923.84 391.77 914.33 393.26"/><polygon class="cls-4" points="905.33 394.62 880.41 380.52 889.93 379.03 914.84 393.12 905.33 394.62"/><polygon class="cls-5" points="905.33 394.62 880.41 380.52 889.93 379.03 914.84 393.12 905.33 394.62"/><polygon class="cls-4" points="896.33 395.96 871.41 381.87 880.93 380.38 905.84 394.47 896.33 395.96"/><polygon class="cls-5" points="896.33 395.96 871.41 381.87 880.93 380.38 905.84 394.47 896.33 395.96"/><polygon class="cls-4" points="887.33 397.31 862.41 383.22 871.93 381.73 896.84 395.82 887.33 397.31"/><polygon class="cls-5" points="887.33 397.31 862.41 383.22 871.93 381.73 896.84 395.82 887.33 397.31"/><polygon class="cls-4" points="878.33 398.67 853.41 384.57 862.93 383.08 887.84 397.17 878.33 398.67"/><polygon class="cls-5" points="878.33 398.67 853.41 384.57 862.93 383.08 887.84 397.17 878.33 398.67"/><polygon class="cls-4" points="869.33 400.01 844.41 385.92 853.93 384.43 878.84 398.52 869.33 400.01"/><polygon class="cls-5" points="869.33 400.01 844.41 385.92 853.93 384.43 878.84 398.52 869.33 400.01"/><polygon class="cls-4" points="860.33 401.37 835.41 387.27 844.93 385.78 869.84 399.87 860.33 401.37"/><polygon class="cls-5" points="860.33 401.37 835.41 387.27 844.93 385.78 869.84 399.87 860.33 401.37"/><polygon class="cls-6" points="919.71 391.85 909.1 385.85 913.16 385.21 923.76 391.21 919.71 391.85"/><polygon class="cls-5" points="919.71 391.85 909.1 385.85 913.16 385.21 923.76 391.21 919.71 391.85"/><polygon class="cls-6" points="910.71 393.2 900.1 387.2 904.16 386.56 914.76 392.56 910.71 393.2"/><polygon class="cls-5" points="910.71 393.2 900.1 387.2 904.16 386.56 914.76 392.56 910.71 393.2"/><polygon class="cls-6" points="901.71 394.55 891.1 388.55 895.16 387.91 905.76 393.91 901.71 394.55"/><polygon class="cls-5" points="901.71 394.55 891.1 388.55 895.16 387.91 905.76 393.91 901.71 394.55"/><polygon class="cls-6" points="944.73 385.63 934.12 379.63 938.17 379 948.78 385 944.73 385.63"/><polygon class="cls-5" points="944.73 385.63 934.12 379.63 938.17 379 948.78 385 944.73 385.63"/><polygon class="cls-6" points="935.73 386.99 925.12 380.98 929.17 380.35 939.78 386.35 935.73 386.99"/><polygon class="cls-5" points="935.73 386.99 925.12 380.98 929.17 380.35 939.78 386.35 935.73 386.99"/><polygon class="cls-6" points="884.59 396.42 873.98 390.42 878.03 389.78 888.64 395.78 884.59 396.42"/><polygon class="cls-5" points="884.59 396.42 873.98 390.42 878.03 389.78 888.64 395.78 884.59 396.42"/><polygon class="cls-6" points="875.59 397.77 864.98 391.77 869.03 391.13 879.64 397.13 875.59 397.77"/><polygon class="cls-5" points="875.59 397.77 864.98 391.77 869.03 391.13 879.64 397.13 875.59 397.77"/><polygon class="cls-6" points="981.33 380.37 970.72 374.36 974.77 373.73 985.38 379.73 981.33 380.37"/><polygon class="cls-5" points="981.33 380.37 970.72 374.36 974.77 373.73 985.38 379.73 981.33 380.37"/><polygon class="cls-6" points="972.33 381.71 961.72 375.71 965.77 375.08 976.38 381.08 972.33 381.71"/><polygon class="cls-5" points="972.33 381.71 961.72 375.71 965.77 375.08 976.38 381.08 972.33 381.71"/><polygon class="cls-6" points="963.33 383.06 952.72 377.06 956.77 376.43 967.38 382.43 963.33 383.06"/><polygon class="cls-5" points="963.33 383.06 952.72 377.06 956.77 376.43 967.38 382.43 963.33 383.06"/><polygon class="cls-6" points="1007.34 376.15 996.73 370.15 1000.79 369.52 1011.39 375.52 1007.34 376.15"/><polygon class="cls-5" points="1007.34 376.15 996.73 370.15 1000.79 369.52 1011.39 375.52 1007.34 376.15"/><polygon class="cls-6" points="998.34 377.5 987.73 371.5 991.79 370.87 1002.39 376.87 998.34 377.5"/><polygon class="cls-5" points="998.34 377.5 987.73 371.5 991.79 370.87 1002.39 376.87 998.34 377.5"/><polygon class="cls-6" points="1042.41 370.88 1031.81 364.88 1035.86 364.25 1046.47 370.25 1042.41 370.88"/><polygon class="cls-5" points="1042.41 370.88 1031.81 364.88 1035.86 364.25 1046.47 370.25 1042.41 370.88"/><polygon class="cls-6" points="1033.41 372.23 1022.81 366.23 1026.86 365.6 1037.47 371.6 1033.41 372.23"/><polygon class="cls-5" points="1033.41 372.23 1022.81 366.23 1026.86 365.6 1037.47 371.6 1033.41 372.23"/><polygon class="cls-6" points="1024.41 373.58 1013.81 367.58 1017.86 366.95 1028.47 372.95 1024.41 373.58"/><polygon class="cls-5" points="1024.41 373.58 1013.81 367.58 1017.86 366.95 1028.47 372.95 1024.41 373.58"/><polygon class="cls-6" points="1070.43 365.67 1059.82 359.67 1063.88 359.04 1074.48 365.04 1070.43 365.67"/><polygon class="cls-5" points="1070.43 365.67 1059.82 359.67 1063.88 359.04 1074.48 365.04 1070.43 365.67"/><polygon class="cls-6" points="1061.43 367.02 1050.82 361.02 1054.88 360.39 1065.48 366.39 1061.43 367.02"/><polygon class="cls-5" points="1061.43 367.02 1050.82 361.02 1054.88 360.39 1065.48 366.39 1061.43 367.02"/><polygon class="cls-6" points="1108.15 361.48 1097.54 355.48 1101.59 354.84 1112.2 360.84 1108.15 361.48"/><polygon class="cls-5" points="1108.15 361.48 1097.54 355.48 1101.59 354.84 1112.2 360.84 1108.15 361.48"/><polygon class="cls-6" points="1099.15 362.82 1088.54 356.82 1092.59 356.19 1103.2 362.19 1099.15 362.82"/><polygon class="cls-5" points="1099.15 362.82 1088.54 356.82 1092.59 356.19 1103.2 362.19 1099.15 362.82"/><polygon class="cls-6" points="1090.15 364.18 1079.54 358.18 1083.59 357.54 1094.2 363.54 1090.15 364.18"/><polygon class="cls-5" points="1090.15 364.18 1079.54 358.18 1083.59 357.54 1094.2 363.54 1090.15 364.18"/><polygon class="cls-4" points="1148.31 371.09 1123.4 357 1132.92 355.51 1157.83 369.6 1148.31 371.09"/><polygon class="cls-5" points="1148.31 371.09 1123.4 357 1132.92 355.51 1157.83 369.6 1148.31 371.09"/><polygon class="cls-4" points="1139.31 372.44 1114.4 358.35 1123.92 356.86 1148.83 370.95 1139.31 372.44"/><polygon class="cls-5" points="1139.31 372.44 1114.4 358.35 1123.92 356.86 1148.83 370.95 1139.31 372.44"/><polygon class="cls-4" points="1130.31 373.79 1105.4 359.7 1114.92 358.21 1139.83 372.3 1130.31 373.79"/><polygon class="cls-5" points="1130.31 373.79 1105.4 359.7 1114.92 358.21 1139.83 372.3 1130.31 373.79"/><polygon class="cls-4" points="1121.31 375.14 1096.4 361.05 1105.92 359.56 1130.83 373.65 1121.31 375.14"/><polygon class="cls-5" points="1121.31 375.14 1096.4 361.05 1105.92 359.56 1130.83 373.65 1121.31 375.14"/><polygon class="cls-4" points="1112.31 376.49 1087.4 362.4 1096.92 360.91 1121.83 375 1112.31 376.49"/><polygon class="cls-5" points="1112.31 376.49 1087.4 362.4 1096.92 360.91 1121.83 375 1112.31 376.49"/><polygon class="cls-4" points="1103.31 377.84 1078.4 363.75 1087.92 362.26 1112.83 376.35 1103.31 377.84"/><polygon class="cls-5" points="1103.31 377.84 1078.4 363.75 1087.92 362.26 1112.83 376.35 1103.31 377.84"/><polygon class="cls-4" points="1094.31 379.19 1069.4 365.1 1078.92 363.61 1103.83 377.7 1094.31 379.19"/><polygon class="cls-5" points="1094.31 379.19 1069.4 365.1 1078.92 363.61 1103.83 377.7 1094.31 379.19"/><polygon class="cls-4" points="1085.31 380.54 1060.4 366.45 1069.92 364.96 1094.83 379.05 1085.31 380.54"/><polygon class="cls-5" points="1085.31 380.54 1060.4 366.45 1069.92 364.96 1094.83 379.05 1085.31 380.54"/><polygon class="cls-4" points="1076.31 381.89 1051.4 367.8 1060.92 366.31 1085.83 380.4 1076.31 381.89"/><polygon class="cls-5" points="1076.31 381.89 1051.4 367.8 1060.92 366.31 1085.83 380.4 1076.31 381.89"/><polygon class="cls-4" points="1067.31 383.24 1042.4 369.15 1051.92 367.66 1076.83 381.75 1067.31 383.24"/><polygon class="cls-5" points="1067.31 383.24 1042.4 369.15 1051.92 367.66 1076.83 381.75 1067.31 383.24"/><polygon class="cls-4" points="1058.31 384.59 1033.4 370.5 1042.92 369.01 1067.83 383.1 1058.31 384.59"/><polygon class="cls-5" points="1058.31 384.59 1033.4 370.5 1042.92 369.01 1067.83 383.1 1058.31 384.59"/><polygon class="cls-4" points="1049.31 385.94 1024.4 371.85 1033.92 370.36 1058.83 384.45 1049.31 385.94"/><polygon class="cls-5" points="1049.31 385.94 1024.4 371.85 1033.92 370.36 1058.83 384.45 1049.31 385.94"/><polygon class="cls-4" points="1040.31 387.29 1015.4 373.2 1024.92 371.71 1049.83 385.8 1040.31 387.29"/><polygon class="cls-5" points="1040.31 387.29 1015.4 373.2 1024.92 371.71 1049.83 385.8 1040.31 387.29"/><polygon class="cls-4" points="1031.31 388.64 1006.4 374.55 1015.92 373.06 1040.83 387.15 1031.31 388.64"/><polygon class="cls-5" points="1031.31 388.64 1006.4 374.55 1015.92 373.06 1040.83 387.15 1031.31 388.64"/><polygon class="cls-4" points="1022.31 389.99 997.4 375.9 1006.92 374.41 1031.83 388.5 1022.31 389.99"/><polygon class="cls-5" points="1022.31 389.99 997.4 375.9 1006.92 374.41 1031.83 388.5 1022.31 389.99"/><polygon class="cls-4" points="1013.31 391.34 988.4 377.25 997.92 375.76 1022.83 389.85 1013.31 391.34"/><polygon class="cls-5" points="1013.31 391.34 988.4 377.25 997.92 375.76 1022.83 389.85 1013.31 391.34"/><polygon class="cls-4" points="1004.31 392.69 979.4 378.6 988.92 377.11 1013.83 391.2 1004.31 392.69"/><polygon class="cls-5" points="1004.31 392.69 979.4 378.6 988.92 377.11 1013.83 391.2 1004.31 392.69"/><polygon class="cls-4" points="995.31 394.04 970.4 379.95 979.92 378.46 1004.83 392.55 995.31 394.04"/><polygon class="cls-5" points="995.31 394.04 970.4 379.95 979.92 378.46 1004.83 392.55 995.31 394.04"/><polygon class="cls-4" points="986.31 395.39 961.4 381.3 970.92 379.81 995.83 393.9 986.31 395.39"/><polygon class="cls-5" points="986.31 395.39 961.4 381.3 970.92 379.81 995.83 393.9 986.31 395.39"/><polygon class="cls-4" points="977.31 396.74 952.4 382.65 961.92 381.16 986.83 395.25 977.31 396.74"/><polygon class="cls-5" points="977.31 396.74 952.4 382.65 961.92 381.16 986.83 395.25 977.31 396.74"/><polygon class="cls-4" points="968.31 398.09 943.4 384 952.92 382.51 977.83 396.6 968.31 398.09"/><polygon class="cls-5" points="968.31 398.09 943.4 384 952.92 382.51 977.83 396.6 968.31 398.09"/><polygon class="cls-4" points="959.31 399.44 934.4 385.35 943.92 383.86 968.83 397.95 959.31 399.44"/><polygon class="cls-5" points="959.31 399.44 934.4 385.35 943.92 383.86 968.83 397.95 959.31 399.44"/><polygon class="cls-4" points="950.31 400.79 925.4 386.7 934.92 385.21 959.83 399.3 950.31 400.79"/><polygon class="cls-5" points="950.31 400.79 925.4 386.7 934.92 385.21 959.83 399.3 950.31 400.79"/><polygon class="cls-4" points="941.31 402.14 916.4 388.05 925.92 386.56 950.83 400.65 941.31 402.14"/><polygon class="cls-5" points="941.31 402.14 916.4 388.05 925.92 386.56 950.83 400.65 941.31 402.14"/><polygon class="cls-4" points="932.31 403.49 907.4 389.4 916.92 387.91 941.83 402 932.31 403.49"/><polygon class="cls-5" points="932.31 403.49 907.4 389.4 916.92 387.91 941.83 402 932.31 403.49"/><polygon class="cls-4" points="923.31 404.84 898.4 390.75 907.92 389.26 932.83 403.35 923.31 404.84"/><polygon class="cls-5" points="923.31 404.84 898.4 390.75 907.92 389.26 932.83 403.35 923.31 404.84"/><polygon class="cls-4" points="914.31 406.19 889.4 392.1 898.92 390.61 923.83 404.7 914.31 406.19"/><polygon class="cls-5" points="914.31 406.19 889.4 392.1 898.92 390.61 923.83 404.7 914.31 406.19"/><polygon class="cls-4" points="905.31 407.54 880.4 393.45 889.92 391.96 914.83 406.05 905.31 407.54"/><polygon class="cls-5" points="905.31 407.54 880.4 393.45 889.92 391.96 914.83 406.05 905.31 407.54"/><polygon class="cls-4" points="896.31 408.89 871.4 394.8 880.92 393.31 905.83 407.4 896.31 408.89"/><polygon class="cls-5" points="896.31 408.89 871.4 394.8 880.92 393.31 905.83 407.4 896.31 408.89"/><polygon class="cls-6" points="955.7 399.37 945.09 393.37 949.14 392.74 959.75 398.74 955.7 399.37"/><polygon class="cls-5" points="955.7 399.37 945.09 393.37 949.14 392.74 959.75 398.74 955.7 399.37"/><polygon class="cls-6" points="946.7 400.72 936.09 394.72 940.14 394.09 950.75 400.09 946.7 400.72"/><polygon class="cls-5" points="946.7 400.72 936.09 394.72 940.14 394.09 950.75 400.09 946.7 400.72"/><polygon class="cls-6" points="937.7 402.07 927.09 396.07 931.14 395.44 941.75 401.44 937.7 402.07"/><polygon class="cls-5" points="937.7 402.07 927.09 396.07 931.14 395.44 941.75 401.44 937.7 402.07"/><polygon class="cls-6" points="981.71 393.16 971.1 387.16 975.16 386.53 985.76 392.53 981.71 393.16"/><polygon class="cls-5" points="981.71 393.16 971.1 387.16 975.16 386.53 985.76 392.53 981.71 393.16"/><polygon class="cls-6" points="972.71 394.51 962.1 388.51 966.16 387.88 976.76 393.88 972.71 394.51"/><polygon class="cls-5" points="972.71 394.51 962.1 388.51 966.16 387.88 976.76 393.88 972.71 394.51"/><polygon class="cls-6" points="920.57 403.95 909.96 397.95 914.02 397.31 924.62 403.31 920.57 403.95"/><polygon class="cls-5" points="920.57 403.95 909.96 397.95 914.02 397.31 924.62 403.31 920.57 403.95"/><polygon class="cls-6" points="911.57 405.3 900.96 399.3 905.02 398.66 915.62 404.66 911.57 405.3"/><polygon class="cls-5" points="911.57 405.3 900.96 399.3 905.02 398.66 915.62 404.66 911.57 405.3"/><polygon class="cls-6" points="1017.31 387.89 1006.7 381.89 1010.76 381.26 1021.37 387.26 1017.31 387.89"/><polygon class="cls-5" points="1017.31 387.89 1006.7 381.89 1010.76 381.26 1021.37 387.26 1017.31 387.89"/><polygon class="cls-6" points="1008.31 389.24 997.7 383.24 1001.76 382.61 1012.37 388.61 1008.31 389.24"/><polygon class="cls-5" points="1008.31 389.24 997.7 383.24 1001.76 382.61 1012.37 388.61 1008.31 389.24"/><polygon class="cls-6" points="999.31 390.59 988.7 384.59 992.76 383.96 1003.37 389.96 999.31 390.59"/><polygon class="cls-5" points="999.31 390.59 988.7 384.59 992.76 383.96 1003.37 389.96 999.31 390.59"/><polygon class="cls-6" points="1043.33 383.68 1032.72 377.68 1036.77 377.05 1047.38 383.05 1043.33 383.68"/><polygon class="cls-5" points="1043.33 383.68 1032.72 377.68 1036.77 377.05 1047.38 383.05 1043.33 383.68"/><polygon class="cls-6" points="1034.33 385.03 1023.72 379.03 1027.77 378.39 1038.38 384.4 1034.33 385.03"/><polygon class="cls-5" points="1034.33 385.03 1023.72 379.03 1027.77 378.39 1038.38 384.4 1034.33 385.03"/><polygon class="cls-6" points="1078.4 378.41 1067.79 372.41 1071.85 371.77 1082.45 377.78 1078.4 378.41"/><polygon class="cls-5" points="1078.4 378.41 1067.79 372.41 1071.85 371.77 1082.45 377.78 1078.4 378.41"/><polygon class="cls-6" points="1069.4 379.76 1058.79 373.76 1062.85 373.13 1073.45 379.13 1069.4 379.76"/><polygon class="cls-5" points="1069.4 379.76 1058.79 373.76 1062.85 373.13 1073.45 379.13 1069.4 379.76"/><polygon class="cls-6" points="1060.4 381.11 1049.79 375.11 1053.85 374.48 1064.45 380.48 1060.4 381.11"/><polygon class="cls-5" points="1060.4 381.11 1049.79 375.11 1053.85 374.48 1064.45 380.48 1060.4 381.11"/><polygon class="cls-6" points="1106.41 373.2 1095.81 367.2 1099.86 366.56 1110.47 372.56 1106.41 373.2"/><polygon class="cls-5" points="1106.41 373.2 1095.81 367.2 1099.86 366.56 1110.47 372.56 1106.41 373.2"/><polygon class="cls-6" points="1097.41 374.55 1086.81 368.55 1090.86 367.91 1101.47 373.91 1097.41 374.55"/><polygon class="cls-5" points="1097.41 374.55 1086.81 368.55 1090.86 367.91 1101.47 373.91 1097.41 374.55"/><polygon class="cls-6" points="1144.13 369 1133.53 363 1137.58 362.37 1148.19 368.37 1144.13 369"/><polygon class="cls-5" points="1144.13 369 1133.53 363 1137.58 362.37 1148.19 368.37 1144.13 369"/><polygon class="cls-6" points="1135.13 370.35 1124.53 364.35 1128.58 363.72 1139.19 369.72 1135.13 370.35"/><polygon class="cls-5" points="1135.13 370.35 1124.53 364.35 1128.58 363.72 1139.19 369.72 1135.13 370.35"/><polygon class="cls-6" points="1126.13 371.7 1115.53 365.7 1119.58 365.07 1130.19 371.07 1126.13 371.7"/><polygon class="cls-5" points="1126.13 371.7 1115.53 365.7 1119.58 365.07 1130.19 371.07 1126.13 371.7"/><path class="cls-7" d="M903.79,364s10.89-2.34,12.77-1.58c2.43,1,1.84,4.48-.65,5.75S903.79,364,903.79,364Z"/><path class="cls-7" d="M812.33,305.68c0.57,12.4,11.79,30.21,29.62,46.2C854,362.72,876.7,371,876.7,371l12.68-9.74c-7.28-2.85-14.52-10.36-26.8-25.64-12.86-16-14.22-27.39-21.57-34"/><path class="cls-7" d="M885.57,359.37c5.1,1.7,12.3,4.19,21.54,4.19,6.18,0,11.11,5.69,13.35,9.47,1.22,2.06-.82,5.14-3.48,3.21,2.2,2,1.43,1.84,2.67,3.56s-1.8,5.27-5.23,3.32c1.42,2.43-3.67,3.06-5.73.89-2.76-2.91-4.69-4.21-7.74-4.87a17.43,17.43,0,0,1,4.79,6.23c1.13,2.8-2.16,3.31-4.79,2.06-2.26-1.07-4.81-3.92-8-6.11-3.54-2.46-8.79-3.78-11.38-4.36s-5.22-3.06-6.33-6.64"/><path class="cls-7" d="M906.13,369.24c4.8,0,9.12,4.56,10.84,7"/><path class="cls-7" d="M902.76,373.17c5.59,2,9.7,5.23,11.66,9.94"/><path class="cls-7" d="M898.19,377.22a17.17,17.17,0,0,1,2.75,1.91"/><polygon class="cls-3" points="1165.69 365.18 896 408.59 896 456.66 1165.69 413.25 1165.69 365.18"/><path class="cls-8" d="M1178.85,419.51a5,5,0,0,1-6,0v-24a5,5,0,0,1,6,0v24Z"/><path class="cls-5" d="M1178.85,419.51a5,5,0,0,1-6,0v-24a5,5,0,0,1,6,0v24Z"/><path class="cls-8" d="M1168.85,417.51a5,5,0,0,1-6,0v-24a5,5,0,0,1,6,0v24Z"/><path class="cls-5" d="M1168.85,417.51a5,5,0,0,1-6,0v-24a5,5,0,0,1,6,0v24Z"/><path class="cls-8" d="M1158.85,415.51a5,5,0,0,1-6,0v-24a5,5,0,0,1,6,0v24Z"/><path class="cls-5" d="M1158.85,415.51a5,5,0,0,1-6,0v-24a5,5,0,0,1,6,0v24Z"/><path class="cls-8" d="M1154.85,423.51a5,5,0,0,1-6,0v-24a5,5,0,0,1,6,0v24Z"/><path class="cls-5" d="M1154.85,423.51a5,5,0,0,1-6,0v-24a5,5,0,0,1,6,0v24Z"/><path class="cls-8" d="M1144.85,421.51a5,5,0,0,1-6,0v-24a5,5,0,0,1,6,0v24Z"/><path class="cls-5" d="M1144.85,421.51a5,5,0,0,1-6,0v-24a5,5,0,0,1,6,0v24Z"/><path class="cls-8" d="M1134.85,419.51a5,5,0,0,1-6,0v-24a5,5,0,0,1,6,0v24Z"/><path class="cls-5" d="M1134.85,419.51a5,5,0,0,1-6,0v-24a5,5,0,0,1,6,0v24Z"/><path class="cls-8" d="M1130.85,427.51a5,5,0,0,1-6,0v-24a5,5,0,0,1,6,0v24Z"/><path class="cls-5" d="M1130.85,427.51a5,5,0,0,1-6,0v-24a5,5,0,0,1,6,0v24Z"/><path class="cls-8" d="M1120.85,425.51a5,5,0,0,1-6,0v-24a5,5,0,0,1,6,0v24Z"/><path class="cls-5" d="M1120.85,425.51a5,5,0,0,1-6,0v-24a5,5,0,0,1,6,0v24Z"/><path class="cls-8" d="M1110.85,423.51a5,5,0,0,1-6,0v-24a5,5,0,0,1,6,0v24Z"/><path class="cls-5" d="M1110.85,423.51a5,5,0,0,1-6,0v-24a5,5,0,0,1,6,0v24Z"/><path class="cls-8" d="M1106.85,431.51a5,5,0,0,1-6,0v-24a5,5,0,0,1,6,0v24Z"/><path class="cls-5" d="M1106.85,431.51a5,5,0,0,1-6,0v-24a5,5,0,0,1,6,0v24Z"/><path class="cls-8" d="M1096.85,429.51a5,5,0,0,1-6,0v-24a5,5,0,0,1,6,0v24Z"/><path class="cls-5" d="M1096.85,429.51a5,5,0,0,1-6,0v-24a5,5,0,0,1,6,0v24Z"/><path class="cls-8" d="M1086.85,427.51a5,5,0,0,1-6,0v-24a5,5,0,0,1,6,0v24Z"/><path class="cls-5" d="M1086.85,427.51a5,5,0,0,1-6,0v-24a5,5,0,0,1,6,0v24Z"/><path class="cls-8" d="M1082.85,435.51a5,5,0,0,1-6,0v-24a5,5,0,0,1,6,0v24Z"/><path class="cls-5" d="M1082.85,435.51a5,5,0,0,1-6,0v-24a5,5,0,0,1,6,0v24Z"/><path class="cls-8" d="M1072.85,433.51a5,5,0,0,1-6,0v-24a5,5,0,0,1,6,0v24Z"/><path class="cls-5" d="M1072.85,433.51a5,5,0,0,1-6,0v-24a5,5,0,0,1,6,0v24Z"/><path class="cls-8" d="M1062.85,431.51a5,5,0,0,1-6,0v-24a5,5,0,0,1,6,0v24Z"/><path class="cls-5" d="M1062.85,431.51a5,5,0,0,1-6,0v-24a5,5,0,0,1,6,0v24Z"/><path class="cls-8" d="M1058.85,439.51a5,5,0,0,1-6,0v-24a5,5,0,0,1,6,0v24Z"/><path class="cls-5" d="M1058.85,439.51a5,5,0,0,1-6,0v-24a5,5,0,0,1,6,0v24Z"/><path class="cls-8" d="M1048.85,437.51a5,5,0,0,1-6,0v-24a5,5,0,0,1,6,0v24Z"/><path class="cls-5" d="M1048.85,437.51a5,5,0,0,1-6,0v-24a5,5,0,0,1,6,0v24Z"/><path class="cls-8" d="M1038.85,435.51a5,5,0,0,1-6,0v-24a5,5,0,0,1,6,0v24Z"/><path class="cls-5" d="M1038.85,435.51a5,5,0,0,1-6,0v-24a5,5,0,0,1,6,0v24Z"/><path class="cls-8" d="M1034.85,443.51a5,5,0,0,1-6,0v-24a5,5,0,0,1,6,0v24Z"/><path class="cls-5" d="M1034.85,443.51a5,5,0,0,1-6,0v-24a5,5,0,0,1,6,0v24Z"/><path class="cls-8" d="M1024.85,441.51a5,5,0,0,1-6,0v-24a5,5,0,0,1,6,0v24Z"/><path class="cls-5" d="M1024.85,441.51a5,5,0,0,1-6,0v-24a5,5,0,0,1,6,0v24Z"/><path class="cls-8" d="M1014.85,439.51a5,5,0,0,1-6,0v-24a5,5,0,0,1,6,0v24Z"/><path class="cls-5" d="M1014.85,439.51a5,5,0,0,1-6,0v-24a5,5,0,0,1,6,0v24Z"/><polygon class="cls-3" points="1165.69 365.18 896 408.59 878.33 399.66 1148.03 356.24 1165.69 365.18"/><polygon class="cls-3" points="1237.58 425.75 1038.94 456.5 1038.94 480.61 1237.58 449.86 1237.58 425.75"/><polygon class="cls-3" points="1237.58 425.54 1020.75 459.56 1003.09 450.63 1219.91 416.61 1237.58 425.54"/><g class="cls-9"><line class="cls-8" x1="1175.85" y1="399.5" x2="1437" y2="532"/><line class="cls-10" x1="1175.85" y1="399.5" x2="1437" y2="532"/><line class="cls-8" x1="1165.85" y1="397.5" x2="1427" y2="530"/><line class="cls-10" x1="1165.85" y1="397.5" x2="1427" y2="530"/><line class="cls-8" x1="1155.85" y1="395.5" x2="1417" y2="528"/><line class="cls-10" x1="1155.85" y1="395.5" x2="1417" y2="528"/><line class="cls-8" x1="1151.85" y1="403.5" x2="1413" y2="536"/><line class="cls-10" x1="1151.85" y1="403.5" x2="1413" y2="536"/><line class="cls-8" x1="1141.85" y1="401.5" x2="1403" y2="534"/><line class="cls-10" x1="1141.85" y1="401.5" x2="1403" y2="534"/><line class="cls-8" x1="1131.85" y1="399.5" x2="1393" y2="532"/><line class="cls-10" x1="1131.85" y1="399.5" x2="1393" y2="532"/><line class="cls-8" x1="1127.85" y1="407.5" x2="1389" y2="540"/><line class="cls-10" x1="1127.85" y1="407.5" x2="1389" y2="540"/><line class="cls-8" x1="1117.85" y1="405.5" x2="1379" y2="538"/><line class="cls-10" x1="1117.85" y1="405.5" x2="1379" y2="538"/><line class="cls-8" x1="1107.85" y1="403.5" x2="1369" y2="536"/><line class="cls-10" x1="1107.85" y1="403.5" x2="1369" y2="536"/><line class="cls-8" x1="1103.85" y1="411.5" x2="1365" y2="544"/><line class="cls-10" x1="1103.85" y1="411.5" x2="1365" y2="544"/><line class="cls-8" x1="1093.85" y1="409.5" x2="1355" y2="542"/><line class="cls-10" x1="1093.85" y1="409.5" x2="1355" y2="542"/><line class="cls-8" x1="1083.85" y1="407.5" x2="1345" y2="540"/><line class="cls-10" x1="1083.85" y1="407.5" x2="1345" y2="540"/><line class="cls-8" x1="1079.85" y1="415.5" x2="1341" y2="548"/><line class="cls-10" x1="1079.85" y1="415.5" x2="1341" y2="548"/><line class="cls-8" x1="1069.85" y1="413.5" x2="1331" y2="546"/><line class="cls-10" x1="1069.85" y1="413.5" x2="1331" y2="546"/><line class="cls-8" x1="1059.85" y1="411.5" x2="1321" y2="544"/><line class="cls-10" x1="1059.85" y1="411.5" x2="1321" y2="544"/><line class="cls-8" x1="1055.85" y1="419.5" x2="1317" y2="552"/><line class="cls-10" x1="1055.85" y1="419.5" x2="1317" y2="552"/><line class="cls-8" x1="1045.85" y1="417.5" x2="1307" y2="550"/><line class="cls-10" x1="1045.85" y1="417.5" x2="1307" y2="550"/><line class="cls-8" x1="1035.85" y1="415.5" x2="1297" y2="548"/><line class="cls-10" x1="1035.85" y1="415.5" x2="1297" y2="548"/><line class="cls-8" x1="1031.85" y1="423.5" x2="1293" y2="556"/><line class="cls-10" x1="1031.85" y1="423.5" x2="1293" y2="556"/><line class="cls-8" x1="1021.85" y1="421.5" x2="1283" y2="554"/><line class="cls-10" x1="1021.85" y1="421.5" x2="1283" y2="554"/><line class="cls-8" x1="1011.85" y1="419.5" x2="1273" y2="552"/><line class="cls-10" x1="1011.85" y1="419.5" x2="1273" y2="552"/><line class="cls-8" x1="1175.85" y1="409.5" x2="1437" y2="542"/><line class="cls-10" x1="1175.85" y1="409.5" x2="1437" y2="542"/><line class="cls-8" x1="1165.85" y1="407.5" x2="1427" y2="540"/><line class="cls-10" x1="1165.85" y1="407.5" x2="1427" y2="540"/><line class="cls-8" x1="1155.85" y1="405.5" x2="1417" y2="538"/><line class="cls-10" x1="1155.85" y1="405.5" x2="1417" y2="538"/><line class="cls-8" x1="1151.85" y1="413.5" x2="1413" y2="546"/><line class="cls-10" x1="1151.85" y1="413.5" x2="1413" y2="546"/><line class="cls-8" x1="1141.85" y1="411.5" x2="1403" y2="544"/><line class="cls-10" x1="1141.85" y1="411.5" x2="1403" y2="544"/><line class="cls-8" x1="1131.85" y1="409.5" x2="1393" y2="542"/><line class="cls-10" x1="1131.85" y1="409.5" x2="1393" y2="542"/><line class="cls-8" x1="1127.85" y1="417.5" x2="1389" y2="550"/><line class="cls-10" x1="1127.85" y1="417.5" x2="1389" y2="550"/><line class="cls-8" x1="1117.85" y1="415.5" x2="1379" y2="548"/><line class="cls-10" x1="1117.85" y1="415.5" x2="1379" y2="548"/><line class="cls-8" x1="1107.85" y1="413.5" x2="1369" y2="546"/><line class="cls-10" x1="1107.85" y1="413.5" x2="1369" y2="546"/><line class="cls-8" x1="1103.85" y1="421.5" x2="1365" y2="554"/><line class="cls-10" x1="1103.85" y1="421.5" x2="1365" y2="554"/><line class="cls-8" x1="1093.85" y1="419.5" x2="1355" y2="552"/><line class="cls-10" x1="1093.85" y1="419.5" x2="1355" y2="552"/><line class="cls-8" x1="1083.85" y1="417.5" x2="1345" y2="550"/><line class="cls-10" x1="1083.85" y1="417.5" x2="1345" y2="550"/><line class="cls-8" x1="1079.85" y1="425.5" x2="1341" y2="558"/><line class="cls-10" x1="1079.85" y1="425.5" x2="1341" y2="558"/><line class="cls-8" x1="1069.85" y1="423.5" x2="1331" y2="556"/><line class="cls-10" x1="1069.85" y1="423.5" x2="1331" y2="556"/><line class="cls-8" x1="1059.85" y1="421.5" x2="1321" y2="554"/><line class="cls-10" x1="1059.85" y1="421.5" x2="1321" y2="554"/><line class="cls-8" x1="1055.85" y1="429.5" x2="1317" y2="562"/><line class="cls-10" x1="1055.85" y1="429.5" x2="1317" y2="562"/><line class="cls-8" x1="1045.85" y1="427.5" x2="1307" y2="560"/><line class="cls-10" x1="1045.85" y1="427.5" x2="1307" y2="560"/><line class="cls-8" x1="1035.85" y1="425.5" x2="1297" y2="558"/><line class="cls-10" x1="1035.85" y1="425.5" x2="1297" y2="558"/><line class="cls-8" x1="1031.85" y1="433.5" x2="1293" y2="566"/><line class="cls-10" x1="1031.85" y1="433.5" x2="1293" y2="566"/><line class="cls-8" x1="1021.85" y1="431.5" x2="1283" y2="564"/><line class="cls-10" x1="1021.85" y1="431.5" x2="1283" y2="564"/><line class="cls-8" x1="1011.85" y1="429.5" x2="1273" y2="562"/><line class="cls-10" x1="1011.85" y1="429.5" x2="1273" y2="562"/></g><path class="cls-7" d="M969.93,286.46c0,4.74-.33,9.36-0.75,16.85,1.7,8.35,6.55,16,13.11,25.13,8.53,11.86,26.84,23.54,26.84,23.54l13-6.11c-5.85-3.91-10.76-11.92-18.6-27.72-8.21-16.55-8.85-26.82-14-34"/><path class="cls-7" d="M1015.48,339.56c2.73,2.87,9.06,3.93,20.59,12.07,2.2,1.55,2,4.19-.21,4.82,1.67,1.49,3,2.45,3.05,4.94,0,1.54-1.41,2.1-2.15,2.68,1.06,2.84-2.61,5.22-4.09,3.11-1-1.47-3.27-2.8-4.36-4.09-1.46-2.34-2.37-3.9-4.18-5.25,2.74,2,5.43,7,5.86,9.62,0.53,3.31-1.68,4.48-4.52,1.76-1.84-1.77-6.18-8.07-11.47-12.53,2.2,2.88,4,9.2,0,8.89-2.43-.18-6.94-6.26-9.28-10s-4.78-7.59-3.19-11.88"/><path class="cls-7" d="M1027.21,355.14s7.33,5.66,9.55,8.94"/><path class="cls-7" d="M1035.85,356.45s-3.63-3.77-6.38-5.16"/><path class="cls-3" d="M824,359l-18,3,123.94,64.06,450.71,97.09,18.18-2.94s-10.74-5.61-17.83-9.24c-144-73.67-377.64-108.17-449-96.5Z"/><polygon class="cls-3" points="1129.5 323.03 1112 326.03 1488.49 518.15 1506.33 515.03 1129.5 323.03"/><polygon class="cls-3" points="1506.33 515.03 1398.83 532.5 1398.83 592.5 1506.33 575.03 1506.33 515.03"/><polygon class="cls-3" points="1506.33 515.03 1398.83 532.5 1380.65 523.18 1487.85 505.85 1506.33 515.03"/><polygon class="cls-3" points="806 422.03 932 486.5 932 426.5 806 362.03 806 422.03"/><path class="cls-3" d="M932,426.5c72.35-12,305.83,23.84,448.65,96.68,10.76,5.49,18.18,9.32,18.18,9.32v60s-7.18-4.23-18.18-9.84C1236.5,509.12,1004.67,475.4,932,486.5v-60Z"/><path class="cls-2" d="M1129.5,323L1040,133s109.69,55.51,181.5,92.22c26.67,48.29,146.77,144.6,218.84,181.11,6.1,3.09,18,9.18,18,9.18l48,99.53Z"/><polygon class="cls-3" points="919.58 407.99 914 405 1112 194 1116.58 195.99 919.58 407.99"/><polygon class="cls-3" points="919.58 407.99 923.39 410.08 1115.65 205.19 1116.58 195.99 919.58 407.99"/><polygon class="cls-2" points="824 419.26 914.97 465.94 914.97 429.76 824 383.08 824 419.26"/><path class="cls-2" d="M1077.56,446.29c-52-7.8-97.44-11-127.87-9.34,0,6.72,0,29,0,36.11,30.5-1.56,75.94,1.58,127.87,9.23v-36Z"/><path class="cls-2" d="M1095.4,485a1265.86,1265.86,0,0,1,142.19,31.6V481.09a1279.48,1279.48,0,0,0-142.19-32V485Z"/><path class="cls-2" d="M1255.41,486.38V521.9c44.76,13.61,87.94,30,125.24,49V535.45C1343.55,516.53,1300.33,500.11,1255.41,486.38Z"/><polygon class="cls-2" points="1488.49 530.23 1417 542.02 1417 577.48 1488.49 565.68 1488.49 530.23"/><ellipse class="cls-2" cx="896.05" cy="695.93" rx="15" ry="9"/></svg>