<svg id="Instrument" xmlns="http://www.w3.org/2000/svg" viewBox="0 0 1792 768"><defs><style>.cls-1,.cls-5{fill:#fff;}.cls-1,.cls-2,.cls-3,.cls-4,.cls-5{stroke:#24265b;stroke-linecap:round;stroke-linejoin:round;}.cls-1,.cls-2,.cls-3,.cls-4{stroke-width:3px;}.cls-2{fill:#eeb9a9;}.cls-3{fill:#6183b0;}.cls-4{fill:none;}.cls-5{stroke-width:2.72px;}</style></defs><title>instrument_drums</title><path class="cls-1" d="M901.86,360.28l-43.37-30.75c2.82,12.52,31.09,34.61,35.66,41.68s13.89-5.49,7.71-10.92"/><path class="cls-2" d="M1041.64,320.8s1.2,9,4.58,10.42,10.89-2,10.89-2Z"/><path class="cls-2" d="M989.68,282.32c8.63,1.21,14.76,8.52,21.3,12,3.82,2,19.65,9.78,31,10.77,7.88,0.69,10.83,2.48,10.83,2.48s21.41-1.31,23.58,3.33,3.7,11.92,0,13c-1.21,3.56-5.12,3.2-6.9,2.84-0.36,2.13-3.95,5.33-7.64,4.62-3.69,3.56-3.67,3.76-6.91,2.24s-4.78-2.93-5.43-6c2.91-3-2.58-6.07-3.93-3.66l-4,1.73s-1.29-6-6.05-8.35-54.94,3-65.7-21.87l0.26-13.18"/><path class="cls-1" d="M1030.4,341.2s-71-171.35-72.82-175.38-14.28-8-19.29-6.38c4,3.06,84.28,185.46,84.28,185.46Z"/><path class="cls-3" d="M979.9,476.12c44.38-5.93,79.34-18.31,78.09-27.65l-14.12-105.73L883.16,364.21l14.12,105.73C898.54,479.28,935.52,482,979.9,476.12Z"/><ellipse class="cls-1" cx="963.52" cy="353.47" rx="81.07" ry="17.07" transform="translate(-38.32 130.7) rotate(-7.61)"/><path class="cls-1" d="M978.87,468.37c47.15-6.3,84.3-19.45,83-29.38-0.29-2.16-2.37-4-5.95-5.46a3.74,3.74,0,0,1,.22.85c1.25,9.34-33.72,21.72-78.09,27.65s-81.36,3.16-82.61-6.18a3.74,3.74,0,0,1,0-.87c-3.06,2.36-4.59,4.67-4.3,6.83C892.42,471.72,931.71,474.66,978.87,468.37Z"/><path class="cls-1" d="M966.53,376c47.15-6.3,84.3-19.45,83-29.38-0.29-2.16-2.37-4-5.95-5.46a3.74,3.74,0,0,1,.22.85c1.25,9.34-33.72,21.72-78.09,27.65s-81.36,3.16-82.61-6.18a3.74,3.74,0,0,1,0-.87c-3.06,2.36-4.59,4.67-4.3,6.83C880.08,379.4,919.38,382.34,966.53,376Z"/><path class="cls-4" d="M1041,347.43c-11-5.6-42.25-6.55-78.48-1.71s-66.17,14-75.28,22.25"/><path class="cls-5" d="M948.7,468.09a2.13,2.13,0,0,0,1.83-2.4l-1.41-10.57a2.13,2.13,0,1,0-4.23.56l1.41,10.57A2.13,2.13,0,0,0,948.7,468.09Z"/><path class="cls-1" d="M947.66,460.34c3.5-.47,6.25-1.57,5.78-5.08l-2-14.8a6.4,6.4,0,1,0-12.69,1.69l2,14.8C941.22,460.46,944.16,460.81,947.66,460.34Z"/><path class="cls-5" d="M896.16,461.48a2.13,2.13,0,0,0,1.83-2.4l-1.41-10.57a2.13,2.13,0,1,0-4.23.56l1.41,10.57A2.13,2.13,0,0,0,896.16,461.48Z"/><path class="cls-1" d="M897.24,453.44c3.5-.47,6.25-1.57,5.78-5.08l-2-14.8a6.4,6.4,0,1,0-12.69,1.69l2,14.8C890.8,453.56,893.73,453.91,897.24,453.44Z"/><path class="cls-5" d="M1056.86,440a2.13,2.13,0,0,1-2.4-1.83l-1.41-10.57a2.13,2.13,0,0,1,4.23-.56l1.41,10.57A2.13,2.13,0,0,1,1056.86,440Z"/><path class="cls-1" d="M1053.71,432.54c-3.5.47-6.44,0.12-6.91-3.38l-2-14.8a6.4,6.4,0,0,1,12.69-1.69l2,14.8C1060,431,1057.22,432.07,1053.71,432.54Z"/><path class="cls-5" d="M1007.9,460.18a2.13,2.13,0,0,0,1.83-2.4l-1.41-10.57a2.13,2.13,0,0,0-4.23.56l1.41,10.57A2.13,2.13,0,0,0,1007.9,460.18Z"/><path class="cls-1" d="M1006.87,452.43c3.5-.47,6.25-1.57,5.78-5.08l-2-14.8A6.4,6.4,0,1,0,998,434.24l2,14.8C1000.43,452.55,1003.36,452.9,1006.87,452.43Z"/><path class="cls-5" d="M995.47,367.14a2.13,2.13,0,0,0-1.83,2.4l1.41,10.57a2.13,2.13,0,0,0,4.23-.56L997.87,369A2.13,2.13,0,0,0,995.47,367.14Z"/><path class="cls-1" d="M996.51,374.89c-3.5.47-6.25,1.57-5.78,5.08l0.85,6.34a6.4,6.4,0,1,0,12.69-1.69l-0.85-6.34C1003,374.77,1000,374.43,996.51,374.89Z"/><path class="cls-5" d="M1044.62,348.38a2.13,2.13,0,0,0-1.83,2.4l1.41,10.57a2.13,2.13,0,0,0,4.23-.56L1047,350.21A2.13,2.13,0,0,0,1044.62,348.38Z"/><path class="cls-1" d="M1043.54,356.42c-3.5.47-6.25,1.57-5.78,5.08l0.85,6.34a6.4,6.4,0,0,0,12.69-1.69l-0.85-6.34C1050,356.29,1047,355.95,1043.54,356.42Z"/><path class="cls-5" d="M883.92,369.85a2.13,2.13,0,0,1,2.4,1.83l1.41,10.57a2.13,2.13,0,1,1-4.23.56l-1.41-10.57A2.13,2.13,0,0,1,883.92,369.85Z"/><path class="cls-1" d="M887.07,377.32c3.5-.47,6.44-0.12,6.91,3.38l0.85,6.34a6.4,6.4,0,1,1-12.69,1.69l-0.85-6.34C880.82,378.89,883.56,377.79,887.07,377.32Z"/><path class="cls-5" d="M936.27,375.05a2.13,2.13,0,0,0-1.83,2.4L935.85,388a2.13,2.13,0,1,0,4.23-.56l-1.41-10.57A2.13,2.13,0,0,0,936.27,375.05Z"/><path class="cls-1" d="M937.3,382.8c-3.5.47-6.25,1.57-5.78,5.08l0.85,6.34a6.4,6.4,0,0,0,12.69-1.69l-0.85-6.34C943.74,382.68,940.81,382.34,937.3,382.8Z"/><rect class="cls-1" x="954.64" y="406.26" width="34.13" height="17.07" rx="6" ry="6" transform="translate(1989.79 697.27) rotate(172.39)"/><path class="cls-1" d="M975.1,346.83c-0.49.21-5.61,0-10.27,0.75-23.83,3.74-89.29,13.58-91.23,12.81-2.31-.92-2.37-2.56-0.56-4.23,1.5-1.38,68.16-9.16,92.66-12,5.08-.58,8.35-1.63,8.84-1.6C977.42,342.74,978.11,345.57,975.1,346.83Z"/><path class="cls-2" d="M812.33,305.68c1.43,10.63,15,16,32.47,27.34,11.44,7.46,31.77,12.18,31.77,12.18s10.52,17.74,14.56,20.34c1.78,1.15,6.2,2.64,9,.35,2.82,0.85,6.28.4,7.62-1.6,2.54,0.7,7.15-.93,6.83-3.33,3.06,0.36,4.59-.92,5.09-1.83,1.65-3-6-14.35-6-14.35s-3.91-4.61-9.2-6.15-14.72-4.71-14.72-4.71c-6.49-1.89-13.68-5.74-26.64-16.41s-20.48-19.13-26.84-17.07"/><path class="cls-1" d="M991.66,351.75c0.53-.07,4.85-2.83,9.24-4.56,22.44-8.85,83.86-33.55,85.13-35.19,1.53-2,.75-3.41-1.66-3.93-2-.43-63.4,26.65-85.94,36.65-4.67,2.07-8,2.83-8.43,3.1C987.59,349.4,988.43,352.19,991.66,351.75Z"/><path class="cls-2" d="M1051.41,307.59s22.84-1.31,25,3.33,3.7,11.92,0,13a7.44,7.44,0,0,1-6.9,5c-0.36,2.13-6.93,4.73-7.64,2.49a5.23,5.23,0,0,1-6.91,2.24c-3.23-1.53-4.78-2.93-5.43-6,2.91-3-2.58-6.07-3.93-3.66l-4,1.73c-2.53-2.87-1.29-6-6.05-8.35"/></svg>