<svg id="Instrument" xmlns="http://www.w3.org/2000/svg" viewBox="0 0 1792 768"><defs><style>.cls-1{fill:#eeb9a9;}.cls-1,.cls-2,.cls-3,.cls-5{stroke:#24265b;stroke-linecap:round;stroke-linejoin:round;stroke-width:3px;}.cls-2,.cls-4{fill:#fff;}.cls-3{fill:#94809e;}.cls-5{fill:none;}.cls-6{fill:#24265b;}</style></defs><title>instrument</title><path class="cls-1" d="M970.22,286.46c0,4.74-.33,9.36-0.75,16.85,1.7,8.35,6.55,13.88,13.11,23a101.47,101.47,0,0,0,18.67,19.55l15.34-3.9c-5.85-3.91-4.91-8-12.75-23.81-8.21-16.55-8.85-26.82-14-34"/><path class="cls-1" d="M904.08,364s10.89-2.34,12.77-1.58c2.43,1,1.84,4.48-.65,5.75S904.08,364,904.08,364Z"/><polygon class="cls-2" points="1003.97 688.75 985.17 688.75 888.68 435.87 906.79 434.03 1003.97 688.75"/><polygon class="cls-2" points="1129.38 672.17 1110.38 671.66 1013.89 418.78 1031.99 416.94 1129.38 672.17"/><line class="cls-2" x1="1024.88" y1="416.94" x2="1122.27" y2="672.17"/><polygon class="cls-2" points="1086.06 480.85 963.37 495.82 963.37 481.52 1086.06 466.56 1086.06 480.85"/><line class="cls-2" x1="899.67" y1="434.03" x2="996.86" y2="688.75"/><polygon class="cls-2" points="905.9 673.32 888.39 673.5 985.71 403.64 1003.81 401.8 905.9 673.32"/><polygon class="cls-2" points="1030.73 657.27 1013.29 657.27 1110.91 386.55 1129.02 384.71 1030.73 657.27"/><line class="cls-2" x1="997.41" y1="401.8" x2="899.5" y2="673.32"/><line class="cls-2" x1="1122.62" y1="384.71" x2="1024.33" y2="657.27"/><polygon class="cls-3" points="1132.51 345.14 785.22 396.51 879.87 420.45 1227.16 369.08 1132.51 345.14"/><polygon class="cls-3" points="1086.77 351.8 1106.07 362.9 1179.16 386.19 1179.16 376.52 1086.77 351.8"/><polygon class="cls-3" points="1227.16 421.61 879.87 472.99 879.87 420.59 1227.16 369.22 1227.16 421.61"/><polygon class="cls-3" points="785.93 423.49 879.87 472.85 879.87 420.45 784.51 396.59 785.93 423.49"/><polygon class="cls-3" points="1132.73 345.14 1086.06 352.06 1180.09 376.35 1226.76 369.42 1132.73 345.14"/><polygon class="cls-4" points="1109.62 365.96 1084.7 351.87 1094.22 350.38 1119.13 364.47 1109.62 365.96"/><polygon class="cls-5" points="1109.62 365.96 1084.7 351.87 1094.22 350.38 1119.13 364.47 1109.62 365.96"/><polygon class="cls-4" points="1100.62 367.26 1075.7 353.17 1085.22 351.68 1110.13 365.77 1100.62 367.26"/><polygon class="cls-5" points="1100.62 367.26 1075.7 353.17 1085.22 351.68 1110.13 365.77 1100.62 367.26"/><polygon class="cls-4" points="1091.62 368.56 1066.7 354.47 1076.22 352.98 1101.13 367.07 1091.62 368.56"/><polygon class="cls-5" points="1091.62 368.56 1066.7 354.47 1076.22 352.98 1101.13 367.07 1091.62 368.56"/><polygon class="cls-4" points="1082.62 369.87 1057.7 355.77 1067.22 354.28 1092.13 368.37 1082.62 369.87"/><polygon class="cls-5" points="1082.62 369.87 1057.7 355.77 1067.22 354.28 1092.13 368.37 1082.62 369.87"/><polygon class="cls-4" points="1073.62 371.17 1048.7 357.07 1058.22 355.58 1083.13 369.67 1073.62 371.17"/><polygon class="cls-5" points="1073.62 371.17 1048.7 357.07 1058.22 355.58 1083.13 369.67 1073.62 371.17"/><polygon class="cls-4" points="1064.62 372.46 1039.7 358.37 1049.22 356.88 1074.13 370.97 1064.62 372.46"/><polygon class="cls-5" points="1064.62 372.46 1039.7 358.37 1049.22 356.88 1074.13 370.97 1064.62 372.46"/><polygon class="cls-4" points="1055.62 373.76 1030.7 359.67 1040.22 358.18 1065.13 372.27 1055.62 373.76"/><polygon class="cls-5" points="1055.62 373.76 1030.7 359.67 1040.22 358.18 1065.13 372.27 1055.62 373.76"/><polygon class="cls-4" points="1046.62 375.06 1021.7 360.97 1031.22 359.48 1056.13 373.57 1046.62 375.06"/><polygon class="cls-5" points="1046.62 375.06 1021.7 360.97 1031.22 359.48 1056.13 373.57 1046.62 375.06"/><polygon class="cls-4" points="1037.62 376.37 1012.7 362.27 1022.22 360.78 1047.13 374.87 1037.62 376.37"/><polygon class="cls-5" points="1037.62 376.37 1012.7 362.27 1022.22 360.78 1047.13 374.87 1037.62 376.37"/><polygon class="cls-4" points="1028.62 377.67 1003.7 363.57 1013.22 362.08 1038.13 376.17 1028.62 377.67"/><polygon class="cls-5" points="1028.62 377.67 1003.7 363.57 1013.22 362.08 1038.13 376.17 1028.62 377.67"/><polygon class="cls-4" points="1019.62 378.96 994.7 364.87 1004.22 363.38 1029.13 377.47 1019.62 378.96"/><polygon class="cls-5" points="1019.62 378.96 994.7 364.87 1004.22 363.38 1029.13 377.47 1019.62 378.96"/><polygon class="cls-4" points="1010.62 380.26 985.7 366.17 995.22 364.68 1020.13 378.77 1010.62 380.26"/><polygon class="cls-5" points="1010.62 380.26 985.7 366.17 995.22 364.68 1020.13 378.77 1010.62 380.26"/><polygon class="cls-4" points="1001.62 381.56 976.7 367.47 986.22 365.98 1011.13 380.07 1001.62 381.56"/><polygon class="cls-5" points="1001.62 381.56 976.7 367.47 986.22 365.98 1011.13 380.07 1001.62 381.56"/><polygon class="cls-4" points="992.62 382.87 967.7 368.77 977.22 367.28 1002.13 381.37 992.62 382.87"/><polygon class="cls-5" points="992.62 382.87 967.7 368.77 977.22 367.28 1002.13 381.37 992.62 382.87"/><polygon class="cls-4" points="983.62 384.17 958.7 370.07 968.22 368.58 993.13 382.67 983.62 384.17"/><polygon class="cls-5" points="983.62 384.17 958.7 370.07 968.22 368.58 993.13 382.67 983.62 384.17"/><polygon class="cls-4" points="974.62 385.46 949.7 371.37 959.22 369.88 984.13 383.97 974.62 385.46"/><polygon class="cls-5" points="974.62 385.46 949.7 371.37 959.22 369.88 984.13 383.97 974.62 385.46"/><polygon class="cls-4" points="965.62 386.76 940.7 372.67 950.22 371.18 975.13 385.27 965.62 386.76"/><polygon class="cls-5" points="965.62 386.76 940.7 372.67 950.22 371.18 975.13 385.27 965.62 386.76"/><polygon class="cls-4" points="956.62 388.06 931.7 373.97 941.22 372.48 966.13 386.57 956.62 388.06"/><polygon class="cls-5" points="956.62 388.06 931.7 373.97 941.22 372.48 966.13 386.57 956.62 388.06"/><polygon class="cls-4" points="947.62 389.37 922.7 375.27 932.22 373.78 957.13 387.87 947.62 389.37"/><polygon class="cls-5" points="947.62 389.37 922.7 375.27 932.22 373.78 957.13 387.87 947.62 389.37"/><polygon class="cls-4" points="938.62 390.67 913.7 376.57 923.22 375.08 948.13 389.17 938.62 390.67"/><polygon class="cls-5" points="938.62 390.67 913.7 376.57 923.22 375.08 948.13 389.17 938.62 390.67"/><polygon class="cls-4" points="929.62 391.96 904.7 377.87 914.22 376.38 939.13 390.47 929.62 391.96"/><polygon class="cls-5" points="929.62 391.96 904.7 377.87 914.22 376.38 939.13 390.47 929.62 391.96"/><polygon class="cls-4" points="920.62 393.26 895.7 379.17 905.22 377.68 930.13 391.77 920.62 393.26"/><polygon class="cls-5" points="920.62 393.26 895.7 379.17 905.22 377.68 930.13 391.77 920.62 393.26"/><polygon class="cls-4" points="911.62 394.56 886.7 380.47 896.22 378.98 921.13 393.07 911.62 394.56"/><polygon class="cls-5" points="911.62 394.56 886.7 380.47 896.22 378.98 921.13 393.07 911.62 394.56"/><polygon class="cls-4" points="902.62 395.87 877.7 381.77 887.22 380.28 912.13 394.37 902.62 395.87"/><polygon class="cls-5" points="902.62 395.87 877.7 381.77 887.22 380.28 912.13 394.37 902.62 395.87"/><polygon class="cls-4" points="893.62 397.17 868.7 383.07 878.22 381.58 903.13 395.67 893.62 397.17"/><polygon class="cls-5" points="893.62 397.17 868.7 383.07 878.22 381.58 903.13 395.67 893.62 397.17"/><polygon class="cls-4" points="884.62 398.46 859.7 384.37 869.22 382.88 894.13 396.97 884.62 398.46"/><polygon class="cls-5" points="884.62 398.46 859.7 384.37 869.22 382.88 894.13 396.97 884.62 398.46"/><polygon class="cls-4" points="875.62 399.76 850.7 385.67 860.22 384.18 885.13 398.27 875.62 399.76"/><polygon class="cls-5" points="875.62 399.76 850.7 385.67 860.22 384.18 885.13 398.27 875.62 399.76"/><polygon class="cls-4" points="866.62 401.06 841.7 386.97 851.22 385.48 876.13 399.57 866.62 401.06"/><polygon class="cls-5" points="866.62 401.06 841.7 386.97 851.22 385.48 876.13 399.57 866.62 401.06"/><polygon class="cls-4" points="857.62 402.37 832.7 388.27 842.22 386.78 867.13 400.87 857.62 402.37"/><polygon class="cls-5" points="857.62 402.37 832.7 388.27 842.22 386.78 867.13 400.87 857.62 402.37"/><polygon class="cls-6" points="920 393.55 909.39 387.55 913.45 386.91 924.05 392.91 920 393.55"/><polygon class="cls-5" points="920 393.55 909.39 387.55 913.45 386.91 924.05 392.91 920 393.55"/><polygon class="cls-6" points="911 395.05 900.39 389.05 904.45 388.41 915.05 394.41 911 395.05"/><polygon class="cls-5" points="911 395.05 900.39 389.05 904.45 388.41 915.05 394.41 911 395.05"/><polygon class="cls-6" points="902 396.55 891.39 390.55 895.45 389.91 906.05 395.91 902 396.55"/><polygon class="cls-5" points="902 396.55 891.39 390.55 895.45 389.91 906.05 395.91 902 396.55"/><polygon class="cls-6" points="944.01 388.49 933.41 382.48 937.46 381.85 948.07 387.85 944.01 388.49"/><polygon class="cls-5" points="944.01 388.49 933.41 382.48 937.46 381.85 948.07 387.85 944.01 388.49"/><polygon class="cls-6" points="935.01 389.99 924.41 383.98 928.46 383.35 939.07 389.35 935.01 389.99"/><polygon class="cls-5" points="935.01 389.99 924.41 383.98 928.46 383.35 939.07 389.35 935.01 389.99"/><polygon class="cls-6" points="882.87 398.27 872.27 392.27 876.32 391.63 886.93 397.63 882.87 398.27"/><polygon class="cls-5" points="882.87 398.27 872.27 392.27 876.32 391.63 886.93 397.63 882.87 398.27"/><polygon class="cls-6" points="873.87 399.77 863.27 393.77 867.32 393.13 877.93 399.13 873.87 399.77"/><polygon class="cls-5" points="873.87 399.77 863.27 393.77 867.32 393.13 877.93 399.13 873.87 399.77"/><polygon class="cls-6" points="982.62 384.06 972.01 378.06 976.06 377.43 986.67 383.43 982.62 384.06"/><polygon class="cls-5" points="982.62 384.06 972.01 378.06 976.06 377.43 986.67 383.43 982.62 384.06"/><polygon class="cls-6" points="973.62 385.56 963.01 379.56 967.06 378.93 977.67 384.93 973.62 385.56"/><polygon class="cls-5" points="973.62 385.56 963.01 379.56 967.06 378.93 977.67 384.93 973.62 385.56"/><polygon class="cls-6" points="964.62 387.06 954.01 381.06 958.06 380.43 968.67 386.43 964.62 387.06"/><polygon class="cls-5" points="964.62 387.06 954.01 381.06 958.06 380.43 968.67 386.43 964.62 387.06"/><polygon class="cls-6" points="1008.63 380 998.02 374 1002.08 373.37 1012.68 379.37 1008.63 380"/><polygon class="cls-5" points="1008.63 380 998.02 374 1002.08 373.37 1012.68 379.37 1008.63 380"/><polygon class="cls-6" points="999.63 381.5 989.02 375.5 993.08 374.87 1003.68 380.87 999.63 381.5"/><polygon class="cls-5" points="999.63 381.5 989.02 375.5 993.08 374.87 1003.68 380.87 999.63 381.5"/><polygon class="cls-6" points="1038.7 374.58 1028.1 368.58 1032.15 367.95 1042.76 373.95 1038.7 374.58"/><polygon class="cls-5" points="1038.7 374.58 1028.1 368.58 1032.15 367.95 1042.76 373.95 1038.7 374.58"/><polygon class="cls-6" points="1029.7 376.08 1019.1 370.08 1023.15 369.45 1033.76 375.45 1029.7 376.08"/><polygon class="cls-5" points="1029.7 376.08 1019.1 370.08 1023.15 369.45 1033.76 375.45 1029.7 376.08"/><polygon class="cls-6" points="1020.7 377.58 1010.1 371.58 1014.15 370.95 1024.76 376.95 1020.7 377.58"/><polygon class="cls-5" points="1020.7 377.58 1010.1 371.58 1014.15 370.95 1024.76 376.95 1020.7 377.58"/><polygon class="cls-6" points="1068.72 369.52 1058.11 363.52 1062.16 362.89 1072.77 368.89 1068.72 369.52"/><polygon class="cls-5" points="1068.72 369.52 1058.11 363.52 1062.16 362.89 1072.77 368.89 1068.72 369.52"/><polygon class="cls-6" points="1059.72 371.02 1049.11 365.02 1053.16 364.39 1063.77 370.39 1059.72 371.02"/><polygon class="cls-5" points="1059.72 371.02 1049.11 365.02 1053.16 364.39 1063.77 370.39 1059.72 371.02"/><polygon class="cls-6" points="1105.44 364.18 1094.83 358.18 1098.88 357.54 1109.49 363.54 1105.44 364.18"/><polygon class="cls-5" points="1105.44 364.18 1094.83 358.18 1098.88 357.54 1109.49 363.54 1105.44 364.18"/><polygon class="cls-6" points="1096.44 365.68 1085.83 359.68 1089.88 359.04 1100.49 365.04 1096.44 365.68"/><polygon class="cls-5" points="1096.44 365.68 1085.83 359.68 1089.88 359.04 1100.49 365.04 1096.44 365.68"/><polygon class="cls-6" points="1087.44 367.18 1076.83 361.18 1080.88 360.54 1091.49 366.54 1087.44 367.18"/><polygon class="cls-5" points="1087.44 367.18 1076.83 361.18 1080.88 360.54 1091.49 366.54 1087.44 367.18"/><polygon class="cls-3" points="831.9 389.58 785.22 396.51 881.29 420.45 927.97 413.52 831.9 389.58"/><path class="cls-3" d="M955.16,456.5l-43.5,6.67a4.27,4.27,0,0,1-4.91-4.22v-15a4.27,4.27,0,0,1,3.62-4.22l43.5-6.67a4.27,4.27,0,0,1,4.91,4.22v15A4.27,4.27,0,0,1,955.16,456.5Z"/><circle class="cls-2" cx="940.21" cy="449.59" r="3.2"/><circle class="cls-2" cx="926.38" cy="451.37" r="3.2"/><polygon class="cls-2" points="910.99 662.4 903.87 663.82 892.5 658.84 887.04 673.78 898.89 678.76 905.53 677.33 910.99 662.4"/><polygon class="cls-2" points="1036.3 645.88 1029.19 647.31 1017.81 642.33 1012.36 657.26 1024.21 662.24 1030.85 660.82 1036.3 645.88"/><polygon class="cls-2" points="1001.76 680.79 994.65 682.22 979.79 676.17 984.72 688.66 1000.04 694.71 1006.68 693.28 1001.76 680.79"/><polygon class="cls-2" points="1127.63 665.37 1120.51 666.79 1105.66 660.74 1110.59 673.23 1125.91 679.28 1132.55 677.86 1127.63 665.37"/><path class="cls-1" d="M812.62,305.68c0.57,12.4,11.79,30.21,29.62,46.2C854.33,362.72,877,371,877,371l12.68-9.74c-7.28-2.85-14.52-10.36-26.8-25.64-12.86-16-14.22-27.39-21.57-34"/><path class="cls-1" d="M885.86,359.37c5.1,1.7,12.3,4.19,21.54,4.19,6.18,0,11.11,5.69,13.35,9.47,1.22,2.06-.82,5.14-3.48,3.21,2.2,2,1.43,1.84,2.67,3.56s-1.8,5.27-5.23,3.32c1.42,2.43-3.67,3.06-5.73.89-2.76-2.91-4.69-4.21-7.74-4.87a17.43,17.43,0,0,1,4.79,6.23c1.13,2.8-2.16,3.31-4.79,2.06-2.26-1.07-4.81-3.92-8-6.11-3.54-2.46-8.79-3.78-11.38-4.36s-5.22-3.06-6.33-6.64"/><path class="cls-1" d="M906.42,369.24c4.8,0,9.12,4.56,10.84,7"/><path class="cls-1" d="M903.05,373.17c5.59,2,9.7,5.23,11.66,9.94"/><path class="cls-1" d="M898.48,377.22a17.17,17.17,0,0,1,2.75,1.91"/><path class="cls-1" d="M1012.32,337.69c3.36,2.91,12.59,4,26.36,11.87,2.62,1.5,2.72,4.47.29,5.41,2,1.48,3.62,2.41,3.95,5.19,0.2,1.72-1.34,2.5-2.11,3.23,1.49,3.06-2.35,6.12-4.23,3.92-3.4-4-8.54-6.43-12.08-8.55,3.29,2,8.34,6.23,9.11,9.17,1,3.64-1.39,5.19-4.86,2.45-2.25-1.77-7.79-8.35-14.18-12.76,2.77,3,5.46,9.85.92,9.95-2.73.06-8.41-6.26-11.46-10.19-4.28-5.52-6.8-12.31-5.48-17.27"/><path class="cls-1" d="M1028.45,355.32s9.52,4.66,12.36,8.08"/><path class="cls-1" d="M1039,355s-5.26-3.74-8.49-5"/><polygon class="cls-2" points="1125.42 361.7 1110.63 360.4 1110.63 365.14 1115.9 367.59 1125.42 366.1 1125.09 365.94 1125.42 365.97 1125.42 361.7"/><polygon class="cls-2" points="1115.9 362.79 1110.63 360.34 1120.15 358.85 1125.42 361.3 1115.9 362.79"/><line class="cls-5" x1="1115.9" y1="362.79" x2="1115.9" y2="367.59"/><polygon class="cls-2" points="1112.42 363.7 1097.63 362.4 1097.63 367.14 1102.9 369.59 1112.42 368.1 1112.09 367.94 1112.42 367.97 1112.42 363.7"/><polygon class="cls-2" points="1102.9 364.79 1097.63 362.34 1107.15 360.85 1112.42 363.3 1102.9 364.79"/><line class="cls-5" x1="1102.9" y1="364.79" x2="1102.9" y2="369.59"/><polygon class="cls-2" points="1099.42 365.7 1084.63 364.4 1084.63 369.14 1089.9 371.59 1099.42 370.1 1099.09 369.94 1099.42 369.97 1099.42 365.7"/><polygon class="cls-2" points="1089.9 366.79 1084.63 364.34 1094.15 362.85 1099.42 365.3 1089.9 366.79"/><line class="cls-5" x1="1089.9" y1="366.79" x2="1089.9" y2="371.59"/><polygon class="cls-2" points="1086.42 367.7 1071.63 366.4 1071.63 371.14 1076.9 373.59 1086.42 372.1 1086.09 371.94 1086.42 371.97 1086.42 367.7"/><polygon class="cls-2" points="1076.9 368.79 1071.63 366.34 1081.15 364.85 1086.42 367.3 1076.9 368.79"/><line class="cls-5" x1="1076.9" y1="368.79" x2="1076.9" y2="373.59"/><polygon class="cls-2" points="1074.98 369.38 1060.19 368.07 1060.19 372.81 1065.46 375.26 1074.98 373.77 1074.65 373.62 1074.98 373.64 1074.98 369.38"/><polygon class="cls-2" points="1065.46 370.46 1060.19 368.01 1069.71 366.52 1074.98 368.97 1065.46 370.46"/><line class="cls-5" x1="1065.46" y1="370.46" x2="1065.46" y2="375.26"/><polygon class="cls-2" points="1061.98 371.38 1047.19 370.07 1047.19 374.81 1052.46 377.26 1061.98 375.77 1061.65 375.62 1061.98 375.64 1061.98 371.38"/><polygon class="cls-2" points="1052.46 372.46 1047.19 370.01 1056.71 368.52 1061.98 370.97 1052.46 372.46"/><line class="cls-5" x1="1052.46" y1="372.46" x2="1052.46" y2="377.26"/><polygon class="cls-2" points="1048.98 373.38 1034.19 372.07 1034.19 376.81 1039.46 379.26 1048.98 377.77 1048.65 377.62 1048.98 377.64 1048.98 373.38"/><polygon class="cls-2" points="1039.46 374.46 1034.19 372.01 1043.71 370.52 1048.98 372.97 1039.46 374.46"/><line class="cls-5" x1="1039.46" y1="374.46" x2="1039.46" y2="379.26"/><polygon class="cls-2" points="1035.98 375.38 1021.19 374.07 1021.19 378.81 1026.46 381.26 1035.98 379.77 1035.65 379.62 1035.98 379.64 1035.98 375.38"/><polygon class="cls-2" points="1026.46 376.46 1021.19 374.01 1030.71 372.52 1035.98 374.97 1026.46 376.46"/><line class="cls-5" x1="1026.46" y1="376.46" x2="1026.46" y2="381.26"/><polygon class="cls-2" points="989.93 382.87 975.14 381.56 975.14 386.3 980.41 388.75 989.93 387.26 989.6 387.1 989.93 387.13 989.93 382.87"/><polygon class="cls-2" points="980.41 383.95 975.14 381.5 984.66 380 989.93 382.45 980.41 383.95"/><line class="cls-5" x1="980.41" y1="383.95" x2="980.41" y2="388.75"/><polygon class="cls-2" points="976.93 384.87 962.14 383.56 962.14 388.3 967.41 390.75 976.93 389.26 976.6 389.1 976.93 389.13 976.93 384.87"/><polygon class="cls-2" points="967.41 385.95 962.14 383.5 971.66 382 976.93 384.45 967.41 385.95"/><line class="cls-5" x1="967.41" y1="385.95" x2="967.41" y2="390.75"/><polygon class="cls-2" points="963.93 386.87 949.14 385.56 949.14 390.3 954.41 392.75 963.93 391.26 963.6 391.1 963.93 391.13 963.93 386.87"/><polygon class="cls-2" points="954.41 387.95 949.14 385.5 958.66 384 963.93 386.45 954.41 387.95"/><line class="cls-5" x1="954.41" y1="387.95" x2="954.41" y2="392.75"/><polygon class="cls-2" points="950.93 388.87 936.14 387.56 936.14 392.3 941.41 394.75 950.93 393.26 950.6 393.1 950.93 393.13 950.93 388.87"/><polygon class="cls-2" points="941.41 389.95 936.14 387.5 945.66 386 950.93 388.45 941.41 389.95"/><line class="cls-5" x1="941.41" y1="389.95" x2="941.41" y2="394.75"/><polygon class="cls-2" points="937.93 390.87 923.14 389.56 923.14 394.3 928.41 396.75 937.93 395.26 937.6 395.1 937.93 395.13 937.93 390.87"/><polygon class="cls-2" points="928.41 391.95 923.14 389.5 932.66 388 937.93 390.45 928.41 391.95"/><line class="cls-5" x1="928.41" y1="391.95" x2="928.41" y2="396.75"/><polygon class="cls-2" points="924.93 392.87 910.14 391.56 910.14 396.3 915.41 398.75 924.93 397.26 924.6 397.1 924.93 397.13 924.93 392.87"/><polygon class="cls-2" points="915.41 393.95 910.14 391.5 919.66 390 924.93 392.45 915.41 393.95"/><line class="cls-5" x1="915.41" y1="393.95" x2="915.41" y2="398.75"/><polygon class="cls-2" points="892.89 404.05 878.1 402.75 878.1 407.49 883.37 409.94 892.89 408.45 892.56 408.29 892.89 408.32 892.89 404.05"/><polygon class="cls-2" points="883.37 405.14 878.1 402.69 887.62 401.19 892.89 403.64 883.37 405.14"/><line class="cls-5" x1="883.37" y1="405.14" x2="883.37" y2="409.94"/><polygon class="cls-2" points="883.89 405.55 869.1 404.25 869.1 408.99 874.37 411.44 883.89 409.95 883.56 409.79 883.89 409.82 883.89 405.55"/><polygon class="cls-2" points="874.37 406.64 869.1 404.19 878.62 402.69 883.89 405.14 874.37 406.64"/><line class="cls-5" x1="874.37" y1="406.64" x2="874.37" y2="411.44"/><polygon class="cls-2" points="874.89 407.05 860.1 405.75 860.1 410.49 865.37 412.94 874.89 411.45 874.56 411.29 874.89 411.32 874.89 407.05"/><polygon class="cls-2" points="865.37 408.14 860.1 405.69 869.62 404.19 874.89 406.64 865.37 408.14"/><line class="cls-5" x1="865.37" y1="408.14" x2="865.37" y2="412.94"/><polygon class="cls-2" points="907.39 407.71 892.61 406.41 892.61 411.15 897.88 413.6 907.39 412.11 907.06 411.95 907.39 411.98 907.39 407.71"/><polygon class="cls-2" points="897.88 408.8 892.61 406.35 902.12 404.86 907.39 407.31 897.88 408.8"/><line class="cls-5" x1="897.88" y1="408.8" x2="897.88" y2="413.6"/><polygon class="cls-2" points="898.39 409.21 883.61 407.91 883.61 412.65 888.88 415.1 898.39 413.61 898.06 413.45 898.39 413.48 898.39 409.21"/><polygon class="cls-2" points="888.88 410.3 883.61 407.85 893.12 406.36 898.39 408.81 888.88 410.3"/><line class="cls-5" x1="888.88" y1="410.3" x2="888.88" y2="415.1"/><polygon class="cls-2" points="889.39 410.71 874.61 409.41 874.61 414.15 879.88 416.6 889.39 415.11 889.06 414.95 889.39 414.98 889.39 410.71"/><polygon class="cls-2" points="879.88 411.8 874.61 409.35 884.12 407.86 889.39 410.31 879.88 411.8"/><line class="cls-5" x1="879.88" y1="411.8" x2="879.88" y2="416.6"/><polygon class="cls-2" points="850.13 394.03 835.35 392.72 835.35 397.46 840.62 399.91 850.13 398.42 849.8 398.26 850.13 398.29 850.13 394.03"/><polygon class="cls-2" points="840.62 395.11 835.35 392.66 844.86 391.17 850.13 393.62 840.62 395.11"/><line class="cls-5" x1="840.62" y1="395.11" x2="840.62" y2="399.91"/><polygon class="cls-2" points="841.13 395.53 826.35 394.22 826.35 398.96 831.62 401.41 841.13 399.92 840.8 399.76 841.13 399.79 841.13 395.53"/><polygon class="cls-2" points="831.62 396.61 826.35 394.16 835.86 392.67 841.13 395.12 831.62 396.61"/><line class="cls-5" x1="831.62" y1="396.61" x2="831.62" y2="401.41"/><polygon class="cls-2" points="832.13 397.03 817.35 395.72 817.35 400.46 822.62 402.91 832.13 401.42 831.8 401.26 832.13 401.29 832.13 397.03"/><polygon class="cls-2" points="822.62 398.11 817.35 395.66 826.86 394.17 832.13 396.62 822.62 398.11"/><line class="cls-5" x1="822.62" y1="398.11" x2="822.62" y2="402.91"/><polygon class="cls-2" points="864.64 397.69 849.85 396.38 849.85 401.12 855.12 403.57 864.64 402.08 864.31 401.93 864.64 401.95 864.64 397.69"/><polygon class="cls-2" points="855.12 398.77 849.85 396.32 859.37 394.83 864.64 397.28 855.12 398.77"/><line class="cls-5" x1="855.12" y1="398.77" x2="855.12" y2="403.57"/><polygon class="cls-2" points="855.64 399.19 840.85 397.88 840.85 402.62 846.12 405.07 855.64 403.58 855.31 403.43 855.64 403.45 855.64 399.19"/><polygon class="cls-2" points="846.12 400.27 840.85 397.82 850.37 396.33 855.64 398.78 846.12 400.27"/><line class="cls-5" x1="846.12" y1="400.27" x2="846.12" y2="405.07"/><polygon class="cls-2" points="846.64 400.69 831.85 399.38 831.85 404.12 837.12 406.57 846.64 405.08 846.31 404.93 846.64 404.95 846.64 400.69"/><polygon class="cls-2" points="837.12 401.77 831.85 399.32 841.37 397.83 846.64 400.28 837.12 401.77"/><line class="cls-5" x1="837.12" y1="401.77" x2="837.12" y2="406.57"/><polygon class="cls-2" points="1140.41 346.14 1125.62 344.83 1125.62 349.57 1130.89 352.02 1140.41 350.53 1140.08 350.38 1140.41 350.4 1140.41 346.14"/><polygon class="cls-2" points="1130.89 347.22 1125.62 344.77 1135.14 343.28 1140.41 345.73 1130.89 347.22"/><line class="cls-5" x1="1130.89" y1="347.22" x2="1130.89" y2="352.02"/><polygon class="cls-2" points="1131.41 347.64 1116.62 346.33 1116.62 351.07 1121.89 353.52 1131.41 352.03 1131.08 351.88 1131.41 351.9 1131.41 347.64"/><polygon class="cls-2" points="1121.89 348.72 1116.62 346.27 1126.14 344.78 1131.41 347.23 1121.89 348.72"/><line class="cls-5" x1="1121.89" y1="348.72" x2="1121.89" y2="353.52"/><polygon class="cls-2" points="1122.41 349.14 1107.62 347.83 1107.62 352.57 1112.89 355.02 1122.41 353.53 1122.08 353.38 1122.41 353.4 1122.41 349.14"/><polygon class="cls-2" points="1112.89 350.22 1107.62 347.77 1117.14 346.28 1122.41 348.73 1112.89 350.22"/><line class="cls-5" x1="1112.89" y1="350.22" x2="1112.89" y2="355.02"/><polygon class="cls-2" points="1154.91 349.8 1140.12 348.49 1140.12 353.23 1145.39 355.68 1154.91 354.19 1154.58 354.04 1154.91 354.06 1154.91 349.8"/><polygon class="cls-2" points="1145.39 350.88 1140.12 348.43 1149.64 346.94 1154.91 349.39 1145.39 350.88"/><line class="cls-5" x1="1145.39" y1="350.88" x2="1145.39" y2="355.68"/><polygon class="cls-2" points="1145.91 351.3 1131.12 349.99 1131.12 354.73 1136.39 357.18 1145.91 355.69 1145.58 355.54 1145.91 355.56 1145.91 351.3"/><polygon class="cls-2" points="1136.39 352.38 1131.12 349.93 1140.64 348.44 1145.91 350.89 1136.39 352.38"/><line class="cls-5" x1="1136.39" y1="352.38" x2="1136.39" y2="357.18"/><polygon class="cls-2" points="1136.91 352.8 1122.12 351.49 1122.12 356.23 1127.39 358.68 1136.91 357.19 1136.58 357.04 1136.91 357.06 1136.91 352.8"/><polygon class="cls-2" points="1127.39 353.88 1122.12 351.43 1131.64 349.94 1136.91 352.39 1127.39 353.88"/><line class="cls-5" x1="1127.39" y1="353.88" x2="1127.39" y2="358.68"/><path class="cls-2" d="M1122.78,365.28v6.4c0,1.18,1.43,2.13,3.2,2.13s3.2-1,3.2-2.13v-6.4h-6.4Z"/><ellipse class="cls-2" cx="1125.98" cy="365.28" rx="3.2" ry="2.13"/><path class="cls-2" d="M1111.78,366.78v6.4c0,1.18,1.43,2.13,3.2,2.13s3.2-1,3.2-2.13v-6.4h-6.4Z"/><ellipse class="cls-2" cx="1114.98" cy="366.78" rx="3.2" ry="2.13"/><path class="cls-2" d="M1100.78,368.28v6.4c0,1.18,1.43,2.13,3.2,2.13s3.2-1,3.2-2.13v-6.4h-6.4Z"/><ellipse class="cls-2" cx="1103.98" cy="368.28" rx="3.2" ry="2.13"/><path class="cls-2" d="M1089.78,369.78v6.4c0,1.18,1.43,2.13,3.2,2.13s3.2-1,3.2-2.13v-6.4h-6.4Z"/><ellipse class="cls-2" cx="1092.98" cy="369.78" rx="3.2" ry="2.13"/><path class="cls-2" d="M1134.69,368.81v6.4c0,1.18,1.43,2.13,3.2,2.13s3.2-1,3.2-2.13v-6.4h-6.4Z"/><ellipse class="cls-2" cx="1137.89" cy="368.81" rx="3.2" ry="2.13"/><path class="cls-2" d="M1123.69,370.31v6.4c0,1.18,1.43,2.13,3.2,2.13s3.2-1,3.2-2.13v-6.4h-6.4Z"/><ellipse class="cls-2" cx="1126.89" cy="370.31" rx="3.2" ry="2.13"/><path class="cls-2" d="M1112.69,371.81v6.4c0,1.18,1.43,2.13,3.2,2.13s3.2-1,3.2-2.13v-6.4h-6.4Z"/><ellipse class="cls-2" cx="1115.89" cy="371.81" rx="3.2" ry="2.13"/><path class="cls-2" d="M1101.69,373.31v6.4c0,1.18,1.43,2.13,3.2,2.13s3.2-1,3.2-2.13v-6.4h-6.4Z"/><ellipse class="cls-2" cx="1104.89" cy="373.31" rx="3.2" ry="2.13"/><path class="cls-2" d="M1171.1,352.58V359c0,1.18,1.43,2.13,3.2,2.13s3.2-1,3.2-2.13v-6.4h-6.4Z"/><ellipse class="cls-2" cx="1174.3" cy="352.58" rx="3.2" ry="2.13"/><path class="cls-2" d="M1160.1,354.08v6.4c0,1.18,1.43,2.13,3.2,2.13s3.2-1,3.2-2.13v-6.4h-6.4Z"/><ellipse class="cls-2" cx="1163.3" cy="354.08" rx="3.2" ry="2.13"/><path class="cls-2" d="M1149.1,355.58V362c0,1.18,1.43,2.13,3.2,2.13s3.2-1,3.2-2.13v-6.4h-6.4Z"/><ellipse class="cls-2" cx="1152.3" cy="355.58" rx="3.2" ry="2.13"/><path class="cls-2" d="M1183,356.1v6.4c0,1.18,1.43,2.13,3.2,2.13s3.2-1,3.2-2.13v-6.4H1183Z"/><ellipse class="cls-2" cx="1186.21" cy="356.1" rx="3.2" ry="2.13"/><path class="cls-2" d="M1172,357.6V364c0,1.18,1.43,2.13,3.2,2.13s3.2-1,3.2-2.13v-6.4H1172Z"/><ellipse class="cls-2" cx="1175.21" cy="357.6" rx="3.2" ry="2.13"/><path class="cls-2" d="M1161,359.1v6.4c0,1.18,1.43,2.13,3.2,2.13s3.2-1,3.2-2.13v-6.4H1161Z"/><ellipse class="cls-2" cx="1164.21" cy="359.1" rx="3.2" ry="2.13"/><path class="cls-2" d="M1066.37,373.76v6.4c0,1.18,1.43,2.13,3.2,2.13s3.2-1,3.2-2.13v-6.4h-6.4Z"/><ellipse class="cls-2" cx="1069.57" cy="373.76" rx="3.2" ry="2.13"/><path class="cls-2" d="M1055.37,375.26v6.4c0,1.18,1.43,2.13,3.2,2.13s3.2-1,3.2-2.13v-6.4h-6.4Z"/><ellipse class="cls-2" cx="1058.57" cy="375.26" rx="3.2" ry="2.13"/><path class="cls-2" d="M1044.37,376.76v6.4c0,1.18,1.43,2.13,3.2,2.13s3.2-1,3.2-2.13v-6.4h-6.4Z"/><ellipse class="cls-2" cx="1047.57" cy="376.76" rx="3.2" ry="2.13"/><path class="cls-2" d="M1033.37,378.26v6.4c0,1.18,1.43,2.13,3.2,2.13s3.2-1,3.2-2.13v-6.4h-6.4Z"/><ellipse class="cls-2" cx="1036.57" cy="378.26" rx="3.2" ry="2.13"/><path class="cls-2" d="M1078.28,377.28v6.4c0,1.18,1.43,2.13,3.2,2.13s3.2-1,3.2-2.13v-6.4h-6.4Z"/><ellipse class="cls-2" cx="1081.48" cy="377.28" rx="3.2" ry="2.13"/><path class="cls-2" d="M1067.28,378.78v6.4c0,1.18,1.43,2.13,3.2,2.13s3.2-1,3.2-2.13v-6.4h-6.4Z"/><ellipse class="cls-2" cx="1070.48" cy="378.78" rx="3.2" ry="2.13"/><path class="cls-2" d="M1056.28,380.28v6.4c0,1.18,1.43,2.13,3.2,2.13s3.2-1,3.2-2.13v-6.4h-6.4Z"/><ellipse class="cls-2" cx="1059.48" cy="380.28" rx="3.2" ry="2.13"/><path class="cls-2" d="M1045.28,381.78v6.4c0,1.18,1.43,2.13,3.2,2.13s3.2-1,3.2-2.13v-6.4h-6.4Z"/><ellipse class="cls-2" cx="1048.48" cy="381.78" rx="3.2" ry="2.13"/><path class="cls-2" d="M1009.33,382.57V389c0,1.18,1.43,2.13,3.2,2.13s3.2-1,3.2-2.13v-6.4h-6.4Z"/><ellipse class="cls-2" cx="1012.53" cy="382.57" rx="3.2" ry="2.13"/><path class="cls-2" d="M998.33,384.07v6.4c0,1.18,1.43,2.13,3.2,2.13s3.2-1,3.2-2.13v-6.4h-6.4Z"/><ellipse class="cls-2" cx="1001.53" cy="384.07" rx="3.2" ry="2.13"/><path class="cls-2" d="M987.33,385.57V392c0,1.18,1.43,2.13,3.2,2.13s3.2-1,3.2-2.13v-6.4h-6.4Z"/><ellipse class="cls-2" cx="990.53" cy="385.57" rx="3.2" ry="2.13"/><path class="cls-2" d="M976.33,387.07v6.4c0,1.18,1.43,2.13,3.2,2.13s3.2-1,3.2-2.13v-6.4h-6.4Z"/><ellipse class="cls-2" cx="979.53" cy="387.07" rx="3.2" ry="2.13"/><path class="cls-2" d="M1021.24,386.09v6.4c0,1.18,1.43,2.13,3.2,2.13s3.2-1,3.2-2.13v-6.4h-6.4Z"/><ellipse class="cls-2" cx="1024.44" cy="386.09" rx="3.2" ry="2.13"/><path class="cls-2" d="M1010.24,387.59V394c0,1.18,1.43,2.13,3.2,2.13s3.2-1,3.2-2.13v-6.4h-6.4Z"/><ellipse class="cls-2" cx="1013.44" cy="387.59" rx="3.2" ry="2.13"/><path class="cls-2" d="M999.24,389.09v6.4c0,1.18,1.43,2.13,3.2,2.13s3.2-1,3.2-2.13v-6.4h-6.4Z"/><ellipse class="cls-2" cx="1002.44" cy="389.09" rx="3.2" ry="2.13"/><path class="cls-2" d="M988.24,390.59V397c0,1.18,1.43,2.13,3.2,2.13s3.2-1,3.2-2.13v-6.4h-6.4Z"/><ellipse class="cls-2" cx="991.44" cy="390.59" rx="3.2" ry="2.13"/><path class="cls-2" d="M946.12,392.34v6.4c0,1.18,1.43,2.13,3.2,2.13s3.2-1,3.2-2.13v-6.4h-6.4Z"/><ellipse class="cls-2" cx="949.32" cy="392.34" rx="3.2" ry="2.13"/><path class="cls-2" d="M935.12,393.84v6.4c0,1.18,1.43,2.13,3.2,2.13s3.2-1,3.2-2.13v-6.4h-6.4Z"/><ellipse class="cls-2" cx="938.32" cy="393.84" rx="3.2" ry="2.13"/><path class="cls-2" d="M924.12,395.34v6.4c0,1.18,1.43,2.13,3.2,2.13s3.2-1,3.2-2.13v-6.4h-6.4Z"/><ellipse class="cls-2" cx="927.32" cy="395.34" rx="3.2" ry="2.13"/><path class="cls-2" d="M913.12,396.84v6.4c0,1.18,1.43,2.13,3.2,2.13s3.2-1,3.2-2.13v-6.4h-6.4Z"/><ellipse class="cls-2" cx="916.32" cy="396.84" rx="3.2" ry="2.13"/><path class="cls-2" d="M958,395.87v6.4c0,1.18,1.43,2.13,3.2,2.13s3.2-1,3.2-2.13v-6.4H958Z"/><ellipse class="cls-2" cx="961.23" cy="395.87" rx="3.2" ry="2.13"/><path class="cls-2" d="M947,397.37v6.4c0,1.18,1.43,2.13,3.2,2.13s3.2-1,3.2-2.13v-6.4H947Z"/><ellipse class="cls-2" cx="950.23" cy="397.37" rx="3.2" ry="2.13"/><path class="cls-2" d="M936,398.87v6.4c0,1.18,1.43,2.13,3.2,2.13s3.2-1,3.2-2.13v-6.4H936Z"/><ellipse class="cls-2" cx="939.23" cy="398.87" rx="3.2" ry="2.13"/><path class="cls-2" d="M925,400.37v6.4c0,1.18,1.43,2.13,3.2,2.13s3.2-1,3.2-2.13v-6.4H925Z"/><ellipse class="cls-2" cx="928.23" cy="400.37" rx="3.2" ry="2.13"/></svg>