<svg id="Instrument" xmlns="http://www.w3.org/2000/svg" viewBox="0 0 1792 768"><defs><style>.cls-1,.cls-2{fill:#eeb9a9;}.cls-1,.cls-2,.cls-3,.cls-4,.cls-6,.cls-7{stroke:#24265b;}.cls-1,.cls-2,.cls-3,.cls-4,.cls-7{stroke-linecap:round;}.cls-1,.cls-6{stroke-miterlimit:10;}.cls-1,.cls-2,.cls-7{stroke-width:3px;}.cls-2,.cls-3,.cls-4,.cls-7{stroke-linejoin:round;}.cls-3{fill:#fff;}.cls-3,.cls-4{stroke-width:2.55px;}.cls-4{fill:#e2774d;}.cls-5,.cls-6{fill:#24265b;}.cls-7{fill:none;}</style></defs><title>instrument</title><path class="cls-1" d="M978.73,274c0.13-17.26,23.47-27.26,33.1-55.89,4.51,3.72,14,6.24,13.82,11.65-0.18,6-5.73,6-8.53,11.51-4.22,8.27-5.07,17.9-9.17,27.53-6.47,15.2-16.81,29.34-29,30-6.14.35-8.45-10.49-8.37-12.78"/><path class="cls-2" d="M1014.82,202.94l9.22-3.62s-5.25-2.17-9.08-.32S1014.82,202.94,1014.82,202.94Z"/><g id="Guitar"><line class="cls-3" x1="1050.53" y1="210.86" x2="1047.48" y2="207.8"/><ellipse class="cls-3" cx="1052.47" cy="213.01" rx="3.2" ry="2.13" transform="translate(-18.97 284.34) rotate(-15.25)"/><line class="cls-3" x1="1061.64" y1="208.68" x2="1058.6" y2="205.61"/><ellipse class="cls-3" cx="1063.59" cy="210.83" rx="3.2" ry="2.13" transform="translate(-18 287.19) rotate(-15.25)"/><line class="cls-3" x1="1051.64" y1="192.01" x2="1054.68" y2="195.08"/><ellipse class="cls-3" cx="1049.69" cy="189.86" rx="3.2" ry="2.13" transform="translate(-12.98 282.79) rotate(-15.25)"/><line class="cls-3" x1="1041.23" y1="196.33" x2="1044.28" y2="199.4"/><ellipse class="cls-3" cx="1039.29" cy="194.18" rx="3.2" ry="2.13" transform="translate(-14.48 280.21) rotate(-15.25)"/><path class="cls-4" d="M1040.46,207.69s-7.45-10-6.31-10.67,21.28-8.58,23.15-9.1,4,3.11,7.27,6.47c2.53,2.63,2.3,4.37,4.19,8.37,0.85,1.8-2.13,2.58-2.13,2.58s-17,3.18-19.87,4.08S1040.46,207.69,1040.46,207.69Z"/><path class="cls-4" d="M894.43,257.75c0.67,6.32,4.28,17.87,7.61,23,4.46,6.87,13.75,13.58,28.1,8.77,16-5.36,17.85-22.43,23.8-24.72,7.38-2.84,16.71-1.1,23.57-4.91s8.24-15.53,5.41-21.33c-2.16-4.44-3.41-7.78-6.34-12.83-3.65-6.32-11.66-8.69-19.45-6.32-6.41,2-10.76,10.3-15.88,12.47-4.45,1.88-13.53-2.86-27.67.58C903.29,235,893.05,244.81,894.43,257.75Z"/><path class="cls-4" d="M890.51,254c0.69,6.55,4.43,18.5,7.88,23.81,4.62,7.12,14.25,11.85,29.1,6.87,16.58-5.55,18.49-23.23,24.65-25.6,7.64-2.94,17.3-1.13,24.41-5.09s8.53-13.88,5.61-19.88c-2.24-4.6-3.53-8.05-6.56-13.29-3.78-6.54-12.08-9-20.14-6.54-6.64,2-11.14,10.67-16.44,12.91-4.61,2-14-3-28.66.6C899.69,230.4,889.09,240.61,890.51,254Z"/><path class="cls-5" d="M956,237c-3.07-4.7-7.82-4.56-11.62-2.89-5.43,2.38-7.24,8-4.69,12.72,2.33,4.29,7.06,5.08,12.51,3.29S959.06,241.67,956,237Z"/><path class="cls-6" d="M957,228.88c8.25-3.71,64.37-27.67,77.17-31.86,3.14-1,9.13,9.23,6.31,10.67-1.57.8-67,31-77.21,34.29C961.1,242.66,955,229.79,957,228.88Z"/></g><rect class="cls-3" x="909.47" y="244.53" width="8.53" height="21.33" transform="translate(-30.77 344.41) rotate(-21)"/><path class="cls-2" d="M817.58,312c12.34,7,23.9,4.81,35.39.88,15-5.12,49.16-27.72,49.16-27.72L893,270.44c-6.21,4.75-19.92,8.59-39.32,9.74-20.5,1.21-32.16,11.61-33.58,16.59"/><path class="cls-2" d="M1020.75,236.81c6-1.26,18.4-9.75,20.44-15.64,1.56-4.5,1.34-15.86-4.9-20.47-3.24-2.39-5.37-3.18-10.53-1.29-3.66-1.21-7.33.84-6.34,2.74-2.2-1-9.53,1.16-7.72,3.05-3-.6-6,3.76-3.14,5.33a12.35,12.35,0,0,1,5.88,6.76c1.25,3-12.31,9-8.73,13.88"/><path class="cls-7" d="M1033.61,210.53s-0.88-8.65-8.89-11.37"/><path class="cls-7" d="M1027,211.45a15,15,0,0,0-9.65-10.16"/><path class="cls-7" d="M1021,215.81a13.85,13.85,0,0,0-9.16-10.38"/><circle class="cls-3" cx="1048.5" cy="204.14" r="2.13" transform="translate(-16.77 282.98) rotate(-15.25)"/><circle class="cls-3" cx="1054.68" cy="192.01" r="2.13" transform="matrix(0.96, -0.26, 0.26, 0.96, -13.37, 284.18)"/><circle class="cls-3" cx="1060.97" cy="201.2" r="2.13" transform="translate(-15.56 286.16) rotate(-15.25)"/><circle class="cls-3" cx="1044.28" cy="195.81" r="2.13" transform="translate(-14.73 281.58) rotate(-15.25)"/><path class="cls-2" d="M900,286.59c11.63-.13,30.27-10,29.49-13.1s-4.15-.93-10.31,1.34c7.65-2.44,14.82-8.56,14.19-11.29s-9.05,3.13-14.22,5c6.26-3.07,10.73-7.18,12.88-10.66,1.79-2.89-1.46-5.66-3.55-3.67-3.78,3.6-9.15,5.54-12.88,7.3,3.47-1.62,8.93-5.36,10-8.21,1.32-3.53-.85-6.31-4.59-2.93-2.13,1.92-9.06,8-15.09,10.55,1.47-3.2,4.51-9.5,0-9.4s-11,17-14.78,20.27"/></svg>