<svg id="Instrument" xmlns="http://www.w3.org/2000/svg" viewBox="0 0 1792 768"><defs><style>.cls-1{fill:#fff;}.cls-1,.cls-2,.cls-3{stroke:#24265b;stroke-linecap:round;stroke-linejoin:round;stroke-width:3px;}.cls-2{fill:#eeb9a9;}.cls-3{fill:#94809e;}</style></defs><title>instrument</title><path class="cls-1" d="M1038.47,682.31c-8.85-3.19-25.39-5.33-44.33-5.33s-35.48,2.15-44.33,5.33h-6.87v5.33c0,5.89,22.92,10.67,51.2,10.67s51.2-4.78,51.2-10.67v-5.33h-6.87Z"/><ellipse class="cls-1" cx="994.13" cy="682.31" rx="51.2" ry="10.67"/><path class="cls-1" d="M986.67,670.84v11.47h0.11c0.59,1,3.66,1.78,7.35,1.78s6.76-.77,7.35-1.78h0.11V670.84H986.67Z"/><ellipse class="cls-1" cx="994.13" cy="670.84" rx="7.47" ry="2.13"/><path class="cls-1" d="M988.8,398.32V670.84c0,0.59,2.39,1.07,5.33,1.07s5.33-.48,5.33-1.07V398.32H988.8Z"/><path class="cls-2" d="M969.93,286.46c0,4.74-.33,9.36-0.75,16.85,1.7,8.35,6.55,16,13.11,25.13,8.53,11.86,22.57,23.54,22.57,23.54l23.91,1c-5.85-3.91-17.38-19.06-25.22-34.86-8.21-16.55-8.85-26.82-14-34"/><path class="cls-2" d="M1011.66,349.92c4,2,13.2.73,28.5,4.87,2.91,0.79,3.75,3.64,1.64,5.17,2.34,0.93,4.11,1.43,5.13,4,0.63,1.61-.67,2.76-1.23,3.66,2.21,2.58-.74,6.51-3.11,4.86-4.29-3-9.89-4.08-13.84-5.25,3.67,1.07,9.64,3.93,11.12,6.59,1.84,3.28,0,5.37-4.09,3.6-2.62-1.15-9.64-6.13-16.93-8.79,3.43,2.19,7.76,8.16,3.39,9.4-2.63.74-9.72-3.94-13.65-7-5.53-4.27-9.67-10.21-9.64-15.34"/><path class="cls-2" d="M1031.69,362.94s10.39,2.12,14,4.72"/><path class="cls-2" d="M1041.79,360s-6-2.3-9.47-2.7"/><polygon class="cls-3" points="1071.52 395.24 968.46 426.61 968.46 385.49 1071.52 354.12 1071.52 395.24"/><polygon class="cls-3" points="902.76 406.39 968.46 426.61 968.46 385.49 902.76 380.91 902.76 406.39"/><polygon class="cls-3" points="1005.78 349.51 1071.47 354.09 968.46 385.49 902.76 380.91 1005.78 349.51"/><path class="cls-1" d="M1012.27,344.65V351c0,1.18,1.43,2.13,3.2,2.13s3.2-1,3.2-2.13v-6.4h-6.4Z"/><ellipse class="cls-1" cx="1015.47" cy="344.65" rx="3.2" ry="2.13"/><path class="cls-1" d="M998.27,348.65V355c0,1.18,1.43,2.13,3.2,2.13s3.2-1,3.2-2.13v-6.4h-6.4Z"/><ellipse class="cls-1" cx="1001.47" cy="348.65" rx="3.2" ry="2.13"/><path class="cls-1" d="M984.27,352.65V359c0,1.18,1.43,2.13,3.2,2.13s3.2-1,3.2-2.13v-6.4h-6.4Z"/><ellipse class="cls-1" cx="987.47" cy="352.65" rx="3.2" ry="2.13"/><path class="cls-1" d="M1029.34,346.78v6.4c0,1.18,1.43,2.13,3.2,2.13s3.2-1,3.2-2.13v-6.4h-6.4Z"/><ellipse class="cls-1" cx="1032.54" cy="346.78" rx="3.2" ry="2.13"/><path class="cls-1" d="M1015.34,350.78v6.4c0,1.18,1.43,2.13,3.2,2.13s3.2-1,3.2-2.13v-6.4h-6.4Z"/><ellipse class="cls-1" cx="1018.54" cy="350.78" rx="3.2" ry="2.13"/><path class="cls-1" d="M1001.34,354.78v6.4c0,1.18,1.43,2.13,3.2,2.13s3.2-1,3.2-2.13v-6.4h-6.4Z"/><ellipse class="cls-1" cx="1004.54" cy="354.78" rx="3.2" ry="2.13"/><path class="cls-1" d="M1046.34,347.8v6.4c0,1.18,1.43,2.13,3.2,2.13s3.2-1,3.2-2.13v-6.4h-6.4Z"/><ellipse class="cls-1" cx="1049.54" cy="347.8" rx="3.2" ry="2.13"/><path class="cls-1" d="M1032.34,351.8v6.4c0,1.18,1.43,2.13,3.2,2.13s3.2-1,3.2-2.13v-6.4h-6.4Z"/><ellipse class="cls-1" cx="1035.54" cy="351.8" rx="3.2" ry="2.13"/><path class="cls-1" d="M1018.34,355.8v6.4c0,1.18,1.43,2.13,3.2,2.13s3.2-1,3.2-2.13v-6.4h-6.4Z"/><ellipse class="cls-1" cx="1021.54" cy="355.8" rx="3.2" ry="2.13"/><polygon class="cls-1" points="942.68 367.09 942.68 370.58 966.31 372.22 990.21 364.85 990.21 361.36 942.68 367.09"/><polygon class="cls-1" points="966.59 359.71 990.21 361.36 966.31 368.73 942.68 367.09 966.59 359.71"/><polygon class="cls-1" points="918.91 374.44 918.91 377.93 942.54 379.58 966.45 372.21 966.45 368.72 918.91 374.44"/><polygon class="cls-1" points="942.82 367.07 966.45 368.72 942.54 376.09 918.91 374.44 942.82 367.07"/><polygon class="cls-1" points="966.45 368.73 966.45 372.22 990.07 373.87 1013.98 366.5 1013.98 363.01 966.45 368.73"/><polygon class="cls-1" points="990.36 361.36 1013.98 363.01 990.07 370.38 966.45 368.73 990.36 361.36"/><polygon class="cls-1" points="942.68 376.09 942.68 379.58 966.31 381.23 990.21 373.85 990.21 370.37 942.68 376.09"/><polygon class="cls-1" points="966.59 368.72 990.21 370.37 966.31 377.74 942.68 376.09 966.59 368.72"/><path class="cls-2" d="M903.79,364s10.89-2.34,12.77-1.58c2.43,1,1.84,4.48-.65,5.75S903.79,364,903.79,364Z"/><path class="cls-2" d="M812.33,305.68c0.57,12.4,11.79,30.21,29.62,46.2C854,362.72,876.7,371,876.7,371l12.68-9.74c-7.28-2.85-14.52-10.36-26.8-25.64-12.86-16-14.22-27.39-21.57-34"/><path class="cls-2" d="M885.57,359.37c5.1,1.7,12.3,4.19,21.54,4.19,6.18,0,11.11,5.69,13.35,9.47,1.22,2.06-.82,5.14-3.48,3.21,2.2,2,1.43,1.84,2.67,3.56s-1.8,5.27-5.23,3.32c1.42,2.43-3.67,3.06-5.73.89-2.76-2.91-4.69-4.21-7.74-4.87a17.43,17.43,0,0,1,4.79,6.23c1.13,2.8-2.16,3.31-4.79,2.06-2.26-1.07-4.81-3.92-8-6.11-3.54-2.46-8.79-3.78-11.38-4.36s-5.22-3.06-6.33-6.64"/><path class="cls-2" d="M906.13,369.24c4.8,0,9.12,4.56,10.84,7"/><path class="cls-2" d="M902.76,373.17c5.59,2,9.7,5.23,11.66,9.94"/><polygon class="cls-1" points="1059.36 400.09 983.72 423.11 985.93 401.43 1056.62 379.27 1059.36 400.09"/></svg>