<svg id="Instrument" xmlns="http://www.w3.org/2000/svg" viewBox="0 0 1792 768"><defs><style>.cls-1,.cls-2{fill:#eeb9a9;}.cls-1,.cls-2,.cls-3,.cls-4,.cls-6,.cls-7{stroke:#24265b;}.cls-1,.cls-2,.cls-3,.cls-6,.cls-7{stroke-linecap:round;}.cls-1,.cls-4{stroke-miterlimit:10;}.cls-1,.cls-2,.cls-3,.cls-7{stroke-width:3px;}.cls-2,.cls-3,.cls-6,.cls-7{stroke-linejoin:round;}.cls-3{fill:#d6cf90;}.cls-4,.cls-5{fill:#24265b;}.cls-6{fill:#fff;stroke-width:2.55px;}.cls-7{fill:none;}</style></defs><title>instrument</title><path class="cls-1" d="M990.51,276a79.82,79.82,0,0,0,1.14,13.33c0.48,3-13.44,14.73-13.44,14.73"/><path class="cls-1" d="M991.64,289.36c19.53,7.41,21.93,18.08,58.42,34.43,4.64,3.56,1.36,14.53-3.91,13.32-28.2-6.49-56.6-21.41-72.17-35.43-4.57-4.12-3.89-11.1-3.89-13.4"/><path class="cls-2" d="M1038.07,304.09l9.08-3.94s-5.33-2-9.08,0S1038.07,304.09,1038.07,304.09Z"/><g id="Guitar"><path class="cls-3" d="M1158.19,265.62s-7.47-13.08-4.87-14.61l34.47-20.27s17.83-4.21,24.93,3.72,2.92,24.12,2.92,24.12-35.41,13.41-41.87,15.47S1158.19,265.62,1158.19,265.62Z"/><path class="cls-3" d="M832.68,337.11c-4.58,12.71-12.1,65.42-12.1,65.42l29.58,49.95L868,460.15l36.88-3.29,38.55-16.57L966,408.14,978,404.28l17.89,2.19s13.14-10.85,15-15a56,56,0,0,0,5.09-28.64c-0.87-11.63-21.47-54-33.32-61s-27-7.56-34.21-4.91c-10.9,4-14.38,11.9-25.47,14.58s-34.91-4.74-55.6-1.15S832.68,337.11,832.68,337.11Z"/><path class="cls-4" d="M832.68,337.11S819,364.26,818.59,387.45c-0.48,24.5,0,65,43.1,77.93,18.48,5.53,45.75.44,62.08-7.32S960,426,963.4,416.34s18,2.2,35.81-5,19-39.35,16.71-48.42c0,12.19-2.32,25.85-12.06,31.16s-17.53,1.57-25.81,3.34-15.58,11.91-15.58,11.91-23.33,51.28-85.45,42c-35.3-5.27-46-27.48-50.39-53.91C824.11,382.17,832.68,337.11,832.68,337.11Z"/><path class="cls-5" d="M960.2,349.45c-7-10.72-17.83-10.38-26.49-6.58-12.38,5.43-16.51,18.28-10.69,29,5.31,9.78,16.1,11.59,28.52,7.49C963.64,375.38,967.2,360.18,960.2,349.45Z"/><path class="cls-4" d="M965.57,334.36c4.2-2.83,191.64-82,191.64-82s3.48-2.21,8.07,2.17,4.59,12.43,4.59,12.43-187.52,87.29-192.44,88.81S961.37,337.19,965.57,334.36Z"/><line class="cls-6" x1="1181.92" y1="275.93" x2="1181.92" y2="271.17"/><ellipse class="cls-6" cx="1182" cy="277.85" rx="2.82" ry="1.92"/><line class="cls-6" x1="1194.62" y1="271.63" x2="1194.62" y2="266.88"/><ellipse class="cls-6" cx="1194.7" cy="273.55" rx="1.92" ry="2.82" transform="translate(183.21 965.67) rotate(-47.28)"/><line class="cls-6" x1="1206.67" y1="267.34" x2="1206.67" y2="262.58"/><ellipse class="cls-6" cx="1206.75" cy="269.26" rx="2.82" ry="1.92"/></g><path class="cls-5" d="M906,374.36l6.79,6s5.26-7.49,3.07-9.31S906,374.36,906,374.36Z"/><path class="cls-2" d="M812.33,305.68c0.57,12.4,13.42,28.56,29.62,46.2,10.69,11.64,28.74,22.48,28.74,22.48s11.81,23.31,16.2,26.72c1.94,1.5,6.88,3.68,10.32,1.32,3.16,1.27,7.19,1.1,9-1.07,2.85,1.07,8.33-.34,8.21-3.14,3.48,0.73,5.38-.6,6.05-1.59,2.2-3.28-5.44-17.15-5.44-17.15s-4-5.71-10-8l-18.12-7.08c-7.28-2.85-13.26-12.72-24.32-28.69-11.68-16.88-14.22-27.39-21.57-34"/><path class="cls-2" d="M1039.14,335.33c2.91,0.74,7,1.78,8.64,1.77,6-.05,14.44-5.36,21-11.82,4.74-4.65-.71-17-7.11-21.41-3.32-2.27-5.48-3-10.57-.92-3.7-1.08-7.3,1.1-6.24,3-2.23-.9-9.48,1.5-7.61,3.32-3-.49-4.51,3-4.51,4.26,0,3.12,6.32,4.75,7.67,7.73s0.88,5.19-.77,6.4"/><path class="cls-7" d="M1059.35,313.78s-1.18-8.61-9.28-11"/><path class="cls-7" d="M1052.77,314.94a15,15,0,0,0-10-9.82"/><path class="cls-7" d="M1046.16,318.11s-0.66-6.22-8.76-8.66"/></svg>