<svg id="Instrument" xmlns="http://www.w3.org/2000/svg" viewBox="0 0 1792 768"><defs><style>.cls-1,.cls-2{fill:#eeb9a9;}.cls-1,.cls-11,.cls-2,.cls-3,.cls-4,.cls-5,.cls-6,.cls-8,.cls-9{stroke:#24265b;}.cls-1,.cls-11,.cls-2,.cls-3,.cls-4,.cls-5,.cls-6,.cls-9{stroke-linecap:round;}.cls-1,.cls-8{stroke-miterlimit:10;}.cls-1,.cls-2,.cls-3,.cls-4,.cls-5,.cls-8{stroke-width:3px;}.cls-11,.cls-2,.cls-3,.cls-4,.cls-5,.cls-6,.cls-9{stroke-linejoin:round;}.cls-3{fill:#d6cf90;}.cls-10,.cls-4,.cls-6,.cls-9{fill:#fff;}.cls-11,.cls-5{fill:none;}.cls-6{stroke-width:2.33px;}.cls-7,.cls-8{fill:#24265b;}.cls-11,.cls-9{stroke-width:2.74px;}</style></defs><title>instrument</title><path class="cls-1" d="M990.51,276a79.82,79.82,0,0,0,1.14,13.33c0.48,3-13.44,14.73-13.44,14.73"/><path class="cls-1" d="M991.64,289.36c19.53,7.41,21.93,18.08,58.42,34.43,4.64,3.56,1.36,14.53-3.91,13.32C1018,330.63,989.55,320,974,305.95c-4.57-4.12-3.89-15.37-3.89-17.67"/><path class="cls-2" d="M1038.07,304.09l9.08-3.94s-5.33-2-9.08,0S1038.07,304.09,1038.07,304.09Z"/><path class="cls-3" d="M829.95,385.65c2.69,8.72,12.41,32.82,18.31,42.47,11.48,18.78,24.49,26.34,40.59,23.59,33.73-5.77,47-42.13,60.82-47.49,12.5-4.85,39.19,2.28,51.06-16.75,3.35-5.38-2.25-9.39-6.19-8.22-24.87,7.45-32.64-18.35-22.88-22.81s19.88-26.78,6.57-26.07c-15.72.84-15.88-25.33,5.95-33.15,8-2.88,3.7-15-13.17-12.36-24.27,3.74-32,27.81-55.49,35.77-12.87,4.36-49.11,1.11-68.3,9.76S822.34,361,829.95,385.65Z"/><path class="cls-4" d="M962.35,330.39c-0.06,3.74,1,35.32,1.63,40,1.46,11.45,16.1,18.7,29.43,13.6,2.49-1,4.65.31,2.93,2.71-9.76,13.61-41.47,10.35-47.32,13-18.54,8.28-26,32.2-46.18,41.51-3.68,1.7-9.2-1.21-8-5.57,5.37-19,7.32-27,2-35.45-3.51-5.53-13.66-28.1-15.12-31.77-4.39-11,5.63-18.81,12.2-21.54,11.38-4.74,33.28-2.39,44.39-7.5A83.08,83.08,0,0,0,956,328.11C958,326.43,962.4,326.65,962.35,330.39Z"/><line class="cls-5" x1="923.28" y1="413.14" x2="927.66" y2="403.56"/><circle class="cls-4" cx="909.43" cy="397.2" r="4.88"/><circle class="cls-4" cx="908.78" cy="414.28" r="4.88"/><circle class="cls-4" cx="925.6" cy="409.09" r="1.95"/><circle class="cls-6" cx="903.9" cy="430.96" r="4.88"/><rect class="cls-4" x="936.98" y="345.03" width="13.66" height="25.37" rx="3" ry="3" transform="translate(-62.75 432.39) rotate(-25)"/><rect class="cls-4" x="899.69" y="361.77" width="13.66" height="25.37" rx="3" ry="3" transform="translate(-73.32 418.19) rotate(-25)"/><rect class="cls-4" x="877.97" y="367.54" width="15.61" height="31.22" rx="3" ry="3" transform="translate(-78.93 410.24) rotate(-25)"/><path class="cls-7" d="M906,374.36l6.79,6s5.26-7.49,3.07-9.31S906,374.36,906,374.36Z"/><path class="cls-2" d="M812.33,305.68c0.57,12.4,13.42,28.56,29.62,46.2,10.69,11.64,28.74,22.48,28.74,22.48s11.81,23.31,16.2,26.72c1.94,1.5,6.88,3.68,10.32,1.32,3.16,1.27,7.19,1.1,9-1.07,2.85,1.07,8.33-.34,8.21-3.14,3.48,0.73,5.38-.6,6.05-1.59,2.2-3.28-5.44-17.15-5.44-17.15s-4-5.71-10-8l-18.12-7.08c-7.28-2.85-13.26-12.72-24.32-28.69-11.68-16.88-14.22-27.39-21.57-34"/><g id="Guitar"><path class="cls-3" d="M1126.81,266s1.94-7.08,4.32-8.48,43.8-7.26,57.45-9c5.81-.76,12.31,3.25,13,8.4,0.84,6.38-3.45,10.9-9.31,11.93-6,1.06-11.82-4.4-13.44-3.2-2.8,2.06-12.14,9.31-24.72,17.16-1.94,1.21-9.54-6.11-20.11-1.75C1125.25,284.58,1126.81,266,1126.81,266Z"/><path class="cls-8" d="M952.8,341.87c3.84-2.58,152.81-66.87,175.42-76.51,2.08-.89,8.5,14.33,5.79,15.61s-168,78.54-172.47,79.94S949,344.46,952.8,341.87Z"/></g><path class="cls-2" d="M1039.14,335.33a73.72,73.72,0,0,0,10.77,1.77c6-.05,10.88-6.07,17.47-12.53,4.74-4.65.71-16.31-5.69-20.7-3.32-2.27-5.48-3-10.57-.92-3.7-1.08-7.3,1.1-6.24,3-4.34-1.81-8.77,2.21-6.9,4-3-.49-4.74,3.85-2.42,5.27,2.92,1.8,3.52,2.31,4.87,5.3s0.17,4.48-1.48,5.69"/><path class="cls-5" d="M1059.35,313.78s-1.18-8.61-9.28-11"/><path class="cls-5" d="M1052.77,314.94a15,15,0,0,0-10-9.82"/><path class="cls-5" d="M1046.87,319.53s-1.18-8.79-8.76-9.37"/><path class="cls-4" d="M890.14,421.88c-2.11,12.57-7.29,19.46-11,18.48s-2.47-15.77-.33-21.95c1.86-5.34,4.5-8.88,8.1-7.91S891.34,414.73,890.14,421.88Z"/><line class="cls-4" x1="878.53" y1="419.16" x2="890.14" y2="421.88"/><line class="cls-6" x1="1183.7" y1="248.82" x2="1183.43" y2="245.72"/><ellipse class="cls-9" cx="1183.26" cy="243.78" rx="2.93" ry="1.95" transform="translate(-16.74 104.06) rotate(-5)"/><line class="cls-6" x1="1174.7" y1="250.22" x2="1174.43" y2="247.12"/><ellipse class="cls-9" cx="1174.26" cy="245.18" rx="2.93" ry="1.95" transform="translate(-16.9 103.28) rotate(-5)"/><line class="cls-6" x1="1165.7" y1="251.62" x2="1165.43" y2="248.52"/><ellipse class="cls-9" cx="1165.26" cy="246.58" rx="2.93" ry="1.95" transform="translate(-17.06 102.5) rotate(-5)"/><line class="cls-6" x1="1156.7" y1="253.02" x2="1156.43" y2="249.92"/><ellipse class="cls-9" cx="1156.26" cy="247.98" rx="2.93" ry="1.95" transform="translate(-17.21 101.72) rotate(-5)"/><line class="cls-6" x1="1147.7" y1="254.42" x2="1147.43" y2="251.32"/><ellipse class="cls-9" cx="1147.26" cy="249.38" rx="2.93" ry="1.95" transform="translate(-17.37 100.94) rotate(-5)"/><line class="cls-6" x1="1138.7" y1="255.82" x2="1138.43" y2="252.72"/><ellipse class="cls-9" cx="1138.26" cy="250.78" rx="2.93" ry="1.95" transform="translate(-17.53 100.16) rotate(-5)"/><circle class="cls-10" cx="1183.29" cy="253.79" r="1.95"/><circle class="cls-11" cx="1183.29" cy="253.79" r="1.95"/><circle class="cls-10" cx="1174.29" cy="255.19" r="1.95"/><circle class="cls-11" cx="1174.29" cy="255.19" r="1.95"/><circle class="cls-10" cx="1165.29" cy="256.59" r="1.95"/><circle class="cls-11" cx="1165.29" cy="256.59" r="1.95"/><circle class="cls-10" cx="1156.29" cy="257.99" r="1.95"/><circle class="cls-11" cx="1156.29" cy="257.99" r="1.95"/><circle class="cls-10" cx="1147.29" cy="259.39" r="1.95"/><circle class="cls-11" cx="1147.29" cy="259.39" r="1.95"/><circle class="cls-10" cx="1138.29" cy="260.79" r="1.95"/><circle class="cls-11" cx="1138.29" cy="260.79" r="1.95"/></svg>