<svg id="Instrument" xmlns="http://www.w3.org/2000/svg" viewBox="0 0 1792 768"><defs><style>.cls-1{fill:#fff;}.cls-1,.cls-2,.cls-3,.cls-4{stroke:#24265b;stroke-linecap:round;stroke-linejoin:round;}.cls-1,.cls-2,.cls-3{stroke-width:2.55px;}.cls-2{fill:#c3996d;}.cls-3{fill:#24265b;}.cls-4{fill:#eeb9a9;stroke-width:3px;}</style></defs><title>instrument</title><rect class="cls-1" x="1022.81" y="523.55" width="8.06" height="133.01" rx="4.03" ry="4.03"/><path class="cls-1" d="M1098.73,407.25c0-4.45-2.71-8.06-6-8.06s-6,3.61-6,8.06,2.71,13,6,13S1098.73,411.7,1098.73,407.25Z"/><path class="cls-1" d="M967.06,407.25c0-4.45-2.71-8.06-6-8.06s-6,3.61-6,8.06,2.71,13,6,13S967.06,411.7,967.06,407.25Z"/><rect class="cls-1" x="1091.67" y="379.79" width="8.06" height="24.18" rx="4.03" ry="4.03"/><rect class="cls-1" x="953.96" y="379.79" width="8.06" height="24.18" rx="4.03" ry="4.03"/><path class="cls-2" d="M1095.7,451c0.62-22-.78-48.34-4.61-70.54-2.24-13-33.6-22.1-64.25-22.1-35.62,0-60.12,9.48-64.49,24.18S956.94,427.71,958,451c2.09,46.7,10,84.65,26.33,117.26,0,0.06.06,0.13,0.08,0.2l0.12,0.27,0,0c3.64,7.52,21.18,13.22,42.29,13.22,20.88,0,38.28-5.58,42.17-13h0C1087,531.93,1094.47,494.53,1095.7,451Z"/><ellipse class="cls-1" cx="1026.84" cy="394.57" rx="68.86" ry="24.18"/><path class="cls-1" d="M1026.84,528.92c-31.61,0-57.79-8.16-62.4-18.81a8.4,8.4,0,0,0-.72,3.36c0,12.24,28.26,22.17,63.12,22.17s63.12-9.93,63.12-22.17a8.4,8.4,0,0,0-.72-3.36C1084.64,520.76,1058.45,528.92,1026.84,528.92Z"/><path class="cls-1" d="M1095.07,379.19h0v0c-0.22-.58-4.39-8.91-4.39-8.91h0c-4.5-11.71-31.36-20.71-63.82-20.71-32.24,0-58.95,8.87-63.73,20.46h0s-4.27,8.59-4.49,9.15v0h0a9.06,9.06,0,0,0-.63,3.28c0,13.36,30.83,24.18,68.86,24.18s68.86-10.83,68.86-24.18A9.06,9.06,0,0,0,1095.07,379.19Z"/><path class="cls-1" d="M998.63,427.93a8.06,8.06,0,0,0-16.12,0c0,4.45,3.61,13,8.06,13S998.63,432.38,998.63,427.93Z"/><path class="cls-1" d="M1071.1,427.93a8.06,8.06,0,0,0-16.12,0c0,4.45,3.61,13,8.06,13S1071.1,432.38,1071.1,427.93Z"/><path class="cls-1" d="M1080.63,387.09c-11.55,6.53-31.33,10.84-53.79,10.84-21.6,0-40.71-4-52.42-10.09"/><rect class="cls-1" x="986.54" y="406.66" width="8.06" height="24.18" rx="4.03" ry="4.03"/><rect class="cls-1" x="1073.2" y="523.55" width="8.06" height="153.17" rx="4.03" ry="4.03" transform="matrix(0.99, -0.16, 0.16, 0.99, -80.62, 175.9)"/><rect class="cls-1" x="972.43" y="523.55" width="8.06" height="153.17" rx="4.03" ry="4.03" transform="translate(105.9 -145.36) rotate(9)"/><rect class="cls-1" x="1059.09" y="406.66" width="8.06" height="24.18" rx="4.03" ry="4.03"/><rect class="cls-3" x="959.17" y="664.05" width="12.09" height="14.11" rx="6" ry="6" transform="translate(116.87 -142.73) rotate(9)"/><rect class="cls-3" x="1020.8" y="643.8" width="12.09" height="14.11" rx="6" ry="6"/><rect class="cls-3" x="1082.42" y="664.05" width="12.09" height="14.11" rx="6" ry="6" transform="translate(-91.58 178.54) rotate(-9)"/><rect class="cls-1" x="924.44" y="545.03" width="8.53" height="140.8" rx="4.27" ry="4.27"/><path class="cls-1" d="M1004.8,421.92c0-4.71-2.87-8.53-6.4-8.53s-6.4,3.82-6.4,8.53,2.87,13.75,6.4,13.75S1004.8,426.63,1004.8,421.92Z"/><path class="cls-1" d="M865.42,421.92c0-4.71-2.87-8.53-6.4-8.53s-6.4,3.82-6.4,8.53,2.87,13.75,6.4,13.75S865.42,426.63,865.42,421.92Z"/><rect class="cls-1" x="997.33" y="392.85" width="8.53" height="25.6" rx="4.27" ry="4.27"/><rect class="cls-1" x="851.56" y="392.85" width="8.53" height="25.6" rx="4.27" ry="4.27"/><path class="cls-2" d="M1001.6,468.23c0.66-23.32-.83-51.17-4.88-74.67-2.37-13.76-35.57-23.39-68-23.39-37.7,0-63.64,10-68.27,25.6s-5.72,47.8-4.62,72.46c2.21,49.43,10.55,89.6,27.88,124.12,0,0.07.06,0.14,0.09,0.21l0.12,0.29,0,0c3.86,8,22.42,14,44.76,14,22.11,0,40.52-5.91,44.64-13.75h0C992.35,553.9,1000.3,514.31,1001.6,468.23Z"/><ellipse class="cls-1" cx="928.71" cy="408.49" rx="72.89" ry="25.6"/><path class="cls-1" d="M928.71,550.72c-33.46,0-61.17-8.64-66.05-19.91a8.89,8.89,0,0,0-.76,3.56c0,13,29.91,23.47,66.81,23.47s66.81-10.51,66.81-23.47a8.89,8.89,0,0,0-.76-3.56C989.88,542.08,962.17,550.72,928.71,550.72Z"/><path class="cls-1" d="M1000.93,392.22h0v0c-0.24-.61-4.65-9.43-4.65-9.43h0c-4.76-12.39-33.19-21.92-67.56-21.92-34.12,0-62.4,9.39-67.46,21.65h0s-4.52,9.1-4.75,9.69l0,0h0a9.59,9.59,0,0,0-.67,3.47c0,14.14,32.63,25.6,72.89,25.6s72.89-11.46,72.89-25.6A9.59,9.59,0,0,0,1000.93,392.22Z"/><path class="cls-1" d="M898.84,443.81a8.53,8.53,0,0,0-17.07,0c0,4.71,3.82,13.75,8.53,13.75S898.84,448.52,898.84,443.81Z"/><path class="cls-1" d="M975.56,443.81a8.53,8.53,0,1,0-17.07,0c0,4.71,3.82,13.75,8.53,13.75S975.56,448.52,975.56,443.81Z"/><path class="cls-1" d="M985.65,400.58C973.42,407.49,952.49,412,928.71,412c-22.86,0-43.1-4.21-55.49-10.68"/><rect class="cls-1" x="886.04" y="421.29" width="8.53" height="25.6" rx="4.27" ry="4.27"/><rect class="cls-1" x="977.78" y="545.03" width="8.53" height="162.13" rx="4.27" ry="4.27" transform="translate(-85.85 161.33) rotate(-9)"/><rect class="cls-1" x="871.11" y="545.03" width="8.53" height="162.13" rx="4.27" ry="4.27" transform="translate(108.72 -129.23) rotate(9)"/><rect class="cls-1" x="962.84" y="421.29" width="8.53" height="25.6" rx="4.27" ry="4.27"/><rect class="cls-3" x="857.08" y="693.75" width="12.8" height="14.93" rx="6" ry="6" transform="translate(120.32 -126.44) rotate(9)"/><rect class="cls-3" x="922.31" y="672.32" width="12.8" height="14.93" rx="6" ry="6"/><rect class="cls-3" x="987.54" y="693.75" width="12.8" height="14.93" rx="6" ry="6" transform="translate(-97.46 164.12) rotate(-9)"/><path class="cls-4" d="M812.33,305.68c0.57,12.4,13.42,28.56,29.62,46.2,10.69,11.64,30.46,24.24,30.46,24.24l9.36-.89L886,364.66c-7.28-2.85-12.37-13-23.43-29-11.68-16.88-14.22-27.39-21.57-34"/><path class="cls-4" d="M871,375.41c2.51,11.36,16.06,27.41,19,26s0.06-4.26-3.42-9.81c4,7,11.41,12.75,14,11.58s-4.92-8.22-7.85-12.89c4.29,5.5,9.23,9,13.07,10.43,3.2,1.16,5.24-2.59,2.86-4.23-4.3-3-7.3-7.82-9.78-11.11,2.29,3.06,7.08,7.64,10.08,8.09,3.72,0.56,6-2.12,1.93-5.09-2.32-1.69-9.69-7.23-13.42-12.61,3.43,0.79,10.22,2.47,9.2-2s-18-6.85-22-9.87"/><path class="cls-4" d="M990.22,283.74c0.35,10.31,3.86,15.09,6.31,24.53,7.56,29.16,17.94,36.62,17.8,41.59-0.12,4.11-3.1,12.28-12.73,5.81-10.19-6.84-22.3-28.41-25-36.37-3.18-9.24-7.42-19.87-6.72-31"/><path class="cls-4" d="M1013.62,347c4,2,13.2.73,28.5,4.87,2.91,0.79,3.75,3.64,1.64,5.17,2.34,0.93,4.11,1.43,5.13,4,0.63,1.61-.67,2.76-1.23,3.66,2.21,2.58-.74,6.51-3.11,4.86-4.29-3-9.89-4.08-13.84-5.25,3.67,1.07,9.64,3.93,11.12,6.59,1.84,3.28,0,5.37-4.09,3.6-2.62-1.15-9.64-6.13-16.93-8.79,3.43,2.19,7.76,8.16,3.39,9.4-2.63.74-9.72-3.94-13.65-7-1.74-1.34-9-8.39-8.93-12.5"/><path class="cls-4" d="M1033.65,360s10.39,2.12,14,4.72"/><path class="cls-4" d="M1043.75,357s-6-2.3-9.47-2.7"/></svg>