<svg id="Instrument" xmlns="http://www.w3.org/2000/svg" viewBox="0 0 1792 768"><defs><style>.cls-1{fill:#eeb9a9;}.cls-1,.cls-2,.cls-4,.cls-6{stroke:#24265b;stroke-linecap:round;stroke-linejoin:round;}.cls-1,.cls-4{stroke-width:3px;}.cls-2{fill:#d6cf90;}.cls-2,.cls-6{stroke-width:3.14px;}.cls-3{fill:#fff;}.cls-4{fill:none;}.cls-5{fill:#24265b;}.cls-6{fill:#a8a887;}</style></defs><title>instrument</title><path class="cls-1" d="M982.55,286.46c0,4.74-.33,9.36-0.75,16.85,1.7,8.35,6.55,16,13.11,25.13,8.53,11.86,26.84,23.54,26.84,23.54l13-6.11c-5.85-3.91-10.76-11.92-18.6-27.72-8.21-16.55-8.85-26.82-14-34"/><polygon class="cls-2" points="934.62 425.22 872 391.1 1070.89 371 1133.51 405.12 934.62 425.22"/><polygon class="cls-2" points="951.9 435.02 872 391.1 872.39 693.33 952.29 737.24 951.9 435.02"/><polygon class="cls-3" points="1253.65 347.13 1228.73 333.04 1238.25 331.55 1263.16 345.64 1253.65 347.13"/><polygon class="cls-4" points="1253.65 347.13 1228.73 333.04 1238.25 331.55 1263.16 345.64 1253.65 347.13"/><polygon class="cls-3" points="1241.65 349.03 1216.73 334.94 1226.25 333.45 1251.16 347.54 1241.65 349.03"/><polygon class="cls-4" points="1241.65 349.03 1216.73 334.94 1226.25 333.45 1251.16 347.54 1241.65 349.03"/><polygon class="cls-3" points="1229.65 350.93 1204.73 336.84 1214.25 335.35 1239.16 349.44 1229.65 350.93"/><polygon class="cls-4" points="1229.65 350.93 1204.73 336.84 1214.25 335.35 1239.16 349.44 1229.65 350.93"/><polygon class="cls-3" points="1217.65 352.83 1192.73 338.74 1202.25 337.25 1227.16 351.34 1217.65 352.83"/><polygon class="cls-4" points="1217.65 352.83 1192.73 338.74 1202.25 337.25 1227.16 351.34 1217.65 352.83"/><polygon class="cls-3" points="1205.65 354.73 1180.73 340.64 1190.25 339.15 1215.16 353.24 1205.65 354.73"/><polygon class="cls-4" points="1205.65 354.73 1180.73 340.64 1190.25 339.15 1215.16 353.24 1205.65 354.73"/><polygon class="cls-3" points="1193.65 356.63 1168.73 342.54 1178.25 341.05 1203.16 355.14 1193.65 356.63"/><polygon class="cls-4" points="1193.65 356.63 1168.73 342.54 1178.25 341.05 1203.16 355.14 1193.65 356.63"/><polygon class="cls-3" points="1181.65 358.53 1156.73 344.44 1166.25 342.95 1191.16 357.04 1181.65 358.53"/><polygon class="cls-4" points="1181.65 358.53 1156.73 344.44 1166.25 342.95 1191.16 357.04 1181.65 358.53"/><polygon class="cls-3" points="1169.65 360.43 1144.73 346.34 1154.25 344.85 1179.16 358.94 1169.65 360.43"/><polygon class="cls-4" points="1169.65 360.43 1144.73 346.34 1154.25 344.85 1179.16 358.94 1169.65 360.43"/><polygon class="cls-3" points="1157.65 362.33 1132.73 348.24 1142.25 346.75 1167.16 360.84 1157.65 362.33"/><polygon class="cls-4" points="1157.65 362.33 1132.73 348.24 1142.25 346.75 1167.16 360.84 1157.65 362.33"/><polygon class="cls-3" points="1145.65 364.23 1120.73 350.14 1130.25 348.65 1155.16 362.74 1145.65 364.23"/><polygon class="cls-4" points="1145.65 364.23 1120.73 350.14 1130.25 348.65 1155.16 362.74 1145.65 364.23"/><polygon class="cls-3" points="1133.65 366.13 1108.73 352.04 1118.25 350.55 1143.16 364.64 1133.65 366.13"/><polygon class="cls-4" points="1133.65 366.13 1108.73 352.04 1118.25 350.55 1143.16 364.64 1133.65 366.13"/><polygon class="cls-3" points="1121.65 368.03 1096.73 353.94 1106.25 352.45 1131.16 366.54 1121.65 368.03"/><polygon class="cls-4" points="1121.65 368.03 1096.73 353.94 1106.25 352.45 1131.16 366.54 1121.65 368.03"/><polygon class="cls-3" points="1109.65 369.93 1084.73 355.84 1094.25 354.35 1119.16 368.44 1109.65 369.93"/><polygon class="cls-4" points="1109.65 369.93 1084.73 355.84 1094.25 354.35 1119.16 368.44 1109.65 369.93"/><polygon class="cls-3" points="1097.65 371.83 1072.73 357.74 1082.25 356.25 1107.16 370.34 1097.65 371.83"/><polygon class="cls-4" points="1097.65 371.83 1072.73 357.74 1082.25 356.25 1107.16 370.34 1097.65 371.83"/><polygon class="cls-3" points="1085.65 373.73 1060.73 359.64 1070.25 358.15 1095.16 372.24 1085.65 373.73"/><polygon class="cls-4" points="1085.65 373.73 1060.73 359.64 1070.25 358.15 1095.16 372.24 1085.65 373.73"/><polygon class="cls-3" points="1073.65 375.63 1048.73 361.54 1058.25 360.05 1083.16 374.14 1073.65 375.63"/><polygon class="cls-4" points="1073.65 375.63 1048.73 361.54 1058.25 360.05 1083.16 374.14 1073.65 375.63"/><polygon class="cls-3" points="1061.65 377.53 1036.73 363.44 1046.25 361.95 1071.16 376.04 1061.65 377.53"/><polygon class="cls-4" points="1061.65 377.53 1036.73 363.44 1046.25 361.95 1071.16 376.04 1061.65 377.53"/><polygon class="cls-3" points="1049.65 379.43 1024.73 365.34 1034.25 363.85 1059.16 377.94 1049.65 379.43"/><polygon class="cls-4" points="1049.65 379.43 1024.73 365.34 1034.25 363.85 1059.16 377.94 1049.65 379.43"/><polygon class="cls-3" points="1037.65 381.33 1012.73 367.24 1022.25 365.75 1047.16 379.84 1037.65 381.33"/><polygon class="cls-4" points="1037.65 381.33 1012.73 367.24 1022.25 365.75 1047.16 379.84 1037.65 381.33"/><polygon class="cls-3" points="1025.65 383.23 1000.73 369.14 1010.25 367.65 1035.16 381.74 1025.65 383.23"/><polygon class="cls-4" points="1025.65 383.23 1000.73 369.14 1010.25 367.65 1035.16 381.74 1025.65 383.23"/><polygon class="cls-3" points="1013.65 385.13 988.73 371.04 998.25 369.55 1023.16 383.64 1013.65 385.13"/><polygon class="cls-4" points="1013.65 385.13 988.73 371.04 998.25 369.55 1023.16 383.64 1013.65 385.13"/><polygon class="cls-3" points="1001.65 387.03 976.73 372.94 986.25 371.45 1011.16 385.54 1001.65 387.03"/><polygon class="cls-4" points="1001.65 387.03 976.73 372.94 986.25 371.45 1011.16 385.54 1001.65 387.03"/><polygon class="cls-3" points="989.65 388.93 964.73 374.84 974.25 373.35 999.16 387.44 989.65 388.93"/><polygon class="cls-4" points="989.65 388.93 964.73 374.84 974.25 373.35 999.16 387.44 989.65 388.93"/><polygon class="cls-3" points="977.65 390.83 952.73 376.74 962.25 375.25 987.16 389.34 977.65 390.83"/><polygon class="cls-4" points="977.65 390.83 952.73 376.74 962.25 375.25 987.16 389.34 977.65 390.83"/><polygon class="cls-3" points="965.65 392.73 940.73 378.64 950.25 377.15 975.16 391.24 965.65 392.73"/><polygon class="cls-4" points="965.65 392.73 940.73 378.64 950.25 377.15 975.16 391.24 965.65 392.73"/><polygon class="cls-3" points="953.65 394.63 928.73 380.54 938.25 379.05 963.16 393.14 953.65 394.63"/><polygon class="cls-4" points="953.65 394.63 928.73 380.54 938.25 379.05 963.16 393.14 953.65 394.63"/><polygon class="cls-3" points="941.65 396.53 916.73 382.44 926.25 380.95 951.16 395.04 941.65 396.53"/><polygon class="cls-4" points="941.65 396.53 916.73 382.44 926.25 380.95 951.16 395.04 941.65 396.53"/><polygon class="cls-3" points="929.65 398.43 904.73 384.34 914.25 382.85 939.16 396.94 929.65 398.43"/><polygon class="cls-4" points="929.65 398.43 904.73 384.34 914.25 382.85 939.16 396.94 929.65 398.43"/><polygon class="cls-3" points="917.65 400.33 892.73 386.24 902.25 384.75 927.16 398.84 917.65 400.33"/><polygon class="cls-4" points="917.65 400.33 892.73 386.24 902.25 384.75 927.16 398.84 917.65 400.33"/><polygon class="cls-5" points="982.03 389.51 971.42 383.51 975.48 382.88 986.08 388.88 982.03 389.51"/><polygon class="cls-4" points="982.03 389.51 971.42 383.51 975.48 382.88 986.08 388.88 982.03 389.51"/><polygon class="cls-5" points="970.53 391.51 959.92 385.51 963.98 384.88 974.58 390.88 970.53 391.51"/><polygon class="cls-4" points="970.53 391.51 959.92 385.51 963.98 384.88 974.58 390.88 970.53 391.51"/><polygon class="cls-5" points="959.03 393.51 948.42 387.51 952.48 386.88 963.08 392.88 959.03 393.51"/><polygon class="cls-4" points="959.03 393.51 948.42 387.51 952.48 386.88 963.08 392.88 959.03 393.51"/><polygon class="cls-5" points="945.4 395.74 934.8 389.74 938.85 389.1 949.46 395.1 945.4 395.74"/><polygon class="cls-4" points="945.4 395.74 934.8 389.74 938.85 389.1 949.46 395.1 945.4 395.74"/><polygon class="cls-5" points="933.9 397.74 923.3 391.74 927.35 391.1 937.96 397.1 933.9 397.74"/><polygon class="cls-4" points="933.9 397.74 923.3 391.74 927.35 391.1 937.96 397.1 933.9 397.74"/><polygon class="cls-2" points="1354.75 707.89 951.9 737.53 951.9 255.11 1354.75 225.47 1354.75 707.89"/><path class="cls-1" d="M916.41,364s10.89-2.34,12.77-1.58c2.43,1,1.84,4.48-.65,5.75S916.41,364,916.41,364Z"/><path class="cls-1" d="M812.61,305.68c0.57,12.4,16.89,28.89,37,44.2,12.91,9.85,39.74,21.14,39.74,21.14L902,361.29c-7.28-2.85-19.52-12.36-31.8-27.64-12.86-16-21.56-25.39-28.91-32"/><path class="cls-1" d="M898.19,359.37c5.1,1.7,12.3,4.19,21.54,4.19,6.18,0,11.11,5.69,13.35,9.47,1.22,2.06-.82,5.14-3.48,3.21,2.2,2,1.43,1.84,2.67,3.56s-1.8,5.27-5.23,3.32c1.42,2.43-3.67,3.06-5.73.89-2.76-2.91-4.69-4.21-7.74-4.87a17.43,17.43,0,0,1,4.79,6.23c1.13,2.8-2.16,3.31-4.79,2.06-2.26-1.07-4.81-3.92-8-6.11-3.54-2.46-8.79-3.78-11.38-4.36s-5.22-3.06-6.33-6.64"/><path class="cls-1" d="M918.75,369.24c4.8,0,9.12,4.56,10.84,7"/><path class="cls-1" d="M915.38,373.17c5.59,2,9.7,5.23,11.66,9.94"/><path class="cls-1" d="M910.81,377.22a17.17,17.17,0,0,1,2.75,1.91"/><polygon class="cls-2" points="951.49 255.47 921.25 239.4 1323.98 209.88 1354.22 225.63 951.49 255.47"/><polygon class="cls-2" points="951.9 255.65 920.59 238.92 920.59 417.53 951.9 434.23 951.9 255.65"/><polygon class="cls-6" points="1067.56 696.3 978.66 703.52 978.66 285.19 1067.56 277.97 1067.56 696.3"/><polygon class="cls-6" points="1189.86 689.11 1100.95 696.33 1100.95 278 1189.86 270.78 1189.86 689.11"/><polygon class="cls-6" points="1312.27 678.88 1223.38 686.1 1223.38 267.77 1312.27 260.55 1312.27 678.88"/></svg>