<svg id="Instrument" xmlns="http://www.w3.org/2000/svg" viewBox="0 0 1792 768"><defs><style>.cls-1,.cls-2{fill:#eeb9a9;}.cls-1,.cls-2,.cls-3,.cls-4,.cls-5,.cls-7{stroke:#24265b;stroke-linecap:round;stroke-width:3px;}.cls-1,.cls-3,.cls-4,.cls-5,.cls-7{stroke-linejoin:round;}.cls-2{stroke-miterlimit:10;}.cls-3{fill:#fff;}.cls-4{fill:#a8a887;}.cls-5{fill:#d6cf90;}.cls-6{fill:#24265b;}.cls-7{fill:none;}</style></defs><title>instrument</title><path class="cls-1" d="M1038.07,304.09l9.08-3.94s-5.33-2-9.08,0S1038.07,304.09,1038.07,304.09Z"/><path class="cls-2" d="M990.51,276a79.82,79.82,0,0,0,1.14,13.33c0.48,3-13.44,14.73-13.44,14.73"/><path class="cls-2" d="M991.64,289.36c19.53,7.41,21.93,18.08,58.42,34.43,4.64,3.56,1.36,14.53-3.91,13.32-28.2-6.49-56.6-21.41-72.17-35.43-4.57-4.12-3.89-11.1-3.89-13.4"/><circle class="cls-3" cx="953.54" cy="391.13" r="4.19" transform="translate(-63.96 227.1) rotate(-13.14)"/><circle class="cls-3" cx="954.57" cy="409.85" r="4.19" transform="translate(433.71 1308.67) rotate(-83.14)"/><circle class="cls-3" cx="949.13" cy="427.79" r="4.19" transform="translate(138.72 1081.31) rotate(-63.14)"/><circle class="cls-3" cx="937.89" cy="442.79" r="4.19" transform="translate(-49.22 761.09) rotate(-43.14)"/><circle class="cls-3" cx="922.19" cy="453.04" r="4.19" transform="translate(-103.85 398.94) rotate(-23.14)"/><circle class="cls-3" cx="903.94" cy="457.3" r="4.19" transform="translate(-23.73 50.28) rotate(-3.14)"/><circle class="cls-3" cx="885.33" cy="455.07" r="4.19" transform="translate(193.1 1170.41) rotate(-73.14)"/><circle class="cls-3" cx="868.6" cy="446.6" r="4.19" transform="translate(-9.73 873.74) rotate(-53.14)"/><circle class="cls-3" cx="855.78" cy="432.92" r="4.19" transform="translate(-97.46 538.34) rotate(-33.14)"/><circle class="cls-3" cx="848.41" cy="415.68" r="4.19" transform="translate(-72.3 203.83) rotate(-13.14)"/><circle class="cls-3" cx="847.38" cy="396.96" r="4.19" transform="translate(352.11 1190.91) rotate(-83.14)"/><circle class="cls-3" cx="852.82" cy="379.02" r="4.19" transform="translate(129.42 968.65) rotate(-63.14)"/><circle class="cls-3" cx="864.06" cy="364.02" r="4.19" transform="translate(-15.32 689.31) rotate(-43.14)"/><circle class="cls-3" cx="879.76" cy="353.77" r="4.19" transform="translate(-68.24 374.27) rotate(-23.14)"/><circle class="cls-3" cx="898.02" cy="349.51" r="4.19" transform="translate(-17.82 49.79) rotate(-3.14)"/><circle class="cls-3" cx="916.63" cy="351.75" r="4.19" transform="translate(314.21 1127.01) rotate(-73.14)"/><circle class="cls-3" cx="933.35" cy="360.21" r="4.19" transform="translate(85.31 890.99) rotate(-53.14)"/><circle class="cls-3" cx="946.17" cy="373.89" r="4.19" transform="translate(-50.48 578.16) rotate(-33.14)"/><polygon class="cls-4" points="1099.2 280.2 1093.49 271.46 940.91 369.01 948.52 380.68 1099.2 280.2"/><circle class="cls-3" cx="900.98" cy="403.41" r="52.24" transform="translate(-73.97 558.25) rotate(-33.14)"/><rect class="cls-4" x="873.03" y="411.35" width="20.9" height="6.97" transform="translate(747.77 -551.71) rotate(56.86)"/><path class="cls-5" d="M1099.2,280.21l-5.71-8.75c4.7-3.07,6.38-10.4,8.81-12s7.65-.84,10.65-2.8,3-8.18,3-8.18c8.5-5.55,11.63,1.18,18.33,2.59-1.34,6.36,3.83,12.06-5,17.82,0,0-5.93-2.36-8.69-.57s-4.58,7.15-6.84,8.63S1103.49,277.4,1099.2,280.21Z"/><path class="cls-6" d="M906,374.36l6.79,6s5.26-7.49,3.07-9.31S906,374.36,906,374.36Z"/><path class="cls-1" d="M812.33,305.68c0.57,12.4,13.42,28.56,29.62,46.2,10.69,11.64,28.74,22.48,28.74,22.48s11.81,23.31,16.2,26.72c1.94,1.5,6.88,3.68,10.32,1.32,3.16,1.27,7.19,1.1,9-1.07,2.85,1.07,8.33-.34,8.21-3.14,3.48,0.73,5.38-.6,6.05-1.59,2.2-3.28-5.44-17.15-5.44-17.15s-4-5.71-10-8l-18.12-7.08c-7.28-2.85-13.26-12.72-24.32-28.69-11.68-16.88-14.22-27.39-21.57-34"/><path class="cls-1" d="M1039.14,335.33c2.91,0.74,7,1.78,8.64,1.77,6-.05,14.44-5.36,21-11.82,4.74-4.65-.71-17-7.11-21.41-3.32-2.27-5.48-3-10.57-.92-3.7-1.08-7.3,1.1-6.24,3-2.23-.9-9.48,1.5-7.61,3.32-3-.49-4.51,3-4.51,4.26,0,3.12,6.32,4.75,7.67,7.73s0.88,5.19-.77,6.4"/><path class="cls-7" d="M1059.35,313.78s-1.18-8.61-9.28-11"/><path class="cls-7" d="M1052.77,314.94a15,15,0,0,0-10-9.82"/><path class="cls-7" d="M1046.16,318.11s-0.66-6.22-8.76-8.66"/></svg>