<svg id="Instrument" xmlns="http://www.w3.org/2000/svg" viewBox="0 0 1792 768"><defs><style>.cls-1{fill:#d6cf90;}.cls-1,.cls-2,.cls-4{stroke:#24265b;stroke-linecap:round;stroke-linejoin:round;stroke-width:3px;}.cls-2{fill:#eeb9a9;}.cls-3{fill:#fff;}.cls-4{fill:none;}.cls-5{fill:#24265b;}</style></defs><title>instrument</title><polyline class="cls-1" points="1153.29 674.78 1165.5 672.97 1165.5 419.53 1145.34 419.53 1153.29 672.09"/><polygon class="cls-1" points="1153.29 674.78 1095.92 642.07 1095.92 383.61 1153.29 383.61 1153.29 674.78"/><polygon class="cls-1" points="1128.81 543.41 1128.75 588.8 873.52 626.86 873.52 581.47 1128.81 543.41"/><polygon class="cls-1" points="1128.81 415.57 1128.75 460.96 873.52 499.02 873.52 453.63 1128.81 415.57"/><polygon class="cls-1" points="1128.81 543.41 1120.6 538.81 865.36 576.87 873.52 581.47 1128.81 543.41"/><polyline class="cls-1" points="877.64 714.99 889.85 713.18 889.85 459.75 869.69 459.75 877.64 712.3"/><polygon class="cls-1" points="877.64 714.99 820.27 682.28 820.27 423.82 877.64 423.82 877.64 714.99"/><path class="cls-2" d="M969.93,286.46c0,4.74-.33,9.36-0.75,16.85,1.7,8.35,6.55,16,13.11,25.13,8.53,11.86,26.84,23.54,26.84,23.54l13-6.11c-5.85-3.91-10.76-11.92-18.6-27.72-8.21-16.55-8.85-26.82-14-34"/><path class="cls-2" d="M903.79,364s10.89-2.34,12.77-1.58c2.43,1,1.84,4.48-.65,5.75S903.79,364,903.79,364Z"/><polygon class="cls-1" points="1086.48 351.8 1105.78 362.9 1155.82 376.18 1155.82 366.51 1086.48 351.8"/><polygon class="cls-1" points="804.18 432.82 885.62 479.63 885.61 410.5 802.76 393.89 804.18 432.82"/><polygon class="cls-1" points="1104.9 348.73 1085.77 352.06 1155.82 366.51 1174.95 363.17 1104.9 348.73"/><polygon class="cls-3" points="1109.33 364.56 1084.41 350.47 1093.93 348.98 1118.84 363.07 1109.33 364.56"/><polygon class="cls-4" points="1109.33 364.56 1084.41 350.47 1093.93 348.98 1118.84 363.07 1109.33 364.56"/><polygon class="cls-3" points="1100.33 365.92 1075.41 351.82 1084.93 350.33 1109.84 364.42 1100.33 365.92"/><polygon class="cls-4" points="1100.33 365.92 1075.41 351.82 1084.93 350.33 1109.84 364.42 1100.33 365.92"/><polygon class="cls-3" points="1091.33 367.26 1066.41 353.17 1075.93 351.68 1100.84 365.77 1091.33 367.26"/><polygon class="cls-4" points="1091.33 367.26 1066.41 353.17 1075.93 351.68 1100.84 365.77 1091.33 367.26"/><polygon class="cls-3" points="1082.33 368.62 1057.41 354.52 1066.93 353.03 1091.84 367.12 1082.33 368.62"/><polygon class="cls-4" points="1082.33 368.62 1057.41 354.52 1066.93 353.03 1091.84 367.12 1082.33 368.62"/><polygon class="cls-3" points="1073.33 369.96 1048.41 355.87 1057.93 354.38 1082.84 368.47 1073.33 369.96"/><polygon class="cls-4" points="1073.33 369.96 1048.41 355.87 1057.93 354.38 1082.84 368.47 1073.33 369.96"/><polygon class="cls-3" points="1064.33 371.31 1039.41 357.22 1048.93 355.73 1073.84 369.82 1064.33 371.31"/><polygon class="cls-4" points="1064.33 371.31 1039.41 357.22 1048.93 355.73 1073.84 369.82 1064.33 371.31"/><polygon class="cls-3" points="1055.33 372.67 1030.41 358.57 1039.93 357.08 1064.84 371.17 1055.33 372.67"/><polygon class="cls-4" points="1055.33 372.67 1030.41 358.57 1039.93 357.08 1064.84 371.17 1055.33 372.67"/><polygon class="cls-3" points="1046.33 374.01 1021.41 359.92 1030.93 358.43 1055.84 372.52 1046.33 374.01"/><polygon class="cls-4" points="1046.33 374.01 1021.41 359.92 1030.93 358.43 1055.84 372.52 1046.33 374.01"/><polygon class="cls-3" points="1037.33 375.37 1012.41 361.27 1021.93 359.78 1046.84 373.87 1037.33 375.37"/><polygon class="cls-4" points="1037.33 375.37 1012.41 361.27 1021.93 359.78 1046.84 373.87 1037.33 375.37"/><polygon class="cls-3" points="1028.33 376.71 1003.41 362.62 1012.93 361.13 1037.84 375.22 1028.33 376.71"/><polygon class="cls-4" points="1028.33 376.71 1003.41 362.62 1012.93 361.13 1037.84 375.22 1028.33 376.71"/><polygon class="cls-3" points="1019.33 378.06 994.41 363.97 1003.93 362.48 1028.84 376.57 1019.33 378.06"/><polygon class="cls-4" points="1019.33 378.06 994.41 363.97 1003.93 362.48 1028.84 376.57 1019.33 378.06"/><polygon class="cls-3" points="1010.33 379.42 985.41 365.32 994.93 363.83 1019.84 377.92 1010.33 379.42"/><polygon class="cls-4" points="1010.33 379.42 985.41 365.32 994.93 363.83 1019.84 377.92 1010.33 379.42"/><polygon class="cls-3" points="1001.33 380.76 976.41 366.67 985.93 365.18 1010.84 379.27 1001.33 380.76"/><polygon class="cls-4" points="1001.33 380.76 976.41 366.67 985.93 365.18 1010.84 379.27 1001.33 380.76"/><polygon class="cls-3" points="992.33 382.12 967.41 368.02 976.93 366.53 1001.84 380.62 992.33 382.12"/><polygon class="cls-4" points="992.33 382.12 967.41 368.02 976.93 366.53 1001.84 380.62 992.33 382.12"/><polygon class="cls-3" points="983.33 383.46 958.41 369.37 967.93 367.88 992.84 381.97 983.33 383.46"/><polygon class="cls-4" points="983.33 383.46 958.41 369.37 967.93 367.88 992.84 381.97 983.33 383.46"/><polygon class="cls-3" points="974.33 384.81 949.41 370.72 958.93 369.23 983.84 383.32 974.33 384.81"/><polygon class="cls-4" points="974.33 384.81 949.41 370.72 958.93 369.23 983.84 383.32 974.33 384.81"/><polygon class="cls-3" points="965.33 386.17 940.41 372.07 949.93 370.58 974.84 384.67 965.33 386.17"/><polygon class="cls-4" points="965.33 386.17 940.41 372.07 949.93 370.58 974.84 384.67 965.33 386.17"/><polygon class="cls-3" points="956.33 387.51 931.41 373.42 940.93 371.93 965.84 386.02 956.33 387.51"/><polygon class="cls-4" points="956.33 387.51 931.41 373.42 940.93 371.93 965.84 386.02 956.33 387.51"/><polygon class="cls-3" points="947.33 388.87 922.41 374.77 931.93 373.28 956.84 387.37 947.33 388.87"/><polygon class="cls-4" points="947.33 388.87 922.41 374.77 931.93 373.28 956.84 387.37 947.33 388.87"/><polygon class="cls-3" points="938.33 390.21 913.41 376.12 922.93 374.63 947.84 388.72 938.33 390.21"/><polygon class="cls-4" points="938.33 390.21 913.41 376.12 922.93 374.63 947.84 388.72 938.33 390.21"/><polygon class="cls-3" points="929.33 391.56 904.41 377.47 913.93 375.98 938.84 390.07 929.33 391.56"/><polygon class="cls-4" points="929.33 391.56 904.41 377.47 913.93 375.98 938.84 390.07 929.33 391.56"/><polygon class="cls-3" points="920.33 392.92 895.41 378.82 904.93 377.33 929.84 391.42 920.33 392.92"/><polygon class="cls-4" points="920.33 392.92 895.41 378.82 904.93 377.33 929.84 391.42 920.33 392.92"/><polygon class="cls-3" points="911.33 394.26 886.41 380.17 895.93 378.68 920.84 392.77 911.33 394.26"/><polygon class="cls-4" points="911.33 394.26 886.41 380.17 895.93 378.68 920.84 392.77 911.33 394.26"/><polygon class="cls-3" points="902.33 395.62 877.41 381.52 886.93 380.03 911.84 394.12 902.33 395.62"/><polygon class="cls-4" points="902.33 395.62 877.41 381.52 886.93 380.03 911.84 394.12 902.33 395.62"/><polygon class="cls-3" points="893.33 396.96 868.41 382.87 877.93 381.38 902.84 395.47 893.33 396.96"/><polygon class="cls-4" points="893.33 396.96 868.41 382.87 877.93 381.38 902.84 395.47 893.33 396.96"/><polygon class="cls-3" points="884.33 398.31 859.41 384.22 868.93 382.73 893.84 396.82 884.33 398.31"/><polygon class="cls-4" points="884.33 398.31 859.41 384.22 868.93 382.73 893.84 396.82 884.33 398.31"/><polygon class="cls-3" points="875.33 399.67 850.41 385.57 859.93 384.08 884.84 398.17 875.33 399.67"/><polygon class="cls-4" points="875.33 399.67 850.41 385.57 859.93 384.08 884.84 398.17 875.33 399.67"/><polygon class="cls-3" points="866.33 401.01 841.41 386.92 850.93 385.43 875.84 399.52 866.33 401.01"/><polygon class="cls-4" points="866.33 401.01 841.41 386.92 850.93 385.43 875.84 399.52 866.33 401.01"/><polygon class="cls-3" points="857.33 402.37 832.41 388.27 841.93 386.78 866.84 400.87 857.33 402.37"/><polygon class="cls-4" points="857.33 402.37 832.41 388.27 841.93 386.78 866.84 400.87 857.33 402.37"/><polygon class="cls-5" points="916.71 392.85 906.1 386.85 910.16 386.21 920.76 392.21 916.71 392.85"/><polygon class="cls-4" points="916.71 392.85 906.1 386.85 910.16 386.21 920.76 392.21 916.71 392.85"/><polygon class="cls-5" points="907.71 394.2 897.1 388.2 901.16 387.56 911.76 393.56 907.71 394.2"/><polygon class="cls-4" points="907.71 394.2 897.1 388.2 901.16 387.56 911.76 393.56 907.71 394.2"/><polygon class="cls-5" points="898.71 395.55 888.1 389.55 892.16 388.91 902.76 394.91 898.71 395.55"/><polygon class="cls-4" points="898.71 395.55 888.1 389.55 892.16 388.91 902.76 394.91 898.71 395.55"/><polygon class="cls-5" points="941.73 386.63 931.12 380.63 935.17 380 945.78 386 941.73 386.63"/><polygon class="cls-4" points="941.73 386.63 931.12 380.63 935.17 380 945.78 386 941.73 386.63"/><polygon class="cls-5" points="932.73 387.99 922.12 381.98 926.17 381.35 936.78 387.35 932.73 387.99"/><polygon class="cls-4" points="932.73 387.99 922.12 381.98 926.17 381.35 936.78 387.35 932.73 387.99"/><polygon class="cls-5" points="881.59 397.42 870.98 391.42 875.03 390.78 885.64 396.78 881.59 397.42"/><polygon class="cls-4" points="881.59 397.42 870.98 391.42 875.03 390.78 885.64 396.78 881.59 397.42"/><polygon class="cls-5" points="872.59 398.77 861.98 392.77 866.03 392.13 876.64 398.13 872.59 398.77"/><polygon class="cls-4" points="872.59 398.77 861.98 392.77 866.03 392.13 876.64 398.13 872.59 398.77"/><polygon class="cls-5" points="978.33 381.37 967.72 375.36 971.77 374.73 982.38 380.73 978.33 381.37"/><polygon class="cls-4" points="978.33 381.37 967.72 375.36 971.77 374.73 982.38 380.73 978.33 381.37"/><polygon class="cls-5" points="969.33 382.71 958.72 376.71 962.77 376.08 973.38 382.08 969.33 382.71"/><polygon class="cls-4" points="969.33 382.71 958.72 376.71 962.77 376.08 973.38 382.08 969.33 382.71"/><polygon class="cls-5" points="960.33 384.06 949.72 378.06 953.77 377.43 964.38 383.43 960.33 384.06"/><polygon class="cls-4" points="960.33 384.06 949.72 378.06 953.77 377.43 964.38 383.43 960.33 384.06"/><polygon class="cls-5" points="1004.34 377.15 993.73 371.15 997.79 370.52 1008.39 376.52 1004.34 377.15"/><polygon class="cls-4" points="1004.34 377.15 993.73 371.15 997.79 370.52 1008.39 376.52 1004.34 377.15"/><polygon class="cls-5" points="995.34 378.5 984.73 372.5 988.79 371.87 999.39 377.87 995.34 378.5"/><polygon class="cls-4" points="995.34 378.5 984.73 372.5 988.79 371.87 999.39 377.87 995.34 378.5"/><polygon class="cls-5" points="1039.41 371.88 1028.81 365.88 1032.86 365.25 1043.47 371.25 1039.41 371.88"/><polygon class="cls-4" points="1039.41 371.88 1028.81 365.88 1032.86 365.25 1043.47 371.25 1039.41 371.88"/><polygon class="cls-5" points="1030.41 373.23 1019.81 367.23 1023.86 366.6 1034.47 372.6 1030.41 373.23"/><polygon class="cls-4" points="1030.41 373.23 1019.81 367.23 1023.86 366.6 1034.47 372.6 1030.41 373.23"/><polygon class="cls-5" points="1021.41 374.58 1010.81 368.58 1014.86 367.95 1025.47 373.95 1021.41 374.58"/><polygon class="cls-4" points="1021.41 374.58 1010.81 368.58 1014.86 367.95 1025.47 373.95 1021.41 374.58"/><polygon class="cls-5" points="1067.43 366.67 1056.82 360.67 1060.88 360.04 1071.48 366.04 1067.43 366.67"/><polygon class="cls-4" points="1067.43 366.67 1056.82 360.67 1060.88 360.04 1071.48 366.04 1067.43 366.67"/><polygon class="cls-5" points="1058.43 368.02 1047.82 362.02 1051.88 361.39 1062.48 367.39 1058.43 368.02"/><polygon class="cls-4" points="1058.43 368.02 1047.82 362.02 1051.88 361.39 1062.48 367.39 1058.43 368.02"/><polygon class="cls-5" points="1105.15 362.48 1094.54 356.48 1098.59 355.84 1109.2 361.84 1105.15 362.48"/><polygon class="cls-4" points="1105.15 362.48 1094.54 356.48 1098.59 355.84 1109.2 361.84 1105.15 362.48"/><polygon class="cls-5" points="1096.15 363.82 1085.54 357.82 1089.59 357.19 1100.2 363.19 1096.15 363.82"/><polygon class="cls-4" points="1096.15 363.82 1085.54 357.82 1089.59 357.19 1100.2 363.19 1096.15 363.82"/><polygon class="cls-5" points="1087.15 365.18 1076.54 359.18 1080.59 358.54 1091.2 364.54 1087.15 365.18"/><polygon class="cls-4" points="1087.15 365.18 1076.54 359.18 1080.59 358.54 1091.2 364.54 1087.15 365.18"/><polygon class="cls-3" points="1145.31 372.09 1120.4 358 1129.92 356.51 1154.83 370.6 1145.31 372.09"/><polygon class="cls-4" points="1145.31 372.09 1120.4 358 1129.92 356.51 1154.83 370.6 1145.31 372.09"/><polygon class="cls-3" points="1136.31 373.44 1111.4 359.35 1120.92 357.86 1145.83 371.95 1136.31 373.44"/><polygon class="cls-4" points="1136.31 373.44 1111.4 359.35 1120.92 357.86 1145.83 371.95 1136.31 373.44"/><polygon class="cls-3" points="1127.31 374.79 1102.4 360.7 1111.92 359.21 1136.83 373.3 1127.31 374.79"/><polygon class="cls-4" points="1127.31 374.79 1102.4 360.7 1111.92 359.21 1136.83 373.3 1127.31 374.79"/><polygon class="cls-3" points="1118.31 376.14 1093.4 362.05 1102.92 360.56 1127.83 374.65 1118.31 376.14"/><polygon class="cls-4" points="1118.31 376.14 1093.4 362.05 1102.92 360.56 1127.83 374.65 1118.31 376.14"/><polygon class="cls-3" points="1109.31 377.49 1084.4 363.4 1093.92 361.91 1118.83 376 1109.31 377.49"/><polygon class="cls-4" points="1109.31 377.49 1084.4 363.4 1093.92 361.91 1118.83 376 1109.31 377.49"/><polygon class="cls-3" points="1100.31 378.84 1075.4 364.75 1084.92 363.26 1109.83 377.35 1100.31 378.84"/><polygon class="cls-4" points="1100.31 378.84 1075.4 364.75 1084.92 363.26 1109.83 377.35 1100.31 378.84"/><polygon class="cls-3" points="1091.31 380.19 1066.4 366.1 1075.92 364.61 1100.83 378.7 1091.31 380.19"/><polygon class="cls-4" points="1091.31 380.19 1066.4 366.1 1075.92 364.61 1100.83 378.7 1091.31 380.19"/><polygon class="cls-3" points="1082.31 381.54 1057.4 367.45 1066.92 365.96 1091.83 380.05 1082.31 381.54"/><polygon class="cls-4" points="1082.31 381.54 1057.4 367.45 1066.92 365.96 1091.83 380.05 1082.31 381.54"/><polygon class="cls-3" points="1073.31 382.89 1048.4 368.8 1057.92 367.31 1082.83 381.4 1073.31 382.89"/><polygon class="cls-4" points="1073.31 382.89 1048.4 368.8 1057.92 367.31 1082.83 381.4 1073.31 382.89"/><polygon class="cls-3" points="1064.31 384.24 1039.4 370.15 1048.92 368.66 1073.83 382.75 1064.31 384.24"/><polygon class="cls-4" points="1064.31 384.24 1039.4 370.15 1048.92 368.66 1073.83 382.75 1064.31 384.24"/><polygon class="cls-3" points="1055.31 385.59 1030.4 371.5 1039.92 370.01 1064.83 384.1 1055.31 385.59"/><polygon class="cls-4" points="1055.31 385.59 1030.4 371.5 1039.92 370.01 1064.83 384.1 1055.31 385.59"/><polygon class="cls-3" points="1046.31 386.94 1021.4 372.85 1030.92 371.36 1055.83 385.45 1046.31 386.94"/><polygon class="cls-4" points="1046.31 386.94 1021.4 372.85 1030.92 371.36 1055.83 385.45 1046.31 386.94"/><polygon class="cls-3" points="1037.31 388.29 1012.4 374.2 1021.92 372.71 1046.83 386.8 1037.31 388.29"/><polygon class="cls-4" points="1037.31 388.29 1012.4 374.2 1021.92 372.71 1046.83 386.8 1037.31 388.29"/><polygon class="cls-3" points="1028.31 389.64 1003.4 375.55 1012.92 374.06 1037.83 388.15 1028.31 389.64"/><polygon class="cls-4" points="1028.31 389.64 1003.4 375.55 1012.92 374.06 1037.83 388.15 1028.31 389.64"/><polygon class="cls-3" points="1019.31 390.99 994.4 376.9 1003.92 375.41 1028.83 389.5 1019.31 390.99"/><polygon class="cls-4" points="1019.31 390.99 994.4 376.9 1003.92 375.41 1028.83 389.5 1019.31 390.99"/><polygon class="cls-3" points="1010.31 392.34 985.4 378.25 994.92 376.76 1019.83 390.85 1010.31 392.34"/><polygon class="cls-4" points="1010.31 392.34 985.4 378.25 994.92 376.76 1019.83 390.85 1010.31 392.34"/><polygon class="cls-3" points="1001.31 393.69 976.4 379.6 985.92 378.11 1010.83 392.2 1001.31 393.69"/><polygon class="cls-4" points="1001.31 393.69 976.4 379.6 985.92 378.11 1010.83 392.2 1001.31 393.69"/><polygon class="cls-3" points="992.31 395.04 967.4 380.95 976.92 379.46 1001.83 393.55 992.31 395.04"/><polygon class="cls-4" points="992.31 395.04 967.4 380.95 976.92 379.46 1001.83 393.55 992.31 395.04"/><polygon class="cls-3" points="983.31 396.39 958.4 382.3 967.92 380.81 992.83 394.9 983.31 396.39"/><polygon class="cls-4" points="983.31 396.39 958.4 382.3 967.92 380.81 992.83 394.9 983.31 396.39"/><polygon class="cls-3" points="974.31 397.74 949.4 383.65 958.92 382.16 983.83 396.25 974.31 397.74"/><polygon class="cls-4" points="974.31 397.74 949.4 383.65 958.92 382.16 983.83 396.25 974.31 397.74"/><polygon class="cls-3" points="965.31 399.09 940.4 385 949.92 383.51 974.83 397.6 965.31 399.09"/><polygon class="cls-4" points="965.31 399.09 940.4 385 949.92 383.51 974.83 397.6 965.31 399.09"/><polygon class="cls-3" points="956.31 400.44 931.4 386.35 940.92 384.86 965.83 398.95 956.31 400.44"/><polygon class="cls-4" points="956.31 400.44 931.4 386.35 940.92 384.86 965.83 398.95 956.31 400.44"/><polygon class="cls-3" points="947.31 401.79 922.4 387.7 931.92 386.21 956.83 400.3 947.31 401.79"/><polygon class="cls-4" points="947.31 401.79 922.4 387.7 931.92 386.21 956.83 400.3 947.31 401.79"/><polygon class="cls-3" points="938.31 403.14 913.4 389.05 922.92 387.56 947.83 401.65 938.31 403.14"/><polygon class="cls-4" points="938.31 403.14 913.4 389.05 922.92 387.56 947.83 401.65 938.31 403.14"/><polygon class="cls-3" points="929.31 404.49 904.4 390.4 913.92 388.91 938.83 403 929.31 404.49"/><polygon class="cls-4" points="929.31 404.49 904.4 390.4 913.92 388.91 938.83 403 929.31 404.49"/><polygon class="cls-3" points="920.31 405.84 895.4 391.75 904.92 390.26 929.83 404.35 920.31 405.84"/><polygon class="cls-4" points="920.31 405.84 895.4 391.75 904.92 390.26 929.83 404.35 920.31 405.84"/><polygon class="cls-3" points="911.31 407.19 886.4 393.1 895.92 391.61 920.83 405.7 911.31 407.19"/><polygon class="cls-4" points="911.31 407.19 886.4 393.1 895.92 391.61 920.83 405.7 911.31 407.19"/><polygon class="cls-3" points="902.31 408.54 877.4 394.45 886.92 392.96 911.83 407.05 902.31 408.54"/><polygon class="cls-4" points="902.31 408.54 877.4 394.45 886.92 392.96 911.83 407.05 902.31 408.54"/><polygon class="cls-3" points="893.31 409.89 868.4 395.8 877.92 394.31 902.83 408.4 893.31 409.89"/><polygon class="cls-4" points="893.31 409.89 868.4 395.8 877.92 394.31 902.83 408.4 893.31 409.89"/><polygon class="cls-5" points="952.7 400.37 942.09 394.37 946.14 393.74 956.75 399.74 952.7 400.37"/><polygon class="cls-4" points="952.7 400.37 942.09 394.37 946.14 393.74 956.75 399.74 952.7 400.37"/><polygon class="cls-5" points="943.7 401.72 933.09 395.72 937.14 395.09 947.75 401.09 943.7 401.72"/><polygon class="cls-4" points="943.7 401.72 933.09 395.72 937.14 395.09 947.75 401.09 943.7 401.72"/><polygon class="cls-5" points="934.7 403.07 924.09 397.07 928.14 396.44 938.75 402.44 934.7 403.07"/><polygon class="cls-4" points="934.7 403.07 924.09 397.07 928.14 396.44 938.75 402.44 934.7 403.07"/><polygon class="cls-5" points="978.71 394.16 968.1 388.16 972.16 387.53 982.76 393.53 978.71 394.16"/><polygon class="cls-4" points="978.71 394.16 968.1 388.16 972.16 387.53 982.76 393.53 978.71 394.16"/><polygon class="cls-5" points="969.71 395.51 959.1 389.51 963.16 388.88 973.76 394.88 969.71 395.51"/><polygon class="cls-4" points="969.71 395.51 959.1 389.51 963.16 388.88 973.76 394.88 969.71 395.51"/><polygon class="cls-5" points="917.57 404.95 906.96 398.95 911.02 398.31 921.62 404.31 917.57 404.95"/><polygon class="cls-4" points="917.57 404.95 906.96 398.95 911.02 398.31 921.62 404.31 917.57 404.95"/><polygon class="cls-5" points="908.57 406.3 897.96 400.3 902.02 399.66 912.62 405.66 908.57 406.3"/><polygon class="cls-4" points="908.57 406.3 897.96 400.3 902.02 399.66 912.62 405.66 908.57 406.3"/><polygon class="cls-5" points="1014.31 388.89 1003.7 382.89 1007.76 382.26 1018.37 388.26 1014.31 388.89"/><polygon class="cls-4" points="1014.31 388.89 1003.7 382.89 1007.76 382.26 1018.37 388.26 1014.31 388.89"/><polygon class="cls-5" points="1005.31 390.24 994.7 384.24 998.76 383.61 1009.37 389.61 1005.31 390.24"/><polygon class="cls-4" points="1005.31 390.24 994.7 384.24 998.76 383.61 1009.37 389.61 1005.31 390.24"/><polygon class="cls-5" points="996.31 391.59 985.7 385.59 989.76 384.96 1000.37 390.96 996.31 391.59"/><polygon class="cls-4" points="996.31 391.59 985.7 385.59 989.76 384.96 1000.37 390.96 996.31 391.59"/><polygon class="cls-5" points="1040.33 384.68 1029.72 378.68 1033.77 378.05 1044.38 384.05 1040.33 384.68"/><polygon class="cls-4" points="1040.33 384.68 1029.72 378.68 1033.77 378.05 1044.38 384.05 1040.33 384.68"/><polygon class="cls-5" points="1031.33 386.03 1020.72 380.03 1024.77 379.39 1035.38 385.4 1031.33 386.03"/><polygon class="cls-4" points="1031.33 386.03 1020.72 380.03 1024.77 379.39 1035.38 385.4 1031.33 386.03"/><polygon class="cls-5" points="1075.4 379.41 1064.79 373.41 1068.85 372.77 1079.45 378.78 1075.4 379.41"/><polygon class="cls-4" points="1075.4 379.41 1064.79 373.41 1068.85 372.77 1079.45 378.78 1075.4 379.41"/><polygon class="cls-5" points="1066.4 380.76 1055.79 374.76 1059.85 374.13 1070.45 380.13 1066.4 380.76"/><polygon class="cls-4" points="1066.4 380.76 1055.79 374.76 1059.85 374.13 1070.45 380.13 1066.4 380.76"/><polygon class="cls-5" points="1057.4 382.11 1046.79 376.11 1050.85 375.48 1061.45 381.48 1057.4 382.11"/><polygon class="cls-4" points="1057.4 382.11 1046.79 376.11 1050.85 375.48 1061.45 381.48 1057.4 382.11"/><polygon class="cls-5" points="1103.41 374.2 1092.81 368.2 1096.86 367.56 1107.47 373.56 1103.41 374.2"/><polygon class="cls-4" points="1103.41 374.2 1092.81 368.2 1096.86 367.56 1107.47 373.56 1103.41 374.2"/><polygon class="cls-5" points="1094.41 375.55 1083.81 369.55 1087.86 368.91 1098.47 374.91 1094.41 375.55"/><polygon class="cls-4" points="1094.41 375.55 1083.81 369.55 1087.86 368.91 1098.47 374.91 1094.41 375.55"/><polygon class="cls-5" points="1141.13 370 1130.53 364 1134.58 363.37 1145.19 369.37 1141.13 370"/><polygon class="cls-4" points="1141.13 370 1130.53 364 1134.58 363.37 1145.19 369.37 1141.13 370"/><polygon class="cls-5" points="1132.13 371.35 1121.53 365.35 1125.58 364.72 1136.19 370.72 1132.13 371.35"/><polygon class="cls-4" points="1132.13 371.35 1121.53 365.35 1125.58 364.72 1136.19 370.72 1132.13 371.35"/><polygon class="cls-5" points="1123.13 372.7 1112.53 366.7 1116.58 366.07 1127.19 372.07 1123.13 372.7"/><polygon class="cls-4" points="1123.13 372.7 1112.53 366.7 1116.58 366.07 1127.19 372.07 1123.13 372.7"/><polygon class="cls-1" points="831.61 389.58 802.31 393.79 885.61 410.5 912.17 406.19 831.61 389.58"/><path class="cls-2" d="M812.33,305.68c0.57,12.4,11.79,30.21,29.62,46.2C854,362.72,876.7,371,876.7,371l12.68-9.74c-7.28-2.85-14.52-10.36-26.8-25.64-12.86-16-14.22-27.39-21.57-34"/><path class="cls-2" d="M885.57,359.37c5.1,1.7,12.3,4.19,21.54,4.19,6.18,0,11.11,5.69,13.35,9.47,1.22,2.06-.82,5.14-3.48,3.21,2.2,2,1.43,1.84,2.67,3.56s-1.8,5.27-5.23,3.32c1.42,2.43-3.67,3.06-5.73.89-2.76-2.91-4.69-4.21-7.74-4.87a17.43,17.43,0,0,1,4.79,6.23c1.13,2.8-2.16,3.31-4.79,2.06-2.26-1.07-4.81-3.92-8-6.11-3.54-2.46-8.79-3.78-11.38-4.36s-5.22-3.06-6.33-6.64"/><path class="cls-2" d="M906.13,369.24c4.8,0,9.12,4.56,10.84,7"/><path class="cls-2" d="M902.76,373.17c5.59,2,9.7,5.23,11.66,9.94"/><path class="cls-2" d="M898.19,377.22a17.17,17.17,0,0,1,2.75,1.91"/><polygon class="cls-1" points="1187.04 434.38 885.61 479.33 885.61 410.5 1187.04 365.56 1187.04 434.38"/><polygon class="cls-1" points="1169.34 361.69 868.62 407.34 885.61 410.5 1187.04 365.56 1169.34 361.69"/><path class="cls-2" d="M1015.48,339.56c2.73,2.87,9.06,3.93,20.59,12.07,2.2,1.55,2,4.19-.21,4.82,1.67,1.49,3,2.45,3.05,4.94,0,1.54-1.41,2.1-2.15,2.68,1.06,2.84-2.61,5.22-4.09,3.11-1-1.47-3.27-2.8-4.36-4.09-1.46-2.34-2.37-3.9-4.18-5.25,2.74,2,5.43,7,5.86,9.62,0.53,3.31-1.68,4.48-4.52,1.76-1.84-1.77-6.18-8.07-11.47-12.53,2.2,2.88,4,9.2,0,8.89-2.43-.18-6.94-6.26-9.28-10s-4.78-7.59-3.19-11.88"/><path class="cls-2" d="M1027.21,355.14s7.33,5.66,9.55,8.94"/><path class="cls-2" d="M1035.85,356.45s-3.63-3.77-6.38-5.16"/></svg>