<svg id="Instrument" xmlns="http://www.w3.org/2000/svg" viewBox="0 0 1792 768"><defs><style>.cls-1{fill:#eeb9a9;stroke-width:3px;}.cls-1,.cls-2,.cls-3{stroke:#24265b;stroke-linecap:round;stroke-linejoin:round;}.cls-2,.cls-4{fill:#fff;}.cls-2{stroke-width:2.55px;}.cls-3{fill:none;stroke-width:1.5px;}</style></defs><title>instrument</title><path class="cls-1" d="M971.66,286.46c0,4.74-.33,9.36-0.75,16.85,0.95,4.66-2,12.59.89,17.33,3.73,6.05,11.33,8.72,22.24,6.07,6.2-1.5,12.91-1.28,16.94-2.74,5.8-2.09,8.54-4,9.73-7.68,5.7-17.57-24.28-25-29.47-32.16"/><path class="cls-1" d="M814.06,305.68c0.57,12.4,11.5,11,28.54,10,19-1.07,72.5-19.56,72.5-19.56l7.17-14.94c-5.63-3.33-28,4.55-47.53,3-28.75-2.25-36.33-6-45.33,4"/><path class="cls-2" d="M884.27,308.61l62.89-15.16a7.41,7.41,0,0,1,2.92-.11l88.41,14.26a2.35,2.35,0,0,1,1.88,3h0a2.35,2.35,0,0,1-1.72,1.64l-61.3,14.41a4.87,4.87,0,0,1-1.82.08l-91-13.26a2.35,2.35,0,0,1-2-2.32v-0.21A2.35,2.35,0,0,1,884.27,308.61Z"/><polygon class="cls-2" points="931.72 309.32 986.12 297.84 1029.85 303.58 976.98 315.69 931.72 309.32"/><line class="cls-2" x1="977.51" y1="321.42" x2="884.27" y2="308.61"/><polygon class="cls-2" points="931.72 312.42 976.98 318.96 976.98 315.69 931.72 309.32 931.72 312.42"/><line class="cls-3" x1="984.91" y1="316.86" x2="984.91" y2="319.99"/><line class="cls-3" x1="975.41" y1="315.51" x2="975.41" y2="318.64"/><line class="cls-3" x1="965.91" y1="314.16" x2="965.91" y2="317.29"/><line class="cls-3" x1="956.41" y1="312.81" x2="956.41" y2="315.94"/><line class="cls-3" x1="946.91" y1="311.46" x2="946.91" y2="314.59"/><line class="cls-3" x1="937.41" y1="310.11" x2="937.41" y2="313.24"/><line class="cls-4" x1="985.62" y1="316.86" x2="1034.69" y2="306.55"/><line class="cls-3" x1="985.62" y1="316.86" x2="1034.69" y2="306.55"/><line class="cls-4" x1="976.12" y1="315.51" x2="1025.19" y2="305.2"/><line class="cls-3" x1="976.12" y1="315.51" x2="1025.19" y2="305.2"/><line class="cls-4" x1="966.62" y1="314.16" x2="1015.69" y2="303.85"/><line class="cls-3" x1="966.62" y1="314.16" x2="1015.69" y2="303.85"/><line class="cls-4" x1="957.12" y1="312.81" x2="1006.19" y2="302.5"/><line class="cls-3" x1="957.12" y1="312.81" x2="1006.19" y2="302.5"/><line class="cls-4" x1="947.62" y1="311.46" x2="996.69" y2="301.15"/><line class="cls-3" x1="947.62" y1="311.46" x2="996.69" y2="301.15"/><line class="cls-4" x1="938.12" y1="310.11" x2="987.19" y2="299.8"/><line class="cls-3" x1="938.12" y1="310.11" x2="987.19" y2="299.8"/><line class="cls-3" x1="946.02" y1="308.63" x2="951.82" y2="309.46"/><line class="cls-3" x1="954.63" y1="306.76" x2="960.43" y2="307.59"/><line class="cls-3" x1="970.95" y1="303.26" x2="976.75" y2="304.08"/><line class="cls-3" x1="964.18" y1="304.91" x2="969.99" y2="305.74"/><line class="cls-3" x1="955.27" y1="308.95" x2="961.07" y2="309.78"/><line class="cls-3" x1="963.88" y1="307.08" x2="969.68" y2="307.91"/><line class="cls-3" x1="944.42" y1="306.86" x2="950.22" y2="307.68"/><line class="cls-3" x1="953.03" y1="304.99" x2="958.83" y2="305.82"/><line class="cls-3" x1="973.55" y1="300.42" x2="979.36" y2="301.24"/><line class="cls-3" x1="972.13" y1="305.34" x2="977.94" y2="306.17"/><line class="cls-3" x1="960.01" y1="310.33" x2="965.82" y2="311.15"/><line class="cls-3" x1="968.62" y1="308.46" x2="974.43" y2="309.28"/><line class="cls-3" x1="976.88" y1="306.72" x2="982.69" y2="307.54"/><line class="cls-3" x1="969.1" y1="310.93" x2="974.91" y2="311.76"/><line class="cls-3" x1="977.71" y1="309.06" x2="983.52" y2="309.89"/><path class="cls-2" d="M1042.94,307.61l-64.29,14a1.52,1.52,0,0,1-1.83-1.74l18.81-110.82a5,5,0,0,1,5.12-4.18l55.89,1.9a8.25,8.25,0,0,1,7.85,9.6l-13.93,83.21A9.86,9.86,0,0,1,1042.94,307.61Z"/><line class="cls-2" x1="981.5" y1="317.54" x2="999.99" y2="208.77"/><ellipse class="cls-2" cx="1026.79" cy="258.79" rx="12.8" ry="6.08" transform="translate(645.66 1246.72) rotate(-83.05)"/><path class="cls-1" d="M1027,308.82c-0.11-3.22,5-3.39,5.38-.28,0.4,2.9.57,10-3.53,11s-8.4-.08-8.61-1.72C1023.77,317,1027.15,314.77,1027,308.82Z"/><path class="cls-1" d="M940,285.55s11.59-2.49,13.59-1.68c2.59,1,2,4.77-.69,6.12S940,285.55,940,285.55Z"/><path class="cls-1" d="M920.65,280.64c5.42,1.81,13.1,4.46,22.93,4.46,6.58,0,11.83,6.06,14.21,10.08,1.3,2.19-.87,5.48-3.71,3.42,2.34,2.08,1.53,2,2.84,3.79s-1.91,5.61-5.56,3.53c1.51,2.58-3.9,3.26-6.1.95-2.94-3.09-5-4.48-8.24-5.19a18.55,18.55,0,0,1,5.1,6.63c1.2,3-2.3,3.52-5.1,2.2-2.41-1.14-5.12-4.17-8.48-6.51-3.76-2.62-9.36-4-12.11-4.64s-5.56-3.25-6.73-7.06"/><path class="cls-1" d="M942.53,291.16c5.11,0,9.71,4.86,11.54,7.44"/><path class="cls-1" d="M938.95,295.33c6,2.16,10.33,5.57,12.41,10.58"/><path class="cls-1" d="M934.08,299.64a18.28,18.28,0,0,1,2.93,2"/><path class="cls-1" d="M1021.16,308.26c-0.13-3.83,5.89-4,6.4-.33,0.48,3.45.68,11.95-4.2,13.13s-10-.09-10.25-2C1017.37,318,1021.4,315.34,1021.16,308.26Z"/><path class="cls-1" d="M1013.83,309.38c-0.13-3.83,5.89-4,6.4-.33,0.48,3.45.68,11.95-4.2,13.13s-10-.09-10.25-2C1010,319.13,1014.06,316.46,1013.83,309.38Z"/></svg>