<svg id="Instrument" xmlns="http://www.w3.org/2000/svg" viewBox="0 0 1792 768"><defs><style>.cls-1,.cls-2{fill:#eeb9a9;}.cls-1,.cls-2,.cls-3,.cls-4,.cls-6,.cls-7{stroke:#24265b;}.cls-1,.cls-2,.cls-3,.cls-4,.cls-7{stroke-linecap:round;}.cls-1,.cls-6{stroke-miterlimit:10;}.cls-1,.cls-2,.cls-4,.cls-7{stroke-width:3px;}.cls-2,.cls-3,.cls-4,.cls-7{stroke-linejoin:round;}.cls-3{fill:#fff;stroke-width:2.55px;}.cls-4{fill:#d6cf90;}.cls-5,.cls-6{fill:#24265b;}.cls-7{fill:none;}</style></defs><title>instrument</title><path class="cls-1" d="M976.36,284.91c1.07-16,26-16.21,36.88-36.66,7.64-5,20,.12,16.52,7-5.28,10.34-12.86,25.41-18.46,34.57-5.78,9.47-19.38,19.56-29.59,18.63-7.66-.69-10.56-13.81-10.46-16.68"/><path class="cls-2" d="M1023.19,217.75l10.19-4s-5.81-2.4-10-.35S1023.19,217.75,1023.19,217.75Z"/><g id="Guitar"><line class="cls-3" x1="1088.34" y1="222.97" x2="1084.24" y2="218.52"/><ellipse class="cls-3" cx="1090.95" cy="226.07" rx="4.48" ry="2.99" transform="translate(-22.84 253.67) rotate(-13.13)"/><line class="cls-3" x1="1104" y1="220.49" x2="1099.9" y2="216.04"/><ellipse class="cls-3" cx="1106.61" cy="223.59" rx="4.48" ry="2.99" transform="translate(-21.86 257.16) rotate(-13.13)"/><line class="cls-3" x1="1090.87" y1="196.65" x2="1094.97" y2="201.1"/><ellipse class="cls-3" cx="1088.25" cy="193.55" rx="4.48" ry="2.99" transform="translate(-15.52 252.21) rotate(-13.13)"/><line class="cls-3" x1="1076.09" y1="202.16" x2="1080.19" y2="206.61"/><ellipse class="cls-3" cx="1073.48" cy="199.05" rx="4.48" ry="2.99" transform="translate(-17.16 249) rotate(-13.13)"/><path class="cls-4" d="M1074.42,218s-9.9-14.37-8.27-15.25,30.21-10.9,32.84-11.53,5.47,4.56,9.83,9.43c3.41,3.8,3,6.23,5.43,11.92,1.1,2.56-3.12,3.5-3.12,3.5s-24,3.56-28,4.68S1074.42,218,1074.42,218Z"/><path class="cls-4" d="M867.58,280.45c0.61,8.88,5.06,25.21,9.44,32.55,5.88,9.85,18.53,19.7,38.85,13.72,22.67-6.67,26.13-30.45,34.57-33.34,10.47-3.59,23.42-.67,33.23-5.65s12.33-21.3,8.68-29.55c-2.8-6.32-4.37-11.05-8.2-18.28-4.78-9-15.86-12.76-26.87-9.85-9.07,2.4-15.58,13.85-22.85,16.62-6.32,2.4-18.77-4.69-38.73-.63C881.16,249,866.33,262.28,867.58,280.45Z"/><path class="cls-4" d="M862.29,275c0.63,9.19,5.24,26.11,9.78,33.71,6.09,10.2,19.31,17.32,40.35,11.12,23.47-6.91,27.06-31.53,35.81-34.53,10.84-3.71,24.26-.69,34.41-5.85s12.65-19,8.87-27.52c-2.9-6.55-4.53-11.45-8.49-18.93-5-9.35-16.43-13.22-27.83-10.2-9.39,2.49-16.14,14.34-23.67,17.21-6.54,2.49-19.44-4.86-40.11-.65C876.36,242.47,861,256.2,862.29,275Z"/><path class="cls-5" d="M954.75,254.57c-4.05-6.74-10.7-6.78-16.1-4.64-7.72,3.05-10.54,10.84-7.22,17.55,3,6.12,9.62,7.48,17.33,5.25C956.27,270.55,958.8,261.31,954.75,254.57Z"/><path class="cls-6" d="M956.57,243.31c11.73-4.76,91.46-35.37,109.58-40.56,4.45-1.28,12.29,13.38,8.27,15.25-2.23,1-95.3,39.92-109.77,44C961.61,262.8,953.69,244.48,956.57,243.31Z"/></g><rect class="cls-3" x="891.14" y="263.75" width="11.94" height="29.86" transform="translate(-41.91 305.23) rotate(-18.88)"/><path class="cls-2" d="M815.89,310.78c10.57,9.44,22.32,9.81,34.39,8.43C866,317.41,906.56,304,906.56,304l-8.06-19.16c-7.08,3.31-21.3,5.55-40.49,2.53-20.28-3.2-33.9,4.47-36.35,9"/><path class="cls-2" d="M1029.75,255.21c6.65-1.39,20.35-10.78,22.61-17.29,1.72-5,1.49-17.54-5.42-22.64-3.58-2.64-5.94-3.51-11.65-1.43-4-1.34-8.11.93-7,3-2.43-1.08-10.54,1.29-8.54,3.37-3.29-.66-6.63,4.16-3.47,5.89a13.65,13.65,0,0,1,6.5,7.48c1.38,3.35-13.61,10-9.65,15.36"/><path class="cls-7" d="M1044,226.14s-1-9.56-9.83-12.57"/><path class="cls-7" d="M1036.66,227.17A16.54,16.54,0,0,0,1026,215.93"/><path class="cls-7" d="M1030,232a15.32,15.32,0,0,0-10.13-11.48"/><circle class="cls-3" cx="1084.35" cy="212.22" r="2.67" transform="translate(-17.64 292.69) rotate(-15.25)"/><circle class="cls-3" cx="1092.07" cy="197.07" r="2.67" transform="translate(-13.38 294.19) rotate(-15.25)"/><circle class="cls-3" cx="1099.92" cy="208.55" r="2.67" transform="translate(-16.12 296.66) rotate(-15.25)"/><circle class="cls-3" cx="1079.07" cy="201.82" r="2.67" transform="translate(-15.09 290.94) rotate(-15.25)"/><path class="cls-2" d="M905.14,304.75c14.53-.16,37.82-12.46,36.85-16.37s-5.19-1.16-12.88,1.68c9.55-3.05,18.52-10.69,17.73-14.1s-11.31,3.92-17.77,6.3c7.82-3.83,13.4-9,16.1-13.32,2.24-3.61-1.82-7.07-4.44-4.59-4.73,4.5-11.43,6.92-16.09,9.12,4.33-2,11.15-6.7,12.48-10.25,1.64-4.41-1.06-7.88-5.73-3.66-2.66,2.4-11.32,10-18.86,13.18,1.84-4,5.63-11.87,0-11.75S898.76,282.21,894,286.32"/></svg>