<svg id="Instrument" xmlns="http://www.w3.org/2000/svg" viewBox="0 0 1792 768"><defs><style>.cls-1,.cls-2,.cls-6{fill:#eeb9a9;}.cls-1,.cls-2,.cls-3,.cls-4,.cls-5,.cls-6,.cls-7{stroke:#24265b;}.cls-1,.cls-3,.cls-4,.cls-5,.cls-6,.cls-7{stroke-linecap:round;}.cls-1,.cls-3,.cls-4,.cls-5,.cls-7{stroke-linejoin:round;}.cls-1,.cls-2,.cls-3,.cls-6,.cls-7{stroke-width:3px;}.cls-2,.cls-6{stroke-miterlimit:10;}.cls-3,.cls-4,.cls-5{fill:#fff;}.cls-4{stroke-width:2.86px;}.cls-5{stroke-width:2.8px;}.cls-7{fill:none;}</style></defs><title>instrument</title><path class="cls-1" d="M841.17,302.89c5.76,28.73.07,61,9,81.11,2,4.6-8.7,18.75-14.55,10.21-13.27-19.38-24-70.83-23.29-88.53"/><path class="cls-2" d="M981.57,219l0.44-9.89s-4.12,3.92-4,8.16S981.57,219,981.57,219Z"/><path class="cls-1" d="M990.22,283.74l1.54-64s20.66,7.82,21.12,15.12-5.07,25.28-6.21,48c-0.8,16-8.22,32.2-14.91,32.2-15.41,0-22.81-12.8-21.86-28.47"/><rect class="cls-3" x="979.56" y="177.78" width="10.67" height="29.87" rx="5.33" ry="5.33"/><path class="cls-4" d="M1045.33,674.13c0,7.07-24.83,12.8-55.47,12.8s-55.47-5.73-55.47-12.8a18,18,0,0,1,2.13-8.53c8.89-17.78,97.78-16.36,106.67,0A24.31,24.31,0,0,1,1045.33,674.13Z"/><ellipse class="cls-5" cx="989.87" cy="665.6" rx="53.33" ry="12.8"/><path class="cls-5" d="M983.47,648.53V665.6c0,1.18,2.87,2.13,6.4,2.13s6.4-1,6.4-2.13V648.53h-12.8Z"/><ellipse class="cls-5" cx="989.87" cy="648.53" rx="6.4" ry="2.13"/><path class="cls-3" d="M994.13,649.6a9.07,9.07,0,0,1-8.53,0V224h8.53V649.6Z"/><rect class="cls-3" x="981.33" y="198.4" width="17.07" height="25.6"/><rect class="cls-3" x="974.22" y="138.97" width="34.13" height="51.2" rx="12" ry="12" transform="translate(215.09 -473.6) rotate(30)"/><rect class="cls-3" x="988.8" y="177.78" width="10.67" height="29.87" rx="5.33" ry="5.33"/><path class="cls-6" d="M1012.77,238.27c0.11-3.42,1.46-3.54,1.87-14.89,0.37-10.26-9-15.74-13.37-17.15-6-1.93-11.52,2.33-13.9,7.28-3.47,1.68-4.67,5.71-2.64,6.38-2.26.83-6,7.47-3.41,7.57-2.55,1.65-1.31,5.27-.49,6.18,2.09,2.31,7.87-.72,10.87.58s0.26,3.62,1.67,6.6c1.06,2.23,6.12,3.26,10,2.31"/><path class="cls-7" d="M1000.74,216s-6.65-5.59-14.29-2"/><path class="cls-7" d="M996.65,221.28a15,15,0,0,0-14-.57"/><path class="cls-7" d="M993.51,228a13,13,0,0,0-12.18-.49"/><path class="cls-1" d="M835.63,394.21c1.49,11.54,12.22,27.89,15.23,26.76s0.44-4.23-2.54-10.08c3.32,7.31,10.24,13.71,12.87,12.77S857,415,854.51,410.12c3.78,5.85,8.39,9.81,12.1,11.54,3.08,1.44,5.45-2.11,3.23-4-4-3.33-6.58-8.43-8.76-11.93,2,3.25,6.37,8.23,9.32,9,3.66,0.89,6.16-1.58,2.37-4.9-2.16-1.89-9-8.06-12.25-13.75,3.35,1.09,10,3.36,9.33-1.13s-16-7.58-19.68-11"/><path class="cls-7" d="M989.51,146.49c2.9-3.84,5.25-9.48,11.23-6"/><path class="cls-7" d="M998.61,151.84c2.9-3.84,5.25-9.48,11.23-6"/><path class="cls-7" d="M993.7,149c2.9-3.84,5.25-9.48,11.23-6"/><path class="cls-7" d="M973.25,172.58c-2.08,4.34-5.29,6.89.52,10.61"/><path class="cls-7" d="M982.19,178.2c-2.08,4.34-5.29,6.89.52,10.61"/><path class="cls-7" d="M977.41,175.15c-2.08,4.34-5.29,6.89.52,10.61"/><line class="cls-7" x1="981.33" y1="147.68" x2="986.45" y2="150.52"/><line class="cls-7" x1="979.49" y1="151.84" x2="984.6" y2="154.68"/><line class="cls-7" x1="977.06" y1="156" x2="982.18" y2="158.84"/><line class="cls-7" x1="974.5" y1="160.16" x2="979.62" y2="163"/><line class="cls-7" x1="990.72" y1="153.21" x2="1004.02" y2="160.87"/><line class="cls-7" x1="988.88" y1="157.37" x2="1002.17" y2="165.03"/><line class="cls-7" x1="986.45" y1="161.53" x2="999.75" y2="169.19"/><line class="cls-7" x1="983.89" y1="165.69" x2="997.19" y2="173.35"/></svg>