<svg id="Instrument" xmlns="http://www.w3.org/2000/svg" viewBox="0 0 1792 768"><defs><style>.cls-1{fill:#eeb9a9;}.cls-1,.cls-2,.cls-3,.cls-5{stroke:#24265b;stroke-linecap:round;stroke-linejoin:round;stroke-width:3px;}.cls-2,.cls-4{fill:#fff;}.cls-3{fill:#93acb8;}.cls-5{fill:none;}.cls-6{fill:#24265b;}</style></defs><title>instrument</title><path class="cls-1" d="M971.38,286.46c0,4.74-.33,9.36-0.75,16.85,1.7,8.35,6.55,16,13.11,25.13,8.53,11.86,26.84,23.54,26.84,23.54l13-6.11c-5.85-3.91-10.76-11.92-18.6-27.72-8.21-16.55-8.85-26.82-14-34"/><path class="cls-1" d="M905.23,364s10.89-2.34,12.77-1.58c2.43,1,1.84,4.48-.65,5.75S905.23,364,905.23,364Z"/><path class="cls-1" d="M1047.56,340.24c4,2,13.2.73,28.5,4.87,2.91,0.79,3.75,3.64,1.64,5.17,2.34,0.93,4.11,1.43,5.13,4,0.63,1.61-.67,2.76-1.23,3.66,2.21,2.58-.74,6.51-3.11,4.86-4.29-3-9.89-4.08-13.84-5.25,3.67,1.07,9.64,3.93,11.12,6.59,1.84,3.28,0,5.37-4.09,3.6-2.62-1.15-9.64-6.13-16.93-8.79,3.43,2.19,7.76,8.16,3.39,9.4-2.63.74-9.72-3.94-13.65-7-5.53-4.27-9.67-10.21-9.64-15.34"/><path class="cls-1" d="M1067.59,353.25s10.39,2.12,14,4.72"/><path class="cls-1" d="M1077.69,350.27s-6-2.3-9.47-2.7"/><polygon class="cls-2" points="1005.13 688.75 986.32 688.75 889.83 435.87 907.94 434.03 1005.13 688.75"/><polygon class="cls-2" points="1130.53 672.17 1111.53 671.66 1015.04 418.78 1033.15 416.94 1130.53 672.17"/><line class="cls-2" x1="1026.04" y1="416.94" x2="1123.42" y2="672.17"/><polygon class="cls-2" points="1087.21 480.85 964.52 495.82 964.52 481.52 1087.21 466.56 1087.21 480.85"/><line class="cls-2" x1="900.83" y1="434.03" x2="998.02" y2="688.75"/><polygon class="cls-2" points="907.05 673.32 889.54 673.5 986.86 403.64 1004.97 401.8 907.05 673.32"/><polygon class="cls-2" points="1031.88 657.27 1014.44 657.27 1112.07 386.55 1130.17 384.71 1031.88 657.27"/><line class="cls-2" x1="998.56" y1="401.8" x2="900.65" y2="673.32"/><line class="cls-2" x1="1123.77" y1="384.71" x2="1025.48" y2="657.27"/><polygon class="cls-3" points="1133.66 345.14 786.37 396.51 856.42 410.95 1203.71 359.58 1133.66 345.14"/><polygon class="cls-3" points="1087.92 351.8 1107.22 362.9 1157.26 376.18 1157.26 366.51 1087.92 351.8"/><polygon class="cls-3" points="1203.71 411.98 856.42 463.35 856.42 410.95 1203.71 359.58 1203.71 411.98"/><polygon class="cls-3" points="787.08 423.49 856.42 463.35 856.42 410.95 785.66 396.59 787.08 423.49"/><polygon class="cls-3" points="1133.88 345.14 1087.21 352.06 1157.26 366.51 1203.94 359.58 1133.88 345.14"/><polygon class="cls-4" points="1110.77 364.56 1085.86 350.47 1095.37 348.98 1120.29 363.07 1110.77 364.56"/><polygon class="cls-5" points="1110.77 364.56 1085.86 350.47 1095.37 348.98 1120.29 363.07 1110.77 364.56"/><polygon class="cls-4" points="1101.77 365.92 1076.86 351.82 1086.37 350.33 1111.29 364.42 1101.77 365.92"/><polygon class="cls-5" points="1101.77 365.92 1076.86 351.82 1086.37 350.33 1111.29 364.42 1101.77 365.92"/><polygon class="cls-4" points="1092.77 367.26 1067.86 353.17 1077.37 351.68 1102.29 365.77 1092.77 367.26"/><polygon class="cls-5" points="1092.77 367.26 1067.86 353.17 1077.37 351.68 1102.29 365.77 1092.77 367.26"/><polygon class="cls-4" points="1083.77 368.62 1058.86 354.52 1068.37 353.03 1093.29 367.12 1083.77 368.62"/><polygon class="cls-5" points="1083.77 368.62 1058.86 354.52 1068.37 353.03 1093.29 367.12 1083.77 368.62"/><polygon class="cls-4" points="1074.77 369.96 1049.86 355.87 1059.37 354.38 1084.29 368.47 1074.77 369.96"/><polygon class="cls-5" points="1074.77 369.96 1049.86 355.87 1059.37 354.38 1084.29 368.47 1074.77 369.96"/><polygon class="cls-4" points="1065.77 371.31 1040.86 357.22 1050.37 355.73 1075.29 369.82 1065.77 371.31"/><polygon class="cls-5" points="1065.77 371.31 1040.86 357.22 1050.37 355.73 1075.29 369.82 1065.77 371.31"/><polygon class="cls-4" points="1056.77 372.67 1031.86 358.57 1041.37 357.08 1066.29 371.17 1056.77 372.67"/><polygon class="cls-5" points="1056.77 372.67 1031.86 358.57 1041.37 357.08 1066.29 371.17 1056.77 372.67"/><polygon class="cls-4" points="1047.77 374.01 1022.86 359.92 1032.37 358.43 1057.29 372.52 1047.77 374.01"/><polygon class="cls-5" points="1047.77 374.01 1022.86 359.92 1032.37 358.43 1057.29 372.52 1047.77 374.01"/><polygon class="cls-4" points="1038.77 375.37 1013.86 361.27 1023.37 359.78 1048.29 373.87 1038.77 375.37"/><polygon class="cls-5" points="1038.77 375.37 1013.86 361.27 1023.37 359.78 1048.29 373.87 1038.77 375.37"/><polygon class="cls-4" points="1029.77 376.71 1004.86 362.62 1014.37 361.13 1039.29 375.22 1029.77 376.71"/><polygon class="cls-5" points="1029.77 376.71 1004.86 362.62 1014.37 361.13 1039.29 375.22 1029.77 376.71"/><polygon class="cls-4" points="1020.77 378.06 995.86 363.97 1005.37 362.48 1030.29 376.57 1020.77 378.06"/><polygon class="cls-5" points="1020.77 378.06 995.86 363.97 1005.37 362.48 1030.29 376.57 1020.77 378.06"/><polygon class="cls-4" points="1011.77 379.42 986.86 365.32 996.37 363.83 1021.29 377.92 1011.77 379.42"/><polygon class="cls-5" points="1011.77 379.42 986.86 365.32 996.37 363.83 1021.29 377.92 1011.77 379.42"/><polygon class="cls-4" points="1002.77 380.76 977.86 366.67 987.37 365.18 1012.29 379.27 1002.77 380.76"/><polygon class="cls-5" points="1002.77 380.76 977.86 366.67 987.37 365.18 1012.29 379.27 1002.77 380.76"/><polygon class="cls-4" points="993.77 382.12 968.86 368.02 978.37 366.53 1003.29 380.62 993.77 382.12"/><polygon class="cls-5" points="993.77 382.12 968.86 368.02 978.37 366.53 1003.29 380.62 993.77 382.12"/><polygon class="cls-4" points="984.77 383.46 959.86 369.37 969.37 367.88 994.29 381.97 984.77 383.46"/><polygon class="cls-5" points="984.77 383.46 959.86 369.37 969.37 367.88 994.29 381.97 984.77 383.46"/><polygon class="cls-4" points="975.77 384.81 950.86 370.72 960.37 369.23 985.29 383.32 975.77 384.81"/><polygon class="cls-5" points="975.77 384.81 950.86 370.72 960.37 369.23 985.29 383.32 975.77 384.81"/><polygon class="cls-4" points="966.77 386.17 941.86 372.07 951.37 370.58 976.29 384.67 966.77 386.17"/><polygon class="cls-5" points="966.77 386.17 941.86 372.07 951.37 370.58 976.29 384.67 966.77 386.17"/><polygon class="cls-4" points="957.77 387.51 932.86 373.42 942.37 371.93 967.29 386.02 957.77 387.51"/><polygon class="cls-5" points="957.77 387.51 932.86 373.42 942.37 371.93 967.29 386.02 957.77 387.51"/><polygon class="cls-4" points="948.77 388.87 923.86 374.77 933.37 373.28 958.29 387.37 948.77 388.87"/><polygon class="cls-5" points="948.77 388.87 923.86 374.77 933.37 373.28 958.29 387.37 948.77 388.87"/><polygon class="cls-4" points="939.77 390.21 914.86 376.12 924.37 374.63 949.29 388.72 939.77 390.21"/><polygon class="cls-5" points="939.77 390.21 914.86 376.12 924.37 374.63 949.29 388.72 939.77 390.21"/><polygon class="cls-4" points="930.77 391.56 905.86 377.47 915.37 375.98 940.29 390.07 930.77 391.56"/><polygon class="cls-5" points="930.77 391.56 905.86 377.47 915.37 375.98 940.29 390.07 930.77 391.56"/><polygon class="cls-4" points="921.77 392.92 896.86 378.82 906.37 377.33 931.29 391.42 921.77 392.92"/><polygon class="cls-5" points="921.77 392.92 896.86 378.82 906.37 377.33 931.29 391.42 921.77 392.92"/><polygon class="cls-4" points="912.77 394.26 887.86 380.17 897.37 378.68 922.29 392.77 912.77 394.26"/><polygon class="cls-5" points="912.77 394.26 887.86 380.17 897.37 378.68 922.29 392.77 912.77 394.26"/><polygon class="cls-4" points="903.77 395.62 878.86 381.52 888.37 380.03 913.29 394.12 903.77 395.62"/><polygon class="cls-5" points="903.77 395.62 878.86 381.52 888.37 380.03 913.29 394.12 903.77 395.62"/><polygon class="cls-4" points="894.77 396.96 869.86 382.87 879.37 381.38 904.29 395.47 894.77 396.96"/><polygon class="cls-5" points="894.77 396.96 869.86 382.87 879.37 381.38 904.29 395.47 894.77 396.96"/><polygon class="cls-4" points="885.77 398.31 860.86 384.22 870.37 382.73 895.29 396.82 885.77 398.31"/><polygon class="cls-5" points="885.77 398.31 860.86 384.22 870.37 382.73 895.29 396.82 885.77 398.31"/><polygon class="cls-4" points="876.77 399.67 851.86 385.57 861.37 384.08 886.29 398.17 876.77 399.67"/><polygon class="cls-5" points="876.77 399.67 851.86 385.57 861.37 384.08 886.29 398.17 876.77 399.67"/><polygon class="cls-4" points="867.77 401.01 842.86 386.92 852.37 385.43 877.29 399.52 867.77 401.01"/><polygon class="cls-5" points="867.77 401.01 842.86 386.92 852.37 385.43 877.29 399.52 867.77 401.01"/><polygon class="cls-4" points="858.77 402.37 833.86 388.27 843.37 386.78 868.29 400.87 858.77 402.37"/><polygon class="cls-5" points="858.77 402.37 833.86 388.27 843.37 386.78 868.29 400.87 858.77 402.37"/><polygon class="cls-2" points="939.54 395.8 934.27 393.35 943.78 391.86 949.05 394.31 939.54 395.8"/><polygon class="cls-2" points="930.01 397.34 924.74 394.89 934.26 393.4 939.53 395.85 930.01 397.34"/><polygon class="cls-2" points="1099.17 371.57 1093.9 369.12 1103.42 367.63 1108.69 370.08 1099.17 371.57"/><polygon class="cls-2" points="921.14 398.71 915.87 396.26 925.38 394.76 930.65 397.21 921.14 398.71"/><polygon class="cls-6" points="920.15 392.55 909.54 386.55 913.6 385.91 924.21 391.91 920.15 392.55"/><polygon class="cls-5" points="920.15 392.55 909.54 386.55 913.6 385.91 924.21 391.91 920.15 392.55"/><polygon class="cls-6" points="911.15 394.05 900.54 388.05 904.6 387.41 915.21 393.41 911.15 394.05"/><polygon class="cls-5" points="911.15 394.05 900.54 388.05 904.6 387.41 915.21 393.41 911.15 394.05"/><polygon class="cls-6" points="902.15 395.55 891.54 389.55 895.6 388.91 906.21 394.91 902.15 395.55"/><polygon class="cls-5" points="902.15 395.55 891.54 389.55 895.6 388.91 906.21 394.91 902.15 395.55"/><polygon class="cls-6" points="947.17 388.49 936.56 382.48 940.61 381.85 951.22 387.85 947.17 388.49"/><polygon class="cls-5" points="947.17 388.49 936.56 382.48 940.61 381.85 951.22 387.85 947.17 388.49"/><polygon class="cls-6" points="938.17 389.99 927.56 383.98 931.61 383.35 942.22 389.35 938.17 389.99"/><polygon class="cls-5" points="938.17 389.99 927.56 383.98 931.61 383.35 942.22 389.35 938.17 389.99"/><polygon class="cls-6" points="884.03 398.27 873.42 392.27 877.47 391.63 888.08 397.63 884.03 398.27"/><polygon class="cls-5" points="884.03 398.27 873.42 392.27 877.47 391.63 888.08 397.63 884.03 398.27"/><polygon class="cls-6" points="875.03 399.77 864.42 393.77 868.47 393.13 879.08 399.13 875.03 399.77"/><polygon class="cls-5" points="875.03 399.77 864.42 393.77 868.47 393.13 879.08 399.13 875.03 399.77"/><polygon class="cls-6" points="982.77 383.06 972.16 377.06 976.21 376.43 986.82 382.43 982.77 383.06"/><polygon class="cls-5" points="982.77 383.06 972.16 377.06 976.21 376.43 986.82 382.43 982.77 383.06"/><polygon class="cls-6" points="973.77 384.56 963.16 378.56 967.21 377.93 977.82 383.93 973.77 384.56"/><polygon class="cls-5" points="973.77 384.56 963.16 378.56 967.21 377.93 977.82 383.93 973.77 384.56"/><polygon class="cls-6" points="964.77 386.06 954.16 380.06 958.21 379.43 968.82 385.43 964.77 386.06"/><polygon class="cls-5" points="964.77 386.06 954.16 380.06 958.21 379.43 968.82 385.43 964.77 386.06"/><polygon class="cls-6" points="1008.78 379 998.17 373 1002.23 372.37 1012.84 378.37 1008.78 379"/><polygon class="cls-5" points="1008.78 379 998.17 373 1002.23 372.37 1012.84 378.37 1008.78 379"/><polygon class="cls-6" points="999.78 380.5 989.17 374.5 993.23 373.87 1003.84 379.87 999.78 380.5"/><polygon class="cls-5" points="999.78 380.5 989.17 374.5 993.23 373.87 1003.84 379.87 999.78 380.5"/><polygon class="cls-6" points="1044.86 373.58 1034.25 367.58 1038.3 366.95 1048.91 372.95 1044.86 373.58"/><polygon class="cls-5" points="1044.86 373.58 1034.25 367.58 1038.3 366.95 1048.91 372.95 1044.86 373.58"/><polygon class="cls-6" points="1035.86 375.08 1025.25 369.08 1029.3 368.45 1039.91 374.45 1035.86 375.08"/><polygon class="cls-5" points="1035.86 375.08 1025.25 369.08 1029.3 368.45 1039.91 374.45 1035.86 375.08"/><polygon class="cls-6" points="1026.86 376.58 1016.25 370.58 1020.3 369.95 1030.91 375.95 1026.86 376.58"/><polygon class="cls-5" points="1026.86 376.58 1016.25 370.58 1020.3 369.95 1030.91 375.95 1026.86 376.58"/><polygon class="cls-6" points="1072.87 369.52 1062.26 363.52 1066.32 362.89 1076.92 368.89 1072.87 369.52"/><polygon class="cls-5" points="1072.87 369.52 1062.26 363.52 1066.32 362.89 1076.92 368.89 1072.87 369.52"/><polygon class="cls-6" points="1063.87 371.02 1053.26 365.02 1057.32 364.39 1067.92 370.39 1063.87 371.02"/><polygon class="cls-5" points="1063.87 371.02 1053.26 365.02 1057.32 364.39 1067.92 370.39 1063.87 371.02"/><polygon class="cls-6" points="1107.59 364.18 1096.98 358.18 1101.04 357.54 1111.64 363.54 1107.59 364.18"/><polygon class="cls-5" points="1107.59 364.18 1096.98 358.18 1101.04 357.54 1111.64 363.54 1107.59 364.18"/><polygon class="cls-6" points="1098.59 365.68 1087.98 359.68 1092.04 359.04 1102.64 365.04 1098.59 365.68"/><polygon class="cls-5" points="1098.59 365.68 1087.98 359.68 1092.04 359.04 1102.64 365.04 1098.59 365.68"/><polygon class="cls-6" points="1089.59 367.18 1078.98 361.18 1083.04 360.54 1093.64 366.54 1089.59 367.18"/><polygon class="cls-5" points="1089.59 367.18 1078.98 361.18 1083.04 360.54 1093.64 366.54 1089.59 367.18"/><polygon class="cls-3" points="833.05 389.58 786.37 396.51 856.42 410.95 903.1 404.02 833.05 389.58"/><circle class="cls-2" cx="1177.57" cy="403.3" r="3.2"/><circle class="cls-2" cx="1163.74" cy="405.79" r="3.2"/><line class="cls-4" x1="895.87" y1="406.8" x2="876.7" y2="409.64"/><line class="cls-5" x1="895.87" y1="406.8" x2="876.7" y2="409.64"/><line class="cls-4" x1="885.87" y1="404.8" x2="866.7" y2="407.64"/><line class="cls-5" x1="885.87" y1="404.8" x2="866.7" y2="407.64"/><line class="cls-4" x1="875.87" y1="402.8" x2="856.7" y2="405.64"/><line class="cls-5" x1="875.87" y1="402.8" x2="856.7" y2="405.64"/><line class="cls-4" x1="865.87" y1="400.8" x2="846.7" y2="403.64"/><line class="cls-5" x1="865.87" y1="400.8" x2="846.7" y2="403.64"/><line class="cls-4" x1="855.87" y1="398.8" x2="836.7" y2="401.64"/><line class="cls-5" x1="855.87" y1="398.8" x2="836.7" y2="401.64"/><line class="cls-4" x1="845.87" y1="396.8" x2="826.7" y2="399.64"/><line class="cls-5" x1="845.87" y1="396.8" x2="826.7" y2="399.64"/><line class="cls-4" x1="1196.22" y1="362.74" x2="1177.06" y2="365.58"/><line class="cls-5" x1="1196.22" y1="362.74" x2="1177.06" y2="365.58"/><line class="cls-4" x1="1186.22" y1="360.74" x2="1167.06" y2="363.58"/><line class="cls-5" x1="1186.22" y1="360.74" x2="1167.06" y2="363.58"/><line class="cls-4" x1="1176.22" y1="358.74" x2="1157.06" y2="361.58"/><line class="cls-5" x1="1176.22" y1="358.74" x2="1157.06" y2="361.58"/><line class="cls-4" x1="1166.22" y1="356.74" x2="1147.06" y2="359.58"/><line class="cls-5" x1="1166.22" y1="356.74" x2="1147.06" y2="359.58"/><line class="cls-4" x1="1156.22" y1="354.74" x2="1137.06" y2="357.58"/><line class="cls-5" x1="1156.22" y1="354.74" x2="1137.06" y2="357.58"/><line class="cls-4" x1="1146.22" y1="352.74" x2="1127.06" y2="355.58"/><line class="cls-5" x1="1146.22" y1="352.74" x2="1127.06" y2="355.58"/><polygon class="cls-2" points="912.14 662.4 905.02 663.82 893.65 658.84 888.2 673.78 900.05 678.76 906.69 677.33 912.14 662.4"/><polygon class="cls-2" points="1037.45 645.88 1030.34 647.31 1018.97 642.33 1013.51 657.26 1025.36 662.24 1032 660.82 1037.45 645.88"/><polygon class="cls-2" points="1002.91 680.79 995.8 682.22 980.95 676.17 985.87 688.66 1001.2 694.71 1007.84 693.28 1002.91 680.79"/><polygon class="cls-2" points="1128.78 665.37 1121.66 666.79 1106.81 660.74 1111.74 673.23 1127.06 679.28 1133.7 677.86 1128.78 665.37"/><path class="cls-1" d="M813.77,305.68c0.57,12.4,11.79,30.21,29.62,46.2C855.49,362.72,878.14,371,878.14,371l12.68-9.74c-7.28-2.85-14.52-10.36-26.8-25.64-12.86-16-14.22-27.39-21.57-34"/><path class="cls-1" d="M887,359.37c5.1,1.7,12.3,4.19,21.54,4.19,6.18,0,11.11,5.69,13.35,9.47,1.22,2.06-.82,5.14-3.48,3.21,2.2,2,1.43,1.84,2.67,3.56s-1.8,5.27-5.23,3.32c1.42,2.43-3.67,3.06-5.73.89-2.76-2.91-4.69-4.21-7.74-4.87a17.43,17.43,0,0,1,4.79,6.23c1.13,2.8-2.16,3.31-4.79,2.06-2.26-1.07-4.81-3.92-8-6.11-3.54-2.46-8.79-3.78-11.38-4.36s-5.22-3.06-6.33-6.64"/><path class="cls-1" d="M907.57,369.24c4.8,0,9.12,4.56,10.84,7"/><path class="cls-1" d="M904.21,373.17c5.59,2,9.7,5.23,11.66,9.94"/><path class="cls-1" d="M899.64,377.22a17.17,17.17,0,0,1,2.75,1.91"/><polygon class="cls-3" points="1109.86 302.38 993.52 319.13 967.89 394.21 1084.34 377.14 1109.86 302.38"/><polygon class="cls-3" points="1007.59 388.39 1021.56 332.87 1000.89 389.58 1007.59 388.39"/><polygon class="cls-3" points="1066.15 379.9 1080.12 324.38 1059.45 381.09 1066.15 379.9"/><polygon class="cls-3" points="962.69 394.83 993.52 319.13 967.89 394.21 962.69 394.83"/></svg>