<svg id="Floor" xmlns="http://www.w3.org/2000/svg" viewBox="0 0 1792 768"><defs><style>.cls-1{fill:#d6cf90;}.cls-2{fill:#24265b;}.cls-3{fill:#a8a887;}.cls-4{fill:#fff;}</style></defs><title>location</title><polygon class="cls-1" points="1794 770 -2 770 -2 585.14 301.31 512 1651.24 512 1794 563.94 1794 770"/><path class="cls-2" d="M1794,771.5H-2A1.5,1.5,0,0,1-3.5,770V585.14a1.5,1.5,0,0,1,1.15-1.46L301,510.54a1.47,1.47,0,0,1,.35,0H1651.24a1.48,1.48,0,0,1,.51.09l142.76,51.94a1.5,1.5,0,0,1,1,1.41V770A1.5,1.5,0,0,1,1794,771.5Zm-1794.5-3h1793V565L1651,513.5H301.48l-302,72.82V768.5Z"/><path class="cls-2" d="M301.3,513.5a1.5,1.5,0,0,1-1.5-1.5V0a1.5,1.5,0,0,1,3,0V512A1.5,1.5,0,0,1,301.3,513.5Z"/><path class="cls-2" d="M1651.24,513.5a1.5,1.5,0,0,1-1.5-1.5V0a1.5,1.5,0,0,1,3,0V512A1.5,1.5,0,0,1,1651.24,513.5Z"/><rect class="cls-3" x="533.33" y="113.78" width="170.67" height="398.22"/><path class="cls-2" d="M704,513.5H533.33a1.5,1.5,0,0,1-1.5-1.5V113.78a1.5,1.5,0,0,1,1.5-1.5H704a1.5,1.5,0,0,1,1.5,1.5V512A1.5,1.5,0,0,1,704,513.5Zm-169.17-3H702.5V115.28H534.83V510.5Z"/><rect class="cls-3" x="721.07" y="362.67" width="362.67" height="149.33"/><path class="cls-2" d="M1083.73,513.5H721.07a1.5,1.5,0,0,1-1.5-1.5V362.67a1.5,1.5,0,0,1,1.5-1.5h362.67a1.5,1.5,0,0,1,1.5,1.5V512A1.5,1.5,0,0,1,1083.73,513.5Zm-361.17-3h359.67V364.17H722.57V510.5Z"/><path class="cls-3" d="M730.07,490.67h344.67a9,9,0,0,1,9,9v55a0,0,0,0,1,0,0H721.07a0,0,0,0,1,0,0v-55A9,9,0,0,1,730.07,490.67Z"/><path class="cls-2" d="M1083.73,556.17H721.07a1.5,1.5,0,0,1-1.5-1.5v-55a10.51,10.51,0,0,1,10.5-10.5h344.67a10.51,10.51,0,0,1,10.5,10.5v55A1.5,1.5,0,0,1,1083.73,556.17Zm-361.17-3h359.67v-53.5a7.51,7.51,0,0,0-7.5-7.5H730.07a7.51,7.51,0,0,0-7.5,7.5v53.5Z"/><rect class="cls-3" x="735.29" y="439.47" width="334.22" height="51.2" rx="18" ry="18"/><path class="cls-2" d="M1051.51,492.17H753.29a19.52,19.52,0,0,1-19.5-19.5v-15.2a19.52,19.52,0,0,1,19.5-19.5h298.22a19.52,19.52,0,0,1,19.5,19.5v15.2A19.52,19.52,0,0,1,1051.51,492.17ZM753.29,441a16.52,16.52,0,0,0-16.5,16.5v15.2a16.52,16.52,0,0,0,16.5,16.5h298.22a16.52,16.52,0,0,0,16.5-16.5v-15.2a16.52,16.52,0,0,0-16.5-16.5H753.29Z"/><rect class="cls-1" x="740.27" y="133.69" width="128" height="179.2"/><path class="cls-2" d="M868.27,314.39h-128a1.5,1.5,0,0,1-1.5-1.5V133.69a1.5,1.5,0,0,1,1.5-1.5h128a1.5,1.5,0,0,1,1.5,1.5v179.2A1.5,1.5,0,0,1,868.27,314.39Zm-126.5-3h125V135.19h-125v176.2Z"/><rect class="cls-2" x="541.87" y="122.31" width="153.6" height="389.69"/><path class="cls-2" d="M695.47,513.5H541.87a1.5,1.5,0,0,1-1.5-1.5V122.31a1.5,1.5,0,0,1,1.5-1.5h153.6a1.5,1.5,0,0,1,1.5,1.5V512A1.5,1.5,0,0,1,695.47,513.5Zm-152.1-3H694V123.81H543.37V510.5Z"/><polygon class="cls-1" points="669.87 530.49 541.87 512 541.87 122.31 669.87 103.82 669.87 530.49"/><path class="cls-2" d="M669.87,532l-0.21,0-128-18.49a1.5,1.5,0,0,1-1.29-1.48V122.31a1.5,1.5,0,0,1,1.29-1.48l128-18.49a1.5,1.5,0,0,1,1.71,1.48V530.49A1.5,1.5,0,0,1,669.87,532ZM543.37,510.7l125,18.06V105.55l-125,18.06V510.7Z"/><rect class="cls-1" x="669.87" y="103.82" width="12.8" height="426.67"/><path class="cls-2" d="M682.67,532h-12.8a1.5,1.5,0,0,1-1.5-1.5V103.82a1.5,1.5,0,0,1,1.5-1.5h12.8a1.5,1.5,0,0,1,1.5,1.5V530.49A1.5,1.5,0,0,1,682.67,532Zm-11.3-3h9.8V105.32h-9.8V529Z"/><polygon class="cls-1" points="649.33 185.97 559.56 194.13 559.56 136.69 649.33 125.14 649.33 185.97"/><path class="cls-2" d="M559.56,194.88a0.75,0.75,0,0,1-.75-0.75V136.69a0.75,0.75,0,0,1,.65-0.74l89.78-11.55a0.75,0.75,0,0,1,.85.74V186a0.75,0.75,0,0,1-.68.75l-89.78,8.16h-0.07Zm0.75-57.53v56l88.28-8V126Zm89,48.62h0Z"/><polygon class="cls-1" points="648.62 264.89 558.84 267.66 558.84 210.63 648.62 203.8 648.62 264.89"/><path class="cls-2" d="M558.84,268.41a0.75,0.75,0,0,1-.75-0.75v-57a0.75,0.75,0,0,1,.69-0.75L648.56,203a0.77,0.77,0,0,1,.57.2,0.75,0.75,0,0,1,.24.55v61.1a0.75,0.75,0,0,1-.73.75l-89.78,2.76h0Zm0.75-57.08v55.56l88.28-2.72V204.61Zm89,53.57h0Z"/><polygon class="cls-1" points="649.33 343.48 559.56 342.04 559.56 284.15 649.33 282.3 649.33 343.48"/><path class="cls-2" d="M649.33,344.23h0l-89.78-1.44a0.75,0.75,0,0,1-.74-0.75v-57.9a0.75,0.75,0,0,1,.73-0.75l89.78-1.85a0.77,0.77,0,0,1,.54.21,0.75,0.75,0,0,1,.23.54v61.18A0.75,0.75,0,0,1,649.33,344.23Zm-89-2.92,88.28,1.41V283.06l-88.28,1.82v56.42Z"/><polygon class="cls-1" points="649.33 510.22 559.56 498.13 559.56 440.53 649.33 448.62 649.33 510.22"/><path class="cls-2" d="M649.33,511h-0.1l-89.78-12.09a0.75,0.75,0,0,1-.65-0.74v-57.6A0.75,0.75,0,0,1,559,440a0.76,0.76,0,0,1,.57-0.19l89.78,8.09a0.75,0.75,0,0,1,.68.75v61.6A0.75,0.75,0,0,1,649.33,511Zm-89-13.5,88.28,11.89V449.31l-88.28-8v56.12Z"/><polygon class="cls-1" points="649.33 430.58 559.56 424.14 559.56 374.76 649.33 378.67 649.33 430.58"/><path class="cls-2" d="M649.33,431.33h-0.05l-89.78-6.44a0.75,0.75,0,0,1-.7-0.75V374.76a0.75,0.75,0,0,1,.23-0.54,0.72,0.72,0,0,1,.55-0.21l89.78,3.91a0.75,0.75,0,0,1,.72.75v51.91A0.75,0.75,0,0,1,649.33,431.33Zm-89-7.89,88.28,6.33V379.38l-88.28-3.85v47.9Z"/><ellipse class="cls-4" cx="647.29" cy="362.11" rx="8.53" ry="10.67"/><path class="cls-2" d="M647.29,374.27c-5.53,0-10-5.46-10-12.17s4.5-12.17,10-12.17,10,5.46,10,12.17S652.82,374.27,647.29,374.27Zm0-21.33c-3.88,0-7,4.11-7,9.17s3.16,9.17,7,9.17,7-4.11,7-9.17S651.17,352.94,647.29,352.94Z"/><rect class="cls-3" x="1435.09" y="113.78" width="170.67" height="398.22" transform="translate(3040.85 625.78) rotate(-180)"/><path class="cls-2" d="M1605.76,513.5H1435.09a1.5,1.5,0,0,1-1.5-1.5V113.78a1.5,1.5,0,0,1,1.5-1.5h170.67a1.5,1.5,0,0,1,1.5,1.5V512A1.5,1.5,0,0,1,1605.76,513.5Zm-169.17-3h167.67V115.28H1436.59V510.5Z"/><rect class="cls-2" x="1443.63" y="122.31" width="153.6" height="389.69" transform="translate(3040.85 634.31) rotate(-180)"/><path class="cls-2" d="M1597.23,513.5h-153.6a1.5,1.5,0,0,1-1.5-1.5V122.31a1.5,1.5,0,0,1,1.5-1.5h153.6a1.5,1.5,0,0,1,1.5,1.5V512A1.5,1.5,0,0,1,1597.23,513.5Zm-152.1-3h150.6V123.81h-150.6V510.5Z"/><polygon class="cls-1" points="1469.23 530.49 1597.23 512 1597.23 122.31 1469.23 103.82 1469.23 530.49"/><path class="cls-2" d="M1469.23,532a1.5,1.5,0,0,1-1.5-1.5V103.82a1.5,1.5,0,0,1,1.71-1.48l128,18.49a1.5,1.5,0,0,1,1.29,1.48V512a1.5,1.5,0,0,1-1.29,1.48l-128,18.49Zm1.5-426.43v423.2l125-18.06V123.61Z"/><rect class="cls-1" x="1456.43" y="103.82" width="12.8" height="426.67" transform="translate(2925.65 634.31) rotate(-180)"/><path class="cls-2" d="M1469.23,532h-12.8a1.5,1.5,0,0,1-1.5-1.5V103.82a1.5,1.5,0,0,1,1.5-1.5h12.8a1.5,1.5,0,0,1,1.5,1.5V530.49A1.5,1.5,0,0,1,1469.23,532Zm-11.3-3h9.8V105.32h-9.8V529Z"/><polygon class="cls-1" points="1489.76 185.97 1579.54 194.13 1579.54 136.69 1489.76 125.14 1489.76 185.97"/><path class="cls-2" d="M1579.54,194.88h-0.07l-89.78-8.16A0.75,0.75,0,0,1,1489,186V125.14a0.75,0.75,0,0,1,.85-0.74l89.78,11.55a0.75,0.75,0,0,1,.65.74v57.44A0.75,0.75,0,0,1,1579.54,194.88Zm-89-9.6,88.28,8v-56L1490.51,126v59.3Z"/><polygon class="cls-1" points="1490.47 264.89 1580.25 267.66 1580.25 210.63 1490.47 203.8 1490.47 264.89"/><path class="cls-2" d="M1580.25,268.41h0l-89.78-2.76a0.75,0.75,0,0,1-.73-0.75V203.8a0.75,0.75,0,0,1,.24-0.55,0.76,0.76,0,0,1,.57-0.2l89.78,6.83a0.75,0.75,0,0,1,.69.75v57A0.75,0.75,0,0,1,1580.25,268.41Zm-89-4.24,88.28,2.72V211.32l-88.28-6.71v59.56Z"/><polygon class="cls-1" points="1489.76 343.48 1579.54 342.04 1579.54 284.15 1489.76 282.3 1489.76 343.48"/><path class="cls-2" d="M1489.76,344.23a0.75,0.75,0,0,1-.75-0.75V282.3a0.75,0.75,0,0,1,.23-0.54,0.79,0.79,0,0,1,.54-0.21l89.78,1.85a0.75,0.75,0,0,1,.73.75V342a0.75,0.75,0,0,1-.74.75l-89.78,1.44h0Zm0.75-61.17v59.66l88.28-1.41V284.88Z"/><polygon class="cls-1" points="1489.76 510.22 1579.54 498.13 1579.54 440.53 1489.76 448.62 1489.76 510.22"/><path class="cls-2" d="M1489.76,511a0.75,0.75,0,0,1-.75-0.75v-61.6a0.75,0.75,0,0,1,.68-0.75l89.78-8.09a0.76,0.76,0,0,1,.57.19,0.75,0.75,0,0,1,.24.55v57.6a0.75,0.75,0,0,1-.65.74L1489.86,511h-0.1Zm0.75-61.67v60.06l88.28-11.89V441.35Z"/><polygon class="cls-1" points="1489.76 430.58 1579.54 424.14 1579.54 374.76 1489.76 378.67 1489.76 430.58"/><path class="cls-2" d="M1489.76,431.33a0.75,0.75,0,0,1-.75-0.75V378.67a0.75,0.75,0,0,1,.72-0.75l89.78-3.91a0.71,0.71,0,0,1,.55.21,0.75,0.75,0,0,1,.23.54v49.38a0.75,0.75,0,0,1-.7.75l-89.78,6.44h-0.05Zm0.75-51.94v50.39l88.28-6.33v-47.9Z"/><ellipse class="cls-4" cx="1491.81" cy="362.11" rx="8.53" ry="10.67"/><path class="cls-2" d="M1491.81,374.27c-5.53,0-10-5.46-10-12.17s4.5-12.17,10-12.17,10,5.46,10,12.17S1497.34,374.27,1491.81,374.27Zm0-21.33c-3.88,0-7,4.11-7,9.17s3.16,9.17,7,9.17,7-4.11,7-9.17S1495.68,352.94,1491.81,352.94Z"/><rect class="cls-1" x="1237.33" y="426.67" width="151.51" height="106.67"/><path class="cls-2" d="M1388.84,534.83H1237.33a1.5,1.5,0,0,1-1.5-1.5V426.67a1.5,1.5,0,0,1,1.5-1.5h151.51a1.5,1.5,0,0,1,1.5,1.5V533.33A1.5,1.5,0,0,1,1388.84,534.83Zm-150-3h148.51V428.17H1238.83V531.83Z"/><path class="cls-3" d="M886.28,402.67c28.86-11.21,128.06-.48,132.32,7s1.17,33.09-5.33,39-125.92-7.07-127-11.29S857.42,413.88,886.28,402.67Z"/><path class="cls-2" d="M999.47,451.62c-12.12,0-29.52-1.29-44.83-2.7-30-2.75-58.65-6.64-66.59-9.05-1.83-.56-3-1.09-3.22-2.17a23.49,23.49,0,0,0-3.09-3.78c-4.61-5.08-11.57-12.76-9.73-20.55,1.17-4.94,5.79-9,13.73-12.09h0c12.69-4.93,41.12-6.28,76-3.61,14.28,1.09,28,2.76,38.68,4.7,17.53,3.19,18.92,5.63,19.45,6.55,4.4,7.71,1.67,34.23-5.63,40.82C1012.76,451.09,1007.19,451.62,999.47,451.62ZM887.58,436.53c3.17,1.73,28.38,5.66,62.09,8.92,40,3.86,60.45,3.78,62.59,2.06,5.82-5.25,9.16-29.88,5-37.1-1.49-2.36-22.27-7.2-56-9.76-34.4-2.62-62.25-1.34-74.52,3.43h0c-7,2.71-11,6.07-11.89,10-1.48,6.25,4.85,13.23,9,17.85C886,434.11,887.13,435.43,887.58,436.53Zm0.15,0.44h0Zm-1.45-34.3h0Z"/><path class="cls-1" d="M763.77,437.91s-6.4-20.21-6.4-27.68S865.22,391,874.76,392.1s17.13,34.38,12.8,39.06S763.77,437.91,763.77,437.91Z"/><path class="cls-2" d="M763.77,439.41a1.5,1.5,0,0,1-1.43-1c-0.26-.83-6.47-20.52-6.47-28.13a2.78,2.78,0,0,1,1.06-2.08c8.68-7.77,108.48-18.62,118-17.54,5.15,0.58,8.89,7.86,11.13,13.87,3.31,8.9,6.14,23.88,2.61,27.7-1,1.1-3.13,3.38-64.56,5.61-30.07,1.09-60,1.62-60.3,1.63h0Zm-4.9-29c0.09,6.32,4.71,21.77,6,26,45-.8,116.79-3.2,121.63-6.3,1.62-1.94,1-13.23-3.26-24.57-2.67-7.17-5.9-11.62-8.65-11.93-4.24-.46-31.32,1.87-59.89,5.6C776.14,404.22,760.59,408.36,758.88,410.42Z"/><path class="cls-3" d="M868.21,438.31c13.3,1.16-22.4-31.85-39.46-30.79S798.28,415,772.25,415c-19.24,0-27.68,15.56-29.91,22.36S854.34,437.1,868.21,438.31Z"/><path class="cls-2" d="M770.61,441.84c-18.45,0-27.74-.87-29.36-3a2.1,2.1,0,0,1-.33-1.94c0.78-2.39,8.32-23.4,31.33-23.4,15.38,0,26.47-2.29,36.26-4.3A141.5,141.5,0,0,1,828.65,406c13.5-.86,37.25,17.88,42.71,27.08,1.34,2.26,1.6,4,.8,5.25s-2.09,1.62-4.09,1.44c-4.51-.39-20.42.12-38.85,0.72C804,441.34,784.64,441.84,770.61,441.84ZM744,437.18c6.07,2.9,55.38,1.3,85.14.34,19.28-.62,34.52-1.12,39.21-0.71a3.08,3.08,0,0,0,1.27-.08c0-.29-0.15-1.57-2.64-4.63-7.74-9.54-27.61-23.75-38.14-23.09a139.21,139.21,0,0,0-19.72,3.09c-9.93,2-21.18,4.36-36.87,4.36C752.69,416.47,745.42,433.25,744,437.18Z"/><path class="cls-1" d="M735.29,463.73c-16.41,0-11.13-8.32-5.74-23.2s18.56-17.66,35.63-13.4,30.5,15.05,40.1,3.44,55.59-1.72,77.92-7.06,44.74-13,57.54-5.33,28.8,12.39,41.6,12.39,60-8.89,67.2,0,14.75,13.22,20,21.69c6.47,10.47,10,27.33,0,25.6-8.7-1.5-30.65-2.87-30.65-2.87s-14.93.15-19.2-8.6-52.26-20.49-52.26-20.49-16,11.62-34.13-1.85c-24.53,6.33-159.88,0-178.07,0S751.7,463.73,735.29,463.73Z"/><path class="cls-2" d="M1070.87,479.49a9.53,9.53,0,0,1-1.61-.15c-8.32-1.43-29.25-2.77-30.43-2.85h0c-1.46,0-16-.24-20.46-9.44-2.85-5.84-32.3-15-50.64-19.53-3.16,2-18.16,10-34.73-1.84-20.59,4.75-105.18,2.06-150.88.6-13.27-.42-22.86-0.73-26.87-0.73-8,0-8.53,3.93-9.19,8.92-0.63,4.8-1.42,10.76-10.73,10.76-6.17,0-9.69-1.12-11.42-3.63-2.52-3.65-.43-9.15,2.47-16.76,0.58-1.52,1.19-3.12,1.8-4.82,5.22-14.42,17.8-19.25,37.4-14.34a120.53,120.53,0,0,1,13.35,4.42c11,4.14,18.94,7.13,25.24-.48,6.08-7.35,24.17-6.79,43.33-6.2,12.94,0.4,26.31.81,35.4-1.36,3.36-.8,6.76-1.67,10.06-2.5,19.13-4.86,37.19-9.45,48.6-2.66,12.62,7.51,28.26,12.18,40.83,12.18,3.45,0,9.61-.68,16.75-1.46,25.12-2.76,46.34-4.52,51.62,2a93.46,93.46,0,0,0,9.28,9.63c4,3.75,7.76,7.28,10.81,12.22,5.12,8.28,8.5,20.39,5,25.5A5.67,5.67,0,0,1,1070.87,479.49Zm-32-6H1039c0.9,0.06,22.13,1.39,30.81,2.89,2.29,0.4,3.14-.43,3.58-1.09,2.36-3.49-.08-14.1-5.11-22.25-2.84-4.59-6.47-8-10.31-11.6a95.82,95.82,0,0,1-9.56-9.93c-4.68-5.8-32.4-2.75-49-.92-7.22.79-13.46,1.48-17.07,1.48-13.08,0-29.31-4.83-42.37-12.6-10.33-6.16-27.82-1.71-46.32,3-3.3.84-6.72,1.71-10.1,2.51-9.48,2.26-23.06,1.84-36.19,1.44-17.59-.54-35.78-1.1-40.92,5.12-7.66,9.26-17.37,5.61-28.6,1.38a118.08,118.08,0,0,0-13-4.32c-18.11-4.53-29.18-.45-33.85,12.45-0.62,1.71-1.23,3.33-1.82,4.86-2.47,6.5-4.43,11.64-2.8,14,1.08,1.57,4,2.33,8.95,2.33,6.68,0,7.13-3.42,7.75-8.16,0.68-5.13,1.52-11.52,12.16-11.52,4.06,0,13.67.31,27,.73,46.08,1.46,131.85,4.19,150.73-.68a1.5,1.5,0,0,1,1.27.25c17,12.63,31.74,2.29,32.36,1.84a1.51,1.51,0,0,1,1.24-.24c5,1.22,48.81,12.17,53.26,21.29,3.81,7.8,17.69,7.74,17.84,7.75h0Z"/><path class="cls-1" d="M810.67,255.29a6.93,6.93,0,0,1-12.8,0v-51.2h12.8v51.2Z"/><path class="cls-2" d="M804.27,261.06a8.41,8.41,0,0,1-7.8-5.24,1.49,1.49,0,0,1-.1-0.53v-51.2a1.5,1.5,0,0,1,1.5-1.5h12.8a1.5,1.5,0,0,1,1.5,1.5v51.2a1.49,1.49,0,0,1-.1.53A8.41,8.41,0,0,1,804.27,261.06Zm-4.9-6.08a5.44,5.44,0,0,0,9.8,0V205.59h-9.8V255Zm11.3,0.31h0Z"/><ellipse class="cls-1" cx="804.27" cy="184.89" rx="38.4" ry="21.33"/><path class="cls-2" d="M804.27,207.72c-22,0-39.9-10.24-39.9-22.83s17.9-22.83,39.9-22.83,39.9,10.24,39.9,22.83S826.27,207.72,804.27,207.72Zm0-42.67c-20.35,0-36.9,8.9-36.9,19.83s16.55,19.83,36.9,19.83,36.9-8.9,36.9-19.83S824.61,165.06,804.27,165.06Z"/><ellipse class="cls-1" cx="804.27" cy="184.89" rx="23.47" ry="10.67"/><path class="cls-2" d="M804.27,197.06c-14,0-25-5.34-25-12.17s11-12.17,25-12.17,25,5.34,25,12.17S818.27,197.06,804.27,197.06Zm0-21.33c-10.39,0-22,3.76-22,9.17s11.58,9.17,22,9.17,22-3.76,22-9.17S814.66,175.72,804.27,175.72Z"/><ellipse class="cls-2" cx="804.27" cy="184.89" rx="8.53" ry="3.2"/><path class="cls-2" d="M804.27,189.59c-4.83,0-10-1.47-10-4.7s5.2-4.7,10-4.7,10,1.47,10,4.7S809.1,189.59,804.27,189.59Zm-7-4.7c0.42,0.55,2.81,1.7,7,1.7s6.58-1.15,7-1.7c-0.42-.55-2.81-1.7-7-1.7S797.68,184.34,797.27,184.89Zm14,0.08h0Z"/><path class="cls-1" d="M797.87,242.85s-2.55-23.56-29.8-23.56C766.93,236.61,780.55,246.26,797.87,242.85Z"/><path class="cls-2" d="M791.19,245c-6.73,0-12.77-2-17.19-5.92-5.33-4.68-8-11.75-7.43-19.91a1.5,1.5,0,0,1,1.5-1.4c28.27,0,31.27,24.65,31.29,24.89a1.5,1.5,0,0,1-1.2,1.63A36.13,36.13,0,0,1,791.19,245Zm-21.68-24.2c-0.12,6.67,2.11,12.19,6.48,16,4.9,4.3,12.18,6,20.16,4.78C795.15,236.84,790.36,221.49,769.5,220.82Z"/><path class="cls-1" d="M777.72,229.51a131.73,131.73,0,0,0,20.15,13.34"/><path class="cls-2" d="M797.87,244.35a1.49,1.49,0,0,1-.68-0.16,131.72,131.72,0,0,1-20.42-13.52,1.5,1.5,0,0,1,1.9-2.32c0.1,0.08,10.07,8.19,19.88,13.16A1.5,1.5,0,0,1,797.87,244.35Z"/><path class="cls-1" d="M810.67,242.85s2.55-23.56,29.8-23.56C841.6,236.61,828,246.26,810.67,242.85Z"/><path class="cls-2" d="M817.35,245a36.13,36.13,0,0,1-7-.7,1.5,1.5,0,0,1-1.2-1.63c0-.25,3-24.89,31.29-24.89a1.5,1.5,0,0,1,1.5,1.4c0.53,8.15-2.1,15.22-7.43,19.91C830.12,243,824.08,245,817.35,245Zm-4.95-3.39c8,1.23,15.26-.49,20.15-4.79,4.37-3.84,6.6-9.36,6.48-16-10.06.32-17.6,4.05-22.44,11.11A27.93,27.93,0,0,0,812.4,241.63Z"/><path class="cls-1" d="M830.82,229.51a131.73,131.73,0,0,1-20.15,13.34"/><path class="cls-2" d="M810.67,244.35a1.5,1.5,0,0,1-.68-2.84c9.81-5,19.78-13.08,19.88-13.16a1.5,1.5,0,0,1,1.9,2.32,131.72,131.72,0,0,1-20.42,13.52A1.49,1.49,0,0,1,810.67,244.35Z"/><rect class="cls-1" x="768" y="255.29" width="36.27" height="18.01"/><path class="cls-2" d="M804.27,274.8H768a1.5,1.5,0,0,1-1.5-1.5v-18a1.5,1.5,0,0,1,1.5-1.5h36.27a1.5,1.5,0,0,1,1.5,1.5v18A1.5,1.5,0,0,1,804.27,274.8Zm-34.77-3h33.27v-15H769.5v15Z"/><rect class="cls-1" x="794.67" y="282.3" width="36.27" height="14.24"/><path class="cls-2" d="M830.93,298H794.67a1.5,1.5,0,0,1-1.5-1.5V282.3a1.5,1.5,0,0,1,1.5-1.5h36.27a1.5,1.5,0,0,1,1.5,1.5v14.24A1.5,1.5,0,0,1,830.93,298Zm-34.77-3h33.27V283.8H796.17V295Z"/><rect class="cls-1" x="812.44" y="266.23" width="36.27" height="7.12"/><path class="cls-2" d="M848.71,274.85H812.44a1.5,1.5,0,0,1-1.5-1.5v-7.12a1.5,1.5,0,0,1,1.5-1.5h36.27a1.5,1.5,0,0,1,1.5,1.5v7.12A1.5,1.5,0,0,1,848.71,274.85Zm-34.77-3h33.27v-4.12H813.94v4.12Z"/><path class="cls-1" d="M1031.11,196.27c17.07,0,23.47,5.69,23.47,14.93,0,8.89-4.27,14.25-4.27,19.2,0,11.73,13,17.07,13.87,29.87,1,14-3.73,27.73-33.07,27.73S997.2,273.57,998,260.27c0.89-14,13.87-19,13.87-29.87,0-6.58-4.27-11-4.27-19.38C1007.64,202.13,1014,196.27,1031.11,196.27Z"/><path class="cls-2" d="M1031.11,289.5c-13.39,0-23-3-28.62-9-4.56-4.86-6.5-11.51-5.94-20.33,0.49-7.78,4.49-13,8-17.52,3.14-4.07,5.85-7.58,5.85-12.25,0-2.83-.86-5.22-1.85-8a31.76,31.76,0,0,1-2.41-11.39c0-10.79,8.4-16.26,25-16.26s25,5.53,25,16.43a36.6,36.6,0,0,1-2.68,12.88,20.32,20.32,0,0,0-1.59,6.32c0,5.37,3.07,9.39,6.31,13.65,3.48,4.56,7.07,9.28,7.55,16.11,0.62,8.94-1.25,15.62-5.72,20.41C1054.35,286.58,1044.92,289.5,1031.11,289.5Zm0-91.73c-14.78,0-22,4.34-22,13.26a28.86,28.86,0,0,0,2.24,10.38,25.57,25.57,0,0,1,2,9c0,5.7-3.15,9.77-6.48,14.09s-7,9-7.39,15.87c-0.5,8,1.18,13.87,5.14,18.09,5,5.34,13.91,8.05,26.43,8.05,12.75,0,21.72-2.68,26.65-8,3.87-4.15,5.48-10.08,4.92-18.15-0.41-5.94-3.73-10.29-6.94-14.5-3.41-4.47-6.93-9.08-6.93-15.47,0-2.38.82-4.67,1.76-7.32a33.6,33.6,0,0,0,2.51-11.88C1053.08,205.43,1050.8,197.77,1031.11,197.77Z"/><circle class="cls-2" cx="1031.11" cy="221.87" r="9.6"/><path class="cls-2" d="M1031.11,233a11.1,11.1,0,1,1,11.1-11.1A11.11,11.11,0,0,1,1031.11,233Zm0-19.2a8.1,8.1,0,1,0,8.1,8.1A8.11,8.11,0,0,0,1031.11,213.77Z"/><polygon class="cls-3" points="1036.44 128 1025.78 128 1023.64 213.33 1038.58 213.33 1036.44 128"/><path class="cls-2" d="M1038.58,214.83h-14.93a1.5,1.5,0,0,1-1.5-1.54l2.13-85.33a1.5,1.5,0,0,1,1.5-1.46h10.67a1.5,1.5,0,0,1,1.5,1.46l2.13,85.33A1.5,1.5,0,0,1,1038.58,214.83Zm-13.4-3H1037L1035,129.5h-7.74Z"/><path class="cls-1" d="M1036.44,128h-10.67c-0.95,0-2.13-3.32-2.13-3.32l-1.07-27.61a12.2,12.2,0,0,1,3.2-1.07,52.19,52.19,0,0,1,5.33,1.07,30,30,0,0,1,5.33-1.07,6.76,6.76,0,0,1,3.2,1.07l-1.07,27.61S1037.63,128,1036.44,128Z"/><path class="cls-2" d="M1036.44,129.5h-10.67c-0.5,0-2,0-3.55-4.31a1.5,1.5,0,0,1-.09-0.45l-1.07-27.62a1.5,1.5,0,0,1,.86-1.41,11.69,11.69,0,0,1,3.84-1.21,40.16,40.16,0,0,1,5.31,1,27.17,27.17,0,0,1,5.36-1,8.15,8.15,0,0,1,4,1.32,1.5,1.5,0,0,1,.67,1.31l-1.07,27.62a1.53,1.53,0,0,1-.06.35C1039.55,126.74,1038.46,129.5,1036.44,129.5Zm-10.27-3h10a7.82,7.82,0,0,0,.94-2.06l1-26.5a4.28,4.28,0,0,0-1.67-.44,27.05,27.05,0,0,0-4.92,1,1.52,1.52,0,0,1-.77,0,48.55,48.55,0,0,0-5-1,7.61,7.61,0,0,0-1.66.53l1,26.36A10.72,10.72,0,0,0,1026.18,126.5Z"/><rect class="cls-4" x="1018.31" y="114.84" width="4.27" height="6.4" rx="1.5" ry="1.5"/><path class="cls-2" d="M1021.08,122.74h-1.27a3,3,0,0,1-3-3v-3.4a3,3,0,0,1,3-3h1.27a3,3,0,0,1,3,3v3.4A3,3,0,0,1,1021.08,122.74Zm-1.27-6.4v3.4h1.27v-3.4h-1.27Z"/><rect class="cls-4" x="1018.31" y="103.47" width="4.27" height="6.4" rx="1.5" ry="1.5"/><path class="cls-2" d="M1021.08,111.37h-1.27a3,3,0,0,1-3-3V105a3,3,0,0,1,3-3h1.27a3,3,0,0,1,3,3v3.4A3,3,0,0,1,1021.08,111.37Zm-1.27-6.4v3.4h1.27V105h-1.27Z"/><rect class="cls-4" x="1039.64" y="114.84" width="4.27" height="6.4" rx="1.5" ry="1.5"/><path class="cls-2" d="M1042.41,122.74h-1.27a3,3,0,0,1-3-3v-3.4a3,3,0,0,1,3-3h1.27a3,3,0,0,1,3,3v3.4A3,3,0,0,1,1042.41,122.74Zm-1.27-6.4v3.4h1.27v-3.4h-1.27Z"/><rect class="cls-4" x="1039.64" y="103.47" width="4.27" height="6.4" rx="1.5" ry="1.5"/><path class="cls-2" d="M1042.41,111.37h-1.27a3,3,0,0,1-3-3V105a3,3,0,0,1,3-3h1.27a3,3,0,0,1,3,3v3.4A3,3,0,0,1,1042.41,111.37Zm-1.27-6.4v3.4h1.27V105h-1.27Z"/><rect class="cls-3" x="1018.31" y="249.6" width="25.6" height="8.53"/><path class="cls-2" d="M1043.91,259.63h-25.6a1.5,1.5,0,0,1-1.5-1.5V249.6a1.5,1.5,0,0,1,1.5-1.5h25.6a1.5,1.5,0,0,1,1.5,1.5v8.53A1.5,1.5,0,0,1,1043.91,259.63Zm-24.1-3h22.6V251.1h-22.6v5.53Z"/><path class="cls-1" d="M1085.18,119.24c12.62,0,17.36,4.21,17.36,11,0,6.57-3.16,10.54-3.16,14.2,0,8.68,9.6,12.62,10.26,22.09,0.72,10.36-2.76,20.51-24.46,20.51s-25.08-10.67-24.46-20.51c0.66-10.39,10.26-14.07,10.26-22.09,0-4.87-3.16-8.15-3.16-14.33C1067.82,123.58,1072.56,119.24,1085.18,119.24Z"/><path class="cls-2" d="M1085.18,188.59c-10,0-17.23-2.28-21.45-6.78-3.45-3.67-4.92-8.69-4.5-15.33,0.37-5.88,3.37-9.75,6-13.17,2.28-3,4.25-5.5,4.25-8.83a16.66,16.66,0,0,0-1.35-5.77,23.82,23.82,0,0,1-1.81-8.56c0-8.24,6.34-12.41,18.86-12.41S1104,122,1104,130.29a27.4,27.4,0,0,1-2,9.66,14.79,14.79,0,0,0-1.15,4.54c0,3.84,2.23,6.77,4.59,9.86,2.49,3.26,5.3,7,5.66,12.13,0.47,6.73-.95,11.76-4.33,15.39C1102.58,186.39,1095.5,188.59,1085.18,188.59Zm0-67.85c-15.86,0-15.86,7.09-15.86,9.41a21,21,0,0,0,1.63,7.54,19.49,19.49,0,0,1,1.53,6.79c0,4.35-2.48,7.56-4.87,10.66s-5.07,6.57-5.39,11.53c-0.36,5.77.84,10,3.69,13.09,3.63,3.87,10.11,5.83,19.27,5.83,9.32,0,15.85-1.94,19.43-5.77,2.78-3,3.94-7.28,3.53-13.13-0.3-4.27-2.61-7.31-5.05-10.51s-5.2-6.83-5.2-11.68a17,17,0,0,1,1.32-5.54,24.53,24.53,0,0,0,1.83-8.66C1101,126.19,1099.39,120.74,1085.18,120.74Z"/><circle class="cls-2" cx="1085.18" cy="138.17" r="7.1"/><path class="cls-2" d="M1085.18,146.77a8.6,8.6,0,1,1,8.6-8.6A8.61,8.61,0,0,1,1085.18,146.77Zm0-14.2a5.6,5.6,0,1,0,5.6,5.6A5.61,5.61,0,0,0,1085.18,132.57Z"/><polygon class="cls-3" points="1089.12 68.75 1081.23 68.75 1079.66 131.86 1090.7 131.86 1089.12 68.75"/><path class="cls-2" d="M1090.7,133.36h-11a1.5,1.5,0,0,1-1.5-1.54l1.58-63.12a1.5,1.5,0,0,1,1.5-1.46h7.89a1.5,1.5,0,0,1,1.5,1.46l1.58,63.12A1.5,1.5,0,0,1,1090.7,133.36Zm-9.51-3h8l-1.5-60.12h-5Z"/><path class="cls-1" d="M1089.12,68.75h-7.89c-0.7,0-1.58-2.45-1.58-2.45l-0.79-20.42a9,9,0,0,1,2.37-.79,38.6,38.6,0,0,1,3.94.79,22.2,22.2,0,0,1,3.94-.79,5,5,0,0,1,2.37.79l-0.79,20.42S1090,68.75,1089.12,68.75Z"/><path class="cls-2" d="M1089.12,70.25h-7.89c-0.48,0-1.76,0-3-3.45a1.5,1.5,0,0,1-.09-0.45l-0.79-20.42a1.5,1.5,0,0,1,.86-1.41,8.71,8.71,0,0,1,3-.93,27,27,0,0,1,3.92.74,19.56,19.56,0,0,1,4-.74,6.44,6.44,0,0,1,3.2,1,1.5,1.5,0,0,1,.67,1.31l-0.79,20.42a1.53,1.53,0,0,1-.06.35C1091.68,68.32,1090.78,70.25,1089.12,70.25Zm-7.38-3h7a6.6,6.6,0,0,0,.51-1.21L1090,46.77a2.43,2.43,0,0,0-.83-0.19,19.76,19.76,0,0,0-3.53.73,1.5,1.5,0,0,1-.77,0c-1.43-.35-3.22-0.73-3.6-0.75a4.81,4.81,0,0,0-.82.26L1081.15,66A8.88,8.88,0,0,0,1081.74,67.25Z"/><rect class="cls-4" x="1075.71" y="59.02" width="3.16" height="4.73" rx="1.5" ry="1.5"/><path class="cls-2" d="M1077.37,65.25h-0.16a3,3,0,0,1-3-3V60.52a3,3,0,0,1,3-3h0.16a3,3,0,0,1,3,3v1.73A3,3,0,0,1,1077.37,65.25Zm-0.16-4.73v1.73h0.16V60.52h-0.16Z"/><rect class="cls-4" x="1075.71" y="50.6" width="3.16" height="4.73" rx="1.5" ry="1.5"/><path class="cls-2" d="M1077.37,56.83h-0.16a3,3,0,0,1-3-3V52.1a3,3,0,0,1,3-3h0.16a3,3,0,0,1,3,3v1.73A3,3,0,0,1,1077.37,56.83Zm-0.16-4.73v1.73h0.16V52.1h-0.16Z"/><rect class="cls-4" x="1091.49" y="59.02" width="3.16" height="4.73" rx="1.5" ry="1.5"/><path class="cls-2" d="M1093.15,65.25H1093a3,3,0,0,1-3-3V60.52a3,3,0,0,1,3-3h0.16a3,3,0,0,1,3,3v1.73A3,3,0,0,1,1093.15,65.25ZM1093,60.52v1.73h0.16V60.52H1093Z"/><rect class="cls-4" x="1091.49" y="50.6" width="3.16" height="4.73" rx="1.5" ry="1.5"/><path class="cls-2" d="M1093.15,56.83H1093a3,3,0,0,1-3-3V52.1a3,3,0,0,1,3-3h0.16a3,3,0,0,1,3,3v1.73A3,3,0,0,1,1093.15,56.83ZM1093,52.1v1.73h0.16V52.1H1093Z"/><rect class="cls-3" x="1075.71" y="158.69" width="18.93" height="6.31"/><path class="cls-2" d="M1094.65,166.5h-18.93a1.5,1.5,0,0,1-1.5-1.5v-6.31a1.5,1.5,0,0,1,1.5-1.5h18.93a1.5,1.5,0,0,1,1.5,1.5V165A1.5,1.5,0,0,1,1094.65,166.5Zm-17.43-3h15.93v-3.31h-15.93v3.31Z"/><rect class="cls-4" x="1165.87" y="38.4" width="4.27" height="4.27" rx="1.5" ry="1.5"/><path class="cls-2" d="M1168.63,44.17h-1.27a3,3,0,0,1-3-3V39.9a3,3,0,0,1,3-3h1.27a3,3,0,0,1,3,3v1.27A3,3,0,0,1,1168.63,44.17Zm-1.27-4.27v1.27h1.27V39.9h-1.27Z"/><path class="cls-1" d="M1156.27,136.53c33.9,0,37.33,8.22,37.33,21.33,0,6.87-2.13,15.67-2.13,21.33,0,19,16,25.6,16,53.33,0,17.07-9,34.13-51.22,34.13s-51.18-20.62-51.18-34.13c0-26.31,16-34.61,16-53.33,0-6.37-2.13-15-2.13-21.73C1118.93,144.86,1124,136.53,1156.27,136.53Z"/><path class="cls-2" d="M1156.25,268.17c-48.88,0-52.68-27.27-52.68-35.63,0-14.64,4.88-23.94,9.19-32.15,3.66-7,6.81-13,6.81-21.18a79.08,79.08,0,0,0-1-10.34,85.84,85.84,0,0,1-1.11-11.4c0-13.85,6.5-22.43,38.83-22.43,36,0,38.83,9.9,38.83,22.83a88.48,88.48,0,0,1-1.16,11.88,74.56,74.56,0,0,0-1,9.45c0,8.2,3.1,13.93,6.69,20.56,4.37,8.07,9.31,17.21,9.31,32.77,0,10.66-3.38,18.71-10.32,24.61C1190,264.46,1175.77,268.17,1156.25,268.17Zm0-130.13c-33.14,0-35.83,8.8-35.83,19.43a83.75,83.75,0,0,0,1.08,11,82.4,82.4,0,0,1,1.06,10.76c0,8.94-3.48,15.56-7.16,22.58-4.35,8.29-8.84,16.85-8.84,30.76,0,30.28,38,32.63,49.68,32.63,33.45,0,49.72-10.67,49.72-32.63,0-14.8-4.55-23.21-9-31.35-3.62-6.7-7-13-7-22a76.29,76.29,0,0,1,1-9.87,86.4,86.4,0,0,0,1.13-11.46C1192.1,145.89,1189.61,138,1156.27,138Z"/><circle class="cls-4" cx="1156.27" cy="173.51" r="17.07"/><path class="cls-2" d="M1156.27,191.33a17.82,17.82,0,1,1,17.82-17.82A17.84,17.84,0,0,1,1156.27,191.33Zm0-34.13a16.32,16.32,0,1,0,16.32,16.32A16.33,16.33,0,0,0,1156.27,157.19Z"/><circle class="cls-2" cx="1156.27" cy="173.51" r="12.8"/><path class="cls-2" d="M1156.27,187.81a14.3,14.3,0,1,1,14.3-14.3A14.32,14.32,0,0,1,1156.27,187.81Zm0-25.6a11.3,11.3,0,1,0,11.3,11.3A11.31,11.31,0,0,0,1156.27,162.21Z"/><polygon class="cls-3" points="1161.6 46.93 1150.93 46.93 1148.8 160.71 1163.73 160.71 1161.6 46.93"/><path class="cls-2" d="M1163.73,162.21H1148.8a1.5,1.5,0,0,1-1.5-1.53l2.13-113.78a1.5,1.5,0,0,1,1.5-1.47h10.67a1.5,1.5,0,0,1,1.5,1.47l2.13,113.78A1.5,1.5,0,0,1,1163.73,162.21Zm-13.41-3h11.88l-2.08-110.78h-7.72Z"/><path class="cls-1" d="M1161,46.93h-9.48c-0.84,0-2.71-3.2-2.71-3.2l-2.49-23.47c4.27,0,3.81-1.5,6.76-2.13a10.8,10.8,0,0,1,3.2,0,10,10,0,0,1,3.2,0c2.91,0.63,3.11,2.13,6.76,2.13l-2.49,23.47S1162,46.93,1161,46.93Z"/><path class="cls-2" d="M1161,48.43h-9.48c-0.51,0-1.7,0-4-3.94a1.5,1.5,0,0,1-.2-0.6l-2.49-23.47a1.5,1.5,0,0,1,1.49-1.66,5.32,5.32,0,0,0,3.53-.88,8.27,8.27,0,0,1,2.91-1.22,7.4,7.4,0,0,1,2.67-.1,7.28,7.28,0,0,0,1.64,0,7.07,7.07,0,0,1,2.72.1,10.29,10.29,0,0,1,3,1.2,5.79,5.79,0,0,0,3.39.9,1.5,1.5,0,0,1,1.49,1.66l-2.49,23.47a1.5,1.5,0,0,1-.17.54C1163.66,47.09,1162.29,48.43,1161,48.43Zm-0.35-2.93h0Zm-8.8-.07h8.9a10.1,10.1,0,0,0,1.53-2.15l2.29-21.62a8.6,8.6,0,0,1-3.18-1.15,7.42,7.42,0,0,0-2.23-.9,4.23,4.23,0,0,0-1.71-.06,11,11,0,0,1-2.35,0,4.46,4.46,0,0,0-1.71,0,5.28,5.28,0,0,0-2,.84,7.32,7.32,0,0,1-3.46,1.24l2.29,21.57A13.72,13.72,0,0,0,1151.85,45.43Z"/><rect class="cls-3" x="1137.07" y="209.07" width="38.4" height="8.53"/><path class="cls-2" d="M1175.47,219.1h-38.4a1.5,1.5,0,0,1-1.5-1.5v-8.53a1.5,1.5,0,0,1,1.5-1.5h38.4a1.5,1.5,0,0,1,1.5,1.5v8.53A1.5,1.5,0,0,1,1175.47,219.1Zm-36.9-3H1174v-5.53h-35.4v5.53Z"/><rect class="cls-4" x="1165.87" y="30.93" width="4.27" height="4.27" rx="1.5" ry="1.5"/><path class="cls-2" d="M1168.63,36.7h-1.27a3,3,0,0,1-3-3V32.43a3,3,0,0,1,3-3h1.27a3,3,0,0,1,3,3V33.7A3,3,0,0,1,1168.63,36.7Zm-1.27-4.27V33.7h1.27V32.43h-1.27Z"/><rect class="cls-4" x="1165.87" y="23.47" width="4.27" height="4.27" rx="1.5" ry="1.5"/><path class="cls-2" d="M1168.63,29.23h-1.27a3,3,0,0,1-3-3V25a3,3,0,0,1,3-3h1.27a3,3,0,0,1,3,3v1.27A3,3,0,0,1,1168.63,29.23ZM1167.37,25v1.27h1.27V25h-1.27Z"/><rect class="cls-4" x="1142.4" y="38.4" width="4.27" height="4.27" rx="1.5" ry="1.5"/><path class="cls-2" d="M1145.17,44.17h-1.27a3,3,0,0,1-3-3V39.9a3,3,0,0,1,3-3h1.27a3,3,0,0,1,3,3v1.27A3,3,0,0,1,1145.17,44.17Zm-1.27-4.27v1.27h1.27V39.9h-1.27Z"/><rect class="cls-4" x="1142.4" y="30.93" width="4.27" height="4.27" rx="1.5" ry="1.5"/><path class="cls-2" d="M1145.17,36.7h-1.27a3,3,0,0,1-3-3V32.43a3,3,0,0,1,3-3h1.27a3,3,0,0,1,3,3V33.7A3,3,0,0,1,1145.17,36.7Zm-1.27-4.27V33.7h1.27V32.43h-1.27Z"/><rect class="cls-4" x="1142.4" y="23.47" width="4.27" height="4.27" rx="1.5" ry="1.5"/><path class="cls-2" d="M1145.17,29.23h-1.27a3,3,0,0,1-3-3V25a3,3,0,0,1,3-3h1.27a3,3,0,0,1,3,3v1.27A3,3,0,0,1,1145.17,29.23ZM1143.9,25v1.27h1.27V25h-1.27Z"/><circle class="cls-4" cx="1240.11" cy="267.59" r="2.57" transform="translate(564.51 1341.39) rotate(-70)"/><path class="cls-2" d="M1240.47,266.59a1.07,1.07,0,1,1-1.37.64,1.07,1.07,0,0,1,1.37-.64m1-2.82a4.07,4.07,0,1,0,2.43,5.21,4.07,4.07,0,0,0-2.43-5.21h0Z"/><circle class="cls-4" cx="1250.05" cy="273.34" r="2.57" transform="translate(237.15 1055.24) rotate(-50)"/><path class="cls-2" d="M1250.74,272.52a1.07,1.07,0,1,1-1.5.13,1.07,1.07,0,0,1,1.5-.13m1.93-2.3a4.07,4.07,0,1,0,.5,5.73,4.07,4.07,0,0,0-.5-5.73h0Z"/><circle class="cls-4" cx="1257.44" cy="282.13" r="2.57" transform="translate(27.4 666.52) rotate(-30)"/><path class="cls-2" d="M1258.36,281.6a1.07,1.07,0,1,1-1.46-.39,1.07,1.07,0,0,1,1.46.39m2.6-1.5a4.07,4.07,0,1,0-1.49,5.56,4.07,4.07,0,0,0,1.49-5.56h0Z"/><circle class="cls-4" cx="1261.36" cy="292.92" r="2.57" transform="translate(-31.7 223.48) rotate(-10)"/><path class="cls-2" d="M1262.41,292.74a1.07,1.07,0,1,1-1.24-.86,1.07,1.07,0,0,1,1.24.86m3-.52a4.07,4.07,0,1,0-3.3,4.71,4.07,4.07,0,0,0,3.3-4.71h0Z"/><circle class="cls-4" cx="1261.36" cy="304.41" r="2.57" transform="translate(742.55 1493.75) rotate(-80)"/><path class="cls-2" d="M1262.41,304.59a1.07,1.07,0,1,1-.87-1.24,1.07,1.07,0,0,1,.87,1.24m3,0.52a4.07,4.07,0,1,0-4.71,3.3,4.07,4.07,0,0,0,4.71-3.3h0Z"/><circle class="cls-4" cx="1257.44" cy="315.2" r="2.57" transform="matrix(0.5, -0.87, 0.87, 0.5, 355.75, 1246.57)"/><path class="cls-2" d="M1258.36,315.73a1.07,1.07,0,1,1-.39-1.46,1.07,1.07,0,0,1,.39,1.46m2.6,1.5a4.07,4.07,0,1,0-5.56,1.49,4.07,4.07,0,0,0,5.56-1.49h0Z"/><circle class="cls-4" cx="1250.06" cy="324" r="2.57" transform="translate(84.2 879.32) rotate(-40)"/><path class="cls-2" d="M1250.74,324.81a1.07,1.07,0,1,1,.13-1.5,1.07,1.07,0,0,1-.13,1.5m1.93,2.3a4.07,4.07,0,1,0-5.73-.5,4.07,4.07,0,0,0,5.73.5h0Z"/><circle class="cls-4" cx="1240.11" cy="329.74" r="2.57" transform="translate(-37.99 444.03) rotate(-20)"/><path class="cls-2" d="M1240.47,330.74a1.07,1.07,0,1,1,.64-1.37,1.07,1.07,0,0,1-.64,1.37m1,2.82a4.07,4.07,0,1,0-5.21-2.43,4.07,4.07,0,0,0,5.21,2.43h0Z"/><circle class="cls-4" cx="1228.8" cy="331.73" r="2.57"/><path class="cls-2" d="M1228.8,332.8a1.07,1.07,0,1,1,1.07-1.07,1.07,1.07,0,0,1-1.07,1.07m0,3a4.07,4.07,0,1,0-4.07-4.07,4.07,4.07,0,0,0,4.07,4.07h0Z"/><circle class="cls-4" cx="1217.49" cy="329.74" r="2.57" transform="translate(491.23 1361.03) rotate(-70)"/><path class="cls-2" d="M1217.13,330.74a1.07,1.07,0,1,1,1.37-.64,1.07,1.07,0,0,1-1.37.64m-1,2.82a4.07,4.07,0,1,0-2.43-5.21,4.07,4.07,0,0,0,2.43,5.21h0Z"/><circle class="cls-4" cx="1207.55" cy="324" r="2.57" transform="translate(183.15 1040.77) rotate(-50)"/><path class="cls-2" d="M1206.86,324.81a1.07,1.07,0,1,1,1.5-.13,1.07,1.07,0,0,1-1.5.13m-1.93,2.3a4.07,4.07,0,1,0-.5-5.73,4.07,4.07,0,0,0,.5,5.73h0Z"/><circle class="cls-4" cx="1200.16" cy="315.2" r="2.57" transform="translate(3.19 642.31) rotate(-30)"/><path class="cls-2" d="M1199.24,315.73a1.07,1.07,0,1,1,1.46.39,1.07,1.07,0,0,1-1.46-.39m-2.6,1.5a4.07,4.07,0,1,0,1.49-5.56,4.07,4.07,0,0,0-1.49,5.56h0Z"/><circle class="cls-4" cx="1196.24" cy="304.41" r="2.57" transform="translate(-34.69 212.35) rotate(-10)"/><path class="cls-2" d="M1195.19,304.59a1.07,1.07,0,1,1,1.24.86,1.07,1.07,0,0,1-1.24-.86m-3,.52a4.07,4.07,0,1,0,3.3-4.71,4.07,4.07,0,0,0-3.3,4.71h0Z"/><circle class="cls-4" cx="1196.24" cy="292.92" r="2.57" transform="translate(700.04 1420.12) rotate(-80)"/><path class="cls-2" d="M1195.19,292.74a1.07,1.07,0,1,1,.87,1.24,1.07,1.07,0,0,1-.87-1.24m-3-.52a4.07,4.07,0,1,0,4.71-3.3,4.07,4.07,0,0,0-4.71,3.3h0Z"/><circle class="cls-4" cx="1200.16" cy="282.13" r="2.57" transform="translate(355.75 1180.44) rotate(-60)"/><path class="cls-2" d="M1199.24,281.6a1.07,1.07,0,1,1,.39,1.46,1.07,1.07,0,0,1-.39-1.46m-2.6-1.5a4.07,4.07,0,1,0,5.56-1.49,4.07,4.07,0,0,0-5.56,1.49h0Z"/><circle class="cls-4" cx="1207.54" cy="273.34" r="2.57" transform="translate(106.81 840.14) rotate(-40)"/><path class="cls-2" d="M1206.86,272.52a1.07,1.07,0,1,1-.13,1.5,1.07,1.07,0,0,1,.13-1.5m-1.93-2.3a4.07,4.07,0,1,0,5.73.5,4.07,4.07,0,0,0-5.73-.5h0Z"/><circle class="cls-4" cx="1217.49" cy="267.59" r="2.57" transform="translate(-18.1 432.54) rotate(-20)"/><path class="cls-2" d="M1217.13,266.59a1.07,1.07,0,1,1-.64,1.37,1.07,1.07,0,0,1,.64-1.37m-1-2.82a4.07,4.07,0,1,0,5.21,2.43,4.07,4.07,0,0,0-5.21-2.43h0Z"/><circle class="cls-4" cx="1228.8" cy="265.6" r="2.57"/><path class="cls-2" d="M1228.8,264.53a1.07,1.07,0,1,1-1.07,1.07,1.07,1.07,0,0,1,1.07-1.07m0-3a4.07,4.07,0,1,0,4.07,4.07,4.07,4.07,0,0,0-4.07-4.07h0Z"/><polygon class="cls-3" points="1232 155.73 1225.6 155.73 1224.53 266.67 1233.07 266.67 1232 155.73"/><path class="cls-2" d="M1233.07,268.17h-8.53a1.5,1.5,0,0,1-1.5-1.51l1.07-110.93a1.5,1.5,0,0,1,1.5-1.49h6.4a1.5,1.5,0,0,1,1.5,1.49l1.07,110.93A1.5,1.5,0,0,1,1233.07,268.17Zm-7-3h5.5l-1-107.93h-3.43Z"/><circle class="cls-4" cx="1228.8" cy="298.67" r="32"/><path class="cls-2" d="M1228.8,332.17a33.5,33.5,0,1,1,33.5-33.5A33.54,33.54,0,0,1,1228.8,332.17Zm0-64a30.5,30.5,0,1,0,30.5,30.5A30.53,30.53,0,0,0,1228.8,268.17Z"/><rect class="cls-3" x="1222.4" y="309.33" width="12.8" height="4.27"/><path class="cls-2" d="M1235.2,315.1h-12.8a1.5,1.5,0,0,1-1.5-1.5v-4.27a1.5,1.5,0,0,1,1.5-1.5h12.8a1.5,1.5,0,0,1,1.5,1.5v4.27A1.5,1.5,0,0,1,1235.2,315.1Zm-11.3-3h9.8v-1.27h-9.8v1.27Z"/><path class="cls-1" d="M1232,155.73h-6.4c0-3.44-3.2-6.76-3.2-8.53s2.13-4.21,2.13-6.4-3.2-4.27-3.2-4.27c0-6.22,4.5-5.57,7.47-8.53,2.81,2.81,7.47,2.07,7.47,8.53,0,0-3.2,2.25-3.2,4.27s2.13,4.74,2.13,6.4S1232,152.59,1232,155.73Z"/><path class="cls-2" d="M1232,157.23h-6.4a1.5,1.5,0,0,1-1.5-1.5c0-1.61-1-3.34-1.8-4.87a8.31,8.31,0,0,1-1.4-3.66,8.54,8.54,0,0,1,1.13-3.53,7.79,7.79,0,0,0,1-2.87c0-.93-1.5-2.35-2.52-3a1.51,1.51,0,0,1-.68-1.26c0-5.12,2.84-6.59,5.12-7.77a10.74,10.74,0,0,0,2.79-1.83,1.5,1.5,0,0,1,2.12,0,9.66,9.66,0,0,0,2.65,1.68c2.34,1.15,5.25,2.59,5.25,7.92a1.5,1.5,0,0,1-.64,1.23c-1.21.86-2.56,2.32-2.56,3a8.73,8.73,0,0,0,1,2.86,8.94,8.94,0,0,1,1.13,3.54,8.83,8.83,0,0,1-1.4,3.7c-0.8,1.51-1.8,3.38-1.8,4.83A1.5,1.5,0,0,1,1232,157.23Zm-5.05-3h3.72a19,19,0,0,1,2-4.74,10.88,10.88,0,0,0,1-2.3,8.35,8.35,0,0,0-.85-2.26,10.27,10.27,0,0,1-1.29-4.14c0-2.12,2-4.06,3.18-5-0.19-2.84-1.56-3.52-3.56-4.5a16.75,16.75,0,0,1-2.38-1.34,17.68,17.68,0,0,1-2.48,1.47c-2,1-3.28,1.7-3.47,4.35,1.14,0.88,3.17,2.78,3.17,5a9.91,9.91,0,0,1-1.3,4.18,7.2,7.2,0,0,0-.83,2.22,9.28,9.28,0,0,0,1,2.21A17,17,0,0,1,1226.95,154.23Z"/><polygon class="cls-1" points="58.32 69.55 58.32 355.9 221.81 330.63 221.81 58.82 58.32 69.55"/><path class="cls-2" d="M58.32,357.4a1.5,1.5,0,0,1-1.5-1.5V69.55a1.5,1.5,0,0,1,1.4-1.5L221.71,57.32a1.52,1.52,0,0,1,1.12.4,1.5,1.5,0,0,1,.47,1.09V330.63a1.5,1.5,0,0,1-1.27,1.48L58.55,357.38ZM59.82,71v283.2l160.49-24.81V60.42Z"/></svg>