<svg id="Floor" xmlns="http://www.w3.org/2000/svg" xmlns:xlink="http://www.w3.org/1999/xlink" viewBox="0 0 1792 768"><defs><style>.cls-1{fill:none;}.cls-2{fill:#d6cf90;}.cls-3,.cls-8{fill:#24265b;}.cls-4{fill:#00ccb4;}.cls-5{fill:#a8a887;}.cls-6{fill:#fff;}.cls-7{fill:#94809e;}.cls-8{opacity:0.2;}.cls-9{clip-path:url(#clip-path);}.cls-10{clip-path:url(#clip-path-2);}.cls-11{fill:#a9cf8a;}.cls-12{clip-path:url(#clip-path-3);}</style><clipPath id="clip-path"><rect class="cls-1" x="-1854" y="-2" width="1796" height="654.28"/></clipPath><clipPath id="clip-path-2"><rect class="cls-1" x="-258.26" y="89.87" width="691.44" height="437.64" transform="translate(174.92 617.37) rotate(-180)"/></clipPath><clipPath id="clip-path-3"><rect class="cls-1" x="122.47" y="387.46" width="262.57" height="140.04" transform="translate(507.51 914.97) rotate(-180)"/></clipPath></defs><title>location</title><rect class="cls-2" x="-2" y="512" width="1796" height="258"/><path class="cls-3" d="M1794,771.5H-2A1.5,1.5,0,0,1-3.5,770V512A1.5,1.5,0,0,1-2,510.5H1794a1.5,1.5,0,0,1,1.5,1.5V770A1.5,1.5,0,0,1,1794,771.5Zm-1794.5-3h1793v-255H-0.5v255Z"/><path class="cls-4" d="M1794,512l-400.62,14.71-979,9.72L-2,500.15V284.25s219-18.87,386.5-32.12c41.78-3.3,203.94-16.83,518-16.83s411.48,10.46,505,16.83c153.5,10.45,386.5,37,386.5,37V512Z"/><path class="cls-3" d="M414.33,537.93H414.2L-2.13,501.64a1.5,1.5,0,0,1-1.37-1.49V284.25a1.5,1.5,0,0,1,1.37-1.49c2.19-.19,220.92-19,386.51-32.12l3.33-.27c138.33-11,311.54-16.57,514.82-16.57,274.45,0,382.33,7.9,469,14.25,12.47,0.91,24.24,1.78,36.06,2.58,151.78,10.33,384.24,36.75,386.57,37a1.5,1.5,0,0,1,1.33,1.49V512a1.5,1.5,0,0,1-1.45,1.5L1393.43,528.2l-979.09,9.72h0ZM-0.5,498.77l414.89,36.16,979-9.72,399.14-14.65V290.48c-19.2-2.17-239.37-26.93-385.1-36.85-11.82-.8-23.6-1.67-36.07-2.58-86.63-6.35-194.45-14.24-468.79-14.24-203.2,0-376.33,5.57-514.58,16.56l-3.34.27C225.91,266.17,18.38,284-.5,285.62V498.77ZM1794,512h0Z"/><path class="cls-3" d="M485,368.2a11.36,11.36,0,0,1-2.87-.37,0.75,0.75,0,1,1,.37-1.45,12,12,0,0,0,5.51,0,13.64,13.64,0,0,1,6.2,0,0.75,0.75,0,0,1-.37,1.45,12.21,12.21,0,0,0-5.58,0A18.94,18.94,0,0,1,485,368.2Z"/><path class="cls-3" d="M503.58,337.37a11.36,11.36,0,0,1-2.87-.37,0.75,0.75,0,1,1,.37-1.45,12,12,0,0,0,5.51,0,13.65,13.65,0,0,1,6.2,0,0.75,0.75,0,0,1-.37,1.45,12.21,12.21,0,0,0-5.58,0A18.94,18.94,0,0,1,503.58,337.37Z"/><path class="cls-3" d="M546.67,315.12a11.36,11.36,0,0,1-2.86-.37,0.75,0.75,0,1,1,.37-1.45,12,12,0,0,0,5.51,0,13.62,13.62,0,0,1,6.2,0,0.75,0.75,0,0,1-.37,1.45,12.2,12.2,0,0,0-5.58,0A19,19,0,0,1,546.67,315.12Z"/><path class="cls-3" d="M424.57,374.38a25.82,25.82,0,0,1-4.45-.48,17,17,0,0,0-7.79,0,0.75,0.75,0,0,1-.37-1.45,18.52,18.52,0,0,1,8.41,0,16.77,16.77,0,0,0,7.7,0,0.75,0.75,0,1,1,.37,1.45A15.35,15.35,0,0,1,424.57,374.38Z"/><path class="cls-5" d="M457.62,369.11c-2.23.78-5.68,0-5.68,0v-69h5.68v69Z"/><path class="cls-3" d="M455.13,371a17.28,17.28,0,0,1-3.52-.39,1.5,1.5,0,0,1-1.17-1.46v-69a1.5,1.5,0,0,1,1.5-1.5h5.68a1.5,1.5,0,0,1,1.5,1.5v69a1.5,1.5,0,0,1-1,1.42A9.21,9.21,0,0,1,455.13,371Zm2.49-1.85h0Zm-4.18-1.27a11.9,11.9,0,0,0,2.68.07V301.59h-2.68v66.25Z"/><path class="cls-5" d="M510.07,339.11a5.79,5.79,0,0,0-4.26,0v-69h4.26v69Z"/><path class="cls-3" d="M510.07,340.36a1.25,1.25,0,0,1-.55-0.13,4.56,4.56,0,0,0-3.24,0,1.25,1.25,0,0,1-1.73-1.16v-69a1.25,1.25,0,0,1,1.25-1.25h4.26a1.25,1.25,0,0,1,1.25,1.25v69A1.25,1.25,0,0,1,510.07,340.36Zm-3-69v66.16a7.11,7.11,0,0,1,1.76,0V271.35h-1.76Z"/><path class="cls-5" d="M548.15,311.7a5.09,5.09,0,0,1-2.84,0v-37h2.84v37Z"/><path class="cls-3" d="M546.78,312.65a6,6,0,0,1-1.71-.24,0.75,0.75,0,0,1-.52-0.71v-37a0.75,0.75,0,0,1,.75-0.75h2.84a0.75,0.75,0,0,1,.75.75v37a0.75,0.75,0,0,1-.52.71A5.15,5.15,0,0,1,546.78,312.65Zm1.37-1h0Zm-2.09-.6a4.46,4.46,0,0,0,1.34,0V275.48h-1.34V311.1Z"/><rect class="cls-5" x="568.28" y="262.18" width="2.84" height="36.97"/><path class="cls-3" d="M571.12,299.9h-2.84a0.75,0.75,0,0,1-.75-0.75v-37a0.75,0.75,0,0,1,.75-0.75h2.84a0.75,0.75,0,0,1,.75.75v37A0.75,0.75,0,0,1,571.12,299.9ZM569,298.4h1.34V262.93H569V298.4Z"/><path class="cls-5" d="M446.88,291.57l-11.29,77.54c-4.68-2-9.25,2.73-14.26,0l12.75-77.54h12.8Z"/><path class="cls-3" d="M424.8,371.48a8.52,8.52,0,0,1-4.19-1.06,1.5,1.5,0,0,1-.76-1.56l12.75-77.54a1.5,1.5,0,0,1,1.48-1.26h12.8a1.5,1.5,0,0,1,1.48,1.72l-11.29,77.54a1.5,1.5,0,0,1-2.08,1.16c-1.74-.74-3.55-0.29-5.64.25A18.48,18.48,0,0,1,424.8,371.48ZM423,368.2c1.8,0.59,3.59.14,5.62-.38a14.19,14.19,0,0,1,5.74-.62l10.8-74.14h-9.79Z"/><path class="cls-5" d="M500.43,278.24L491.73,338c-4.77,1.15-7-1.33-11,0l9.82-59.72h9.86Z"/><path class="cls-3" d="M489.15,339.78a18,18,0,0,1-3.46-.4,8.07,8.07,0,0,0-4.47,0,1.5,1.5,0,0,1-2-1.67L489.09,278a1.5,1.5,0,0,1,1.48-1.26h9.86a1.5,1.5,0,0,1,1.48,1.72l-8.7,59.72a1.5,1.5,0,0,1-1.13,1.24A12.42,12.42,0,0,1,489.15,339.78Zm-5.95-3.72a16.11,16.11,0,0,1,3,.37,12.06,12.06,0,0,0,4.15.27l8.29-57h-6.85l-9.27,56.34Z"/><polygon class="cls-5" points="540.02 269.08 533.96 310.74 526.3 310.74 533.15 269.08 540.02 269.08"/><path class="cls-3" d="M534,312.24H526.3a1.5,1.5,0,0,1-1.48-1.74l6.85-41.66a1.5,1.5,0,0,1,1.48-1.26H540a1.5,1.5,0,0,1,1.48,1.72L535.44,311A1.5,1.5,0,0,1,534,312.24Zm-5.89-3h4.6l5.63-38.66h-3.87Z"/><polygon class="cls-5" points="565.82 266.24 561.16 298.24 555.28 298.24 560.54 266.24 565.82 266.24"/><path class="cls-3" d="M561.16,299.74h-5.88A1.5,1.5,0,0,1,553.8,298l5.26-32a1.5,1.5,0,0,1,1.48-1.26h5.28a1.5,1.5,0,0,1,1.48,1.72l-4.66,32A1.5,1.5,0,0,1,561.16,299.74Zm-4.12-3h2.82l4.22-29h-2.27Z"/><path class="cls-5" d="M389.24,307l14.21,97.56c5.68,2.53,10.89-2.53,17.94,0l-16-97.56h-16.1Z"/><path class="cls-3" d="M407,406.75a10.05,10.05,0,0,1-4.16-.86,1.5,1.5,0,0,1-.87-1.15l-14.21-97.56a1.5,1.5,0,0,1,1.48-1.72h16.1a1.5,1.5,0,0,1,1.48,1.26l16,97.56a1.5,1.5,0,0,1-2,1.66c-3.19-1.14-5.92-.54-8.82.09A23.73,23.73,0,0,1,407,406.75Zm-2.2-3.32c2.09,0.65,4.21.19,6.62-.34a20.52,20.52,0,0,1,8.11-.6l-15.47-94H391Z"/><path class="cls-5" d="M462.67,291.57L474,369.11c4.78-1.69,9.52,2.42,14.26,0l-12.75-77.54h-12.8Z"/><path class="cls-3" d="M484.82,371.39a20.85,20.85,0,0,1-4.45-.63c-2.09-.46-4.06-0.89-5.91-0.23a1.5,1.5,0,0,1-2-1.2l-11.29-77.54a1.5,1.5,0,0,1,1.48-1.72h12.8a1.5,1.5,0,0,1,1.48,1.26l12.75,77.54a1.5,1.5,0,0,1-.8,1.58A8.79,8.79,0,0,1,484.82,371.39Zm-8.28-4.2a21,21,0,0,1,4.47.63c2,0.44,3.82.83,5.53,0.34l-12.35-75.1H464.4l10.81,74.21A10.09,10.09,0,0,1,476.54,367.19Z"/><path class="cls-5" d="M515.46,278.24l8.7,59.72c3.18,0.95,7.86-2.12,11,0l-9.82-59.72h-9.86Z"/><path class="cls-3" d="M525.58,339.65a6.43,6.43,0,0,1-1.85-.25,1.5,1.5,0,0,1-1.06-1.22L514,278.46a1.5,1.5,0,0,1,1.48-1.72h9.86a1.5,1.5,0,0,1,1.48,1.26l9.82,59.72a1.5,1.5,0,0,1-2.32,1.48c-1.25-.85-3.13-0.46-5.12,0A18.18,18.18,0,0,1,525.58,339.65Zm-0.1-3a15.38,15.38,0,0,0,3.09-.44,15.29,15.29,0,0,1,4.68-.47l-9.21-56h-6.85Z"/><path class="cls-5" d="M553.43,269.08l6.07,41.66c2.92,1.09,5.45-.47,7.66,0l-6.85-41.66h-6.88Z"/><path class="cls-3" d="M561.77,312.64a7.9,7.9,0,0,1-2.8-.49,1.5,1.5,0,0,1-1-1.19l-6.07-41.66a1.5,1.5,0,0,1,1.48-1.72h6.88a1.5,1.5,0,0,1,1.48,1.26l6.85,41.66a1.5,1.5,0,0,1-1.79,1.71,7.06,7.06,0,0,0-2.41.15A16,16,0,0,1,561.77,312.64Zm-0.94-3.08a9.17,9.17,0,0,0,3.1-.16c0.47-.08,1-0.16,1.44-0.2L559,270.58h-3.87Z"/><path class="cls-5" d="M573.58,266.24l4.66,32c2.18,0.75,3.76,0,5.88,0l-5.26-32h-5.28Z"/><path class="cls-3" d="M580.26,300.07a7.56,7.56,0,0,1-2.51-.42,1.5,1.5,0,0,1-1-1.2l-4.66-32a1.5,1.5,0,0,1,1.48-1.72h5.28a1.5,1.5,0,0,1,1.48,1.26l5.26,32a1.5,1.5,0,0,1-1.48,1.74,13.76,13.76,0,0,0-1.84.16A15,15,0,0,1,580.26,300.07Zm-0.68-3a8.4,8.4,0,0,0,2.31-.1l0.49-.06-4.79-29.12h-2.27Z"/><path class="cls-6" d="M1794,533.06s-28.49,13.21-67.94,3c-13.06-3.39-21.06,12.2-32,1.35-2.11-2.09-6,1-9,.37-25-5.11-66,10.48-95.08,3.77-10.06-2.32-21.23-2.25-31,1.14-16,5.57-36-5-51,1.74-27.95,12.52-54.95-1.45-80,2.14-35.49,5.1-59.86.54-62.48-.95-11.54-6.55-160.95-9.79-186.3,0s-60-6.46-79.23,0-42.86,2-64.22,8.46-117.37,0-117.37,0-74.47-8-81.43,0S637,533.52,626.86,545.61s-104.38-5-115.11,0-11.38-5-24.63,0-34.1-8-49.25,0c-4.61,2.44-47.06.44-103.93-3.53-21.9-1.53-46.44-10.62-70.79-5.32-28.15,6.13-33.64-6.37-50.46-4.11C179,537.18,169,521.78,146.92,527c-34.69,8.26-68.27-10.6-94-8.37C17,521.78-2,521.78-2,521.78V486.64s21,10.48,61,3.76c17.31-2.91,42,9.82,65,5.53,15.56-2.9,14.08,7.52,30.67,2.57,11.81-3.52,38.53,9.86,51.33,7,14-3.12,25.88.51,37.76-1,7.12-.89,14.38.78,21.34-0.5,18.43-3.41,27.67,5.79,45.9,10.17,11.34,2.72,32.66-.77,42,2.94,17.09,6.79,88.76,1.24,90.54,3.41,6.12,7.47,32.84-6.74,42.31,0s69.46-9.37,72.91,0,194.08-6.74,199.2,0,158.92,0.11,173.9,8.46,169.91-18.46,168.11-8.46,40.15,6.43,44,0,97.23-5.29,103.17,0,29.25-6.84,36.89,0,61.26-6.74,73.88,0c2.81,1.5,28.07-10.78,60.12-.17,4.25,1.41,9.36-2,14-.59,23,7.25,46-10.55,77.31-4,6,1.27,5.66-6.6,18.64-1.06,3,1.3,6.78-1.58,10-.58,24.05,7.59,55.56-11.73,81.61-5,30.44,7.9,67.68-19.26,91.11-5.9,10.34,5.9,20.07-4.79,28.27-1.89,30.07,10.63,55.07-3.76,55.07-3.76v35.37Z"/><path class="cls-3" d="M995.61,558.45c-33.8,0-74.73-2.71-77.32-2.89-28.55-3.08-75.5-5.94-80.19-.52-3.13,3.62-24.11,2.29-89.87-3.82-27.72-2.58-56.39-5.24-79.18-6.47-32.9-1.76-39.84.38-41,1.82-6.09,7.25-34.33,5.36-73.57,1.9-19.58-1.73-38.09-3.36-42.06-1.5-5.82,2.72-9.12,1.4-12.32.13s-6.17-2.45-12.42-.09c-6.41,2.43-14.13,1-22.3-.6-9.32-1.78-19-3.61-26.77.53-2.83,1.5-16.76,2.78-104.73-3.36a219.14,219.14,0,0,1-22.66-3.22c-15.59-2.76-31.7-5.61-47.71-2.13-16.85,3.67-25.8.81-33.7-1.72-5.49-1.75-10.22-3.27-16.88-2.37-18,2.42-29.27-.73-39.23-3.51-8.73-2.43-16.27-4.54-26.38-2.13-20.68,4.92-41.13.33-59.18-3.72-12.66-2.84-24.61-5.53-35-4.62-35.6,3.09-54.89,3.12-55.08,3.12a1.5,1.5,0,0,1-1.5-1.5V486.64a1.5,1.5,0,0,1,.71-1.28,1.5,1.5,0,0,1,1.46-.07c0.2,0.1,21.12,10.17,60.06,3.62,8.21-1.38,17.89.61,28.14,2.72,12.13,2.5,24.68,5.08,36.86,2.81,7.8-1.46,11.74.32,15.22,1.88,3.79,1.71,7.07,3.18,15.29.72,6.4-1.91,16.2.65,26.57,3.36,9.3,2.43,18.92,4.94,24.86,3.62,8.23-1.83,15.63-1.4,22.79-1a82.41,82.41,0,0,0,15.11,0,61.26,61.26,0,0,1,10.22-.15,49.2,49.2,0,0,0,11-.34c12.58-2.32,20.89,1,30.52,4.79a113.62,113.62,0,0,0,16,5.4c5.07,1.22,12.48,1.15,19.64,1.07,8.89-.08,17.28-0.17,22.56,1.93,10.7,4.26,44.57,3.51,67,3,20.7-.46,23.18-0.37,24.16.83,2.49,3,10.61,1.37,18.47-.25,9-1.85,18.29-3.77,23.55,0,4,2.85,20.46.84,35-.93,22.31-2.72,36.15-4.11,38.42,1.51,0.9,0.79,6.33,2.48,36.51,2.09,20.59-.27,47-1.37,72.46-2.44,62-2.59,87.49-3.31,90.06.08,3.17,2.61,43.38,2.83,75.69,3,44,0.23,89.53.48,97.75,5.05,7.1,4,51.14-.85,90-5.09,51.66-5.64,74.67-7.71,78.24-3.88a2.38,2.38,0,0,1,.63,2.09c-0.08.42-.31,1.71,2.86,2.9,10.5,3.94,36.09-.11,38.39-3.94,0.6-1,2.1-2.17,8.61-3.16,22.58-3.45,91.22-2.2,96.85,2.81,2.22,2,8.76.65,15.08-.64,8.45-1.72,17.19-3.5,21.82.64,3.27,2.93,19.21,1.23,33.26-.27,16.4-1.75,33.36-3.56,40.23,0a30.56,30.56,0,0,0,5.36-1c9.86-2.34,30.38-7.21,54.62.81,1.71,0.57,3.78.13,6-.34,2.59-.55,5.27-1.12,8-0.26,10.84,3.42,22,1,33.89-1.58,12.63-2.74,26.93-5.85,43.27-2.41,1.69,0.36,2.63-.21,4.06-1.07,2.7-1.63,6.07-3.65,14.86.1,1.11,0.47,2.58.1,4.15-.3,1.75-.44,3.74-0.95,5.68-0.33,11.74,3.7,25.29.8,39.63-2.28,14.08-3,28.64-6.15,41.9-2.7,14.06,3.65,29.75-.42,44.93-4.35,17.33-4.49,33.7-8.73,46.54-1.4,5.23,3,10.44,1.19,15.47-.54,4.17-1.43,8.47-2.91,12.55-1.46,29,10.27,53.58-3.51,53.82-3.65a1.5,1.5,0,0,1,2.25,1.3v35.37a1.5,1.5,0,0,1-.87,1.36c-1.18.55-29.43,13.32-68.95,3.07-5.15-1.33-9.54.62-13.79,2.51-5.88,2.62-12,5.33-18.91-1.54-0.55-.55-1.67-0.28-3.46.22a10.39,10.39,0,0,1-4.79.56c-11.56-2.36-26.68-.2-42.68,2.09-18.11,2.59-36.83,5.27-52.44,1.67-10.46-2.42-21.16-2-30.12,1.09-8.06,2.81-17,1.69-25.66.61-9.18-1.15-17.86-2.23-25.27,1.09-17.32,7.76-34.1,5.59-50.33,3.5-10.48-1.35-20.37-2.63-30-1.24-36.24,5.2-60.5.53-63.43-1.13-5.11-2.9-43.43-5.51-87.24-5.93-38.76-.37-84.79,1-97.78,6-14.23,5.49-31.44,3-46.63.76-12.48-1.82-24.28-3.55-32.67-.74-9.87,3.31-20.56,3.79-31.88,4.31-10.78.49-21.93,1-32.39,4.16C1028.88,557.71,1013.2,558.45,995.61,558.45ZM861,549c5.27,0,11.65.17,19.4,0.57,19.31,1,38,3,38.19,3,0.9,0.06,95.92,6.36,116.77.06,10.81-3.27,22.15-3.78,33.12-4.28s21.58-1,31.06-4.16c9.07-3,21.21-1.26,34.06.61,15.55,2.27,31.62,4.62,45.11-.59,24.8-9.58,174.79-7.18,187.58.1,2.29,1.3,26.57,5.79,61.52.77,10.06-1.44,20.15-.14,30.84,1.24,15.82,2,32.18,4.15,48.72-3.26,8.18-3.66,17.68-2.48,26.87-1.33,8.31,1,16.9,2.11,24.3-.46,9.49-3.31,20.78-3.73,31.78-1.18,15.06,3.48,33.51.84,51.34-1.71,16.27-2.33,31.63-4.53,43.7-2.06a8.18,8.18,0,0,0,3.38-.51c2-.57,4.55-1.28,6.38.54,5.49,5.43,9.94,3.45,15.58.94,4.5-2,9.6-4.27,15.77-2.67,34.66,9,61-.48,66.06-2.52V500.14a72,72,0,0,1-54.07,2.72c-3.09-1.09-6.73.15-10.58,1.47-5.4,1.86-11.53,4-17.93.3-11.79-6.73-27.58-2.64-44.3,1.7-15.55,4-31.63,8.19-46.44,4.35-12.58-3.26-26.78-.21-40.52,2.73-14.09,3-28.66,6.15-41.16,2.21a7.94,7.94,0,0,0-4,.38c-1.89.48-4,1-6.06,0.15-7.38-3.15-9.8-1.7-12.13-.29-1.58,1-3.38,2-6.23,1.44-15.71-3.31-29.08-.4-42,2.4-12.25,2.66-23.83,5.18-35.43,1.51-2-.62-4.15-0.16-6.46.33-2.49.53-5.06,1.07-7.54,0.25-23.43-7.76-43.39-3-53-.74-4.22,1-6.15,1.46-7.37.81-6-3.2-23.31-1.35-38.6.28-16.8,1.79-31.32,3.34-35.58-.48-3.5-3.14-11.85-1.44-19.22.06-7.69,1.57-14.33,2.92-17.67-.06-2-1.77-21.93-3.81-50.67-4-30.3-.2-48.52,1.75-50.25,3.7-2.47,4.13-14.8,5.87-18.51,6.31-7.53.88-17.65,1-23.47-1.14-4.45-1.67-5-4.28-4.81-5.89-4.37-2.81-43.78,1.49-75.54,5-50.64,5.53-84.39,8.84-91.77,4.73-7.54-4.2-54.7-4.45-96.3-4.67-52.94-.28-75-0.73-78-4.09-3.94-2.49-50.33-.55-87.63,1-26.2,1.1-53.29,2.23-74.14,2.46-33.31.37-36.9-1.75-37.72-4-1.41-3.82-21.8-1.33-35.29.31-16.52,2-32.13,3.92-37.08.39-4.2-3-13.23-1.12-21.21.52-8.94,1.84-17.39,3.58-21.16-.52-2-.45-12.15-0.22-22,0-24,.53-56.89,1.25-68.16-3.23-4.74-1.88-13.22-1.8-21.42-1.72-7.35.07-14.94,0.15-20.37-1.16a116,116,0,0,1-16.41-5.52c-9.19-3.65-17.13-6.8-28.87-4.63a52.09,52.09,0,0,1-11.7.39,59.15,59.15,0,0,0-9.73.13,84.68,84.68,0,0,1-15.66,0c-7-.41-14.15-0.83-22,0.91-6.65,1.48-16.63-1.13-26.27-3.65s-19.36-5.06-25-3.39c-9.29,2.77-13.41.93-17.38-.86-3.38-1.52-6.56-3-13.44-1.67-12.76,2.38-26.17-.39-38-2.82-10-2.05-19.38-4-27-2.7-33.24,5.59-53.37-.5-59.73-3v31.36c5.15-.07,23.46-0.51,53.32-3.1,10.86-.94,23,1.79,35.93,4.68,17.73,4,37.83,8.49,57.83,3.73,10.87-2.59,18.75-.39,27.88,2.15,9.68,2.7,20.66,5.76,38,3.43,7.32-1,12.6.7,18.19,2.49,7.54,2.41,16.09,5.14,32.15,1.64,16.58-3.61,33-.7,48.87,2.1A217,217,0,0,0,334,540.59c84.65,5.91,100.94,4.85,103.12,3.7,8.74-4.64,18.91-2.7,28.74-.82,7.75,1.48,15.06,2.87,20.68.75,7.34-2.78,11.19-1.25,14.59.11,3,1.18,5.29,2.11,9.94-.06,4.47-2.09,19.48-.89,43.59,1.23,27.63,2.44,65.46,5.77,71-.84s52.31-3,122.79,3.59c39.24,3.65,83.71,7.78,87.36,4.82C837.46,551.2,842,549,861,549Zm933-15.92h0ZM442.79,521.81h0Zm314-.36h0Zm601.73-2.29h0Z"/><path class="cls-3" d="M516,503.28c-5.44,0-11-1.34-17-2.8-3.08-.75-6.26-1.52-9.63-2.16l-0.67-.13c-15.65-3-26-4.93-46.87.12a0.75,0.75,0,1,1-.35-1.46c21.2-5.12,31.66-3.14,47.5-.14l0.67,0.13c3.41,0.65,6.61,1.42,9.71,2.17,9.4,2.28,17.52,4.25,25.89,1.16,11.08-4.09,22.42-5.8,38-5.73a0.75,0.75,0,0,1,0,1.5h0c-15.34-.08-26.56,1.61-37.46,5.64A27.75,27.75,0,0,1,516,503.28Z"/><path class="cls-3" d="M1658.32,469.92c-5.44,0-11-1.34-17-2.8-3.08-.75-6.26-1.52-9.63-2.16l-0.67-.13c-15.65-3-26-4.93-46.87.12a0.75,0.75,0,1,1-.35-1.46c21.2-5.12,31.66-3.14,47.5-.14l0.67,0.13c3.41,0.65,6.61,1.42,9.71,2.17,9.4,2.28,17.52,4.25,25.89,1.16,11.08-4.09,22.46-5.8,38-5.73a0.75,0.75,0,0,1,0,1.5h-0.93c-14.88,0-25.85,1.7-36.54,5.64A27.75,27.75,0,0,1,1658.32,469.92Z"/><path class="cls-3" d="M463.84,464.67a105.42,105.42,0,0,1-18.17-2c-9.89-1.68-20.12-3.42-33.52,0a0.75,0.75,0,0,1-.37-1.45c13.71-3.49,24.09-1.72,34.14,0,10.26,1.75,20,3.39,33.12,0a0.75,0.75,0,1,1,.37,1.45A61.79,61.79,0,0,1,463.84,464.67Z"/><path class="cls-3" d="M409,409.27a37.14,37.14,0,0,1-6.41-.7c-3.55-.6-6.9-1.17-11.47,0a0.75,0.75,0,0,1-.37-1.45c4.87-1.24,8.54-.62,12.09,0s6.85,1.16,11.33,0a0.75,0.75,0,0,1,.37,1.45A22,22,0,0,1,409,409.27Z"/><path class="cls-3" d="M455,374a25.77,25.77,0,0,1-4.45-.48,17,17,0,0,0-7.79,0,0.75,0.75,0,0,1-.37-1.45,18.52,18.52,0,0,1,8.41,0,16.76,16.76,0,0,0,7.7,0,0.75,0.75,0,1,1,.37,1.45A15.35,15.35,0,0,1,455,374Z"/><path class="cls-3" d="M313.5,481.59a19.71,19.71,0,0,1-5-.64,0.75,0.75,0,0,1,.37-1.45c4,1,6.94.52,10.07,0s6.46-1.1,10.82,0a0.75,0.75,0,0,1-.37,1.45c-4.06-1-7-.52-10.2,0A33.25,33.25,0,0,1,313.5,481.59Z"/><path class="cls-3" d="M205.61,492.62a45.47,45.47,0,0,1-7.84-.85c-4.37-.74-8.51-1.45-14.15,0a0.75,0.75,0,0,1-.37-1.45c5.95-1.51,10.43-.75,14.77,0s8.44,1.44,14,0a0.75,0.75,0,0,1,.37,1.45A26.82,26.82,0,0,1,205.61,492.62Z"/><path class="cls-5" d="M264.57,483.8c-4,1.4-10.14,0-10.14,0V360.67h10.14V483.8Z"/><path class="cls-3" d="M260.15,485.92a30.37,30.37,0,0,1-6.05-.66,1.5,1.5,0,0,1-1.17-1.46V360.67a1.5,1.5,0,0,1,1.5-1.5h10.14a1.5,1.5,0,0,1,1.5,1.5V483.8a1.5,1.5,0,0,1-1,1.42A15.2,15.2,0,0,1,260.15,485.92Zm4.42-2.12h0Zm-8.64-1.25a21.38,21.38,0,0,0,7.14.11V362.17h-7.14V482.56Z"/><path class="cls-5" d="M245.41,345.45L225.26,483.8c-8.34-3.57-16.51,4.88-25.44,0l22.76-138.35h22.83Z"/><path class="cls-3" d="M206,486.85a14.1,14.1,0,0,1-6.92-1.73,1.5,1.5,0,0,1-.76-1.56L221.1,345.21a1.5,1.5,0,0,1,1.48-1.26h22.83a1.5,1.5,0,0,1,1.48,1.72L226.75,484a1.5,1.5,0,0,1-2.08,1.16c-3.47-1.49-7-.58-10.83.38A31.8,31.8,0,0,1,206,486.85Zm-4.54-3.91c3.87,1.68,7.65.72,11.63-.29,3.54-.9,7.17-1.82,10.93-0.85L243.68,347H223.85Z"/><path class="cls-5" d="M273.58,345.45L293.73,483.8c8.53-3,17,4.31,25.44,0L296.41,345.45H273.58Z"/><path class="cls-3" d="M313.11,486.7a36.26,36.26,0,0,1-7.69-1.11c-3.9-.85-7.57-1.65-11.19-0.38a1.5,1.5,0,0,1-2-1.2L272.09,345.67a1.5,1.5,0,0,1,1.48-1.72h22.83a1.5,1.5,0,0,1,1.48,1.26l22.76,138.35a1.5,1.5,0,0,1-.8,1.58A14.48,14.48,0,0,1,313.11,486.7Zm-14.78-5.15a36.38,36.38,0,0,1,7.73,1.11c4,0.87,7.76,1.69,11.45.25L295.14,347H275.31L295,481.9A15.84,15.84,0,0,1,298.33,481.55Z"/><path class="cls-3" d="M259.89,492a45.49,45.49,0,0,1-7.84-.85c-4.37-.74-8.51-1.45-14.15,0a0.75,0.75,0,0,1-.37-1.45c5.95-1.51,10.43-.75,14.77,0s8.44,1.44,14,0a0.75,0.75,0,1,1,.37,1.45A26.83,26.83,0,0,1,259.89,492Z"/><path class="cls-3" d="M346.77,409.43a29.11,29.11,0,0,1-5-.55,19.36,19.36,0,0,0-8.86,0,0.75,0.75,0,0,1-.37-1.45,20.88,20.88,0,0,1,9.48,0,19.06,19.06,0,0,0,8.75,0,0.75,0.75,0,1,1,.37,1.45A17.29,17.29,0,0,1,346.77,409.43Z"/><path class="cls-5" d="M384.16,403.56c-2.53.89-6.43,0-6.43,0V325.48h6.43v78.08Z"/><path class="cls-3" d="M381.34,405.46a19.34,19.34,0,0,1-3.94-.43,1.5,1.5,0,0,1-1.17-1.46V325.48a1.5,1.5,0,0,1,1.5-1.5h6.43a1.5,1.5,0,0,1,1.5,1.5v78.08a1.5,1.5,0,0,1-1,1.42A10.21,10.21,0,0,1,381.34,405.46Zm2.82-1.9h0Zm-4.93-1.26a13.48,13.48,0,0,0,3.43.08V327h-3.43V402.3Z"/><path class="cls-5" d="M372,315.83l-12.78,87.73c-5.29-2.27-10.47,3.09-16.13,0l14.43-87.73H372Z"/><path class="cls-3" d="M347,406.05a9.46,9.46,0,0,1-4.64-1.17,1.5,1.5,0,0,1-.76-1.56l14.43-87.73a1.5,1.5,0,0,1,1.48-1.26H372A1.5,1.5,0,0,1,373.5,316l-12.78,87.73a1.5,1.5,0,0,1-2.08,1.16c-2-.87-4.11-0.34-6.51.27A20.72,20.72,0,0,1,347,406.05Zm-2.26-3.38c2.14,0.77,4.24.24,6.63-.37a15.48,15.48,0,0,1,6.61-.67l12.28-84.31H358.81Z"/><path class="cls-3" d="M381.19,409a29.11,29.11,0,0,1-5-.55,19.36,19.36,0,0,0-8.86,0,0.75,0.75,0,0,1-.37-1.45,20.86,20.86,0,0,1,9.48,0,19.06,19.06,0,0,0,8.75,0,0.75,0.75,0,1,1,.37,1.45A17.29,17.29,0,0,1,381.19,409Z"/><path class="cls-3" d="M1101.74,490.4a38.58,38.58,0,0,1-10.31-1.79c-5.71-1.55-11.12-3-18.48,0a0.75,0.75,0,1,1-.56-1.39c7.83-3.18,13.73-1.58,19.44,0s11,3,18.26,0a0.75,0.75,0,1,1,.57,1.39A23.06,23.06,0,0,1,1101.74,490.4Z"/><path class="cls-3" d="M1386.81,453.51a20.72,20.72,0,0,1-7.83-1.83,0.75,0.75,0,1,1,.57-1.39c7.16,2.93,10.2,1.52,13.42,0,3.4-1.59,6.92-3.23,14.82,0a0.75,0.75,0,1,1-.56,1.39c-7.29-3-10.37-1.53-13.62,0A15,15,0,0,1,1386.81,453.51Z"/><path class="cls-3" d="M779.63,514.08a23,23,0,0,1-8.9-1.82,0.75,0.75,0,1,1,.57-1.39c7.23,3,12.58,1.51,18.26,0s11.61-3.15,19.44,0a0.75,0.75,0,1,1-.56,1.39c-7.36-3-12.76-1.52-18.48,0A38.59,38.59,0,0,1,779.63,514.08Z"/><path class="cls-3" d="M997.32,510l-0.18,0c-0.31-.07-31.25-7.45-43.75-5.47a429.59,429.59,0,0,1-47.87,3.63c-18.73.42-44-.35-57.68-6.35-15.56-6.8-65.5-2.27-83.43.06a0.75,0.75,0,1,1-.19-1.49c18-2.34,68.35-6.88,84.22.06,26.26,11.48,95.22,4.12,104.72,2.61,12.78-2,43.05,5.18,44.33,5.49A0.75,0.75,0,0,1,997.32,510Z"/><path class="cls-3" d="M693.62,501.65c-6.06,0-11.86-2.16-17.52-4.26-7.92-2.94-15.39-5.72-23.59-3.2a1.5,1.5,0,0,1-.88-2.87c9.17-2.82,17.48.27,25.52,3.26,7.53,2.8,14.65,5.44,22.16,3.28a1.5,1.5,0,1,1,.83,2.88A23.41,23.41,0,0,1,693.62,501.65Z"/><path class="cls-3" d="M1017.21,484.44a0.75,0.75,0,0,1-.28-1.45c7.58-3,21.54-2.37,36.33-1.71,13.59,0.6,27.63,1.23,38.4-.76,11.35-2.09,19.27-1.2,26.93-.34,7.92,0.89,15.4,1.73,26.33-.57a0.75,0.75,0,1,1,.31,1.47c-11.16,2.35-19.12,1.46-26.81.59s-15.36-1.73-26.49.33c-10.93,2-25.06,1.39-38.74.78-14.62-.65-28.44-1.27-35.71,1.61A0.75,0.75,0,0,1,1017.21,484.44Z"/><path class="cls-3" d="M1375.95,499.53c-5.79,0-11.42-1.9-16.92-3.75-6.7-2.26-13.62-4.59-20.59-3.33a0.75,0.75,0,1,1-.27-1.48c7.35-1.32,14.46,1.07,21.34,3.39,8.14,2.74,15.84,5.34,24,2.38a0.75,0.75,0,0,1,.51,1.41A23.45,23.45,0,0,1,1375.95,499.53Z"/><path class="cls-3" d="M926.54,497.86a152.79,152.79,0,0,1-17.29-1.4c-7.34-.87-14.28-1.7-17.77-0.67a0.75,0.75,0,1,1-.42-1.44c3.79-1.11,10.55-.31,18.37.62,9.34,1.11,19.92,2.37,26.44.25a0.75,0.75,0,0,1,.46,1.43A32.51,32.51,0,0,1,926.54,497.86Z"/><ellipse class="cls-4" cx="837.23" cy="538.57" rx="12.27" ry="4.4"/><path class="cls-3" d="M837.23,543.72c-6.31,0-13-1.8-13-5.15s6.71-5.15,13-5.15,13,1.8,13,5.15S843.54,543.72,837.23,543.72Zm0-8.79c-7.14,0-11.52,2.12-11.52,3.65s4.38,3.65,11.52,3.65,11.52-2.12,11.52-3.65S844.37,534.93,837.23,534.93Z"/><path class="cls-3" d="M1022.45,538.92a0.75,0.75,0,0,1-.28-1.45c5.47-2.16,13.58-1.91,22.18-1.65s17.43,0.53,23.09-1.83a0.75,0.75,0,1,1,.58,1.38c-6,2.48-15,2.21-23.71,1.94-8.07-.25-16.4-0.5-21.58,1.54A0.74,0.74,0,0,1,1022.45,538.92Z"/><path class="cls-3" d="M938.21,517.88a53.39,53.39,0,0,1-6.44-.33,0.75,0.75,0,1,1,.19-1.49c19,2.38,81.44-9,91.61-12.54,5.78-2,15.56-.5,25,1,8.59,1.32,16.7,2.57,20.17.88,8.75-4.26,14.87-3.3,20.28-2.45,4.54,0.71,8.46,1.33,13.18-1.19a0.75,0.75,0,1,1,.71,1.32c-5.17,2.76-9.52,2.07-14.12,1.35-5.19-.82-11.07-1.74-19.39,2.31-3.89,1.9-12.23.61-21.06-.75-9.28-1.43-18.88-2.91-24.31-1C1014.77,508.16,962.25,517.88,938.21,517.88Z"/><path class="cls-3" d="M525.2,465.6c-6.49,0-21-.35-25.79-3.32a0.75,0.75,0,0,1,.79-1.27c3.26,2,13.5,3.21,26.7,3.08,12.33-.12,23.65-1.41,27.53-3.13a0.75,0.75,0,1,1,.61,1.37c-4.74,2.1-17.54,3.15-28.12,3.26H525.2Z"/><path class="cls-3" d="M1719,437.84c-6.49,0-21-.35-25.79-3.32a0.75,0.75,0,0,1,.79-1.27c3.26,2,13.49,3.22,26.7,3.08,12.33-.12,23.65-1.41,27.53-3.13a0.75,0.75,0,1,1,.61,1.37c-4.74,2.1-17.54,3.15-28.12,3.26H1719Z"/><path class="cls-4" d="M406.29,643.25c10.74-17.11,50.05-24.14,65.36,0C481.43,658.69,392.71,664.88,406.29,643.25Z"/><path class="cls-3" d="M432.72,658.72c-11.38,0-21.92-1.73-26.59-5.74-3.24-2.78-3.64-6.52-1.12-10.53h0c6-9.55,20.55-16.25,35.4-16.28h0.12c14,0,25.82,5.93,32.38,16.27,1.74,2.75,1.19,5.57-1.56,8C465.49,655.48,448.31,658.72,432.72,658.72Zm7.81-29.55h-0.11c-13.88,0-27.39,6.15-32.87,14.88h0c-1.75,2.79-1.59,4.84.53,6.66,9.77,8.38,52.27,5.25,61.3-2.58,2-1.76,1.64-3,1-4.08C462.18,631.13,448.21,629.17,440.53,629.17Zm-34.24,14.08h0Z"/><path class="cls-3" d="M464.43,654a1.5,1.5,0,0,1-1.18-2.42c2-2.53.87-5.51-.4-7.57-7.13-11.56-26.29-14.66-37.38-12.45a1.5,1.5,0,0,1-.59-2.94c17.6-3.5,34.74,4.44,40.52,13.82,2.5,4.05,2.58,8,.21,11A1.5,1.5,0,0,1,464.43,654Z"/><path class="cls-3" d="M459.08,655.7a1.5,1.5,0,0,1-1.49-1.35c-0.33-3.2-7.29-6.39-17.74-8.12-15.31-2.54-31.58-1-33.47,3.07a1.5,1.5,0,1,1-2.73-1.25c3.16-6.89,23.76-6.93,36.69-4.78,7.27,1.21,19.56,4.21,20.23,10.78a1.5,1.5,0,0,1-1.34,1.64h-0.15Z"/><path class="cls-3" d="M461.72,655a1.5,1.5,0,0,1-1.37-2.1c0.93-2.13.21-4.34-2.15-6.58-8.64-8.19-34.35-12.68-47.83-5.88a1.5,1.5,0,1,1-1.35-2.68c14.69-7.4,41.76-2.6,51.24,6.39,3.28,3.11,4.28,6.65,2.83,10A1.5,1.5,0,0,1,461.72,655Z"/><path class="cls-3" d="M418.24,657.6a1.5,1.5,0,0,1-1.29-.73,2.3,2.3,0,0,1,.32-2.8c2.08-2.36,10.27-3.6,16.66-4,4.35-.24,15.25-0.45,22.52,2.71a1.5,1.5,0,1,1-1.2,2.75c-10.63-4.62-32.6-2.09-35.54.28A1.5,1.5,0,0,1,418.24,657.6Z"/><path class="cls-4" d="M1702.15,643.25c10.74-17.11,50.05-24.14,65.36,0C1777.3,658.69,1688.58,664.88,1702.15,643.25Z"/><path class="cls-3" d="M1728.59,658.72c-11.38,0-21.92-1.73-26.59-5.74-3.24-2.78-3.64-6.52-1.12-10.53h0c6-9.55,20.55-16.25,35.4-16.28h0.12c14,0,25.82,5.93,32.38,16.27,1.74,2.75,1.19,5.57-1.56,8C1761.35,655.48,1744.18,658.72,1728.59,658.72ZM1703.42,644c-1.75,2.79-1.59,4.84.53,6.66,9.77,8.38,52.27,5.25,61.3-2.58,2-1.76,1.64-3,1-4.08-8.2-12.93-22.17-14.88-29.85-14.88h-0.11c-13.88,0-27.39,6.15-32.87,14.88h0Z"/><path class="cls-3" d="M1760.3,654a1.5,1.5,0,0,1-1.18-2.42c2-2.53.87-5.51-.4-7.57-7.13-11.56-26.29-14.66-37.38-12.45a1.5,1.5,0,0,1-.59-2.94c17.6-3.5,34.74,4.44,40.52,13.82,2.5,4.05,2.58,8,.21,11A1.5,1.5,0,0,1,1760.3,654Z"/><path class="cls-3" d="M1754.94,655.7a1.5,1.5,0,0,1-1.49-1.35c-0.33-3.2-7.29-6.39-17.74-8.12-15.31-2.54-31.58-1-33.47,3.07a1.5,1.5,0,0,1-2.73-1.25c3.16-6.89,23.76-6.93,36.69-4.78,7.27,1.21,19.56,4.21,20.23,10.78a1.5,1.5,0,0,1-1.34,1.64h-0.15Z"/><path class="cls-3" d="M1757.58,655a1.5,1.5,0,0,1-1.37-2.1c0.93-2.13.21-4.34-2.15-6.58-8.64-8.19-34.35-12.68-47.83-5.88a1.5,1.5,0,1,1-1.35-2.68c14.69-7.4,41.76-2.6,51.25,6.39,3.28,3.11,4.28,6.65,2.83,10A1.5,1.5,0,0,1,1757.58,655Z"/><path class="cls-3" d="M1714.1,657.6a1.5,1.5,0,0,1-1.29-.73,2.3,2.3,0,0,1,.32-2.8c2.08-2.36,10.27-3.6,16.66-4,4.35-.24,15.25-0.45,22.52,2.71a1.5,1.5,0,1,1-1.2,2.75c-10.63-4.62-32.6-2.09-35.54.28A1.5,1.5,0,0,1,1714.1,657.6Z"/><path class="cls-4" d="M1317.83,683.63c-1.26,0-14.21,2.53-11.81,6.38,2.84,4.56,41.8,11.13,45.91,7.66,3.58-3-3.47-9-6-9.94S1317.83,683.63,1317.83,683.63Z"/><path class="cls-3" d="M1345.82,700.16a112.72,112.72,0,0,1-15.83-1.54c-3.77-.59-22.71-3.76-25.23-7.81a3.13,3.13,0,0,1-.11-3.3c2.11-3.81,12.52-5.38,13.19-5.38H1318c2.64,0.33,25.83,3.21,28.44,4.19,2.36,0.89,7.27,4.87,7.9,8.47a4.15,4.15,0,0,1-1.45,4C1351.74,699.8,1349.07,700.16,1345.82,700.16Zm-28.05-15c-1.75.1-9.51,2-10.5,3.84,0,0.09-.05.1,0,0.25,0.77,1.21,8.45,4.06,22.47,6.32,12.9,2.08,20.16,1.83,21.2,1a1.14,1.14,0,0,0,.44-1.21c-0.39-2.26-4.26-5.53-6-6.18S1327.6,686.35,1317.76,685.14Z"/><path class="cls-4" d="M1327.93,699c-12.61-3.65-25.95-19.4-20.71-27.46s27.34-13.78,46.92-7.13,20.79,23.83,6.89,25.66S1335,701,1327.93,699Z"/><path class="cls-3" d="M1330.17,700.75a9.5,9.5,0,0,1-2.65-.35c-9-2.62-18.9-11.47-22-19.73-1.45-3.88-1.3-7.34.42-10,5.85-9,28.85-14.46,48.66-7.74,12.72,4.32,17.78,12.68,17.15,19-0.5,5.08-4.54,8.73-10.54,9.52-6.3.83-12.32,3.24-17.63,5.38C1338.5,698.93,1334,700.75,1330.17,700.75Zm5.72-37.84c-13,0-24.16,4.39-27.41,9.4-1.5,2.31-.9,5.25-0.13,7.31,2.79,7.48,11.76,15.51,20,17.9h0c3.26,0.94,8.3-1.08,14.13-3.42,5.47-2.2,11.68-4.69,18.36-5.57,4.61-.61,7.58-3.16,7.95-6.84,0.5-5-4-12.15-15.13-15.91A55.47,55.47,0,0,0,1335.9,662.91Z"/><path class="cls-3" d="M1327.93,700.46a1.5,1.5,0,0,1-1.38-.9c-2.84-6.52-3.16-12.6-1-18.08,2.52-6.29,8.31-11.5,16.75-15.07a1.5,1.5,0,1,1,1.17,2.76c-7.69,3.25-12.92,7.88-15.13,13.42-1.88,4.71-1.57,10,.93,15.77A1.5,1.5,0,0,1,1327.93,700.46Z"/><path class="cls-3" d="M1327.93,700.46a1.49,1.49,0,0,1-1-.39,21.87,21.87,0,0,1-6.89-16.55c0-6.95,2.84-13.76,7.34-17.79a1.5,1.5,0,1,1,2,2.23c-3.88,3.48-6.31,9.45-6.34,15.57a18.91,18.91,0,0,0,5.92,14.32A1.5,1.5,0,0,1,1327.93,700.46Z"/><path class="cls-3" d="M1327.93,700.46a1.5,1.5,0,0,1-.79-0.23c-6.51-4.06-11.1-9.32-13.28-15.23a21.72,21.72,0,0,1-.46-14.16,1.5,1.5,0,0,1,2.84,1c-0.52,1.53-4.55,15.28,12.48,25.88A1.5,1.5,0,0,1,1327.93,700.46Z"/><path class="cls-3" d="M1331.94,699.51a1.5,1.5,0,0,1-1.46-1.17,7.68,7.68,0,0,1,1.8-6.68c5.68-7.1,22.76-11.42,28.75-11.42a1.5,1.5,0,0,1,0,3c-5.25,0-21.46,4.1-26.41,10.29a4.78,4.78,0,0,0-1.22,4.15A1.5,1.5,0,0,1,1331.94,699.51Z"/><path class="cls-3" d="M1329.09,699.51a1.5,1.5,0,0,1-1.47-1.22c-1-5.28.51-10.5,4.33-15.1,6.19-7.45,16.7-11.47,23.45-11.47a1.5,1.5,0,0,1,0,3c-6.15,0-15.74,3.89-21.14,10.39-3.28,3.95-4.52,8.2-3.69,12.63a1.5,1.5,0,0,1-1.2,1.75Z"/><path class="cls-4" d="M279.63,609.91c1,0,11.48,2,9.54,5.16-2.29,3.69-33.78,9-37.1,6.19-2.9-2.45,2.81-7.27,4.85-8S279.63,609.91,279.63,609.91Z"/><path class="cls-3" d="M257.06,623.54c-2.72,0-5-.3-6-1.14a3.63,3.63,0,0,1-1.27-3.51c0.56-3.25,4.86-6.43,6.56-7.07,2.1-.79,19.57-3,23.05-3.4h0.18c0.57,0,9.11,1.25,10.91,4.5a2.81,2.81,0,0,1-.09,3c-2.05,3.3-16.28,5.77-20.6,6.44A90.64,90.64,0,0,1,257.06,623.54Zm22.63-12.13c-9.89,1.22-21,2.76-22.25,3.22s-4.37,3.07-4.66,4.77a0.65,0.65,0,0,0,.25.71c3.16,2.14,32.27-2.72,34.83-5.81C287.33,613.6,282.87,611.59,279.69,611.42Z"/><path class="cls-4" d="M271.46,622.3c10.19-3,21-15.68,16.74-22.2S266.1,589,250.28,594.34s-16.8,19.26-5.57,20.74S265.76,623.95,271.46,622.3Z"/><path class="cls-3" d="M269.66,624c-3.12,0-6.81-1.48-11-3.15s-9.12-3.66-14.18-4.33-8.35-3.7-8.77-7.95c-0.52-5.26,3.63-12.16,14.05-15.7,16.12-5.47,34.88-1,39.66,6.37,1.44,2.22,1.57,5.1.37,8.33-2.56,6.87-10.44,13.95-17.95,16.12h0A8,8,0,0,1,269.66,624Zm1.81-1.74h0Zm-6.39-28.85a44.66,44.66,0,0,0-14.3,2.31c-8.82,3-12.42,8.61-12,12.56,0.28,2.87,2.53,4.79,6.17,5.27,5.43,0.71,10.46,2.73,14.9,4.52,4.66,1.87,8.69,3.49,11.23,2.75h0c6.58-1.91,13.75-8.32,16-14.29,0.6-1.6,1.07-3.89-.08-5.65C284.35,596.93,275.47,593.45,265.07,593.45Z"/><path class="cls-3" d="M271.46,623.8a1.5,1.5,0,0,1-1.37-2.1c2-4.58,2.24-8.79.75-12.52-1.76-4.4-5.93-8.09-12.07-10.68a1.5,1.5,0,1,1,1.17-2.76c6.89,2.91,11.63,7.17,13.69,12.33,1.8,4.5,1.54,9.5-.79,14.83A1.5,1.5,0,0,1,271.46,623.8Z"/><path class="cls-3" d="M271.46,623.8a1.5,1.5,0,0,1-1-2.61,15,15,0,0,0,4.69-11.36c0-4.87-2-9.61-5-12.37a1.5,1.5,0,1,1,2-2.23c3.69,3.31,6,8.9,6,14.59a18,18,0,0,1-5.66,13.59A1.5,1.5,0,0,1,271.46,623.8Z"/><path class="cls-3" d="M271.46,623.8a1.5,1.5,0,0,1-.79-2.77c13.57-8.46,10.37-19.37,10-20.58a1.5,1.5,0,0,1,2.84-1c3.29,9.76-3.27,19.13-11.22,24.09A1.49,1.49,0,0,1,271.46,623.8Z"/><path class="cls-3" d="M268.23,623a1.5,1.5,0,0,1-1.46-1.83,3.59,3.59,0,0,0-.93-3.11c-3.95-4.94-16.92-8.21-21.12-8.21a1.5,1.5,0,1,1,0-3c4.89,0,18.82,3.53,23.46,9.34a6.56,6.56,0,0,1,1.51,5.64A1.5,1.5,0,0,1,268.23,623Z"/><path class="cls-3" d="M270.53,623l-0.28,0a1.5,1.5,0,0,1-1.2-1.75,11.76,11.76,0,0,0-2.92-10c-4.31-5.19-12-8.29-16.86-8.29a1.5,1.5,0,1,1,0-3c5.52,0,14.12,3.29,19.17,9.37A14.82,14.82,0,0,1,272,621.81,1.5,1.5,0,0,1,270.53,623Z"/><path class="cls-6" d="M699.71,272.33c-0.41,1,.24,4.79,1.29,5.39,4.48,2.56,13.8,2.08,19.5.07,3.75-1.33,10-12.69,8.83-16.63S702.48,265.56,699.71,272.33Z"/><path class="cls-3" d="M709.86,281c-3.7,0-7.24-.59-9.6-1.94-1.9-1.08-2.54-5.77-1.94-7.26h0c2.71-6.61,22.17-13.4,28.82-13.1,2.51,0.12,3.35,1.19,3.62,2.07,1.49,4.91-5.47,17-9.77,18.47A35,35,0,0,1,709.86,281Zm-8-4.5c4,2.21,12.87,1.78,18.17-.09,3.07-1.09,8.58-11.31,7.94-14.58-0.78-.3-3.93-0.29-9.91,1.55-8.46,2.61-15.72,6.7-16.92,9.52A7.56,7.56,0,0,0,701.83,276.47Zm0,0h0Z"/><path class="cls-2" d="M712.48,210.53s11.66,27.11,11.66,44.38c0,11.06-19.32,15.24-19.23,10C705.08,255.4,714,223.42,712.48,210.53Z"/><path class="cls-3" d="M708.79,268.65a7.31,7.31,0,0,1-3.67-.8,3.27,3.27,0,0,1-1.71-3c0.07-3.87,1.48-11,3.12-19.34,2.4-12.14,5.38-27.24,4.46-34.83a1.5,1.5,0,0,1,2.87-.77c0.48,1.12,11.79,27.6,11.79,45,0,4.39-2.62,8.3-7.38,11A20.25,20.25,0,0,1,708.79,268.65ZM714,218.42c-0.62,8-2.65,18.32-4.5,27.71-1.54,7.82-3,15.21-3.07,18.81a0.32,0.32,0,0,0,.24.32c1.38,0.82,5.9.47,10.13-1.94,2.19-1.25,5.86-4,5.86-8.41C722.65,243.56,717.4,227.61,714,218.42Z"/><path class="cls-6" d="M699.71,272.33c4.18-1.71,16.3-1.2,18.69,0"/><path class="cls-3" d="M699.71,273.83a1.5,1.5,0,0,1-.57-2.89c4.58-1.88,17.18-1.34,19.93,0a1.5,1.5,0,0,1-1.35,2.68c-1.86-.94-13.53-1.56-17.44,0A1.49,1.49,0,0,1,699.71,273.83Z"/><path class="cls-6" d="M1631.35,322c0.41,1-.24,4.79-1.29,5.39-4.48,2.56-13.8,2.08-19.5.07-3.75-1.33-10-12.69-8.83-16.63S1628.57,315.18,1631.35,322Z"/><path class="cls-3" d="M1621.2,330.6a35,35,0,0,1-11.13-1.76c-4.3-1.52-11.25-13.57-9.77-18.47,0.27-.88,1.11-1.95,3.62-2.07,6.64-.32,26.11,6.49,28.82,13.1h0c0.61,1.49,0,6.18-1.93,7.26C1628.44,330,1624.9,330.6,1621.2,330.6Zm-18.08-19.17c-0.64,3.27,4.88,13.49,7.94,14.58,5.3,1.88,14.15,2.31,18.17.09a7.54,7.54,0,0,0,.72-3.6c-1.2-2.83-8.46-6.91-16.92-9.52C1607.05,311.13,1603.9,311.12,1603.12,311.43Zm26.82,11.06h0Z"/><path class="cls-7" d="M1618.58,260.16s-11.66,27.11-11.66,44.38c0,11.06,19.32,15.24,19.23,10C1626,305,1617,273.05,1618.58,260.16Z"/><path class="cls-3" d="M1622.27,318.28a20.25,20.25,0,0,1-9.48-2.72c-4.76-2.71-7.38-6.62-7.38-11,0-17.37,11.3-43.85,11.79-45a1.5,1.5,0,0,1,2.87.77c-0.92,7.59,2.06,22.7,4.46,34.84,1.64,8.3,3.06,15.47,3.12,19.34a3.27,3.27,0,0,1-1.71,3A7.31,7.31,0,0,1,1622.27,318.28ZM1617.08,268c-3.42,9.19-8.67,25.14-8.67,36.49,0,4.41,3.67,7.16,5.86,8.41,4.24,2.41,8.76,2.76,10.14,1.94a0.32,0.32,0,0,0,.24-0.32c-0.06-3.6-1.52-11-3.07-18.81C1619.73,286.37,1617.69,276.08,1617.08,268Z"/><path class="cls-6" d="M1631.35,322c-4.18-1.71-16.3-1.2-18.69,0"/><path class="cls-3" d="M1631.35,323.46a1.49,1.49,0,0,1-.57-0.11c-3.91-1.6-15.58-1-17.44,0a1.5,1.5,0,0,1-1.35-2.68c2.75-1.38,15.35-1.93,19.93,0A1.5,1.5,0,0,1,1631.35,323.46Z"/><polygon class="cls-5" points="585.3 266.66 -2 451.7 -2 375.03 585.3 262.23 585.3 266.66"/><path class="cls-3" d="M-2,453.2a1.5,1.5,0,0,1-.89-0.29,1.5,1.5,0,0,1-.61-1.21V375a1.5,1.5,0,0,1,1.22-1.47L585,260.76a1.5,1.5,0,0,1,1.78,1.47v4.43a1.5,1.5,0,0,1-1,1.43l-587.3,185A1.51,1.51,0,0,1-2,453.2Zm1.5-76.94v73.39l584.3-184.1V264Zm585.8-109.6h0Z"/><path class="cls-3" d="M-2,321.06a1.5,1.5,0,0,1-1.49-1.33,1.5,1.5,0,0,1,1.32-1.66L588,251.47a1.5,1.5,0,0,1,.34,3L-1.83,321.05H-2Z"/><path class="cls-3" d="M-2,344.17a0.75,0.75,0,0,1-.74-0.64,0.75,0.75,0,0,1,.63-0.85L588,254.12a0.75,0.75,0,0,1,.22,1.48L-1.89,344.16H-2Z"/><path class="cls-3" d="M-2,333.36a0.75,0.75,0,0,1-.74-0.65,0.75,0.75,0,0,1,.64-0.84L588,253.17a0.75,0.75,0,0,1,.2,1.49L-1.9,333.35H-2Z"/><path class="cls-3" d="M-2,356.1a0.75,0.75,0,0,1-.74-0.63,0.75,0.75,0,0,1,.61-0.86L588,255.06a0.75,0.75,0,0,1,.25,1.48L-1.87,356.08H-2Z"/><polygon class="cls-8" points="585.3 266.66 -2 451.7 -2 420 61.5 413 585.3 262.23 585.3 266.66"/><polygon class="cls-5" points="588.14 261.93 -2 402.02 -2 375.03 588.14 258.65 588.14 261.93"/><path class="cls-3" d="M-2,403.52a1.5,1.5,0,0,1-.93-0.32A1.5,1.5,0,0,1-3.5,402V375a1.5,1.5,0,0,1,1.21-1.47L587.85,257.17a1.5,1.5,0,0,1,1.79,1.47v3.28a1.5,1.5,0,0,1-1.15,1.46L-1.65,403.48A1.5,1.5,0,0,1-2,403.52Zm1.5-27.26v23.86L586.64,260.74v-0.27ZM588.14,261.93h0Z"/><rect class="cls-5" x="400.13" y="266.16" width="14.21" height="42.63"/><path class="cls-3" d="M414.34,310.28H400.13a1.5,1.5,0,0,1-1.5-1.5V266.16a1.5,1.5,0,0,1,1.5-1.5h14.21a1.5,1.5,0,0,1,1.5,1.5v42.63A1.5,1.5,0,0,1,414.34,310.28Zm-12.71-3h11.21V267.66H401.63v39.63Z"/><rect class="cls-5" x="393.02" y="308.78" width="22.73" height="17.05"/><path class="cls-3" d="M415.76,327.33H393a1.5,1.5,0,0,1-1.5-1.5v-17a1.5,1.5,0,0,1,1.5-1.5h22.73a1.5,1.5,0,0,1,1.5,1.5v17A1.5,1.5,0,0,1,415.76,327.33Zm-21.23-3h19.73v-14H394.53v14Z"/><rect class="cls-5" x="400.13" y="266.16" width="8.53" height="42.63"/><path class="cls-3" d="M408.65,310.28h-8.53a1.5,1.5,0,0,1-1.5-1.5V266.16a1.5,1.5,0,0,1,1.5-1.5h8.53a1.5,1.5,0,0,1,1.5,1.5v42.63A1.5,1.5,0,0,1,408.65,310.28Zm-7-3h5.53V267.66h-5.53v39.63Z"/><rect class="cls-5" x="393.02" y="308.78" width="16.1" height="17.05"/><path class="cls-3" d="M409.13,327.33H393a1.5,1.5,0,0,1-1.5-1.5v-17a1.5,1.5,0,0,1,1.5-1.5h16.1a1.5,1.5,0,0,1,1.5,1.5v17A1.5,1.5,0,0,1,409.13,327.33Zm-14.6-3h13.1v-14h-13.1v14Z"/><rect class="cls-5" x="291.89" y="272.71" width="21.58" height="64.75"/><path class="cls-3" d="M313.47,339H291.89a1.5,1.5,0,0,1-1.5-1.5V272.71a1.5,1.5,0,0,1,1.5-1.5h21.58a1.5,1.5,0,0,1,1.5,1.5v64.75A1.5,1.5,0,0,1,313.47,339Zm-20.08-3H312V274.21H293.39V336Z"/><rect class="cls-5" x="281.1" y="337.46" width="34.53" height="25.9"/><path class="cls-3" d="M315.63,364.86H281.1a1.5,1.5,0,0,1-1.5-1.5v-25.9a1.5,1.5,0,0,1,1.5-1.5h34.53a1.5,1.5,0,0,1,1.5,1.5v25.9A1.5,1.5,0,0,1,315.63,364.86Zm-33-3h31.53V339H282.6v22.9Z"/><rect class="cls-5" x="291.89" y="272.71" width="12.95" height="64.75"/><path class="cls-3" d="M304.84,339h-13a1.5,1.5,0,0,1-1.5-1.5V272.71a1.5,1.5,0,0,1,1.5-1.5h13a1.5,1.5,0,0,1,1.5,1.5v64.75A1.5,1.5,0,0,1,304.84,339Zm-11.45-3h10V274.21h-10V336Z"/><rect class="cls-5" x="281.1" y="337.46" width="24.46" height="25.9"/><path class="cls-3" d="M305.56,364.86H281.1a1.5,1.5,0,0,1-1.5-1.5v-25.9a1.5,1.5,0,0,1,1.5-1.5h24.46a1.5,1.5,0,0,1,1.5,1.5v25.9A1.5,1.5,0,0,1,305.56,364.86Zm-23-3h21.46V339H282.6v22.9Z"/><rect class="cls-5" x="79.47" y="297.37" width="31.42" height="94.25"/><path class="cls-3" d="M110.89,393.12H79.47a1.5,1.5,0,0,1-1.5-1.5V297.37a1.5,1.5,0,0,1,1.5-1.5h31.42a1.5,1.5,0,0,1,1.5,1.5v94.25A1.5,1.5,0,0,1,110.89,393.12Zm-29.92-3h28.42V298.87H81v91.25Z"/><rect class="cls-5" x="63.76" y="391.62" width="50.27" height="37.7"/><path class="cls-3" d="M114,430.83H63.76a1.5,1.5,0,0,1-1.5-1.5v-37.7a1.5,1.5,0,0,1,1.5-1.5H114a1.5,1.5,0,0,1,1.5,1.5v37.7A1.5,1.5,0,0,1,114,430.83Zm-48.77-3h47.27v-34.7H65.26v34.7Z"/><rect class="cls-5" x="79.47" y="297.37" width="18.85" height="94.25"/><path class="cls-3" d="M98.32,393.12H79.47a1.5,1.5,0,0,1-1.5-1.5V297.37a1.5,1.5,0,0,1,1.5-1.5H98.32a1.5,1.5,0,0,1,1.5,1.5v94.25A1.5,1.5,0,0,1,98.32,393.12Zm-17.35-3H96.82V298.87H81v91.25Z"/><rect class="cls-5" x="63.76" y="391.62" width="35.61" height="37.7"/><path class="cls-3" d="M99.37,430.83H63.76a1.5,1.5,0,0,1-1.5-1.5v-37.7a1.5,1.5,0,0,1,1.5-1.5H99.37a1.5,1.5,0,0,1,1.5,1.5v37.7A1.5,1.5,0,0,1,99.37,430.83Zm-34.11-3H97.87v-34.7H65.26v34.7Z"/><rect class="cls-5" x="478.74" y="260.52" width="9.48" height="28.43"/><path class="cls-3" d="M488.22,290.45h-9.48a1.5,1.5,0,0,1-1.5-1.5V260.52a1.5,1.5,0,0,1,1.5-1.5h9.48a1.5,1.5,0,0,1,1.5,1.5v28.43A1.5,1.5,0,0,1,488.22,290.45Zm-8-3h6.48V262h-6.48v25.43Z"/><rect class="cls-5" x="474.01" y="288.95" width="15.16" height="11.37"/><path class="cls-3" d="M489.17,301.82H474a1.5,1.5,0,0,1-1.5-1.5V288.95a1.5,1.5,0,0,1,1.5-1.5h15.16a1.5,1.5,0,0,1,1.5,1.5v11.37A1.5,1.5,0,0,1,489.17,301.82Zm-13.66-3h12.16v-8.37H475.5v8.37Z"/><rect class="cls-5" x="478.74" y="260.52" width="5.69" height="28.43"/><path class="cls-3" d="M484.43,290.45h-5.69a1.5,1.5,0,0,1-1.5-1.5V260.52a1.5,1.5,0,0,1,1.5-1.5h5.69a1.5,1.5,0,0,1,1.5,1.5v28.43A1.5,1.5,0,0,1,484.43,290.45Zm-4.19-3h2.69V262h-2.69v25.43Z"/><rect class="cls-5" x="474.01" y="288.95" width="10.74" height="11.37"/><path class="cls-3" d="M484.75,301.82H474a1.5,1.5,0,0,1-1.5-1.5V288.95a1.5,1.5,0,0,1,1.5-1.5h10.74a1.5,1.5,0,0,1,1.5,1.5v11.37A1.5,1.5,0,0,1,484.75,301.82Zm-9.24-3h7.74v-8.37H475.5v8.37Z"/><rect class="cls-5" x="527.79" y="257.15" width="6.68" height="20.05"/><path class="cls-3" d="M534.47,278.19h-6.68a1,1,0,0,1-1-1v-20a1,1,0,0,1,1-1h6.68a1,1,0,0,1,1,1v20A1,1,0,0,1,534.47,278.19Zm-5.68-2h4.68v-18h-4.68v18Z"/><rect class="cls-5" x="524.44" y="277.19" width="10.69" height="8.02"/><path class="cls-3" d="M535.14,286.21H524.45a1,1,0,0,1-1-1v-8a1,1,0,0,1,1-1h10.69a1,1,0,0,1,1,1v8A1,1,0,0,1,535.14,286.21Zm-9.69-2h8.69v-6h-8.69v6Z"/><rect class="cls-5" x="527.79" y="257.15" width="4.01" height="20.05"/><path class="cls-3" d="M531.79,278.19h-4a1,1,0,0,1-1-1v-20a1,1,0,0,1,1-1h4a1,1,0,0,1,1,1v20A1,1,0,0,1,531.79,278.19Zm-3-2h2v-18h-2v18Z"/><rect class="cls-5" x="524.44" y="277.19" width="7.57" height="8.02"/><path class="cls-3" d="M532,286.21h-7.57a1,1,0,0,1-1-1v-8a1,1,0,0,1,1-1H532a1,1,0,0,1,1,1v8A1,1,0,0,1,532,286.21Zm-6.57-2H531v-6h-5.57v6Z"/><rect class="cls-5" x="567.49" y="254.18" width="4.41" height="13.23"/><path class="cls-3" d="M571.9,268.17h-4.41a0.75,0.75,0,0,1-.75-0.75V254.18a0.75,0.75,0,0,1,.75-0.75h4.41a0.75,0.75,0,0,1,.75.75v13.23A0.75,0.75,0,0,1,571.9,268.17Zm-3.66-1.5h2.91V254.93h-2.91v11.73Z"/><rect class="cls-5" x="565.28" y="267.42" width="7.06" height="5.29"/><path class="cls-3" d="M572.34,273.46h-7.06a0.75,0.75,0,0,1-.75-0.75v-5.29a0.75,0.75,0,0,1,.75-0.75h7.06a0.75,0.75,0,0,1,.75.75v5.29A0.75,0.75,0,0,1,572.34,273.46ZM566,272h5.56v-3.79H566V272Z"/><rect class="cls-5" x="567.49" y="254.18" width="2.65" height="13.23"/><path class="cls-3" d="M570.14,268.17h-2.65a0.75,0.75,0,0,1-.75-0.75V254.18a0.75,0.75,0,0,1,.75-0.75h2.65a0.75,0.75,0,0,1,.75.75v13.23A0.75,0.75,0,0,1,570.14,268.17Zm-1.9-1.5h1.15V254.93h-1.15v11.73Z"/><rect class="cls-5" x="565.28" y="267.42" width="5" height="5.29"/><path class="cls-3" d="M570.28,273.46h-5a0.75,0.75,0,0,1-.75-0.75v-5.29a0.75,0.75,0,0,1,.75-0.75h5a0.75,0.75,0,0,1,.75.75v5.29A0.75,0.75,0,0,1,570.28,273.46ZM566,272h3.5v-3.79H566V272Z"/><rect class="cls-5" x="580.61" y="253.01" width="3.43" height="10.3"/><path class="cls-3" d="M584,263.81h-3.43a0.5,0.5,0,0,1-.5-0.5V253a0.5,0.5,0,0,1,.5-0.5H584a0.5,0.5,0,0,1,.5.5v10.3A0.5,0.5,0,0,1,584,263.81Zm-2.93-1h2.43v-9.3h-2.43v9.3Z"/><rect class="cls-5" x="578.89" y="263.31" width="5.5" height="4.12"/><path class="cls-3" d="M584.39,267.94h-5.5a0.5,0.5,0,0,1-.5-0.5v-4.12a0.5,0.5,0,0,1,.5-0.5h5.5a0.5,0.5,0,0,1,.5.5v4.12A0.5,0.5,0,0,1,584.39,267.94Zm-5-1h4.5v-3.12h-4.5v3.12Z"/><rect class="cls-5" x="580.61" y="253.01" width="2.06" height="10.3"/><path class="cls-3" d="M582.67,263.81h-2.06a0.5,0.5,0,0,1-.5-0.5V253a0.5,0.5,0,0,1,.5-0.5h2.06a0.5,0.5,0,0,1,.5.5v10.3A0.5,0.5,0,0,1,582.67,263.81Zm-1.56-1h1.06v-9.3h-1.06v9.3Z"/><rect class="cls-5" x="578.89" y="263.31" width="3.89" height="4.12"/><path class="cls-3" d="M582.78,267.94h-3.89a0.5,0.5,0,0,1-.5-0.5v-4.12a0.5,0.5,0,0,1,.5-0.5h3.89a0.5,0.5,0,0,1,.5.5v4.12A0.5,0.5,0,0,1,582.78,267.94Zm-3.39-1h2.89v-3.12h-2.89v3.12Z"/><path class="cls-3" d="M449.62,301.59a1.5,1.5,0,0,1-1.5-1.5V268.4a1.5,1.5,0,0,1,3,0v31.69A1.5,1.5,0,0,1,449.62,301.59Z"/><path class="cls-3" d="M511.67,283.74a1.25,1.25,0,0,1-1.25-1.25V260.56a1.25,1.25,0,0,1,2.5,0v21.93A1.25,1.25,0,0,1,511.67,283.74Z"/><path class="cls-3" d="M552.4,271.64a1,1,0,0,1-1-1V256.21a1,1,0,0,1,2,0v14.44A1,1,0,0,1,552.4,271.64Z"/><path class="cls-3" d="M576.63,264.86a0.75,0.75,0,0,1-.75-0.75V253.24a0.75,0.75,0,0,1,1.5,0v10.87A0.75,0.75,0,0,1,576.63,264.86Z"/><rect class="cls-6" x="685.94" y="151.05" width="9.67" height="456.68" transform="translate(-61.93 145.86) rotate(-11.54)"/><path class="cls-3" d="M731.72,605.58a1.5,1.5,0,0,1-1.47-1.2L638.89,156.93a1.5,1.5,0,0,1,1.17-1.77l9.48-1.94a1.51,1.51,0,0,1,1.77,1.17l91.36,447.44a1.5,1.5,0,0,1-1.17,1.77L732,605.55A1.52,1.52,0,0,1,731.72,605.58ZM642.13,157.8l90.76,444.5,6.54-1.33-90.76-444.5Z"/><rect class="cls-6" x="676.31" y="337.88" width="16.93" height="24.19" transform="translate(-56.18 144.09) rotate(-11.54)"/><path class="cls-3" d="M678.9,365a1.5,1.5,0,0,1-1.47-1.2l-4.84-23.7a1.5,1.5,0,0,1,1.17-1.77L690.35,335a1.5,1.5,0,0,1,1.77,1.17l4.84,23.7a1.5,1.5,0,0,1-1.17,1.77L679.2,365A1.52,1.52,0,0,1,678.9,365Zm-3.07-24,4.24,20.76L693.72,359l-4.24-20.76Z"/><path class="cls-6" d="M688.54,340.56a3.15,3.15,0,0,0-2.1,2.06,14.25,14.25,0,0,1,2.75,13.45,3.15,3.15,0,0,0,2.74,1.07c2.29-.47,3.39-4.56,2.45-9.14S690.83,340.09,688.54,340.56Z"/><path class="cls-3" d="M691.5,358.69a4.93,4.93,0,0,1-3.35-1.53,1.5,1.5,0,0,1-.34-1.68,12.83,12.83,0,0,0-2.41-11.78,1.5,1.5,0,0,1-.34-1.68,4.48,4.48,0,0,1,3.18-2.94h0c1.69-.34,3.44.5,4.91,2.37a15.22,15.22,0,0,1,2.7,6.24c1.14,5.57-.42,10.26-3.62,10.91A3.63,3.63,0,0,1,691.5,358.69ZM691,355.54a1.05,1.05,0,0,0,.67.14c1.07-.22,2.12-3.27,1.28-7.37a12.37,12.37,0,0,0-2.12-5c-0.7-.9-1.44-1.39-1.95-1.29h0a1.05,1.05,0,0,0-.56.39A16.47,16.47,0,0,1,691,355.54Zm-2.42-15h0Z"/><path class="cls-4" d="M625.9,61.66C514.66,84.38,434.23,150.54,446.26,209.43l0.39-.08c4.81,23.56,98.71,24.27,209.73,1.6S853.51,150.8,848.7,127.25h0C836.67,68.35,737.14,38.95,625.9,61.66Z"/><path class="cls-3" d="M514.62,229h-2.95c-27.93-.21-61.74-3.59-66.23-18.29a1.49,1.49,0,0,1-.66-1c-5.93-29.05,9.73-60.63,44.11-88.91C523,92.76,571.56,71.23,625.6,60.19s107-10.24,149.33,2.22c42.58,12.55,69.3,35.47,75.24,64.53,1.76,8.6-6.11,23.2-53.59,43.86-36.42,15.85-86.1,30.63-139.89,41.62C604.21,223.14,553.92,229,514.62,229Zm-67.09-20.86a1.5,1.5,0,0,1,.59.91c2.14,10.47,25.31,16.64,63.58,16.94,39.51,0.31,90.79-5.56,144.38-16.51,108.17-22.09,195.7-59.61,191.14-81.94-11.84-58-111-86.88-221-64.41l-0.3-1.47,0.3,1.47c-53.56,10.94-101.65,32.25-135.39,60C457.72,150.35,442.39,180.49,447.53,208.14Z"/><path class="cls-3" d="M707.54,200.53a1.5,1.5,0,0,1-1.47-1.2c-11-53.89-32.47-88.13-48.54-107.37-17.35-20.76-32.2-28.9-32.35-29a1.5,1.5,0,0,1,1.42-2.64c0.63,0.34,15.51,8.49,33.23,29.7,16.29,19.5,38,54.19,49.18,108.69A1.5,1.5,0,0,1,707.54,200.53Z"/><path class="cls-3" d="M507.75,228.93a1.5,1.5,0,0,1-1.47-1.2c-5-24.27-1.74-48.2,9.54-71.13,9-18.28,23.12-36,42-52.53,32-28.16,67.15-43.63,67.5-43.79A1.5,1.5,0,0,1,626.5,63c-0.35.15-35.1,15.47-66.77,43.34C541.18,122.69,527.31,140,518.5,158c-11,22.31-14.1,45.58-9.28,69.17A1.5,1.5,0,0,1,507.75,228.93Z"/><path class="cls-3" d="M799.58,169.34a1.5,1.5,0,0,1-1.47-1.2c-4.82-23.59-16.81-43.77-35.66-60-15.13-13-34.7-23.56-58.15-31.29-40.06-13.22-78-13.68-78.42-13.69a1.5,1.5,0,0,1,0-3h0c0.38,0,38.77.47,79.26,13.81,23.84,7.86,43.76,18.58,59.21,31.87,19.38,16.67,31.71,37.42,36.67,61.69A1.5,1.5,0,0,1,799.58,169.34Z"/><path class="cls-3" d="M604.65,221.55a1.5,1.5,0,0,1-1.47-1.2c-11.13-54.51-4.72-94.95,2.62-119.27,8-26.45,18.48-39.79,18.92-40.35a1.5,1.5,0,0,1,2.34,1.87c-0.11.13-10.64,13.56-18.45,39.52-7.21,24-13.49,63.83-2.5,117.63A1.5,1.5,0,0,1,604.65,221.55Z"/><path class="cls-8" d="M625.9,61.66C514.66,84.38,434.23,150.54,446.26,209.43l0.39-.08c4.81,23.56,98.71,24.27,209.73,1.6-59.72,2-125.26-20.06-135.12-47.42S521.27,92.5,625.9,61.66Z"/><path class="cls-2" d="M759.56,602.29c-3.23,0-12.07-1.81-17.3-1.81s-16.78,2.76-24.23,3.13l1.91,3.4,38.81-1.71Z"/><path class="cls-6" d="M759.56,602.29c-3.23,0-12.07-1.81-17.3-1.81s-16.78,2.76-24.23,3.13"/><path class="cls-3" d="M718,605.11a1.5,1.5,0,0,1-.07-3,124.38,124.38,0,0,0,12.78-1.68A86,86,0,0,1,742.25,599,87.8,87.8,0,0,1,753,600.06a63.54,63.54,0,0,0,6.53.73,1.5,1.5,0,0,1,0,3,62.68,62.68,0,0,1-6.95-.76A85.94,85.94,0,0,0,742.25,602a85.1,85.1,0,0,0-11,1.41,126.07,126.07,0,0,1-13.12,1.72H718Z"/><g class="cls-9"><rect class="cls-6" x="-258.26" y="89.87" width="691.44" height="437.64" transform="translate(174.92 617.37) rotate(-180)"/><path class="cls-3" d="M433.18,528.65H-258.26a1.15,1.15,0,0,1-1.15-1.15V89.87a1.15,1.15,0,0,1,1.15-1.15H433.18a1.15,1.15,0,0,1,1.15,1.15V527.51A1.15,1.15,0,0,1,433.18,528.65Zm-690.29-2.3H432V91H-257.11V526.36Z"/><polygon class="cls-8" points="-258.26 343.7 -258.26 387.46 -42.75 384.94 -42.75 505.99 -51.12 505.99 -51.12 514.38 -64.25 514.38 -64.25 527.51 7.96 527.51 7.96 343.7 -258.26 343.7"/><polygon class="cls-8" points="21.45 352.45 207.64 201.47 368.89 347.92 393.8 416.02 402.55 446.53 424.43 446.53 433.18 355.99 209.99 144.57 -19.03 356.83 21.45 352.45"/><g class="cls-10"><line class="cls-6" x1="-257.61" y1="114.16" x2="432.53" y2="114.16"/><path class="cls-3" d="M432.53,114.74H-257.61a0.57,0.57,0,0,1-.57-0.57,0.57,0.57,0,0,1,.57-0.57H432.53A0.57,0.57,0,1,1,432.53,114.74Z"/><line class="cls-6" x1="-257.61" y1="127.94" x2="432.53" y2="127.94"/><path class="cls-3" d="M432.53,128.51H-257.61a0.57,0.57,0,0,1-.57-0.57,0.57,0.57,0,0,1,.57-0.57H432.53A0.57,0.57,0,1,1,432.53,128.51Z"/><line class="cls-6" x1="-257.61" y1="141.72" x2="432.53" y2="141.72"/><path class="cls-3" d="M432.53,142.29H-257.61a0.57,0.57,0,0,1-.57-0.57,0.57,0.57,0,0,1,.57-0.57H432.53A0.57,0.57,0,1,1,432.53,142.29Z"/><line class="cls-6" x1="-257.61" y1="155.5" x2="432.53" y2="155.5"/><path class="cls-3" d="M432.53,156.07H-257.61a0.57,0.57,0,0,1-.57-0.57,0.57,0.57,0,0,1,.57-0.57H432.53A0.57,0.57,0,1,1,432.53,156.07Z"/><line class="cls-6" x1="-257.61" y1="169.27" x2="432.53" y2="169.27"/><path class="cls-3" d="M432.53,169.85H-257.61a0.57,0.57,0,0,1-.57-0.57,0.57,0.57,0,0,1,.57-0.57H432.53A0.57,0.57,0,1,1,432.53,169.85Z"/><line class="cls-6" x1="-257.61" y1="183.05" x2="432.53" y2="183.05"/><path class="cls-3" d="M432.53,183.63H-257.61a0.57,0.57,0,0,1-.57-0.57,0.57,0.57,0,0,1,.57-0.57H432.53A0.57,0.57,0,1,1,432.53,183.63Z"/><line class="cls-6" x1="-257.61" y1="196.83" x2="432.53" y2="196.83"/><path class="cls-3" d="M432.53,197.4H-257.61a0.57,0.57,0,0,1-.57-0.57,0.57,0.57,0,0,1,.57-0.57H432.53A0.57,0.57,0,1,1,432.53,197.4Z"/><line class="cls-6" x1="-257.61" y1="210.61" x2="432.53" y2="210.61"/><path class="cls-3" d="M432.53,211.18H-257.61a0.57,0.57,0,0,1-.57-0.57,0.57,0.57,0,0,1,.57-0.57H432.53A0.57,0.57,0,1,1,432.53,211.18Z"/><line class="cls-6" x1="-257.61" y1="224.39" x2="432.53" y2="224.39"/><path class="cls-3" d="M432.53,225H-257.61a0.57,0.57,0,0,1-.57-0.57,0.57,0.57,0,0,1,.57-0.57H432.53A0.57,0.57,0,1,1,432.53,225Z"/><line class="cls-6" x1="-257.61" y1="238.16" x2="432.53" y2="238.16"/><path class="cls-3" d="M432.53,238.74H-257.61a0.57,0.57,0,0,1-.57-0.57,0.57,0.57,0,0,1,.57-0.57H432.53A0.57,0.57,0,1,1,432.53,238.74Z"/><line class="cls-6" x1="-257.61" y1="251.94" x2="432.53" y2="251.94"/><path class="cls-3" d="M432.53,252.52H-257.61a0.57,0.57,0,0,1-.57-0.57,0.57,0.57,0,0,1,.57-0.57H432.53A0.57,0.57,0,1,1,432.53,252.52Z"/><line class="cls-6" x1="-257.61" y1="265.72" x2="432.53" y2="265.72"/><path class="cls-3" d="M432.53,266.3H-257.61a0.57,0.57,0,0,1-.57-0.57,0.57,0.57,0,0,1,.57-0.57H432.53A0.57,0.57,0,1,1,432.53,266.3Z"/><line class="cls-6" x1="-257.61" y1="279.5" x2="432.53" y2="279.5"/><path class="cls-3" d="M432.53,280.07H-257.61a0.57,0.57,0,0,1-.57-0.57,0.57,0.57,0,0,1,.57-0.57H432.53A0.57,0.57,0,1,1,432.53,280.07Z"/><line class="cls-6" x1="-257.61" y1="293.28" x2="432.53" y2="293.28"/><path class="cls-3" d="M432.53,293.85H-257.61a0.57,0.57,0,0,1-.57-0.57,0.57,0.57,0,0,1,.57-0.57H432.53A0.57,0.57,0,1,1,432.53,293.85Z"/><line class="cls-6" x1="-257.61" y1="307.06" x2="432.53" y2="307.06"/><path class="cls-3" d="M432.53,307.63H-257.61a0.57,0.57,0,0,1-.57-0.57,0.57,0.57,0,0,1,.57-0.57H432.53A0.57,0.57,0,1,1,432.53,307.63Z"/><line class="cls-6" x1="-257.61" y1="320.83" x2="432.53" y2="320.83"/><path class="cls-3" d="M432.53,321.41H-257.61a0.57,0.57,0,0,1-.57-0.57,0.57,0.57,0,0,1,.57-0.57H432.53A0.57,0.57,0,1,1,432.53,321.41Z"/><line class="cls-6" x1="-257.61" y1="334.61" x2="432.53" y2="334.61"/><path class="cls-3" d="M432.53,335.19H-257.61a0.57,0.57,0,0,1-.57-0.57,0.57,0.57,0,0,1,.57-0.57H432.53A0.57,0.57,0,1,1,432.53,335.19Z"/><line class="cls-6" x1="-257.61" y1="348.39" x2="432.53" y2="348.39"/><path class="cls-3" d="M432.53,349H-257.61a0.57,0.57,0,0,1-.57-0.57,0.57,0.57,0,0,1,.57-0.57H432.53A0.57,0.57,0,1,1,432.53,349Z"/><line class="cls-6" x1="-257.61" y1="362.17" x2="432.53" y2="362.17"/><path class="cls-3" d="M432.53,362.74H-257.61a0.57,0.57,0,0,1-.57-0.57,0.57,0.57,0,0,1,.57-0.57H432.53A0.57,0.57,0,1,1,432.53,362.74Z"/><line class="cls-6" x1="-257.61" y1="375.95" x2="432.53" y2="375.95"/><path class="cls-3" d="M432.53,376.52H-257.61a0.57,0.57,0,0,1-.57-0.57,0.57,0.57,0,0,1,.57-0.57H432.53A0.57,0.57,0,1,1,432.53,376.52Z"/><line class="cls-6" x1="-257.61" y1="389.72" x2="432.53" y2="389.72"/><path class="cls-3" d="M432.53,390.3H-257.61a0.57,0.57,0,0,1-.57-0.57,0.57,0.57,0,0,1,.57-0.57H432.53A0.57,0.57,0,1,1,432.53,390.3Z"/><line class="cls-6" x1="-257.61" y1="403.5" x2="432.53" y2="403.5"/><path class="cls-3" d="M432.53,404.08H-257.61a0.57,0.57,0,0,1-.57-0.57,0.57,0.57,0,0,1,.57-0.57H432.53A0.57,0.57,0,1,1,432.53,404.08Z"/><line class="cls-6" x1="-257.61" y1="417.28" x2="432.53" y2="417.28"/><path class="cls-3" d="M432.53,417.85H-257.61a0.57,0.57,0,0,1-.57-0.57,0.57,0.57,0,0,1,.57-0.57H432.53A0.57,0.57,0,1,1,432.53,417.85Z"/><line class="cls-6" x1="-257.61" y1="431.06" x2="432.53" y2="431.06"/><path class="cls-3" d="M432.53,431.63H-257.61a0.57,0.57,0,0,1-.57-0.57,0.57,0.57,0,0,1,.57-0.57H432.53A0.57,0.57,0,1,1,432.53,431.63Z"/><line class="cls-6" x1="-257.61" y1="444.84" x2="432.53" y2="444.84"/><path class="cls-3" d="M432.53,445.41H-257.61a0.57,0.57,0,0,1-.57-0.57,0.57,0.57,0,0,1,.57-0.57H432.53A0.57,0.57,0,1,1,432.53,445.41Z"/><line class="cls-6" x1="-257.61" y1="458.62" x2="432.53" y2="458.62"/><path class="cls-3" d="M432.53,459.19H-257.61a0.57,0.57,0,0,1-.57-0.57,0.57,0.57,0,0,1,.57-0.57H432.53A0.57,0.57,0,1,1,432.53,459.19Z"/><line class="cls-6" x1="-257.61" y1="472.39" x2="432.53" y2="472.39"/><path class="cls-3" d="M432.53,473H-257.61a0.57,0.57,0,0,1-.57-0.57,0.57,0.57,0,0,1,.57-0.57H432.53A0.57,0.57,0,1,1,432.53,473Z"/><line class="cls-6" x1="-257.61" y1="486.17" x2="432.53" y2="486.17"/><path class="cls-3" d="M432.53,486.75H-257.61a0.57,0.57,0,0,1-.57-0.57,0.57,0.57,0,0,1,.57-0.57H432.53A0.57,0.57,0,0,1,432.53,486.75Z"/><line class="cls-6" x1="-257.61" y1="499.95" x2="432.53" y2="499.95"/><path class="cls-3" d="M432.53,500.52H-257.61a0.57,0.57,0,0,1-.57-0.57,0.57,0.57,0,0,1,.57-0.57H432.53A0.57,0.57,0,1,1,432.53,500.52Z"/><line class="cls-6" x1="-257.61" y1="513.73" x2="432.53" y2="513.73"/><path class="cls-3" d="M432.53,514.3H-257.61a0.57,0.57,0,0,1-.57-0.57,0.57,0.57,0,0,1,.57-0.57H432.53A0.57,0.57,0,1,1,432.53,514.3Z"/><line class="cls-6" x1="-257.61" y1="527.51" x2="432.53" y2="527.51"/><path class="cls-3" d="M432.53,528.08H-257.61a0.57,0.57,0,0,1-.57-0.57,0.57,0.57,0,0,1,.57-0.57H432.53A0.57,0.57,0,1,1,432.53,528.08Z"/></g><polygon class="cls-11" points="-271.39 343.7 -19.03 343.7 209.99 138.74 441.93 343.7 446.31 343.7 446.31 63.61 -271.39 63.61 -271.39 343.7"/><path class="cls-3" d="M446.31,344.85h-4.38a1.15,1.15,0,0,1-.76-0.29L210,140.27-18.26,344.55a1.15,1.15,0,0,1-.77.29H-271.39a1.15,1.15,0,0,1-1.15-1.15V63.61a1.15,1.15,0,0,1,1.15-1.15h717.7a1.15,1.15,0,0,1,1.15,1.15V343.7A1.15,1.15,0,0,1,446.31,344.85Zm-3.94-2.3h2.79V64.76h-715.4V342.55H-19.47l228.7-204.67a1.15,1.15,0,0,1,1.53,0Z"/><polygon class="cls-8" points="446.31 63.61 292.66 158.8 42.24 192.09 -64.25 343.7 -8.09 343.7 209.99 144.57 429.87 343.7 446.31 343.7 446.31 63.61"/><rect class="cls-11" x="307" y="214.6" width="39.39" height="13.13" transform="translate(653.39 442.32) rotate(-180)"/><path class="cls-3" d="M346.39,228.3H307a0.57,0.57,0,0,1-.57-0.57V214.6A0.57,0.57,0,0,1,307,214h39.39a0.57,0.57,0,0,1,.57.57v13.13A0.57,0.57,0,0,1,346.39,228.3Zm-38.81-1.15h38.24v-12H307.57v12Z"/><rect class="cls-11" x="287.31" y="201.47" width="39.39" height="13.13" transform="translate(614 416.06) rotate(-180)"/><path class="cls-3" d="M326.69,215.17H287.31a0.57,0.57,0,0,1-.57-0.57V201.47a0.57,0.57,0,0,1,.57-0.57h39.39a0.57,0.57,0,0,1,.57.57V214.6A0.57,0.57,0,0,1,326.69,215.17ZM287.88,214h38.24V202H287.88v12Z"/><rect class="cls-11" x="113.72" y="369.96" width="280.08" height="157.55" transform="translate(507.51 897.46) rotate(-180)"/><path class="cls-3" d="M393.79,528.65H113.72a1.15,1.15,0,0,1-1.15-1.15V370a1.15,1.15,0,0,1,1.15-1.15H393.79a1.15,1.15,0,0,1,1.15,1.15V527.51A1.15,1.15,0,0,1,393.79,528.65Zm-278.93-2.3H392.65V371.1H114.87V526.36Z"/><rect class="cls-11" x="-271.39" y="63.61" width="717.7" height="10.94" transform="translate(174.92 138.16) rotate(-180)"/><path class="cls-3" d="M446.31,75.7h-717.7a1.15,1.15,0,0,1-1.15-1.15V63.61a1.15,1.15,0,0,1,1.15-1.15h717.7a1.15,1.15,0,0,1,1.15,1.15V74.55A1.15,1.15,0,0,1,446.31,75.7Zm-716.55-2.3h715.4V64.76h-715.4V73.4Z"/><rect class="cls-6" x="-19.03" y="356.83" width="96.28" height="170.68" transform="translate(58.22 884.33) rotate(-180)"/><path class="cls-3" d="M77.25,528.65H-19a1.15,1.15,0,0,1-1.15-1.15V356.83A1.15,1.15,0,0,1-19,355.68H77.25a1.15,1.15,0,0,1,1.15,1.15V527.51A1.15,1.15,0,0,1,77.25,528.65Zm-95.13-2.3h94V358h-94V526.36Z"/><rect class="cls-6" x="122.47" y="387.46" width="262.57" height="140.04" transform="translate(507.51 914.97) rotate(-180)"/><path class="cls-3" d="M385,528.65H122.47a1.15,1.15,0,0,1-1.15-1.15v-140a1.15,1.15,0,0,1,1.15-1.15H385a1.15,1.15,0,0,1,1.15,1.15v140A1.15,1.15,0,0,1,385,528.65Zm-261.43-2.3H383.89V388.61H123.62V526.36Z"/><polygon class="cls-8" points="329.18 420.29 385.04 522.3 385.04 387.46 122.47 387.46 329.18 420.29"/><rect class="cls-6" x="-27.78" y="518.75" width="113.78" height="8.75" transform="translate(58.22 1046.26) rotate(-180)"/><path class="cls-3" d="M86,528.65H-27.78a1.15,1.15,0,0,1-1.15-1.15v-8.75a1.15,1.15,0,0,1,1.15-1.15H86a1.15,1.15,0,0,1,1.15,1.15v8.75A1.15,1.15,0,0,1,86,528.65Zm-112.63-2.3H84.85V519.9H-26.63v6.46Z"/><rect class="cls-6" x="-23.41" y="510" width="105.03" height="8.75" transform="translate(58.22 1028.75) rotate(-180)"/><path class="cls-3" d="M81.62,519.9h-105a1.15,1.15,0,0,1-1.15-1.15V510a1.15,1.15,0,0,1,1.15-1.15h105A1.15,1.15,0,0,1,82.77,510v8.75A1.15,1.15,0,0,1,81.62,519.9Zm-103.88-2.3H80.48v-6.46H-22.26v6.46Z"/><polygon class="cls-6" points="190.39 135.82 209.99 118.31 229.6 135.82 209.99 152.6 190.39 135.82"/><path class="cls-3" d="M210,153.74a1.15,1.15,0,0,1-.75-0.28l-19.61-16.78a1.15,1.15,0,0,1,0-1.73l19.61-17.51a1.15,1.15,0,0,1,1.53,0L230.36,135a1.15,1.15,0,0,1,0,1.73l-19.61,16.78A1.15,1.15,0,0,1,210,153.74ZM192.13,135.8L210,151.08l17.86-15.28L210,119.85Z"/><rect class="cls-6" x="66.38" y="356.83" width="10.94" height="152.44" transform="translate(143.69 866.1) rotate(-180)"/><path class="cls-3" d="M77.32,510.42H66.38a1.15,1.15,0,0,1-1.15-1.15V356.83a1.15,1.15,0,0,1,1.15-1.15H77.32a1.15,1.15,0,0,1,1.15,1.15V509.27A1.15,1.15,0,0,1,77.32,510.42Zm-9.79-2.3h8.64V358H67.52V508.12Z"/><rect class="cls-6" x="64.19" y="502.71" width="15.32" height="6.56" transform="translate(143.69 1011.98) rotate(-180)"/><path class="cls-3" d="M79.5,510.42H64.19A1.15,1.15,0,0,1,63,509.27v-6.56a1.15,1.15,0,0,1,1.15-1.15H79.5a1.15,1.15,0,0,1,1.15,1.15v6.56A1.15,1.15,0,0,1,79.5,510.42Zm-14.17-2.3h13v-4.27h-13v4.27Z"/><rect class="cls-6" x="-23.41" y="352.45" width="105.03" height="13.13" transform="translate(58.22 718.03) rotate(-180)"/><path class="cls-3" d="M81.62,366.73h-105a1.15,1.15,0,0,1-1.15-1.15V352.45a1.15,1.15,0,0,1,1.15-1.15h105a1.15,1.15,0,0,1,1.15,1.15v13.13A1.15,1.15,0,0,1,81.62,366.73Zm-103.88-2.3H80.48V353.6H-22.26v10.83Z"/><polygon class="cls-6" points="4.31 347.92 209.99 164.27 415.68 347.92 439.02 347.92 209.99 138.74 -23.74 347.92 4.31 347.92"/><path class="cls-3" d="M439,349.07H415.68a1.15,1.15,0,0,1-.76-0.29L210,165.81,5.08,348.77a1.15,1.15,0,0,1-.76.29H-23.74a1.15,1.15,0,0,1-1.07-.74,1.15,1.15,0,0,1,.31-1.27L209.23,137.88a1.15,1.15,0,0,1,1.54,0l229,209.18A1.15,1.15,0,0,1,439,349.07Zm-22.9-2.3h19.94L210,140.29-20.74,346.77H3.87L209.23,163.41a1.15,1.15,0,0,1,1.53,0Z"/><polygon class="cls-6" points="209.99 124.88 455.06 343.7 455.06 356.83 415.68 356.83 415.68 334.79 209.99 151.14 4.31 334.79 4.31 356.83 -35.08 356.83 -35.08 343.7 209.99 124.88"/><path class="cls-3" d="M455.06,358H415.68a1.15,1.15,0,0,1-1.15-1.15V335.3L210,152.68,5.46,335.3v21.52A1.15,1.15,0,0,1,4.31,358H-35.08a1.15,1.15,0,0,1-1.15-1.15V343.7a1.15,1.15,0,0,1,.38-0.86L209.23,124a1.15,1.15,0,0,1,1.53,0L455.83,342.84a1.15,1.15,0,0,1,.38.86v13.13A1.15,1.15,0,0,1,455.06,358Zm-38.24-2.3h37.09V344.21L210,126.42-33.93,344.21v11.47H3.16V334.79a1.15,1.15,0,0,1,.38-0.86L209.23,150.28a1.15,1.15,0,0,1,1.53,0L416.44,333.93a1.15,1.15,0,0,1,.38.86v20.89Z"/><rect class="cls-11" x="404.74" y="394.03" width="17.5" height="32.82" transform="translate(826.98 820.88) rotate(-180)"/><path class="cls-3" d="M422.24,428h-17.5a1.15,1.15,0,0,1-1.15-1.15V394a1.15,1.15,0,0,1,1.15-1.15h17.5a1.15,1.15,0,0,1,1.15,1.15v32.82A1.15,1.15,0,0,1,422.24,428Zm-16.36-2.3h15.21V395.17H405.88V425.7Z"/><rect class="cls-6" x="122.47" y="518.75" width="262.57" height="8.75" transform="translate(507.51 1046.26) rotate(-180)"/><path class="cls-3" d="M385,528.65H122.47a1.15,1.15,0,0,1-1.15-1.15v-8.75a1.15,1.15,0,0,1,1.15-1.15H385a1.15,1.15,0,0,1,1.15,1.15v8.75A1.15,1.15,0,0,1,385,528.65Zm-261.43-2.3H383.89V519.9H123.62v6.46Z"/><rect class="cls-11" x="85.27" y="394.03" width="17.5" height="32.82" transform="translate(188.05 820.88) rotate(-180)"/><path class="cls-3" d="M102.78,428H85.27a1.15,1.15,0,0,1-1.15-1.15V394a1.15,1.15,0,0,1,1.15-1.15h17.5a1.15,1.15,0,0,1,1.15,1.15v32.82A1.15,1.15,0,0,1,102.78,428Zm-16.36-2.3h15.21V395.17H86.42V425.7Z"/><circle class="cls-6" cx="413.49" cy="409.34" r="10.94"/><path class="cls-3" d="M413.49,421.43a12.09,12.09,0,1,1,12.09-12.09A12.1,12.1,0,0,1,413.49,421.43Zm0-21.88a9.79,9.79,0,1,0,9.79,9.79A9.8,9.8,0,0,0,413.49,399.55Z"/><circle class="cls-6" cx="94.02" cy="409.34" r="10.94"/><path class="cls-3" d="M94,421.43a12.09,12.09,0,1,1,12.09-12.09A12.1,12.1,0,0,1,94,421.43Zm0-21.88a9.79,9.79,0,1,0,9.79,9.79A9.8,9.8,0,0,0,94,399.55Z"/><rect class="cls-11" x="0.66" y="374.33" width="56.89" height="134.94" transform="translate(58.22 883.6) rotate(-180)"/><path class="cls-3" d="M57.55,510.42H0.66a1.15,1.15,0,0,1-1.15-1.15V374.33a1.15,1.15,0,0,1,1.15-1.15H57.55a1.15,1.15,0,0,1,1.15,1.15V509.27A1.15,1.15,0,0,1,57.55,510.42Zm-55.74-2.3H56.41V375.48H1.81V508.12Z"/><polygon class="cls-8" points="57.55 509.27 46.61 509.27 29.11 402.78 0.66 374.33 57.55 374.33 57.55 509.27"/><rect class="cls-6" x="21.45" y="388.92" width="15.32" height="35.01" transform="translate(58.22 812.85) rotate(-180)"/><path class="cls-3" d="M36.77,425.08H21.45a1.15,1.15,0,0,1-1.15-1.15v-35a1.15,1.15,0,0,1,1.15-1.15H36.77a1.15,1.15,0,0,1,1.15,1.15v35A1.15,1.15,0,0,1,36.77,425.08Zm-14.17-2.3h13V390.07h-13v32.72Z"/><g class="cls-12"><line class="cls-6" x1="122.47" y1="380.97" x2="385.04" y2="380.97"/><path class="cls-3" d="M385,381.16H122.47a0.19,0.19,0,0,1,0-.38H385A0.19,0.19,0,0,1,385,381.16Z"/><line class="cls-6" x1="122.47" y1="387.86" x2="385.04" y2="387.86"/><path class="cls-3" d="M385,388.05H122.47a0.19,0.19,0,0,1,0-.38H385A0.19,0.19,0,0,1,385,388.05Z"/><line class="cls-6" x1="122.47" y1="394.75" x2="385.04" y2="394.75"/><path class="cls-3" d="M385,394.94H122.47a0.19,0.19,0,0,1,0-.38H385A0.19,0.19,0,0,1,385,394.94Z"/><line class="cls-6" x1="122.47" y1="401.64" x2="385.04" y2="401.64"/><path class="cls-3" d="M385,401.83H122.47a0.19,0.19,0,0,1,0-.38H385A0.19,0.19,0,0,1,385,401.83Z"/><line class="cls-6" x1="122.47" y1="408.53" x2="385.04" y2="408.53"/><path class="cls-3" d="M385,408.72H122.47a0.19,0.19,0,0,1,0-.38H385A0.19,0.19,0,0,1,385,408.72Z"/><line class="cls-6" x1="122.47" y1="415.42" x2="385.04" y2="415.42"/><path class="cls-3" d="M385,415.61H122.47a0.19,0.19,0,0,1,0-.38H385A0.19,0.19,0,0,1,385,415.61Z"/><line class="cls-6" x1="122.47" y1="422.31" x2="385.04" y2="422.31"/><path class="cls-3" d="M385,422.5H122.47a0.19,0.19,0,0,1,0-.38H385A0.19,0.19,0,0,1,385,422.5Z"/><line class="cls-6" x1="122.47" y1="429.2" x2="385.04" y2="429.2"/><path class="cls-3" d="M385,429.39H122.47a0.19,0.19,0,0,1,0-.38H385A0.19,0.19,0,0,1,385,429.39Z"/><line class="cls-6" x1="122.47" y1="436.08" x2="385.04" y2="436.08"/><path class="cls-3" d="M385,436.28H122.47a0.19,0.19,0,0,1,0-.38H385A0.19,0.19,0,0,1,385,436.28Z"/><line class="cls-6" x1="122.47" y1="442.97" x2="385.04" y2="442.97"/><path class="cls-3" d="M385,443.17H122.47a0.19,0.19,0,0,1,0-.38H385A0.19,0.19,0,0,1,385,443.17Z"/><line class="cls-6" x1="122.47" y1="449.86" x2="385.04" y2="449.86"/><path class="cls-3" d="M385,450.05H122.47a0.19,0.19,0,0,1,0-.38H385A0.19,0.19,0,0,1,385,450.05Z"/><line class="cls-6" x1="122.47" y1="456.75" x2="385.04" y2="456.75"/><path class="cls-3" d="M385,456.94H122.47a0.19,0.19,0,0,1,0-.38H385A0.19,0.19,0,0,1,385,456.94Z"/><line class="cls-6" x1="122.47" y1="463.64" x2="385.04" y2="463.64"/><path class="cls-3" d="M385,463.83H122.47a0.19,0.19,0,0,1,0-.38H385A0.19,0.19,0,0,1,385,463.83Z"/><line class="cls-6" x1="122.47" y1="470.53" x2="385.04" y2="470.53"/><path class="cls-3" d="M385,470.72H122.47a0.19,0.19,0,0,1,0-.38H385A0.19,0.19,0,0,1,385,470.72Z"/><line class="cls-6" x1="122.47" y1="477.42" x2="385.04" y2="477.42"/><path class="cls-3" d="M385,477.61H122.47a0.19,0.19,0,0,1,0-.38H385A0.19,0.19,0,0,1,385,477.61Z"/><line class="cls-6" x1="122.47" y1="484.31" x2="385.04" y2="484.31"/><path class="cls-3" d="M385,484.5H122.47a0.19,0.19,0,0,1,0-.38H385A0.19,0.19,0,0,1,385,484.5Z"/><line class="cls-6" x1="122.47" y1="491.2" x2="385.04" y2="491.2"/><path class="cls-3" d="M385,491.39H122.47a0.19,0.19,0,0,1,0-.38H385A0.19,0.19,0,0,1,385,491.39Z"/><line class="cls-6" x1="122.47" y1="498.09" x2="385.04" y2="498.09"/><path class="cls-3" d="M385,498.28H122.47a0.19,0.19,0,0,1,0-.38H385A0.19,0.19,0,0,1,385,498.28Z"/><line class="cls-6" x1="122.47" y1="504.98" x2="385.04" y2="504.98"/><path class="cls-3" d="M385,505.17H122.47a0.19,0.19,0,0,1,0-.38H385A0.19,0.19,0,0,1,385,505.17Z"/><line class="cls-6" x1="122.47" y1="511.86" x2="385.04" y2="511.86"/><path class="cls-3" d="M385,512.06H122.47a0.19,0.19,0,0,1,0-.38H385A0.19,0.19,0,0,1,385,512.06Z"/><line class="cls-6" x1="122.47" y1="518.75" x2="385.04" y2="518.75"/><path class="cls-3" d="M385,518.94H122.47a0.19,0.19,0,0,1,0-.38H385A0.19,0.19,0,0,1,385,518.94Z"/></g><rect class="cls-6" x="339.09" y="518.75" width="21.88" height="4.38" rx="1.63" ry="1.63" transform="translate(700.07 1041.88) rotate(180)"/><path class="cls-3" d="M359.34,524.28H340.73a2.78,2.78,0,0,1-2.78-2.78v-1.11a2.78,2.78,0,0,1,2.78-2.78h18.62a2.78,2.78,0,0,1,2.78,2.78v1.11A2.78,2.78,0,0,1,359.34,524.28Zm-18.62-4.38a0.49,0.49,0,0,0-.49.49v1.11a0.49,0.49,0,0,0,.49.48h18.62a0.49,0.49,0,0,0,.48-0.48v-1.11a0.49,0.49,0,0,0-.48-0.49H340.73Z"/><rect class="cls-6" x="146.54" y="518.75" width="21.88" height="4.38" rx="1.63" ry="1.63" transform="translate(314.96 1041.88) rotate(-180)"/><path class="cls-3" d="M166.79,524.28H148.17a2.78,2.78,0,0,1-2.78-2.78v-1.11a2.78,2.78,0,0,1,2.78-2.78h18.62a2.78,2.78,0,0,1,2.78,2.78v1.11A2.78,2.78,0,0,1,166.79,524.28Zm-18.62-4.38a0.49,0.49,0,0,0-.48.49v1.11a0.49,0.49,0,0,0,.48.48h18.62a0.49,0.49,0,0,0,.48-0.48v-1.11a0.49,0.49,0,0,0-.48-0.49H148.17Z"/><circle class="cls-6" cx="46.61" cy="448.73" r="4.38"/><path class="cls-3" d="M46.61,454.26a5.52,5.52,0,1,1,5.52-5.52A5.53,5.53,0,0,1,46.61,454.26Zm0-8.75a3.23,3.23,0,1,0,3.23,3.23A3.23,3.23,0,0,0,46.61,445.5Z"/><rect class="cls-11" x="47.34" y="138.01" width="39.39" height="13.13" transform="translate(134.07 289.15) rotate(-180)"/><path class="cls-3" d="M86.73,151.71H47.34a0.57,0.57,0,0,1-.57-0.57V138a0.57,0.57,0,0,1,.57-0.57H86.73a0.57,0.57,0,0,1,.57.57v13.13A0.57,0.57,0,0,1,86.73,151.71Zm-38.81-1.15H86.16v-12H47.92v12Z"/><rect class="cls-11" x="393.8" y="151.14" width="39.39" height="13.13" transform="translate(826.98 315.4) rotate(-180)"/><path class="cls-3" d="M433.18,164.84H393.79a0.57,0.57,0,0,1-.57-0.57V151.14a0.57,0.57,0,0,1,.57-0.57h39.39a0.57,0.57,0,0,1,.57.57v13.13A0.57,0.57,0,0,1,433.18,164.84Zm-38.81-1.15h38.24v-12H394.37v12Z"/><rect class="cls-11" x="374.1" y="138.01" width="39.39" height="13.13" transform="translate(787.59 289.15) rotate(-180)"/><path class="cls-3" d="M413.49,151.71H374.1a0.57,0.57,0,0,1-.57-0.57V138a0.57,0.57,0,0,1,.57-0.57h39.39a0.57,0.57,0,0,1,.57.57v13.13A0.57,0.57,0,0,1,413.49,151.71Zm-38.81-1.15h38.24v-12H374.68v12Z"/><rect class="cls-11" x="7.96" y="138.01" width="39.39" height="13.13" transform="translate(55.3 289.15) rotate(-180)"/><path class="cls-3" d="M47.34,151.71H8a0.57,0.57,0,0,1-.57-0.57V138A0.57,0.57,0,0,1,8,137.43H47.34a0.57,0.57,0,0,1,.57.57v13.13A0.57,0.57,0,0,1,47.34,151.71ZM8.53,150.56H46.77v-12H8.53v12Z"/><rect class="cls-11" x="-31.43" y="138.01" width="39.39" height="13.13" transform="translate(-23.47 289.15) rotate(-180)"/><path class="cls-3" d="M8,151.71H-31.43a0.57,0.57,0,0,1-.57-0.57V138a0.57,0.57,0,0,1,.57-0.57H8a0.57,0.57,0,0,1,.57.57v13.13A0.57,0.57,0,0,1,8,151.71Zm-38.81-1.15H7.38v-12H-30.85v12Z"/><rect class="cls-11" x="26.92" y="151.14" width="39.39" height="13.13" transform="translate(93.23 315.4) rotate(-180)"/><path class="cls-3" d="M66.31,164.84H26.92a0.57,0.57,0,0,1-.57-0.57V151.14a0.57,0.57,0,0,1,.57-0.57H66.31a0.57,0.57,0,0,1,.57.57v13.13A0.57,0.57,0,0,1,66.31,164.84ZM27.5,163.69H65.73v-12H27.5v12Z"/><rect class="cls-11" x="-12.46" y="151.14" width="39.39" height="13.13" transform="translate(14.46 315.4) rotate(-180)"/><path class="cls-3" d="M26.92,164.84H-12.46a0.57,0.57,0,0,1-.57-0.57V151.14a0.57,0.57,0,0,1,.57-0.57H26.92a0.57,0.57,0,0,1,.57.57v13.13A0.57,0.57,0,0,1,26.92,164.84Zm-38.81-1.15H26.35v-12H-11.89v12Z"/><polygon class="cls-8" points="36.77 423.93 21.45 423.93 27.17 396.54 36.77 388.92 36.77 423.93"/></g></svg>