<svg xmlns="http://www.w3.org/2000/svg" xmlns:xlink="http://www.w3.org/1999/xlink" viewBox="0 0 1792 768"><defs><style>.cls-1{fill:none;}.cls-2{isolation:isolate;}.cls-3{fill:#94809e;}.cls-4{fill:#333b80;}.cls-5{clip-path:url(#clip-path);}.cls-6{fill:#fff;}.cls-7,.cls-8{fill:#24265b;}.cls-8{opacity:0.2;}.cls-9{clip-path:url(#clip-path-2);}.cls-10{fill:#a9cf8a;}.cls-11{clip-path:url(#clip-path-3);}.cls-12{clip-path:url(#clip-path-4);}.cls-13{mix-blend-mode:overlay;}.cls-14{opacity:0.5;}.cls-15{opacity:0.25;}.cls-16{opacity:0.05;}.cls-17{opacity:0.1;}.cls-18{fill:#bfb8c4;}</style><clipPath id="clip-path"><rect class="cls-1" x="1850" y="-2" width="1796" height="654.28"/></clipPath><clipPath id="clip-path-2"><rect class="cls-1" x="1349.76" y="89.87" width="691.44" height="437.64"/></clipPath><clipPath id="clip-path-3"><rect class="cls-1" x="1397.9" y="387.46" width="262.57" height="140.04"/></clipPath><clipPath id="clip-path-4"><rect class="cls-1" width="1792" height="768"/></clipPath></defs><title>location</title><g class="cls-2"><g id="Floor"><polygon class="cls-3" points="1794 770 -2 770 -2 658 439.27 512 1794 512 1794 770"/><path class="cls-4" d="M1794,771.5H-2A1.5,1.5,0,0,1-3.5,770V658a1.5,1.5,0,0,1,1-1.42l441.27-146a1.51,1.51,0,0,1,.47-0.08H1794a1.5,1.5,0,0,1,1.5,1.5V770A1.5,1.5,0,0,1,1794,771.5Zm-1794.5-3h1793v-255h-1353L-0.5,659.08V768.5Z"/></g><g id="Scenery"><g class="cls-5"><rect class="cls-6" x="1349.76" y="89.87" width="691.44" height="437.64"/><path class="cls-7" d="M2041.21,528.65H1349.76a1.15,1.15,0,0,1-1.15-1.15V89.87a1.15,1.15,0,0,1,1.15-1.15h691.44a1.15,1.15,0,0,1,1.15,1.15V527.51A1.15,1.15,0,0,1,2041.21,528.65Zm-690.29-2.3h689.15V91H1350.91V526.36Z"/><polygon class="cls-8" points="2041.21 343.7 2041.21 387.46 1825.69 384.94 1825.69 505.99 1834.07 505.99 1834.07 514.38 1847.19 514.38 1847.19 527.51 1774.99 527.51 1774.99 343.7 2041.21 343.7"/><polygon class="cls-8" points="1761.49 352.45 1575.31 201.47 1414.06 347.92 1389.15 416.02 1380.4 446.53 1358.52 446.53 1349.76 355.99 1572.95 144.57 1801.97 356.83 1761.49 352.45"/><g class="cls-9"><path class="cls-7" d="M2040.55,114.74H1350.42a0.57,0.57,0,1,1,0-1.15h690.14A0.57,0.57,0,1,1,2040.55,114.74Z"/><path class="cls-7" d="M2040.55,128.51H1350.42a0.57,0.57,0,1,1,0-1.15h690.14A0.57,0.57,0,1,1,2040.55,128.51Z"/><path class="cls-7" d="M2040.55,142.29H1350.42a0.57,0.57,0,1,1,0-1.15h690.14A0.57,0.57,0,1,1,2040.55,142.29Z"/><path class="cls-7" d="M2040.55,156.07H1350.42a0.57,0.57,0,1,1,0-1.15h690.14A0.57,0.57,0,1,1,2040.55,156.07Z"/><path class="cls-7" d="M2040.55,169.85H1350.42a0.57,0.57,0,1,1,0-1.15h690.14A0.57,0.57,0,1,1,2040.55,169.85Z"/><path class="cls-7" d="M2040.55,183.63H1350.42a0.57,0.57,0,1,1,0-1.15h690.14A0.57,0.57,0,1,1,2040.55,183.63Z"/><path class="cls-7" d="M2040.55,197.4H1350.42a0.57,0.57,0,1,1,0-1.15h690.14A0.57,0.57,0,1,1,2040.55,197.4Z"/><path class="cls-7" d="M2040.55,211.18H1350.42a0.57,0.57,0,1,1,0-1.15h690.14A0.57,0.57,0,1,1,2040.55,211.18Z"/><path class="cls-7" d="M2040.55,225H1350.42a0.57,0.57,0,1,1,0-1.15h690.14A0.57,0.57,0,1,1,2040.55,225Z"/><path class="cls-7" d="M2040.55,238.74H1350.42a0.57,0.57,0,1,1,0-1.15h690.14A0.57,0.57,0,1,1,2040.55,238.74Z"/><path class="cls-7" d="M2040.55,252.52H1350.42a0.57,0.57,0,1,1,0-1.15h690.14A0.57,0.57,0,1,1,2040.55,252.52Z"/><path class="cls-7" d="M2040.55,266.3H1350.42a0.57,0.57,0,1,1,0-1.15h690.14A0.57,0.57,0,1,1,2040.55,266.3Z"/><path class="cls-7" d="M2040.55,280.07H1350.42a0.57,0.57,0,1,1,0-1.15h690.14A0.57,0.57,0,1,1,2040.55,280.07Z"/><path class="cls-7" d="M2040.55,293.85H1350.42a0.57,0.57,0,1,1,0-1.15h690.14A0.57,0.57,0,1,1,2040.55,293.85Z"/><path class="cls-7" d="M2040.55,307.63H1350.42a0.57,0.57,0,1,1,0-1.15h690.14A0.57,0.57,0,1,1,2040.55,307.63Z"/><path class="cls-7" d="M2040.55,321.41H1350.42a0.57,0.57,0,1,1,0-1.15h690.14A0.57,0.57,0,1,1,2040.55,321.41Z"/><path class="cls-7" d="M2040.55,335.19H1350.42a0.57,0.57,0,1,1,0-1.15h690.14A0.57,0.57,0,1,1,2040.55,335.19Z"/><path class="cls-7" d="M2040.55,349H1350.42a0.57,0.57,0,1,1,0-1.15h690.14A0.57,0.57,0,1,1,2040.55,349Z"/><path class="cls-7" d="M2040.55,362.74H1350.42a0.57,0.57,0,1,1,0-1.15h690.14A0.57,0.57,0,1,1,2040.55,362.74Z"/><path class="cls-7" d="M2040.55,376.52H1350.42a0.57,0.57,0,1,1,0-1.15h690.14A0.57,0.57,0,1,1,2040.55,376.52Z"/><path class="cls-7" d="M2040.55,390.3H1350.42a0.57,0.57,0,1,1,0-1.15h690.14A0.57,0.57,0,1,1,2040.55,390.3Z"/><path class="cls-7" d="M2040.55,404.08H1350.42a0.57,0.57,0,1,1,0-1.15h690.14A0.57,0.57,0,1,1,2040.55,404.08Z"/><path class="cls-7" d="M2040.55,417.85H1350.42a0.57,0.57,0,1,1,0-1.15h690.14A0.57,0.57,0,1,1,2040.55,417.85Z"/><path class="cls-7" d="M2040.55,431.63H1350.42a0.57,0.57,0,1,1,0-1.15h690.14A0.57,0.57,0,1,1,2040.55,431.63Z"/><path class="cls-7" d="M2040.55,445.41H1350.42a0.57,0.57,0,1,1,0-1.15h690.14A0.57,0.57,0,1,1,2040.55,445.41Z"/><path class="cls-7" d="M2040.55,459.19H1350.42a0.57,0.57,0,1,1,0-1.15h690.14A0.57,0.57,0,1,1,2040.55,459.19Z"/><path class="cls-7" d="M2040.55,473H1350.42a0.57,0.57,0,1,1,0-1.15h690.14A0.57,0.57,0,1,1,2040.55,473Z"/><path class="cls-7" d="M2040.55,486.75H1350.42a0.57,0.57,0,1,1,0-1.15h690.14A0.57,0.57,0,1,1,2040.55,486.75Z"/><path class="cls-7" d="M2040.55,500.52H1350.42a0.57,0.57,0,1,1,0-1.15h690.14A0.57,0.57,0,1,1,2040.55,500.52Z"/><path class="cls-7" d="M2040.55,514.3H1350.42a0.57,0.57,0,1,1,0-1.15h690.14A0.57,0.57,0,1,1,2040.55,514.3Z"/><path class="cls-7" d="M2040.55,528.08H1350.42a0.57,0.57,0,1,1,0-1.15h690.14A0.57,0.57,0,1,1,2040.55,528.08Z"/></g><polygon class="cls-10" points="2054.34 343.7 1801.97 343.7 1572.95 138.74 1341.01 343.7 1336.63 343.7 1336.63 63.61 2054.34 63.61 2054.34 343.7"/><path class="cls-7" d="M2054.33,344.85H1802a1.15,1.15,0,0,1-.77-0.29L1572.95,140.27,1341.77,344.56a1.15,1.15,0,0,1-.76.29h-4.38a1.15,1.15,0,0,1-1.15-1.15V63.61a1.15,1.15,0,0,1,1.15-1.15h717.7a1.15,1.15,0,0,1,1.15,1.15V343.7A1.15,1.15,0,0,1,2054.33,344.85Zm-251.92-2.3h250.78V64.76h-715.4V342.55h2.79l231.61-204.67a1.15,1.15,0,0,1,1.53,0Z"/><polygon class="cls-8" points="1336.63 63.61 1490.29 158.8 1740.7 192.09 1847.19 343.7 1791.03 343.7 1572.95 144.57 1353.07 343.7 1336.63 343.7 1336.63 63.61"/><rect class="cls-10" x="1436.56" y="214.6" width="39.39" height="13.13"/><path class="cls-7" d="M1475.94,228.3h-39.39a0.57,0.57,0,0,1-.57-0.57V214.6a0.57,0.57,0,0,1,.57-0.57h39.39a0.57,0.57,0,0,1,.57.57v13.13A0.57,0.57,0,0,1,1475.94,228.3Zm-38.81-1.15h38.24v-12h-38.24v12Z"/><rect class="cls-10" x="1456.25" y="201.47" width="39.39" height="13.13"/><path class="cls-7" d="M1495.64,215.17h-39.39a0.57,0.57,0,0,1-.57-0.57V201.47a0.57,0.57,0,0,1,.57-0.57h39.39a0.57,0.57,0,0,1,.57.57V214.6A0.57,0.57,0,0,1,1495.64,215.17ZM1456.83,214h38.24V202h-38.24v12Z"/><rect class="cls-10" x="1389.15" y="369.96" width="280.08" height="157.55"/><path class="cls-7" d="M1669.23,528.65H1389.15a1.15,1.15,0,0,1-1.15-1.15V370a1.15,1.15,0,0,1,1.15-1.15h280.08a1.15,1.15,0,0,1,1.15,1.15V527.51A1.15,1.15,0,0,1,1669.23,528.65Zm-278.93-2.3h277.78V371.1H1390.3V526.36Z"/><rect class="cls-10" x="1336.63" y="63.61" width="717.7" height="10.94"/><path class="cls-7" d="M2054.33,75.7h-717.7a1.15,1.15,0,0,1-1.15-1.15V63.61a1.15,1.15,0,0,1,1.15-1.15h717.7a1.15,1.15,0,0,1,1.15,1.15V74.55A1.15,1.15,0,0,1,2054.33,75.7Zm-716.55-2.3h715.4V64.76h-715.4V73.4Z"/><rect class="cls-6" x="1705.7" y="356.83" width="96.28" height="170.68"/><path class="cls-7" d="M1802,528.65H1705.7a1.15,1.15,0,0,1-1.15-1.15V356.83a1.15,1.15,0,0,1,1.15-1.15H1802a1.15,1.15,0,0,1,1.15,1.15V527.51A1.15,1.15,0,0,1,1802,528.65Zm-95.13-2.3h94V358h-94V526.36Z"/><rect class="cls-6" x="1397.9" y="387.46" width="262.57" height="140.04"/><path class="cls-7" d="M1660.47,528.65H1397.9a1.15,1.15,0,0,1-1.15-1.15v-140a1.15,1.15,0,0,1,1.15-1.15h262.57a1.15,1.15,0,0,1,1.15,1.15v140A1.15,1.15,0,0,1,1660.47,528.65ZM1399,526.36h260.28V388.61H1399V526.36Z"/><polygon class="cls-8" points="1453.76 420.29 1397.9 522.3 1397.9 387.46 1660.47 387.46 1453.76 420.29"/><rect class="cls-6" x="1696.94" y="518.75" width="113.78" height="8.75"/><path class="cls-7" d="M1810.72,528.65H1696.94a1.15,1.15,0,0,1-1.15-1.15v-8.75a1.15,1.15,0,0,1,1.15-1.15h113.78a1.15,1.15,0,0,1,1.15,1.15v8.75A1.15,1.15,0,0,1,1810.72,528.65Zm-112.63-2.3h111.48V519.9H1698.09v6.46Z"/><rect class="cls-6" x="1701.32" y="510" width="105.03" height="8.75"/><path class="cls-7" d="M1806.35,519.9h-105a1.15,1.15,0,0,1-1.15-1.15V510a1.15,1.15,0,0,1,1.15-1.15h105a1.15,1.15,0,0,1,1.15,1.15v8.75A1.15,1.15,0,0,1,1806.35,519.9Zm-103.88-2.3H1805.2v-6.46H1702.47v6.46Z"/><polygon class="cls-6" points="1592.56 135.82 1572.95 118.31 1553.35 135.82 1572.95 152.6 1592.56 135.82"/><path class="cls-7" d="M1573,153.74a1.15,1.15,0,0,1-.75-0.28l-19.61-16.78a1.15,1.15,0,0,1,0-1.73l19.61-17.51a1.15,1.15,0,0,1,1.53,0L1593.32,135a1.15,1.15,0,0,1,0,1.73l-19.61,16.78A1.15,1.15,0,0,1,1573,153.74Zm-17.86-17.94L1573,151.08l17.86-15.28L1573,119.85Z"/><rect class="cls-6" x="1791.03" y="356.83" width="10.94" height="152.44"/><path class="cls-7" d="M1802,510.42H1791a1.15,1.15,0,0,1-1.15-1.15V356.83a1.15,1.15,0,0,1,1.15-1.15H1802a1.15,1.15,0,0,1,1.15,1.15V509.27A1.15,1.15,0,0,1,1802,510.42Zm-9.79-2.3h8.64V358h-8.64V508.12Z"/><rect class="cls-6" x="1705.63" y="356.83" width="10.94" height="152.44"/><path class="cls-7" d="M1716.57,510.42h-10.94a1.15,1.15,0,0,1-1.15-1.15V356.83a1.15,1.15,0,0,1,1.15-1.15h10.94a1.15,1.15,0,0,1,1.15,1.15V509.27A1.15,1.15,0,0,1,1716.57,510.42Zm-9.79-2.3h8.64V358h-8.64V508.12Z"/><rect class="cls-6" x="1788.84" y="502.71" width="15.32" height="6.56"/><path class="cls-7" d="M1804.16,510.42h-15.32a1.15,1.15,0,0,1-1.15-1.15v-6.56a1.15,1.15,0,0,1,1.15-1.15h15.32a1.15,1.15,0,0,1,1.15,1.15v6.56A1.15,1.15,0,0,1,1804.16,510.42Zm-14.17-2.3h13v-4.27h-13v4.27Z"/><rect class="cls-6" x="1703.44" y="502.71" width="15.32" height="6.56"/><path class="cls-7" d="M1718.76,510.42h-15.32a1.15,1.15,0,0,1-1.15-1.15v-6.56a1.15,1.15,0,0,1,1.15-1.15h15.32a1.15,1.15,0,0,1,1.15,1.15v6.56A1.15,1.15,0,0,1,1718.76,510.42Zm-14.17-2.3h13v-4.27h-13v4.27Z"/><rect class="cls-6" x="1701.32" y="352.45" width="105.03" height="13.13"/><path class="cls-7" d="M1806.35,366.73h-105a1.15,1.15,0,0,1-1.15-1.15V352.45a1.15,1.15,0,0,1,1.15-1.15h105a1.15,1.15,0,0,1,1.15,1.15v13.13A1.15,1.15,0,0,1,1806.35,366.73Zm-103.88-2.3H1805.2V353.6H1702.47v10.83Z"/><polygon class="cls-6" points="1778.63 347.92 1572.95 164.27 1367.27 347.92 1343.93 347.92 1572.95 138.74 1806.69 347.92 1778.63 347.92"/><path class="cls-7" d="M1806.69,349.07h-28.06a1.15,1.15,0,0,1-.76-0.29L1573,165.81,1368,348.77a1.15,1.15,0,0,1-.76.29h-23.34a1.15,1.15,0,0,1-.77-2l229-209.18a1.15,1.15,0,0,1,1.54,0l233.74,209.18A1.15,1.15,0,0,1,1806.69,349.07Zm-27.62-2.3h24.61L1573,140.29,1346.89,346.77h19.94l205.36-183.36a1.15,1.15,0,0,1,1.53,0Z"/><polygon class="cls-6" points="1572.95 124.88 1327.88 343.7 1327.88 356.83 1367.27 356.83 1367.27 334.79 1572.95 151.14 1778.63 334.79 1778.63 356.83 1818.02 356.83 1818.02 343.7 1572.95 124.88"/><path class="cls-7" d="M1818,358h-39.39a1.15,1.15,0,0,1-1.15-1.15V335.3L1573,152.68,1368.42,335.3v21.52a1.15,1.15,0,0,1-1.15,1.15h-39.39a1.15,1.15,0,0,1-1.15-1.15V343.7a1.15,1.15,0,0,1,.38-0.86L1572.19,124a1.15,1.15,0,0,1,1.53,0l245.07,218.82a1.15,1.15,0,0,1,.38.86v13.13A1.15,1.15,0,0,1,1818,358Zm-38.24-2.3h37.09V344.21L1573,126.42,1329,344.21v11.47h37.09V334.79a1.15,1.15,0,0,1,.38-0.86l205.68-183.65a1.15,1.15,0,0,1,1.53,0L1779.4,333.93a1.15,1.15,0,0,1,.38.86v20.89Z"/><rect class="cls-10" x="1360.7" y="394.03" width="17.5" height="32.82"/><path class="cls-7" d="M1378.21,428h-17.5a1.15,1.15,0,0,1-1.15-1.15V394a1.15,1.15,0,0,1,1.15-1.15h17.5a1.15,1.15,0,0,1,1.15,1.15v32.82A1.15,1.15,0,0,1,1378.21,428Zm-16.36-2.3h15.21V395.17h-15.21V425.7Z"/><rect class="cls-6" x="1397.9" y="518.75" width="262.57" height="8.75"/><path class="cls-7" d="M1660.47,528.65H1397.9a1.15,1.15,0,0,1-1.15-1.15v-8.75a1.15,1.15,0,0,1,1.15-1.15h262.57a1.15,1.15,0,0,1,1.15,1.15v8.75A1.15,1.15,0,0,1,1660.47,528.65ZM1399,526.36h260.28V519.9H1399v6.46Z"/><rect class="cls-10" x="1680.17" y="394.03" width="17.5" height="32.82"/><path class="cls-7" d="M1697.67,428h-17.5a1.15,1.15,0,0,1-1.15-1.15V394a1.15,1.15,0,0,1,1.15-1.15h17.5a1.15,1.15,0,0,1,1.15,1.15v32.82A1.15,1.15,0,0,1,1697.67,428Zm-16.36-2.3h15.21V395.17h-15.21V425.7Z"/><circle class="cls-6" cx="1369.46" cy="409.34" r="10.94"/><path class="cls-7" d="M1369.46,421.43a12.09,12.09,0,1,1,12.09-12.09A12.1,12.1,0,0,1,1369.46,421.43Zm0-21.88a9.79,9.79,0,1,0,9.79,9.79A9.8,9.8,0,0,0,1369.46,399.55Z"/><circle class="cls-6" cx="1688.92" cy="409.34" r="10.94"/><path class="cls-7" d="M1688.92,421.43A12.09,12.09,0,1,1,1701,409.34,12.1,12.1,0,0,1,1688.92,421.43Zm0-21.88a9.79,9.79,0,1,0,9.79,9.79A9.8,9.8,0,0,0,1688.92,399.55Z"/><rect class="cls-10" x="1725.39" y="374.33" width="56.89" height="134.94"/><path class="cls-7" d="M1782.28,510.42h-56.89a1.15,1.15,0,0,1-1.15-1.15V374.33a1.15,1.15,0,0,1,1.15-1.15h56.89a1.15,1.15,0,0,1,1.15,1.15V509.27A1.15,1.15,0,0,1,1782.28,510.42Zm-55.74-2.3h54.59V375.48h-54.59V508.12Z"/><polygon class="cls-8" points="1725.39 509.27 1736.33 509.27 1753.83 402.78 1782.28 374.33 1725.39 374.33 1725.39 509.27"/><rect class="cls-6" x="1746.18" y="388.92" width="15.32" height="35.01"/><path class="cls-7" d="M1761.49,425.08h-15.32a1.15,1.15,0,0,1-1.15-1.15v-35a1.15,1.15,0,0,1,1.15-1.15h15.32a1.15,1.15,0,0,1,1.15,1.15v35A1.15,1.15,0,0,1,1761.49,425.08Zm-14.17-2.3h13V390.07h-13v32.72Z"/><g class="cls-11"><path class="cls-7" d="M1660.47,381.16H1397.9a0.19,0.19,0,0,1,0-.38h262.57A0.19,0.19,0,1,1,1660.47,381.16Z"/><path class="cls-7" d="M1660.47,388.05H1397.9a0.19,0.19,0,0,1,0-.38h262.57A0.19,0.19,0,1,1,1660.47,388.05Z"/><path class="cls-7" d="M1660.47,394.94H1397.9a0.19,0.19,0,0,1,0-.38h262.57A0.19,0.19,0,1,1,1660.47,394.94Z"/><path class="cls-7" d="M1660.47,401.83H1397.9a0.19,0.19,0,0,1,0-.38h262.57A0.19,0.19,0,1,1,1660.47,401.83Z"/><path class="cls-7" d="M1660.47,408.72H1397.9a0.19,0.19,0,0,1,0-.38h262.57A0.19,0.19,0,1,1,1660.47,408.72Z"/><path class="cls-7" d="M1660.47,415.61H1397.9a0.19,0.19,0,0,1,0-.38h262.57A0.19,0.19,0,1,1,1660.47,415.61Z"/><path class="cls-7" d="M1660.47,422.5H1397.9a0.19,0.19,0,0,1,0-.38h262.57A0.19,0.19,0,1,1,1660.47,422.5Z"/><path class="cls-7" d="M1660.47,429.39H1397.9a0.19,0.19,0,0,1,0-.38h262.57A0.19,0.19,0,1,1,1660.47,429.39Z"/><path class="cls-7" d="M1660.47,436.28H1397.9a0.19,0.19,0,0,1,0-.38h262.57A0.19,0.19,0,1,1,1660.47,436.28Z"/><path class="cls-7" d="M1660.47,443.17H1397.9a0.19,0.19,0,0,1,0-.38h262.57A0.19,0.19,0,1,1,1660.47,443.17Z"/><path class="cls-7" d="M1660.47,450.05H1397.9a0.19,0.19,0,0,1,0-.38h262.57A0.19,0.19,0,1,1,1660.47,450.05Z"/><path class="cls-7" d="M1660.47,456.94H1397.9a0.19,0.19,0,0,1,0-.38h262.57A0.19,0.19,0,1,1,1660.47,456.94Z"/><path class="cls-7" d="M1660.47,463.83H1397.9a0.19,0.19,0,0,1,0-.38h262.57A0.19,0.19,0,1,1,1660.47,463.83Z"/><path class="cls-7" d="M1660.47,470.72H1397.9a0.19,0.19,0,0,1,0-.38h262.57A0.19,0.19,0,1,1,1660.47,470.72Z"/><path class="cls-7" d="M1660.47,477.61H1397.9a0.19,0.19,0,0,1,0-.38h262.57A0.19,0.19,0,1,1,1660.47,477.61Z"/><path class="cls-7" d="M1660.47,484.5H1397.9a0.19,0.19,0,0,1,0-.38h262.57A0.19,0.19,0,1,1,1660.47,484.5Z"/><path class="cls-7" d="M1660.47,491.39H1397.9a0.19,0.19,0,0,1,0-.38h262.57A0.19,0.19,0,1,1,1660.47,491.39Z"/><path class="cls-7" d="M1660.47,498.28H1397.9a0.19,0.19,0,0,1,0-.38h262.57A0.19,0.19,0,1,1,1660.47,498.28Z"/><path class="cls-7" d="M1660.47,505.17H1397.9a0.19,0.19,0,0,1,0-.38h262.57A0.19,0.19,0,1,1,1660.47,505.17Z"/><path class="cls-7" d="M1660.47,512.06H1397.9a0.19,0.19,0,0,1,0-.38h262.57A0.19,0.19,0,1,1,1660.47,512.06Z"/><path class="cls-7" d="M1660.47,518.94H1397.9a0.19,0.19,0,0,1,0-.38h262.57A0.19,0.19,0,1,1,1660.47,518.94Z"/></g><rect class="cls-6" x="1421.97" y="518.75" width="21.88" height="4.38" rx="1.63" ry="1.63"/><path class="cls-7" d="M1442.22,524.28H1423.6a2.78,2.78,0,0,1-2.78-2.78v-1.11a2.78,2.78,0,0,1,2.78-2.78h18.62a2.78,2.78,0,0,1,2.78,2.78v1.11A2.78,2.78,0,0,1,1442.22,524.28Zm-18.62-4.38a0.49,0.49,0,0,0-.48.49v1.11a0.49,0.49,0,0,0,.48.48h18.62a0.49,0.49,0,0,0,.48-0.48v-1.11a0.49,0.49,0,0,0-.48-0.49H1423.6Z"/><rect class="cls-6" x="1614.52" y="518.75" width="21.88" height="4.38" rx="1.63" ry="1.63"/><path class="cls-7" d="M1634.77,524.28h-18.62a2.78,2.78,0,0,1-2.78-2.78v-1.11a2.78,2.78,0,0,1,2.78-2.78h18.62a2.78,2.78,0,0,1,2.78,2.78v1.11A2.78,2.78,0,0,1,1634.77,524.28Zm-18.62-4.38a0.49,0.49,0,0,0-.48.49v1.11a0.49,0.49,0,0,0,.48.48h18.62a0.49,0.49,0,0,0,.48-0.48v-1.11a0.49,0.49,0,0,0-.48-0.49h-18.62Z"/><circle class="cls-6" cx="1736.33" cy="448.73" r="4.38"/><path class="cls-7" d="M1736.33,454.26a5.52,5.52,0,1,1,5.52-5.52A5.53,5.53,0,0,1,1736.33,454.26Zm0-8.75a3.23,3.23,0,1,0,3.23,3.23A3.23,3.23,0,0,0,1736.33,445.5Z"/><rect class="cls-10" x="1696.21" y="138.01" width="39.39" height="13.13"/><path class="cls-7" d="M1735.6,151.71h-39.39a0.57,0.57,0,0,1-.57-0.57V138a0.57,0.57,0,0,1,.57-0.57h39.39a0.57,0.57,0,0,1,.57.57v13.13A0.57,0.57,0,0,1,1735.6,151.71Zm-38.81-1.15H1735v-12h-38.24v12Z"/><rect class="cls-10" x="1349.76" y="151.14" width="39.39" height="13.13"/><path class="cls-7" d="M1389.15,164.84h-39.39a0.57,0.57,0,0,1-.57-0.57V151.14a0.57,0.57,0,0,1,.57-0.57h39.39a0.57,0.57,0,0,1,.57.57v13.13A0.57,0.57,0,0,1,1389.15,164.84Zm-38.81-1.15h38.24v-12h-38.24v12Z"/><rect class="cls-10" x="1369.46" y="138.01" width="39.39" height="13.13"/><path class="cls-7" d="M1408.84,151.71h-39.39a0.57,0.57,0,0,1-.57-0.57V138a0.57,0.57,0,0,1,.57-0.57h39.39a0.57,0.57,0,0,1,.57.57v13.13A0.57,0.57,0,0,1,1408.84,151.71ZM1370,150.56h38.24v-12H1370v12Z"/><rect class="cls-10" x="1735.6" y="138.01" width="39.39" height="13.13"/><path class="cls-7" d="M1775,151.71H1735.6a0.57,0.57,0,0,1-.57-0.57V138a0.57,0.57,0,0,1,.57-0.57H1775a0.57,0.57,0,0,1,.57.57v13.13A0.57,0.57,0,0,1,1775,151.71Zm-38.81-1.15h38.24v-12h-38.24v12Z"/><rect class="cls-10" x="1774.99" y="138.01" width="39.39" height="13.13"/><path class="cls-7" d="M1814.37,151.71H1775a0.57,0.57,0,0,1-.57-0.57V138a0.57,0.57,0,0,1,.57-0.57h39.39a0.57,0.57,0,0,1,.57.57v13.13A0.57,0.57,0,0,1,1814.37,151.71Zm-38.81-1.15h38.24v-12h-38.24v12Z"/><rect class="cls-10" x="1716.64" y="151.14" width="39.39" height="13.13"/><path class="cls-7" d="M1756,164.84h-39.39a0.57,0.57,0,0,1-.57-0.57V151.14a0.57,0.57,0,0,1,.57-0.57H1756a0.57,0.57,0,0,1,.57.57v13.13A0.57,0.57,0,0,1,1756,164.84Zm-38.81-1.15h38.24v-12h-38.24v12Z"/><rect class="cls-10" x="1756.02" y="151.14" width="39.39" height="13.13"/><path class="cls-7" d="M1795.41,164.84H1756a0.57,0.57,0,0,1-.57-0.57V151.14a0.57,0.57,0,0,1,.57-0.57h39.39a0.57,0.57,0,0,1,.57.57v13.13A0.57,0.57,0,0,1,1795.41,164.84Zm-38.81-1.15h38.24v-12H1756.6v12Z"/><polygon class="cls-8" points="1746.18 423.93 1761.49 423.93 1755.78 396.54 1746.18 388.92 1746.18 423.93"/></g><g class="cls-12"><path class="cls-3" d="M295,479.92v95.84a18,18,0,0,0,11.38,4.08A19,19,0,0,0,318,575.75v-160"/><path class="cls-7" d="M306.42,581.33a19.38,19.38,0,0,1-12.4-4.48,1.5,1.5,0,0,1-.48-1.1V479.92a1.5,1.5,0,0,1,3,0V575a16.83,16.83,0,0,0,9.88,3.3A17.82,17.82,0,0,0,316.53,575V415.78a1.5,1.5,0,1,1,3,0v160a1.5,1.5,0,0,1-.51,1.13A20.44,20.44,0,0,1,306.42,581.33Z"/><path class="cls-3" d="M260.7,500.84v95.84a18,18,0,0,0,11.38,4.08,19,19,0,0,0,11.62-4.08v-160"/><path class="cls-7" d="M272.08,602.26a19.38,19.38,0,0,1-12.4-4.48,1.5,1.5,0,0,1-.48-1.1V500.84a1.5,1.5,0,0,1,3,0V596a16.83,16.83,0,0,0,9.88,3.3A17.68,17.68,0,0,0,282.2,596V436.7a1.5,1.5,0,0,1,3,0v160a1.5,1.5,0,0,1-.51,1.13A20.44,20.44,0,0,1,272.08,602.26Z"/><line class="cls-3" x1="441.12" x2="439.27" y2="512"/><path class="cls-7" d="M439.27,513.5h0a1.5,1.5,0,0,1-1.49-1.51L439.62,0a1.5,1.5,0,0,1,1.5-1.49h0A1.5,1.5,0,0,1,442.62,0l-1.85,512A1.5,1.5,0,0,1,439.27,513.5Z"/><polygon class="cls-3" points="92 60.62 92 305.5 239 278.57 239 47.86 92 60.62"/><path class="cls-7" d="M92,307a1.5,1.5,0,0,1-1.5-1.5V60.62a1.5,1.5,0,0,1,1.37-1.49l147-12.76a1.5,1.5,0,0,1,1.63,1.49V278.57a1.5,1.5,0,0,1-1.23,1.48L92.27,307ZM93.5,62V303.71l144-26.38V49.5Z"/><g class="cls-13"><path class="cls-14" d="M562.81,56.55V179.4a8.69,8.69,0,0,0,8.69,8.69h100a8.69,8.69,0,0,0,8.69-8.69V56.55a8.69,8.69,0,0,0-8.69-8.69h-100A8.69,8.69,0,0,0,562.81,56.55Zm94.26,106.32H586a8.69,8.69,0,0,1-8.69-8.69V73.83A8.69,8.69,0,0,1,586,65.14h71.1a8.69,8.69,0,0,1,8.69,8.69v80.35A8.69,8.69,0,0,1,657.07,162.88Z"/><rect class="cls-14" x="595.24" y="140.29" width="51.76" height="8.84" rx="3.32" ry="3.32"/><circle class="cls-15" cx="741.32" cy="266" r="12.01"/><path class="cls-14" d="M905.61-64.83V512.5H1233V-64.83H905.61Zm314.06,12.68v79H919.31v-79h300.37ZM919.31,282.37V163.49h300.37V282.37H919.31Zm300.37,11.38V406.89H919.31V293.75h300.37ZM919.31,152.12V38.27h300.37V152.12H919.31Zm0,347.09V418.27h300.37V499.2H919.31Z"/><polygon class="cls-15" points="384 324.83 431.09 312.6 384 230.9 384 324.83"/><path class="cls-15" d="M494.54,424.79L384,460.47v49.72l75.38-24.33V596s1.41,4.74,10.27,4.74S480.4,596,480.4,596V479.07l8.5-2.74a8.14,8.14,0,0,0,5.64-7.74V424.79Z"/><polygon class="cls-15" points="494.54 432.01 384 468.67 384 460.47 494.54 424.79 494.54 432.01"/><path class="cls-14" d="M569.14,331.72c-6.33-1.58-105.1-22.79-105.1-22.79s-11.32-1.82-17.07-.34c-38.71,9.93-63,16.23-63,16.23v100H494.54v43.48a8.56,8.56,0,0,1-5.93,8.15v95.84A18,18,0,0,0,500,576.34a19,19,0,0,0,11.62-4.08v-160L546,401.2v62.58c6.49-2.29,13.16-4.37,16.65-4.37h4.23a3.55,3.55,0,0,1,1-2.24l-0.33.12v-63l3.76-1.21s4.91-3.16,4.91-6V340.22C576.25,336.33,575.46,333.31,569.14,331.72ZM526,362.79l4.84-.83h23.45v2.73l-4.84,1.17h-2.35v-2.45H526v-0.61Zm-36.35-28,4.84-.83h23.45v2.73l-4.84,1.17h-2.35V335.4H489.64v-0.61Zm-8.53,2.37,4.84-.83h23.45v2.73l-4.84,1.17H502.2v-2.45H481.1v-0.61Zm-8.53,2.37,4.84-.83h23.45v2.73L496,342.59h-2.35v-2.45H472.57v-0.61ZM464,341.9l4.84-.83h23.45v2.73L487.48,345h-2.35v-2.45H464V341.9Zm-8.53,2.37,4.84-.83h23.45v2.73L479,347.33H476.6v-2.45H455.5v-0.61ZM447,346.64l4.84-.83h23.45v2.73l-4.84,1.17h-2.35v-2.45H447v-0.61ZM438.44,349l4.84-.83h23.45v2.73l-4.84,1.17h-2.35v-2.45H438.44V349Zm-8.53,2.37,4.84-.83h23.45v2.73l-4.84,1.17H451V352H429.9v-0.61Zm-8.53,2.37,4.84-.83h23.45v2.73l-4.84,1.17h-2.35v-2.45H421.37v-0.61Zm-8.53,3v-0.61l4.84-.83h23.45V358l-4.84,1.17H412.84v-2.45Zm81.71,24.54-4.84,1.17H466.25v-3.06l4.84-.83h23.45v2.73Zm8.53-2.37-4.84,1.17h-2.35v-2.45H474.79V377l4.84-.83h23.45v2.73Zm8.53-2.37-4.84,1.17h-2.35v-2.45H483.32v-0.61l4.84-.83h23.45v2.73Zm8.53-2.37-4.84,1.17h-2.35v-2.45H491.85v-0.61l4.84-.83h23.45v2.73Zm8.53-2.37L523.84,373h-2.35v-2.45H500.39V369.9l4.84-.83h23.45v2.73Zm8.53-2.37-4.84,1.17H530v-2.45H508.92v-0.61l4.84-.83h23.45v2.73Zm8.53-2.37-4.84,1.17h-2.35v-2.45H517.45v-0.61l4.84-.83h23.45v2.73Zm17.07-4.74L558,363.48h-2.35V361H534.52v-0.61l4.84-.83h23.45v2.73Zm8.53-2.37-4.84,1.17h-2.35v-2.45H543.05v-0.61l4.84-.83h23.45v2.73Z"/><path class="cls-14" d="M657.31,447.57a1.76,1.76,0,0,1,.79,2l-27.78,10a17.13,17.13,0,0,1-6.06,1.25h-3.07a1.71,1.71,0,0,1,.17,1.41l-27.78,10a17.13,17.13,0,0,1-6.06,1.25H531.6c-1.62,0-1.88-1.72-.78-3.27l-13.65,4.82v8h4.44v88.65a11.78,11.78,0,0,0,5.85,1.9,11.55,11.55,0,0,0,5.81-1.9V483.11H546v69.73s5,4.08,10.79,4.08,10.79-4.08,10.79-4.08V483.11h10.92v88.65a11.78,11.78,0,0,0,5.85,1.9,11.55,11.55,0,0,0,5.81-1.9V483.11h2.56l54.42-20v84.6a11.78,11.78,0,0,0,5.85,1.9,11.55,11.55,0,0,0,5.81-1.9V458.78l6.09-2.24v-9h-7.61Z"/><path class="cls-15" d="M653.32,446.73H599.4c-6,0-21.37,6.16-29.13,8.9-2.25.8-3.37,2.52-3.38,3.77h-4.23c-6,0-21.37,6.16-29.13,8.9-3.75,1.33-4.38,5.23-1.94,5.23h55.91a17.13,17.13,0,0,0,6.06-1.25l27.78-10a1.71,1.71,0,0,0-.17-1.41h3.07a17.13,17.13,0,0,0,6.06-1.25l27.78-10S659.2,446.73,653.32,446.73Z"/><g class="cls-16"><rect x="533.28" y="483.11" width="12.74" height="29.39"/><polygon points="590.17 483.11 590.17 512.5 647.16 512.5 647.16 463.08 592.73 483.11 590.17 483.11"/><polygon points="384 424.79 384 460.47 494.54 424.79 384 424.79"/><polygon points="480.4 512.5 488.61 512.5 488.61 476.43 480.4 479.07 480.4 512.5"/><rect x="567.58" y="483.11" width="10.92" height="29.39"/><path d="M511.61,512.5h10V483.11h-4.44v-8l13.65-4.82a5.57,5.57,0,0,1,2.72-2c3.25-1.15,7.82-2.89,12.49-4.53h0V401.2l-34.4,11.09V512.5Z"/><path d="M665.76,65.14H577.27v97.74h88.49V65.14Zm-18.76,84H595.24v-8.84H647v8.84Z"/></g><path class="cls-14" d="M1408,169.74l-31.89-15.56a16.35,16.35,0,0,0-21.39,8.78l-59.19,141.69a16.35,16.35,0,0,0,8.78,21.39L1408,370.65V169.74Z"/><polygon class="cls-15" points="1408 436.45 1247.76 436.45 1290.43 500.18 1408 500.18 1408 436.45"/><path class="cls-14" d="M1290.43,500.18l-41.79-62.42-0.7-1.31v0.27l-0.18-.27v17.86l0.18,0.27V652.62a14.17,14.17,0,0,0,7.17,1.9,13.47,13.47,0,0,0,7.05-1.9V475.71l28.27,42V716.35a14.28,14.28,0,0,0,14.22,0V517.24H1408V500.18H1290.43Z"/><polygon class="cls-17" points="919.41 -52.15 919.41 -41.27 938.09 -41.27 953.54 -36.12 953.54 -23.4 962.85 -23.4 962.85 -34.72 1176.23 -34.72 1176.23 -24.64 1181.36 -29.76 1213.47 -29.76 1219.23 -24 1219.23 26.89 1219.68 26.89 1219.68 -52.15 919.41 -52.15"/><polygon class="cls-17" points="919.41 38.27 919.41 64.72 928.59 64.72 928.59 62.62 939.36 62.62 939.36 72.5 945.95 72.5 945.95 83.27 959.41 83.27 959.41 97.34 962.85 97.34 962.85 53.55 1176.23 53.55 1176.23 97.94 1185.1 97.94 1185.1 101.53 1196.48 101.53 1196.48 99.14 1212.64 99.14 1212.64 103.03 1219.23 103.03 1219.23 152.12 1219.68 152.12 1219.68 38.27 919.41 38.27"/><polygon class="cls-17" points="1176.23 163.5 962.85 163.5 962.73 163.5 919.41 163.5 919.41 183.26 926.91 183.26 932.99 186.91 932.99 197.25 935.72 197.25 937.85 199.38 937.85 196.95 946.67 196.95 946.67 202.42 951.23 206.98 951.23 200.9 962.85 200.9 962.85 177.56 1176.23 177.56 1176.23 223.7 1189.27 223.7 1189.27 240.12 1211.77 240.12 1211.77 217.01 1219.68 217.01 1219.68 163.5 1176.23 163.5"/><polygon class="cls-17" points="919.41 293.75 919.41 326.32 933.29 326.32 933.29 330.58 937.24 326.63 947.58 326.63 947.58 330.89 959.74 330.89 959.74 328.76 962.85 328.76 962.85 305.47 1176.23 305.47 1176.23 340.31 1183.8 340.31 1183.8 347.91 1219.68 347.91 1219.68 293.75 919.41 293.75"/><polygon class="cls-17" points="919.41 418.27 919.41 460.46 955.18 460.46 955.18 452.86 962.85 452.86 962.85 427.06 1176.23 427.06 1176.23 441.31 1179.24 441.31 1179.24 443.44 1191.4 443.44 1191.4 439.18 1201.74 439.18 1205.69 443.13 1205.69 438.88 1219.68 438.88 1219.68 418.27 919.41 418.27"/><polygon class="cls-15" points="1219.68 499.2 1219.68 438.88 1205.69 438.88 1205.69 443.13 1201.74 439.18 1191.4 439.18 1191.4 443.44 1179.24 443.44 1179.24 441.31 1166.47 441.31 1166.47 436.45 1150.36 436.45 1150.36 441.31 1143.37 441.31 1143.37 438.88 1126.65 438.88 1126.65 442.22 1116.92 442.22 1116.92 448.3 1105.06 448.3 1105.06 459.25 1099.59 459.25 1099.59 448.91 1084.69 448.91 1084.69 459.55 1077.09 459.55 1077.09 465.02 1063.11 465.02 1063.11 453.77 1058.85 453.77 1058.85 446.48 1047.6 446.48 1047.6 448.61 1025.1 448.61 1025.1 454.99 1010.21 454.99 1010.21 444.05 992.88 444.05 992.88 449.52 982.24 449.52 982.24 445.87 967.95 445.87 967.95 452.86 955.18 452.86 955.18 460.46 919.31 460.46 919.31 499.2 1219.68 499.2"/><polygon class="cls-15" points="919.31 406.89 919.31 326.32 933.29 326.32 933.29 330.58 937.24 326.63 947.58 326.63 947.58 330.89 959.74 330.89 959.74 328.76 972.51 328.76 972.51 323.89 988.62 323.89 988.62 328.76 995.62 328.76 995.62 326.32 1012.34 326.32 1012.34 329.67 1022.06 329.67 1022.06 335.75 1033.92 335.75 1033.92 346.69 1039.39 346.69 1039.39 336.36 1054.29 336.36 1054.29 347 1061.89 347 1061.89 352.47 1075.88 352.47 1075.88 341.22 1080.13 341.22 1080.13 333.93 1091.38 333.93 1091.38 336.05 1113.88 336.05 1113.88 342.44 1128.77 342.44 1128.77 331.49 1146.1 331.49 1146.1 336.97 1156.74 336.97 1156.74 333.32 1171.03 333.32 1171.03 340.31 1183.8 340.31 1183.8 347.91 1219.68 347.91 1219.68 406.89 919.31 406.89"/><polygon class="cls-15" points="919.31 282.38 919.31 183.26 926.91 183.26 932.99 186.91 932.99 197.25 935.72 197.25 937.85 199.38 937.85 196.95 946.67 196.95 946.67 202.42 951.23 206.98 951.23 200.9 968.25 200.9 968.25 206.67 986.49 206.67 990.75 210.93 999.57 210.93 999.57 207.89 1011.73 207.89 1011.73 214.58 1014.92 211.39 1017.2 211.39 1017.2 213.06 1026.02 213.06 1026.02 211.24 1029.97 211.24 1029.97 209.71 1040 209.71 1040 212.75 1049.73 212.75 1049.73 223.09 1058.55 223.09 1058.55 208.5 1067.97 208.5 1067.97 205.46 1085.3 205.46 1085.3 214.28 1105.97 214.28 1105.97 220.05 1121.48 220.05 1121.48 217.01 1128.47 217.01 1128.47 225.52 1145.8 225.52 1145.8 222.79 1158.26 222.79 1158.26 225.22 1165.87 225.22 1165.87 220.96 1176.2 220.96 1176.2 223.7 1189.27 223.7 1189.27 240.12 1211.77 240.12 1211.77 217.01 1219.68 217.01 1219.68 282.38 919.31 282.38"/><polygon class="cls-15" points="919.31 152.12 919.31 64.72 928.59 64.72 928.59 62.62 939.36 62.62 939.36 72.5 945.95 72.5 945.95 83.27 959.41 83.27 959.41 97.34 967.8 97.34 967.8 115.6 972.29 115.6 972.29 112.61 977.08 112.61 977.08 107.37 980.67 107.37 980.67 100.33 994.14 100.33 1033.35 100.33 1033.35 103.33 1036.04 103.33 1036.04 101.23 1045.32 101.23 1045.32 127.87 1054.6 127.87 1054.6 100.63 1082.14 100.63 1082.14 98.54 1096.8 98.54 1096.8 101.83 1118.36 101.83 1118.36 105.42 1126.44 105.42 1126.44 98.84 1139.31 98.84 1139.31 101.23 1146.19 101.23 1146.19 103.03 1155.47 103.03 1155.47 98.24 1162.36 98.24 1162.36 101.53 1171.93 101.53 1171.93 97.94 1185.1 97.94 1185.1 101.53 1196.48 101.53 1196.48 99.14 1212.64 99.14 1212.64 103.03 1219.23 103.03 1219.23 152.12 919.31 152.12"/><polygon class="cls-15" points="919.31 26.89 919.31 -41.27 938.09 -41.27 953.54 -36.12 953.54 -23.4 1070.78 -23.4 1070.78 -0.98 1075.63 -3.4 1075.63 -19.46 1081.23 -25.07 1117.74 -25.07 1117.74 -15.22 1119.86 -15.22 1119.86 -20.07 1122.89 -23.1 1127.43 -23.1 1127.43 -19.16 1131.67 -23.4 1138.34 -23.4 1138.34 -26.73 1142.43 -30.82 1169.24 -30.82 1175.83 -24.23 1181.36 -29.76 1213.47 -29.76 1219.23 -24 1219.23 26.89 919.31 26.89"/><polygon class="cls-15" points="1253.01 45.33 1254.4 436.45 1266.22 436.45 1264.83 57.39 1408 57.39 1408 45.33 1253.01 45.33"/><polygon class="cls-15" points="1262.16 475.71 1262.16 512.14 1266.45 512.14 1266.36 481.94 1262.16 475.71"/></g><rect class="cls-18" x="1484.06" y="57.39" width="219.75" height="454.75" transform="translate(3187.88 569.54) rotate(-180)"/><path class="cls-7" d="M1703.81,513.53H1484.06a1.39,1.39,0,0,1-1.39-1.39V57.39a1.39,1.39,0,0,1,1.39-1.39h219.75a1.39,1.39,0,0,1,1.39,1.39V512.14A1.39,1.39,0,0,1,1703.81,513.53Zm-218.37-2.77h217v-452h-217v452Z"/><polygon class="cls-3" points="1715.12 45.33 1713.72 436.45 1701.9 436.45 1703.29 57.39 1484.06 57.39 1484.06 45.33 1715.12 45.33"/><path class="cls-7" d="M1713.72,437.95H1701.9a1.5,1.5,0,0,1-1.5-1.51l1.38-377.55H1484.06a1.5,1.5,0,0,1-1.5-1.5V45.33a1.5,1.5,0,0,1,1.5-1.5h231.05a1.5,1.5,0,0,1,1.5,1.51l-1.39,391.11A1.5,1.5,0,0,1,1713.72,437.95Zm-10.31-3h8.82l1.38-388.11h-228v9.06h217.73a1.5,1.5,0,0,1,1.5,1.51Z"/><rect class="cls-18" x="714.35" y="46.36" width="191.26" height="466.14"/><path class="cls-7" d="M905.61,513.89H714.35A1.39,1.39,0,0,1,713,512.5V46.36A1.39,1.39,0,0,1,714.35,45H905.61A1.39,1.39,0,0,1,907,46.36V512.5A1.39,1.39,0,0,1,905.61,513.89Zm-189.88-2.77H904.23V47.75H715.74V511.12Z"/><rect class="cls-18" x="1264.31" y="57.39" width="219.75" height="454.75"/><path class="cls-7" d="M1484.06,513.53H1264.31a1.39,1.39,0,0,1-1.39-1.39V57.39a1.39,1.39,0,0,1,1.39-1.39h219.75a1.39,1.39,0,0,1,1.39,1.39V512.14A1.39,1.39,0,0,1,1484.06,513.53Zm-218.37-2.77h217v-452h-217v452Z"/><path class="cls-3" d="M562.81,56.55V179.4a8.69,8.69,0,0,0,8.69,8.69h100a8.69,8.69,0,0,0,8.69-8.69V56.55a8.69,8.69,0,0,0-8.69-8.69h-100A8.69,8.69,0,0,0,562.81,56.55Zm94.26,106.32H586a8.69,8.69,0,0,1-8.69-8.69V73.83A8.69,8.69,0,0,1,586,65.14h71.1a8.69,8.69,0,0,1,8.69,8.69v80.35A8.69,8.69,0,0,1,657.07,162.88Z"/><path class="cls-7" d="M671.54,189.6h-100a10.2,10.2,0,0,1-10.19-10.19V56.55A10.2,10.2,0,0,1,571.5,46.36h100a10.2,10.2,0,0,1,10.19,10.19V179.4A10.2,10.2,0,0,1,671.54,189.6ZM571.5,49.36a7.2,7.2,0,0,0-7.19,7.19V179.4a7.2,7.2,0,0,0,7.19,7.19h100a7.2,7.2,0,0,0,7.19-7.19V56.55a7.2,7.2,0,0,0-7.19-7.19h-100Zm85.57,115H586a10.2,10.2,0,0,1-10.19-10.19V73.83A10.2,10.2,0,0,1,586,63.64h71.1a10.2,10.2,0,0,1,10.19,10.19v80.35A10.2,10.2,0,0,1,657.07,164.38ZM586,66.64a7.2,7.2,0,0,0-7.19,7.19v80.35a7.2,7.2,0,0,0,7.19,7.19h71.1a7.2,7.2,0,0,0,7.19-7.19V73.83a7.2,7.2,0,0,0-7.19-7.19H586Z"/><rect class="cls-3" x="595.24" y="140.29" width="51.76" height="8.84" rx="3.32" ry="3.32"/><path class="cls-7" d="M643.69,150.64H598.56a4.82,4.82,0,0,1-4.82-4.82v-2.21a4.82,4.82,0,0,1,4.82-4.82h45.13a4.82,4.82,0,0,1,4.82,4.82v2.21A4.82,4.82,0,0,1,643.69,150.64Zm-45.13-8.84a1.82,1.82,0,0,0-1.82,1.82v2.21a1.82,1.82,0,0,0,1.82,1.82h45.13a1.82,1.82,0,0,0,1.82-1.82v-2.21a1.82,1.82,0,0,0-1.82-1.82H598.56Z"/><polygon class="cls-3" points="714.35 46.36 905.61 46.36 905.61 32.61 701.91 32.61 701.91 512.5 714.35 512.5 714.35 46.36"/><path class="cls-7" d="M714.35,514H701.91a1.5,1.5,0,0,1-1.5-1.5V32.61a1.5,1.5,0,0,1,1.5-1.5h203.7a1.5,1.5,0,0,1,1.5,1.5V46.36a1.5,1.5,0,0,1-1.5,1.5H715.85V512.5A1.5,1.5,0,0,1,714.35,514Zm-10.94-3h9.44V46.36a1.5,1.5,0,0,1,1.5-1.5H904.11V34.11H703.41V511Z"/><circle class="cls-3" cx="741.32" cy="266" r="12.01"/><path class="cls-7" d="M741.32,279.51A13.51,13.51,0,1,1,754.83,266,13.53,13.53,0,0,1,741.32,279.51Zm0-24A10.51,10.51,0,1,0,751.83,266,10.53,10.53,0,0,0,741.32,255.48Z"/><path class="cls-3" d="M905.61-64.83V512.5H1233V-64.83H905.61Zm314.06,12.68v79H919.31v-79h300.37ZM919.31,282.37V163.49h300.37V282.37H919.31Zm300.37,11.38V406.89H919.31V293.75h300.37ZM919.31,152.12V38.27h300.37V152.12H919.31Zm0,347.09V418.27h300.37V499.2H919.31Z"/><path class="cls-7" d="M1233,514H905.61a1.5,1.5,0,0,1-1.5-1.5V-64.83a1.5,1.5,0,0,1,1.5-1.5H1233a1.5,1.5,0,0,1,1.5,1.5V512.5A1.5,1.5,0,0,1,1233,514Zm-325.87-3h324.37V-63.33H907.11V511Zm312.56-10.3H919.31a1.5,1.5,0,0,1-1.5-1.5V418.27a1.5,1.5,0,0,1,1.5-1.5h300.37a1.5,1.5,0,0,1,1.5,1.5V499.2A1.5,1.5,0,0,1,1219.68,500.7Zm-298.87-3h297.37V419.77H920.81V497.7Zm298.87-89.31H919.31a1.5,1.5,0,0,1-1.5-1.5V293.75a1.5,1.5,0,0,1,1.5-1.5h300.37a1.5,1.5,0,0,1,1.5,1.5V406.89A1.5,1.5,0,0,1,1219.68,408.39Zm-298.87-3h297.37V295.25H920.81V405.39Zm298.87-121.52H919.31a1.5,1.5,0,0,1-1.5-1.5V163.49a1.5,1.5,0,0,1,1.5-1.5h300.37a1.5,1.5,0,0,1,1.5,1.5V282.37A1.5,1.5,0,0,1,1219.68,283.87Zm-298.87-3h297.37V165H920.81V280.87Zm298.87-127.26H919.31a1.5,1.5,0,0,1-1.5-1.5V38.27a1.5,1.5,0,0,1,1.5-1.5h300.37a1.5,1.5,0,0,1,1.5,1.5V152.12A1.5,1.5,0,0,1,1219.68,153.62Zm-298.87-3h297.37V39.77H920.81V150.62ZM1219.68,28.39H919.31a1.5,1.5,0,0,1-1.5-1.5v-79a1.5,1.5,0,0,1,1.5-1.5h300.37a1.5,1.5,0,0,1,1.5,1.5v79A1.5,1.5,0,0,1,1219.68,28.39Zm-298.87-3h297.37v-76H920.81v76Z"/><polygon class="cls-18" points="327.28 339.57 431.09 312.6 384 230.9 279.7 251.98 327.28 339.57"/><path class="cls-7" d="M327.28,341a1.39,1.39,0,0,1-1.22-.72l-47.58-87.59a1.39,1.39,0,0,1,.94-2l104.3-21.08a1.39,1.39,0,0,1,1.48.67l47.09,81.7a1.39,1.39,0,0,1-.85,2l-103.81,27A1.38,1.38,0,0,1,327.28,341Zm-45.47-88L328,338l101-26.24L383.3,232.46Z"/><path class="cls-3" d="M494.54,424.79L-2.28,585.14v49.72l461.65-149V596s1.41,4.74,10.27,4.74S480.4,596,480.4,596V479.07l8.5-2.74a8.14,8.14,0,0,0,5.64-7.74V424.79Z"/><path class="cls-7" d="M-2.27,636.35a1.5,1.5,0,0,1-.88-0.29,1.5,1.5,0,0,1-.62-1.21V585.14a1.5,1.5,0,0,1,1-1.43L494.08,423.37a1.5,1.5,0,0,1,2,1.43v43.79a9.61,9.61,0,0,1-6.68,9.17l-7.46,2.41V596a1.5,1.5,0,0,1-.11.56c-0.09.23-2.39,5.68-12.15,5.68s-11.63-5.57-11.7-5.81a1.5,1.5,0,0,1-.06-0.43V487.92L-1.81,636.28A1.51,1.51,0,0,1-2.27,636.35Zm1.5-50.12v46.56L458.92,484.43a1.5,1.5,0,0,1,2,1.43V595.74c0.33,0.69,2.09,3.52,8.77,3.52s8.76-2.78,9.25-3.6V479.07a1.5,1.5,0,0,1,1-1.43l8.5-2.75a6.62,6.62,0,0,0,4.6-6.32V426.85Z"/><polygon class="cls-3" points="494.54 432.01 -2.27 596.75 -2.27 585.14 494.54 424.79 494.54 432.01"/><path class="cls-7" d="M-2.27,598.26A1.5,1.5,0,0,1-3.15,598a1.5,1.5,0,0,1-.62-1.22V585.14a1.5,1.5,0,0,1,1-1.43L494.08,423.37a1.5,1.5,0,0,1,2,1.43V432a1.5,1.5,0,0,1-1,1.42L-1.8,598.18A1.5,1.5,0,0,1-2.27,598.26Zm1.5-12v8.45L493,430.93v-4.07ZM494.54,432h0Z"/><polygon class="cls-3" points="404.69 382.05 404.69 333.85 533.13 333.85 573.08 341.46 573.08 382.05 404.69 382.05"/><path class="cls-7" d="M533,335.35l38.58,7.35v37.85H406.19v-45.2H533m0.28-3H403.19v51.2H574.58V340.22l-41.3-7.87h0Z"/><path class="cls-3" d="M569.14,331.72c-6.33-1.58-105.1-22.79-105.1-22.79s-11.32-1.82-17.07-.34c-38.71,9.93-63,16.23-63,16.23l-95.32,24.36s-6.68,4-6.68,11.92v63.68H494.54v43.48a8.56,8.56,0,0,1-5.93,8.15v95.84A18,18,0,0,0,500,576.34a19,19,0,0,0,11.62-4.08v-160L546,401.2v62.58c6.49-2.29,13.16-4.37,16.65-4.37h4.23a3.55,3.55,0,0,1,1-2.24l-0.33.12v-63l3.76-1.21s4.91-3.16,4.91-6V340.22C576.25,336.33,575.46,333.31,569.14,331.72Z"/><path class="cls-7" d="M500,577.84a19.38,19.38,0,0,1-12.4-4.48,1.5,1.5,0,0,1-.48-1.1V476.42a1.5,1.5,0,0,1,1-1.43,7,7,0,0,0,4.89-6.72v-42H282a1.5,1.5,0,0,1-1.5-1.5V361.11c0-8.71,7.11-13,7.41-13.21a1.5,1.5,0,0,1,.39-0.16l95.32-24.36c0.24-.06,24.7-6.42,63-16.23,6-1.53,17.2.24,17.68,0.31,4.11,0.88,98.95,21.24,105.23,22.81h0c6.84,1.71,8.25,5.22,8.25,10V387c0,3.49-4.66,6.67-5.59,7.27a1.5,1.5,0,0,1-.35.17l-2.72.88v60.89l0.08,0.11a1.5,1.5,0,0,1-.14,1.84,2.14,2.14,0,0,0-.63,1.24,1.5,1.5,0,0,1-1.5,1.49h-4.23c-4,0-13.14,3.23-16.15,4.29a1.5,1.5,0,0,1-2-1.42V403.26l-31.4,10.12V572.26a1.5,1.5,0,0,1-.51,1.13A20.44,20.44,0,0,1,500,577.84Zm-9.88-6.3a16.83,16.83,0,0,0,9.88,3.3,17.68,17.68,0,0,0,10.12-3.31V412.28a1.5,1.5,0,0,1,1-1.43l34.4-11.09a1.5,1.5,0,0,1,2,1.43v60.47c7.57-2.6,12.29-3.76,15.15-3.76h3a5.23,5.23,0,0,1,.39-0.79V394.25a1.5,1.5,0,0,1,1-1.43l3.56-1.15c1.69-1.13,4.06-3.31,4.06-4.64V340.22c0-3.35-.42-5.65-6-7h0c-6.23-1.56-104.06-22.56-105.05-22.77,0,0-11-1.73-16.38-.36-38.27,9.82-62.72,16.17-63,16.23l-95.1,24.31a13,13,0,0,0-5.78,10.53v62.18h211a1.5,1.5,0,0,1,1.5,1.5v43.48a10,10,0,0,1-5.93,9.18v94.1Z"/><path class="cls-3" d="M657.31,447.57a1.76,1.76,0,0,1,.79,2l-27.78,10a17.13,17.13,0,0,1-6.06,1.25h-3.07a1.71,1.71,0,0,1,.17,1.41l-27.78,10a17.13,17.13,0,0,1-6.06,1.25H531.6c-1.62,0-1.88-1.72-.78-3.27l-13.65,4.82v8h4.44v88.65a11.78,11.78,0,0,0,5.85,1.9,11.55,11.55,0,0,0,5.81-1.9V483.11H546v69.73s5,4.08,10.79,4.08,10.79-4.08,10.79-4.08V483.11h10.92v88.65a11.78,11.78,0,0,0,5.85,1.9,11.55,11.55,0,0,0,5.81-1.9V483.11h2.56l54.42-20v84.6a11.78,11.78,0,0,0,5.85,1.9,11.55,11.55,0,0,0,5.81-1.9V458.78l6.09-2.24v-9h-7.61Z"/><path class="cls-7" d="M584.36,575.16a13.29,13.29,0,0,1-6.7-2.16,1.5,1.5,0,0,1-.65-1.24V484.61h-7.92v68.23a1.5,1.5,0,0,1-.55,1.16c-0.22.18-5.5,4.42-11.73,4.42s-11.51-4.24-11.73-4.42a1.5,1.5,0,0,1-.55-1.16V484.61h-9.74v87.15a1.5,1.5,0,0,1-.64,1.23,13.05,13.05,0,0,1-6.67,2.17,13.28,13.28,0,0,1-6.7-2.16,1.5,1.5,0,0,1-.65-1.24V484.61h-2.94a1.5,1.5,0,0,1-1.5-1.5v-8a1.5,1.5,0,0,1,1-1.41l13.65-4.82a1.5,1.5,0,0,1,1.72,2.29,2,2,0,0,0-.39.89h55.86a15.56,15.56,0,0,0,5.46-1.13l26.77-9.65a1.5,1.5,0,0,1,1.45-1.9h3.07a15.56,15.56,0,0,0,5.46-1.13l26.57-9.58a1.5,1.5,0,0,1,1-2.59h7.61a1.5,1.5,0,0,1,1.5,1.5v9a1.5,1.5,0,0,1-1,1.41l-5.11,1.88v87.85a1.5,1.5,0,0,1-.64,1.23,13.05,13.05,0,0,1-6.67,2.17,13.29,13.29,0,0,1-6.7-2.16,1.5,1.5,0,0,1-.65-1.24V465.23l-52.41,19.29a1.5,1.5,0,0,1-.52.09h-1.06v87.15A1.5,1.5,0,0,1,591,573,13.05,13.05,0,0,1,584.36,575.16ZM580,570.91a9.7,9.7,0,0,0,4.35,1.25,9.54,9.54,0,0,0,4.31-1.24v-87.8a1.5,1.5,0,0,1,1.5-1.5h2.29l54.17-19.94a1.5,1.5,0,0,1,2,1.41v83.75a9.7,9.7,0,0,0,4.35,1.25,9.54,9.54,0,0,0,4.31-1.24v-88a1.5,1.5,0,0,1,1-1.41l5.11-1.88v-6.42h-3.75a3,3,0,0,1-.17,1.06,1.5,1.5,0,0,1-.9.88l-27.78,10a18.47,18.47,0,0,1-6.57,1.34h-1.37a2.63,2.63,0,0,1-.12.45,1.5,1.5,0,0,1-.89.88l-27.78,10a18.47,18.47,0,0,1-6.57,1.34H531.6a2.82,2.82,0,0,1-2.62-1.5,3,3,0,0,1-.29-0.92l-10,3.54v5.45h2.94a1.5,1.5,0,0,1,1.5,1.5v87.8a9.7,9.7,0,0,0,4.35,1.25,9.54,9.54,0,0,0,4.31-1.24v-87.8a1.5,1.5,0,0,1,1.5-1.5H546a1.5,1.5,0,0,1,1.5,1.5v69c1.38,1,5.17,3.34,9.29,3.34s7.9-2.36,9.29-3.34v-69a1.5,1.5,0,0,1,1.5-1.5h10.92a1.5,1.5,0,0,1,1.5,1.5v87.8Z"/><path class="cls-3" d="M653.32,446.73H599.4c-6,0-21.37,6.16-29.13,8.9-2.25.8-3.37,2.52-3.38,3.77h-4.23c-6,0-21.37,6.16-29.13,8.9-3.75,1.33-4.38,5.23-1.94,5.23h55.91a17.13,17.13,0,0,0,6.06-1.25l27.78-10a1.71,1.71,0,0,0-.17-1.41h3.07a17.13,17.13,0,0,0,6.06-1.25l27.78-10S659.2,446.73,653.32,446.73Z"/><path class="cls-7" d="M587.51,475H531.6a2.8,2.8,0,0,1-2.91-2.37c-0.34-2,1.2-4.67,4.35-5.78,1.44-.51,3.14-1.13,5-1.81,8.68-3.2,19.48-7.17,24.64-7.17h3a6.6,6.6,0,0,1,4.08-3.69c1.44-.51,3.14-1.14,5-1.82,8.68-3.19,19.48-7.17,24.63-7.17h53.92c3,0,4.85.67,5.79,2a3.2,3.2,0,0,1,.38,2.88,1.5,1.5,0,0,1-.89.87l-27.78,10a18.47,18.47,0,0,1-6.57,1.34h-1.37a2.62,2.62,0,0,1-.12.45,1.5,1.5,0,0,1-.89.88l-27.78,10A18.47,18.47,0,0,1,587.51,475Zm-55.87-3h55.87a15.74,15.74,0,0,0,5.46-1.13l26.76-9.65a1.5,1.5,0,0,1,1.45-1.9h3.07a15.56,15.56,0,0,0,5.46-1.13l26.52-9.56a7,7,0,0,0-2.92-.45H599.4c-4.62,0-16,4.2-23.6,7-1.87.69-3.58,1.32-5,1.83-1.79.63-2.38,1.87-2.38,2.37a1.5,1.5,0,0,1-1.5,1.49h-4.23c-4.62,0-16,4.21-23.6,7-1.87.69-3.58,1.32-5,1.83A3.33,3.33,0,0,0,531.64,472ZM658.09,449.6h0Z"/><polygon class="cls-3" points="283 424.79 -2.27 497.81 -2.27 585.14 494.54 424.79 283 424.79"/><path class="cls-7" d="M-2.27,586.64a1.5,1.5,0,0,1-.88-0.29,1.5,1.5,0,0,1-.62-1.21V497.81a1.5,1.5,0,0,1,1.13-1.45l285.27-73a1.49,1.49,0,0,1,.37,0H494.54a1.5,1.5,0,0,1,.46,2.93L-1.81,586.56A1.51,1.51,0,0,1-2.27,586.64ZM-0.77,499v84.11L485,426.29H283.19Z"/><path class="cls-18" d="M665.76,65.14H577.27v97.74h88.49V65.14Zm-18.76,84H595.24v-8.84H647v8.84Z"/><path class="cls-7" d="M665.76,164.26H577.27a1.39,1.39,0,0,1-1.39-1.39V65.14a1.39,1.39,0,0,1,1.39-1.39h88.49a1.39,1.39,0,0,1,1.39,1.39v97.74A1.39,1.39,0,0,1,665.76,164.26Zm-87.1-2.77h85.72v-95H578.66v95Zm68.35-11H595.24a1.39,1.39,0,0,1-1.39-1.39v-8.84a1.39,1.39,0,0,1,1.39-1.39H647a1.39,1.39,0,0,1,1.39,1.39v8.84A1.39,1.39,0,0,1,647,150.52Zm-50.38-2.77h49v-6.07h-49v6.07Z"/><polygon class="cls-3" points="1729.05 436.45 1247.76 436.45 1290.43 500.18 1786 500.18 1729.05 436.45"/><path class="cls-7" d="M1786,501.68H1290.43a1.5,1.5,0,0,1-1.25-.67l-42.67-63.73a1.5,1.5,0,0,1,1.25-2.33H1729a1.5,1.5,0,0,1,1.12.5l57,63.73A1.5,1.5,0,0,1,1786,501.68Zm-494.77-3h491.42l-54.27-60.73H1250.57Z"/><path class="cls-18" d="M1290.43,500.18l-41.79-62.42-0.7-1.31v0.27l-0.18-.27v17.86l0.18,0.27V652.62a14.17,14.17,0,0,0,7.17,1.9,13.47,13.47,0,0,0,7.05-1.9V475.71l28.27,42V716.35a14.28,14.28,0,0,0,14.22,0V517.24H1771l-0.33,194.87a16.36,16.36,0,0,0,8.67,3,8.06,8.06,0,0,0,6.67-3V500.18H1290.43Z"/><path class="cls-7" d="M1297.54,719.64a16.28,16.28,0,0,1-7.84-2.1,1.39,1.39,0,0,1-.66-1.18V518.14l-25.49-37.89V652.62a1.39,1.39,0,0,1-.61,1.15,14.84,14.84,0,0,1-7.83,2.14,15.53,15.53,0,0,1-7.93-2.12,1.39,1.39,0,0,1-.63-1.16V455a1.38,1.38,0,0,1-.18-0.68V436.45a1.39,1.39,0,0,1,1.47-1.38,1.37,1.37,0,0,1,1.31.73l0.67,1.25,41.34,61.75H1786a1.39,1.39,0,0,1,1.39,1.39V712.11a1.39,1.39,0,0,1-.23.77,9.43,9.43,0,0,1-7.82,3.62,17.68,17.68,0,0,1-9.5-3.28,1.39,1.39,0,0,1-.55-1.11l0.33-193.48H1306V716.35a1.39,1.39,0,0,1-.66,1.18A16.28,16.28,0,0,1,1297.54,719.64Zm-5.73-4.12a12.86,12.86,0,0,0,11.45,0V517.24a1.39,1.39,0,0,1,1.39-1.39H1771a1.39,1.39,0,0,1,1.39,1.39l-0.33,194.13a14.59,14.59,0,0,0,7.28,2.35,7,7,0,0,0,5.28-2.1V501.56H1290.43a1.39,1.39,0,0,1-1.15-.61L1249.15,441v12.88a1.38,1.38,0,0,1,.18.68V651.8a13.39,13.39,0,0,0,5.78,1.33,12.78,12.78,0,0,0,5.67-1.32V475.71a1.39,1.39,0,0,1,2.54-.77l28.27,42a1.38,1.38,0,0,1,.24.77v197.8Z"/><polygon class="cls-3" points="919.41 -52.15 919.41 -41.27 938.09 -41.27 953.54 -36.12 953.54 -23.4 962.85 -23.4 962.85 -34.72 1176.23 -34.72 1176.23 -24.64 1181.36 -29.76 1213.47 -29.76 1219.23 -24 1219.23 26.89 1219.68 26.89 1219.68 -52.15 919.41 -52.15"/><path class="cls-7" d="M1219.68,28.39h-0.45a1.5,1.5,0,0,1-1.5-1.5V-23.38l-4.88-4.88H1182l-4.69,4.69a1.5,1.5,0,0,1-1.63.33,1.5,1.5,0,0,1-.93-1.39v-8.58H964.35v9.82a1.5,1.5,0,0,1-1.5,1.5h-9.31a1.5,1.5,0,0,1-1.5-1.5V-35l-14.19-4.73H919.41a1.5,1.5,0,0,1-1.5-1.5V-52.15a1.5,1.5,0,0,1,1.5-1.5h300.27a1.5,1.5,0,0,1,1.5,1.5v79A1.5,1.5,0,0,1,1219.68,28.39ZM955-24.9h6.31v-9.82a1.5,1.5,0,0,1,1.5-1.5h213.38a1.5,1.5,0,0,1,1.5,1.5v6.46l2.57-2.57a1.5,1.5,0,0,1,1.06-.44h32.11a1.5,1.5,0,0,1,1.06.44l3.64,3.64V-50.65H920.91v7.88h17.18a1.5,1.5,0,0,1,.47.08L954-37.55a1.5,1.5,0,0,1,1,1.42V-24.9Z"/><polygon class="cls-3" points="919.41 38.27 919.41 64.72 928.59 64.72 928.59 62.62 939.36 62.62 939.36 72.5 945.95 72.5 945.95 83.27 959.41 83.27 959.41 97.34 962.85 97.34 962.85 53.55 1176.23 53.55 1176.23 97.94 1185.1 97.94 1185.1 101.53 1196.48 101.53 1196.48 99.14 1212.64 99.14 1212.64 103.03 1219.23 103.03 1219.23 152.12 1219.68 152.12 1219.68 38.27 919.41 38.27"/><path class="cls-7" d="M1219.68,153.62h-0.45a1.5,1.5,0,0,1-1.5-1.5V104.53h-5.08a1.5,1.5,0,0,1-1.5-1.5v-2.39H1198v0.9a1.5,1.5,0,0,1-1.5,1.5H1185.1a1.5,1.5,0,0,1-1.5-1.5V99.44h-7.37a1.5,1.5,0,0,1-1.5-1.5V55.05H964.35V97.34a1.5,1.5,0,0,1-1.5,1.5h-3.43a1.5,1.5,0,0,1-1.5-1.5V84.77h-12a1.5,1.5,0,0,1-1.5-1.5V74h-5.08a1.5,1.5,0,0,1-1.5-1.5V64.12h-7.78v0.6a1.5,1.5,0,0,1-1.5,1.5h-9.18a1.5,1.5,0,0,1-1.5-1.5V38.27a1.5,1.5,0,0,1,1.5-1.5h300.27a1.5,1.5,0,0,1,1.5,1.5V152.12A1.5,1.5,0,0,1,1219.68,153.62Zm-5.53-52.09h4V39.77H920.91V63.21h6.18v-0.6a1.5,1.5,0,0,1,1.5-1.5h10.78a1.5,1.5,0,0,1,1.5,1.5V71h5.08a1.5,1.5,0,0,1,1.5,1.5v9.28h12a1.5,1.5,0,0,1,1.5,1.5V95.84h0.43V53.55a1.5,1.5,0,0,1,1.5-1.5h213.38a1.5,1.5,0,0,1,1.5,1.5V96.44h7.37a1.5,1.5,0,0,1,1.5,1.5V100H1195v-0.9a1.5,1.5,0,0,1,1.5-1.5h16.16a1.5,1.5,0,0,1,1.5,1.5v2.39Z"/><polygon class="cls-3" points="1176.23 163.5 962.85 163.5 962.73 163.5 919.41 163.5 919.41 183.26 926.91 183.26 932.99 186.91 932.99 197.25 935.72 197.25 937.85 199.38 937.85 196.95 946.67 196.95 946.67 202.42 951.23 206.98 951.23 200.9 962.85 200.9 962.85 177.56 1176.23 177.56 1176.23 223.7 1189.27 223.7 1189.27 240.12 1211.77 240.12 1211.77 217.01 1219.68 217.01 1219.68 163.5 1176.23 163.5"/><path class="cls-7" d="M1211.77,241.62h-22.5a1.5,1.5,0,0,1-1.5-1.5V225.2h-11.54a1.5,1.5,0,0,1-1.5-1.5V179.06H964.35V200.9a1.5,1.5,0,0,1-1.5,1.5H952.73V207a1.5,1.5,0,0,1-2.56,1.06l-4.56-4.56a1.5,1.5,0,0,1-.44-1.06v-4h-5.82v0.93a1.5,1.5,0,0,1-2.56,1.06l-1.69-1.69H933a1.5,1.5,0,0,1-1.5-1.5v-9.49l-5-3h-7.09a1.5,1.5,0,0,1-1.5-1.5V163.49a1.5,1.5,0,0,1,1.5-1.5h300.27a1.5,1.5,0,0,1,1.5,1.5V217a1.5,1.5,0,0,1-1.5,1.5h-6.4v21.61A1.5,1.5,0,0,1,1211.77,241.62Zm-21-3h19.5V217a1.5,1.5,0,0,1,1.5-1.5h6.4V165H920.91v16.77h6a1.5,1.5,0,0,1,.77.21l6.08,3.65a1.5,1.5,0,0,1,.73,1.29v8.84h1.24a1.5,1.5,0,0,0,2.13-.3h8.82a1.5,1.5,0,0,1,1.5,1.5v4.85l1.56,1.56V200.9a1.5,1.5,0,0,1,1.5-1.5h10.12V177.56a1.5,1.5,0,0,1,1.5-1.5h213.38a1.5,1.5,0,0,1,1.5,1.5V222.2h11.54a1.5,1.5,0,0,1,1.5,1.5v14.92Z"/><polygon class="cls-3" points="919.41 293.75 919.41 326.32 933.29 326.32 933.29 330.58 937.24 326.63 947.58 326.63 947.58 330.89 959.74 330.89 959.74 328.76 962.85 328.76 962.85 305.47 1176.23 305.47 1176.23 340.31 1183.8 340.31 1183.8 347.91 1219.68 347.91 1219.68 293.75 919.41 293.75"/><path class="cls-7" d="M1219.68,349.41H1183.8a1.5,1.5,0,0,1-1.5-1.5v-6.1h-6.07a1.5,1.5,0,0,1-1.5-1.5V307H964.35v21.79a1.5,1.5,0,0,1-1.5,1.5h-1.61v0.63a1.5,1.5,0,0,1-1.5,1.5H947.58a1.5,1.5,0,0,1-1.5-1.5v-2.76h-8.22l-3.51,3.51a1.5,1.5,0,0,1-2.56-1.06v-2.76H919.41a1.5,1.5,0,0,1-1.5-1.5V293.75a1.5,1.5,0,0,1,1.5-1.5h300.27a1.5,1.5,0,0,1,1.5,1.5v54.16A1.5,1.5,0,0,1,1219.68,349.41Zm-34.37-3h32.87V295.25H920.91v29.57h12.39a1.5,1.5,0,0,1,1.5,1.5V327l1.39-1.39a1.5,1.5,0,0,1,1.06-.44h10.34a1.5,1.5,0,0,1,1.5,1.5v2.76h9.16v-0.63a1.5,1.5,0,0,1,1.5-1.5h1.61V305.47a1.5,1.5,0,0,1,1.5-1.5h213.38a1.5,1.5,0,0,1,1.5,1.5v33.34h6.07a1.5,1.5,0,0,1,1.5,1.5v6.1Z"/><polygon class="cls-3" points="919.41 418.27 919.41 460.46 955.18 460.46 955.18 452.86 962.85 452.86 962.85 427.06 1176.23 427.06 1176.23 441.31 1179.24 441.31 1179.24 443.44 1191.4 443.44 1191.4 439.18 1201.74 439.18 1205.69 443.13 1205.69 438.88 1219.68 438.88 1219.68 418.27 919.41 418.27"/><path class="cls-7" d="M955.18,462H919.41a1.5,1.5,0,0,1-1.5-1.5v-42.2a1.5,1.5,0,0,1,1.5-1.5h300.27a1.5,1.5,0,0,1,1.5,1.5v20.61a1.5,1.5,0,0,1-1.5,1.5h-12.49v2.76a1.5,1.5,0,0,1-2.56,1.06l-3.51-3.51h-8.21v2.76a1.5,1.5,0,0,1-1.5,1.5h-12.16a1.5,1.5,0,0,1-1.5-1.5v-0.63h-1.51a1.5,1.5,0,0,1-1.5-1.5V428.56H964.35v24.31a1.5,1.5,0,0,1-1.5,1.5h-6.17v6.1A1.5,1.5,0,0,1,955.18,462Zm-34.28-3h32.78v-6.1a1.5,1.5,0,0,1,1.5-1.5h6.17V427.06a1.5,1.5,0,0,1,1.5-1.5h213.38a1.5,1.5,0,0,1,1.5,1.5v12.75h1.51a1.5,1.5,0,0,1,1.5,1.5v0.63h9.16v-2.76a1.5,1.5,0,0,1,1.5-1.5h10.34a1.5,1.5,0,0,1,1.06.44l1.39,1.39v-0.64a1.5,1.5,0,0,1,1.5-1.5h12.49V419.77H920.91V459Z"/><polygon class="cls-18" points="1219.68 499.2 1219.68 438.88 1205.69 438.88 1205.69 443.13 1201.74 439.18 1191.4 439.18 1191.4 443.44 1179.24 443.44 1179.24 441.31 1166.47 441.31 1166.47 436.45 1150.36 436.45 1150.36 441.31 1143.37 441.31 1143.37 438.88 1126.65 438.88 1126.65 442.22 1116.92 442.22 1116.92 448.3 1105.06 448.3 1105.06 459.25 1099.59 459.25 1099.59 448.91 1084.69 448.91 1084.69 459.55 1077.09 459.55 1077.09 465.02 1063.11 465.02 1063.11 453.77 1058.85 453.77 1058.85 446.48 1047.6 446.48 1047.6 448.61 1025.1 448.61 1025.1 454.99 1010.21 454.99 1010.21 444.05 992.88 444.05 992.88 449.52 982.24 449.52 982.24 445.87 967.95 445.87 967.95 452.86 955.18 452.86 955.18 460.46 919.31 460.46 919.31 499.2 1219.68 499.2"/><path class="cls-7" d="M1219.68,500.59H919.31a1.39,1.39,0,0,1-1.39-1.39V460.46a1.39,1.39,0,0,1,1.39-1.39h34.49v-6.21a1.39,1.39,0,0,1,1.39-1.39h11.38v-5.61a1.39,1.39,0,0,1,1.39-1.39h14.29a1.39,1.39,0,0,1,1.39,1.39v2.26h7.87V444a1.39,1.39,0,0,1,1.39-1.39h17.33a1.39,1.39,0,0,1,1.39,1.39v9.56h12.13v-5a1.39,1.39,0,0,1,1.39-1.39h21.11v-0.74a1.39,1.39,0,0,1,1.39-1.39h11.25a1.39,1.39,0,0,1,1.39,1.39v5.91h2.87a1.39,1.39,0,0,1,1.39,1.39v9.86h11.21v-4.09a1.39,1.39,0,0,1,1.39-1.39h6.21v-9.25a1.39,1.39,0,0,1,1.39-1.39h14.9a1.39,1.39,0,0,1,1.39,1.39v9h2.7V448.3a1.39,1.39,0,0,1,1.39-1.39h10.47v-4.69a1.39,1.39,0,0,1,1.39-1.39h8.34v-2a1.39,1.39,0,0,1,1.39-1.39h16.72a1.39,1.39,0,0,1,1.39,1.39v1H1149v-3.48a1.39,1.39,0,0,1,1.39-1.39h16.11a1.39,1.39,0,0,1,1.39,1.39v3.48h11.38a1.39,1.39,0,0,1,1.39,1.39v0.74H1190v-2.87a1.39,1.39,0,0,1,1.39-1.39h10.34a1.39,1.39,0,0,1,1,.41l1.59,1.59v-0.91a1.39,1.39,0,0,1,1.39-1.39h14a1.39,1.39,0,0,1,1.39,1.39V499.2A1.39,1.39,0,0,1,1219.68,500.59Zm-299-2.77h297.6V440.26h-11.21v2.87a1.39,1.39,0,0,1-2.37,1l-3.55-3.55h-8.38v2.87a1.39,1.39,0,0,1-1.39,1.39h-12.16a1.39,1.39,0,0,1-1.39-1.39V442.7h-11.38a1.39,1.39,0,0,1-1.39-1.39v-3.48h-13.34v3.48a1.39,1.39,0,0,1-1.39,1.39h-7a1.39,1.39,0,0,1-1.39-1.39v-1H1128v2a1.39,1.39,0,0,1-1.39,1.39h-8.34v4.69a1.39,1.39,0,0,1-1.39,1.39h-10.47v9.56a1.39,1.39,0,0,1-1.39,1.39h-5.47a1.39,1.39,0,0,1-1.39-1.39v-9h-12.13v9.25a1.39,1.39,0,0,1-1.39,1.39h-6.21V465a1.39,1.39,0,0,1-1.39,1.39h-14a1.39,1.39,0,0,1-1.39-1.39v-9.86h-2.87a1.39,1.39,0,0,1-1.39-1.39v-5.91H1049v0.74a1.39,1.39,0,0,1-1.39,1.39h-21.11v5a1.39,1.39,0,0,1-1.39,1.39h-14.9a1.39,1.39,0,0,1-1.39-1.39v-9.56H994.26v4.09a1.39,1.39,0,0,1-1.39,1.39H982.24a1.39,1.39,0,0,1-1.39-1.39v-2.26H969.33v5.61a1.39,1.39,0,0,1-1.39,1.39H956.57v6.21a1.39,1.39,0,0,1-1.39,1.39H920.69v36Z"/><polygon class="cls-18" points="919.31 406.89 919.31 326.32 933.29 326.32 933.29 330.58 937.24 326.63 947.58 326.63 947.58 330.89 959.74 330.89 959.74 328.76 972.51 328.76 972.51 323.89 988.62 323.89 988.62 328.76 995.62 328.76 995.62 326.32 1012.34 326.32 1012.34 329.67 1022.06 329.67 1022.06 335.75 1033.92 335.75 1033.92 346.69 1039.39 346.69 1039.39 336.36 1054.29 336.36 1054.29 347 1061.89 347 1061.89 352.47 1075.88 352.47 1075.88 341.22 1080.13 341.22 1080.13 333.93 1091.38 333.93 1091.38 336.05 1113.88 336.05 1113.88 342.44 1128.77 342.44 1128.77 331.49 1146.1 331.49 1146.1 336.97 1156.74 336.97 1156.74 333.32 1171.03 333.32 1171.03 340.31 1183.8 340.31 1183.8 347.91 1219.68 347.91 1219.68 406.89 919.31 406.89"/><path class="cls-7" d="M1219.68,408.28H919.31a1.39,1.39,0,0,1-1.39-1.39V326.33a1.39,1.39,0,0,1,1.39-1.39h14a1.39,1.39,0,0,1,1.39,1.39v0.91l1.59-1.59a1.39,1.39,0,0,1,1-.41h10.34a1.39,1.39,0,0,1,1.39,1.39v2.87h9.39v-0.74a1.39,1.39,0,0,1,1.39-1.39h11.38v-3.48a1.39,1.39,0,0,1,1.39-1.39h16.11a1.39,1.39,0,0,1,1.39,1.39v3.48h4.22v-1a1.39,1.39,0,0,1,1.39-1.39h16.72a1.39,1.39,0,0,1,1.39,1.39v2h8.34a1.39,1.39,0,0,1,1.39,1.39v4.69h10.47a1.39,1.39,0,0,1,1.39,1.39v9.56h2.7v-9a1.39,1.39,0,0,1,1.39-1.39h14.9a1.39,1.39,0,0,1,1.39,1.39v9.25h6.21a1.39,1.39,0,0,1,1.39,1.39v4.09h11.21v-9.86a1.39,1.39,0,0,1,1.39-1.39h2.87v-5.91a1.39,1.39,0,0,1,1.39-1.39h11.25a1.39,1.39,0,0,1,1.39,1.39v0.74h21.11a1.39,1.39,0,0,1,1.39,1.39v5h12.13v-9.56a1.39,1.39,0,0,1,1.39-1.39h17.33a1.39,1.39,0,0,1,1.39,1.39v4.09h7.87v-2.26a1.39,1.39,0,0,1,1.39-1.39H1171a1.39,1.39,0,0,1,1.39,1.39v5.61h11.38a1.39,1.39,0,0,1,1.39,1.39v6.21h34.49a1.39,1.39,0,0,1,1.39,1.39v59A1.39,1.39,0,0,1,1219.68,408.28Zm-299-2.77h297.6V349.3H1183.8a1.39,1.39,0,0,1-1.39-1.39V341.7H1171a1.39,1.39,0,0,1-1.39-1.39V334.7h-11.52V337a1.39,1.39,0,0,1-1.39,1.39H1146.1a1.39,1.39,0,0,1-1.39-1.39v-4.09h-14.56v9.56a1.39,1.39,0,0,1-1.39,1.39h-14.9a1.39,1.39,0,0,1-1.39-1.39v-5h-21.11a1.39,1.39,0,0,1-1.39-1.39v-0.74h-8.48v5.91a1.39,1.39,0,0,1-1.39,1.39h-2.87v9.86a1.39,1.39,0,0,1-1.39,1.39h-14a1.39,1.39,0,0,1-1.39-1.39v-4.09h-6.21a1.39,1.39,0,0,1-1.39-1.39v-9.25h-12.12v9a1.39,1.39,0,0,1-1.39,1.39h-5.47a1.39,1.39,0,0,1-1.39-1.39v-9.56h-10.47a1.39,1.39,0,0,1-1.39-1.39v-4.69h-8.34a1.39,1.39,0,0,1-1.39-1.39v-2H997v1a1.39,1.39,0,0,1-1.39,1.39h-7a1.39,1.39,0,0,1-1.39-1.39v-3.48H973.89v3.48a1.39,1.39,0,0,1-1.39,1.39H961.13v0.74a1.39,1.39,0,0,1-1.39,1.39H947.58a1.39,1.39,0,0,1-1.39-1.39V328h-8.38l-3.55,3.55a1.39,1.39,0,0,1-2.37-1v-2.87H920.69V405.5Z"/><polygon class="cls-18" points="919.31 282.38 919.31 183.26 926.91 183.26 932.99 186.91 932.99 197.25 935.72 197.25 937.85 199.38 937.85 196.95 946.67 196.95 946.67 202.42 951.23 206.98 951.23 200.9 968.25 200.9 968.25 206.67 986.49 206.67 990.75 210.93 999.57 210.93 999.57 207.89 1011.73 207.89 1011.73 214.58 1014.92 211.39 1017.2 211.39 1017.2 213.06 1026.02 213.06 1026.02 211.24 1029.97 211.24 1029.97 209.71 1040 209.71 1040 212.75 1049.73 212.75 1049.73 223.09 1058.55 223.09 1058.55 208.5 1067.97 208.5 1067.97 205.46 1085.3 205.46 1085.3 214.28 1105.97 214.28 1105.97 220.05 1121.48 220.05 1121.48 217.01 1128.47 217.01 1128.47 225.52 1145.8 225.52 1145.8 222.79 1158.26 222.79 1158.26 225.22 1165.87 225.22 1165.87 220.96 1176.2 220.96 1176.2 223.7 1189.27 223.7 1189.27 240.12 1211.77 240.12 1211.77 217.01 1219.68 217.01 1219.68 282.38 919.31 282.38"/><path class="cls-7" d="M1219.68,283.76H919.31a1.39,1.39,0,0,1-1.39-1.39V183.27a1.39,1.39,0,0,1,1.39-1.39h7.6a1.39,1.39,0,0,1,.71.2l6.08,3.65a1.38,1.38,0,0,1,.67,1.19v9h1.35a1.39,1.39,0,0,0,2.13-.3h8.82a1.39,1.39,0,0,1,1.39,1.39v4.9l1.79,1.79V200.9a1.39,1.39,0,0,1,1.39-1.39h17a1.39,1.39,0,0,1,1.39,1.39v4.39h16.86a1.39,1.39,0,0,1,1,.41l3.85,3.85h6.86v-1.65a1.39,1.39,0,0,1,1.39-1.39h12.16a1.39,1.39,0,0,1,1.39,1.39v3.34l0.83-.83a1.39,1.39,0,0,1,1-.41h2.28a1.39,1.39,0,0,1,1.39,1.39v0.29h6v-0.44a1.39,1.39,0,0,1,1.39-1.39h2.57v-0.13a1.39,1.39,0,0,1,1.39-1.39h10a1.39,1.39,0,0,1,1.39,1.39v1.65h8.34a1.39,1.39,0,0,1,1.39,1.39v9h6V208.5a1.39,1.39,0,0,1,1.39-1.39h8v-1.65a1.39,1.39,0,0,1,1.39-1.39h17.33a1.39,1.39,0,0,1,1.39,1.39v7.43H1106a1.39,1.39,0,0,1,1.39,1.39v4.39h12.73V217a1.39,1.39,0,0,1,1.39-1.39h7a1.39,1.39,0,0,1,1.39,1.39v7.13h14.56v-1.35a1.39,1.39,0,0,1,1.39-1.39h12.46a1.39,1.39,0,0,1,1.39,1.39v1h4.83V221a1.39,1.39,0,0,1,1.39-1.39h10.34a1.39,1.39,0,0,1,1.39,1.39v1.35h11.69a1.39,1.39,0,0,1,1.39,1.39v15h19.73V217a1.39,1.39,0,0,1,1.39-1.39h7.9a1.39,1.39,0,0,1,1.39,1.39v65.36A1.39,1.39,0,0,1,1219.68,283.76Zm-299-2.77h297.6V218.4h-5.13v21.72a1.39,1.39,0,0,1-1.39,1.39h-22.5a1.39,1.39,0,0,1-1.39-1.39v-15H1176.2a1.39,1.39,0,0,1-1.39-1.39v-1.35h-7.57v2.87a1.39,1.39,0,0,1-1.39,1.39h-7.6a1.39,1.39,0,0,1-1.39-1.39v-1h-9.69v1.35a1.39,1.39,0,0,1-1.39,1.39h-17.33a1.39,1.39,0,0,1-1.39-1.39V218.4h-4.22v1.65a1.39,1.39,0,0,1-1.39,1.39H1106a1.39,1.39,0,0,1-1.39-1.39v-4.39H1085.3a1.39,1.39,0,0,1-1.39-1.39v-7.43h-14.56v1.65a1.39,1.39,0,0,1-1.39,1.39h-8v13.21a1.39,1.39,0,0,1-1.39,1.39h-8.82a1.39,1.39,0,0,1-1.39-1.39v-9H1040a1.39,1.39,0,0,1-1.39-1.39V211.1h-7.26v0.13a1.39,1.39,0,0,1-1.39,1.39h-2.57v0.44a1.39,1.39,0,0,1-1.39,1.39h-8.82a1.39,1.39,0,0,1-1.39-1.39v-0.29h-0.32l-2.79,2.79a1.39,1.39,0,0,1-2.37-1v-5.3H1001v1.65a1.39,1.39,0,0,1-1.39,1.39h-8.82a1.39,1.39,0,0,1-1-.41l-3.85-3.85H968.25a1.39,1.39,0,0,1-1.39-1.39v-4.39H952.61V207a1.39,1.39,0,0,1-2.37,1l-4.56-4.56a1.39,1.39,0,0,1-.41-1v-4.09h-6v1a1.39,1.39,0,0,1-2.37,1l-1.72-1.72H933a1.39,1.39,0,0,1-1.39-1.39V187.7l-5.08-3h-5.83V281Z"/><polygon class="cls-18" points="919.31 152.12 919.31 64.72 928.59 64.72 928.59 62.62 939.36 62.62 939.36 72.5 945.95 72.5 945.95 83.27 959.41 83.27 959.41 97.34 967.8 97.34 967.8 115.6 972.29 115.6 972.29 112.61 977.08 112.61 977.08 107.37 980.67 107.37 980.67 100.33 994.14 100.33 1033.35 100.33 1033.35 103.33 1036.04 103.33 1036.04 101.23 1045.32 101.23 1045.32 127.87 1054.6 127.87 1054.6 100.63 1082.14 100.63 1082.14 98.54 1096.8 98.54 1096.8 101.83 1118.36 101.83 1118.36 105.42 1126.44 105.42 1126.44 98.84 1139.31 98.84 1139.31 101.23 1146.19 101.23 1146.19 103.03 1155.47 103.03 1155.47 98.24 1162.36 98.24 1162.36 101.53 1171.93 101.53 1171.93 97.94 1185.1 97.94 1185.1 101.53 1196.48 101.53 1196.48 99.14 1212.64 99.14 1212.64 103.03 1219.23 103.03 1219.23 152.12 919.31 152.12"/><path class="cls-7" d="M1219.23,153.5H919.31a1.39,1.39,0,0,1-1.39-1.39V64.71a1.39,1.39,0,0,1,1.39-1.39h7.89V62.62a1.39,1.39,0,0,1,1.39-1.39h10.78a1.39,1.39,0,0,1,1.39,1.39v8.49h5.2a1.39,1.39,0,0,1,1.39,1.39v9.39h12.08a1.39,1.39,0,0,1,1.39,1.39V96h7a1.39,1.39,0,0,1,1.39,1.39v16.87h1.72v-1.61a1.39,1.39,0,0,1,1.39-1.39h3.4v-3.85a1.39,1.39,0,0,1,1.39-1.39h2.21v-5.65a1.39,1.39,0,0,1,1.39-1.39h52.68a1.39,1.39,0,0,1,1.39,1.39v0.44a1.39,1.39,0,0,1,1.31-.93h9.28a1.39,1.39,0,0,1,1.39,1.39v25.25h6.51V100.63a1.39,1.39,0,0,1,1.39-1.39h26.15V98.54a1.39,1.39,0,0,1,1.39-1.39h14.67a1.39,1.39,0,0,1,1.39,1.39v1.91h20.17a1.39,1.39,0,0,1,1.39,1.39V104h5.31v-5.2a1.39,1.39,0,0,1,1.39-1.39h12.87a1.39,1.39,0,0,1,1.39,1.39v1h5.5a1.39,1.39,0,0,1,1.39,1.39v0.41h6.51v-3.4a1.39,1.39,0,0,1,1.39-1.39h6.88a1.39,1.39,0,0,1,1.39,1.39v1.91h6.81V97.94a1.39,1.39,0,0,1,1.39-1.39h13.17a1.39,1.39,0,0,1,1.39,1.39v2.21h8.6v-1a1.39,1.39,0,0,1,1.39-1.39h16.16a1.39,1.39,0,0,1,1.39,1.39v2.51h5.2a1.39,1.39,0,0,1,1.39,1.39v49.09A1.39,1.39,0,0,1,1219.23,153.5Zm-298.54-2.77h297.15V104.41h-5.2a1.39,1.39,0,0,1-1.39-1.39v-2.51h-13.39v1a1.39,1.39,0,0,1-1.39,1.39H1185.1a1.39,1.39,0,0,1-1.39-1.39V99.33h-10.4v2.21a1.39,1.39,0,0,1-1.39,1.39h-9.58a1.39,1.39,0,0,1-1.39-1.39V99.62h-4.11V103a1.39,1.39,0,0,1-1.39,1.39h-9.28a1.39,1.39,0,0,1-1.39-1.39v-0.41h-5.5a1.39,1.39,0,0,1-1.39-1.39v-1h-10.1v5.2a1.39,1.39,0,0,1-1.39,1.39h-8.08a1.39,1.39,0,0,1-1.39-1.39v-2.21H1096.8a1.39,1.39,0,0,1-1.39-1.39V99.92h-11.89v0.71a1.39,1.39,0,0,1-1.39,1.39H1056v25.85a1.39,1.39,0,0,1-1.39,1.39h-9.28a1.39,1.39,0,0,1-1.39-1.39V102.62h-6.51v0.71a1.39,1.39,0,0,1-1.39,1.39h-2.69a1.39,1.39,0,0,1-1.39-1.39v-1.61H982.05v5.65a1.39,1.39,0,0,1-1.39,1.39h-2.21v3.85a1.39,1.39,0,0,1-1.39,1.39h-3.4v1.61a1.39,1.39,0,0,1-1.39,1.39H967.8a1.39,1.39,0,0,1-1.39-1.39V98.73h-7A1.39,1.39,0,0,1,958,97.34V84.66H945.95a1.39,1.39,0,0,1-1.39-1.39V73.88h-5.2A1.39,1.39,0,0,1,938,72.5V64h-8v0.71a1.39,1.39,0,0,1-1.39,1.39h-7.89v84.63Z"/><polygon class="cls-18" points="919.31 26.89 919.31 -41.27 938.09 -41.27 953.54 -36.12 953.54 -23.4 1070.78 -23.4 1070.78 -0.98 1075.63 -3.4 1075.63 -19.46 1081.23 -25.07 1117.74 -25.07 1117.74 -15.22 1119.86 -15.22 1119.86 -20.07 1122.89 -23.1 1127.43 -23.1 1127.43 -19.16 1131.67 -23.4 1138.34 -23.4 1138.34 -26.73 1142.43 -30.82 1169.24 -30.82 1175.83 -24.23 1181.36 -29.76 1213.47 -29.76 1219.23 -24 1219.23 26.89 919.31 26.89"/><path class="cls-7" d="M1219.23,28.28H919.31a1.39,1.39,0,0,1-1.39-1.39V-41.27a1.39,1.39,0,0,1,1.39-1.39h18.78a1.39,1.39,0,0,1,.44.07L954-37.44a1.39,1.39,0,0,1,.95,1.31v11.34h115.86a1.39,1.39,0,0,1,1.39,1.39V-3.22l2.08-1v-15.2a1.38,1.38,0,0,1,.41-1l5.61-5.6a1.39,1.39,0,0,1,1-.41h36.5a1.39,1.39,0,0,1,1.39,1.39v3.77l2.78-2.79a1.39,1.39,0,0,1,1-.41h4.54a1.39,1.39,0,0,1,1.39,1.39v0.59l1.88-1.88a1.39,1.39,0,0,1,1-.41H1137v-1.95a1.38,1.38,0,0,1,.41-1l4.09-4.09a1.39,1.39,0,0,1,1-.41h26.81a1.39,1.39,0,0,1,1,.41l5.61,5.61,4.55-4.55a1.39,1.39,0,0,1,1-.41h32.11a1.39,1.39,0,0,1,1,.41l5.75,5.76a1.38,1.38,0,0,1,.41,1v50.9A1.39,1.39,0,0,1,1219.23,28.28ZM920.69,25.5h297.15V-23.43l-4.94-4.94h-31l-5.12,5.12a1.39,1.39,0,0,1-2,0l-6.18-6.18H1143l-3.28,3.28v2.76a1.39,1.39,0,0,1-1.39,1.39h-6.09l-3.84,3.84a1.38,1.38,0,0,1-1.51.3,1.39,1.39,0,0,1-.86-1.28v-2.55h-2.58l-2.22,2.22v4.27a1.39,1.39,0,0,1-1.39,1.39h-2.12a1.39,1.39,0,0,1-1.39-1.39v-8.46h-34.54L1077-18.89V-3.4a1.39,1.39,0,0,1-.77,1.24l-4.85,2.42a1.39,1.39,0,0,1-1.35-.06A1.39,1.39,0,0,1,1069.4-1V-22H953.54a1.39,1.39,0,0,1-1.39-1.39V-35.12l-14.29-4.76H920.69V25.5Z"/><polygon class="cls-3" points="1253.01 45.33 1254.4 436.45 1266.22 436.45 1264.83 57.39 1484.06 57.39 1484.06 45.33 1253.01 45.33"/><path class="cls-7" d="M1266.22,437.95H1254.4a1.5,1.5,0,0,1-1.5-1.49l-1.39-391.11a1.5,1.5,0,0,1,1.5-1.51h231.05a1.5,1.5,0,0,1,1.5,1.5V57.39a1.5,1.5,0,0,1-1.5,1.5H1266.34l1.38,377.55A1.5,1.5,0,0,1,1266.22,437.95Zm-10.32-3h8.82L1263.33,57.4a1.5,1.5,0,0,1,1.5-1.51h217.73V46.83h-228Z"/><path class="cls-18" d="M510.73,339.24a1.39,1.39,0,0,1-1.39-1.39v-1.06H489.64a1.39,1.39,0,0,1-1.39-1.39v-0.61a1.39,1.39,0,0,1,1.15-1.37l4.84-.83,0.23,0h23.45a1.39,1.39,0,0,1,1.39,1.39v2.73a1.39,1.39,0,0,1-1.06,1.35l-4.84,1.17a1.37,1.37,0,0,1-.32,0h-2.35Z"/><path class="cls-7" d="M517.92,334v2.73l-4.84,1.17h-2.35V335.4H489.64v-0.61l4.84-.83h23.45m0-2.77H494.47a2.77,2.77,0,0,0-.47,0l-4.84.83a2.77,2.77,0,0,0-2.3,2.73v0.61a2.77,2.77,0,0,0,2.77,2.77H508a2.77,2.77,0,0,0,2.75,2.45h2.35a2.77,2.77,0,0,0,.65-0.08l4.84-1.17a2.77,2.77,0,0,0,2.12-2.69V334a2.77,2.77,0,0,0-2.77-2.77h0Z"/><path class="cls-18" d="M502.2,341.61a1.39,1.39,0,0,1-1.39-1.39v-1.06H481.1a1.39,1.39,0,0,1-1.39-1.39v-0.61a1.39,1.39,0,0,1,1.15-1.37l4.84-.83,0.23,0h23.45a1.39,1.39,0,0,1,1.39,1.39v2.73a1.39,1.39,0,0,1-1.06,1.35l-4.84,1.17a1.37,1.37,0,0,1-.32,0H502.2Z"/><path class="cls-7" d="M509.39,336.33v2.73l-4.84,1.17H502.2v-2.45H481.1v-0.61l4.84-.83h23.45m0-2.77H485.94a2.77,2.77,0,0,0-.47,0l-4.84.83a2.77,2.77,0,0,0-2.3,2.73v0.61a2.77,2.77,0,0,0,2.77,2.77h18.34A2.77,2.77,0,0,0,502.2,343h2.35a2.77,2.77,0,0,0,.65-0.08l4.84-1.17a2.77,2.77,0,0,0,2.12-2.69v-2.73a2.77,2.77,0,0,0-2.77-2.77h0Z"/><path class="cls-18" d="M493.66,344a1.39,1.39,0,0,1-1.39-1.39v-1.06H472.57a1.39,1.39,0,0,1-1.39-1.39v-0.61a1.39,1.39,0,0,1,1.15-1.37l4.84-.83,0.23,0h23.45a1.39,1.39,0,0,1,1.39,1.39v2.73a1.39,1.39,0,0,1-1.06,1.35l-4.84,1.17a1.37,1.37,0,0,1-.32,0h-2.35Z"/><path class="cls-7" d="M500.86,338.7v2.73L496,342.59h-2.35v-2.45H472.57v-0.61l4.84-.83h23.45m0-2.77H477.41a2.77,2.77,0,0,0-.47,0l-4.84.83a2.77,2.77,0,0,0-2.3,2.73v0.61a2.77,2.77,0,0,0,2.77,2.77h18.34a2.77,2.77,0,0,0,2.75,2.45H496a2.77,2.77,0,0,0,.65-0.08l4.84-1.17a2.77,2.77,0,0,0,2.12-2.69V338.7a2.77,2.77,0,0,0-2.77-2.77h0Z"/><path class="cls-18" d="M485.13,346.35a1.39,1.39,0,0,1-1.39-1.39V343.9H464a1.39,1.39,0,0,1-1.39-1.39V341.9a1.39,1.39,0,0,1,1.15-1.37l4.84-.83,0.23,0h23.45a1.39,1.39,0,0,1,1.39,1.39v2.73a1.39,1.39,0,0,1-1.06,1.35l-4.84,1.17a1.37,1.37,0,0,1-.32,0h-2.35Z"/><path class="cls-7" d="M492.32,341.07v2.73L487.48,345h-2.35v-2.45H464V341.9l4.84-.83h23.45m0-2.77H468.87a2.77,2.77,0,0,0-.47,0l-4.84.83a2.77,2.77,0,0,0-2.3,2.73v0.61a2.77,2.77,0,0,0,2.77,2.77h18.34a2.77,2.77,0,0,0,2.75,2.45h2.35a2.77,2.77,0,0,0,.65-0.08l4.84-1.17a2.77,2.77,0,0,0,2.12-2.69v-2.73a2.77,2.77,0,0,0-2.77-2.77h0Z"/><path class="cls-18" d="M476.6,348.72a1.39,1.39,0,0,1-1.39-1.39v-1.06H455.5a1.39,1.39,0,0,1-1.39-1.39v-0.61a1.39,1.39,0,0,1,1.15-1.37l4.84-.83,0.23,0h23.45a1.39,1.39,0,0,1,1.39,1.39v2.73a1.39,1.39,0,0,1-1.06,1.35l-4.84,1.17a1.37,1.37,0,0,1-.32,0H476.6Z"/><path class="cls-7" d="M483.79,343.44v2.73L479,347.33H476.6v-2.45H455.5v-0.61l4.84-.83h23.45m0-2.77H460.34a2.77,2.77,0,0,0-.47,0l-4.84.83a2.77,2.77,0,0,0-2.3,2.73v0.61a2.77,2.77,0,0,0,2.77,2.77h18.34a2.77,2.77,0,0,0,2.75,2.45H479a2.77,2.77,0,0,0,.65-0.08l4.84-1.17a2.77,2.77,0,0,0,2.12-2.69v-2.73a2.77,2.77,0,0,0-2.77-2.77h0Z"/><path class="cls-18" d="M468.06,351.09a1.39,1.39,0,0,1-1.39-1.39v-1.06H447a1.39,1.39,0,0,1-1.39-1.39v-0.61a1.39,1.39,0,0,1,1.15-1.37l4.84-.83,0.23,0h23.45a1.39,1.39,0,0,1,1.39,1.39v2.73a1.39,1.39,0,0,1-1.06,1.35l-4.84,1.17a1.37,1.37,0,0,1-.32,0h-2.35Z"/><path class="cls-7" d="M475.26,345.81v2.73l-4.84,1.17h-2.35v-2.45H447v-0.61l4.84-.83h23.45m0-2.77H451.81a2.77,2.77,0,0,0-.47,0l-4.84.83a2.77,2.77,0,0,0-2.3,2.73v0.61A2.77,2.77,0,0,0,447,350h18.34a2.77,2.77,0,0,0,2.75,2.45h2.35a2.77,2.77,0,0,0,.65-0.08l4.84-1.17a2.77,2.77,0,0,0,2.12-2.69v-2.73a2.77,2.77,0,0,0-2.77-2.77h0Z"/><path class="cls-18" d="M459.53,353.46a1.39,1.39,0,0,1-1.39-1.39V351H438.44a1.39,1.39,0,0,1-1.39-1.39V349a1.39,1.39,0,0,1,1.15-1.37l4.84-.83,0.23,0h23.45a1.39,1.39,0,0,1,1.39,1.39v2.73a1.39,1.39,0,0,1-1.06,1.35l-4.84,1.17a1.37,1.37,0,0,1-.32,0h-2.35Z"/><path class="cls-7" d="M466.72,348.18v2.73l-4.84,1.17h-2.35v-2.45H438.44V349l4.84-.83h23.45m0-2.77H443.27a2.77,2.77,0,0,0-.47,0l-4.84.83a2.77,2.77,0,0,0-2.3,2.73v0.61a2.77,2.77,0,0,0,2.77,2.77h18.34a2.77,2.77,0,0,0,2.75,2.45h2.35a2.77,2.77,0,0,0,.65-0.08l4.84-1.17a2.77,2.77,0,0,0,2.12-2.69v-2.73a2.77,2.77,0,0,0-2.77-2.77h0Z"/><path class="cls-18" d="M451,355.83a1.39,1.39,0,0,1-1.39-1.39v-1.06H429.9a1.39,1.39,0,0,1-1.39-1.39v-0.61a1.39,1.39,0,0,1,1.15-1.37l4.84-.83,0.23,0h23.45a1.39,1.39,0,0,1,1.39,1.39v2.73a1.39,1.39,0,0,1-1.06,1.35l-4.84,1.17a1.37,1.37,0,0,1-.32,0H451Z"/><path class="cls-7" d="M458.19,350.55v2.73l-4.84,1.17H451V352H429.9v-0.61l4.84-.83h23.45m0-2.77H434.74a2.77,2.77,0,0,0-.47,0l-4.84.83a2.77,2.77,0,0,0-2.3,2.73V352a2.77,2.77,0,0,0,2.77,2.77h18.34a2.77,2.77,0,0,0,2.75,2.45h2.35a2.77,2.77,0,0,0,.65-0.08l4.84-1.17a2.77,2.77,0,0,0,2.12-2.69v-2.73a2.77,2.77,0,0,0-2.77-2.77h0Z"/><path class="cls-18" d="M442.46,358.2a1.39,1.39,0,0,1-1.39-1.39v-1.06H421.37a1.39,1.39,0,0,1-1.39-1.39v-0.61a1.39,1.39,0,0,1,1.15-1.37l4.84-.83,0.23,0h23.45a1.39,1.39,0,0,1,1.39,1.39v2.73A1.39,1.39,0,0,1,450,357l-4.84,1.17a1.37,1.37,0,0,1-.32,0h-2.35Z"/><path class="cls-7" d="M449.66,352.92v2.73l-4.84,1.17h-2.35v-2.45H421.37v-0.61l4.84-.83h23.45m0-2.77H426.21a2.77,2.77,0,0,0-.47,0l-4.84.83a2.77,2.77,0,0,0-2.3,2.73v0.61a2.77,2.77,0,0,0,2.77,2.77h18.34a2.77,2.77,0,0,0,2.75,2.45h2.35a2.77,2.77,0,0,0,.65-0.08l4.84-1.17a2.77,2.77,0,0,0,2.12-2.69v-2.73a2.77,2.77,0,0,0-2.77-2.77h0Z"/><path class="cls-18" d="M412.84,360.57a1.39,1.39,0,0,1-1.39-1.39v-3.06a1.39,1.39,0,0,1,1.15-1.37l4.84-.83,0.23,0h23.45a1.39,1.39,0,0,1,1.39,1.39V358a1.39,1.39,0,0,1-1.06,1.35l-4.84,1.17a1.37,1.37,0,0,1-.32,0H412.84Z"/><path class="cls-7" d="M441.12,355.3V358l-4.84,1.17H412.84v-3.06l4.84-.83h23.45m0-2.77H417.67a2.77,2.77,0,0,0-.47,0l-4.84.83a2.77,2.77,0,0,0-2.3,2.73v3.06a2.77,2.77,0,0,0,2.77,2.77h23.45a2.77,2.77,0,0,0,.65-0.08l4.84-1.17a2.77,2.77,0,0,0,2.12-2.69V355.3a2.77,2.77,0,0,0-2.77-2.77h0Z"/><path class="cls-18" d="M564.15,362.5a1.39,1.39,0,0,1-1.39-1.39v-1.06H543.05a1.39,1.39,0,0,1-1.39-1.39v-0.61a1.39,1.39,0,0,1,1.15-1.37l4.84-.83,0.23,0h23.45a1.39,1.39,0,0,1,1.39,1.39v2.73a1.39,1.39,0,0,1-1.06,1.35l-4.84,1.17a1.37,1.37,0,0,1-.32,0h-2.35Z"/><path class="cls-7" d="M571.34,357.22v2.73l-4.84,1.17h-2.35v-2.45H543.05v-0.61l4.84-.83h23.45m0-2.77H547.89a2.77,2.77,0,0,0-.47,0l-4.84.83a2.77,2.77,0,0,0-2.3,2.73v0.61a2.77,2.77,0,0,0,2.77,2.77h18.34a2.77,2.77,0,0,0,2.75,2.45h2.35a2.77,2.77,0,0,0,.65-0.08l4.84-1.17a2.77,2.77,0,0,0,2.12-2.69v-2.73a2.77,2.77,0,0,0-2.77-2.77h0Z"/><path class="cls-18" d="M555.61,364.87a1.39,1.39,0,0,1-1.39-1.39v-1.06H534.52a1.39,1.39,0,0,1-1.39-1.39v-0.61a1.39,1.39,0,0,1,1.15-1.37l4.84-.83,0.23,0h23.45a1.39,1.39,0,0,1,1.39,1.39v2.73a1.39,1.39,0,0,1-1.06,1.35l-4.84,1.17a1.37,1.37,0,0,1-.32,0h-2.35Z"/><path class="cls-7" d="M562.81,359.59v2.73L558,363.48h-2.35V361H534.52v-0.61l4.84-.83h23.45m0-2.77H539.36a2.77,2.77,0,0,0-.47,0l-4.84.83a2.77,2.77,0,0,0-2.3,2.73V361a2.77,2.77,0,0,0,2.77,2.77h18.34a2.77,2.77,0,0,0,2.75,2.45H558a2.77,2.77,0,0,0,.65-0.08l4.84-1.17a2.77,2.77,0,0,0,2.12-2.69v-2.73a2.77,2.77,0,0,0-2.77-2.77h0Z"/><path class="cls-18" d="M547.08,367.24a1.39,1.39,0,0,1-1.39-1.39v-1.06H526a1.39,1.39,0,0,1-1.39-1.39v-0.61a1.39,1.39,0,0,1,1.15-1.37l4.84-.83,0.23,0h23.45a1.39,1.39,0,0,1,1.39,1.39v2.73A1.39,1.39,0,0,1,554.6,366l-4.84,1.17a1.37,1.37,0,0,1-.32,0h-2.35Z"/><path class="cls-7" d="M554.27,362v2.73l-4.84,1.17h-2.35v-2.45H526v-0.61l4.84-.83h23.45m0-2.77H530.83a2.77,2.77,0,0,0-.47,0l-4.84.83a2.77,2.77,0,0,0-2.3,2.73v0.61a2.77,2.77,0,0,0,2.77,2.77h18.34a2.77,2.77,0,0,0,2.75,2.45h2.35a2.77,2.77,0,0,0,.65-0.08l4.84-1.17a2.77,2.77,0,0,0,2.12-2.69V362a2.77,2.77,0,0,0-2.77-2.77h0Z"/><path class="cls-18" d="M538.55,369.61a1.39,1.39,0,0,1-1.39-1.39v-1.06H517.45a1.39,1.39,0,0,1-1.39-1.39v-0.61a1.39,1.39,0,0,1,1.15-1.37l4.84-.83,0.23,0h23.45a1.39,1.39,0,0,1,1.39,1.39v2.73a1.39,1.39,0,0,1-1.06,1.35l-4.84,1.17a1.37,1.37,0,0,1-.32,0h-2.35Z"/><path class="cls-7" d="M545.74,364.33v2.73l-4.84,1.17h-2.35v-2.45H517.45v-0.61l4.84-.83h23.45m0-2.77H522.29a2.77,2.77,0,0,0-.47,0l-4.84.83a2.77,2.77,0,0,0-2.3,2.73v0.61a2.77,2.77,0,0,0,2.77,2.77h18.34a2.77,2.77,0,0,0,2.75,2.45h2.35a2.77,2.77,0,0,0,.65-0.08l4.84-1.17a2.77,2.77,0,0,0,2.12-2.69v-2.73a2.77,2.77,0,0,0-2.77-2.77h0Z"/><path class="cls-18" d="M530,372a1.39,1.39,0,0,1-1.39-1.39v-1.06H508.92a1.39,1.39,0,0,1-1.39-1.39v-0.61a1.39,1.39,0,0,1,1.15-1.37l4.84-.83,0.23,0h23.45a1.39,1.39,0,0,1,1.39,1.39v2.73a1.39,1.39,0,0,1-1.06,1.35l-4.84,1.17a1.37,1.37,0,0,1-.32,0H530Z"/><path class="cls-7" d="M537.21,366.7v2.73l-4.84,1.17H530v-2.45H508.92v-0.61l4.84-.83h23.45m0-2.77H513.76a2.77,2.77,0,0,0-.47,0l-4.84.83a2.77,2.77,0,0,0-2.3,2.73v0.61a2.77,2.77,0,0,0,2.77,2.77h18.34a2.77,2.77,0,0,0,2.75,2.45h2.35a2.77,2.77,0,0,0,.65-0.08l4.84-1.17a2.77,2.77,0,0,0,2.12-2.69V366.7a2.77,2.77,0,0,0-2.77-2.77h0Z"/><path class="cls-18" d="M521.48,374.35A1.39,1.39,0,0,1,520.1,373V371.9H500.39a1.39,1.39,0,0,1-1.39-1.39V369.9a1.39,1.39,0,0,1,1.15-1.37l4.84-.83,0.23,0h23.45a1.39,1.39,0,0,1,1.39,1.39v2.73a1.39,1.39,0,0,1-1.06,1.35l-4.84,1.17a1.37,1.37,0,0,1-.32,0h-2.35Z"/><path class="cls-7" d="M528.67,369.07v2.73L523.84,373h-2.35v-2.45H500.39V369.9l4.84-.83h23.45m0-2.77H505.23a2.77,2.77,0,0,0-.47,0l-4.84.83a2.77,2.77,0,0,0-2.3,2.73v0.61a2.77,2.77,0,0,0,2.77,2.77h18.34a2.77,2.77,0,0,0,2.75,2.45h2.35a2.77,2.77,0,0,0,.65-0.08l4.84-1.17a2.77,2.77,0,0,0,2.12-2.69v-2.73a2.77,2.77,0,0,0-2.77-2.77h0Z"/><path class="cls-18" d="M512.95,376.72a1.39,1.39,0,0,1-1.39-1.39v-1.06H491.85a1.39,1.39,0,0,1-1.39-1.39v-0.61a1.39,1.39,0,0,1,1.15-1.37l4.84-.83,0.23,0h23.45a1.39,1.39,0,0,1,1.39,1.39v2.73a1.39,1.39,0,0,1-1.06,1.35l-4.84,1.17a1.37,1.37,0,0,1-.32,0h-2.35Z"/><path class="cls-7" d="M520.14,371.44v2.73l-4.84,1.17h-2.35v-2.45H491.85v-0.61l4.84-.83h23.45m0-2.77H496.69a2.77,2.77,0,0,0-.47,0l-4.84.83a2.77,2.77,0,0,0-2.3,2.73v0.61a2.77,2.77,0,0,0,2.77,2.77h18.34a2.77,2.77,0,0,0,2.75,2.45h2.35A2.77,2.77,0,0,0,516,378l4.84-1.17a2.77,2.77,0,0,0,2.12-2.69v-2.73a2.77,2.77,0,0,0-2.77-2.77h0Z"/><path class="cls-18" d="M504.42,379.09a1.39,1.39,0,0,1-1.39-1.39v-1.06H483.32a1.39,1.39,0,0,1-1.39-1.39v-0.61a1.39,1.39,0,0,1,1.15-1.37l4.84-.83,0.23,0h23.45a1.39,1.39,0,0,1,1.39,1.39v2.73a1.39,1.39,0,0,1-1.06,1.35l-4.84,1.17a1.37,1.37,0,0,1-.32,0h-2.35Z"/><path class="cls-7" d="M511.61,373.82v2.73l-4.84,1.17h-2.35v-2.45H483.32v-0.61l4.84-.83h23.45m0-2.77H488.16a2.77,2.77,0,0,0-.47,0l-4.84.83a2.77,2.77,0,0,0-2.3,2.73v0.61a2.77,2.77,0,0,0,2.77,2.77h18.34a2.77,2.77,0,0,0,2.75,2.45h2.35a2.77,2.77,0,0,0,.65-0.08l4.84-1.17a2.77,2.77,0,0,0,2.12-2.69v-2.73a2.77,2.77,0,0,0-2.77-2.77h0Z"/><path class="cls-18" d="M495.88,381.46a1.39,1.39,0,0,1-1.39-1.39V379H474.79a1.39,1.39,0,0,1-1.39-1.39V377a1.39,1.39,0,0,1,1.15-1.37l4.84-.83,0.23,0h23.45a1.39,1.39,0,0,1,1.39,1.39v2.73a1.39,1.39,0,0,1-1.06,1.35l-4.84,1.17a1.37,1.37,0,0,1-.32,0h-2.35Z"/><path class="cls-7" d="M503.07,376.19v2.73l-4.84,1.17h-2.35v-2.45H474.79V377l4.84-.83h23.45m0-2.77H479.63a2.77,2.77,0,0,0-.47,0l-4.84.83A2.77,2.77,0,0,0,472,377v0.61a2.77,2.77,0,0,0,2.77,2.77h18.34a2.77,2.77,0,0,0,2.75,2.45h2.35a2.77,2.77,0,0,0,.65-0.08l4.84-1.17a2.77,2.77,0,0,0,2.12-2.69v-2.73a2.77,2.77,0,0,0-2.77-2.77h0Z"/><path class="cls-18" d="M466.25,383.83a1.39,1.39,0,0,1-1.39-1.39v-3.06A1.39,1.39,0,0,1,466,378l4.84-.83,0.23,0h23.45a1.39,1.39,0,0,1,1.39,1.39v2.73a1.39,1.39,0,0,1-1.06,1.35L490,383.79a1.37,1.37,0,0,1-.32,0H466.25Z"/><path class="cls-7" d="M494.54,378.56v2.73l-4.84,1.17H466.25v-3.06l4.84-.83h23.45m0-2.77H471.09a2.77,2.77,0,0,0-.47,0l-4.84.83a2.77,2.77,0,0,0-2.3,2.73v3.06a2.77,2.77,0,0,0,2.77,2.77H489.7a2.77,2.77,0,0,0,.65-0.08l4.84-1.17a2.77,2.77,0,0,0,2.12-2.69v-2.73a2.77,2.77,0,0,0-2.77-2.77h0Z"/><rect class="cls-3" x="1323.29" y="134.89" width="116.41" height="133.83" rx="18.58" ry="18.58" transform="translate(39.32 586.3) rotate(-24.3)"/><path class="cls-7" d="M1365.28,282.25A20.13,20.13,0,0,1,1347,270.42l-39.77-88.1a20.11,20.11,0,0,1,10-26.57l72.23-32.61a20.11,20.11,0,0,1,26.57,10l39.77,88.1a20.08,20.08,0,0,1-10,26.57l-72.23,32.61A20,20,0,0,1,1365.28,282.25Zm32.42-157.89a17,17,0,0,0-7,1.51l-72.23,32.61a17.1,17.1,0,0,0-8.54,22.6l39.77,88.1a17.08,17.08,0,0,0,22.6,8.54l72.23-32.61a17.08,17.08,0,0,0,8.54-22.6l-39.77-88.1A17.11,17.11,0,0,0,1397.7,124.37Z"/><circle class="cls-3" cx="1508.2" cy="313.94" r="11.2"/><path class="cls-7" d="M1508.2,326.64a12.7,12.7,0,1,1,12.71-12.7A12.72,12.72,0,0,1,1508.2,326.64Zm0-22.41a9.7,9.7,0,1,0,9.71,9.7A9.72,9.72,0,0,0,1508.2,304.23Z"/><circle class="cls-3" cx="1454.58" cy="313.94" r="11.2"/><path class="cls-7" d="M1454.58,326.64a12.7,12.7,0,1,1,12.7-12.7A12.72,12.72,0,0,1,1454.58,326.64Zm0-22.41a9.7,9.7,0,1,0,9.7,9.7A9.72,9.72,0,0,0,1454.58,304.23Z"/><path class="cls-18" d="M1723,653.34a14.15,14.15,0,0,1-6.88,2,15.62,15.62,0,0,1-7.12-2V517.24h14v136.1Z"/><path class="cls-7" d="M1716.12,656.72a17,17,0,0,1-7.83-2.2,1.38,1.38,0,0,1-.67-1.19V517.24a1.39,1.39,0,0,1,1.39-1.39h14a1.39,1.39,0,0,1,1.39,1.39v136.1a1.39,1.39,0,0,1-.63,1.16A15.51,15.51,0,0,1,1716.12,656.72Zm-5.73-4.22a13.87,13.87,0,0,0,5.73,1.45,12.51,12.51,0,0,0,5.5-1.42V518.63h-11.23V652.5Zm12.61,0.84h0Z"/><polygon class="cls-18" points="384 332.35 338.35 343.44 306.54 275.72 348.5 265 384 332.35"/><path class="cls-7" d="M338.35,344.83a1.39,1.39,0,0,1-1.25-.8l-31.82-67.73a1.39,1.39,0,0,1,.91-1.93l42-10.72a1.38,1.38,0,0,1,1.57.7l35.5,67.35a1.39,1.39,0,0,1-.9,2l-45.65,11.09A1.4,1.4,0,0,1,338.35,344.83ZM308.5,276.65l30.62,65.18,42.82-10.4-34.16-64.81Z"/></g></g></g></svg>