<svg id="Floor" xmlns="http://www.w3.org/2000/svg" xmlns:xlink="http://www.w3.org/1999/xlink" viewBox="0 0 1792 768"><defs><style>.cls-1{fill:none;}.cls-2{fill:#a9cf8a;}.cls-3,.cls-6{fill:#24265b;}.cls-4{clip-path:url(#clip-path);}.cls-5{fill:#fff;}.cls-6{opacity:0.2;}.cls-7{clip-path:url(#clip-path-2);}.cls-8{clip-path:url(#clip-path-3);}.cls-9{clip-path:url(#clip-path-4);}.cls-10{clip-path:url(#clip-path-5);}.cls-11{clip-path:url(#clip-path-6);}.cls-12{clip-path:url(#clip-path-7);}.cls-13{clip-path:url(#clip-path-8);}</style><clipPath id="clip-path"><rect class="cls-1" x="-2" y="-2" width="1796" height="654.28"/></clipPath><clipPath id="clip-path-2"><rect class="cls-1" x="-502.24" y="89.87" width="691.44" height="437.64"/></clipPath><clipPath id="clip-path-3"><polygon class="cls-1" points="100.22 264.92 12.7 264.92 12.7 147.73 56.46 107.37 100.22 147.73 100.22 264.92"/></clipPath><clipPath id="clip-path-4"><rect class="cls-1" x="1593.74" y="89.87" width="691.44" height="437.64" transform="translate(3878.92 617.37) rotate(-180)"/></clipPath><clipPath id="clip-path-5"><polygon class="cls-1" points="1682.72 264.92 1770.24 264.92 1770.24 147.73 1726.48 107.37 1682.72 147.73 1682.72 264.92"/></clipPath><clipPath id="clip-path-6"><rect class="cls-1" x="602.91" y="89.87" width="691.44" height="437.64"/></clipPath><clipPath id="clip-path-7"><polygon class="cls-1" points="1205.37 264.92 1117.84 264.92 1117.84 147.73 1161.61 107.37 1205.37 147.73 1205.37 264.92"/></clipPath><clipPath id="clip-path-8"><rect class="cls-1" x="651.05" y="387.46" width="262.57" height="140.04"/></clipPath></defs><title>location</title><rect class="cls-2" x="-2" y="512" width="1796" height="258"/><path class="cls-3" d="M1794,771.5H-2A1.5,1.5,0,0,1-3.5,770V512A1.5,1.5,0,0,1-2,510.5H1794a1.5,1.5,0,0,1,1.5,1.5V770A1.5,1.5,0,0,1,1794,771.5Zm-1794.5-3h1793v-255H-0.5v255Z"/><g class="cls-4"><rect class="cls-5" x="189.21" y="177.4" width="48.14" height="350.11" transform="translate(426.55 704.9) rotate(180)"/><path class="cls-3" d="M237.34,528.65H189.21a1.15,1.15,0,0,1-1.15-1.15V177.4a1.15,1.15,0,0,1,1.15-1.15h48.14a1.15,1.15,0,0,1,1.15,1.15V527.51A1.15,1.15,0,0,1,237.34,528.65Zm-47-2.3H236.2V178.54H190.35V526.36Z"/><polygon class="cls-6" points="189.21 527.51 237.34 527.51 213.28 394.03 237.34 394.03 237.34 177.4 189.21 177.4 189.21 527.51"/><rect class="cls-2" x="189.21" y="177.4" width="48.14" height="196.94" transform="translate(426.55 551.73) rotate(180)"/><path class="cls-3" d="M237.34,375.48H189.21a1.15,1.15,0,0,1-1.15-1.15V177.4a1.15,1.15,0,0,1,1.15-1.15h48.14a1.15,1.15,0,0,1,1.15,1.15V374.33A1.15,1.15,0,0,1,237.34,375.48Zm-47-2.3H236.2V178.54H190.35V373.19Z"/><path class="cls-3" d="M237.34,367.7H189.21a0.57,0.57,0,1,1,0-1.15h48.14A0.57,0.57,0,0,1,237.34,367.7Z"/><path class="cls-3" d="M237.34,383H189.21a0.57,0.57,0,1,1,0-1.15h48.14A0.57,0.57,0,0,1,237.34,383Z"/><path class="cls-3" d="M237.34,398.31H189.21a0.57,0.57,0,1,1,0-1.15h48.14A0.57,0.57,0,0,1,237.34,398.31Z"/><path class="cls-3" d="M237.34,413.62H189.21a0.57,0.57,0,1,1,0-1.15h48.14A0.57,0.57,0,0,1,237.34,413.62Z"/><path class="cls-3" d="M237.34,428.93H189.21a0.57,0.57,0,1,1,0-1.15h48.14A0.57,0.57,0,0,1,237.34,428.93Z"/><path class="cls-3" d="M237.34,444.24H189.21a0.57,0.57,0,1,1,0-1.15h48.14A0.57,0.57,0,0,1,237.34,444.24Z"/><path class="cls-3" d="M237.34,459.55H189.21a0.57,0.57,0,1,1,0-1.15h48.14A0.57,0.57,0,0,1,237.34,459.55Z"/><path class="cls-3" d="M237.34,474.86H189.21a0.57,0.57,0,1,1,0-1.15h48.14A0.57,0.57,0,0,1,237.34,474.86Z"/><path class="cls-3" d="M237.34,490.17H189.21a0.57,0.57,0,1,1,0-1.15h48.14A0.57,0.57,0,0,1,237.34,490.17Z"/><path class="cls-3" d="M237.34,505.48H189.21a0.57,0.57,0,1,1,0-1.15h48.14A0.57,0.57,0,0,1,237.34,505.48Z"/><path class="cls-3" d="M237.34,520.79H189.21a0.57,0.57,0,1,1,0-1.15h48.14A0.57,0.57,0,0,1,237.34,520.79Z"/><rect class="cls-5" x="-502.24" y="89.87" width="691.44" height="437.64"/><path class="cls-3" d="M189.21,528.65H-502.24a1.15,1.15,0,0,1-1.15-1.15V89.87a1.15,1.15,0,0,1,1.15-1.15H189.21a1.15,1.15,0,0,1,1.15,1.15V527.51A1.15,1.15,0,0,1,189.21,528.65Zm-690.29-2.3H188.06V91H-501.09V526.36Z"/><polygon class="cls-6" points="189.21 343.7 189.21 387.46 -26.31 384.94 -26.31 505.99 -17.93 505.99 -17.93 514.38 -4.81 514.38 -4.81 527.51 -77.01 527.51 -77.01 343.7 189.21 343.7"/><g class="cls-7"><path class="cls-3" d="M188.55,114.74H-501.58a0.57,0.57,0,0,1-.57-0.57,0.57,0.57,0,0,1,.57-0.57H188.55A0.57,0.57,0,1,1,188.55,114.74Z"/><path class="cls-3" d="M188.55,128.51H-501.58a0.57,0.57,0,0,1-.57-0.57,0.57,0.57,0,0,1,.57-0.57H188.55A0.57,0.57,0,1,1,188.55,128.51Z"/><path class="cls-3" d="M188.55,142.29H-501.58a0.57,0.57,0,0,1-.57-0.57,0.57,0.57,0,0,1,.57-0.57H188.55A0.57,0.57,0,1,1,188.55,142.29Z"/><path class="cls-3" d="M188.55,156.07H-501.58a0.57,0.57,0,0,1-.57-0.57,0.57,0.57,0,0,1,.57-0.57H188.55A0.57,0.57,0,1,1,188.55,156.07Z"/><path class="cls-3" d="M188.55,169.85H-501.58a0.57,0.57,0,0,1-.57-0.57,0.57,0.57,0,0,1,.57-0.57H188.55A0.57,0.57,0,1,1,188.55,169.85Z"/><path class="cls-3" d="M188.55,183.63H-501.58a0.57,0.57,0,0,1-.57-0.57,0.57,0.57,0,0,1,.57-0.57H188.55A0.57,0.57,0,1,1,188.55,183.63Z"/><path class="cls-3" d="M188.55,197.4H-501.58a0.57,0.57,0,0,1-.57-0.57,0.57,0.57,0,0,1,.57-0.57H188.55A0.57,0.57,0,1,1,188.55,197.4Z"/><path class="cls-3" d="M188.55,211.18H-501.58a0.57,0.57,0,0,1-.57-0.57,0.57,0.57,0,0,1,.57-0.57H188.55A0.57,0.57,0,1,1,188.55,211.18Z"/><path class="cls-3" d="M188.55,225H-501.58a0.57,0.57,0,0,1-.57-0.57,0.57,0.57,0,0,1,.57-0.57H188.55A0.57,0.57,0,1,1,188.55,225Z"/><path class="cls-3" d="M188.55,238.74H-501.58a0.57,0.57,0,0,1-.57-0.57,0.57,0.57,0,0,1,.57-0.57H188.55A0.57,0.57,0,1,1,188.55,238.74Z"/><path class="cls-3" d="M188.55,252.52H-501.58a0.57,0.57,0,0,1-.57-0.57,0.57,0.57,0,0,1,.57-0.57H188.55A0.57,0.57,0,1,1,188.55,252.52Z"/><path class="cls-3" d="M188.55,266.3H-501.58a0.57,0.57,0,0,1-.57-0.57,0.57,0.57,0,0,1,.57-0.57H188.55A0.57,0.57,0,1,1,188.55,266.3Z"/><path class="cls-3" d="M188.55,280.07H-501.58a0.57,0.57,0,0,1-.57-0.57,0.57,0.57,0,0,1,.57-0.57H188.55A0.57,0.57,0,1,1,188.55,280.07Z"/><path class="cls-3" d="M188.55,293.85H-501.58a0.57,0.57,0,0,1-.57-0.57,0.57,0.57,0,0,1,.57-0.57H188.55A0.57,0.57,0,1,1,188.55,293.85Z"/><path class="cls-3" d="M188.55,307.63H-501.58a0.57,0.57,0,0,1-.57-0.57,0.57,0.57,0,0,1,.57-0.57H188.55A0.57,0.57,0,1,1,188.55,307.63Z"/><path class="cls-3" d="M188.55,321.41H-501.58a0.57,0.57,0,0,1-.57-0.57,0.57,0.57,0,0,1,.57-0.57H188.55A0.57,0.57,0,1,1,188.55,321.41Z"/><path class="cls-3" d="M188.55,335.19H-501.58a0.57,0.57,0,0,1-.57-0.57,0.57,0.57,0,0,1,.57-0.57H188.55A0.57,0.57,0,1,1,188.55,335.19Z"/><path class="cls-3" d="M188.55,349H-501.58a0.57,0.57,0,0,1-.57-0.57,0.57,0.57,0,0,1,.57-0.57H188.55A0.57,0.57,0,1,1,188.55,349Z"/><path class="cls-3" d="M188.55,362.74H-501.58a0.57,0.57,0,0,1-.57-0.57,0.57,0.57,0,0,1,.57-0.57H188.55A0.57,0.57,0,1,1,188.55,362.74Z"/><path class="cls-3" d="M188.55,376.52H-501.58a0.57,0.57,0,0,1-.57-0.57,0.57,0.57,0,0,1,.57-0.57H188.55A0.57,0.57,0,1,1,188.55,376.52Z"/><path class="cls-3" d="M188.55,390.3H-501.58a0.57,0.57,0,0,1-.57-0.57,0.57,0.57,0,0,1,.57-0.57H188.55A0.57,0.57,0,1,1,188.55,390.3Z"/><path class="cls-3" d="M188.55,404.08H-501.58a0.57,0.57,0,0,1-.57-0.57,0.57,0.57,0,0,1,.57-0.57H188.55A0.57,0.57,0,1,1,188.55,404.08Z"/><path class="cls-3" d="M188.55,417.85H-501.58a0.57,0.57,0,0,1-.57-0.57,0.57,0.57,0,0,1,.57-0.57H188.55A0.57,0.57,0,1,1,188.55,417.85Z"/><path class="cls-3" d="M188.55,431.63H-501.58a0.57,0.57,0,0,1-.57-0.57,0.57,0.57,0,0,1,.57-0.57H188.55A0.57,0.57,0,1,1,188.55,431.63Z"/><path class="cls-3" d="M188.55,445.41H-501.58a0.57,0.57,0,0,1-.57-0.57,0.57,0.57,0,0,1,.57-0.57H188.55A0.57,0.57,0,1,1,188.55,445.41Z"/><path class="cls-3" d="M188.55,459.19H-501.58a0.57,0.57,0,0,1-.57-0.57,0.57,0.57,0,0,1,.57-0.57H188.55A0.57,0.57,0,1,1,188.55,459.19Z"/><path class="cls-3" d="M188.55,473H-501.58a0.57,0.57,0,0,1-.57-0.57,0.57,0.57,0,0,1,.57-0.57H188.55A0.57,0.57,0,1,1,188.55,473Z"/><path class="cls-3" d="M188.55,486.75H-501.58a0.57,0.57,0,0,1-.57-0.57,0.57,0.57,0,0,1,.57-0.57H188.55A0.57,0.57,0,1,1,188.55,486.75Z"/><path class="cls-3" d="M188.55,500.52H-501.58a0.57,0.57,0,0,1-.57-0.57,0.57,0.57,0,0,1,.57-0.57H188.55A0.57,0.57,0,1,1,188.55,500.52Z"/><path class="cls-3" d="M188.55,514.3H-501.58a0.57,0.57,0,0,1-.57-0.57,0.57,0.57,0,0,1,.57-0.57H188.55A0.57,0.57,0,1,1,188.55,514.3Z"/><path class="cls-3" d="M188.55,528.08H-501.58a0.57,0.57,0,0,1-.57-0.57,0.57,0.57,0,0,1,.57-0.57H188.55A0.57,0.57,0,1,1,188.55,528.08Z"/></g><polygon class="cls-2" points="202.34 343.7 -50.03 343.7 -279.05 138.74 -510.99 343.7 -515.37 343.7 -515.37 63.61 202.34 63.61 202.34 343.7"/><path class="cls-3" d="M202.33,344.85H-50a1.15,1.15,0,0,1-.77-0.29L-279.05,140.27-510.23,344.56a1.15,1.15,0,0,1-.76.29h-4.38a1.15,1.15,0,0,1-1.15-1.15V63.61a1.15,1.15,0,0,1,1.15-1.15h717.7a1.15,1.15,0,0,1,1.15,1.15V343.7A1.15,1.15,0,0,1,202.33,344.85Zm-251.92-2.3H201.19V64.76h-715.4V342.55h2.79l231.61-204.67a1.15,1.15,0,0,1,1.53,0Z"/><polygon class="cls-5" points="76.07 118.68 56.46 101.17 36.85 118.68 56.46 135.46 76.07 118.68"/><path class="cls-3" d="M56.46,136.6a1.15,1.15,0,0,1-.75-0.28L36.11,119.55a1.15,1.15,0,0,1,0-1.73L55.7,100.32a1.15,1.15,0,0,1,1.53,0l19.61,17.51a1.15,1.15,0,0,1,0,1.73L57.21,136.33A1.15,1.15,0,0,1,56.46,136.6ZM38.6,118.66l17.86,15.28,17.86-15.28L56.46,102.71Z"/><rect class="cls-5" x="3.95" y="343.7" width="145.87" height="131.29"/><path class="cls-3" d="M149.82,476.14H3.95A1.15,1.15,0,0,1,2.8,475V343.7a1.15,1.15,0,0,1,1.15-1.15H149.82A1.15,1.15,0,0,1,151,343.7V475A1.15,1.15,0,0,1,149.82,476.14ZM5.09,473.84H148.67v-129H5.09v129Z"/><rect class="cls-5" x="3.95" y="343.7" width="145.87" height="131.29"/><path class="cls-3" d="M149.82,476.14H3.95A1.15,1.15,0,0,1,2.8,475V343.7a1.15,1.15,0,0,1,1.15-1.15H149.82A1.15,1.15,0,0,1,151,343.7V475A1.15,1.15,0,0,1,149.82,476.14ZM5.09,473.84H148.67v-129H5.09v129Z"/><rect class="cls-5" x="12.7" y="164.27" width="87.52" height="100.66"/><path class="cls-3" d="M100.22,266.07H12.7a1.15,1.15,0,0,1-1.15-1.15V164.27a1.15,1.15,0,0,1,1.15-1.15h87.52a1.15,1.15,0,0,1,1.15,1.15V264.92A1.15,1.15,0,0,1,100.22,266.07Zm-86.38-2.3H99.07V165.41H13.85v98.36Z"/><rect class="cls-5" x="-0.43" y="474.99" width="154.63" height="8.75"/><path class="cls-3" d="M154.2,484.89H-0.43a1.15,1.15,0,0,1-1.15-1.15V475a1.15,1.15,0,0,1,1.15-1.15H154.2a1.15,1.15,0,0,1,1.15,1.15v8.75A1.15,1.15,0,0,1,154.2,484.89ZM0.72,482.59H153v-6.46H0.72v6.46Z"/><polygon class="cls-5" points="56.46 124.88 98.88 164.27 14.04 164.27 56.46 124.88"/><path class="cls-3" d="M98.88,165.41H14a1.15,1.15,0,0,1-.78-2L55.68,124a1.15,1.15,0,0,1,1.56,0l42.42,39.39A1.15,1.15,0,0,1,98.88,165.41ZM17,163.12H96L56.46,126.45Z"/><path class="cls-6" d="M56.46,120.5L13.79,158.8l-0.68,19.54,87.31,11.86,0.43-29.68ZM36.2,160.4L60.27,138,82.6,158.8Z"/><g class="cls-8"><path class="cls-3" d="M98.22,113.94H12.7a0.57,0.57,0,0,1,0-1.15H98.22A0.57,0.57,0,1,1,98.22,113.94Z"/><path class="cls-3" d="M98.22,127.72H12.7a0.57,0.57,0,0,1,0-1.15H98.22A0.57,0.57,0,1,1,98.22,127.72Z"/><path class="cls-3" d="M98.22,141.49H12.7a0.57,0.57,0,0,1,0-1.15H98.22A0.57,0.57,0,1,1,98.22,141.49Z"/><path class="cls-3" d="M98.22,155.27H12.7a0.57,0.57,0,0,1,0-1.15H98.22A0.57,0.57,0,1,1,98.22,155.27Z"/><path class="cls-3" d="M98.22,169.05H12.7a0.57,0.57,0,1,1,0-1.15H98.22A0.57,0.57,0,1,1,98.22,169.05Z"/><path class="cls-3" d="M98.22,182.83H12.7a0.57,0.57,0,0,1,0-1.15H98.22A0.57,0.57,0,1,1,98.22,182.83Z"/><path class="cls-3" d="M98.22,196.61H12.7a0.57,0.57,0,0,1,0-1.15H98.22A0.57,0.57,0,1,1,98.22,196.61Z"/><path class="cls-3" d="M98.22,210.39H12.7a0.57,0.57,0,0,1,0-1.15H98.22A0.57,0.57,0,1,1,98.22,210.39Z"/><path class="cls-3" d="M98.22,224.16H12.7a0.57,0.57,0,0,1,0-1.15H98.22A0.57,0.57,0,1,1,98.22,224.16Z"/><path class="cls-3" d="M98.22,237.94H12.7a0.57,0.57,0,1,1,0-1.15H98.22A0.57,0.57,0,1,1,98.22,237.94Z"/><path class="cls-3" d="M98.22,251.72H12.7a0.57,0.57,0,0,1,0-1.15H98.22A0.57,0.57,0,1,1,98.22,251.72Z"/><path class="cls-3" d="M98.22,265.5H12.7a0.57,0.57,0,0,1,0-1.15H98.22A0.57,0.57,0,1,1,98.22,265.5Z"/></g><rect class="cls-5" x="25.83" y="359.02" width="46.68" height="43.76"/><path class="cls-3" d="M72.51,403.93H25.83a1.15,1.15,0,0,1-1.15-1.15V359a1.15,1.15,0,0,1,1.15-1.15H72.51A1.15,1.15,0,0,1,73.66,359v43.76A1.15,1.15,0,0,1,72.51,403.93ZM27,401.63H71.36V360.16H27v41.47Z"/><rect class="cls-5" x="81.26" y="359.02" width="46.68" height="43.76"/><path class="cls-3" d="M127.94,403.93H81.26a1.15,1.15,0,0,1-1.15-1.15V359a1.15,1.15,0,0,1,1.15-1.15h46.68a1.15,1.15,0,0,1,1.15,1.15v43.76A1.15,1.15,0,0,1,127.94,403.93Zm-45.53-2.3h44.38V360.16H82.41v41.47Z"/><rect class="cls-5" x="25.83" y="411.53" width="46.68" height="43.76"/><path class="cls-3" d="M72.51,456.44H25.83a1.15,1.15,0,0,1-1.15-1.15V411.53a1.15,1.15,0,0,1,1.15-1.15H72.51a1.15,1.15,0,0,1,1.15,1.15V455.3A1.15,1.15,0,0,1,72.51,456.44ZM27,454.15H71.36V412.68H27v41.47Z"/><rect class="cls-5" x="81.26" y="411.53" width="46.68" height="43.76"/><path class="cls-3" d="M127.94,456.44H81.26a1.15,1.15,0,0,1-1.15-1.15V411.53a1.15,1.15,0,0,1,1.15-1.15h46.68a1.15,1.15,0,0,1,1.15,1.15V455.3A1.15,1.15,0,0,1,127.94,456.44Zm-45.53-2.3h44.38V412.68H82.41v41.47Z"/><rect class="cls-5" x="30.2" y="175.21" width="52.51" height="78.77"/><path class="cls-3" d="M82.72,255.13H30.2A1.15,1.15,0,0,1,29.05,254V175.21a1.15,1.15,0,0,1,1.15-1.15H82.72a1.15,1.15,0,0,1,1.15,1.15V254A1.15,1.15,0,0,1,82.72,255.13Zm-51.37-2.3H81.57V176.36H31.35v76.48Z"/><rect class="cls-2" x="-515.37" y="63.61" width="717.7" height="10.94"/><path class="cls-3" d="M202.33,75.7h-717.7a1.15,1.15,0,0,1-1.15-1.15V63.61a1.15,1.15,0,0,1,1.15-1.15h717.7a1.15,1.15,0,0,1,1.15,1.15V74.55A1.15,1.15,0,0,1,202.33,75.7Zm-716.55-2.3h715.4V64.76h-715.4V73.4Z"/><rect class="cls-5" x="38.96" y="183.96" width="35.01" height="26.26"/><path class="cls-3" d="M74,211.37H39a1.15,1.15,0,0,1-1.15-1.15V184A1.15,1.15,0,0,1,39,182.81H74A1.15,1.15,0,0,1,75.11,184v26.26A1.15,1.15,0,0,1,74,211.37Zm-33.86-2.3H72.82v-24H40.1v24Z"/><rect class="cls-5" x="38.96" y="218.97" width="35.01" height="26.26"/><path class="cls-3" d="M74,246.38H39a1.15,1.15,0,0,1-1.15-1.15V219A1.15,1.15,0,0,1,39,217.82H74A1.15,1.15,0,0,1,75.11,219v26.26A1.15,1.15,0,0,1,74,246.38Zm-33.86-2.3H72.82v-24H40.1v24Z"/><polygon class="cls-5" points="56.46 124.88 98.88 164.27 117.73 164.27 56.46 107.37 -4.81 164.27 14.04 164.27 56.46 124.88"/><path class="cls-3" d="M117.73,165.41H98.88a1.15,1.15,0,0,1-.78-0.31L56.46,126.45,14.83,165.11a1.15,1.15,0,0,1-.78.31H-4.81a1.15,1.15,0,0,1-1.07-.73,1.15,1.15,0,0,1,.29-1.26l61.27-56.89a1.15,1.15,0,0,1,1.56,0l61.27,56.89A1.15,1.15,0,0,1,117.73,165.41Zm-18.4-2.3H114.8L56.46,108.94-1.88,163.12H13.59L55.68,124a1.15,1.15,0,0,1,1.56,0Z"/><rect class="cls-5" x="-4.81" y="153.33" width="122.53" height="10.94"/><path class="cls-3" d="M117.73,165.41H-4.81A1.15,1.15,0,0,1-6,164.27V153.33a1.15,1.15,0,0,1,1.15-1.15H117.73a1.15,1.15,0,0,1,1.15,1.15v10.94A1.15,1.15,0,0,1,117.73,165.41Zm-121.39-2.3H116.58v-8.65H-3.66v8.65Z"/><rect class="cls-2" x="-6.99" y="290.17" width="39.39" height="13.13"/><path class="cls-3" d="M32.39,303.88H-7a0.57,0.57,0,0,1-.57-0.57V290.17A0.57,0.57,0,0,1-7,289.6H32.39a0.57,0.57,0,0,1,.57.57V303.3A0.57,0.57,0,0,1,32.39,303.88Zm-38.81-1.15H31.82v-12H-6.42v12Z"/><rect class="cls-2" x="29.47" y="290.17" width="39.39" height="13.13"/><path class="cls-3" d="M68.86,303.88H29.47a0.57,0.57,0,0,1-.57-0.57V290.17a0.57,0.57,0,0,1,.57-0.57H68.86a0.57,0.57,0,0,1,.57.57V303.3A0.57,0.57,0,0,1,68.86,303.88ZM30,302.73H68.29v-12H30v12Z"/><rect class="cls-2" x="88.55" y="302.85" width="39.39" height="13.13"/><path class="cls-3" d="M127.94,316.56H88.55A0.57,0.57,0,0,1,88,316V302.85a0.57,0.57,0,0,1,.57-0.57h39.39a0.57,0.57,0,0,1,.57.57V316A0.57,0.57,0,0,1,127.94,316.56Zm-38.81-1.15h38.24v-12H89.13v12Z"/><rect class="cls-2" x="142.52" y="124.88" width="39.39" height="13.13"/><path class="cls-3" d="M181.91,138.58H142.52a0.57,0.57,0,0,1-.57-0.57V124.88a0.57,0.57,0,0,1,.57-0.57h39.39a0.57,0.57,0,0,1,.57.57V138A0.57,0.57,0,0,1,181.91,138.58Zm-38.81-1.15h38.24v-12H143.09v12Z"/><polygon class="cls-6" points="72.51 402.78 25.83 402.78 25.83 359.02 45.84 389.51 72.51 402.78"/><polygon class="cls-6" points="127.94 402.78 81.26 402.78 81.26 359.02 101.12 389.37 127.94 402.78"/><polygon class="cls-6" points="72.51 455.3 25.83 455.3 25.83 411.53 47.63 443.71 72.51 455.3"/><polygon class="cls-6" points="127.94 455.3 81.26 455.3 81.26 411.53 103.45 444.07 127.94 455.3"/><polygon class="cls-6" points="73.97 210.22 38.96 210.22 38.96 183.96 66.95 196.14 73.97 210.22"/><polygon class="cls-6" points="73.97 245.23 38.96 245.23 38.96 218.97 66 231.15 73.97 245.23"/><rect class="cls-5" x="1545.6" y="177.4" width="48.14" height="350.11"/><path class="cls-3" d="M1593.74,528.65H1545.6a1.15,1.15,0,0,1-1.15-1.15V177.4a1.15,1.15,0,0,1,1.15-1.15h48.14a1.15,1.15,0,0,1,1.15,1.15V527.51A1.15,1.15,0,0,1,1593.74,528.65Zm-47-2.3h45.84V178.54h-45.84V526.36Z"/><polygon class="cls-6" points="1593.74 527.51 1545.6 527.51 1569.67 394.03 1545.6 394.03 1545.6 177.4 1593.74 177.4 1593.74 527.51"/><rect class="cls-2" x="1545.6" y="177.4" width="48.14" height="196.94"/><path class="cls-3" d="M1593.74,375.48H1545.6a1.15,1.15,0,0,1-1.15-1.15V177.4a1.15,1.15,0,0,1,1.15-1.15h48.14a1.15,1.15,0,0,1,1.15,1.15V374.33A1.15,1.15,0,0,1,1593.74,375.48Zm-47-2.3h45.84V178.54h-45.84V373.19Z"/><line class="cls-5" x1="1545.6" y1="367.12" x2="1593.74" y2="367.12"/><path class="cls-3" d="M1593.74,367.7H1545.6a0.57,0.57,0,1,1,0-1.15h48.14A0.57,0.57,0,0,1,1593.74,367.7Z"/><line class="cls-5" x1="1545.6" y1="382.43" x2="1593.74" y2="382.43"/><path class="cls-3" d="M1593.74,383H1545.6a0.57,0.57,0,1,1,0-1.15h48.14A0.57,0.57,0,0,1,1593.74,383Z"/><line class="cls-5" x1="1545.6" y1="397.74" x2="1593.74" y2="397.74"/><path class="cls-3" d="M1593.74,398.31H1545.6a0.57,0.57,0,1,1,0-1.15h48.14A0.57,0.57,0,0,1,1593.74,398.31Z"/><line class="cls-5" x1="1545.6" y1="413.05" x2="1593.74" y2="413.05"/><path class="cls-3" d="M1593.74,413.62H1545.6a0.57,0.57,0,1,1,0-1.15h48.14A0.57,0.57,0,0,1,1593.74,413.62Z"/><line class="cls-5" x1="1545.6" y1="428.36" x2="1593.74" y2="428.36"/><path class="cls-3" d="M1593.74,428.93H1545.6a0.57,0.57,0,1,1,0-1.15h48.14A0.57,0.57,0,0,1,1593.74,428.93Z"/><line class="cls-5" x1="1545.6" y1="443.67" x2="1593.74" y2="443.67"/><path class="cls-3" d="M1593.74,444.24H1545.6a0.57,0.57,0,1,1,0-1.15h48.14A0.57,0.57,0,0,1,1593.74,444.24Z"/><line class="cls-5" x1="1545.6" y1="458.98" x2="1593.74" y2="458.98"/><path class="cls-3" d="M1593.74,459.55H1545.6a0.57,0.57,0,1,1,0-1.15h48.14A0.57,0.57,0,0,1,1593.74,459.55Z"/><line class="cls-5" x1="1545.6" y1="474.29" x2="1593.74" y2="474.29"/><path class="cls-3" d="M1593.74,474.86H1545.6a0.57,0.57,0,1,1,0-1.15h48.14A0.57,0.57,0,0,1,1593.74,474.86Z"/><line class="cls-5" x1="1545.6" y1="489.59" x2="1593.74" y2="489.59"/><path class="cls-3" d="M1593.74,490.17H1545.6a0.57,0.57,0,1,1,0-1.15h48.14A0.57,0.57,0,0,1,1593.74,490.17Z"/><line class="cls-5" x1="1545.6" y1="504.9" x2="1593.74" y2="504.9"/><path class="cls-3" d="M1593.74,505.48H1545.6a0.57,0.57,0,1,1,0-1.15h48.14A0.57,0.57,0,0,1,1593.74,505.48Z"/><line class="cls-5" x1="1545.6" y1="520.21" x2="1593.74" y2="520.21"/><path class="cls-3" d="M1593.74,520.79H1545.6a0.57,0.57,0,1,1,0-1.15h48.14A0.57,0.57,0,0,1,1593.74,520.79Z"/><rect class="cls-5" x="1593.74" y="89.87" width="691.44" height="437.64" transform="translate(3878.92 617.37) rotate(-180)"/><path class="cls-3" d="M2285.18,528.65H1593.74a1.15,1.15,0,0,1-1.15-1.15V89.87a1.15,1.15,0,0,1,1.15-1.15h691.44a1.15,1.15,0,0,1,1.15,1.15V527.51A1.15,1.15,0,0,1,2285.18,528.65Zm-690.29-2.3H2284V91H1594.89V526.36Z"/><polygon class="cls-6" points="1593.74 343.7 1593.74 387.46 1809.25 384.94 1809.25 505.99 1800.88 505.99 1800.88 514.38 1787.75 514.38 1787.75 527.51 1859.96 527.51 1859.96 343.7 1593.74 343.7"/><g class="cls-9"><line class="cls-5" x1="1594.39" y1="114.16" x2="2284.53" y2="114.16"/><path class="cls-3" d="M2284.53,114.74H1594.39a0.57,0.57,0,1,1,0-1.15h690.14A0.57,0.57,0,1,1,2284.53,114.74Z"/><line class="cls-5" x1="1594.39" y1="127.94" x2="2284.53" y2="127.94"/><path class="cls-3" d="M2284.53,128.51H1594.39a0.57,0.57,0,1,1,0-1.15h690.14A0.57,0.57,0,1,1,2284.53,128.51Z"/><line class="cls-5" x1="1594.39" y1="141.72" x2="2284.53" y2="141.72"/><path class="cls-3" d="M2284.53,142.29H1594.39a0.57,0.57,0,1,1,0-1.15h690.14A0.57,0.57,0,1,1,2284.53,142.29Z"/><line class="cls-5" x1="1594.39" y1="155.5" x2="2284.53" y2="155.5"/><path class="cls-3" d="M2284.53,156.07H1594.39a0.57,0.57,0,1,1,0-1.15h690.14A0.57,0.57,0,1,1,2284.53,156.07Z"/><line class="cls-5" x1="1594.39" y1="169.27" x2="2284.53" y2="169.27"/><path class="cls-3" d="M2284.53,169.85H1594.39a0.57,0.57,0,1,1,0-1.15h690.14A0.57,0.57,0,1,1,2284.53,169.85Z"/><line class="cls-5" x1="1594.39" y1="183.05" x2="2284.53" y2="183.05"/><path class="cls-3" d="M2284.53,183.63H1594.39a0.57,0.57,0,1,1,0-1.15h690.14A0.57,0.57,0,1,1,2284.53,183.63Z"/><line class="cls-5" x1="1594.39" y1="196.83" x2="2284.53" y2="196.83"/><path class="cls-3" d="M2284.53,197.4H1594.39a0.57,0.57,0,1,1,0-1.15h690.14A0.57,0.57,0,1,1,2284.53,197.4Z"/><line class="cls-5" x1="1594.39" y1="210.61" x2="2284.53" y2="210.61"/><path class="cls-3" d="M2284.53,211.18H1594.39a0.57,0.57,0,1,1,0-1.15h690.14A0.57,0.57,0,1,1,2284.53,211.18Z"/><line class="cls-5" x1="1594.39" y1="224.39" x2="2284.53" y2="224.39"/><path class="cls-3" d="M2284.53,225H1594.39a0.57,0.57,0,1,1,0-1.15h690.14A0.57,0.57,0,1,1,2284.53,225Z"/><line class="cls-5" x1="1594.39" y1="238.16" x2="2284.53" y2="238.16"/><path class="cls-3" d="M2284.53,238.74H1594.39a0.57,0.57,0,1,1,0-1.15h690.14A0.57,0.57,0,1,1,2284.53,238.74Z"/><line class="cls-5" x1="1594.39" y1="251.94" x2="2284.53" y2="251.94"/><path class="cls-3" d="M2284.53,252.52H1594.39a0.57,0.57,0,1,1,0-1.15h690.14A0.57,0.57,0,1,1,2284.53,252.52Z"/><line class="cls-5" x1="1594.39" y1="265.72" x2="2284.53" y2="265.72"/><path class="cls-3" d="M2284.53,266.3H1594.39a0.57,0.57,0,1,1,0-1.15h690.14A0.57,0.57,0,1,1,2284.53,266.3Z"/><line class="cls-5" x1="1594.39" y1="279.5" x2="2284.53" y2="279.5"/><path class="cls-3" d="M2284.53,280.07H1594.39a0.57,0.57,0,1,1,0-1.15h690.14A0.57,0.57,0,1,1,2284.53,280.07Z"/><line class="cls-5" x1="1594.39" y1="293.28" x2="2284.53" y2="293.28"/><path class="cls-3" d="M2284.53,293.85H1594.39a0.57,0.57,0,1,1,0-1.15h690.14A0.57,0.57,0,1,1,2284.53,293.85Z"/><line class="cls-5" x1="1594.39" y1="307.06" x2="2284.53" y2="307.06"/><path class="cls-3" d="M2284.53,307.63H1594.39a0.57,0.57,0,1,1,0-1.15h690.14A0.57,0.57,0,1,1,2284.53,307.63Z"/><line class="cls-5" x1="1594.39" y1="320.83" x2="2284.53" y2="320.83"/><path class="cls-3" d="M2284.53,321.41H1594.39a0.57,0.57,0,1,1,0-1.15h690.14A0.57,0.57,0,1,1,2284.53,321.41Z"/><line class="cls-5" x1="1594.39" y1="334.61" x2="2284.53" y2="334.61"/><path class="cls-3" d="M2284.53,335.19H1594.39a0.57,0.57,0,1,1,0-1.15h690.14A0.57,0.57,0,1,1,2284.53,335.19Z"/><line class="cls-5" x1="1594.39" y1="348.39" x2="2284.53" y2="348.39"/><path class="cls-3" d="M2284.53,349H1594.39a0.57,0.57,0,1,1,0-1.15h690.14A0.57,0.57,0,1,1,2284.53,349Z"/><line class="cls-5" x1="1594.39" y1="362.17" x2="2284.53" y2="362.17"/><path class="cls-3" d="M2284.53,362.74H1594.39a0.57,0.57,0,1,1,0-1.15h690.14A0.57,0.57,0,1,1,2284.53,362.74Z"/><line class="cls-5" x1="1594.39" y1="375.95" x2="2284.53" y2="375.95"/><path class="cls-3" d="M2284.53,376.52H1594.39a0.57,0.57,0,1,1,0-1.15h690.14A0.57,0.57,0,1,1,2284.53,376.52Z"/><line class="cls-5" x1="1594.39" y1="389.72" x2="2284.53" y2="389.72"/><path class="cls-3" d="M2284.53,390.3H1594.39a0.57,0.57,0,1,1,0-1.15h690.14A0.57,0.57,0,1,1,2284.53,390.3Z"/><line class="cls-5" x1="1594.39" y1="403.5" x2="2284.53" y2="403.5"/><path class="cls-3" d="M2284.53,404.08H1594.39a0.57,0.57,0,1,1,0-1.15h690.14A0.57,0.57,0,1,1,2284.53,404.08Z"/><line class="cls-5" x1="1594.39" y1="417.28" x2="2284.53" y2="417.28"/><path class="cls-3" d="M2284.53,417.85H1594.39a0.57,0.57,0,1,1,0-1.15h690.14A0.57,0.57,0,1,1,2284.53,417.85Z"/><line class="cls-5" x1="1594.39" y1="431.06" x2="2284.53" y2="431.06"/><path class="cls-3" d="M2284.53,431.63H1594.39a0.57,0.57,0,1,1,0-1.15h690.14A0.57,0.57,0,1,1,2284.53,431.63Z"/><line class="cls-5" x1="1594.39" y1="444.84" x2="2284.53" y2="444.84"/><path class="cls-3" d="M2284.53,445.41H1594.39a0.57,0.57,0,1,1,0-1.15h690.14A0.57,0.57,0,1,1,2284.53,445.41Z"/><line class="cls-5" x1="1594.39" y1="458.62" x2="2284.53" y2="458.62"/><path class="cls-3" d="M2284.53,459.19H1594.39a0.57,0.57,0,1,1,0-1.15h690.14A0.57,0.57,0,1,1,2284.53,459.19Z"/><line class="cls-5" x1="1594.39" y1="472.39" x2="2284.53" y2="472.39"/><path class="cls-3" d="M2284.53,473H1594.39a0.57,0.57,0,1,1,0-1.15h690.14A0.57,0.57,0,1,1,2284.53,473Z"/><line class="cls-5" x1="1594.39" y1="486.17" x2="2284.53" y2="486.17"/><path class="cls-3" d="M2284.53,486.75H1594.39a0.57,0.57,0,1,1,0-1.15h690.14A0.57,0.57,0,1,1,2284.53,486.75Z"/><line class="cls-5" x1="1594.39" y1="499.95" x2="2284.53" y2="499.95"/><path class="cls-3" d="M2284.53,500.52H1594.39a0.57,0.57,0,1,1,0-1.15h690.14A0.57,0.57,0,1,1,2284.53,500.52Z"/><line class="cls-5" x1="1594.39" y1="513.73" x2="2284.53" y2="513.73"/><path class="cls-3" d="M2284.53,514.3H1594.39a0.57,0.57,0,1,1,0-1.15h690.14A0.57,0.57,0,1,1,2284.53,514.3Z"/><line class="cls-5" x1="1594.39" y1="527.51" x2="2284.53" y2="527.51"/><path class="cls-3" d="M2284.53,528.08H1594.39a0.57,0.57,0,1,1,0-1.15h690.14A0.57,0.57,0,1,1,2284.53,528.08Z"/></g><polygon class="cls-2" points="1580.61 343.7 1832.97 343.7 2061.99 138.74 2293.93 343.7 2298.31 343.7 2298.31 63.61 1580.61 63.61 1580.61 343.7"/><path class="cls-3" d="M2298.31,344.85h-4.38a1.15,1.15,0,0,1-.76-0.29L2062,140.27,1833.74,344.55a1.15,1.15,0,0,1-.77.29H1580.61a1.15,1.15,0,0,1-1.15-1.15V63.61a1.15,1.15,0,0,1,1.15-1.15h717.7a1.15,1.15,0,0,1,1.15,1.15V343.7A1.15,1.15,0,0,1,2298.31,344.85Zm-3.94-2.3h2.79V64.76h-715.4V342.55h250.78l228.7-204.67a1.15,1.15,0,0,1,1.53,0Z"/><polygon class="cls-6" points="2298.31 63.61 2144.66 158.8 1894.24 192.09 1787.75 343.7 1843.91 343.7 2061.99 144.57 2281.87 343.7 2298.31 343.7 2298.31 63.61"/><polygon class="cls-5" points="1706.88 118.68 1726.48 101.17 1746.09 118.68 1726.48 135.46 1706.88 118.68"/><path class="cls-3" d="M1726.48,136.6a1.15,1.15,0,0,1-.75-0.28l-19.61-16.78a1.15,1.15,0,0,1,0-1.73l19.61-17.51a1.15,1.15,0,0,1,1.53,0l19.61,17.51a1.15,1.15,0,0,1,0,1.73l-19.61,16.78A1.15,1.15,0,0,1,1726.48,136.6Zm-17.86-17.94,17.86,15.28,17.86-15.28-17.86-15.95Z"/><rect class="cls-5" x="1633.12" y="343.7" width="145.87" height="131.29" transform="translate(3412.12 818.69) rotate(-180)"/><path class="cls-3" d="M1779,476.14H1633.12A1.15,1.15,0,0,1,1632,475V343.7a1.15,1.15,0,0,1,1.15-1.15H1779a1.15,1.15,0,0,1,1.15,1.15V475A1.15,1.15,0,0,1,1779,476.14Zm-144.73-2.3h143.58v-129H1634.27v129Z"/><rect class="cls-5" x="1633.12" y="343.7" width="145.87" height="131.29" transform="translate(3412.12 818.69) rotate(-180)"/><path class="cls-3" d="M1779,476.14H1633.12A1.15,1.15,0,0,1,1632,475V343.7a1.15,1.15,0,0,1,1.15-1.15H1779a1.15,1.15,0,0,1,1.15,1.15V475A1.15,1.15,0,0,1,1779,476.14Zm-144.73-2.3h143.58v-129H1634.27v129Z"/><rect class="cls-5" x="1682.72" y="164.27" width="87.52" height="100.66" transform="translate(3452.97 429.19) rotate(-180)"/><path class="cls-3" d="M1770.25,266.07h-87.52a1.15,1.15,0,0,1-1.15-1.15V164.27a1.15,1.15,0,0,1,1.15-1.15h87.52a1.15,1.15,0,0,1,1.15,1.15V264.92A1.15,1.15,0,0,1,1770.25,266.07Zm-86.38-2.3h85.23V165.41h-85.23v98.36Z"/><rect class="cls-5" x="1628.75" y="474.99" width="154.63" height="8.75" transform="translate(3412.12 958.73) rotate(-180)"/><path class="cls-3" d="M1783.37,484.89H1628.75a1.15,1.15,0,0,1-1.15-1.15V475a1.15,1.15,0,0,1,1.15-1.15h154.63a1.15,1.15,0,0,1,1.15,1.15v8.75A1.15,1.15,0,0,1,1783.37,484.89Zm-153.48-2.3h152.33v-6.46H1629.9v6.46Z"/><polygon class="cls-5" points="1726.48 124.88 1684.07 164.27 1768.9 164.27 1726.48 124.88"/><path class="cls-3" d="M1768.9,165.41h-84.83a1.15,1.15,0,0,1-.78-2L1725.7,124a1.15,1.15,0,0,1,1.56,0l42.42,39.39A1.15,1.15,0,0,1,1768.9,165.41Zm-81.91-2.3h79l-39.49-36.67Z"/><path class="cls-6" d="M1682.1,160.52l0.43,29.68,87.31-11.86-0.68-19.54-42.67-38.29Zm18.25-1.72L1722.67,138l24.07,22.39Z"/><g class="cls-10"><line class="cls-5" x1="1684.72" y1="113.36" x2="1770.25" y2="113.36"/><path class="cls-3" d="M1770.25,113.94h-85.53a0.57,0.57,0,1,1,0-1.15h85.53A0.57,0.57,0,1,1,1770.25,113.94Z"/><line class="cls-5" x1="1684.72" y1="127.14" x2="1770.25" y2="127.14"/><path class="cls-3" d="M1770.25,127.72h-85.53a0.57,0.57,0,1,1,0-1.15h85.53A0.57,0.57,0,1,1,1770.25,127.72Z"/><line class="cls-5" x1="1684.72" y1="140.92" x2="1770.25" y2="140.92"/><path class="cls-3" d="M1770.25,141.49h-85.53a0.57,0.57,0,1,1,0-1.15h85.53A0.57,0.57,0,1,1,1770.25,141.49Z"/><line class="cls-5" x1="1684.72" y1="154.7" x2="1770.25" y2="154.7"/><path class="cls-3" d="M1770.25,155.27h-85.53a0.57,0.57,0,1,1,0-1.15h85.53A0.57,0.57,0,1,1,1770.25,155.27Z"/><line class="cls-5" x1="1684.72" y1="168.48" x2="1770.25" y2="168.48"/><path class="cls-3" d="M1770.25,169.05h-85.53a0.57,0.57,0,1,1,0-1.15h85.53A0.57,0.57,0,1,1,1770.25,169.05Z"/><line class="cls-5" x1="1684.72" y1="182.25" x2="1770.25" y2="182.25"/><path class="cls-3" d="M1770.25,182.83h-85.53a0.57,0.57,0,1,1,0-1.15h85.53A0.57,0.57,0,1,1,1770.25,182.83Z"/><line class="cls-5" x1="1684.72" y1="196.03" x2="1770.25" y2="196.03"/><path class="cls-3" d="M1770.25,196.61h-85.53a0.57,0.57,0,1,1,0-1.15h85.53A0.57,0.57,0,1,1,1770.25,196.61Z"/><line class="cls-5" x1="1684.72" y1="209.81" x2="1770.25" y2="209.81"/><path class="cls-3" d="M1770.25,210.39h-85.53a0.57,0.57,0,1,1,0-1.15h85.53A0.57,0.57,0,1,1,1770.25,210.39Z"/><line class="cls-5" x1="1684.72" y1="223.59" x2="1770.25" y2="223.59"/><path class="cls-3" d="M1770.25,224.16h-85.53a0.57,0.57,0,1,1,0-1.15h85.53A0.57,0.57,0,1,1,1770.25,224.16Z"/><line class="cls-5" x1="1684.72" y1="237.37" x2="1770.25" y2="237.37"/><path class="cls-3" d="M1770.25,237.94h-85.53a0.57,0.57,0,1,1,0-1.15h85.53A0.57,0.57,0,1,1,1770.25,237.94Z"/><line class="cls-5" x1="1684.72" y1="251.15" x2="1770.25" y2="251.15"/><path class="cls-3" d="M1770.25,251.72h-85.53a0.57,0.57,0,1,1,0-1.15h85.53A0.57,0.57,0,1,1,1770.25,251.72Z"/><line class="cls-5" x1="1684.72" y1="264.92" x2="1770.25" y2="264.92"/><path class="cls-3" d="M1770.25,265.5h-85.53a0.57,0.57,0,1,1,0-1.15h85.53A0.57,0.57,0,1,1,1770.25,265.5Z"/></g><rect class="cls-5" x="1710.44" y="359.02" width="46.68" height="43.76" transform="translate(3467.55 761.8) rotate(-180)"/><path class="cls-3" d="M1757.12,403.93h-46.68a1.15,1.15,0,0,1-1.15-1.15V359a1.15,1.15,0,0,1,1.15-1.15h46.68a1.15,1.15,0,0,1,1.15,1.15v43.76A1.15,1.15,0,0,1,1757.12,403.93Zm-45.53-2.3H1756V360.16h-44.38v41.47Z"/><rect class="cls-5" x="1655" y="359.02" width="46.68" height="43.76" transform="translate(3356.69 761.8) rotate(-180)"/><path class="cls-3" d="M1701.68,403.93H1655a1.15,1.15,0,0,1-1.15-1.15V359a1.15,1.15,0,0,1,1.15-1.15h46.68a1.15,1.15,0,0,1,1.15,1.15v43.76A1.15,1.15,0,0,1,1701.68,403.93Zm-45.53-2.3h44.38V360.16h-44.38v41.47Z"/><rect class="cls-5" x="1710.44" y="411.53" width="46.68" height="43.76" transform="translate(3467.55 866.83) rotate(-180)"/><path class="cls-3" d="M1757.12,456.44h-46.68a1.15,1.15,0,0,1-1.15-1.15V411.53a1.15,1.15,0,0,1,1.15-1.15h46.68a1.15,1.15,0,0,1,1.15,1.15V455.3A1.15,1.15,0,0,1,1757.12,456.44Zm-45.53-2.3H1756V412.68h-44.38v41.47Z"/><rect class="cls-5" x="1655" y="411.53" width="46.68" height="43.76" transform="translate(3356.69 866.83) rotate(-180)"/><path class="cls-3" d="M1701.68,456.44H1655a1.15,1.15,0,0,1-1.15-1.15V411.53a1.15,1.15,0,0,1,1.15-1.15h46.68a1.15,1.15,0,0,1,1.15,1.15V455.3A1.15,1.15,0,0,1,1701.68,456.44Zm-45.53-2.3h44.38V412.68h-44.38v41.47Z"/><rect class="cls-5" x="1700.23" y="175.21" width="52.51" height="78.77" transform="translate(3452.97 429.19) rotate(-180)"/><path class="cls-3" d="M1752.74,255.13h-52.51a1.15,1.15,0,0,1-1.15-1.15V175.21a1.15,1.15,0,0,1,1.15-1.15h52.51a1.15,1.15,0,0,1,1.15,1.15V254A1.15,1.15,0,0,1,1752.74,255.13Zm-51.37-2.3h50.22V176.36h-50.22v76.48Z"/><rect class="cls-2" x="1580.61" y="63.61" width="717.7" height="10.94" transform="translate(3878.92 138.16) rotate(-180)"/><path class="cls-3" d="M2298.31,75.7h-717.7a1.15,1.15,0,0,1-1.15-1.15V63.61a1.15,1.15,0,0,1,1.15-1.15h717.7a1.15,1.15,0,0,1,1.15,1.15V74.55A1.15,1.15,0,0,1,2298.31,75.7Zm-716.55-2.3h715.4V64.76h-715.4V73.4Z"/><rect class="cls-5" x="1708.98" y="183.96" width="35.01" height="26.26" transform="translate(3452.97 394.18) rotate(-180)"/><path class="cls-3" d="M1744,211.37h-35a1.15,1.15,0,0,1-1.15-1.15V184a1.15,1.15,0,0,1,1.15-1.15h35a1.15,1.15,0,0,1,1.15,1.15v26.26A1.15,1.15,0,0,1,1744,211.37Zm-33.86-2.3h32.71v-24h-32.71v24Z"/><rect class="cls-5" x="1708.98" y="218.97" width="35.01" height="26.26" transform="translate(3452.97 464.2) rotate(-180)"/><path class="cls-3" d="M1744,246.38h-35a1.15,1.15,0,0,1-1.15-1.15V219a1.15,1.15,0,0,1,1.15-1.15h35a1.15,1.15,0,0,1,1.15,1.15v26.26A1.15,1.15,0,0,1,1744,246.38Zm-33.86-2.3h32.71v-24h-32.71v24Z"/><polygon class="cls-5" points="1726.48 124.88 1684.07 164.27 1665.22 164.27 1726.48 107.37 1787.75 164.27 1768.9 164.27 1726.48 124.88"/><path class="cls-3" d="M1787.75,165.41H1768.9a1.15,1.15,0,0,1-.78-0.31l-41.63-38.66-41.63,38.66a1.15,1.15,0,0,1-.78.31h-18.85a1.15,1.15,0,0,1-.78-2l61.27-56.89a1.15,1.15,0,0,1,1.56,0l61.27,56.89A1.15,1.15,0,0,1,1787.75,165.41Zm-18.4-2.3h15.48l-58.34-54.18-58.34,54.18h15.48L1725.7,124a1.15,1.15,0,0,1,1.56,0Z"/><rect class="cls-5" x="1665.22" y="153.33" width="122.53" height="10.94" transform="translate(3452.97 317.59) rotate(-180)"/><path class="cls-3" d="M1787.75,165.41H1665.22a1.15,1.15,0,0,1-1.15-1.15V153.33a1.15,1.15,0,0,1,1.15-1.15h122.53a1.15,1.15,0,0,1,1.15,1.15v10.94A1.15,1.15,0,0,1,1787.75,165.41Zm-121.39-2.3H1786.6v-8.65H1666.36v8.65Z"/><rect class="cls-2" x="1750.55" y="290.17" width="39.39" height="13.13" transform="translate(3540.49 593.48) rotate(-180)"/><path class="cls-3" d="M1789.94,303.88h-39.39a0.57,0.57,0,0,1-.57-0.57V290.17a0.57,0.57,0,0,1,.57-0.57h39.39a0.57,0.57,0,0,1,.57.57V303.3A0.57,0.57,0,0,1,1789.94,303.88Zm-38.81-1.15h38.24v-12h-38.24v12Z"/><rect class="cls-2" x="1714.08" y="290.17" width="39.39" height="13.13" transform="translate(3467.55 593.48) rotate(-180)"/><path class="cls-3" d="M1753.47,303.88h-39.39a0.57,0.57,0,0,1-.57-0.57V290.17a0.57,0.57,0,0,1,.57-0.57h39.39a0.57,0.57,0,0,1,.57.57V303.3A0.57,0.57,0,0,1,1753.47,303.88Zm-38.81-1.15h38.24v-12h-38.24v12Z"/><rect class="cls-2" x="1655" y="302.85" width="39.39" height="13.13" transform="translate(3349.4 618.83) rotate(-180)"/><path class="cls-3" d="M1694.39,316.56H1655a0.57,0.57,0,0,1-.57-0.57V302.85a0.57,0.57,0,0,1,.57-0.57h39.39a0.57,0.57,0,0,1,.57.57V316A0.57,0.57,0,0,1,1694.39,316.56Zm-38.81-1.15h38.24v-12h-38.24v12Z"/><rect class="cls-2" x="1601.04" y="124.88" width="39.39" height="13.13" transform="translate(3241.46 262.89) rotate(-180)"/><path class="cls-3" d="M1640.42,138.58H1601a0.57,0.57,0,0,1-.57-0.57V124.88a0.57,0.57,0,0,1,.57-0.57h39.39a0.57,0.57,0,0,1,.57.57V138A0.57,0.57,0,0,1,1640.42,138.58Zm-38.81-1.15h38.24v-12h-38.24v12Z"/><polygon class="cls-6" points="1710.44 402.78 1757.12 402.78 1757.12 359.02 1737.1 389.51 1710.44 402.78"/><polygon class="cls-6" points="1655.01 402.78 1701.68 402.78 1701.68 359.02 1681.83 389.37 1655.01 402.78"/><polygon class="cls-6" points="1710.44 455.3 1757.12 455.3 1757.12 411.53 1735.31 443.71 1710.44 455.3"/><polygon class="cls-6" points="1655.01 455.3 1701.68 455.3 1701.68 411.53 1679.49 444.07 1655.01 455.3"/><polygon class="cls-6" points="1708.98 210.22 1743.99 210.22 1743.99 183.96 1715.99 196.14 1708.98 210.22"/><polygon class="cls-6" points="1708.98 245.23 1743.99 245.23 1743.99 218.97 1716.94 231.15 1708.98 245.23"/><path class="cls-2" d="M373.1,486.43c7.62,6.71,15.67,29.58,6.78,31.7,3.25,8.47-8,25.84-17.37,28.38-1.69,11.72-34,11.72-51.68,11.72-18.54,0-45.72-2.3-58.46-13.84-15.53-.85-22.45-23.65-11.86-33.47-3.82-8.77,7.62-14.32,7.62-24.5-14.83-.79-8.41-12.36-1.94-16.62-11.19,3-7.1-9.29-.17-12.68-9.33-2.12,2.1-5.72,2.1-5.72s-8.4-2.33,4.26-5.28c-4.25-6.8,19.16-9.16,27.94-14.42-8.47-5.08,4.66-12.71,16.1-12.3-3.39-10.57,13.13-11.7,14.4-4.79,4.66-4.36,14.86-2,12.51,2.46,7.4-1.89,11.61-3.59,9.72,4.46,12.93-2.54,19.28,5.09,16.74,10.17,9.32-5.08,13.21,2.09,9.36,7.19,2.93,4.7,8.43,3.41,8.43,11.45,5.08,0.89,4,7.85,4.77,11.86,5.39,2.54.88,6.9,0.9,10.59C378.18,477,373.1,481.5,373.1,486.43Z"/><path class="cls-3" d="M310.83,559.73c-16.19,0-45.24-1.81-59.07-13.88-7.25-.62-13.47-5.86-16.33-13.77s-1.58-16.35,3.33-21.53c-1.69-5.07,1-9.2,3.54-13.2,1.9-2.94,3.85-6,4.26-9.55-6.11-.68-8.13-3.36-8.73-5.57-1-3.58,1.19-7.59,3.94-10.56a4.49,4.49,0,0,1-3.69-2.9c-1.2-3.2,1-8.13,4.61-11.2a2.93,2.93,0,0,1-1.81-2.44c-0.07-1.67,1.64-3,3.74-4a2.47,2.47,0,0,1-.71-1.75c0-1.82,2-3.11,6.52-4.33a3.84,3.84,0,0,1,.21-1.9c1.37-3.62,8.1-5.63,15.91-8a92.15,92.15,0,0,0,11-3.77,4.7,4.7,0,0,1-1.26-4.73c1.33-4.5,9.87-8.51,18.23-8.8a7.4,7.4,0,0,1,2-6.39c2.44-2.47,6.94-3.42,10.7-2.26a7.49,7.49,0,0,1,4.25,3c3.82-2.17,9.22-1.82,11.92.24a4.28,4.28,0,0,1,1.7,2.53c4-1.05,7-1.73,8.74,0,1.16,1.13,1.28,2.9,1.06,4.67,7.75-.93,12.89,1.78,15.21,4.83a8,8,0,0,1,1.72,4.59c5.33-1.86,8,.57,8.8,1.47,1.87,2.17,2,5.44.33,8.25a11.66,11.66,0,0,0,2.91,2.32c2.27,1.44,4.82,3.06,5.16,8,3.87,1.45,4.21,6.13,4.45,9.63,0.06,0.86.12,1.68,0.22,2.41,4.05,2.35,2.73,6,1.84,8.45a14,14,0,0,0-.75,2.52c3.29,3.31,2,6.89.89,9.8a16.05,16.05,0,0,0-1.08,3.81c6,5.87,12.22,20.94,10.28,28.73a6.55,6.55,0,0,1-3.21,4.5c0.75,3.54-.21,8.15-2.76,13.19-3.07,6.05-9,13.27-15.14,15.45C360.82,558.78,335,559.73,310.83,559.73ZM246.2,468.31a1.5,1.5,0,0,1,.83,2.75c-3.66,2.41-7.15,7.27-6.3,10.39,0.7,2.58,4.46,3.32,7.5,3.48a1.5,1.5,0,0,1,1.42,1.5c0,5.06-2.56,9-4.82,12.55-2.62,4.08-4.7,7.3-2.93,11.35a1.5,1.5,0,0,1-.36,1.7c-3.79,3.51-6.27,10.76-3.28,19,2,5.45,6.73,11.43,14.21,11.83a1.5,1.5,0,0,1,.92.39c12.92,11.7,41.54,13.45,57.45,13.45s48.69,0,50.19-10.44a1.5,1.5,0,0,1,1.09-1.23c4.68-1.28,10.63-7.24,14.15-14.19,2.49-4.92,3.3-9.37,2.21-12.21a1.5,1.5,0,0,1,1.05-2c0.8-.19,1.93-0.7,2.47-2.86,1.7-6.82-4.45-21.47-9.89-26.26a1.5,1.5,0,0,1-.51-1.13,15.72,15.72,0,0,1,1.3-5.48c1.19-3.23,1.71-5-.61-7a1.5,1.5,0,0,1-.52-1.12,12.11,12.11,0,0,1,1-4.16c1.06-2.92,1.31-4-1-5.08a1.5,1.5,0,0,1-.83-1.07,29.08,29.08,0,0,1-.38-3.47c-0.29-4.07-.67-6.77-3.18-7.21a1.5,1.5,0,0,1-1.24-1.48c0-4.23-1.6-5.24-3.8-6.64a12.6,12.6,0,0,1-4.4-4A1.5,1.5,0,0,1,358,438c1.4-1.85,1.57-4.08.42-5.42-1.39-1.61-4.4-1.43-7.86.45a1.5,1.5,0,0,1-2.06-2,4.36,4.36,0,0,0-.71-4.67c-2-2.6-6.8-4.85-14.4-3.36a1.5,1.5,0,0,1-1.75-1.82c0.76-3.21.27-3.89,0.16-4-0.63-.61-3.86.24-6.46,0.92l-1.58.41a1.5,1.5,0,0,1-1.7-2.15,1,1,0,0,0-.41-1.46c-1.93-1.47-7.07-1.7-9.75.8a1.5,1.5,0,0,1-2.5-.82c-0.31-1.71-2-2.47-3-2.77-2.71-.83-6-0.19-7.68,1.51-1.27,1.29-1.56,3.08-.84,5.32a1.5,1.5,0,0,1-.23,1.36,1.46,1.46,0,0,1-1.25.59c-7.94-.29-16.23,3.49-17.17,6.66-0.11.36-.43,1.46,1.9,2.86a1.5,1.5,0,0,1,0,2.57c-3.36,2-8.62,3.58-13.71,5.1-5.84,1.74-13.11,3.91-14,6.14a1.13,1.13,0,0,0,.22,1.1,1.5,1.5,0,0,1-.93,2.26,19.85,19.85,0,0,0-5.49,1.84,6.47,6.47,0,0,0,1.3.53,1.5,1.5,0,0,1,0,2.88,16.2,16.2,0,0,0-4.47,2.09,9.51,9.51,0,0,0,2.25.73,1.5,1.5,0,0,1,.33,2.81c-3.89,1.9-6.66,7-5.81,9.24,0.6,1.61,3.65,1,4.93.64A1.52,1.52,0,0,1,246.2,468.31Z"/><path class="cls-2" d="M255.86,521.2c-3.08,0-7.44.85-6.63,3.08,1.66,4.54,9.24,3.79,11.6,3.32,1.18-.24-8.29,3.77-4.74,7.58,4.93,5.28,16.34,0,16.34,0s-0.24,5,.71,5.68c3.79,2.84,15.63-3.79,12.55-10.42"/><path class="cls-3" d="M275.54,543a5.39,5.39,0,0,1-3.29-1c-0.33-.25-1.24-0.93-1.34-4.66-3.81,1.35-11.67,3.34-15.91-1.2a4,4,0,0,1-1.17-3.38,6,6,0,0,1,2-3.39c-3.38-.21-6.8-1.39-8-4.64a2.82,2.82,0,0,1,.33-2.65c1.59-2.27,6.31-2.45,7.71-2.45a1.5,1.5,0,0,1,0,3c-2.64,0-4.76.63-5.21,1.1,1.28,3.27,7.56,2.79,9.89,2.32a1.53,1.53,0,0,1,1.8.93c0.47,1.21-.56,1.83-1.25,2.24-2.7,1.62-4.15,2.95-4.29,3.94a1,1,0,0,0,.39.92c3.42,3.67,11.71,1,14.62-.34a1.5,1.5,0,0,1,2.13,1.43,17.12,17.12,0,0,0,.26,4.51c1.34,0.75,4.84,0,7.64-2.31,1.19-1,3.83-3.52,2.5-6.38a1.5,1.5,0,1,1,2.72-1.26c1.54,3.31.29,7-3.34,10A14.07,14.07,0,0,1,275.54,543Z"/><path class="cls-2" d="M278.21,441c-16.1,0-11.86,15.25,0,8.47"/><path class="cls-3" d="M272.54,452.74a6.73,6.73,0,0,1-4.44-1.51,5.39,5.39,0,0,1-1.58-6c1.3-3.55,5.67-5.67,11.7-5.67a1.5,1.5,0,0,1,0,3c-5.55,0-8.22,1.91-8.88,3.7a2.36,2.36,0,0,0,.69,2.71c1.2,1,3.78,1.35,7.44-.74a1.5,1.5,0,1,1,1.49,2.6A13.21,13.21,0,0,1,272.54,452.74Z"/><path class="cls-2" d="M320.15,450.77c-16.1,0-11.86,15.25,0,8.47"/><path class="cls-3" d="M314.47,462.48A6.73,6.73,0,0,1,310,461a5.39,5.39,0,0,1-1.58-6c1.3-3.55,5.67-5.67,11.7-5.67a1.5,1.5,0,0,1,0,3c-5.55,0-8.22,1.91-8.88,3.7a2.36,2.36,0,0,0,.69,2.71c1.2,1,3.78,1.35,7.44-.74a1.5,1.5,0,1,1,1.49,2.6A13.21,13.21,0,0,1,314.47,462.48Z"/><path class="cls-2" d="M371,510.93c6.35,7.2,26.69-3,4.24-11"/><path class="cls-3" d="M377.15,514.88a9.53,9.53,0,0,1-7.3-3,1.5,1.5,0,0,1,2.25-2c2,2.27,5.9,2.36,8.72,1.27,2-.76,3.2-2,3.19-3.18,0-.79-0.71-3.63-9.3-6.71a1.5,1.5,0,1,1,1-2.82c9.28,3.33,11.26,7,11.29,9.5s-1.88,4.77-5.11,6A13.42,13.42,0,0,1,377.15,514.88Z"/><path class="cls-2" d="M259.32,467.41c-5.55.42-3.81,13.13,5.27,8.47,1.88,4.24,14.59,12.64,14.59,1"/><path class="cls-3" d="M275.07,484.31c-4.05,0-9-3.62-11.07-6.51-3.61,1.38-5.9.15-7-.78a7.34,7.34,0,0,1-2-7.61,4.79,4.79,0,0,1,4.22-3.49,1.5,1.5,0,1,1,.23,3,1.8,1.8,0,0,0-1.59,1.43,4.37,4.37,0,0,0,1.11,4.39c1.43,1.22,3.49.57,5-.18a1.5,1.5,0,0,1,2.05.73c1.11,2.49,6.75,6.6,9.74,6,1.32-.28,2-1.74,2-4.33a1.5,1.5,0,0,1,3,0c0,5.52-2.73,6.92-4.36,7.27A6,6,0,0,1,275.07,484.31Z"/><path class="cls-2" d="M247.8,496.64c-5.55.42-3.81,13.13,5.27,8.47,1.88,4.24,14.59,12.64,14.59,1"/><path class="cls-3" d="M263.55,513.54c-4.05,0-9-3.62-11.07-6.51-3.62,1.38-5.9.15-7-.78a7.34,7.34,0,0,1-2-7.61,4.79,4.79,0,0,1,4.22-3.49,1.5,1.5,0,1,1,.23,3,1.8,1.8,0,0,0-1.59,1.43,4.36,4.36,0,0,0,1.11,4.39c1.43,1.22,3.49.57,5-.18a1.5,1.5,0,0,1,2.06.73c1.11,2.49,6.75,6.6,9.73,6,1.32-.28,2-1.74,2-4.34a1.5,1.5,0,0,1,3,0c0,5.52-2.73,6.92-4.36,7.27A6,6,0,0,1,263.55,513.54Z"/><path class="cls-2" d="M1660.13,491.85c8.58,7.54,17.63,33.27,7.62,35.65,3.66,9.53-9.05,29.06-19.53,31.92-1.91,13.18-38.25,13.18-58.12,13.18-20.85,0-51.42-2.59-65.75-15.56-17.47-1-25.25-26.6-13.34-37.64-4.3-9.87,8.58-16.1,8.58-27.55-16.68-.89-9.45-13.9-2.18-18.69-12.59,3.36-8-10.45-.19-14.27-10.5-2.38,2.36-6.43,2.36-6.43s-9.45-2.62,4.79-5.93c-4.78-7.65,21.55-10.31,31.42-16.22-9.53-5.72,5.24-14.29,18.1-13.83-3.81-11.89,14.77-13.16,16.2-5.38,5.24-4.9,16.71-2.26,14.07,2.76,8.32-2.13,13.06-4,10.93,5,14.54-2.85,21.69,5.72,18.83,11.44,10.48-5.72,14.86,2.35,10.53,8.08,3.3,5.28,9.48,3.83,9.48,12.88,5.72,1,4.48,8.83,5.37,13.34,6.07,2.86,1,7.76,1,11.91C1665.85,481.29,1660.13,486.32,1660.13,491.85Z"/><path class="cls-3" d="M1590.09,574.11c-18.2,0-50.87-2-66.36-15.6-8.1-.67-15.07-6.51-18.27-15.37s-1.75-18.34,3.79-24.11c-1.95-5.67,1-10.3,3.92-14.79,2.18-3.38,4.42-6.87,4.84-11-6.91-.73-9.18-3.7-9.85-6.15-1.1-4.06,1.46-8.64,4.63-12a4.94,4.94,0,0,1-4.35-3.2c-1.35-3.6,1.22-9.18,5.34-12.57a3.27,3.27,0,0,1-2.18-2.71c-0.08-1.87,2.06-3.35,4.34-4.4a2.69,2.69,0,0,1-.93-2c0-2,2.2-3.38,7.35-4.73a4.15,4.15,0,0,1,.21-2.21c1.51-4,9-6.24,17.77-8.84a100.35,100.35,0,0,0,12.69-4.36,5.16,5.16,0,0,1-1.55-5.33c1.62-5.47,11.9-9.48,20.54-9.77a8.2,8.2,0,0,1,2.17-7.24c2.7-2.73,7.68-3.78,11.84-2.5a8.16,8.16,0,0,1,4.76,3.48c4.24-2.5,10.34-2.14,13.36.17a4.56,4.56,0,0,1,1.87,2.94c4.59-1.2,7.91-2,9.85-.11,1.1,1.07,1.46,2.76,1.11,5.33,8.76-1.12,14.58,1.91,17.18,5.33a8.77,8.77,0,0,1,1.9,5.31c6-2.21,9.08.51,9.94,1.51,2.08,2.41,2.15,6.06.28,9.17a13,13,0,0,0,3.4,2.75c2.53,1.61,5.38,3.41,5.73,9,4.35,1.55,4.72,6.79,5,10.7,0.07,1,.14,2,0.26,2.81,4.51,2.57,3,6.6,2.07,9.32a15.18,15.18,0,0,0-.87,3c3.7,3.66,2.23,7.65,1,10.89a17.75,17.75,0,0,0-1.23,4.43c6.79,6.52,13.75,23.46,11.58,32.2a7.16,7.16,0,0,1-3.64,5c0.89,4-.17,9.16-3.06,14.86-4.19,8.26-11.06,15.22-17,17.31C1646,574.11,1611.12,574.11,1590.09,574.11ZM1517.4,471.66a1.5,1.5,0,0,1,.83,2.75c-4.17,2.75-8.14,8.31-7.17,11.89,0.82,3,5.13,3.87,8.6,4.05a1.5,1.5,0,0,1,1.42,1.5c0,5.64-2.86,10.09-5.39,14-3,4.63-5.34,8.29-3.31,12.94a1.5,1.5,0,0,1-.36,1.7c-5.25,4.87-6.72,13.35-3.74,21.61,2.23,6.19,7.65,13,16.14,13.43a1.5,1.5,0,0,1,.92.39c14.58,13.2,46.82,15.18,64.74,15.18s54.92,0,56.64-11.9a1.5,1.5,0,0,1,1.09-1.23c5.31-1.45,12-8.2,16-16.06,2.83-5.58,3.74-10.64,2.5-13.88a1.5,1.5,0,0,1,1.05-2c1.49-.36,2.45-1.45,2.92-3.35,1.92-7.72-5-24.3-11.18-29.72a1.5,1.5,0,0,1-.51-1.13,17.56,17.56,0,0,1,1.45-6.1c1.37-3.72,2-5.77-.73-8.09a1.5,1.5,0,0,1-.52-1.13,13.5,13.5,0,0,1,1.09-4.61c1.18-3.26,1.55-4.64-1.24-6a1.5,1.5,0,0,1-.83-1.07,32.47,32.47,0,0,1-.42-3.88c-0.33-4.66-.77-7.76-3.73-8.28a1.5,1.5,0,0,1-1.24-1.48c0-4.85-1.83-6-4.37-7.62a14,14,0,0,1-4.89-4.46,1.5,1.5,0,0,1,.08-1.7c1.63-2.15,1.82-4.76.46-6.33-1.64-1.91-5-1.73-9.07.47a1.5,1.5,0,0,1-2.06-2,5.08,5.08,0,0,0-.82-5.44c-2.26-3-7.75-5.54-16.38-3.85a1.5,1.5,0,0,1-1.75-1.82c0.85-3.62.32-4.49,0.13-4.67-0.78-.76-4.32.17-7.45,1l-1.78.46a1.5,1.5,0,0,1-1.7-2.15,1.3,1.3,0,0,0-.52-1.88c-2.22-1.69-8-2.06-11.21.91a1.5,1.5,0,0,1-2.5-.82c-0.37-2-2.34-2.91-3.48-3.26-3.1-1-6.9-.21-8.83,1.74-1.49,1.5-1.82,3.58-1,6.17a1.5,1.5,0,0,1-.23,1.36,1.44,1.44,0,0,1-1.25.59c-9-.32-18.42,4-19.5,7.62-0.13.44-.53,1.78,2.22,3.43a1.5,1.5,0,0,1,0,2.57c-3.76,2.25-9.66,4-15.37,5.71-6.61,2-14.84,4.42-15.82,7a1.47,1.47,0,0,0,.27,1.4,1.5,1.5,0,0,1-.93,2.26c-4.36,1-5.94,1.86-6.49,2.26a7,7,0,0,0,1.76.77,1.5,1.5,0,0,1,0,2.88,16.46,16.46,0,0,0-5.29,2.57,9.09,9.09,0,0,0,2.8,1,1.5,1.5,0,0,1,.33,2.81c-4.45,2.17-7.61,8-6.63,10.63,0.71,1.88,3.92,1.34,5.77.84A1.52,1.52,0,0,1,1517.4,471.66Z"/><path class="cls-2" d="M1528.27,531c-3.46,0-8.37,1-7.46,3.46,1.86,5.11,10.39,4.26,13.05,3.73,1.33-.27-9.32,4.24-5.33,8.52,5.54,5.94,18.38,0,18.38,0s-0.27,5.59.8,6.39c4.26,3.2,17.58-4.26,14.12-11.72"/><path class="cls-3" d="M1550.4,555.33a5.88,5.88,0,0,1-3.59-1.06c-0.36-.27-1.37-1-1.44-5.36-4.15,1.5-13.15,3.91-17.94-1.21a4.33,4.33,0,0,1-1.26-3.65,6.88,6.88,0,0,1,2.49-4c-3.88-.16-7.9-1.41-9.26-5.12a3,3,0,0,1,.34-2.81c1.78-2.54,7.41-2.67,8.52-2.67a1.5,1.5,0,0,1,0,3c-3.52,0-5.86.93-6.08,1.41,1.43,3.89,8.69,3.35,11.38,2.81a1.54,1.54,0,0,1,1.81.93c0.47,1.22-.57,1.84-1.32,2.29-1.15.69-4.66,2.8-4.91,4.56a1.36,1.36,0,0,0,.49,1.19c3.94,4.22,13.36,1.19,16.65-.34a1.5,1.5,0,0,1,2.13,1.43,18.36,18.36,0,0,0,.33,5.21c1.55,0.95,5.57.09,8.86-2.58,1.38-1.12,4.41-4.07,2.87-7.4a1.5,1.5,0,0,1,2.72-1.26c1.69,3.64.31,7.75-3.7,11A15.63,15.63,0,0,1,1550.4,555.33Z"/><path class="cls-2" d="M1553.41,440.79c-18.1,0-13.34,17.15,0,9.53"/><path class="cls-3" d="M1547,453.78a7.39,7.39,0,0,1-4.88-1.66,5.88,5.88,0,0,1-1.72-6.58c1.43-3.92,6.28-6.25,13-6.25a1.5,1.5,0,0,1,0,3c-6.34,0-9.4,2.21-10.16,4.28a2.83,2.83,0,0,0,.83,3.25c1.4,1.18,4.39,1.59,8.58-.81a1.5,1.5,0,1,1,1.49,2.6A14.67,14.67,0,0,1,1547,453.78Z"/><path class="cls-2" d="M1600.57,451.74c-18.1,0-13.34,17.15,0,9.53"/><path class="cls-3" d="M1594.19,464.73a7.39,7.39,0,0,1-4.88-1.66,5.87,5.87,0,0,1-1.72-6.58c1.43-3.92,6.28-6.25,13-6.25a1.5,1.5,0,0,1,0,3c-6.34,0-9.4,2.21-10.16,4.28a2.83,2.83,0,0,0,.83,3.25c1.4,1.18,4.39,1.59,8.58-.81a1.5,1.5,0,1,1,1.49,2.6A14.67,14.67,0,0,1,1594.19,464.73Z"/><path class="cls-2" d="M1657.75,519.41c7.15,8.1,30-3.34,4.76-12.39"/><path class="cls-3" d="M1664.69,523.66a10.52,10.52,0,0,1-8.07-3.27,1.5,1.5,0,1,1,2.25-2c2.31,2.61,6.78,2.73,10,1.48,1.8-.69,3.72-2,3.71-3.75,0-.92-0.81-4.21-10.58-7.72a1.5,1.5,0,1,1,1-2.82c10.33,3.7,12.54,7.76,12.57,10.51s-2.07,5.22-5.63,6.58A14.93,14.93,0,0,1,1664.69,523.66Z"/><path class="cls-2" d="M1532.16,470.47c-6.25.48-4.29,14.77,5.93,9.53,2.12,4.76,16.41,14.22,16.41,1.15"/><path class="cls-3" d="M1549.86,489.28c-4.55,0-10.08-4.13-12.37-7.37-4.06,1.6-6.6.24-7.81-.79a8.06,8.06,0,0,1-2.21-8.35A5.21,5.21,0,0,1,1532,469a1.5,1.5,0,1,1,.23,3,2.25,2.25,0,0,0-2,1.74,5.11,5.11,0,0,0,1.3,5.14c1.68,1.44,4.08.7,5.78-.18a1.5,1.5,0,0,1,2.06.73c1.27,2.85,7.74,7.54,11.16,6.82,1.58-.34,2.38-2,2.38-5.06a1.5,1.5,0,1,1,3,0c0,5.77-2.59,7.53-4.76,8A6.68,6.68,0,0,1,1549.86,489.28Z"/><path class="cls-2" d="M1519.21,503.34c-6.25.48-4.29,14.77,5.93,9.53,2.12,4.76,16.41,14.22,16.41,1.15"/><path class="cls-3" d="M1536.91,522.16c-4.55,0-10.08-4.13-12.37-7.37-4.05,1.6-6.6.24-7.81-.79a8.06,8.06,0,0,1-2.21-8.35,5.21,5.21,0,0,1,4.58-3.8,1.5,1.5,0,1,1,.23,3,2.25,2.25,0,0,0-2,1.74,5.11,5.11,0,0,0,1.3,5.14c1.68,1.44,4.08.7,5.78-.18a1.5,1.5,0,0,1,2.06.73c1.26,2.85,7.74,7.54,11.16,6.82,1.58-.34,2.38-2,2.38-5.06a1.5,1.5,0,0,1,3,0c0,5.77-2.59,7.53-4.76,8A6.67,6.67,0,0,1,1536.91,522.16Z"/><rect class="cls-5" x="1294.35" y="177.4" width="48.14" height="350.11" transform="translate(2636.84 704.9) rotate(180)"/><path class="cls-3" d="M1342.49,528.65h-48.14a1.15,1.15,0,0,1-1.15-1.15V177.4a1.15,1.15,0,0,1,1.15-1.15h48.14a1.15,1.15,0,0,1,1.15,1.15V527.51A1.15,1.15,0,0,1,1342.49,528.65Zm-47-2.3h45.84V178.54H1295.5V526.36Z"/><polygon class="cls-6" points="1294.35 527.51 1342.49 527.51 1318.42 394.03 1342.49 394.03 1342.49 177.4 1294.35 177.4 1294.35 527.51"/><rect class="cls-2" x="1294.35" y="177.4" width="48.14" height="196.94" transform="translate(2636.84 551.73) rotate(180)"/><path class="cls-3" d="M1342.49,375.48h-48.14a1.15,1.15,0,0,1-1.15-1.15V177.4a1.15,1.15,0,0,1,1.15-1.15h48.14a1.15,1.15,0,0,1,1.15,1.15V374.33A1.15,1.15,0,0,1,1342.49,375.48Zm-47-2.3h45.84V178.54H1295.5V373.19Z"/><path class="cls-3" d="M1342.49,367.7h-48.14a0.57,0.57,0,0,1,0-1.15h48.14A0.57,0.57,0,1,1,1342.49,367.7Z"/><path class="cls-3" d="M1342.49,383h-48.14a0.57,0.57,0,0,1,0-1.15h48.14A0.57,0.57,0,1,1,1342.49,383Z"/><path class="cls-3" d="M1342.49,398.31h-48.14a0.57,0.57,0,0,1,0-1.15h48.14A0.57,0.57,0,1,1,1342.49,398.31Z"/><path class="cls-3" d="M1342.49,413.62h-48.14a0.57,0.57,0,0,1,0-1.15h48.14A0.57,0.57,0,1,1,1342.49,413.62Z"/><path class="cls-3" d="M1342.49,428.93h-48.14a0.57,0.57,0,0,1,0-1.15h48.14A0.57,0.57,0,1,1,1342.49,428.93Z"/><path class="cls-3" d="M1342.49,444.24h-48.14a0.57,0.57,0,0,1,0-1.15h48.14A0.57,0.57,0,1,1,1342.49,444.24Z"/><path class="cls-3" d="M1342.49,459.55h-48.14a0.57,0.57,0,0,1,0-1.15h48.14A0.57,0.57,0,1,1,1342.49,459.55Z"/><path class="cls-3" d="M1342.49,474.86h-48.14a0.57,0.57,0,0,1,0-1.15h48.14A0.57,0.57,0,1,1,1342.49,474.86Z"/><path class="cls-3" d="M1342.49,490.17h-48.14a0.57,0.57,0,0,1,0-1.15h48.14A0.57,0.57,0,1,1,1342.49,490.17Z"/><path class="cls-3" d="M1342.49,505.48h-48.14a0.57,0.57,0,0,1,0-1.15h48.14A0.57,0.57,0,1,1,1342.49,505.48Z"/><path class="cls-3" d="M1342.49,520.79h-48.14a0.57,0.57,0,0,1,0-1.15h48.14A0.57,0.57,0,1,1,1342.49,520.79Z"/><rect class="cls-5" x="602.91" y="89.87" width="691.44" height="437.64"/><path class="cls-3" d="M1294.35,528.65H602.91a1.15,1.15,0,0,1-1.15-1.15V89.87a1.15,1.15,0,0,1,1.15-1.15h691.44a1.15,1.15,0,0,1,1.15,1.15V527.51A1.15,1.15,0,0,1,1294.35,528.65Zm-690.29-2.3H1293.2V91H604.06V526.36Z"/><polygon class="cls-6" points="1294.35 343.7 1294.35 387.46 1078.84 384.94 1078.84 505.99 1087.21 505.99 1087.21 514.38 1100.34 514.38 1100.34 527.51 1028.13 527.51 1028.13 343.7 1294.35 343.7"/><polygon class="cls-6" points="1014.64 352.45 828.45 201.47 667.2 347.92 642.29 416.02 633.54 446.53 611.66 446.53 602.91 355.99 826.1 144.57 1055.12 356.83 1014.64 352.45"/><g class="cls-11"><path class="cls-3" d="M1293.7,114.74H603.56a0.57,0.57,0,0,1,0-1.15H1293.7A0.57,0.57,0,1,1,1293.7,114.74Z"/><path class="cls-3" d="M1293.7,128.51H603.56a0.57,0.57,0,0,1,0-1.15H1293.7A0.57,0.57,0,1,1,1293.7,128.51Z"/><path class="cls-3" d="M1293.7,142.29H603.56a0.57,0.57,0,0,1,0-1.15H1293.7A0.57,0.57,0,1,1,1293.7,142.29Z"/><path class="cls-3" d="M1293.7,156.07H603.56a0.57,0.57,0,0,1,0-1.15H1293.7A0.57,0.57,0,1,1,1293.7,156.07Z"/><path class="cls-3" d="M1293.7,169.85H603.56a0.57,0.57,0,0,1,0-1.15H1293.7A0.57,0.57,0,1,1,1293.7,169.85Z"/><path class="cls-3" d="M1293.7,183.63H603.56a0.57,0.57,0,0,1,0-1.15H1293.7A0.57,0.57,0,1,1,1293.7,183.63Z"/><path class="cls-3" d="M1293.7,197.4H603.56a0.57,0.57,0,0,1,0-1.15H1293.7A0.57,0.57,0,1,1,1293.7,197.4Z"/><path class="cls-3" d="M1293.7,211.18H603.56a0.57,0.57,0,0,1,0-1.15H1293.7A0.57,0.57,0,1,1,1293.7,211.18Z"/><path class="cls-3" d="M1293.7,225H603.56a0.57,0.57,0,0,1,0-1.15H1293.7A0.57,0.57,0,1,1,1293.7,225Z"/><path class="cls-3" d="M1293.7,238.74H603.56a0.57,0.57,0,0,1,0-1.15H1293.7A0.57,0.57,0,1,1,1293.7,238.74Z"/><path class="cls-3" d="M1293.7,252.52H603.56a0.57,0.57,0,0,1,0-1.15H1293.7A0.57,0.57,0,1,1,1293.7,252.52Z"/><path class="cls-3" d="M1293.7,266.3H603.56a0.57,0.57,0,0,1,0-1.15H1293.7A0.57,0.57,0,1,1,1293.7,266.3Z"/><path class="cls-3" d="M1293.7,280.07H603.56a0.57,0.57,0,0,1,0-1.15H1293.7A0.57,0.57,0,1,1,1293.7,280.07Z"/><path class="cls-3" d="M1293.7,293.85H603.56a0.57,0.57,0,0,1,0-1.15H1293.7A0.57,0.57,0,1,1,1293.7,293.85Z"/><path class="cls-3" d="M1293.7,307.63H603.56a0.57,0.57,0,0,1,0-1.15H1293.7A0.57,0.57,0,1,1,1293.7,307.63Z"/><path class="cls-3" d="M1293.7,321.41H603.56a0.57,0.57,0,0,1,0-1.15H1293.7A0.57,0.57,0,1,1,1293.7,321.41Z"/><path class="cls-3" d="M1293.7,335.19H603.56a0.57,0.57,0,0,1,0-1.15H1293.7A0.57,0.57,0,1,1,1293.7,335.19Z"/><path class="cls-3" d="M1293.7,349H603.56a0.57,0.57,0,0,1,0-1.15H1293.7A0.57,0.57,0,1,1,1293.7,349Z"/><path class="cls-3" d="M1293.7,362.74H603.56a0.57,0.57,0,0,1,0-1.15H1293.7A0.57,0.57,0,1,1,1293.7,362.74Z"/><path class="cls-3" d="M1293.7,376.52H603.56a0.57,0.57,0,0,1,0-1.15H1293.7A0.57,0.57,0,1,1,1293.7,376.52Z"/><path class="cls-3" d="M1293.7,390.3H603.56a0.57,0.57,0,0,1,0-1.15H1293.7A0.57,0.57,0,1,1,1293.7,390.3Z"/><path class="cls-3" d="M1293.7,404.08H603.56a0.57,0.57,0,0,1,0-1.15H1293.7A0.57,0.57,0,1,1,1293.7,404.08Z"/><path class="cls-3" d="M1293.7,417.85H603.56a0.57,0.57,0,0,1,0-1.15H1293.7A0.57,0.57,0,1,1,1293.7,417.85Z"/><path class="cls-3" d="M1293.7,431.63H603.56a0.57,0.57,0,0,1,0-1.15H1293.7A0.57,0.57,0,1,1,1293.7,431.63Z"/><path class="cls-3" d="M1293.7,445.41H603.56a0.57,0.57,0,0,1,0-1.15H1293.7A0.57,0.57,0,1,1,1293.7,445.41Z"/><path class="cls-3" d="M1293.7,459.19H603.56a0.57,0.57,0,0,1,0-1.15H1293.7A0.57,0.57,0,1,1,1293.7,459.19Z"/><path class="cls-3" d="M1293.7,473H603.56a0.57,0.57,0,0,1,0-1.15H1293.7A0.57,0.57,0,1,1,1293.7,473Z"/><path class="cls-3" d="M1293.7,486.75H603.56a0.57,0.57,0,0,1,0-1.15H1293.7A0.57,0.57,0,1,1,1293.7,486.75Z"/><path class="cls-3" d="M1293.7,500.52H603.56a0.57,0.57,0,0,1,0-1.15H1293.7A0.57,0.57,0,1,1,1293.7,500.52Z"/><path class="cls-3" d="M1293.7,514.3H603.56a0.57,0.57,0,0,1,0-1.15H1293.7A0.57,0.57,0,1,1,1293.7,514.3Z"/><path class="cls-3" d="M1293.7,528.08H603.56a0.57,0.57,0,0,1,0-1.15H1293.7A0.57,0.57,0,1,1,1293.7,528.08Z"/></g><polygon class="cls-2" points="1307.48 343.7 1055.12 343.7 826.1 138.74 594.16 343.7 589.78 343.7 589.78 63.61 1307.48 63.61 1307.48 343.7"/><path class="cls-3" d="M1307.48,344.85H1055.12a1.15,1.15,0,0,1-.77-0.29L826.09,140.27,594.92,344.56a1.15,1.15,0,0,1-.76.29h-4.38a1.15,1.15,0,0,1-1.15-1.15V63.61a1.15,1.15,0,0,1,1.15-1.15h717.7a1.15,1.15,0,0,1,1.15,1.15V343.7A1.15,1.15,0,0,1,1307.48,344.85Zm-251.92-2.3h250.78V64.76H590.93V342.55h2.79L825.33,137.88a1.15,1.15,0,0,1,1.53,0Z"/><polygon class="cls-6" points="589.78 63.61 743.43 158.8 993.85 192.09 1100.34 343.7 1044.18 343.7 826.1 144.57 606.22 343.7 589.78 343.7 589.78 63.61"/><polygon class="cls-5" points="1181.21 118.68 1161.61 101.17 1142 118.68 1161.61 135.46 1181.21 118.68"/><path class="cls-3" d="M1161.61,136.6a1.15,1.15,0,0,1-.75-0.28l-19.61-16.78a1.15,1.15,0,0,1,0-1.73l19.61-17.51a1.15,1.15,0,0,1,1.53,0L1182,117.82a1.15,1.15,0,0,1,0,1.73l-19.61,16.78A1.15,1.15,0,0,1,1161.61,136.6Zm-17.86-17.94,17.86,15.28,17.86-15.28-17.86-15.95Z"/><rect class="cls-5" x="1109.09" y="343.7" width="145.87" height="131.29"/><path class="cls-3" d="M1255,476.14H1109.09a1.15,1.15,0,0,1-1.15-1.15V343.7a1.15,1.15,0,0,1,1.15-1.15H1255a1.15,1.15,0,0,1,1.15,1.15V475A1.15,1.15,0,0,1,1255,476.14Zm-144.73-2.3h143.58v-129H1110.24v129Z"/><rect class="cls-5" x="1109.09" y="343.7" width="145.87" height="131.29"/><path class="cls-3" d="M1255,476.14H1109.09a1.15,1.15,0,0,1-1.15-1.15V343.7a1.15,1.15,0,0,1,1.15-1.15H1255a1.15,1.15,0,0,1,1.15,1.15V475A1.15,1.15,0,0,1,1255,476.14Zm-144.73-2.3h143.58v-129H1110.24v129Z"/><rect class="cls-5" x="1117.84" y="164.27" width="87.52" height="100.66"/><path class="cls-3" d="M1205.37,266.07h-87.53a1.15,1.15,0,0,1-1.15-1.15V164.27a1.15,1.15,0,0,1,1.15-1.15h87.53a1.15,1.15,0,0,1,1.15,1.15V264.92A1.15,1.15,0,0,1,1205.37,266.07Zm-86.38-2.3h85.23V165.41H1119v98.36Z"/><rect class="cls-2" x="689.7" y="214.6" width="39.39" height="13.13"/><path class="cls-3" d="M729.09,228.3H689.7a0.57,0.57,0,0,1-.57-0.57V214.6a0.57,0.57,0,0,1,.57-0.57h39.39a0.57,0.57,0,0,1,.57.57v13.13A0.57,0.57,0,0,1,729.09,228.3Zm-38.81-1.15h38.24v-12H690.28v12Z"/><rect class="cls-2" x="709.4" y="201.47" width="39.39" height="13.13"/><path class="cls-3" d="M748.78,215.17H709.4a0.57,0.57,0,0,1-.57-0.57V201.47a0.57,0.57,0,0,1,.57-0.57h39.39a0.57,0.57,0,0,1,.57.57V214.6A0.57,0.57,0,0,1,748.78,215.17ZM710,214h38.24V202H710v12Z"/><rect class="cls-5" x="1104.72" y="474.99" width="154.63" height="8.75"/><path class="cls-3" d="M1259.34,484.89H1104.72a1.15,1.15,0,0,1-1.15-1.15V475a1.15,1.15,0,0,1,1.15-1.15h154.63a1.15,1.15,0,0,1,1.15,1.15v8.75A1.15,1.15,0,0,1,1259.34,484.89Zm-153.48-2.3h152.33v-6.46H1105.86v6.46Z"/><polygon class="cls-5" points="1161.61 124.88 1204.02 164.27 1119.19 164.27 1161.61 124.88"/><path class="cls-3" d="M1204,165.41h-84.83a1.15,1.15,0,0,1-.78-2L1160.83,124a1.15,1.15,0,0,1,1.56,0l42.42,39.39A1.15,1.15,0,0,1,1204,165.41Zm-81.91-2.3h79l-39.49-36.67Z"/><path class="cls-6" d="M1161.61,120.5l-42.67,38.29-0.68,19.54,87.31,11.86,0.43-29.68Zm-20.26,39.89L1165.42,138l22.32,20.79Z"/><g class="cls-12"><path class="cls-3" d="M1203.37,113.94h-85.53a0.57,0.57,0,1,1,0-1.15h85.53A0.57,0.57,0,0,1,1203.37,113.94Z"/><path class="cls-3" d="M1203.37,127.72h-85.53a0.57,0.57,0,1,1,0-1.15h85.53A0.57,0.57,0,0,1,1203.37,127.72Z"/><path class="cls-3" d="M1203.37,141.49h-85.53a0.57,0.57,0,1,1,0-1.15h85.53A0.57,0.57,0,0,1,1203.37,141.49Z"/><path class="cls-3" d="M1203.37,155.27h-85.53a0.57,0.57,0,1,1,0-1.15h85.53A0.57,0.57,0,0,1,1203.37,155.27Z"/><path class="cls-3" d="M1203.37,169.05h-85.53a0.57,0.57,0,1,1,0-1.15h85.53A0.57,0.57,0,0,1,1203.37,169.05Z"/><path class="cls-3" d="M1203.37,182.83h-85.53a0.57,0.57,0,1,1,0-1.15h85.53A0.57,0.57,0,0,1,1203.37,182.83Z"/><path class="cls-3" d="M1203.37,196.61h-85.53a0.57,0.57,0,1,1,0-1.15h85.53A0.57,0.57,0,0,1,1203.37,196.61Z"/><path class="cls-3" d="M1203.37,210.39h-85.53a0.57,0.57,0,1,1,0-1.15h85.53A0.57,0.57,0,0,1,1203.37,210.39Z"/><path class="cls-3" d="M1203.37,224.16h-85.53a0.57,0.57,0,1,1,0-1.15h85.53A0.57,0.57,0,0,1,1203.37,224.16Z"/><path class="cls-3" d="M1203.37,237.94h-85.53a0.57,0.57,0,1,1,0-1.15h85.53A0.57,0.57,0,0,1,1203.37,237.94Z"/><path class="cls-3" d="M1203.37,251.72h-85.53a0.57,0.57,0,1,1,0-1.15h85.53A0.57,0.57,0,0,1,1203.37,251.72Z"/><path class="cls-3" d="M1203.37,265.5h-85.53a0.57,0.57,0,1,1,0-1.15h85.53A0.57,0.57,0,0,1,1203.37,265.5Z"/></g><rect class="cls-5" x="1130.97" y="359.02" width="46.68" height="43.76"/><path class="cls-3" d="M1177.65,403.93H1131a1.15,1.15,0,0,1-1.15-1.15V359a1.15,1.15,0,0,1,1.15-1.15h46.68a1.15,1.15,0,0,1,1.15,1.15v43.76A1.15,1.15,0,0,1,1177.65,403.93Zm-45.53-2.3h44.38V360.16h-44.38v41.47Z"/><rect class="cls-5" x="1186.41" y="359.02" width="46.68" height="43.76"/><path class="cls-3" d="M1233.08,403.93h-46.68a1.15,1.15,0,0,1-1.15-1.15V359a1.15,1.15,0,0,1,1.15-1.15h46.68a1.15,1.15,0,0,1,1.15,1.15v43.76A1.15,1.15,0,0,1,1233.08,403.93Zm-45.53-2.3h44.38V360.16h-44.38v41.47Z"/><rect class="cls-5" x="1130.97" y="411.53" width="46.68" height="43.76"/><path class="cls-3" d="M1177.65,456.44H1131a1.15,1.15,0,0,1-1.15-1.15V411.53a1.15,1.15,0,0,1,1.15-1.15h46.68a1.15,1.15,0,0,1,1.15,1.15V455.3A1.15,1.15,0,0,1,1177.65,456.44Zm-45.53-2.3h44.38V412.68h-44.38v41.47Z"/><rect class="cls-5" x="1186.41" y="411.53" width="46.68" height="43.76"/><path class="cls-3" d="M1233.08,456.44h-46.68a1.15,1.15,0,0,1-1.15-1.15V411.53a1.15,1.15,0,0,1,1.15-1.15h46.68a1.15,1.15,0,0,1,1.15,1.15V455.3A1.15,1.15,0,0,1,1233.08,456.44Zm-45.53-2.3h44.38V412.68h-44.38v41.47Z"/><rect class="cls-5" x="1135.35" y="175.21" width="52.51" height="78.77"/><path class="cls-3" d="M1187.86,255.13h-52.51a1.15,1.15,0,0,1-1.15-1.15V175.21a1.15,1.15,0,0,1,1.15-1.15h52.51a1.15,1.15,0,0,1,1.15,1.15V254A1.15,1.15,0,0,1,1187.86,255.13Zm-51.37-2.3h50.22V176.36H1136.5v76.48Z"/><rect class="cls-2" x="642.29" y="369.96" width="280.08" height="157.55"/><path class="cls-3" d="M922.37,528.65H642.29a1.15,1.15,0,0,1-1.15-1.15V370a1.15,1.15,0,0,1,1.15-1.15H922.37a1.15,1.15,0,0,1,1.15,1.15V527.51A1.15,1.15,0,0,1,922.37,528.65Zm-278.93-2.3H921.22V371.1H643.44V526.36Z"/><rect class="cls-2" x="589.78" y="63.61" width="717.7" height="10.94"/><path class="cls-3" d="M1307.48,75.7H589.78a1.15,1.15,0,0,1-1.15-1.15V63.61a1.15,1.15,0,0,1,1.15-1.15h717.7a1.15,1.15,0,0,1,1.15,1.15V74.55A1.15,1.15,0,0,1,1307.48,75.7ZM590.93,73.4h715.4V64.76H590.93V73.4Z"/><rect class="cls-5" x="1144.1" y="183.96" width="35.01" height="26.26"/><path class="cls-3" d="M1179.11,211.37h-35a1.15,1.15,0,0,1-1.15-1.15V184a1.15,1.15,0,0,1,1.15-1.15h35a1.15,1.15,0,0,1,1.15,1.15v26.26A1.15,1.15,0,0,1,1179.11,211.37Zm-33.86-2.3H1178v-24h-32.71v24Z"/><rect class="cls-5" x="1144.1" y="218.97" width="35.01" height="26.26"/><path class="cls-3" d="M1179.11,246.38h-35a1.15,1.15,0,0,1-1.15-1.15V219a1.15,1.15,0,0,1,1.15-1.15h35a1.15,1.15,0,0,1,1.15,1.15v26.26A1.15,1.15,0,0,1,1179.11,246.38Zm-33.86-2.3H1178v-24h-32.71v24Z"/><rect class="cls-5" x="958.84" y="356.83" width="96.28" height="170.68"/><path class="cls-3" d="M1055.12,528.65H958.84a1.15,1.15,0,0,1-1.15-1.15V356.83a1.15,1.15,0,0,1,1.15-1.15h96.28a1.15,1.15,0,0,1,1.15,1.15V527.51A1.15,1.15,0,0,1,1055.12,528.65ZM960,526.36h94V358H960V526.36Z"/><rect class="cls-5" x="651.05" y="387.46" width="262.57" height="140.04"/><path class="cls-3" d="M913.62,528.65H651a1.15,1.15,0,0,1-1.15-1.15v-140a1.15,1.15,0,0,1,1.15-1.15H913.62a1.15,1.15,0,0,1,1.15,1.15v140A1.15,1.15,0,0,1,913.62,528.65Zm-261.42-2.3H912.47V388.61H652.2V526.36Z"/><polygon class="cls-6" points="706.9 420.29 651.05 522.3 651.05 387.46 913.62 387.46 706.9 420.29"/><rect class="cls-5" x="950.09" y="518.75" width="113.78" height="8.75"/><path class="cls-3" d="M1063.87,528.65H950.09a1.15,1.15,0,0,1-1.15-1.15v-8.75a1.15,1.15,0,0,1,1.15-1.15h113.78a1.15,1.15,0,0,1,1.15,1.15v8.75A1.15,1.15,0,0,1,1063.87,528.65Zm-112.63-2.3h111.49V519.9H951.24v6.46Z"/><rect class="cls-5" x="954.47" y="510" width="105.03" height="8.75"/><path class="cls-3" d="M1059.49,519.9h-105a1.15,1.15,0,0,1-1.15-1.15V510a1.15,1.15,0,0,1,1.15-1.15h105a1.15,1.15,0,0,1,1.15,1.15v8.75A1.15,1.15,0,0,1,1059.49,519.9Zm-103.88-2.3h102.73v-6.46H955.61v6.46Z"/><polygon class="cls-5" points="845.7 135.82 826.1 118.31 806.49 135.82 826.1 152.6 845.7 135.82"/><path class="cls-3" d="M826.1,153.74a1.15,1.15,0,0,1-.75-0.28l-19.61-16.78a1.15,1.15,0,0,1,0-1.73l19.61-17.51a1.15,1.15,0,0,1,1.53,0L846.47,135a1.15,1.15,0,0,1,0,1.73l-19.61,16.78A1.15,1.15,0,0,1,826.1,153.74ZM808.23,135.8l17.86,15.28L844,135.8,826.1,119.85Z"/><rect class="cls-5" x="1044.18" y="356.83" width="10.94" height="152.44"/><path class="cls-3" d="M1055.12,510.42h-10.94a1.15,1.15,0,0,1-1.15-1.15V356.83a1.15,1.15,0,0,1,1.15-1.15h10.94a1.15,1.15,0,0,1,1.15,1.15V509.27A1.15,1.15,0,0,1,1055.12,510.42Zm-9.79-2.3H1054V358h-8.64V508.12Z"/><rect class="cls-5" x="958.77" y="356.83" width="10.94" height="152.44"/><path class="cls-3" d="M969.71,510.42H958.77a1.15,1.15,0,0,1-1.15-1.15V356.83a1.15,1.15,0,0,1,1.15-1.15h10.94a1.15,1.15,0,0,1,1.15,1.15V509.27A1.15,1.15,0,0,1,969.71,510.42Zm-9.79-2.3h8.64V358h-8.64V508.12Z"/><rect class="cls-5" x="1041.99" y="502.71" width="15.32" height="6.56"/><path class="cls-3" d="M1057.31,510.42H1042a1.15,1.15,0,0,1-1.15-1.15v-6.56a1.15,1.15,0,0,1,1.15-1.15h15.32a1.15,1.15,0,0,1,1.15,1.15v6.56A1.15,1.15,0,0,1,1057.31,510.42Zm-14.17-2.3h13v-4.27h-13v4.27Z"/><rect class="cls-5" x="956.59" y="502.71" width="15.32" height="6.56"/><path class="cls-3" d="M971.9,510.42H956.58a1.15,1.15,0,0,1-1.15-1.15v-6.56a1.15,1.15,0,0,1,1.15-1.15H971.9a1.15,1.15,0,0,1,1.15,1.15v6.56A1.15,1.15,0,0,1,971.9,510.42Zm-14.17-2.3h13v-4.27h-13v4.27Z"/><rect class="cls-5" x="954.47" y="352.45" width="105.03" height="13.13"/><path class="cls-3" d="M1059.49,366.73h-105a1.15,1.15,0,0,1-1.15-1.15V352.45a1.15,1.15,0,0,1,1.15-1.15h105a1.15,1.15,0,0,1,1.15,1.15v13.13A1.15,1.15,0,0,1,1059.49,366.73Zm-103.88-2.3h102.73V353.6H955.61v10.83Z"/><polygon class="cls-5" points="1031.78 347.92 826.1 164.27 620.41 347.92 597.07 347.92 826.1 138.74 1059.83 347.92 1031.78 347.92"/><path class="cls-3" d="M1059.83,349.07h-28.06a1.15,1.15,0,0,1-.76-0.29l-204.92-183-204.92,183a1.15,1.15,0,0,1-.76.29H597.07a1.15,1.15,0,0,1-.77-2l229-209.18a1.15,1.15,0,0,1,1.54,0L1060.6,347.06A1.15,1.15,0,0,1,1059.83,349.07Zm-27.62-2.3h24.61L826.1,140.29,600,346.77H620L825.33,163.41a1.15,1.15,0,0,1,1.53,0Z"/><polygon class="cls-5" points="826.1 124.88 581.03 343.7 581.03 356.83 620.41 356.83 620.41 334.79 826.1 151.14 1031.78 334.79 1031.78 356.83 1071.16 356.83 1071.16 343.7 826.1 124.88"/><path class="cls-3" d="M1071.16,358h-39.39a1.15,1.15,0,0,1-1.15-1.15V335.3L826.1,152.68,621.56,335.3v21.52a1.15,1.15,0,0,1-1.15,1.15H581a1.15,1.15,0,0,1-1.15-1.15V343.7a1.15,1.15,0,0,1,.38-0.86L825.33,124a1.15,1.15,0,0,1,1.53,0l245.07,218.82a1.15,1.15,0,0,1,.38.86v13.13A1.15,1.15,0,0,1,1071.16,358Zm-38.24-2.3H1070V344.21L826.1,126.42,582.18,344.21v11.47h37.09V334.79a1.15,1.15,0,0,1,.38-0.86L825.33,150.28a1.15,1.15,0,0,1,1.53,0l205.68,183.65a1.15,1.15,0,0,1,.38.86v20.89Z"/><polygon class="cls-5" points="1161.61 124.88 1204.02 164.27 1222.87 164.27 1161.61 107.37 1100.34 164.27 1119.19 164.27 1161.61 124.88"/><path class="cls-3" d="M1222.87,165.41H1204a1.15,1.15,0,0,1-.78-0.31l-41.63-38.66L1120,165.11a1.15,1.15,0,0,1-.78.31h-18.85a1.15,1.15,0,0,1-.78-2l61.27-56.89a1.15,1.15,0,0,1,1.56,0l61.27,56.89A1.15,1.15,0,0,1,1222.87,165.41Zm-18.4-2.3H1220l-58.34-54.18-58.34,54.18h15.48L1160.83,124a1.15,1.15,0,0,1,1.56,0Z"/><rect class="cls-5" x="1100.34" y="153.33" width="122.53" height="10.94"/><path class="cls-3" d="M1222.87,165.41H1100.34a1.15,1.15,0,0,1-1.15-1.15V153.33a1.15,1.15,0,0,1,1.15-1.15h122.54a1.15,1.15,0,0,1,1.15,1.15v10.94A1.15,1.15,0,0,1,1222.87,165.41Zm-121.39-2.3h120.24v-8.65H1101.49v8.65Z"/><rect class="cls-2" x="613.85" y="394.03" width="17.5" height="32.82"/><path class="cls-3" d="M631.35,428h-17.5a1.15,1.15,0,0,1-1.15-1.15V394a1.15,1.15,0,0,1,1.15-1.15h17.5A1.15,1.15,0,0,1,632.5,394v32.82A1.15,1.15,0,0,1,631.35,428ZM615,425.7h15.21V395.17H615V425.7Z"/><rect class="cls-5" x="651.05" y="518.75" width="262.57" height="8.75"/><path class="cls-3" d="M913.62,528.65H651a1.15,1.15,0,0,1-1.15-1.15v-8.75a1.15,1.15,0,0,1,1.15-1.15H913.62a1.15,1.15,0,0,1,1.15,1.15v8.75A1.15,1.15,0,0,1,913.62,528.65Zm-261.42-2.3H912.47V519.9H652.2v6.46Z"/><rect class="cls-2" x="933.31" y="394.03" width="17.5" height="32.82"/><path class="cls-3" d="M950.82,428h-17.5a1.15,1.15,0,0,1-1.15-1.15V394a1.15,1.15,0,0,1,1.15-1.15h17.5A1.15,1.15,0,0,1,952,394v32.82A1.15,1.15,0,0,1,950.82,428Zm-16.36-2.3h15.21V395.17H934.46V425.7Z"/><circle class="cls-5" cx="622.6" cy="409.34" r="10.94"/><path class="cls-3" d="M622.6,421.43a12.09,12.09,0,1,1,12.09-12.09A12.1,12.1,0,0,1,622.6,421.43Zm0-21.88a9.79,9.79,0,1,0,9.79,9.79A9.8,9.8,0,0,0,622.6,399.55Z"/><circle class="cls-5" cx="942.07" cy="409.34" r="10.94"/><path class="cls-3" d="M942.07,421.43a12.09,12.09,0,1,1,12.09-12.09A12.1,12.1,0,0,1,942.07,421.43Zm0-21.88a9.79,9.79,0,1,0,9.79,9.79A9.8,9.8,0,0,0,942.07,399.55Z"/><rect class="cls-2" x="978.53" y="374.33" width="56.89" height="134.94"/><path class="cls-3" d="M1035.43,510.42H978.53a1.15,1.15,0,0,1-1.15-1.15V374.33a1.15,1.15,0,0,1,1.15-1.15h56.89a1.15,1.15,0,0,1,1.15,1.15V509.27A1.15,1.15,0,0,1,1035.43,510.42Zm-55.74-2.3h54.59V375.48H979.68V508.12Z"/><polygon class="cls-6" points="978.53 509.27 989.48 509.27 1006.98 402.78 1035.42 374.33 978.53 374.33 978.53 509.27"/><rect class="cls-5" x="999.32" y="388.92" width="15.32" height="35.01"/><path class="cls-3" d="M1014.64,425.08H999.32a1.15,1.15,0,0,1-1.15-1.15v-35a1.15,1.15,0,0,1,1.15-1.15h15.32a1.15,1.15,0,0,1,1.15,1.15v35A1.15,1.15,0,0,1,1014.64,425.08Zm-14.17-2.3h13V390.07h-13v32.72Z"/><g class="cls-13"><path class="cls-3" d="M913.62,381.16H651a0.19,0.19,0,0,1,0-.38H913.62A0.19,0.19,0,0,1,913.62,381.16Z"/><path class="cls-3" d="M913.62,388.05H651a0.19,0.19,0,0,1,0-.38H913.62A0.19,0.19,0,0,1,913.62,388.05Z"/><path class="cls-3" d="M913.62,394.94H651a0.19,0.19,0,1,1,0-.38H913.62A0.19,0.19,0,1,1,913.62,394.94Z"/><path class="cls-3" d="M913.62,401.83H651a0.19,0.19,0,0,1,0-.38H913.62A0.19,0.19,0,0,1,913.62,401.83Z"/><path class="cls-3" d="M913.62,408.72H651a0.19,0.19,0,0,1,0-.38H913.62A0.19,0.19,0,0,1,913.62,408.72Z"/><path class="cls-3" d="M913.62,415.61H651a0.19,0.19,0,0,1,0-.38H913.62A0.19,0.19,0,0,1,913.62,415.61Z"/><path class="cls-3" d="M913.62,422.5H651a0.19,0.19,0,0,1,0-.38H913.62A0.19,0.19,0,0,1,913.62,422.5Z"/><path class="cls-3" d="M913.62,429.39H651a0.19,0.19,0,0,1,0-.38H913.62A0.19,0.19,0,0,1,913.62,429.39Z"/><path class="cls-3" d="M913.62,436.28H651a0.19,0.19,0,0,1,0-.38H913.62A0.19,0.19,0,0,1,913.62,436.28Z"/><path class="cls-3" d="M913.62,443.17H651a0.19,0.19,0,0,1,0-.38H913.62A0.19,0.19,0,0,1,913.62,443.17Z"/><path class="cls-3" d="M913.62,450.05H651a0.19,0.19,0,0,1,0-.38H913.62A0.19,0.19,0,0,1,913.62,450.05Z"/><path class="cls-3" d="M913.62,456.94H651a0.19,0.19,0,0,1,0-.38H913.62A0.19,0.19,0,0,1,913.62,456.94Z"/><path class="cls-3" d="M913.62,463.83H651a0.19,0.19,0,0,1,0-.38H913.62A0.19,0.19,0,0,1,913.62,463.83Z"/><path class="cls-3" d="M913.62,470.72H651a0.19,0.19,0,0,1,0-.38H913.62A0.19,0.19,0,0,1,913.62,470.72Z"/><path class="cls-3" d="M913.62,477.61H651a0.19,0.19,0,0,1,0-.38H913.62A0.19,0.19,0,0,1,913.62,477.61Z"/><path class="cls-3" d="M913.62,484.5H651a0.19,0.19,0,0,1,0-.38H913.62A0.19,0.19,0,0,1,913.62,484.5Z"/><path class="cls-3" d="M913.62,491.39H651a0.19,0.19,0,0,1,0-.38H913.62A0.19,0.19,0,0,1,913.62,491.39Z"/><path class="cls-3" d="M913.62,498.28H651a0.19,0.19,0,0,1,0-.38H913.62A0.19,0.19,0,0,1,913.62,498.28Z"/><path class="cls-3" d="M913.62,505.17H651a0.19,0.19,0,0,1,0-.38H913.62A0.19,0.19,0,0,1,913.62,505.17Z"/><path class="cls-3" d="M913.62,512.06H651a0.19,0.19,0,0,1,0-.38H913.62A0.19,0.19,0,0,1,913.62,512.06Z"/><path class="cls-3" d="M913.62,518.94H651a0.19,0.19,0,0,1,0-.38H913.62A0.19,0.19,0,0,1,913.62,518.94Z"/></g><rect class="cls-5" x="675.12" y="518.75" width="21.88" height="4.38" rx="1.63" ry="1.63"/><path class="cls-3" d="M695.36,524.28H676.75A2.78,2.78,0,0,1,674,521.5v-1.11a2.78,2.78,0,0,1,2.78-2.78h18.62a2.78,2.78,0,0,1,2.78,2.78v1.11A2.78,2.78,0,0,1,695.36,524.28Zm-18.62-4.38a0.49,0.49,0,0,0-.48.49v1.11a0.49,0.49,0,0,0,.48.48h18.62a0.49,0.49,0,0,0,.48-0.48v-1.11a0.49,0.49,0,0,0-.48-0.49H676.75Z"/><rect class="cls-5" x="867.67" y="518.75" width="21.88" height="4.38" rx="1.63" ry="1.63"/><path class="cls-3" d="M887.92,524.28H869.3a2.78,2.78,0,0,1-2.78-2.78v-1.11a2.78,2.78,0,0,1,2.78-2.78h18.62a2.78,2.78,0,0,1,2.78,2.78v1.11A2.78,2.78,0,0,1,887.92,524.28ZM869.3,519.9a0.49,0.49,0,0,0-.48.49v1.11a0.49,0.49,0,0,0,.48.48h18.62a0.49,0.49,0,0,0,.48-0.48v-1.11a0.49,0.49,0,0,0-.48-0.49H869.3Z"/><circle class="cls-5" cx="989.47" cy="448.73" r="4.38"/><path class="cls-3" d="M989.47,454.26a5.52,5.52,0,1,1,5.53-5.52A5.53,5.53,0,0,1,989.47,454.26Zm0-8.75a3.23,3.23,0,1,0,3.23,3.23A3.23,3.23,0,0,0,989.47,445.5Z"/><rect class="cls-2" x="949.36" y="138.01" width="39.39" height="13.13"/><path class="cls-3" d="M988.75,151.71H949.36a0.57,0.57,0,0,1-.57-0.57V138a0.57,0.57,0,0,1,.57-0.57h39.39a0.57,0.57,0,0,1,.57.57v13.13A0.57,0.57,0,0,1,988.75,151.71Zm-38.81-1.15h38.24v-12H949.93v12Z"/><rect class="cls-2" x="602.91" y="151.14" width="39.39" height="13.13"/><path class="cls-3" d="M642.29,164.84H602.91a0.57,0.57,0,0,1-.57-0.57V151.14a0.57,0.57,0,0,1,.57-0.57h39.39a0.57,0.57,0,0,1,.57.57v13.13A0.57,0.57,0,0,1,642.29,164.84Zm-38.81-1.15h38.24v-12H603.48v12Z"/><rect class="cls-2" x="1098.15" y="290.17" width="39.39" height="13.13"/><path class="cls-3" d="M1137.54,303.88h-39.39a0.57,0.57,0,0,1-.57-0.57V290.17a0.57,0.57,0,0,1,.57-0.57h39.39a0.57,0.57,0,0,1,.57.57V303.3A0.57,0.57,0,0,1,1137.54,303.88Zm-38.81-1.15H1137v-12h-38.24v12Z"/><rect class="cls-2" x="1134.62" y="290.17" width="39.39" height="13.13"/><path class="cls-3" d="M1174,303.88h-39.39a0.57,0.57,0,0,1-.57-0.57V290.17a0.57,0.57,0,0,1,.57-0.57H1174a0.57,0.57,0,0,1,.57.57V303.3A0.57,0.57,0,0,1,1174,303.88Zm-38.81-1.15h38.24v-12h-38.24v12Z"/><rect class="cls-2" x="1193.7" y="302.85" width="39.39" height="13.13"/><path class="cls-3" d="M1233.08,316.56H1193.7a0.57,0.57,0,0,1-.57-0.57V302.85a0.57,0.57,0,0,1,.57-0.57h39.39a0.57,0.57,0,0,1,.57.57V316A0.57,0.57,0,0,1,1233.08,316.56Zm-38.81-1.15h38.24v-12h-38.24v12Z"/><rect class="cls-2" x="1247.67" y="124.88" width="39.39" height="13.13"/><path class="cls-3" d="M1287.05,138.58h-39.39a0.57,0.57,0,0,1-.57-0.57V124.88a0.57,0.57,0,0,1,.57-0.57h39.39a0.57,0.57,0,0,1,.57.57V138A0.57,0.57,0,0,1,1287.05,138.58Zm-38.81-1.15h38.24v-12h-38.24v12Z"/><rect class="cls-2" x="1047.82" y="111.75" width="39.39" height="13.13"/><path class="cls-3" d="M1087.21,125.45h-39.39a0.57,0.57,0,0,1-.57-0.57V111.75a0.57,0.57,0,0,1,.57-0.57h39.39a0.57,0.57,0,0,1,.57.57v13.13A0.57,0.57,0,0,1,1087.21,125.45Zm-38.81-1.15h38.24v-12H1048.4v12Z"/><rect class="cls-2" x="622.6" y="138.01" width="39.39" height="13.13"/><path class="cls-3" d="M662,151.71H622.6a0.57,0.57,0,0,1-.57-0.57V138a0.57,0.57,0,0,1,.57-0.57H662a0.57,0.57,0,0,1,.57.57v13.13A0.57,0.57,0,0,1,662,151.71Zm-38.81-1.15h38.24v-12H623.18v12Z"/><rect class="cls-2" x="988.75" y="138.01" width="39.39" height="13.13"/><path class="cls-3" d="M1028.13,151.71H988.75a0.57,0.57,0,0,1-.57-0.57V138a0.57,0.57,0,0,1,.57-0.57h39.39a0.57,0.57,0,0,1,.57.57v13.13A0.57,0.57,0,0,1,1028.13,151.71Zm-38.81-1.15h38.24v-12H989.32v12Z"/><rect class="cls-2" x="1028.13" y="138.01" width="39.39" height="13.13"/><path class="cls-3" d="M1067.52,151.71h-39.39a0.57,0.57,0,0,1-.57-0.57V138a0.57,0.57,0,0,1,.57-0.57h39.39a0.57,0.57,0,0,1,.57.57v13.13A0.57,0.57,0,0,1,1067.52,151.71Zm-38.81-1.15h38.24v-12h-38.24v12Z"/><rect class="cls-2" x="969.78" y="151.14" width="39.39" height="13.13"/><path class="cls-3" d="M1009.17,164.84H969.78a0.57,0.57,0,0,1-.57-0.57V151.14a0.57,0.57,0,0,1,.57-0.57h39.39a0.57,0.57,0,0,1,.57.57v13.13A0.57,0.57,0,0,1,1009.17,164.84Zm-38.81-1.15h38.24v-12H970.36v12Z"/><rect class="cls-2" x="1009.17" y="151.14" width="39.39" height="13.13"/><path class="cls-3" d="M1048.55,164.84h-39.39a0.57,0.57,0,0,1-.57-0.57V151.14a0.57,0.57,0,0,1,.57-0.57h39.39a0.57,0.57,0,0,1,.57.57v13.13A0.57,0.57,0,0,1,1048.55,164.84Zm-38.81-1.15H1048v-12h-38.24v12Z"/><path class="cls-2" d="M1384.23,491.85c8.58,7.54,17.63,33.27,7.62,35.65,3.66,9.53-9.05,29.06-19.53,31.92-1.91,13.18-38.25,13.18-58.12,13.18-20.85,0-51.42-2.59-65.75-15.56-17.47-1-25.25-26.6-13.34-37.64-4.3-9.87,8.58-16.1,8.58-27.55-16.68-.89-9.45-13.9-2.18-18.69-12.59,3.36-8-10.45-.19-14.27-10.5-2.38,2.36-6.43,2.36-6.43s-9.45-2.62,4.79-5.93c-4.78-7.65,21.55-10.31,31.42-16.22-9.53-5.72,5.24-14.29,18.1-13.83-3.81-11.89,14.77-13.16,16.2-5.38,5.24-4.9,16.71-2.26,14.07,2.76,8.32-2.13,13.06-4,10.93,5,14.54-2.85,21.69,5.72,18.83,11.44,10.48-5.72,14.86,2.35,10.53,8.08,3.3,5.28,9.48,3.83,9.48,12.88,5.72,1,4.48,8.83,5.37,13.34,6.07,2.86,1,7.76,1,11.91C1389.95,481.29,1384.23,486.32,1384.23,491.85Z"/><path class="cls-3" d="M1314.2,574.11c-18.2,0-50.87-2-66.36-15.6-8.1-.67-15.07-6.51-18.27-15.37s-1.75-18.34,3.79-24.11c-1.95-5.67,1-10.3,3.92-14.79,2.18-3.38,4.42-6.87,4.84-11-6.91-.73-9.18-3.7-9.85-6.15-1.1-4.06,1.46-8.64,4.63-12a4.94,4.94,0,0,1-4.35-3.2c-1.35-3.6,1.22-9.18,5.34-12.57a3.27,3.27,0,0,1-2.18-2.71c-0.08-1.87,2.06-3.35,4.34-4.4a2.69,2.69,0,0,1-.93-2c0-2,2.2-3.38,7.35-4.73a4.15,4.15,0,0,1,.21-2.21c1.51-4,9-6.24,17.77-8.84a100.35,100.35,0,0,0,12.69-4.36,5.16,5.16,0,0,1-1.55-5.33c1.62-5.47,11.9-9.48,20.54-9.77a8.19,8.19,0,0,1,2.17-7.24c2.7-2.73,7.68-3.78,11.84-2.5a8.16,8.16,0,0,1,4.76,3.48c4.24-2.51,10.34-2.14,13.36.17a4.57,4.57,0,0,1,1.87,2.93c4.59-1.2,7.92-2,9.85-.11,1.1,1.07,1.46,2.76,1.11,5.33,8.76-1.12,14.58,1.91,17.18,5.33a8.77,8.77,0,0,1,1.9,5.31c6-2.21,9.08.51,9.94,1.51,2.08,2.41,2.15,6.06.28,9.17a13,13,0,0,0,3.4,2.75c2.53,1.61,5.38,3.41,5.73,9,4.35,1.55,4.72,6.79,5,10.7,0.07,1,.14,2,0.26,2.81,4.51,2.57,3,6.6,2.07,9.32a15.18,15.18,0,0,0-.87,3c3.7,3.66,2.23,7.65,1,10.89a17.75,17.75,0,0,0-1.23,4.43c6.79,6.52,13.75,23.46,11.58,32.2a7.16,7.16,0,0,1-3.64,5c0.89,4-.17,9.16-3.06,14.86-4.19,8.26-11.06,15.22-17,17.31C1370.11,574.11,1335.23,574.11,1314.2,574.11ZM1241.5,471.66a1.5,1.5,0,0,1,.83,2.75c-4.17,2.75-8.14,8.31-7.17,11.89,0.82,3,5.13,3.87,8.6,4.05a1.5,1.5,0,0,1,1.42,1.5c0,5.64-2.86,10.09-5.39,14-3,4.63-5.34,8.29-3.31,12.94a1.5,1.5,0,0,1-.36,1.7c-5.25,4.87-6.72,13.35-3.74,21.61,2.23,6.19,7.65,13,16.14,13.43a1.5,1.5,0,0,1,.92.39c14.58,13.2,46.82,15.18,64.74,15.18s54.92,0,56.64-11.9a1.5,1.5,0,0,1,1.09-1.23c5.31-1.45,12-8.2,16-16.06,2.83-5.58,3.74-10.64,2.5-13.88a1.5,1.5,0,0,1,1.05-2c1.49-.36,2.45-1.45,2.92-3.35,1.92-7.72-5-24.3-11.18-29.72a1.5,1.5,0,0,1-.51-1.13,17.56,17.56,0,0,1,1.45-6.1c1.37-3.72,2-5.77-.73-8.09a1.5,1.5,0,0,1-.52-1.13,13.5,13.5,0,0,1,1.09-4.61c1.18-3.26,1.55-4.64-1.24-6a1.5,1.5,0,0,1-.83-1.07,32.47,32.47,0,0,1-.42-3.88c-0.33-4.66-.77-7.76-3.73-8.28a1.5,1.5,0,0,1-1.24-1.48c0-4.85-1.83-6-4.37-7.62a14,14,0,0,1-4.89-4.46,1.5,1.5,0,0,1,.08-1.7c1.63-2.15,1.82-4.76.46-6.33-1.65-1.91-5-1.73-9.07.47a1.5,1.5,0,0,1-2.06-2,5.08,5.08,0,0,0-.82-5.44c-2.26-3-7.75-5.54-16.38-3.85a1.5,1.5,0,0,1-1.75-1.82c0.85-3.62.32-4.49,0.13-4.67-0.78-.76-4.32.17-7.45,1l-1.78.46a1.5,1.5,0,0,1-1.7-2.15,1.3,1.3,0,0,0-.52-1.88c-2.22-1.69-8-2.06-11.21.91a1.5,1.5,0,0,1-2.5-.82c-0.37-2-2.34-2.91-3.48-3.26-3.1-1-6.9-.21-8.83,1.74-1.49,1.5-1.82,3.58-1,6.17a1.5,1.5,0,0,1-.23,1.36,1.46,1.46,0,0,1-1.25.59c-9-.32-18.42,4-19.5,7.62-0.13.44-.53,1.78,2.22,3.43a1.5,1.5,0,0,1,0,2.57c-3.76,2.25-9.66,4-15.37,5.71-6.61,2-14.84,4.42-15.82,7a1.47,1.47,0,0,0,.27,1.4,1.5,1.5,0,0,1-.93,2.26c-4.36,1-5.94,1.86-6.49,2.26a7,7,0,0,0,1.76.77,1.5,1.5,0,0,1,0,2.88,16.46,16.46,0,0,0-5.29,2.57,9.09,9.09,0,0,0,2.8,1,1.5,1.5,0,0,1,.33,2.81c-4.45,2.17-7.61,8-6.63,10.63,0.71,1.88,3.92,1.34,5.77.84A1.52,1.52,0,0,1,1241.5,471.66Z"/><path class="cls-2" d="M1267.73,476.53c-3.46,0-8.37,1-7.46,3.46,1.86,5.11,10.39,4.26,13.05,3.73,1.33-.27-9.32,4.24-5.33,8.52,5.54,5.94,18.38,0,18.38,0s-0.27,5.59.8,6.39c4.26,3.2,17.58-4.26,14.12-11.72"/><path class="cls-3" d="M1289.87,500.89a5.89,5.89,0,0,1-3.59-1.06c-0.36-.27-1.37-1-1.44-5.36-4.15,1.5-13.15,3.91-17.93-1.21a4.33,4.33,0,0,1-1.26-3.65,6.88,6.88,0,0,1,2.49-4c-3.88-.16-7.9-1.41-9.26-5.12a3,3,0,0,1,.34-2.81c1.78-2.54,7.41-2.67,8.52-2.67a1.5,1.5,0,0,1,0,3c-3.52,0-5.86.93-6.08,1.41,1.44,3.89,8.7,3.35,11.38,2.81a1.54,1.54,0,0,1,1.81.93c0.47,1.22-.57,1.84-1.32,2.29-1.15.69-4.66,2.8-4.91,4.56a1.36,1.36,0,0,0,.49,1.19c3.94,4.22,13.36,1.19,16.65-.34a1.5,1.5,0,0,1,2.13,1.43,18.36,18.36,0,0,0,.33,5.21c1.55,1,5.57.09,8.86-2.58,1.38-1.12,4.41-4.07,2.87-7.4a1.5,1.5,0,1,1,2.72-1.26c1.69,3.64.31,7.75-3.7,11A15.63,15.63,0,0,1,1289.87,500.89Z"/><path class="cls-2" d="M1277.51,440.79c-18.1,0-13.34,17.15,0,9.53"/><path class="cls-3" d="M1271.13,453.78a7.39,7.39,0,0,1-4.88-1.66,5.87,5.87,0,0,1-1.72-6.58c1.43-3.92,6.28-6.25,13-6.25a1.5,1.5,0,0,1,0,3c-6.34,0-9.4,2.21-10.16,4.28a2.83,2.83,0,0,0,.83,3.25c1.4,1.18,4.39,1.58,8.58-.81a1.5,1.5,0,1,1,1.49,2.6A14.67,14.67,0,0,1,1271.13,453.78Z"/><path class="cls-2" d="M1381.85,519.41c7.15,8.1,30-3.34,4.76-12.39"/><path class="cls-3" d="M1388.79,523.66a10.52,10.52,0,0,1-8.07-3.27,1.5,1.5,0,1,1,2.25-2c2.31,2.61,6.78,2.73,10,1.48,1.8-.69,3.72-2,3.71-3.75,0-.92-0.81-4.21-10.58-7.72a1.5,1.5,0,1,1,1-2.82c10.33,3.7,12.54,7.76,12.57,10.51s-2.07,5.22-5.63,6.58A14.93,14.93,0,0,1,1388.79,523.66Z"/><path class="cls-2" d="M1265.65,521.79c-6.25.48-4.29,14.77,5.93,9.53,2.12,4.76,16.41,14.22,16.41,1.15"/><path class="cls-3" d="M1283.35,540.6c-4.55,0-10.08-4.13-12.37-7.37-4.06,1.6-6.6.24-7.81-.79a8.06,8.06,0,0,1-2.21-8.35,5.21,5.21,0,0,1,4.58-3.8,1.52,1.52,0,0,1,1.61,1.38,1.5,1.5,0,0,1-1.38,1.61,2.25,2.25,0,0,0-2,1.74,5.11,5.11,0,0,0,1.3,5.14c1.69,1.44,4.08.7,5.78-.18a1.5,1.5,0,0,1,2.06.73c1.27,2.85,7.75,7.55,11.16,6.82,1.58-.34,2.38-2,2.38-5.06a1.5,1.5,0,0,1,3,0c0,5.77-2.59,7.53-4.76,8A6.68,6.68,0,0,1,1283.35,540.6Z"/><path class="cls-2" d="M349.9,491.85c-8.58,7.54-17.63,33.27-7.62,35.65-3.66,9.53,9.05,29.06,19.53,31.92,1.91,13.18,38.25,13.18,58.12,13.18,20.85,0,51.42-2.59,65.75-15.56,17.47-1,25.25-26.6,13.34-37.64,4.3-9.87-8.58-16.1-8.58-27.55,16.68-.89,9.45-13.9,2.18-18.69,12.59,3.36,8-10.45.19-14.27,10.5-2.38-2.36-6.43-2.36-6.43s9.45-2.62-4.79-5.93c4.78-7.65-21.55-10.31-31.42-16.22,9.53-5.72-5.24-14.29-18.1-13.83,3.81-11.89-14.77-13.16-16.2-5.38-5.24-4.9-16.71-2.26-14.07,2.76-8.32-2.13-13.06-4-10.93,5-14.54-2.85-21.69,5.72-18.83,11.44-10.48-5.72-14.86,2.35-10.53,8.08-3.3,5.28-9.48,3.83-9.48,12.88-5.72,1-4.48,8.83-5.37,13.34-6.07,2.86-1,7.76-1,11.91C344.18,481.29,349.9,486.32,349.9,491.85Z"/><path class="cls-3" d="M419.93,574.11c-21,0-55.91,0-59.42-13.52-6-2.1-12.83-9.05-17-17.31-2.89-5.7-3.95-10.9-3.06-14.86a7.15,7.15,0,0,1-3.64-5c-2.17-8.74,4.79-25.68,11.58-32.2a17.74,17.74,0,0,0-1.23-4.43c-1.2-3.24-2.67-7.23,1-10.89a15.18,15.18,0,0,0-.87-3c-1-2.71-2.45-6.75,2.07-9.32,0.12-.85.19-1.81,0.26-2.81,0.28-3.91.65-9.15,5-10.7,0.34-5.58,3.19-7.39,5.72-9a13,13,0,0,0,3.4-2.75c-1.87-3.12-1.79-6.76.28-9.17,0.86-1,3.9-3.72,9.94-1.51a8.77,8.77,0,0,1,1.9-5.31c2.6-3.42,8.41-6.45,17.18-5.33-0.35-2.58,0-4.26,1.11-5.33,1.93-1.88,5.26-1.09,9.85.11a4.56,4.56,0,0,1,1.87-2.93c3-2.31,9.13-2.67,13.36-.17a8.17,8.17,0,0,1,4.76-3.48c4.16-1.28,9.14-.23,11.84,2.5A8.2,8.2,0,0,1,438,415c8.64,0.28,18.92,4.3,20.54,9.77a5.16,5.16,0,0,1-1.55,5.33,100.34,100.34,0,0,0,12.69,4.36c8.73,2.6,16.26,4.85,17.77,8.84a4.15,4.15,0,0,1,.21,2.21c5.15,1.35,7.31,2.76,7.35,4.73a2.69,2.69,0,0,1-.93,2c2.28,1,4.42,2.53,4.34,4.4a3.27,3.27,0,0,1-2.18,2.71c4.12,3.39,6.68,9,5.34,12.57a5,5,0,0,1-4.35,3.2c3.17,3.33,5.73,7.91,4.63,12-0.66,2.45-2.93,5.42-9.85,6.15,0.42,4.14,2.66,7.63,4.84,11,2.89,4.49,5.87,9.11,3.92,14.79,5.54,5.77,7,15.1,3.79,24.11s-10.17,14.7-18.27,15.37C479.43,564.5,461.87,574.11,419.93,574.11ZM369.59,429.84a4.14,4.14,0,0,0-3.28,1.32c-1.36,1.57-1.17,4.17.46,6.33a1.5,1.5,0,0,1,.08,1.7,14,14,0,0,1-4.89,4.46c-2.54,1.61-4.37,2.77-4.37,7.62a1.5,1.5,0,0,1-1.24,1.48c-3,.52-3.4,3.61-3.73,8.27a32.48,32.48,0,0,1-.42,3.88,1.5,1.5,0,0,1-.83,1.07c-2.79,1.32-2.42,2.69-1.24,6a13.5,13.5,0,0,1,1.09,4.61,1.5,1.5,0,0,1-.52,1.13c-2.7,2.33-2.11,4.37-.73,8.09a17.54,17.54,0,0,1,1.45,6.1,1.5,1.5,0,0,1-.51,1.13c-6.16,5.42-13.11,22-11.18,29.72,0.47,1.9,1.43,3,2.92,3.35a1.5,1.5,0,0,1,1.05,2c-1.24,3.24-.33,8.3,2.5,13.88,4,7.86,10.72,14.61,16,16.06a1.5,1.5,0,0,1,1.09,1.23c1.72,11.9,38.81,11.9,56.64,11.9s50.16-2,64.74-15.18a1.5,1.5,0,0,1,.92-0.39c8.5-.46,13.91-7.24,16.14-13.43,3-8.26,1.51-16.74-3.74-21.61a1.5,1.5,0,0,1-.36-1.7c2-4.65-.33-8.31-3.31-12.94-2.53-3.92-5.39-8.37-5.39-14a1.5,1.5,0,0,1,1.42-1.5c3.47-.19,7.78-1,8.6-4.05,1-3.58-3-9.14-7.17-11.89a1.5,1.5,0,0,1,1.21-2.7c1.85,0.5,5.06,1,5.77-.84,1-2.61-2.18-8.46-6.63-10.63a1.5,1.5,0,0,1,.33-2.81,9.08,9.08,0,0,0,2.8-1A16.38,16.38,0,0,0,490,453.9a1.5,1.5,0,0,1,0-2.88,7,7,0,0,0,1.76-.77c-0.54-.4-2.12-1.25-6.49-2.26a1.5,1.5,0,0,1-.93-2.26,1.47,1.47,0,0,0,.27-1.4c-1-2.6-9.21-5.05-15.82-7-5.71-1.7-11.62-3.46-15.37-5.71a1.5,1.5,0,0,1,0-2.57c2.75-1.65,2.35-3,2.22-3.43-1.07-3.63-10.45-7.93-19.5-7.62a1.48,1.48,0,0,1-1.25-.59,1.5,1.5,0,0,1-.23-1.36c0.83-2.59.5-4.67-1-6.17-1.93-1.95-5.72-2.7-8.83-1.74-1.14.35-3.11,1.24-3.48,3.26a1.5,1.5,0,0,1-2.5.82c-3.18-3-9-2.6-11.21-.91a1.3,1.3,0,0,0-.52,1.88,1.5,1.5,0,0,1-1.7,2.15l-1.78-.46c-3.12-.82-6.67-1.75-7.45-1-0.18.18-.72,1,0.13,4.67a1.5,1.5,0,0,1-1.75,1.82c-8.62-1.69-14.11.88-16.37,3.85a5.08,5.08,0,0,0-.82,5.44,1.5,1.5,0,0,1-2.06,2A12.63,12.63,0,0,0,369.59,429.84Zm-19.69,62h0Z"/><path class="cls-2" d="M466.4,476.53c3.46,0,8.37,1,7.46,3.46-1.86,5.11-10.39,4.26-13.05,3.73-1.33-.27,9.32,4.24,5.33,8.52-5.54,5.94-18.38,0-18.38,0s0.27,5.59-.8,6.39c-4.26,3.2-17.58-4.26-14.12-11.72"/><path class="cls-3" d="M444.27,500.89a15.63,15.63,0,0,1-9.09-3.62c-4-3.25-5.39-7.35-3.7-11a1.5,1.5,0,0,1,2.72,1.26c-1.54,3.33,1.49,6.28,2.87,7.4,3.29,2.67,7.31,3.53,8.86,2.58a18.36,18.36,0,0,0,.33-5.21,1.5,1.5,0,0,1,2.13-1.43c3.3,1.52,12.73,4.55,16.65.34a1.36,1.36,0,0,0,.49-1.18c-0.25-1.77-3.76-3.87-4.91-4.56-0.76-.45-1.79-1.08-1.32-2.29a1.53,1.53,0,0,1,1.81-.93c2.68,0.54,9.94,1.08,11.35-2.77-0.19-.52-2.53-1.45-6-1.45a1.5,1.5,0,0,1,0-3c1.11,0,6.75.13,8.52,2.67a3,3,0,0,1,.34,2.81c-1.35,3.71-5.38,5-9.26,5.12a6.88,6.88,0,0,1,2.48,4,4.33,4.33,0,0,1-1.26,3.65c-4.78,5.12-13.79,2.71-17.94,1.21-0.07,4.33-1.08,5.09-1.44,5.36A5.88,5.88,0,0,1,444.27,500.89Z"/><path class="cls-2" d="M456.62,440.79c18.1,0,13.34,17.15,0,9.53"/><path class="cls-3" d="M463,453.78a14.67,14.67,0,0,1-7.13-2.16,1.5,1.5,0,1,1,1.49-2.6c4.19,2.4,7.18,2,8.58.81a2.84,2.84,0,0,0,.83-3.25c-0.76-2.07-3.82-4.28-10.16-4.28a1.5,1.5,0,0,1,0-3c6.7,0,11.55,2.34,13,6.25a5.88,5.88,0,0,1-1.72,6.58A7.4,7.4,0,0,1,463,453.78Z"/><path class="cls-2" d="M352.28,519.41c-7.15,8.1-30-3.34-4.76-12.39"/><path class="cls-3" d="M345.34,523.66a14.93,14.93,0,0,1-5.27-1c-3.55-1.37-5.66-3.83-5.63-6.58s2.24-6.8,12.57-10.51a1.5,1.5,0,1,1,1,2.82c-9.78,3.51-10.57,6.79-10.58,7.72,0,1.71,1.9,3.05,3.7,3.75,3.23,1.24,7.71,1.13,10-1.48a1.5,1.5,0,0,1,2.25,2A10.53,10.53,0,0,1,345.34,523.66Z"/><path class="cls-2" d="M468.48,521.79c6.25,0.48,4.29,14.77-5.93,9.53-2.12,4.76-16.41,14.22-16.41,1.15"/><path class="cls-3" d="M450.78,540.6a6.69,6.69,0,0,1-1.38-.14c-2.17-.46-4.76-2.22-4.76-8a1.5,1.5,0,0,1,3,0c0,3,.8,4.72,2.38,5.06,3.41,0.72,9.89-4,11.16-6.82a1.5,1.5,0,0,1,2.06-.73c1.71,0.87,4.1,1.62,5.78.18a5.11,5.11,0,0,0,1.3-5.14,2.25,2.25,0,0,0-2-1.74,1.5,1.5,0,1,1,.23-3,5.21,5.21,0,0,1,4.58,3.8,8.06,8.06,0,0,1-2.21,8.35c-1.21,1-3.75,2.39-7.81.79C460.87,536.47,455.34,540.6,450.78,540.6Z"/><path class="cls-2" d="M44.06,498.48c-7.17,6.31-14.74,27.81-6.37,29.8-3.06,8,7.57,24.3,16.33,26.68,1.59,11,32,11,48.59,11,17.43,0,43-2.16,55-13,14.6-.8,21.11-22.24,11.15-31.46,3.59-8.25-7.17-13.46-7.17-23,13.94-.74,7.9-11.62,1.82-15.62,10.52,2.81,6.68-8.74.16-11.93,8.78-2-2-5.38-2-5.38s7.9-2.19-4-5c4-6.39-18-8.61-26.27-13.56,8-4.78-4.38-11.95-15.13-11.56,3.19-9.94-12.35-11-13.54-4.5-4.38-4.1-14-1.89-11.76,2.31-7-1.78-10.92-3.38-9.14,4.19C69.55,435.08,63.58,442.25,66,447c-8.76-4.78-12.42,2-8.8,6.76-2.76,4.42-7.93,3.2-7.93,10.77-4.78.84-3.75,7.38-4.49,11.15-5.07,2.39-.82,6.49-0.85,10C39.28,489.65,44.06,493.85,44.06,498.48Z"/><path class="cls-3" d="M102.61,567.49c-22.7,0-47-.9-49.88-11.35-5.76-2.08-11.36-8.86-14.24-14.55-2.4-4.73-3.3-9.06-2.62-12.4a6.26,6.26,0,0,1-3-4.25c-1.83-7.34,4-21.51,9.66-27.07a15.32,15.32,0,0,0-1-3.52c-1-2.75-2.27-6.13.83-9.27a13.47,13.47,0,0,0-.69-2.31c-0.84-2.33-2.1-5.78,1.73-8,0.09-.67.14-1.43,0.2-2.22,0.23-3.3.55-7.7,4.19-9.11,0.34-4.66,2.75-6.19,4.89-7.55a11.08,11.08,0,0,0,2.68-2.11,6.73,6.73,0,0,1,.35-7.8c0.73-.85,3.27-3.14,8.26-1.44a7.67,7.67,0,0,1,1.63-4.25c2.18-2.87,7-5.43,14.27-4.59-0.19-1.65,0-3.29,1-4.35,1.68-1.64,4.43-1,8.22,0a4.15,4.15,0,0,1,1.6-2.35c2.54-1.94,7.62-2.28,11.23-.27a7.16,7.16,0,0,1,4-2.82c3.56-1.1,7.83-.19,10.15,2.15a7,7,0,0,1,1.92,6c7.25,0.32,15.76,3.72,17.12,8.33a4.48,4.48,0,0,1-1.12,4.45,88.37,88.37,0,0,0,10.26,3.49c7.36,2.19,13.71,4.09,15,7.54a3.71,3.71,0,0,1,.22,1.75c4.28,1.15,6.08,2.39,6.12,4.13a2.39,2.39,0,0,1-.6,1.62c1.95,0.94,3.51,2.19,3.45,3.77a2.78,2.78,0,0,1-1.63,2.3c3.35,2.92,5.38,7.53,4.26,10.54a4.34,4.34,0,0,1-3.4,2.74c2.55,2.81,4.54,6.56,3.63,9.91-0.57,2.09-2.47,4.63-8.2,5.29,0.41,3.3,2.22,6.12,4,8.85,2.42,3.76,4.92,7.65,3.35,12.43,4.61,4.9,5.85,12.74,3.12,20.3s-8.57,12.4-15.4,13C145.15,565.78,117.83,567.49,102.61,567.49ZM60.52,446.9a3.24,3.24,0,0,0-2.56,1c-1.06,1.23-.89,3.27.4,5a1.5,1.5,0,0,1,.08,1.7,11.91,11.91,0,0,1-4.17,3.81c-2.13,1.35-3.54,2.24-3.54,6.17A1.5,1.5,0,0,1,49.5,466c-2.3.4-2.65,2.91-2.92,6.69a27.32,27.32,0,0,1-.36,3.27,1.5,1.5,0,0,1-.83,1.07c-2.12,1-1.89,2-.91,4.67a11.44,11.44,0,0,1,.92,3.94,1.5,1.5,0,0,1-.52,1.13c-2.13,1.84-1.65,3.49-.54,6.49a15.09,15.09,0,0,1,1.22,5.18,1.5,1.5,0,0,1-.51,1.13c-5.1,4.49-10.86,18.21-9.27,24.6,0.49,2,1.53,2.45,2.26,2.62a1.5,1.5,0,0,1,1.05,2c-1,2.64-.26,6.8,2.08,11.4,3.3,6.51,8.87,12.1,13.25,13.3a1.5,1.5,0,0,1,1.09,1.23c1.41,9.73,32.27,9.73,47.1,9.73s41.83-1.64,54-12.62a1.5,1.5,0,0,1,.92-0.39c7-.38,11.44-6,13.28-11.07,2-5.58,1.85-13.25-3.06-17.8a1.5,1.5,0,0,1-.36-1.7c1.64-3.77-.3-6.78-2.75-10.59-2.13-3.31-4.54-7.06-4.54-11.85a1.5,1.5,0,0,1,1.42-1.5c2.82-.15,6.32-0.83,7-3.21,0.78-2.89-2.47-7.42-5.89-9.67a1.5,1.5,0,0,1,1.21-2.7c1.18,0.32,4,.89,4.53-0.55,0.78-2.1-1.8-6.81-5.42-8.58a1.5,1.5,0,0,1,.33-2.81,9.77,9.77,0,0,0,2-.62A16,16,0,0,0,161.1,467a1.5,1.5,0,0,1,0-2.88,6.22,6.22,0,0,0,1.06-.41,20.12,20.12,0,0,0-5-1.64,1.5,1.5,0,0,1-.93-2.26,1,1,0,0,0,.2-1c-0.78-2.06-7.59-4.09-13.06-5.72-4.79-1.43-9.74-2.9-12.91-4.8a1.5,1.5,0,0,1,0-2.57c2.13-1.28,1.84-2.26,1.75-2.58-0.88-3-8.62-6.47-16.05-6.19a1.48,1.48,0,0,1-1.25-.59,1.5,1.5,0,0,1-.23-1.36c0.67-2.07.41-3.73-.77-4.91-1.55-1.57-4.61-2.17-7.13-1.39-0.9.28-2.46,1-2.74,2.53a1.5,1.5,0,0,1-2.5.82c-2.49-2.33-7.25-2.12-9-.75a0.84,0.84,0,0,0-.36,1.26,1.5,1.5,0,0,1-1.7,2.15L89,434.34c-2.3-.6-5.44-1.42-6-0.89,0,0-.55.58,0.18,3.67a1.5,1.5,0,0,1-1.75,1.82c-7.1-1.4-11.6.7-13.45,3.13a4,4,0,0,0-.66,4.29,1.5,1.5,0,0,1-2.06,2A10.31,10.31,0,0,0,60.52,446.9ZM44.06,498.48h0Z"/><path class="cls-2" d="M141.45,485.67c2.89,0,7,.8,6.23,2.89-1.56,4.27-8.68,3.56-10.91,3.12-1.11-.22,7.79,3.55,4.45,7.13-4.63,5-15.36,0-15.36,0s0.22,4.68-.67,5.34c-3.56,2.67-14.7-3.56-11.8-9.8"/><path class="cls-3" d="M123,506.27a13.31,13.31,0,0,1-7.76-3.07c-3.44-2.79-4.62-6.33-3.16-9.48a1.5,1.5,0,1,1,2.72,1.26c-1.22,2.63,1.22,5,2.33,5.89,2.58,2.09,5.8,2.85,7.05,2.18a16.52,16.52,0,0,0,.23-4.18,1.5,1.5,0,0,1,2.13-1.43c2.71,1.25,10.46,3.75,13.64.34a0.89,0.89,0,0,0,.34-0.79c-0.13-.9-1.47-2.13-4-3.64-0.63-.38-1.68-1-1.21-2.22a1.62,1.62,0,0,1,1.79-.93c2,0.4,8,.87,9.17-2.07a9.21,9.21,0,0,0-4.79-1,1.5,1.5,0,0,1,0-3c1.33,0,5.81.17,7.33,2.34a2.74,2.74,0,0,1,.32,2.57c-1.11,3-4.25,4.17-7.39,4.4a5.56,5.56,0,0,1,1.74,3.1,3.85,3.85,0,0,1-1.12,3.25c-4,4.26-11.3,2.46-14.94,1.19-0.11,3.45-1,4.09-1.29,4.33A5.15,5.15,0,0,1,123,506.27Zm23.36-18.05h0Z"/><path class="cls-2" d="M133.27,455.8c15.13,0,11.15,14.34,0,8"/><path class="cls-3" d="M138.61,466.9a12.5,12.5,0,0,1-6.08-1.83,1.5,1.5,0,1,1,1.49-2.6c3.4,1.94,5.79,1.64,6.89.7a2.13,2.13,0,0,0,.63-2.45c-0.6-1.65-3.09-3.42-8.26-3.42a1.5,1.5,0,0,1,0-3c5.7,0,9.85,2,11.08,5.39a5.15,5.15,0,0,1-1.51,5.77A6.42,6.42,0,0,1,138.61,466.9Z"/><path class="cls-2" d="M46.05,521.51c-6,6.77-25.09-2.79-4-10.36"/><path class="cls-3" d="M40.25,525.32a12.71,12.71,0,0,1-4.49-.82c-3.07-1.18-4.89-3.33-4.86-5.74,0-3.46,3.63-6.49,10.67-9a1.5,1.5,0,1,1,1,2.82c-8,2.88-8.67,5.49-8.68,6.22,0,1.07,1.14,2.21,2.94,2.9,2.62,1,6.24.93,8.1-1.17a1.5,1.5,0,0,1,2.25,2A9,9,0,0,1,40.25,525.32Z"/><path class="cls-2" d="M143.19,523.5c5.22,0.4,3.58,12.35-5,8-1.77,4-13.72,11.89-13.72,1"/><path class="cls-3" d="M128.37,539.48a5.73,5.73,0,0,1-1.19-.12c-1.56-.33-4.17-1.67-4.17-6.92a1.5,1.5,0,0,1,3,0c0,2.39.6,3.73,1.8,4,2.77,0.59,8-3.24,9.05-5.56a1.5,1.5,0,0,1,2.06-.73c1.36,0.7,3.26,1.29,4.56.18a4,4,0,0,0,1-4,1.61,1.61,0,0,0-1.42-1.28,1.5,1.5,0,1,1,.23-3,4.59,4.59,0,0,1,4,3.34,7,7,0,0,1-1.92,7.25c-1,.88-3.2,2.05-6.6.77C136.79,536.1,132.19,539.48,128.37,539.48Z"/><polygon class="cls-6" points="1177.65 402.78 1130.97 402.78 1130.97 359.02 1150.99 389.51 1177.65 402.78"/><polygon class="cls-6" points="1233.09 402.78 1186.4 402.78 1186.4 359.02 1206.27 389.37 1233.09 402.78"/><polygon class="cls-6" points="1177.65 455.3 1130.97 455.3 1130.97 411.53 1152.78 443.71 1177.65 455.3"/><polygon class="cls-6" points="1233.09 455.3 1186.4 455.3 1186.4 411.53 1208.6 444.07 1233.09 455.3"/><polygon class="cls-6" points="1179.11 210.22 1144.1 210.22 1144.1 183.96 1172.1 196.14 1179.11 210.22"/><polygon class="cls-6" points="1179.11 245.23 1144.1 245.23 1144.1 218.97 1171.15 231.15 1179.11 245.23"/><polygon class="cls-6" points="999.32 423.93 1014.64 423.93 1008.92 396.54 999.32 388.92 999.32 423.93"/></g></svg>