<svg id="Heads" xmlns="http://www.w3.org/2000/svg" viewBox="0 0 1792 768"><defs><style>.cls-1{fill:#24265b;}.cls-2,.cls-5{fill:#eeb9a9;}.cls-2,.cls-3,.cls-4{stroke:#24265b;stroke-linecap:round;stroke-linejoin:round;stroke-width:3px;}.cls-3{fill:#fff;}.cls-4{fill:none;}</style></defs><title>mood</title><path class="cls-1" d="M924.73,55.92s18.33,3,22.71,17.79a2,2,0,0,0-2.48-.07c0.39,2,5.8,8,3,17a5.19,5.19,0,0,0-2.54-3.44C932,79.09,924.73,55.92,924.73,55.92Z"/><path class="cls-2" d="M873.63,110.32c0.87,4.31,5.91,7.18,10.3,7.18a8,8,0,0,0,8-8c0-4.39-8.28-8.61-12.68-8.61S872.39,104.22,873.63,110.32Z"/><path class="cls-2" d="M935.26,141.13c-2.77,4.65-8.2,6.66-17.15,6.66s-28.91-13.23-30.16-19.08c-2.79-13.06-3-35.31-7.28-46.26-5.6-14.34,16.79-23.63,35.75-23.63,25.88,0,31.19,18.77,29.36,31.63-1,7.13-1.47,22.76-1.85,29.29C943.47,127.49,937.61,137.17,935.26,141.13Z"/><path class="cls-3" d="M917.87,105.6c0,3.86-3.38,7-8.88,7s-9.87-3.13-9.87-7,4.53-7,9.87-7S917.87,101.74,917.87,105.6Z"/><path class="cls-3" d="M944.63,104.22c0,3.86-3.38,7-8.88,7s-9.87-3.13-9.87-7,4.53-7,9.87-7S944.63,100.36,944.63,104.22Z"/><circle class="cls-1" cx="913.35" cy="105.3" r="3.04"/><circle class="cls-1" cx="938.55" cy="104.63" r="3.04"/><path class="cls-4" d="M886.37,102a87.47,87.47,0,0,0,1.21,13.3c0.61,3.71,4.3,6.82,7,8.89"/><path class="cls-4" d="M877.15,106.5c2.06-.67,5.36,0,8.21,3.81"/><path class="cls-1" d="M887.58,115.32c-1.21-16.83,4.39-27.59,2.17-28.57-3.23-1.41-4.54-24,12.57-23.56,6.27-2.39,6.68-8.48,4.65-8.28C896.09,56,879.22,64.71,874.41,72.1a13.27,13.27,0,0,1,2.8.36c-1.17,4.58-3.77,7.77-3,11.95a5,5,0,0,1,2.19-1c0,5.07,1.83,12.59,2.77,17.5,3.14,0.19,5.38.49,5.38,3.28C884.58,108.83,885,113.15,887.58,115.32Z"/><path class="cls-4" d="M909.6,128.53c1.69,6,7.45,1.07,11.29,3.73,5.09,3.54,4.69-1.07,7.22.71"/><path class="cls-5" d="M893.43,106.45l24.91-5.19a12,12,0,0,0-12.92-5.61C896.6,97.49,893.43,106.45,893.43,106.45Z"/><path class="cls-5" d="M923.45,104.13s18.43-2.56,20.39-2.56c0.43-6.21-2.4-9.27-8.73-9.27S923.45,104.13,923.45,104.13Z"/><path class="cls-2" d="M927,100.94c-3.86,6.48,3.86,7.89,5.45,15.36,1.31,6.11-17.7,5.65-13.79-1"/><line class="cls-4" x1="899" y1="105.84" x2="915.57" y2="102.38"/><line class="cls-4" x1="926.17" y1="103.98" x2="944.02" y2="101.84"/><path class="cls-4" d="M916.42,101.48s1.2,0.46,1.29,2.74"/><path class="cls-1" d="M902.31,63.19c1.07,2,12.19,5.34,19.93,4.62,5.15-.48,8-3.54,8.29-7.06,0.71-8.81-2.61-10.79-6.91-11.45-1.72,4.76-4.6-2.39-12.52-.93,2.29,3.16-5.56.49-10.5,5.6C905.54,55.66,900.34,59.42,902.31,63.19Z"/><path class="cls-4" d="M898,89.91c0.92-3.11,3.85-6.14,7.82-7.76s7.57-1.29,10.07.36"/><path class="cls-4" d="M928.92,94.13c2.22-1.61,5.74-2.15,9.25-1.19s5.75,3,6.58,5.42"/><path class="cls-4" d="M915.62,136.71a8.44,8.44,0,0,1,5.45,0"/><circle class="cls-4" cx="956.33" cy="99.7" r="2.13"/><circle class="cls-4" cx="959.42" cy="125.35" r="2.13"/><circle class="cls-4" cx="865.42" cy="64.89" r="2.13"/><circle class="cls-4" cx="862.22" cy="73.3" r="3.2"/><circle class="cls-4" cx="962.62" cy="92.3" r="3.2"/><circle class="cls-4" cx="965.08" cy="102.55" r="2.67"/></svg>