<svg id="Heads" xmlns="http://www.w3.org/2000/svg" viewBox="0 0 1792 768"><defs><style>.cls-1{fill:#24265b;}.cls-2{fill:#eeb9a9;}.cls-2,.cls-3,.cls-4{stroke:#24265b;stroke-linecap:round;stroke-linejoin:round;stroke-width:3px;}.cls-3{fill:#fff;}.cls-4{fill:none;}</style></defs><title>mood</title><path class="cls-1" d="M924.73,55.92s18.33,3,22.71,17.79a2,2,0,0,0-2.48-.07c0.39,2,5.8,8,3,17a5.19,5.19,0,0,0-2.54-3.44C932,79.09,924.73,55.92,924.73,55.92Z"/><path class="cls-2" d="M873.63,110.32c0.87,4.31,5.91,7.18,10.3,7.18a8,8,0,0,0,8-8c0-4.39-8.28-8.61-12.68-8.61S872.39,104.22,873.63,110.32Z"/><path class="cls-2" d="M935.26,141.13c-2.77,4.65-8.2,6.66-17.15,6.66s-28.91-13.23-30.16-19.08c-2.79-13.06-3-35.31-7.28-46.26-5.6-14.34,16.79-23.63,35.75-23.63,25.88,0,31.19,18.77,29.36,31.63-1,7.13-1.47,22.76-1.85,29.29C943.47,127.49,937.61,137.17,935.26,141.13Z"/><path class="cls-3" d="M917.87,105.6c0,3.86-3.38,7-8.88,7s-9.87-3.13-9.87-7,4.53-7,9.87-7S917.87,101.74,917.87,105.6Z"/><path class="cls-3" d="M944.63,104.22c0,3.86-3.38,7-8.88,7s-9.87-3.13-9.87-7,4.53-7,9.87-7S944.63,100.36,944.63,104.22Z"/><circle class="cls-1" cx="912.48" cy="105.6" r="3.04"/><circle class="cls-1" cx="938.39" cy="104.65" r="3.04"/><path class="cls-4" d="M886.37,102a87.47,87.47,0,0,0,1.21,13.3c0.61,3.71,4.3,6.82,7,8.89"/><path class="cls-4" d="M877.15,106.5c2.06-.67,5.36,0,8.21,3.81"/><path class="cls-1" d="M887.58,115.32c-1.21-16.83,4.39-27.59,2.17-28.57-3.23-1.41-4.54-24,12.57-23.56,6.27-2.39,6.68-8.48,4.65-8.28C896.09,56,879.22,64.71,874.41,72.1a13.27,13.27,0,0,1,2.8.36c-1.17,4.58-3.77,7.77-3,11.95a5,5,0,0,1,2.19-1c0,5.07,1.83,12.59,2.77,17.5,3.14,0.19,5.38.49,5.38,3.28C884.58,108.83,885,113.15,887.58,115.32Z"/><path class="cls-4" d="M915.62,130.29c1.08-1.77,3.85.2,9.26-.42"/><path class="cls-2" d="M927,100.94c-3.86,6.48,3.86,7.89,5.45,15.36,1.31,6.11-17.7,5.65-13.79-1"/><path class="cls-1" d="M902.31,63.19c1.07,2,12.19,5.34,19.93,4.62,5.15-.48,8-3.54,8.29-7.06,0.71-8.81-2.61-10.79-6.91-11.45-1.72,4.76-4.6-2.39-12.52-.93,2.29,3.16-5.56.49-10.5,5.6C905.54,55.66,900.34,59.42,902.31,63.19Z"/><path class="cls-4" d="M899.11,88.51c1.23-2.45,5.26-4.27,8.81-3.52,3.85,0.8,7,1.27,7.19,0"/><path class="cls-4" d="M931,92c0.13,1.21,2.12,2.1,4.12,1.32,4.65-1.8,9.74.72,9.36,3.85"/><path class="cls-4" d="M923.43,134.19s-3.43-.22-4.49,1.55"/><path class="cls-4" d="M917.87,115.91s-7.79,3.67-8.43,6.76"/><path class="cls-4" d="M956.63,43.8c1.63-4.51,7.29-7,12.48-4.94a8.79,8.79,0,0,1,4.55,12.25c-3.7,6.89-11.45,3.54-13.8,6.44a7.63,7.63,0,0,0-1.34,3.24"/><circle class="cls-4" cx="957.33" cy="69.04" r="2.13"/><path class="cls-4" d="M854.66,60.88c-0.8-3.09,1.4-6.57,5-7.41a5.87,5.87,0,0,1,7.11,5c0.55,5.18-5,6.26-5.18,8.74a5.09,5.09,0,0,0,.48,2.29"/><circle class="cls-4" cx="864.54" cy="74.52" r="1.42" transform="translate(108.39 500.22) rotate(-34.31)"/></svg>