<svg id="Shadow" xmlns="http://www.w3.org/2000/svg" viewBox="0 0 1792 768"><defs><style>.cls-1,.cls-4{fill:#24265b;}.cls-1{opacity:0.1;}.cls-2{fill:#fff;}.cls-2,.cls-3,.cls-4{stroke:#24265b;stroke-linecap:round;stroke-linejoin:round;stroke-width:3.02px;}.cls-3{fill:#c3996d;}</style></defs><title>topic</title><path class="cls-1" d="M819,626.78c-60,3.22-100,18.27-100,35.74C719,688,793.11,695,847.11,695,935,695,999,672,979,655c31.56-3,93-15.08,93-35,0-19-61.58-31-109.42-31S792,594.57,819,626.78Z"/><rect class="cls-2" x="957.94" y="451.66" width="9.57" height="157.87" rx="4.78" ry="4.78"/><path class="cls-2" d="M1048,313.63c0-5.28-3.21-9.57-7.18-9.57s-7.18,4.28-7.18,9.57,3.21,15.41,7.18,15.41S1048,318.92,1048,313.63Z"/><path class="cls-2" d="M891.76,313.63c0-5.28-3.21-9.57-7.18-9.57s-7.18,4.28-7.18,9.57S880.62,329,884.59,329,891.76,318.92,891.76,313.63Z"/><rect class="cls-2" x="1039.66" y="281.04" width="9.57" height="28.7" rx="4.78" ry="4.78"/><rect class="cls-2" x="876.21" y="281.04" width="9.57" height="28.7" rx="4.78" ry="4.78"/><path class="cls-3" d="M1044.45,365.55c0.74-26.15-.93-57.37-5.47-83.72-2.66-15.43-39.88-26.22-76.25-26.22-42.27,0-71.36,11.25-76.54,28.7s-6.42,53.6-5.18,81.24C883.48,421,892.82,466,912.25,504.72c0,0.08.07,0.16,0.1,0.23l0.14,0.32,0,0.05c4.33,8.92,25.14,15.69,50.19,15.69,24.79,0,45.44-6.63,50.06-15.41h0C1034.07,461.61,1043,417.22,1044.45,365.55Z"/><ellipse class="cls-2" cx="962.72" cy="298.58" rx="81.72" ry="28.7"/><path class="cls-2" d="M962.72,458c-37.52,0-68.59-9.69-74.06-22.32a10,10,0,0,0-.85,4c0,14.53,33.54,26.31,74.91,26.31s74.91-11.78,74.91-26.31a10,10,0,0,0-.85-4C1031.31,448.35,1000.24,458,962.72,458Z"/><path class="cls-2" d="M1043.69,280.33h0v0c-0.27-.68-5.21-10.58-5.21-10.58h0c-5.34-13.9-37.22-24.57-75.75-24.57-38.26,0-70,10.53-75.64,24.28h0s-5.06,10.2-5.32,10.86l0,0h0a10.75,10.75,0,0,0-.75,3.89c0,15.85,36.59,28.7,81.72,28.7s81.72-12.85,81.72-28.7A10.75,10.75,0,0,0,1043.69,280.33Z"/><path class="cls-2" d="M929.23,338.18a9.57,9.57,0,0,0-19.14,0c0,5.28,4.28,15.41,9.57,15.41S929.23,343.46,929.23,338.18Z"/><path class="cls-2" d="M1015.25,338.18a9.57,9.57,0,0,0-19.14,0c0,5.28,4.28,15.41,9.57,15.41S1015.25,343.46,1015.25,338.18Z"/><path class="cls-2" d="M1026.56,289.7c-13.71,7.75-37.18,12.86-63.84,12.86-25.63,0-48.32-4.72-62.21-12"/><rect class="cls-2" x="914.88" y="312.93" width="9.57" height="28.7" rx="4.78" ry="4.78"/><rect class="cls-2" x="1017.74" y="451.66" width="9.57" height="181.79" rx="4.78" ry="4.78" transform="translate(-72.29 166.64) rotate(-9)"/><rect class="cls-2" x="898.14" y="451.66" width="9.57" height="181.79" rx="4.78" ry="4.78" transform="translate(95.99 -134.57) rotate(9)"/><rect class="cls-2" x="1000.99" y="312.93" width="9.57" height="28.7" rx="4.78" ry="4.78"/><rect class="cls-4" x="882.41" y="618.41" width="14.35" height="16.74" rx="6" ry="6" transform="translate(109 -131.44) rotate(9)"/><rect class="cls-4" x="955.55" y="594.38" width="14.35" height="16.74" rx="6" ry="6"/><rect class="cls-4" x="1028.68" y="618.41" width="14.35" height="16.74" rx="6" ry="6" transform="translate(-85.3 169.76) rotate(-9)"/><rect class="cls-2" x="841.19" y="477.15" width="10.13" height="167.11" rx="5.06" ry="5.06"/><path class="cls-2" d="M936.56,331c0-5.59-3.4-10.13-7.6-10.13s-7.6,4.53-7.6,10.13,3.4,16.32,7.6,16.32S936.56,336.64,936.56,331Z"/><path class="cls-2" d="M771.14,331c0-5.59-3.4-10.13-7.6-10.13s-7.6,4.53-7.6,10.13,3.4,16.32,7.6,16.32S771.14,336.64,771.14,331Z"/><rect class="cls-2" x="927.7" y="296.54" width="10.13" height="30.38" rx="5.06" ry="5.06"/><rect class="cls-2" x="754.68" y="296.54" width="10.13" height="30.38" rx="5.06" ry="5.06"/><path class="cls-3" d="M932.76,386c0.78-27.68-1-60.73-5.79-88.62-2.81-16.34-42.22-27.76-80.72-27.76-44.75,0-75.54,11.91-81,30.38s-6.79,56.74-5.49,86c2.62,58.67,12.52,106.34,33.09,147.32,0,0.08.07,0.17,0.11,0.25l0.15,0.34,0,0.06c4.58,9.45,26.61,16.61,53.13,16.61,26.24,0,48.1-7,53-16.32h0C921.78,487.68,931.21,440.7,932.76,386Z"/><ellipse class="cls-2" cx="846.25" cy="315.11" rx="86.51" ry="30.38"/><path class="cls-2" d="M846.25,483.9c-39.71,0-72.6-10.25-78.39-23.63a10.55,10.55,0,0,0-.9,4.22c0,15.38,35.5,27.85,79.3,27.85s79.3-12.47,79.3-27.85a10.55,10.55,0,0,0-.9-4.22C918.86,473.65,886,483.9,846.25,483.9Z"/><path class="cls-2" d="M932,295.79h0v0c-0.28-.72-5.51-11.2-5.51-11.2h0c-5.65-14.71-39.4-26-80.18-26-40.5,0-74.06,11.14-80.06,25.7h0s-5.36,10.8-5.63,11.5l0,0h0a11.38,11.38,0,0,0-.8,4.12c0,16.78,38.73,30.38,86.51,30.38s86.51-13.6,86.51-30.38A11.38,11.38,0,0,0,932,295.79Z"/><path class="cls-2" d="M810.8,357a10.13,10.13,0,0,0-20.26,0c0,5.59,4.53,16.32,10.13,16.32S810.8,362.62,810.8,357Z"/><path class="cls-2" d="M901.85,357a10.13,10.13,0,0,0-20.26,0c0,5.59,4.53,16.32,10.13,16.32S901.85,362.62,901.85,357Z"/><path class="cls-2" d="M913.82,305.71c-14.51,8.2-39.36,13.61-67.57,13.61-27.13,0-51.15-5-65.85-12.68"/><rect class="cls-2" x="795.61" y="330.3" width="10.13" height="30.38" rx="5.06" ry="5.06"/><rect class="cls-2" x="904.49" y="477.15" width="10.13" height="192.43" rx="5.06" ry="5.06" transform="translate(-78.5 149.34) rotate(-9)"/><rect class="cls-2" x="777.89" y="477.15" width="10.13" height="192.43" rx="5.06" ry="5.06" transform="translate(99.33 -115.42) rotate(9)"/><rect class="cls-2" x="886.76" y="330.3" width="10.13" height="30.38" rx="5.06" ry="5.06"/><rect class="cls-4" x="761.24" y="653.66" width="15.19" height="17.72" rx="6" ry="6" transform="translate(113.11 -112.11) rotate(9)"/><rect class="cls-4" x="838.66" y="628.22" width="15.19" height="17.72" rx="6" ry="6"/><rect class="cls-4" x="916.08" y="653.66" width="15.19" height="17.72" rx="6" ry="6" transform="translate(-92.27 152.65) rotate(-9)"/></svg>