<svg id="Shadow" xmlns="http://www.w3.org/2000/svg" viewBox="0 0 1792 768"><defs><style>.cls-1,.cls-6{fill:#24265b;}.cls-1{opacity:0.1;}.cls-2,.cls-4{fill:#fff;}.cls-2,.cls-3,.cls-5{stroke:#24265b;stroke-linecap:round;stroke-linejoin:round;stroke-width:3.47px;}.cls-3{fill:#93acb8;}.cls-5{fill:none;}</style></defs><title>topic</title><path class="cls-1" d="M717.45,655.18c-44.26,7.92,86.67,92.82,161.29,79.89,50.17-8.69,241.62-55.16,282.62-67.08s-66.52-75.7-102.49-73.92C998.35,597.07,761.53,647.29,717.45,655.18Z"/><polygon class="cls-2" points="926.29 679.78 904.53 679.78 792.92 387.25 813.86 385.12 926.29 679.78"/><polygon class="cls-2" points="1071.35 660.6 1049.37 660.01 937.76 367.47 958.7 365.35 1071.35 660.6"/><line class="cls-2" x1="950.48" y1="365.35" x2="1063.13" y2="660.6"/><polygon class="cls-2" points="1021.24 439.29 879.32 456.6 879.32 440.06 1021.24 422.74 1021.24 439.29"/><line class="cls-2" x1="805.64" y1="385.12" x2="918.06" y2="679.78"/><polygon class="cls-2" points="812.84 661.92 792.59 662.13 905.16 349.97 926.1 347.84 812.84 661.92"/><polygon class="cls-2" points="957.24 643.36 937.07 643.36 1050 330.2 1070.94 328.07 957.24 643.36"/><line class="cls-2" x1="918.7" y1="347.84" x2="805.44" y2="661.92"/><line class="cls-2" x1="1063.54" y1="328.07" x2="949.84" y2="643.36"/><polygon class="cls-3" points="1074.98 282.29 673.24 341.71 754.27 358.42 1156.01 299 1074.98 282.29"/><polygon class="cls-3" points="1022.06 290 1044.39 302.84 1102.27 318.2 1102.27 307.01 1022.06 290"/><polygon class="cls-3" points="1156.01 359.61 754.27 419.03 754.27 358.42 1156.01 299 1156.01 359.61"/><polygon class="cls-3" points="674.06 372.93 754.27 419.03 754.27 358.42 672.42 341.81 674.06 372.93"/><polygon class="cls-3" points="1075.23 282.29 1021.24 290.3 1102.27 307.01 1156.27 299 1075.23 282.29"/><polygon class="cls-4" points="1034.61 304.53 1005.79 288.23 1016.8 286.51 1045.62 302.81 1034.61 304.53"/><polygon class="cls-5" points="1034.61 304.53 1005.79 288.23 1016.8 286.51 1045.62 302.81 1034.61 304.53"/><polygon class="cls-4" points="1020.73 306.73 991.91 290.43 1002.92 288.7 1031.74 305 1020.73 306.73"/><polygon class="cls-5" points="1020.73 306.73 991.91 290.43 1002.92 288.7 1031.74 305 1020.73 306.73"/><polygon class="cls-4" points="1006.85 308.93 978.03 292.63 989.04 290.9 1017.86 307.2 1006.85 308.93"/><polygon class="cls-5" points="1006.85 308.93 978.03 292.63 989.04 290.9 1017.86 307.2 1006.85 308.93"/><polygon class="cls-4" points="992.97 311.13 964.15 294.82 975.16 293.1 1003.98 309.4 992.97 311.13"/><polygon class="cls-5" points="992.97 311.13 964.15 294.82 975.16 293.1 1003.98 309.4 992.97 311.13"/><polygon class="cls-4" points="979.09 313.32 950.27 297.02 961.28 295.3 990.1 311.6 979.09 313.32"/><polygon class="cls-5" points="979.09 313.32 950.27 297.02 961.28 295.3 990.1 311.6 979.09 313.32"/><polygon class="cls-4" points="965.21 315.52 936.39 299.22 947.4 297.5 976.22 313.8 965.21 315.52"/><polygon class="cls-5" points="965.21 315.52 936.39 299.22 947.4 297.5 976.22 313.8 965.21 315.52"/><polygon class="cls-4" points="951.32 317.72 922.51 301.42 933.52 299.69 962.33 316 951.32 317.72"/><polygon class="cls-5" points="951.32 317.72 922.51 301.42 933.52 299.69 962.33 316 951.32 317.72"/><polygon class="cls-4" points="937.44 319.92 908.63 303.62 919.63 301.89 948.45 318.19 937.44 319.92"/><polygon class="cls-5" points="937.44 319.92 908.63 303.62 919.63 301.89 948.45 318.19 937.44 319.92"/><polygon class="cls-4" points="923.56 322.12 894.74 305.81 905.75 304.09 934.57 320.39 923.56 322.12"/><polygon class="cls-5" points="923.56 322.12 894.74 305.81 905.75 304.09 934.57 320.39 923.56 322.12"/><polygon class="cls-4" points="909.68 324.31 880.86 308.01 891.87 306.29 920.69 322.59 909.68 324.31"/><polygon class="cls-5" points="909.68 324.31 880.86 308.01 891.87 306.29 920.69 322.59 909.68 324.31"/><polygon class="cls-4" points="895.8 326.51 866.98 310.21 877.99 308.49 906.81 324.79 895.8 326.51"/><polygon class="cls-5" points="895.8 326.51 866.98 310.21 877.99 308.49 906.81 324.79 895.8 326.51"/><polygon class="cls-4" points="881.92 328.71 853.1 312.41 864.11 310.68 892.93 326.98 881.92 328.71"/><polygon class="cls-5" points="881.92 328.71 853.1 312.41 864.11 310.68 892.93 326.98 881.92 328.71"/><polygon class="cls-4" points="868.03 330.91 839.22 314.61 850.23 312.88 879.05 329.18 868.03 330.91"/><polygon class="cls-5" points="868.03 330.91 839.22 314.61 850.23 312.88 879.05 329.18 868.03 330.91"/><polygon class="cls-4" points="854.15 333.11 825.34 316.8 836.35 315.08 865.16 331.38 854.15 333.11"/><polygon class="cls-5" points="854.15 333.11 825.34 316.8 836.35 315.08 865.16 331.38 854.15 333.11"/><polygon class="cls-4" points="840.27 335.3 811.46 319 822.47 317.28 851.28 333.58 840.27 335.3"/><polygon class="cls-5" points="840.27 335.3 811.46 319 822.47 317.28 851.28 333.58 840.27 335.3"/><polygon class="cls-4" points="826.39 337.5 797.57 321.2 808.58 319.47 837.4 335.77 826.39 337.5"/><polygon class="cls-5" points="826.39 337.5 797.57 321.2 808.58 319.47 837.4 335.77 826.39 337.5"/><polygon class="cls-4" points="812.51 339.7 783.69 323.4 794.7 321.67 823.52 337.97 812.51 339.7"/><polygon class="cls-5" points="812.51 339.7 783.69 323.4 794.7 321.67 823.52 337.97 812.51 339.7"/><polygon class="cls-4" points="798.63 341.9 769.81 325.6 780.82 323.87 809.64 340.17 798.63 341.9"/><polygon class="cls-5" points="798.63 341.9 769.81 325.6 780.82 323.87 809.64 340.17 798.63 341.9"/><polygon class="cls-4" points="784.75 344.1 755.93 327.79 766.94 326.07 795.76 342.37 784.75 344.1"/><polygon class="cls-5" points="784.75 344.1 755.93 327.79 766.94 326.07 795.76 342.37 784.75 344.1"/><polygon class="cls-4" points="770.87 346.29 742.05 329.99 753.06 328.27 781.88 344.57 770.87 346.29"/><polygon class="cls-5" points="770.87 346.29 742.05 329.99 753.06 328.27 781.88 344.57 770.87 346.29"/><polygon class="cls-4" points="756.98 348.49 728.17 332.19 739.18 330.46 768 346.76 756.98 348.49"/><polygon class="cls-5" points="756.98 348.49 728.17 332.19 739.18 330.46 768 346.76 756.98 348.49"/><polygon class="cls-2" points="850.42 340.9 844.32 338.07 855.33 336.34 861.43 339.18 850.42 340.9"/><polygon class="cls-2" points="839.39 342.68 833.3 339.84 844.31 338.12 850.4 340.95 839.39 342.68"/><polygon class="cls-2" points="1035.08 312.87 1028.98 310.03 1039.99 308.31 1046.09 311.14 1035.08 312.87"/><polygon class="cls-2" points="829.13 344.26 823.03 341.42 834.04 339.7 840.14 342.53 829.13 344.26"/><polygon class="cls-6" points="831.46 335.98 819.19 329.03 823.88 328.3 836.15 335.24 831.46 335.98"/><polygon class="cls-5" points="831.46 335.98 819.19 329.03 823.88 328.3 836.15 335.24 831.46 335.98"/><polygon class="cls-6" points="818.16 338.29 805.89 331.35 810.58 330.61 822.85 337.55 818.16 338.29"/><polygon class="cls-5" points="818.16 338.29 805.89 331.35 810.58 330.61 822.85 337.55 818.16 338.29"/><polygon class="cls-6" points="804.86 340.6 792.59 333.66 797.27 332.93 809.55 339.87 804.86 340.6"/><polygon class="cls-5" points="804.86 340.6 792.59 333.66 797.27 332.93 809.55 339.87 804.86 340.6"/><polygon class="cls-6" points="857.51 331.86 845.24 324.91 849.93 324.18 862.2 331.12 857.51 331.86"/><polygon class="cls-5" points="857.51 331.86 845.24 324.91 849.93 324.18 862.2 331.12 857.51 331.86"/><polygon class="cls-6" points="844.21 334.17 831.93 327.23 836.62 326.49 848.89 333.43 844.21 334.17"/><polygon class="cls-5" points="844.21 334.17 831.93 327.23 836.62 326.49 848.89 333.43 844.21 334.17"/><polygon class="cls-6" points="789.1 343.17 776.83 336.23 781.51 335.5 793.78 342.44 789.1 343.17"/><polygon class="cls-5" points="789.1 343.17 776.83 336.23 781.51 335.5 793.78 342.44 789.1 343.17"/><polygon class="cls-6" points="775.79 345.49 763.52 338.55 768.21 337.81 780.48 344.75 775.79 345.49"/><polygon class="cls-5" points="775.79 345.49 763.52 338.55 768.21 337.81 780.48 344.75 775.79 345.49"/><polygon class="cls-6" points="900.42 325.01 888.15 318.07 892.84 317.33 905.11 324.27 900.42 325.01"/><polygon class="cls-5" points="900.42 325.01 888.15 318.07 892.84 317.33 905.11 324.27 900.42 325.01"/><polygon class="cls-6" points="887.12 327.32 874.85 320.38 879.54 319.64 891.81 326.59 887.12 327.32"/><polygon class="cls-5" points="887.12 327.32 874.85 320.38 879.54 319.64 891.81 326.59 887.12 327.32"/><polygon class="cls-6" points="873.82 329.63 861.55 322.69 866.24 321.96 878.51 328.9 873.82 329.63"/><polygon class="cls-5" points="873.82 329.63 861.55 322.69 866.24 321.96 878.51 328.9 873.82 329.63"/><polygon class="cls-6" points="926.47 320.89 914.2 313.95 918.89 313.21 931.16 320.15 926.47 320.89"/><polygon class="cls-5" points="926.47 320.89 914.2 313.95 918.89 313.21 931.16 320.15 926.47 320.89"/><polygon class="cls-6" points="913.17 323.2 900.9 316.26 905.58 315.52 917.86 322.47 913.17 323.2"/><polygon class="cls-5" points="913.17 323.2 900.9 316.26 905.58 315.52 917.86 322.47 913.17 323.2"/><polygon class="cls-6" points="969.93 314.04 957.66 307.1 962.35 306.36 974.62 313.31 969.93 314.04"/><polygon class="cls-5" points="969.93 314.04 957.66 307.1 962.35 306.36 974.62 313.31 969.93 314.04"/><polygon class="cls-6" points="956.63 316.35 944.36 309.41 949.05 308.68 961.32 315.62 956.63 316.35"/><polygon class="cls-5" points="956.63 316.35 944.36 309.41 949.05 308.68 961.32 315.62 956.63 316.35"/><polygon class="cls-6" points="943.33 318.67 931.06 311.73 935.75 310.99 948.02 317.93 943.33 318.67"/><polygon class="cls-5" points="943.33 318.67 931.06 311.73 935.75 310.99 948.02 317.93 943.33 318.67"/><polygon class="cls-6" points="995.98 309.92 983.71 302.98 988.4 302.24 1000.67 309.19 995.98 309.92"/><polygon class="cls-5" points="995.98 309.92 983.71 302.98 988.4 302.24 1000.67 309.19 995.98 309.92"/><polygon class="cls-6" points="982.68 312.23 970.4 305.29 975.09 304.56 987.36 311.5 982.68 312.23"/><polygon class="cls-5" points="982.68 312.23 970.4 305.29 975.09 304.56 987.36 311.5 982.68 312.23"/><polygon class="cls-6" points="1039.03 303.16 1026.76 296.21 1031.45 295.48 1043.72 302.42 1039.03 303.16"/><polygon class="cls-5" points="1039.03 303.16 1026.76 296.21 1031.45 295.48 1043.72 302.42 1039.03 303.16"/><polygon class="cls-6" points="1025.73 305.47 1013.46 298.53 1018.15 297.79 1030.42 304.74 1025.73 305.47"/><polygon class="cls-5" points="1025.73 305.47 1013.46 298.53 1018.15 297.79 1030.42 304.74 1025.73 305.47"/><polygon class="cls-6" points="1012.43 307.78 1000.16 300.84 1004.84 300.11 1017.12 307.05 1012.43 307.78"/><polygon class="cls-5" points="1012.43 307.78 1000.16 300.84 1004.84 300.11 1017.12 307.05 1012.43 307.78"/><polygon class="cls-3" points="727.23 333.7 673.24 341.71 754.27 358.42 808.27 350.41 727.23 333.7"/><polygon class="cls-3" points="1047.45 232.83 912.86 252.2 883.22 339.06 1017.93 319.31 1047.45 232.83"/><circle class="cls-2" cx="1125.77" cy="349.57" r="3.7"/><circle class="cls-2" cx="1109.77" cy="352.45" r="3.7"/><line class="cls-4" x1="799.9" y1="353.62" x2="777.73" y2="356.91"/><line class="cls-5" x1="799.9" y1="353.62" x2="777.73" y2="356.91"/><line class="cls-4" x1="788.33" y1="351.31" x2="766.16" y2="354.6"/><line class="cls-5" x1="788.33" y1="351.31" x2="766.16" y2="354.6"/><line class="cls-4" x1="776.77" y1="348.99" x2="754.6" y2="352.28"/><line class="cls-5" x1="776.77" y1="348.99" x2="754.6" y2="352.28"/><line class="cls-4" x1="765.2" y1="346.68" x2="743.03" y2="349.97"/><line class="cls-5" x1="765.2" y1="346.68" x2="743.03" y2="349.97"/><line class="cls-4" x1="753.63" y1="344.37" x2="731.46" y2="347.66"/><line class="cls-5" x1="753.63" y1="344.37" x2="731.46" y2="347.66"/><line class="cls-4" x1="742.06" y1="342.05" x2="719.89" y2="345.34"/><line class="cls-5" x1="742.06" y1="342.05" x2="719.89" y2="345.34"/><line class="cls-4" x1="1147.35" y1="302.65" x2="1125.18" y2="305.94"/><line class="cls-5" x1="1147.35" y1="302.65" x2="1125.18" y2="305.94"/><line class="cls-4" x1="1135.78" y1="300.34" x2="1113.61" y2="303.63"/><line class="cls-5" x1="1135.78" y1="300.34" x2="1113.61" y2="303.63"/><line class="cls-4" x1="1124.21" y1="298.02" x2="1102.04" y2="301.31"/><line class="cls-5" x1="1124.21" y1="298.02" x2="1102.04" y2="301.31"/><line class="cls-4" x1="1112.64" y1="295.71" x2="1090.48" y2="299"/><line class="cls-5" x1="1112.64" y1="295.71" x2="1090.48" y2="299"/><line class="cls-4" x1="1101.08" y1="293.4" x2="1078.91" y2="296.69"/><line class="cls-5" x1="1101.08" y1="293.4" x2="1078.91" y2="296.69"/><line class="cls-4" x1="1089.51" y1="291.08" x2="1067.34" y2="294.37"/><line class="cls-5" x1="1089.51" y1="291.08" x2="1067.34" y2="294.37"/><polygon class="cls-3" points="929.14 332.33 945.29 268.1 921.39 333.7 929.14 332.33"/><polygon class="cls-3" points="996.88 322.51 1013.04 258.28 989.13 323.88 996.88 322.51"/><polygon class="cls-3" points="877.2 339.78 912.86 252.2 883.22 339.06 877.2 339.78"/><polygon class="cls-2" points="818.72 649.29 810.49 650.94 797.33 645.18 791.03 662.46 804.73 668.21 812.41 666.57 818.72 649.29"/><polygon class="cls-2" points="963.69 630.19 955.46 631.84 942.3 626.08 935.99 643.35 949.7 649.11 957.38 647.46 963.69 630.19"/><polygon class="cls-2" points="923.73 670.57 915.5 672.22 898.32 665.22 904.02 679.67 921.74 686.66 929.43 685.02 923.73 670.57"/><polygon class="cls-2" points="1069.33 652.72 1061.1 654.37 1043.92 647.38 1049.62 661.83 1067.34 668.82 1075.03 667.17 1069.33 652.72"/></svg>