<svg id="Shadow" xmlns="http://www.w3.org/2000/svg" viewBox="0 0 1792 768"><defs><style>.cls-1,.cls-5{fill:#24265b;}.cls-1{opacity:0.1;}.cls-2{fill:#d6cf90;}.cls-2,.cls-4,.cls-6{stroke:#24265b;stroke-linecap:round;stroke-linejoin:round;}.cls-2,.cls-6{stroke-width:3.14px;}.cls-3{fill:#fff;}.cls-4{fill:none;stroke-width:3px;}.cls-6{fill:#a8a887;}</style></defs><title>topic</title><path class="cls-1" d="M698.55,675.48C660,685.67,758.69,735.19,778.45,733c63.65-7,370.69-23.53,416.55-30,42.28-6-85.15-97.45-121.12-95.67C1013.35,610.33,741.84,664,698.55,675.48Z"/><polygon class="cls-2" points="760.78 407.37 698.16 373.26 897.05 353.15 959.67 387.27 760.78 407.37"/><polygon class="cls-2" points="778.06 417.17 698.16 373.26 698.55 675.48 778.45 719.39 778.06 417.17"/><polygon class="cls-3" points="1079.81 329.29 1054.9 315.19 1064.42 313.7 1089.33 327.8 1079.81 329.29"/><polygon class="cls-4" points="1079.81 329.29 1054.9 315.19 1064.42 313.7 1089.33 327.8 1079.81 329.29"/><polygon class="cls-3" points="1067.81 331.19 1042.9 317.1 1052.42 315.6 1077.33 329.69 1067.81 331.19"/><polygon class="cls-4" points="1067.81 331.19 1042.9 317.1 1052.42 315.6 1077.33 329.69 1067.81 331.19"/><polygon class="cls-3" points="1055.81 333.09 1030.9 319 1040.42 317.5 1065.33 331.6 1055.81 333.09"/><polygon class="cls-4" points="1055.81 333.09 1030.9 319 1040.42 317.5 1065.33 331.6 1055.81 333.09"/><polygon class="cls-3" points="1043.81 334.99 1018.9 320.89 1028.42 319.4 1053.33 333.5 1043.81 334.99"/><polygon class="cls-4" points="1043.81 334.99 1018.9 320.89 1028.42 319.4 1053.33 333.5 1043.81 334.99"/><polygon class="cls-3" points="1031.81 336.89 1006.9 322.8 1016.42 321.3 1041.33 335.39 1031.81 336.89"/><polygon class="cls-4" points="1031.81 336.89 1006.9 322.8 1016.42 321.3 1041.33 335.39 1031.81 336.89"/><polygon class="cls-3" points="1019.81 338.79 994.9 324.69 1004.42 323.2 1029.33 337.3 1019.81 338.79"/><polygon class="cls-4" points="1019.81 338.79 994.9 324.69 1004.42 323.2 1029.33 337.3 1019.81 338.79"/><polygon class="cls-3" points="1007.81 340.69 982.9 326.6 992.42 325.1 1017.33 339.19 1007.81 340.69"/><polygon class="cls-4" points="1007.81 340.69 982.9 326.6 992.42 325.1 1017.33 339.19 1007.81 340.69"/><polygon class="cls-3" points="995.81 342.59 970.9 328.5 980.42 327 1005.33 341.1 995.81 342.59"/><polygon class="cls-4" points="995.81 342.59 970.9 328.5 980.42 327 1005.33 341.1 995.81 342.59"/><polygon class="cls-3" points="983.81 344.49 958.9 330.39 968.42 328.9 993.33 343 983.81 344.49"/><polygon class="cls-4" points="983.81 344.49 958.9 330.39 968.42 328.9 993.33 343 983.81 344.49"/><polygon class="cls-3" points="971.81 346.39 946.9 332.3 956.42 330.8 981.33 344.89 971.81 346.39"/><polygon class="cls-4" points="971.81 346.39 946.9 332.3 956.42 330.8 981.33 344.89 971.81 346.39"/><polygon class="cls-3" points="959.81 348.29 934.9 334.19 944.42 332.7 969.33 346.8 959.81 348.29"/><polygon class="cls-4" points="959.81 348.29 934.9 334.19 944.42 332.7 969.33 346.8 959.81 348.29"/><polygon class="cls-3" points="947.81 350.19 922.9 336.1 932.42 334.6 957.33 348.69 947.81 350.19"/><polygon class="cls-4" points="947.81 350.19 922.9 336.1 932.42 334.6 957.33 348.69 947.81 350.19"/><polygon class="cls-3" points="935.81 352.09 910.9 338 920.42 336.5 945.33 350.6 935.81 352.09"/><polygon class="cls-4" points="935.81 352.09 910.9 338 920.42 336.5 945.33 350.6 935.81 352.09"/><polygon class="cls-3" points="923.81 353.99 898.9 339.89 908.42 338.4 933.33 352.5 923.81 353.99"/><polygon class="cls-4" points="923.81 353.99 898.9 339.89 908.42 338.4 933.33 352.5 923.81 353.99"/><polygon class="cls-3" points="911.81 355.89 886.9 341.8 896.42 340.3 921.33 354.39 911.81 355.89"/><polygon class="cls-4" points="911.81 355.89 886.9 341.8 896.42 340.3 921.33 354.39 911.81 355.89"/><polygon class="cls-3" points="899.81 357.79 874.9 343.69 884.42 342.2 909.33 356.3 899.81 357.79"/><polygon class="cls-4" points="899.81 357.79 874.9 343.69 884.42 342.2 909.33 356.3 899.81 357.79"/><polygon class="cls-3" points="887.81 359.69 862.9 345.6 872.42 344.1 897.33 358.19 887.81 359.69"/><polygon class="cls-4" points="887.81 359.69 862.9 345.6 872.42 344.1 897.33 358.19 887.81 359.69"/><polygon class="cls-3" points="875.81 361.59 850.9 347.5 860.42 346 885.33 360.1 875.81 361.59"/><polygon class="cls-4" points="875.81 361.59 850.9 347.5 860.42 346 885.33 360.1 875.81 361.59"/><polygon class="cls-3" points="863.81 363.49 838.9 349.39 848.42 347.9 873.33 362 863.81 363.49"/><polygon class="cls-4" points="863.81 363.49 838.9 349.39 848.42 347.9 873.33 362 863.81 363.49"/><polygon class="cls-3" points="851.81 365.39 826.9 351.3 836.42 349.8 861.33 363.89 851.81 365.39"/><polygon class="cls-4" points="851.81 365.39 826.9 351.3 836.42 349.8 861.33 363.89 851.81 365.39"/><polygon class="cls-3" points="839.81 367.29 814.9 353.19 824.42 351.7 849.33 365.8 839.81 367.29"/><polygon class="cls-4" points="839.81 367.29 814.9 353.19 824.42 351.7 849.33 365.8 839.81 367.29"/><polygon class="cls-3" points="827.81 369.19 802.9 355.1 812.42 353.6 837.33 367.69 827.81 369.19"/><polygon class="cls-4" points="827.81 369.19 802.9 355.1 812.42 353.6 837.33 367.69 827.81 369.19"/><polygon class="cls-3" points="815.81 371.09 790.9 357 800.42 355.5 825.33 369.6 815.81 371.09"/><polygon class="cls-4" points="815.81 371.09 790.9 357 800.42 355.5 825.33 369.6 815.81 371.09"/><polygon class="cls-3" points="803.81 372.99 778.9 358.89 788.42 357.4 813.33 371.5 803.81 372.99"/><polygon class="cls-4" points="803.81 372.99 778.9 358.89 788.42 357.4 813.33 371.5 803.81 372.99"/><polygon class="cls-3" points="791.81 374.89 766.9 360.8 776.42 359.3 801.33 373.39 791.81 374.89"/><polygon class="cls-4" points="791.81 374.89 766.9 360.8 776.42 359.3 801.33 373.39 791.81 374.89"/><polygon class="cls-3" points="779.81 376.79 754.9 362.69 764.42 361.2 789.33 375.3 779.81 376.79"/><polygon class="cls-4" points="779.81 376.79 754.9 362.69 764.42 361.2 789.33 375.3 779.81 376.79"/><polygon class="cls-3" points="767.81 378.69 742.9 364.6 752.42 363.1 777.33 377.19 767.81 378.69"/><polygon class="cls-4" points="767.81 378.69 742.9 364.6 752.42 363.1 777.33 377.19 767.81 378.69"/><polygon class="cls-3" points="755.81 380.59 730.9 366.5 740.42 365 765.33 379.1 755.81 380.59"/><polygon class="cls-4" points="755.81 380.59 730.9 366.5 740.42 365 765.33 379.1 755.81 380.59"/><polygon class="cls-3" points="743.81 382.49 718.9 368.39 728.42 366.9 753.33 381 743.81 382.49"/><polygon class="cls-4" points="743.81 382.49 718.9 368.39 728.42 366.9 753.33 381 743.81 382.49"/><polygon class="cls-5" points="771.57 377.89 760.96 371.89 765.01 371.26 775.62 377.26 771.57 377.89"/><polygon class="cls-4" points="771.57 377.89 760.96 371.89 765.01 371.26 775.62 377.26 771.57 377.89"/><polygon class="cls-5" points="760.07 379.89 749.46 373.89 753.51 373.26 764.12 379.26 760.07 379.89"/><polygon class="cls-4" points="760.07 379.89 749.46 373.89 753.51 373.26 764.12 379.26 760.07 379.89"/><polygon class="cls-2" points="1180.91 690.04 778.06 719.68 778.06 237.27 1180.91 207.63 1180.91 690.04"/><polygon class="cls-2" points="777.65 237.63 747.41 221.56 1150.14 192.03 1180.38 207.78 777.65 237.63"/><polygon class="cls-2" points="778.06 237.8 746.75 221.07 746.75 399.68 778.06 416.38 778.06 237.8"/><polygon class="cls-6" points="893.72 678.45 804.82 685.67 804.82 267.34 893.72 260.12 893.72 678.45"/><polygon class="cls-6" points="1016.02 671.26 927.12 678.48 927.12 260.15 1016.02 252.93 1016.02 671.26"/><polygon class="cls-6" points="1138.44 661.03 1049.54 668.25 1049.54 249.92 1138.44 242.7 1138.44 661.03"/></svg>