<svg id="Shadow" xmlns="http://www.w3.org/2000/svg" viewBox="0 0 1792 768"><defs><style>.cls-1,.cls-2,.cls-7{fill:#24265b;}.cls-1{opacity:0.1;}.cls-10,.cls-2,.cls-3,.cls-4,.cls-5,.cls-6,.cls-7,.cls-8{stroke:#24265b;}.cls-2,.cls-7{stroke-miterlimit:10;}.cls-2{stroke-width:1.2px;}.cls-3{fill:#d6cf90;}.cls-10,.cls-3,.cls-4,.cls-5,.cls-6,.cls-8{stroke-linecap:round;stroke-linejoin:round;}.cls-3,.cls-4,.cls-5,.cls-7{stroke-width:4.25px;}.cls-4,.cls-6,.cls-8,.cls-9{fill:#fff;}.cls-10,.cls-5{fill:none;}.cls-6{stroke-width:3.3px;}.cls-10,.cls-8{stroke-width:3.89px;}</style></defs><title>topic</title><ellipse class="cls-1" cx="910" cy="666.29" rx="126" ry="35.71"/><rect class="cls-2" x="853.23" y="648.16" width="76.25" height="14.22" rx="7.11" ry="7.11" transform="translate(-177.15 368.59) rotate(-21.3)"/><rect class="cls-2" x="904.63" y="653.28" width="76.25" height="14.22" rx="6.82" ry="6.82" transform="translate(-203.89 559.86) rotate(-30)"/><path class="cls-3" d="M891.52,656.7c12.71,2.27,49.36,5.69,65.34,4.52,31.09-2.26,49.05-13.72,56-35.77,14.64-46.19-22.51-86.49-20.29-107.37,2-18.88,28.31-47.84,12.07-75.13-4.59-7.71-13.29-3.26-14.36,2.45-6.77,36.14-44.28,29.17-43.56,14S926,417,918.21,434.19c-9.15,20.33-42.18,3.55-37.86-29,1.6-12-16.42-14.37-24.1,8.55-11.05,33,14.23,58.31,9,93.06-2.86,19-30.48,62.53-32.06,92.29S855.56,650.26,891.52,656.7Z"/><path class="cls-4" d="M907.94,454.2c4.68,2.5,45.12,21.64,51.4,23.92,15.36,5.59,34-8.12,36.22-28.21,0.42-3.75,3.4-5.66,5.31-1.92,10.79,21.11-13.9,58.91-14.41,68-1.62,28.7,23.64,53.65,22.26,85.07-0.25,5.73-7.49,10.79-12.19,6.41-20.46-19.1-29.22-26.73-43.35-25.47-9.25.83-44.23-1.06-49.8-1.59-16.69-1.61-20-19.3-19.19-29.33,1.42-17.4,18.6-43.44,19.37-60.74A117.65,117.65,0,0,0,901,460.7C900.13,457.08,903.26,451.7,907.94,454.2Z"/><line class="cls-5" x1="986.71" y1="557.08" x2="977.51" y2="545.36"/><circle class="cls-4" cx="957.67" cy="564.17" r="6.91" transform="translate(17.25 1156.65) rotate(-62.71)"/><circle class="cls-4" cx="978.73" cy="576.07" r="6.91" transform="translate(18.08 1181.82) rotate(-62.71)"/><circle class="cls-4" cx="983.13" cy="551.54" r="2.76" transform="translate(42.26 1172.43) rotate(-62.71)"/><circle class="cls-6" cx="996.56" cy="593.04" r="6.91" transform="translate(12.65 1206.84) rotate(-62.71)"/><rect class="cls-4" x="920.61" y="477.3" width="19.34" height="35.92" rx="3" ry="3" transform="translate(398.31 1405.05) rotate(-87.71)"/><rect class="cls-4" x="917.48" y="535.1" width="19.34" height="35.92" rx="3" ry="3" transform="translate(337.54 1457.41) rotate(-87.71)"/><rect class="cls-4" x="913.57" y="562.71" width="22.11" height="44.21" rx="3" ry="3" transform="matrix(0.04, -1, 1, 0.04, 303.39, 1485.37)"/><g id="Guitar"><path class="cls-3" d="M933.62,205.39s-7.65-7-7.87-10.94,19.3-59.83,25.91-78.18c2.81-7.81,12.09-13.39,19-10.9,8.58,3.08,11.48,11.42,9,19.46-2.58,8.28-13.21,12-12.75,14.84,0.78,4.86,3.83,21.32,5.56,42.25,0.27,3.23-13.88,8-15.26,24.18C956,219.44,933.62,205.39,933.62,205.39Z"/><path class="cls-7" d="M916.18,473.67c-0.76-6.52,15-235.73,17.59-270.43,0.23-3.2,23.55-1.39,23.41,2.85S947,468.47,945.83,475,916.94,480.19,916.18,473.67Z"/></g><path class="cls-4" d="M976.21,604.47c14.45,10.82,19.76,21.81,16.08,25.9s-21.45-7.12-27.83-13.84c-5.52-5.81-8.25-11.42-4.7-15.32S968,598.31,976.21,604.47Z"/><line class="cls-4" x1="965.24" y1="617.31" x2="976.21" y2="604.47"/><line class="cls-6" x1="951.23" y1="117.8" x2="947.16" y2="116.13"/><ellipse class="cls-8" cx="944.61" cy="115.09" rx="4.14" ry="2.76" transform="translate(479.89 945.49) rotate(-67.71)"/><line class="cls-6" x1="946.7" y1="131.01" x2="942.63" y2="129.34"/><ellipse class="cls-8" cx="940.07" cy="128.29" rx="4.14" ry="2.76" transform="matrix(0.38, -0.93, 0.93, 0.38, 464.86, 949.49)"/><line class="cls-6" x1="942.16" y1="144.22" x2="938.1" y2="142.55"/><ellipse class="cls-8" cx="935.54" cy="141.5" rx="4.14" ry="2.76" transform="matrix(0.38, -0.93, 0.93, 0.38, 449.82, 953.5)"/><line class="cls-6" x1="937.63" y1="157.43" x2="933.56" y2="155.76"/><ellipse class="cls-8" cx="931.01" cy="154.71" rx="4.14" ry="2.76" transform="matrix(0.38, -0.93, 0.93, 0.38, 434.79, 957.5)"/><line class="cls-6" x1="933.1" y1="170.63" x2="929.03" y2="168.97"/><ellipse class="cls-8" cx="926.47" cy="167.92" rx="4.14" ry="2.76" transform="matrix(0.38, -0.93, 0.93, 0.38, 419.75, 961.51)"/><line class="cls-6" x1="928.57" y1="183.84" x2="924.5" y2="182.17"/><ellipse class="cls-8" cx="921.94" cy="181.13" rx="4.14" ry="2.76" transform="translate(404.72 965.51) rotate(-67.71)"/><circle class="cls-9" cx="957.23" cy="121.55" r="2.76" transform="translate(410.38 916.55) rotate(-62.71)"/><circle class="cls-10" cx="957.23" cy="121.55" r="2.76" transform="translate(410.38 916.55) rotate(-62.71)"/><circle class="cls-9" cx="952.7" cy="134.76" r="2.76" transform="translate(396.19 919.67) rotate(-62.71)"/><circle class="cls-10" cx="952.7" cy="134.76" r="2.76" transform="translate(396.19 919.67) rotate(-62.71)"/><circle class="cls-9" cx="948.16" cy="147.97" r="2.76" transform="translate(381.99 922.8) rotate(-62.71)"/><circle class="cls-10" cx="948.16" cy="147.97" r="2.76" transform="translate(381.99 922.8) rotate(-62.71)"/><circle class="cls-9" cx="943.63" cy="161.17" r="2.76" transform="translate(367.8 925.92) rotate(-62.71)"/><circle class="cls-10" cx="943.63" cy="161.17" r="2.76" transform="translate(367.8 925.92) rotate(-62.71)"/><circle class="cls-9" cx="939.1" cy="174.38" r="2.76" transform="translate(353.61 929.04) rotate(-62.71)"/><circle class="cls-10" cx="939.1" cy="174.38" r="2.76" transform="translate(353.61 929.04) rotate(-62.71)"/><circle class="cls-9" cx="934.56" cy="187.59" r="2.76" transform="translate(339.42 932.17) rotate(-62.71)"/><circle class="cls-10" cx="934.56" cy="187.59" r="2.76" transform="translate(339.42 932.17) rotate(-62.71)"/><circle class="cls-2" cx="859.3" cy="503.45" r="9.42"/><circle class="cls-2" cx="1000.91" cy="517.98" r="10.06"/></svg>