<svg id="Shadow" xmlns="http://www.w3.org/2000/svg" viewBox="0 0 1792 768"><defs><style>.cls-1,.cls-2,.cls-7{fill:#24265b;}.cls-1{opacity:0.1;}.cls-2,.cls-3,.cls-4,.cls-5,.cls-6,.cls-7{stroke:#24265b;}.cls-2,.cls-7{stroke-miterlimit:10;}.cls-2{stroke-width:1.2px;}.cls-3{fill:#6183b0;}.cls-3,.cls-4,.cls-5,.cls-6{stroke-linecap:round;stroke-linejoin:round;}.cls-3,.cls-4,.cls-5,.cls-6,.cls-7{stroke-width:3.92px;}.cls-4,.cls-8{fill:#fff;}.cls-5{fill:none;}.cls-6{fill:#d6cf90;}</style></defs><title>topic</title><ellipse class="cls-1" cx="910" cy="666.29" rx="126" ry="35.71"/><rect class="cls-2" x="842.72" y="641.66" width="76.25" height="14.22" rx="7.11" ry="7.11" transform="translate(-175.51 364.33) rotate(-21.3)"/><rect class="cls-2" x="894.12" y="646.78" width="76.25" height="14.22" rx="6.82" ry="6.82" transform="translate(-202.05 553.73) rotate(-30)"/><circle class="cls-2" cx="849.46" cy="504.14" r="9.42"/><circle class="cls-2" cx="982.51" cy="523.3" r="10.06"/><path class="cls-3" d="M888.86,649.77c12,1.6,49,.56,63.93-1.27,22.67-2.77,36.21-16.05,40-37.47,8-45.13-22-65.54-20.76-85.25,1.09-17.83,24.62-43.2,7-70.56-4.56-7.1-16.68-5.25-17.9,3.48-3.5,25.06-19.78,28.78-26.45,18.37C927.06,465,908.66,430.47,902.1,447c-7.74,19.49-27.61,1.33-24.91-29.44,1-11.34-15.46-18-24.85,2.75-17,37.5,11,73.55,7.53,106.44-1.89,18-25.68,40.56-25.91,68.6S854.8,645.24,888.86,649.77Z"/><path class="cls-4" d="M901.94,471.74c4,2.93,28.16,8.89,33.11,12.75,11.42,8.91,32.06-.35,31.51-19.36-0.27-9.25,8.39-7.48,10.34-4,11,19.39-10.62,57.25-10.72,65.78C966,543,990,564.72,988.11,599.21c-1,19.55-20.11,31.91-29.07,30.48-5.33-.85-9.41-4.08-6.45-9.35,11-19.6,11.23-52.79-12.56-50.19-8.68.95-45-.62-50.13-1.72-13.1-2.81-17.33-11.2-17-20.66,0.6-16.41,10.34-21,10.33-37.25,0-10.49-2.87-28.12-5-34.84C875.37,466.94,882,457.3,901.94,471.74Z"/><line class="cls-5" x1="964.96" y1="559.26" x2="955.82" y2="548.63"/><circle class="cls-4" cx="961.36" cy="554.21" r="2.6" transform="translate(55.99 1195.81) rotate(-65.29)"/><rect class="cls-4" x="909.23" y="518.33" width="15.6" height="44.19" rx="3" ry="3" transform="translate(368.08 1452.37) rotate(-89.47)"/><rect class="cls-4" x="901.08" y="597.38" width="28.59" height="44.19" rx="3" ry="3" transform="translate(287.39 1529.03) rotate(-89.47)"/><g id="Guitar"><path class="cls-6" d="M912.29,189.25c1.19-4.79-11.72-9.55-10.94-13.14,2.2-10.08,16-61.84,21.42-79.37,2.32-7.45,7.75-9.88,12.57-7.14s10.77,11.78,11.17,20.37c0.38,8.15-7.76,8.81-7.22,11.44,0.94,4.53,4.49,24.65,9.77,42.66,0.86,2.93-13,6.47-14.93,26.54C932.94,203.17,907.48,208.59,912.29,189.25Z"/><path class="cls-7" d="M900.79,491c-1-6.09,10.57-269,11.5-301.76,0.09-3,21.81-2.62,21.85,1.36s1.23,292.95.42,299.17S901.78,497.1,900.79,491Z"/></g><rect class="cls-4" x="901.16" y="98.4" width="15.6" height="9.53" rx="4.77" ry="4.77" transform="translate(580.98 957.14) rotate(-75.47)"/><line class="cls-4" x1="919.44" y1="105.78" x2="913.59" y2="104.27"/><rect class="cls-4" x="896.06" y="118.03" width="15.6" height="9.53" rx="4.77" ry="4.77" transform="translate(558.16 966.91) rotate(-75.47)"/><line class="cls-4" x1="914.34" y1="125.41" x2="908.49" y2="123.9"/><rect class="cls-4" x="890.96" y="137.66" width="15.6" height="9.53" rx="4.77" ry="4.77" transform="translate(535.34 976.68) rotate(-75.47)"/><line class="cls-4" x1="909.25" y1="145.04" x2="903.4" y2="143.53"/><rect class="cls-4" x="885.87" y="157.29" width="15.6" height="9.53" rx="4.77" ry="4.77" transform="translate(512.51 986.45) rotate(-75.47)"/><line class="cls-4" x1="904.15" y1="164.67" x2="898.3" y2="163.16"/><circle class="cls-8" cx="928.74" cy="108.7" r="3.9" transform="translate(441.7 906.92) rotate(-65.29)"/><circle class="cls-5" cx="928.74" cy="108.7" r="3.9" transform="translate(441.7 906.92) rotate(-65.29)"/><circle class="cls-8" cx="923.65" cy="128.33" r="3.9" transform="translate(420.9 913.72) rotate(-65.29)"/><circle class="cls-5" cx="923.65" cy="128.33" r="3.9" transform="translate(420.9 913.72) rotate(-65.29)"/><circle class="cls-8" cx="918.55" cy="147.96" r="3.9" transform="translate(400.1 920.51) rotate(-65.29)"/><circle class="cls-5" cx="918.55" cy="147.96" r="3.9" transform="translate(400.1 920.51) rotate(-65.29)"/><circle class="cls-8" cx="913.46" cy="167.59" r="3.9" transform="translate(379.3 927.31) rotate(-65.29)"/><circle class="cls-5" cx="913.46" cy="167.59" r="3.9" transform="translate(379.3 927.31) rotate(-65.29)"/><circle class="cls-4" cx="971.5" cy="589.62" r="5.2" transform="translate(-64.97 1055.67) rotate(-55.47)"/><circle class="cls-4" cx="969.22" cy="571.37" r="5.2" transform="translate(-50.92 1045.89) rotate(-55.47)"/></svg>