<svg id="Shadow" xmlns="http://www.w3.org/2000/svg" viewBox="0 0 1792 768"><defs><style>.cls-1,.cls-2,.cls-5,.cls-6{fill:#24265b;}.cls-1{opacity:0.1;}.cls-2,.cls-3,.cls-4,.cls-6{stroke:#24265b;}.cls-2,.cls-6{stroke-miterlimit:10;}.cls-2{stroke-width:1.2px;}.cls-3{fill:#fff;}.cls-3,.cls-4{stroke-linecap:round;stroke-linejoin:round;stroke-width:3.25px;}.cls-4{fill:#e2774d;}.cls-6{stroke-width:1.28px;}</style></defs><title>topic</title><ellipse class="cls-1" cx="910.54" cy="622.72" rx="57.55" ry="16.31"/><rect class="cls-2" x="869.81" y="610.03" width="43.19" height="8.06" rx="4.03" ry="4.03" transform="translate(-162.18 365.79) rotate(-21.3)"/><rect class="cls-2" x="898.92" y="612.93" width="43.19" height="8.06" rx="4.03" ry="4.03" transform="translate(-185.15 542.92) rotate(-30)"/><circle class="cls-2" cx="883.74" cy="536.29" r="5.33"/><circle class="cls-2" cx="948.46" cy="541.99" r="5.7"/><g id="Guitar"><line class="cls-3" x1="936.82" y1="405.85" x2="931.56" y2="407.49"/><ellipse class="cls-3" cx="940.4" cy="404.91" rx="4.08" ry="2.72" transform="translate(345.8 1238.43) rotate(-77.79)"/><line class="cls-3" x1="940.89" y1="391.98" x2="935.62" y2="393.62"/><ellipse class="cls-3" cx="944.47" cy="391.04" rx="4.08" ry="2.72" transform="translate(362.56 1231.46) rotate(-77.79)"/><line class="cls-3" x1="916.14" y1="393.5" x2="921.4" y2="391.86"/><ellipse class="cls-3" cx="912.56" cy="394.44" rx="4.08" ry="2.72" transform="translate(334.08 1202.96) rotate(-77.79)"/><line class="cls-3" x1="914.91" y1="407.82" x2="920.17" y2="406.18"/><ellipse class="cls-3" cx="911.33" cy="408.76" rx="4.08" ry="2.72" transform="translate(319.11 1213.05) rotate(-77.79)"/><path class="cls-4" d="M927.31,415.37s-15.7,2.55-15.79.86,2.8-29.14,3.31-31.55,5.89-2.73,11.6-4.42c4.46-1.32,6.3,0,11.94.17,2.54,0.09,1.67,3.93,1.67,3.93s-6.42,21.15-7.06,24.89S927.31,415.37,927.31,415.37Z"/><path class="cls-4" d="M898.09,610.11c7.55,3,22.74,5.66,30.5,4.91C939,614,952,607.44,955,588.38c3.34-21.27-14.89-33.4-14-41.48,1.13-10,8.59-19.56,8.31-29.57s-12.73-18.46-21-18.67c-6.3-.16-10.81-0.71-18.25-0.37-9.3.42-16.7,8.09-18.59,18.29-1.56,8.41,5.33,18.23,4.78,25.31-0.48,6.14-11.19,13.63-15.62,31.66C877.49,586.67,882.63,604.06,898.09,610.11Z"/><path class="cls-4" d="M891.55,612.35c7.82,3.06,23.55,5.86,31.59,5.09,10.77-1,21.79-9.15,24.9-28.9,3.46-22-15.42-34.59-14.48-43,1.17-10.38,8.89-20.25,8.6-30.63s-10.69-17.82-19.21-18c-6.52-.17-11.2-0.74-18.9-0.39-9.63.43-17.3,8.38-19.25,18.95-1.61,8.71,5.52,18.88,4.95,26.21-0.5,6.36-11.59,14.12-16.18,32.79C870.22,588.07,875.54,606.07,891.55,612.35Z"/><path class="cls-5" d="M910.76,528.21c-7.13.71-9.75,6.17-10.1,11.45-0.5,7.55,4.82,12.91,11.65,12.79,6.22-.11,9.91-5,11.08-12.23C924.52,533.19,917.89,527.5,910.76,528.21Z"/><path class="cls-6" d="M902.2,522.32c0.65-11.51,6.53-89.13,9.32-106.09,0.68-4.16,15.81-4.9,15.79-.86,0,2.24-4.28,94.07-6.6,107.56C920.22,525.77,902,525.15,902.2,522.32Z"/></g><rect class="cls-3" x="901.11" y="549.79" width="10.88" height="27.21" transform="translate(244.78 1400.83) rotate(-83.54)"/></svg>