<svg id="Shadow" xmlns="http://www.w3.org/2000/svg" viewBox="0 0 1792 768"><defs><style>.cls-1,.cls-4,.cls-6{fill:#24265b;}.cls-1{opacity:0.1;}.cls-2{fill:#eeb9a9;}.cls-10,.cls-11,.cls-12,.cls-13,.cls-14,.cls-15,.cls-16,.cls-17,.cls-2,.cls-3,.cls-4,.cls-5,.cls-7,.cls-9{stroke:#24265b;stroke-linecap:round;stroke-linejoin:round;}.cls-10,.cls-11,.cls-12,.cls-13,.cls-14,.cls-15,.cls-16,.cls-17,.cls-2,.cls-3,.cls-4,.cls-7{stroke-width:3px;}.cls-3,.cls-9{fill:none;}.cls-11,.cls-5,.cls-8{fill:#fff;}.cls-5,.cls-9{stroke-width:2.55px;}.cls-7{fill:#8dcc29;}.cls-8{opacity:0.5;}.cls-10{fill:#a9cf8a;}.cls-12{fill:#6183b0;}.cls-13{fill:#cc2929;}.cls-14{fill:#94809e;}.cls-15{fill:#d6cf90;}.cls-16{fill:#a8a887;}.cls-17{fill:#00ccb4;}</style></defs><title>topic</title><polygon class="cls-1" points="659.72 647.36 760.8 665 845 638.95 763.1 620.05 659.72 647.36"/><path class="cls-1" d="M867,665c-14.84,0-178.68,12.77-178.68,26.35s61.23,34,98.35,34,64.22-12.66,84-12.66,84.07,18.5,107.36,18.5,37.87-25.8,48.53-23.91,117.49,22,117.49,6.38-74.25-18.63-84.72-23.37-2.87-6.29-10.22-12.4-65.75-11.26-79.58-11.26-51.86,12.52-64.77,12.52S881.88,665,867,665Z"/><polygon class="cls-1" points="1023 642.53 1032 660.27 1090.84 670.51 1101.99 666.75 1107.11 668.48 1204 638.95 1121.58 625.76 1023 642.53"/><path class="cls-2" d="M976,418.49c-7.53-70.4-7.53-97.42-6.16-130.23,1.41,6.14,18.84,7.93,20.38-4.52s-2.84-99.56-20-112.6c-8.88-6.75-37-8.65-40.65-19.32a40.86,40.86,0,0,1-1.34-5.36,32.42,32.42,0,0,1-10.13,1.33c-7.17,0-21.4-8.49-27.42-14.87v1.88c0,15-11.79,25-25.06,28.49-15.57,4.12-28.35,13.32-33.49,28.87s-19.81,73.1-19.81,113.53c0,10.41,29.34,11.88,28.84-2.79-0.32-9.24,13.63-40.08,18.21-56.13,3.56,28.44,19.6,50.05,9.36,109.51C861.35,399.22,979,446.95,976,418.49Z"/><path class="cls-3" d="M922.51,183.19c4.68,1,7.88,7.09,4.76,11.15-1.87,2.44-5.95,1.88-7.19,1.43s-3.07-.72-3.56-2.89c-0.58-2.58,2.12-3.86,3.5-2.61s0.81,3.67.06,5.51a7.35,7.35,0,0,1-7.46,4c-4.29-.42-5.9-4.9-4.33-9.53"/><path class="cls-4" d="M965,654.13s7.68-79.68,10.12-117.66c0.69-10.78,3.95-89.52.9-118-1.52-14.21-2.73-26.65-3.69-37.73-5.2,8.22-84.49,12.84-106.21.43C865,410,871,428.52,870.43,431.49c-0.68,3.76-5.72,57.71-7.44,120.61-0.89,32.36,4.45,103.46,4.06,105.75l12.07,0.28c1.8-20,7.09-66.93,11.32-105.11,4.64-41.82,26.61-111.68,28.12-117.46a78.68,78.68,0,0,1,8.92-1.43c1.25,4.65,10,46.83,16.12,93.68S953,655.92,953,655.92l7,0.36Z"/><path class="cls-5" d="M989.06,652.62c-10.44-1.74-26.74,3.78-26.74,3.78-3.92.8-13.62-2-14.26,1.76s3.49,8.84,3.49,8.84l29,10.54,20.31-9.08S999.5,654.37,989.06,652.62Z"/><path class="cls-6" d="M950.1,664.91c-2.68,2.32,4.64,9.29,29.92,14.38,11.78,2.37,25.49-12.06,20.11-14.65-0.41,3.66-2-3-5.17-4.13s-9.47,2-8.47,5.31,0.29,7.82-4,7.91S950.74,668.65,950.1,664.91Z"/><path class="cls-6" d="M953.26,660.51s1,6.88,5.19,5.52c7.38-2.37,19.32,3.87,19.32,3.87s-13.13-9.43-17.44-7.94A6.84,6.84,0,0,1,953.26,660.51Z"/><path class="cls-6" d="M958.44,658.41a0.22,0.22,0,0,1,0-.1l0-.3a3.62,3.62,0,0,1,.28-0.91,4.36,4.36,0,0,1,.74-1.09,5,5,0,0,1,1.17-.93,6.26,6.26,0,0,1,.67-0.32,4.58,4.58,0,0,1,.68-0.2,3.86,3.86,0,0,1,1.23,0,3,3,0,0,1,.85.22,2,2,0,0,1,.31.15,1,1,0,0,1,.33,1.44l-0.11.14-0.1.11a2.33,2.33,0,0,1-.23.21c-0.14.13-.35,0.25-0.57,0.41s-0.24.14-.36,0.22a2.56,2.56,0,0,1-.38.21c-0.26.14-.53,0.25-0.79,0.37l-0.77.36c-0.26.11-.48,0.24-0.69,0.34l-0.53.27a0.44,0.44,0,0,1-.15.06,0.08,0.08,0,0,0-.05,0,0.78,0.78,0,0,1-1.26-.11Z"/><path class="cls-6" d="M962.11,657.53a0.21,0.21,0,0,1,0-.1l0-.3a3.63,3.63,0,0,1,.28-0.91,4.36,4.36,0,0,1,.74-1.09,5,5,0,0,1,1.17-.93,6.26,6.26,0,0,1,.67-0.32,4.58,4.58,0,0,1,.68-0.2,3.86,3.86,0,0,1,1.23,0,3,3,0,0,1,.85.22,2,2,0,0,1,.31.15,1,1,0,0,1,.33,1.44l-0.11.14-0.1.11a2.37,2.37,0,0,1-.23.21c-0.14.13-.35,0.25-0.57,0.41s-0.24.14-.36,0.22a2.56,2.56,0,0,1-.38.21c-0.26.14-.53,0.25-0.79,0.37l-0.77.36c-0.26.11-.48,0.24-0.69,0.34l-0.53.27a0.44,0.44,0,0,1-.15.06,0.08,0.08,0,0,0-.05,0,0.78,0.78,0,0,1-1.26-.11Z"/><path class="cls-6" d="M970.65,657.88a2.33,2.33,0,0,1-.14-0.36,3.92,3.92,0,0,1-.18-0.94,4.47,4.47,0,0,1,.14-1.38,4.29,4.29,0,0,1,.77-1.53,3.73,3.73,0,0,1,.64-0.65,3.47,3.47,0,0,1,.74-0.48,3.38,3.38,0,0,1,.76-0.26,2.76,2.76,0,0,1,.69-0.08,2.16,2.16,0,0,1,.56,0,3.34,3.34,0,0,1,.42.11,2.15,2.15,0,0,1,.35.14,1,1,0,0,1,.27,1.52l-0.15.18a2.68,2.68,0,0,1-.22.22c-0.13.13-.33,0.26-0.51,0.43a2.7,2.7,0,0,0-.28.24c-0.08.1-.19,0.15-0.26,0.24s-0.17.14-.24,0.23a2.31,2.31,0,0,0-.24.23,4.65,4.65,0,0,0-.49.57c-0.16.22-.31,0.46-0.45,0.68l-0.34.57a1.64,1.64,0,0,0-.14.22A0.85,0.85,0,0,1,970.65,657.88Z"/><path class="cls-6" d="M967.3,658a2.34,2.34,0,0,1-.14-0.36,3.92,3.92,0,0,1-.18-0.94,4.46,4.46,0,0,1,.14-1.38,4.29,4.29,0,0,1,.77-1.53,3.75,3.75,0,0,1,.64-0.65,3.48,3.48,0,0,1,.74-0.48,3.38,3.38,0,0,1,.76-0.26,2.76,2.76,0,0,1,.68-0.08,2.16,2.16,0,0,1,.56,0,3.35,3.35,0,0,1,.42.11,2.13,2.13,0,0,1,.35.14,1,1,0,0,1,.27,1.52l-0.15.18a2.72,2.72,0,0,1-.22.22c-0.13.13-.33,0.26-0.51,0.43a2.7,2.7,0,0,0-.28.24c-0.08.1-.19,0.15-0.26,0.24s-0.17.14-.24,0.23a2.31,2.31,0,0,0-.24.23,4.67,4.67,0,0,0-.49.57c-0.16.22-.31,0.46-0.45,0.68l-0.34.57a1.7,1.7,0,0,0-.14.22A0.85,0.85,0,1,1,967.3,658Z"/><path class="cls-7" d="M809.6,259.56c0,8.06,28.33,14.1,45.54,14.1,0.15,15.07.19,42.5,0.77,63.39,0.61,22-3.19,37.5-.77,55.26,3.34,24.55,130.13,18.68,127.57,4.6s-12.88-97.51-12.88-110.14c0-5.15,1.22-21.47,1.22-21.47s26.29-4.93,26.29-14.92c0-25.15-8.23-42.51-14.83-68-3.83-14.79-26.95-19.18-41.41-23.78-2.07-2.59-8.65-5.34-10-4.13,14.63,20.25,6.89,38.25-3.75,47.5-36.24-6.64-48.74-34-44-48.77-0.71-2.26-7.21.07-8.19,2.2-17.21,2.84-43.49,11.5-48.09,30.37C819.79,215.43,811.38,230.54,809.6,259.56Z"/><path class="cls-3" d="M967.69,207.64s5.11,32.67,3.35,57.64"/><path class="cls-3" d="M866.13,219.58c-0.71,18.27-6.12,34.86-6.76,47.8-0.23,4.68-1.54,6.27-5,6.27"/><path class="cls-3" d="M875.12,155.39c-5.9,35.66,39.46,53.44,54.34,55.81,11.22-11.14,24.38-26.55,11.64-52.61"/><path class="cls-3" d="M859.38,265.28c-3.2,4.23-50.3-4.31-49.21-12.57"/><path class="cls-3" d="M971.76,259.56c8.15,0,25.57-9.19,25.57-12.94"/><path class="cls-3" d="M854.4,384c5,28.44,127.42,20.27,127.42,6.63"/><path class="cls-8" d="M925.07,107.77c1.34-2.28,23.22-2.64,25.62-.13s-2.89,8.62-10.91,8.62S923.14,111.08,925.07,107.77Z"/><path class="cls-9" d="M925.07,107.77c1.34-2.28,23.22-2.64,25.62-.13s-2.89,8.62-10.91,8.62S923.14,111.08,925.07,107.77Z"/><path class="cls-2" d="M927,100.94c-3.86,6.48,3.86,7.89,5.45,15.36,1.31,6.11-17.7,5.65-13.79-1"/><path class="cls-8" d="M894.54,108.3c1.34-2.28,23.22-2.64,25.62-.13s-2.89,8.62-10.91,8.62S892.61,111.6,894.54,108.3Z"/><path class="cls-9" d="M894.54,108.3c1.34-2.28,23.22-2.64,25.62-.13s-2.89,8.62-10.91,8.62S892.61,111.6,894.54,108.3Z"/><path class="cls-9" d="M927.7,108.3c-1.12-2-5.1-2-7,0"/><path class="cls-9" d="M884.43,100.94a40.25,40.25,0,0,0,12.08,6.44"/><path class="cls-9" d="M944.63,103a21,21,0,0,1,4.11,3.27"/><path class="cls-10" d="M689.24,640c2.26-1.47,3.19.57,3.19,0.57s63.09,11.76,65.33,11.76,63.95-20.69,63.95-20.69,1.85-1.16.28-1.43l-67.27-11.55-62.31,1.22a3.94,3.94,0,0,1-3.17-.57C685.6,616.69,687,641.42,689.24,640Z"/><path class="cls-11" d="M693.6,635l64.16,11.33L814.41,628s-4.71-7-1.12-14.41c-14.44,0-57.41,3.58-57.41,3.58S709.21,616.28,694,620C692.15,624.18,692.48,633.29,693.6,635Z"/><path class="cls-10" d="M688.79,619.07a4.17,4.17,0,0,0,4.06.74s63.22,11.78,64.9,11.78,56.93-18.47,59.54-19.27,2.66-3.27.57-3.57c-9.57-1.35-59.21-10.16-59.21-10.16-2.8.58-2.63-1.37-3.94-.68S688.79,619.07,688.79,619.07Z"/><path class="cls-11" d="M757.76,646.31s-2.33-7.77,0-14.71"/><path class="cls-12" d="M692.69,614.35c1.8,0.33,65.07,11.41,65.07,11.41l61.59-21s2.45-15.66-1.12-15.91c-0.67,0-2.63-1.68-4.93-1.77-17.16-2.35-58.48-7.29-58.48-7.29l-60.14,16s-0.7,2.16.79,2.41L699,598.8v11.4L693.58,612C692.06,612.47,690.88,614,692.69,614.35Z"/><path class="cls-11" d="M699,610.21c5.37,0.77,58.72,10.08,58.72,10.08s2.81-6.15.94-11.2C752.33,607.87,699,598.8,699,598.8A29.21,29.21,0,0,1,699,610.21Z"/><path class="cls-13" d="M694.57,590.73C696.36,591.05,759,602,759,602l61-20.76s2.43-15.5-1.11-15.75c-0.67,0-2.6-1.67-4.89-1.75-17-2.33-58-8-58-8l-59.43,16.64s-0.69,2.14.78,2.38l3.54,0.58v11.29l-5.41,1.76C694,588.86,692.79,590.4,694.57,590.73Z"/><path class="cls-11" d="M700.86,586.62c5.32,0.76,58.14,10,58.14,10s2.78-6.09.93-11.09c-6.3-1.2-59.07-10.18-59.07-10.18A28.92,28.92,0,0,1,700.86,586.62Z"/><path class="cls-14" d="M809,571.69c-1.29.24-46.4,8.13-46.4,8.13l-43.92-15s-1.75-12.29.8-12.47c0.48,0,1.87-1.2,3.52-1.26,12.24-1.68,40.88-5.65,40.88-5.65l43.72,11.86s0.5,1.54-.56,1.72l-2.55.41v8.13l3.89,1.27C809.48,569.23,810.32,571.46,809,571.69Z"/><path class="cls-11" d="M804.51,567.61c-3.83.55-41.88,7.19-41.88,7.19s-2-4.38-.67-8c4.54-.86,42.54-7.33,42.54-7.33A20.83,20.83,0,0,0,804.51,567.61Z"/><path class="cls-15" d="M799.7,554.35l-40.45,7.09L721,548.4s-1.53-10.71.7-10.87c0.42,0,1.63-1,3.07-1.1,10.67-1.46,35.63-4.92,35.63-4.92l38.11,10.33s0.44,1.34-.49,1.5l-2.22.36v7.09l3.39,1.1C800.09,552.2,800.82,554.14,799.7,554.35Z"/><path class="cls-11" d="M795.76,550.79c-3.34.48-36.5,6.26-36.5,6.26s-1.75-3.82-.58-7c4-.75,37.08-6.39,37.08-6.39A18.16,18.16,0,0,0,795.76,550.79Z"/><path class="cls-13" d="M719.31,537.68l33.34,7.79,32.48-9.06s1.73-8-.12-8.27a8.79,8.79,0,0,0-2.5-1.06c-8.81-1.71-30-5.47-30-5.47l-31.58,6.53s-0.43,1.1.34,1.27l1.83,0.4-0.33,5.9-2.88.76C719,536.68,718.38,537.45,719.31,537.68Z"/><path class="cls-11" d="M722.71,535.72c2.76,0.55,30.09,6.92,30.09,6.92s1.63-3.1.81-5.77c-3.26-.81-30.57-7.05-30.57-7.05A15.14,15.14,0,0,1,722.71,535.72Z"/><path class="cls-13" d="M1042.28,640c2.26-1.47,3.19.57,3.19,0.57s63.09,11.76,65.33,11.76,63.95-20.69,63.95-20.69,1.85-1.16.28-1.43l-67.27-11.55-62.31,1.22a3.94,3.94,0,0,1-3.17-.57C1038.65,616.69,1040,641.42,1042.28,640Z"/><path class="cls-11" d="M1046.64,635l64.16,11.33L1167.46,628s-4.71-7-1.12-14.41c-14.44,0-57.41,3.58-57.41,3.58s-46.66-.92-61.87,2.82C1045.2,624.18,1045.52,633.29,1046.64,635Z"/><path class="cls-13" d="M1041.83,619.07a4.17,4.17,0,0,0,4.06.74s63.22,11.78,64.9,11.78,56.93-18.47,59.54-19.27,2.66-3.27.57-3.57c-9.57-1.35-59.21-10.16-59.21-10.16-2.8.58-2.63-1.37-3.94-.68S1041.83,619.07,1041.83,619.07Z"/><path class="cls-11" d="M1110.8,646.31s-2.33-7.77,0-14.71"/><path class="cls-14" d="M1040.73,614.35c1.8,0.33,65.07,11.41,65.07,11.41l61.59-21s2.45-15.66-1.12-15.91c-0.67,0-2.63-1.68-4.93-1.77-17.16-2.35-58.48-7.29-58.48-7.29l-60.14,16s-0.7,2.16.79,2.41l3.58,0.58v11.4l-5.46,1.77C1040.11,612.47,1038.93,614,1040.73,614.35Z"/><path class="cls-11" d="M1047.08,610.21c5.37,0.77,58.72,10.08,58.72,10.08s2.81-6.15.94-11.2c-6.36-1.21-59.66-10.28-59.66-10.28A29.21,29.21,0,0,1,1047.08,610.21Z"/><path class="cls-15" d="M1049.22,593.21c2-1.31,2.85.51,2.85,0.51s56.49,10.53,58.51,10.53,57.27-18.53,57.27-18.53,1.65-1,.25-1.28l-60.24-10.34-55.8,1.09a3.53,3.53,0,0,1-2.84-.51C1046,572.37,1047.2,594.52,1049.22,593.21Z"/><path class="cls-11" d="M1053.13,588.75l57.45,10.15,50.74-16.36s-4.22-6.23-1-12.91c-12.93,0-51.41,3.2-51.41,3.2s-41.79-.82-55.41,2.52C1051.83,579.08,1052.12,587.25,1053.13,588.75Z"/><path class="cls-15" d="M1048.82,574.51a3.74,3.74,0,0,0,3.64.66s56.61,10.55,58.12,10.55,51-16.54,53.32-17.25,2.38-2.93.51-3.19c-8.57-1.21-53-9.1-53-9.1-2.51.52-2.36-1.23-3.52-.6S1048.82,574.51,1048.82,574.51Z"/><path class="cls-11" d="M1110.58,598.9s-2.09-7,0-13.18"/><path class="cls-12" d="M1060.82,571.69c1.29,0.24,46.4,8.13,46.4,8.13l43.92-15s1.75-12.29-.8-12.47c-0.48,0-1.87-1.2-3.52-1.26-12.24-1.68-40.88-5.65-40.88-5.65l-43.72,11.86s-0.5,1.54.56,1.72l2.55,0.41v8.13l-3.89,1.27C1060.37,569.23,1059.53,571.46,1060.82,571.69Z"/><path class="cls-11" d="M1065.35,567.61c3.83,0.55,41.88,7.19,41.88,7.19s2-4.38.67-8c-4.54-.86-42.54-7.33-42.54-7.33A20.83,20.83,0,0,1,1065.35,567.61Z"/><path class="cls-13" d="M1066.15,554.35l40.45,7.09,38.29-13s1.53-10.71-.7-10.87c-0.42,0-1.63-1-3.07-1.1-10.67-1.46-35.63-4.92-35.63-4.92l-38.11,10.33s-0.44,1.34.49,1.5l2.22,0.36v7.09l-3.39,1.1C1065.77,552.2,1065,554.14,1066.15,554.35Z"/><path class="cls-11" d="M1070.1,550.79c3.34,0.48,36.5,6.26,36.5,6.26s1.75-3.82.58-7c-4-.75-37.08-6.39-37.08-6.39A18.16,18.16,0,0,1,1070.1,550.79Z"/><path class="cls-16" d="M1140.55,537.68l-33.34,7.79-32.48-9.06s-1.73-8,.12-8.27a8.79,8.79,0,0,1,2.5-1.06c8.81-1.71,30-5.47,30-5.47l31.58,6.53s0.43,1.1-.34,1.27l-1.83.4,0.33,5.9,2.88,0.76C1140.81,536.68,1141.47,537.45,1140.55,537.68Z"/><path class="cls-11" d="M1137.14,535.72c-2.76.55-30.09,6.92-30.09,6.92s-1.63-3.1-.81-5.77c3.26-.81,30.57-7.05,30.57-7.05A15.14,15.14,0,0,0,1137.14,535.72Z"/><polygon class="cls-17" points="1062.54 594.23 1054.86 583.96 1045.42 640.15 1052.75 650.37 1092.72 657.5 1102.6 600.4 1062.54 594.23"/><polygon class="cls-11" points="1058.33 589.5 1052.29 641.7 1056.02 647.2 1088.86 652.81 1098.05 599.7 1093.44 591.84 1058.33 589.5"/><polygon class="cls-17" points="1054.84 584.04 1045.4 640.23 1085.38 647.36 1095.25 590.26 1054.84 584.04"/><path class="cls-5" d="M855.47,658.7c-13.5-.44-18.05,14.81-18.05,14.81s15,12.55,25.17,12.55,21.91-10.92,22.18-15.49-4.27-10.85-9.46-11.9S866.17,659.05,855.47,658.7Z"/><path class="cls-6" d="M884.76,670.58c2.4,4.18-11.8,15.49-22.18,15.49s-27.72-4.14-26.93-12.27c0.21-2.11.55-5.18,4.92-6.28-1.15,2.53.62,3.87,1.54,1.24,1.42-4.06,14.71-3,15.07,1.94,0.18,2.58,1.51,7.55,9.68,7.39S883.61,674.82,884.76,670.58Z"/><path class="cls-6" d="M866.86,673.51s4.24-6.46,7-6.27,2.56-3.79,2.56-3.79,4,7.44,0,7.2S866.86,673.51,866.86,673.51Z"/><path class="cls-6" d="M864.28,657.3a0.31,0.31,0,0,1,.1-0.06l0.3-.16a4.36,4.36,0,0,1,1-.34,5.27,5.27,0,0,1,1.52-.06,6.08,6.08,0,0,1,1.67.43,7.79,7.79,0,0,1,.77.39,5.87,5.87,0,0,1,.67.48,4.9,4.9,0,0,1,1,1.07,3.71,3.71,0,0,1,.45.91,2.6,2.6,0,0,1,.11.38,1,1,0,0,1-1.14,1.15l-0.12,0a2.81,2.81,0,0,1-.34-0.09c-0.21-.06-0.47-0.19-0.78-0.3-0.16-.06-0.3-0.14-0.46-0.22a3.89,3.89,0,0,1-.49-0.24c-0.33-.16-0.65-0.35-1-0.52s-0.66-.33-1-0.46-0.63-.26-0.9-0.37L865,659,864.8,659a0.13,0.13,0,0,0-.07,0,0.83,0.83,0,0,1-.68-1.27Z"/><path class="cls-6" d="M857.74,657.57l0.11,0,0.34,0a4.36,4.36,0,0,1,1.09,0,5.27,5.27,0,0,1,1.44.48,6.09,6.09,0,0,1,1.41,1,7.8,7.8,0,0,1,.58.64,5.85,5.85,0,0,1,.46.68,4.9,4.9,0,0,1,.52,1.34,3.7,3.7,0,0,1,.1,1,2.59,2.59,0,0,1,0,.39,1,1,0,0,1-1.48.68l-0.11-.06a2.82,2.82,0,0,1-.29-0.21c-0.18-.13-0.37-0.34-0.63-0.56s-0.23-.24-0.36-0.37a3.9,3.9,0,0,1-.37-0.39c-0.25-.27-0.49-0.56-0.74-0.83s-0.5-.54-0.75-0.78-0.5-.46-0.72-0.66l-0.56-.47a0.77,0.77,0,0,1-.14-0.13,0.13,0.13,0,0,0-.06,0,0.83,0.83,0,0,1-.19-1.43Z"/><path class="cls-6" d="M866.7,662.89l-0.29-.21c-0.17-.12-0.42-0.39-0.67-0.55l-0.81-.65-0.9-.68c-0.61-.42-1.18-0.81-1.65-1.16-0.23-.18-0.44-0.32-0.59-0.45a0.5,0.5,0,0,1-.19-0.19,0.85,0.85,0,0,1-.08-1.69s0.19-.09.46-0.17a3.62,3.62,0,0,1,1.11-.13,4.52,4.52,0,0,1,.73.09,4,4,0,0,1,.78.23,5.52,5.52,0,0,1,1.48.9,6.73,6.73,0,0,1,1.13,1.25l0.39,0.65c0.11,0.22.2,0.45,0.29,0.64a3.65,3.65,0,0,1,.24.92c0,0.22,0,.36,0,0.36A0.94,0.94,0,0,1,866.7,662.89Z"/></svg>