<svg id="Shadow" xmlns="http://www.w3.org/2000/svg" viewBox="0 0 1792 768"><defs><style>.cls-1,.cls-4,.cls-6{fill:#24265b;}.cls-1{opacity:0.1;}.cls-2{fill:#eeb9a9;}.cls-2,.cls-3,.cls-4,.cls-5,.cls-7,.cls-8{stroke:#24265b;stroke-linecap:round;stroke-linejoin:round;}.cls-2,.cls-3,.cls-4,.cls-7,.cls-8{stroke-width:3px;}.cls-3{fill:none;}.cls-5,.cls-8{fill:#fff;}.cls-5{stroke-width:2.55px;}.cls-7{fill:#cc294c;}</style></defs><title>topic</title><path class="cls-1" d="M867,665c-14.84,0-178.68,12.77-178.68,26.35s61.23,34,98.35,34,64.22-12.66,84-12.66,84.07,18.5,107.36,18.5,37.87-25.8,48.53-23.91,117.49,22,117.49,6.38-74.25-18.63-84.72-23.37-2.87-6.29-10.22-12.4-39.79-11-53.61-11-77.83,12.25-90.73,12.25S881.88,665,867,665Z"/><path class="cls-2" d="M976,418.49c-7.53-70.4-7.53-97.42-6.16-130.23,1.41,6.14,18.84,7.93,20.38-4.52s-2.84-99.56-20-112.6c-8.88-6.75-37-8.65-40.65-19.32a40.86,40.86,0,0,1-1.34-5.36,32.42,32.42,0,0,1-10.13,1.33c-7.17,0-21.4-8.49-27.42-14.87v1.88c0,15-11.79,25-25.06,28.49-15.57,4.12-28.35,13.32-33.49,28.87s-19.81,73.1-19.81,113.53c0,10.41,29.34,11.88,28.84-2.79-0.32-9.24,13.63-40.08,18.21-56.13,3.56,28.44,19.6,50.05,9.36,109.51C861.35,399.22,979,446.95,976,418.49Z"/><path class="cls-3" d="M922.51,183.19c4.68,1,7.88,7.09,4.76,11.15-1.87,2.44-5.95,1.88-7.19,1.43s-3.07-.72-3.56-2.89c-0.58-2.58,2.12-3.86,3.5-2.61s0.81,3.67.06,5.51a7.35,7.35,0,0,1-7.46,4c-4.29-.42-5.9-4.9-4.33-9.53"/><path class="cls-4" d="M965,654.13s7.68-79.68,10.12-117.66c0.69-10.78,3.95-89.52.9-118-1.52-14.21-2.73-26.65-3.69-37.73-5.2,8.22-84.49,12.84-106.21.43C865,410,871,428.52,870.43,431.49c-0.68,3.76-5.72,57.71-7.44,120.61-0.89,32.36,4.45,103.46,4.06,105.75l12.07,0.28c1.8-20,7.09-66.93,11.32-105.11,4.64-41.82,26.61-111.68,28.12-117.46a78.68,78.68,0,0,1,8.92-1.43c1.25,4.65,10,46.83,16.12,93.68S953,655.92,953,655.92l7,0.36Z"/><path class="cls-5" d="M989.06,652.62c-10.44-1.74-26.74,3.78-26.74,3.78-3.92.8-13.62-2-14.26,1.76s3.49,8.84,3.49,8.84l29,10.54,20.31-9.08S999.5,654.37,989.06,652.62Z"/><path class="cls-6" d="M950.1,664.91c-2.68,2.32,4.64,9.29,29.92,14.38,11.78,2.37,25.49-12.06,20.11-14.65-0.41,3.66-2-3-5.17-4.13s-9.47,2-8.47,5.31,0.29,7.82-4,7.91S950.74,668.65,950.1,664.91Z"/><path class="cls-6" d="M953.26,660.51s1,6.88,5.19,5.52c7.38-2.37,19.32,3.87,19.32,3.87s-13.13-9.43-17.44-7.94A6.84,6.84,0,0,1,953.26,660.51Z"/><path class="cls-6" d="M958.44,658.41a0.22,0.22,0,0,1,0-.1l0-.3a3.63,3.63,0,0,1,.28-0.91,4.37,4.37,0,0,1,.74-1.09,5,5,0,0,1,1.17-.93,6.26,6.26,0,0,1,.67-0.32,4.57,4.57,0,0,1,.68-0.2,3.86,3.86,0,0,1,1.23,0,2.94,2.94,0,0,1,.85.22,2.05,2.05,0,0,1,.31.15,1,1,0,0,1,.33,1.44l-0.11.14-0.1.11a2.33,2.33,0,0,1-.23.21c-0.14.13-.35,0.25-0.57,0.41s-0.24.14-.36,0.22a2.55,2.55,0,0,1-.38.21c-0.26.14-.53,0.25-0.79,0.37l-0.77.36c-0.26.11-.48,0.24-0.69,0.34l-0.53.27a0.44,0.44,0,0,1-.15.06,0.08,0.08,0,0,0-.05,0,0.78,0.78,0,0,1-1.26-.11Z"/><path class="cls-6" d="M962.11,657.53a0.21,0.21,0,0,1,0-.1l0-.3a3.61,3.61,0,0,1,.28-0.91,4.38,4.38,0,0,1,.74-1.09,5,5,0,0,1,1.17-.93,6.24,6.24,0,0,1,.67-0.32,4.56,4.56,0,0,1,.68-0.2,3.86,3.86,0,0,1,1.23,0,3,3,0,0,1,.85.22,2,2,0,0,1,.31.15,1,1,0,0,1,.33,1.44l-0.11.14-0.1.11a2.4,2.4,0,0,1-.23.21c-0.14.13-.35,0.25-0.57,0.41s-0.24.14-.36,0.22a2.55,2.55,0,0,1-.38.21c-0.26.14-.53,0.25-0.79,0.37l-0.77.36c-0.26.11-.48,0.24-0.69,0.34l-0.53.27a0.44,0.44,0,0,1-.15.06,0.08,0.08,0,0,0-.05,0,0.78,0.78,0,0,1-1.26-.11Z"/><path class="cls-6" d="M970.65,657.88a2.28,2.28,0,0,1-.14-0.36,3.92,3.92,0,0,1-.18-0.94,4.47,4.47,0,0,1,.14-1.38,4.29,4.29,0,0,1,.77-1.53,3.73,3.73,0,0,1,.64-0.65,3.48,3.48,0,0,1,.74-0.47,3.38,3.38,0,0,1,.76-0.26,2.75,2.75,0,0,1,.68-0.08,2.16,2.16,0,0,1,.56,0,3.35,3.35,0,0,1,.42.11,2.12,2.12,0,0,1,.35.14,1,1,0,0,1,.27,1.52l-0.15.18a2.71,2.71,0,0,1-.22.22c-0.13.13-.33,0.26-0.51,0.43a2.68,2.68,0,0,0-.28.24c-0.08.1-.19,0.15-0.26,0.24s-0.17.14-.24,0.23a2.31,2.31,0,0,0-.24.23,4.69,4.69,0,0,0-.49.57c-0.16.22-.31,0.46-0.45,0.68l-0.34.57a1.64,1.64,0,0,0-.14.22A0.85,0.85,0,0,1,970.65,657.88Z"/><path class="cls-6" d="M967.3,658a2.27,2.27,0,0,1-.14-0.36,3.92,3.92,0,0,1-.18-0.94,4.47,4.47,0,0,1,.14-1.38,4.29,4.29,0,0,1,.77-1.53,3.73,3.73,0,0,1,.64-0.65,3.48,3.48,0,0,1,.74-0.47,3.38,3.38,0,0,1,.76-0.26,2.75,2.75,0,0,1,.69-0.08,2.16,2.16,0,0,1,.56,0,3.33,3.33,0,0,1,.42.11,2.13,2.13,0,0,1,.35.14,1,1,0,0,1,.4,1.34,1,1,0,0,1-.12.18l-0.15.18a2.73,2.73,0,0,1-.22.22c-0.13.13-.33,0.26-0.51,0.43a2.67,2.67,0,0,0-.28.24c-0.08.1-.19,0.15-0.26,0.24s-0.17.14-.24,0.23a2.32,2.32,0,0,0-.24.23,4.65,4.65,0,0,0-.49.57c-0.16.22-.31,0.46-0.45,0.68l-0.34.57a1.64,1.64,0,0,0-.14.22A0.85,0.85,0,0,1,967.3,658Z"/><path class="cls-7" d="M809.6,259.56c0,8.06,28.33,14.1,45.54,14.1,0.15,15.07.19,42.5,0.77,63.39,0.61,22-3.19,37.5-.77,55.26,3.34,24.55,130.13,18.68,127.57,4.6s-12.88-97.51-12.88-110.14c0-5.15,1.22-21.47,1.22-21.47s26.29-4.93,26.29-14.92c0-25.15-8.23-42.51-14.83-68-3.83-14.79-26.95-19.18-41.41-23.78-2.07-2.59-8.65-5.34-10-4.13,14.63,20.25,6.89,38.25-3.75,47.5-36.24-6.64-48.74-34-44-48.77-0.71-2.26-7.21.07-8.19,2.2-17.21,2.84-43.49,11.5-48.09,30.37C819.79,215.43,811.38,230.54,809.6,259.56Z"/><path class="cls-3" d="M967.69,207.64s5.11,32.67,3.35,57.64"/><path class="cls-3" d="M866.13,219.58c-0.71,18.27-6.12,34.86-6.76,47.8-0.23,4.68-1.54,6.27-5,6.27"/><path class="cls-3" d="M875.12,155.39c-5.9,35.66,39.46,53.44,54.34,55.81,11.22-11.14,24.38-26.55,11.64-52.61"/><path class="cls-3" d="M859.38,265.28c-3.2,4.23-50.3-4.31-49.21-12.57"/><path class="cls-3" d="M971.76,259.56c8.15,0,25.57-9.19,25.57-12.94"/><path class="cls-3" d="M854.4,384c5,28.44,127.42,20.27,127.42,6.63"/><path class="cls-8" d="M924,215.55l-4.51,8.28-14.11-9.45,2.27,12.93-21.9-3.49,11.95,13.32-14.15,1.47,12.22,10.77L878.15,256l17.62,5.8L875,269.9l19.58,3.62L877,282.42l14.23,6.83-9.77,12.14,13.67-4.55-0.51,15.94,12.12-7.59,8.2,13.66,9.77-9.73,12.91,9.73s0.4-14.42,1.94-13.66,16.09,8.73,16.09,8.73l-2.36-12.52,7.76-3.61L952.46,290l8.54-4.55-11.16-8.5,10.64-7.08-10-5.2L961,257.73l-13.26-2.25,12.58-9.11-15.81-3.18,14.13-8-12.93.76,3.6-9.72L937.83,232l3.72-16-11.44,11.3Z"/><path class="cls-6" d="M906.52,253.32l0.05-6.84a37.83,37.83,0,0,0-.26-4.15Q906,240,906,239.25a1.64,1.64,0,0,1,.29-1.07,0.92,0.92,0,0,1,.73-0.34q1.34,0,1.34,2.92s-0.05,2.48-.16,7.4q0.12-.3.69-1.76t1.16-2.94q0.62-1.46,1.3-3,1.55-3.55,2.25-3.55a1,1,0,0,1,.71.27,0.84,0.84,0,0,1,.31.65,32.45,32.45,0,0,1-2,4.49,35.72,35.72,0,0,0-2.21,5.22v0.63q0.53,1.34,2.87,8.74t2.35,7.85a0.94,0.94,0,0,1-.35.75,1.19,1.19,0,0,1-.79.3l-0.84-.14q-0.9-5.12-1.86-8.92a43.26,43.26,0,0,0-2.53-7.25,11.36,11.36,0,0,0-1.12,2.32q-0.11,1.09-.11,1.72l0.23,6.68v3q0,1.92-1.23,1.92-1.05,0-1.05-1.82t0.24-5.05Q906.52,254.94,906.52,253.32Z"/><path class="cls-6" d="M917.75,246.75l-0.19-3q0-2.55,1.51-2.55a10.85,10.85,0,0,1,2.64.45q1.67,0.45,1.67,1.15a1.28,1.28,0,0,1-1.05,1.13,14.11,14.11,0,0,0-2.72-.69q0.05,0.77.05,1.55l-0.16,5.17s0,0.21.11,0.56l1.28-.05q1.74,0,1.74,1a0.89,0.89,0,0,1-.32.68,1.14,1.14,0,0,1-.8.29,8.46,8.46,0,0,1-1-.07h-0.91q0.11,1.37.11,2.72l-0.16,6.52a11,11,0,0,0,.07,2l2.65-.09q1.37,0,1.37.88a0.83,0.83,0,0,1-.47.79,2.3,2.3,0,0,1-1.07.25h-3a1.31,1.31,0,0,1-.86-0.33,1,1,0,0,1-.4-0.78v-0.95l-0.23-6.08Z"/><path class="cls-6" d="M925.75,246.75l-0.19-3q0-2.55,1.51-2.55a10.85,10.85,0,0,1,2.64.45q1.67,0.45,1.67,1.15a1.28,1.28,0,0,1-1.05,1.13,14.11,14.11,0,0,0-2.72-.69q0.05,0.77.05,1.55l-0.16,5.17s0,0.21.11,0.56l1.28-.05q1.74,0,1.74,1a0.89,0.89,0,0,1-.32.68,1.14,1.14,0,0,1-.8.29,8.46,8.46,0,0,1-1-.07h-0.91q0.11,1.37.11,2.72l-0.16,6.52a11,11,0,0,0,.07,2l2.65-.09q1.37,0,1.37.88a0.83,0.83,0,0,1-.47.79,2.3,2.3,0,0,1-1.07.25h-3a1.31,1.31,0,0,1-.86-0.33,1,1,0,0,1-.4-0.78v-0.95l-0.23-6.08Z"/><path class="cls-6" d="M933.72,249.37l0.05-3.43a14.94,14.94,0,0,0-.28-3.34q0.25-1.27,1-1.27H936a3,3,0,0,1,2.92,1.72,8,8,0,0,1,.74,3.52,21.52,21.52,0,0,1-.12,3.08q-0.12.57-.26,1.08a3.06,3.06,0,0,1-.34.83,6.84,6.84,0,0,1-.52.69,3.26,3.26,0,0,1-.72.64,9,9,0,0,1-2.16,1v3.85l0.28,6.82a0.94,0.94,0,0,1-.37.75,1.28,1.28,0,0,1-.84.31l-0.76-.44a25.46,25.46,0,0,1-.44-5.29l0.14-6.42a2.18,2.18,0,0,1-.21-0.88v-0.12A8.44,8.44,0,0,0,933.72,249.37Zm1.79-4,0.07,7v0.05q2.14-.28,2.14-6.08a4.44,4.44,0,0,0-.42-2.32,1.6,1.6,0,0,0-1.41-.65,0.58,0.58,0,0,0-.39-0.05v2Z"/><path class="cls-6" d="M900.69,285l0-2.11v-0.86a34.64,34.64,0,0,1,.53-7.38,6.86,6.86,0,0,1,1.76-3.55,5.58,5.58,0,0,1,3.87-1.37,1.16,1.16,0,0,1,.83.26,0.85,0.85,0,0,1,.27.63,1.06,1.06,0,0,1-.22.66,0.72,0.72,0,0,1-.55.31h-1.69a1.54,1.54,0,0,0-1.28.95,7.49,7.49,0,0,0-.77,2.32,24.32,24.32,0,0,0-.44,4.31v0.18l-0.16,6.94a13,13,0,0,0,.24,3,8.19,8.19,0,0,0,.49,1.36,3,3,0,0,0,.61.85,2.88,2.88,0,0,0,2.07.77A1.13,1.13,0,0,0,907,292a1.48,1.48,0,0,1,.76.19,0.64,0.64,0,0,1,.33.6q0,1.42-2,1.42a6.57,6.57,0,0,1-1.7-.24,4.9,4.9,0,0,1-1.33-.52Q900.69,292,900.69,285Z"/><path class="cls-6" d="M917.85,286.43l0.39,2.21a15.49,15.49,0,0,0,.34,2.14,14.8,14.8,0,0,1,.34,2.23v0a1,1,0,0,1-.6,1,2.35,2.35,0,0,1-1.18-.25,1,1,0,0,1-.42-0.95,27.17,27.17,0,0,0-.53-4.45l-3.55-.53a17.86,17.86,0,0,0-.51,2.62,20.22,20.22,0,0,1-.33,2.07q-0.32,1.34-1.18,1.34a1.27,1.27,0,0,1-.78-0.27,0.84,0.84,0,0,1-.36-0.69l0.09-.32a153.27,153.27,0,0,0,3.6-18.25q0-.25.11-1.44a8.05,8.05,0,0,1,.67-3.36h1.21a1.6,1.6,0,0,1,.86.23,0.75,0.75,0,0,1,.37.69,66.38,66.38,0,0,0,.73,8.14A66.07,66.07,0,0,1,917.85,286.43Zm-1.88.72a10.8,10.8,0,0,1-.11-1.84q0-1.31-.15-3.25t-0.43-4.52q-0.28-2.58-.39-3.74-1.63,9.05-2.11,12.76A8.41,8.41,0,0,0,916,287.15Z"/><path class="cls-6" d="M923,273.56l0.11,8.65a3.13,3.13,0,0,0-.21,1.23v0.72l-0.14,5.73q0,2.48,1.21,2.48l1.49-.05q1.93,0,1.93,1.05a0.78,0.78,0,0,1-.33.64,1.54,1.54,0,0,1-.76.31,10.65,10.65,0,0,0-3.22-.42,2.24,2.24,0,0,1-1.12.33,1,1,0,0,1-.83-0.37,1.26,1.26,0,0,1-.3-0.81q0-2.67.23-8t0.23-8v-0.26q-0.21-2.25-.21-3.37,0-3.41,1.25-3.41a0.89,0.89,0,0,1,.64.26,0.85,0.85,0,0,1,.27.63Z"/><path class="cls-6" d="M942.35,293.37l0-4.61q0-1.6-.26-4.69t-0.26-4.17q0-1.07.07-2.56t0.07-2.22q-0.16.47-1.21,5-2.74,11.64-3.92,11.64a1.43,1.43,0,0,1-1.1-.42,1.58,1.58,0,0,1-.4-1.12,37.13,37.13,0,0,0-1.34-7q-1.34-5.32-2.28-8.15-0.69,12.69-.69,17.16l0.05,1.07a1.39,1.39,0,0,1-.25.89,0.93,0.93,0,0,1-.77.31,1.38,1.38,0,0,1-.86-0.25,0.75,0.75,0,0,1-.33-0.61q0-3.67.55-11t0.55-11a1.37,1.37,0,0,1-.21-0.75,0.67,0.67,0,0,1,.44-0.62,2.16,2.16,0,0,1,.95-0.21q0.77,0,3.06,7.23t2.81,10q0.16-.53.66-2.66t1.06-4.44q0.56-2.32,1.23-4.68,1.51-5.41,2.57-5.41a1.66,1.66,0,0,1,.9.26,0.81,0.81,0,0,1,.42.72q0,2.6.23,7.77t0.23,7.51l-0.09,3.8v0q0,0.4.21,2.57l0.07,0.7a2.14,2.14,0,0,1,.16.82,1.67,1.67,0,0,1-.33.92,1,1,0,0,1-.88.49Q942.35,295.62,942.35,293.37Z"/><path class="cls-8" d="M890.46,106.5c3.41,5.14,8.67,18.07,1.42,19.09S887,114.16,890.46,106.5Z"/><path class="cls-8" d="M886.12,126.27c2.66,4,6.77,14.13,1.11,14.92S883.46,132.25,886.12,126.27Z"/><path class="cls-8" d="M937,64.47c5.17,3.37,15.13,13.15,8.88,17S936.92,72.85,937,64.47Z"/><path class="cls-8" d="M943.67,117.83c2.56,3.55,6.64,12.56,1.54,13.48S941.47,123.35,943.67,117.83Z"/><path class="cls-6" d="M906.52,253.32l0.05-6.84a37.83,37.83,0,0,0-.26-4.15Q906,240,906,239.25a1.64,1.64,0,0,1,.29-1.07,0.92,0.92,0,0,1,.73-0.34q1.34,0,1.34,2.92s-0.05,2.48-.16,7.4q0.12-.3.69-1.76t1.16-2.94q0.62-1.46,1.3-3,1.55-3.55,2.25-3.55a1,1,0,0,1,.71.27,0.84,0.84,0,0,1,.31.65,32.45,32.45,0,0,1-2,4.49,35.72,35.72,0,0,0-2.21,5.22v0.63q0.53,1.34,2.87,8.74t2.35,7.85a0.94,0.94,0,0,1-.35.75,1.19,1.19,0,0,1-.79.3l-0.84-.14q-0.9-5.12-1.86-8.92a43.26,43.26,0,0,0-2.53-7.25,11.36,11.36,0,0,0-1.12,2.32q-0.11,1.09-.11,1.72l0.23,6.68v3q0,1.92-1.23,1.92-1.05,0-1.05-1.82t0.24-5.05Q906.52,254.94,906.52,253.32Z"/><path class="cls-6" d="M917.75,246.75l-0.19-3q0-2.55,1.51-2.55a10.85,10.85,0,0,1,2.64.45q1.67,0.45,1.67,1.15a1.28,1.28,0,0,1-1.05,1.13,14.11,14.11,0,0,0-2.72-.69q0.05,0.77.05,1.55l-0.16,5.17s0,0.21.11,0.56l1.28-.05q1.74,0,1.74,1a0.89,0.89,0,0,1-.32.68,1.14,1.14,0,0,1-.8.29,8.46,8.46,0,0,1-1-.07h-0.91q0.11,1.37.11,2.72l-0.16,6.52a11,11,0,0,0,.07,2l2.65-.09q1.37,0,1.37.88a0.83,0.83,0,0,1-.47.79,2.3,2.3,0,0,1-1.07.25h-3a1.31,1.31,0,0,1-.86-0.33,1,1,0,0,1-.4-0.78v-0.95l-0.23-6.08Z"/><path class="cls-6" d="M925.75,246.75l-0.19-3q0-2.55,1.51-2.55a10.85,10.85,0,0,1,2.64.45q1.67,0.45,1.67,1.15a1.28,1.28,0,0,1-1.05,1.13,14.11,14.11,0,0,0-2.72-.69q0.05,0.77.05,1.55l-0.16,5.17s0,0.21.11,0.56l1.28-.05q1.74,0,1.74,1a0.89,0.89,0,0,1-.32.68,1.14,1.14,0,0,1-.8.29,8.46,8.46,0,0,1-1-.07h-0.91q0.11,1.37.11,2.72l-0.16,6.52a11,11,0,0,0,.07,2l2.65-.09q1.37,0,1.37.88a0.83,0.83,0,0,1-.47.79,2.3,2.3,0,0,1-1.07.25h-3a1.31,1.31,0,0,1-.86-0.33,1,1,0,0,1-.4-0.78v-0.95l-0.23-6.08Z"/><path class="cls-6" d="M933.72,249.37l0.05-3.43a14.94,14.94,0,0,0-.28-3.34q0.25-1.27,1-1.27H936a3,3,0,0,1,2.92,1.72,8,8,0,0,1,.74,3.52,21.52,21.52,0,0,1-.12,3.08q-0.12.57-.26,1.08a3.06,3.06,0,0,1-.34.83,6.84,6.84,0,0,1-.52.69,3.26,3.26,0,0,1-.72.64,9,9,0,0,1-2.16,1v3.85l0.28,6.82a0.94,0.94,0,0,1-.37.75,1.28,1.28,0,0,1-.84.31l-0.76-.44a25.46,25.46,0,0,1-.44-5.29l0.14-6.42a2.18,2.18,0,0,1-.21-0.88v-0.12A8.44,8.44,0,0,0,933.72,249.37Zm1.79-4,0.07,7v0.05q2.14-.28,2.14-6.08a4.44,4.44,0,0,0-.42-2.32,1.6,1.6,0,0,0-1.41-.65,0.58,0.58,0,0,0-.39-0.05v2Z"/><path class="cls-6" d="M900.69,285l0-2.11v-0.86a34.64,34.64,0,0,1,.53-7.38,6.86,6.86,0,0,1,1.76-3.55,5.58,5.58,0,0,1,3.87-1.37,1.16,1.16,0,0,1,.83.26,0.85,0.85,0,0,1,.27.63,1.06,1.06,0,0,1-.22.66,0.72,0.72,0,0,1-.55.31h-1.69a1.54,1.54,0,0,0-1.28.95,7.49,7.49,0,0,0-.77,2.32,24.32,24.32,0,0,0-.44,4.31v0.18l-0.16,6.94a13,13,0,0,0,.24,3,8.19,8.19,0,0,0,.49,1.36,3,3,0,0,0,.61.85,2.88,2.88,0,0,0,2.07.77A1.13,1.13,0,0,0,907,292a1.48,1.48,0,0,1,.76.19,0.64,0.64,0,0,1,.33.6q0,1.42-2,1.42a6.57,6.57,0,0,1-1.7-.24,4.9,4.9,0,0,1-1.33-.52Q900.69,292,900.69,285Z"/><path class="cls-6" d="M917.85,286.43l0.39,2.21a15.49,15.49,0,0,0,.34,2.14,14.8,14.8,0,0,1,.34,2.23v0a1,1,0,0,1-.6,1,2.35,2.35,0,0,1-1.18-.25,1,1,0,0,1-.42-0.95,27.17,27.17,0,0,0-.53-4.45l-3.55-.53a17.86,17.86,0,0,0-.51,2.62,20.22,20.22,0,0,1-.33,2.07q-0.32,1.34-1.18,1.34a1.27,1.27,0,0,1-.78-0.27,0.84,0.84,0,0,1-.36-0.69l0.09-.32a153.27,153.27,0,0,0,3.6-18.25q0-.25.11-1.44a8.05,8.05,0,0,1,.67-3.36h1.21a1.6,1.6,0,0,1,.86.23,0.75,0.75,0,0,1,.37.69,66.38,66.38,0,0,0,.73,8.14A66.07,66.07,0,0,1,917.85,286.43Zm-1.88.72a10.8,10.8,0,0,1-.11-1.84q0-1.31-.15-3.25t-0.43-4.52q-0.28-2.58-.39-3.74-1.63,9.05-2.11,12.76A8.41,8.41,0,0,0,916,287.15Z"/><path class="cls-6" d="M923,273.56l0.11,8.65a3.13,3.13,0,0,0-.21,1.23v0.72l-0.14,5.73q0,2.48,1.21,2.48l1.49-.05q1.93,0,1.93,1.05a0.78,0.78,0,0,1-.33.64,1.54,1.54,0,0,1-.76.31,10.65,10.65,0,0,0-3.22-.42,2.24,2.24,0,0,1-1.12.33,1,1,0,0,1-.83-0.37,1.26,1.26,0,0,1-.3-0.81q0-2.67.23-8t0.23-8v-0.26q-0.21-2.25-.21-3.37,0-3.41,1.25-3.41a0.89,0.89,0,0,1,.64.26,0.85,0.85,0,0,1,.27.63Z"/><path class="cls-6" d="M942.35,293.37l0-4.61q0-1.6-.26-4.69t-0.26-4.17q0-1.07.07-2.56t0.07-2.22q-0.16.47-1.21,5-2.74,11.64-3.92,11.64a1.43,1.43,0,0,1-1.1-.42,1.58,1.58,0,0,1-.4-1.12,37.13,37.13,0,0,0-1.34-7q-1.34-5.32-2.28-8.15-0.69,12.69-.69,17.16l0.05,1.07a1.39,1.39,0,0,1-.25.89,0.93,0.93,0,0,1-.77.31,1.38,1.38,0,0,1-.86-0.25,0.75,0.75,0,0,1-.33-0.61q0-3.67.55-11t0.55-11a1.37,1.37,0,0,1-.21-0.75,0.67,0.67,0,0,1,.44-0.62,2.16,2.16,0,0,1,.95-0.21q0.77,0,3.06,7.23t2.81,10q0.16-.53.66-2.66t1.06-4.44q0.56-2.32,1.23-4.68,1.51-5.41,2.57-5.41a1.66,1.66,0,0,1,.9.26,0.81,0.81,0,0,1,.42.72q0,2.6.23,7.77t0.23,7.51l-0.09,3.8v0q0,0.4.21,2.57l0.07,0.7a2.14,2.14,0,0,1,.16.82,1.67,1.67,0,0,1-.33.92,1,1,0,0,1-.88.49Q942.35,295.62,942.35,293.37Z"/><path class="cls-5" d="M855.47,658.7c-13.5-.44-18.05,14.81-18.05,14.81s15,12.55,25.17,12.55,21.91-10.92,22.18-15.49-4.27-10.85-9.46-11.9S866.17,659.05,855.47,658.7Z"/><path class="cls-6" d="M884.76,670.58c2.4,4.18-11.8,15.49-22.18,15.49s-27.72-4.14-26.93-12.27c0.21-2.11.55-5.18,4.92-6.28-1.15,2.53.62,3.87,1.54,1.24,1.42-4.06,14.71-3,15.07,1.94,0.18,2.58,1.51,7.55,9.68,7.39S883.61,674.82,884.76,670.58Z"/><path class="cls-6" d="M866.86,673.51s4.24-6.46,7-6.27,2.56-3.79,2.56-3.79,4,7.44,0,7.2S866.86,673.51,866.86,673.51Z"/><path class="cls-6" d="M864.28,657.3a0.3,0.3,0,0,1,.1-0.06l0.3-.16a4.36,4.36,0,0,1,1-.34,5.27,5.27,0,0,1,1.52-.06,6.09,6.09,0,0,1,1.67.43,7.8,7.8,0,0,1,.77.39,5.84,5.84,0,0,1,.67.48,4.88,4.88,0,0,1,1,1.07,3.69,3.69,0,0,1,.45.91,2.52,2.52,0,0,1,.11.38,1,1,0,0,1-1.14,1.15l-0.12,0a2.82,2.82,0,0,1-.34-0.09c-0.21-.06-0.47-0.19-0.78-0.3-0.16-.06-0.3-0.14-0.46-0.22a3.88,3.88,0,0,1-.49-0.24c-0.33-.16-0.65-0.35-1-0.52s-0.66-.33-1-0.46-0.63-.26-0.9-0.37L865,659l-0.18-.07a0.13,0.13,0,0,0-.07,0,0.83,0.83,0,0,1-.68-1.27Z"/><path class="cls-6" d="M857.74,657.57l0.11,0,0.34,0a4.36,4.36,0,0,1,1.09,0,5.27,5.27,0,0,1,1.44.48,6.08,6.08,0,0,1,1.41,1,7.72,7.72,0,0,1,.58.64,5.87,5.87,0,0,1,.46.68,4.9,4.9,0,0,1,.52,1.34,3.7,3.7,0,0,1,.1,1,2.57,2.57,0,0,1,0,.39,1,1,0,0,1-1.48.68l-0.11-.06a2.85,2.85,0,0,1-.29-0.21c-0.18-.13-0.37-0.34-0.62-0.56s-0.23-.24-0.36-0.37a3.89,3.89,0,0,1-.37-0.39c-0.25-.27-0.49-0.56-0.74-0.83s-0.5-.54-0.75-0.78-0.5-.46-0.72-0.66l-0.56-.47a0.78,0.78,0,0,1-.14-0.13,0.13,0.13,0,0,0-.06,0,0.83,0.83,0,0,1-.19-1.43Z"/><path class="cls-6" d="M866.7,662.89l-0.29-.21c-0.17-.12-0.42-0.39-0.67-0.55l-0.81-.65-0.9-.68c-0.61-.42-1.18-0.81-1.65-1.16-0.23-.18-0.44-0.32-0.59-0.45a0.49,0.49,0,0,1-.19-0.19,0.85,0.85,0,0,1-.08-1.69s0.19-.09.46-0.17a3.62,3.62,0,0,1,1.11-.13,4.53,4.53,0,0,1,.73.09,3.94,3.94,0,0,1,.78.23,5.52,5.52,0,0,1,1.48.9,6.74,6.74,0,0,1,1.13,1.25l0.39,0.65c0.11,0.22.2,0.45,0.29,0.64a3.64,3.64,0,0,1,.24.92c0,0.22,0,.36,0,0.36A0.94,0.94,0,0,1,866.7,662.89Z"/></svg>