<svg id="Shadow" xmlns="http://www.w3.org/2000/svg" viewBox="0 0 1189.87 732.69"><defs><style>.cls-1,.cls-4,.cls-7{fill:#24265b;}.cls-1{opacity:0.1;isolation:isolate;}.cls-2{fill:#eeb9a9;}.cls-2,.cls-3,.cls-4,.cls-5,.cls-6,.cls-8,.cls-9{stroke:#24265b;stroke-linecap:round;stroke-linejoin:round;}.cls-2,.cls-3,.cls-4,.cls-5,.cls-8,.cls-9{stroke-width:3px;}.cls-3{fill:none;}.cls-5{fill:gray;}.cls-6{fill:#fff;stroke-width:2.55px;}.cls-8{fill:#49cc29;}.cls-9{fill:#969696;}</style></defs><title>topic_themesong</title><path class="cls-1" d="M263.37,666.5c-14.84,0-178.68,12.77-178.68,26.35s61.23,34,98.35,34,64.22-12.66,84-12.66,84.07,18.5,107.36,18.5,37.87-25.8,48.53-23.91,117.49,22,117.49,6.38-74.25-18.63-84.72-23.37-2.87-6.29-10.22-12.4-39.79-11-53.61-11S314,680.64,301.14,680.64,278.25,666.5,263.37,666.5Z"/><path class="cls-1" d="M1.37,599.43c-7.29,5.72,16,20.56,34.5,18.32S51.59,636.5,73,638.5s61.54-9.9,78.47-8,105.76-5,79.69-19c-32.76-17.62-80.31-19-98.53-16s-69.56,1.06-80.89-.47S10.37,592.37,1.37,599.43Z"/><path class="cls-2" d="M372.37,420c-7.53-70.4-7.53-97.42-6.16-130.23,1.41,6.14,18.84,7.93,20.38-4.52s-2.84-99.56-20-112.6c-8.88-6.75-37-8.65-40.65-19.32A41.18,41.18,0,0,1,324.6,148a32.41,32.41,0,0,1-10.13,1.33c-7.17,0-21.4-8.49-27.42-14.87v1.88c0,15-11.79,25-25.06,28.49-15.57,4.12-28.35,13.32-33.49,28.87s-19.81,73.1-19.81,113.53c0,10.41,29.34,11.88,28.84-2.79-.32-9.24,13.63-40.08,18.21-56.13,3.56,28.44,19.6,50,9.36,109.51C257.72,400.72,375.37,448.45,372.37,420Z"/><path class="cls-3" d="M318.88,184.69c4.68,1,7.88,7.09,4.76,11.15-1.87,2.44-5.95,1.88-7.19,1.43s-3.07-.72-3.56-2.89c-.58-2.58,2.12-3.86,3.5-2.61s.81,3.67.06,5.51a7.34,7.34,0,0,1-7.46,4c-4.29-.42-5.9-4.9-4.33-9.53"/><path class="cls-4" d="M33.35,259.36h0a12.84,12.84,0,0,1,6.07,17.11l-7.56,15.88a12.84,12.84,0,0,1-17.11,6.07h0a12.84,12.84,0,0,1-6.07-17.11l7.55-15.88A12.85,12.85,0,0,1,33.35,259.36Z"/><path class="cls-5" d="M61.66,398c4.39-4.14,16.24-7.11,30.17-7.11s25.78,3,30.17,7.11a5,5,0,0,0,1.83-3.56c0-5.89-14.33-10.67-32-10.67s-32,4.78-32,10.67A5,5,0,0,0,61.66,398Z"/><rect class="cls-5" x="-86.96" y="459.53" width="277.33" height="8.53" transform="translate(-412.71 417.94) rotate(-78)"/><path class="cls-5" d="M21.54,605.7h0a6.4,6.4,0,0,1-4.93-7.59h0l1.33-6.26h0l12.52,2.66h0l-1.33,6.26A6.41,6.41,0,0,1,21.54,605.7Z"/><rect class="cls-5" x="127.7" y="325.13" width="8.53" height="277.33" transform="translate(-93.54 37.57) rotate(-12)"/><path class="cls-5" d="M153.18,594.51l12.52-2.66h0l1.33,6.26a6.4,6.4,0,0,1-4.93,7.59h0a6.42,6.42,0,0,1-7.59-4.93h0l-1.33-6.26Z"/><rect class="cls-5" x="87.57" y="346.82" width="8.53" height="277.33"/><path class="cls-5" d="M85.44,617.75h12.8v6.4a6.4,6.4,0,0,1-6.4,6.4h0a6.41,6.41,0,0,1-6.4-6.4h0v-6.4Z"/><path class="cls-4" d="M361.37,655.63S369.05,576,371.49,538c.69-10.78,3.95-89.52.9-118-1.52-14.21-2.73-26.65-3.69-37.73-5.2,8.22-84.49,12.84-106.21.43C261.37,411.5,267.37,430,266.8,433c-.68,3.76-5.72,57.71-7.44,120.61-.89,32.36,4.45,103.46,4.06,105.75l12.07.28c1.8-20,7.09-66.93,11.32-105.11,4.64-41.82,26.61-111.68,28.12-117.46a78.87,78.87,0,0,1,8.92-1.43c1.25,4.65,10,46.83,16.12,93.68s9.4,128.11,9.4,128.11l7,.36Z"/><path class="cls-6" d="M385.43,654.12c-10.44-1.74-26.74,3.78-26.74,3.78-3.92.8-13.62-2-14.26,1.76s3.49,8.84,3.49,8.84l29,10.54L397.23,670S395.87,655.87,385.43,654.12Z"/><path class="cls-7" d="M346.47,666.41c-2.68,2.32,4.64,9.29,29.92,14.38,11.78,2.37,25.49-12.06,20.11-14.65-.41,3.66-2-3-5.17-4.13s-9.47,2-8.47,5.31.29,7.82-4,7.91S347.11,670.15,346.47,666.41Z"/><path class="cls-7" d="M349.63,662s1,6.88,5.19,5.52c7.38-2.37,19.32,3.87,19.32,3.87S361,662,356.7,663.46A6.84,6.84,0,0,1,349.63,662Z"/><path class="cls-7" d="M354.81,659.91a.17.17,0,0,1,0-.1v-.3a3.68,3.68,0,0,1,.28-.91,4.28,4.28,0,0,1,.74-1.09,5,5,0,0,1,1.17-.93,5.86,5.86,0,0,1,.67-.32,5.31,5.31,0,0,1,.68-.2,3.63,3.63,0,0,1,1.23,0,3.13,3.13,0,0,1,.85.22,1.77,1.77,0,0,1,.31.15,1,1,0,0,1,.38,1.36l-.05.08L361,658l-.1.11a1.51,1.51,0,0,1-.23.21c-.14.13-.35.25-.57.41a3.5,3.5,0,0,1-.36.22,2.82,2.82,0,0,1-.38.21c-.26.14-.53.25-.79.37l-.77.36c-.26.11-.48.24-.69.34l-.53.27-.15.06a0,0,0,0,0-.05,0,.78.78,0,0,1-1.1.08.74.74,0,0,1-.16-.19Z"/><path class="cls-7" d="M358.48,659a.17.17,0,0,1,0-.1v-.3a3.68,3.68,0,0,1,.28-.91,4.28,4.28,0,0,1,.74-1.09,5,5,0,0,1,1.17-.93,5.86,5.86,0,0,1,.67-.32,5.31,5.31,0,0,1,.68-.2,3.63,3.63,0,0,1,1.23,0,3.13,3.13,0,0,1,.85.22,1.77,1.77,0,0,1,.31.15,1,1,0,0,1,.38,1.36.56.56,0,0,1-.05.08l-.11.14-.1.11a1.51,1.51,0,0,1-.23.21c-.14.13-.35.25-.57.41a3.5,3.5,0,0,1-.36.22,2.82,2.82,0,0,1-.38.21c-.26.14-.53.25-.79.37l-.77.36c-.26.11-.48.24-.69.34l-.53.27-.15.06a0,0,0,0,0-.05,0,.78.78,0,0,1-1.1.08.74.74,0,0,1-.16-.19Z"/><path class="cls-7" d="M367,659.38a2.67,2.67,0,0,1-.14-.36,3.72,3.72,0,0,1-.18-.94,4.6,4.6,0,0,1,.14-1.38,4.17,4.17,0,0,1,.77-1.53,3.94,3.94,0,0,1,.64-.65A3.61,3.61,0,0,1,369,654a3.41,3.41,0,0,1,.76-.26,3.08,3.08,0,0,1,.68-.08,2.62,2.62,0,0,1,.56,0,3.25,3.25,0,0,1,.42.11,2.13,2.13,0,0,1,.35.14,1,1,0,0,1,.38,1.36.91.91,0,0,1-.11.16l-.15.18-.22.22c-.13.13-.33.26-.51.43a2.09,2.09,0,0,0-.28.24c-.08.1-.19.15-.26.24s-.17.14-.24.23a2.61,2.61,0,0,0-.24.23,5.27,5.27,0,0,0-.49.57c-.16.22-.31.46-.45.68l-.34.57a1.64,1.64,0,0,0-.14.22.85.85,0,0,1-1.69.1Z"/><path class="cls-7" d="M363.67,659.5a2.67,2.67,0,0,1-.14-.36,3.72,3.72,0,0,1-.18-.94,4.6,4.6,0,0,1,.14-1.38,4.17,4.17,0,0,1,.77-1.53,3.94,3.94,0,0,1,.64-.65,3.61,3.61,0,0,1,.74-.48,3.41,3.41,0,0,1,.76-.26,3.08,3.08,0,0,1,.68-.08,2.62,2.62,0,0,1,.56,0,3.25,3.25,0,0,1,.42.11,2.13,2.13,0,0,1,.35.14,1,1,0,0,1,.38,1.36.91.91,0,0,1-.11.16l-.15.18-.22.22c-.13.13-.33.26-.51.43a2.09,2.09,0,0,0-.28.24c-.08.1-.19.15-.26.24s-.17.14-.24.23a2.61,2.61,0,0,0-.24.23,5.27,5.27,0,0,0-.49.57c-.16.22-.31.46-.45.68l-.34.57a1.64,1.64,0,0,0-.14.22.85.85,0,0,1-1.69.1Z"/><path class="cls-8" d="M206,261.06c0,8.06,28.33,14.1,45.54,14.1.15,15.07.19,42.5.77,63.39.61,22-3.19,37.5-.77,55.26,3.34,24.55,130.13,18.68,127.57,4.6S366.2,300.9,366.2,288.27c0-5.15,1.22-21.47,1.22-21.47s26.29-4.93,26.29-14.92c0-25.15-8.23-42.51-14.83-68-3.83-14.79-26.95-19.18-41.41-23.78-2.07-2.59-8.65-5.34-10-4.13,14.63,20.25,6.89,38.25-3.75,47.5-36.24-6.64-48.74-34-44-48.77-.71-2.26-7.21.07-8.19,2.2-17.21,2.84-43.49,11.5-48.09,30.37C216.16,216.93,207.75,232,206,261.06Z"/><path class="cls-3" d="M364.06,209.14s5.11,32.67,3.35,57.64"/><path class="cls-3" d="M262.5,221.08c-.71,18.27-6.12,34.86-6.76,47.8-.23,4.68-1.54,6.27-5,6.27"/><path class="cls-3" d="M271.49,156.89c-5.9,35.66,39.46,53.44,54.34,55.81,11.22-11.14,24.38-26.55,11.64-52.61"/><path class="cls-3" d="M255.75,266.78c-3.2,4.23-50.3-4.31-49.21-12.57"/><path class="cls-3" d="M368.13,261.06c8.15,0,25.57-9.19,25.57-12.94"/><path class="cls-3" d="M250.77,385.5c5,28.44,127.42,20.27,127.42,6.63"/><polygon class="cls-4" points="603.13 1.5 1188.37 379.81 1188.37 391.19 583.93 1.5 603.13 1.5"/><rect class="cls-4" x="458.06" y="1.5" width="25.6" height="34.13"/><ellipse class="cls-4" cx="470.86" cy="35.63" rx="12.8" ry="10.67"/><path class="cls-3" d="M569.7,1.5C583.92,23,630.14,37.88,637.57,35.63c7.15,20.77,37.21,30.82,48.17,31.51,54.29,56.69,223,174.69,304.79,196.5,68.93,69.43,169.25,131.49,197.84,141"/><rect class="cls-4" x="612.37" y="11.08" width="15.11" height="15.11" transform="matrix(0.55, -0.83, 0.83, 0.55, 262.23, 525.3)"/><polygon class="cls-5" points="157.97 343.45 45.69 361.81 35.87 301.81 42.75 290.96 138.19 275.35 148.16 283.45 157.97 343.45"/><rect class="cls-5" x="129.02" y="285.14" width="49.21" height="51.35" transform="translate(-47.62 28.49) rotate(-9.18)"/><rect class="cls-4" x="132.26" y="289.26" width="38.4" height="39.11" transform="translate(-47.87 28.5) rotate(-9.29)"/><path class="cls-5" d="M122,390.9C117.62,395,105.77,398,91.84,398s-25.78-3-30.17-7.11a5,5,0,0,0-1.83,3.56c0,5.89,14.33,10.67,32,10.67s32-4.78,32-10.67A5,5,0,0,0,122,390.9Z"/><path class="cls-9" d="M139.21,297.88c-4.65.76-7.5,7-6.36,14s5.84,12,10.49,11.26a12.8,12.8,0,0,0-4.13-25.26Z"/><polyline class="cls-5" points="108.85 351.48 99.03 291.48 105.91 280.63"/><rect class="cls-5" x="34.9" y="306.62" width="68.27" height="25.6" transform="translate(-50.66 15.33) rotate(-9.29)"/><rect class="cls-5" x="59.15" y="262.19" width="23.94" height="23.94" transform="translate(-43.33 15.08) rotate(-9.29)"/><path class="cls-4" d="M124,259a10.33,10.33,0,0,0-10.3-8.67v-.13L82.85,253.8A11.73,11.73,0,0,0,86.64,277h0L117,270.59v-.13A10.34,10.34,0,0,0,124,259Z"/><path class="cls-5" d="M40.9,276.08l32.71,35.13A12.58,12.58,0,0,1,73,329h0l-2.8,2.61A12.58,12.58,0,0,1,52.4,331h0L19.7,295.82a9,9,0,0,1,.45-12.72l8.06-7.5a9,9,0,0,1,12.72.46Z"/><polygon class="cls-5" points="123.35 287.5 113.03 302.16 117.16 327.43 131.61 338.03 123.35 287.5"/><line class="cls-3" x1="30.1" y1="273.86" x2="77.22" y2="324.49"/><path class="cls-6" d="M251.84,660.2c-13.5-.44-18.05,14.81-18.05,14.81s15,12.55,25.17,12.55,21.91-10.92,22.18-15.49-4.27-10.85-9.46-11.9S262.54,660.55,251.84,660.2Z"/><path class="cls-7" d="M281.13,672.08c2.4,4.18-11.8,15.49-22.18,15.49S231.23,683.43,232,675.3c.21-2.11.55-5.18,4.92-6.28-1.15,2.53.62,3.87,1.54,1.24,1.42-4.06,14.71-3,15.07,1.94.18,2.58,1.51,7.55,9.68,7.39S280,676.32,281.13,672.08Z"/><path class="cls-7" d="M263.23,675s4.24-6.46,7-6.27,2.56-3.79,2.56-3.79,4,7.44,0,7.2S263.23,675,263.23,675Z"/><path class="cls-7" d="M260.65,658.8a.21.21,0,0,1,.1-.06l.3-.16a4.37,4.37,0,0,1,1-.34,5.52,5.52,0,0,1,1.52-.06,6,6,0,0,1,1.67.43c.26.12.52.25.77.39a5.14,5.14,0,0,1,.67.48,4.84,4.84,0,0,1,1,1.07,3.86,3.86,0,0,1,.45.91,2.38,2.38,0,0,1,.11.38,1,1,0,0,1-.82,1.15.86.86,0,0,1-.32,0H267a2.14,2.14,0,0,1-.34-.09c-.21-.06-.47-.19-.78-.3a4.81,4.81,0,0,1-.46-.22,4.44,4.44,0,0,1-.49-.24c-.33-.16-.65-.35-1-.52s-.66-.33-1-.46l-.9-.37-.64-.29-.18-.07h-.07a.83.83,0,0,1-.81-.85.9.9,0,0,1,.13-.42Z"/><path class="cls-7" d="M254.11,659.07h.45a4,4,0,0,1,1.09,0,5.2,5.2,0,0,1,1.44.48,5.82,5.82,0,0,1,1.41,1,7,7,0,0,1,.58.64,6.24,6.24,0,0,1,.46.68,5,5,0,0,1,.52,1.34,3.74,3.74,0,0,1,.1,1,2.54,2.54,0,0,1,0,.39,1,1,0,0,1-1.17.79.89.89,0,0,1-.31-.11l-.11-.06a1.94,1.94,0,0,1-.29-.21c-.18-.13-.37-.34-.62-.56a3.65,3.65,0,0,1-.36-.37,3.41,3.41,0,0,1-.37-.39c-.25-.27-.49-.56-.74-.83s-.5-.54-.75-.78-.5-.46-.72-.66l-.56-.47a.86.86,0,0,1-.14-.13H254a.84.84,0,0,1-.46-1.08.85.85,0,0,1,.27-.35Z"/><path class="cls-7" d="M263.07,664.39l-.29-.21c-.17-.12-.42-.39-.67-.55l-.81-.65-.9-.68c-.61-.42-1.18-.81-1.65-1.16-.23-.18-.44-.32-.59-.45a.44.44,0,0,1-.19-.19.85.85,0,0,1-.08-1.69,3.53,3.53,0,0,1,.46-.17,3.79,3.79,0,0,1,1.11-.13,4.41,4.41,0,0,1,.73.09,4.12,4.12,0,0,1,.78.23,5.34,5.34,0,0,1,1.48.9,6.69,6.69,0,0,1,1.13,1.25l.39.65c.11.22.2.45.29.64a3.56,3.56,0,0,1,.24.92v.36a.94.94,0,0,1-.9,1A.9.9,0,0,1,263.07,664.39Z"/></svg>