<svg id="Shadow" xmlns="http://www.w3.org/2000/svg" xmlns:xlink="http://www.w3.org/1999/xlink" viewBox="0 0 1792 768"><defs><style>.cls-1,.cls-4{fill:none;}.cls-2,.cls-5,.cls-6,.cls-8{fill:#24265b;}.cls-2{opacity:0.1;}.cls-3{fill:#eeb9a9;}.cls-19,.cls-20,.cls-3,.cls-4,.cls-5,.cls-6,.cls-7,.cls-9{stroke:#24265b;}.cls-19,.cls-20,.cls-3,.cls-4,.cls-5,.cls-7,.cls-9{stroke-linecap:round;stroke-linejoin:round;}.cls-19,.cls-20,.cls-3,.cls-4,.cls-5,.cls-9{stroke-width:3px;}.cls-10,.cls-19,.cls-7{fill:#fff;}.cls-7{stroke-width:2.55px;}.cls-9{fill:#94809e;}.cls-11{clip-path:url(#clip-path);}.cls-12{fill:#ee5a24;}.cls-13{fill:#cc2929;}.cls-14{fill:#29cc6a;}.cls-15{fill:#e5d32e;}.cls-16{fill:#6829cc;}.cls-17{fill:#cc29ae;}.cls-18{fill:#2b6dcc;}.cls-20{fill:#ff99d8;}</style><clipPath id="clip-path"><path class="cls-1" d="M809.6,259.56c0,8.06,28.33,14.1,45.54,14.1,0.15,15.07.19,42.5,0.77,63.39,0.61,22-3.19,37.5-.77,55.26,3.34,24.55,130.13,18.68,127.57,4.6s-12.88-97.51-12.88-110.14c0-5.15,1.22-21.47,1.22-21.47s26.29-4.93,26.29-14.92c0-25.15-8.23-42.51-14.83-68-3.83-14.79-26.95-19.18-41.41-23.78-2.07-2.59-8.65-5.34-10-4.13,14.63,20.25,6.89,38.25-3.75,47.5-36.24-6.64-48.74-34-44-48.77-0.71-2.26-7.21.07-8.19,2.2-17.21,2.84-43.49,11.5-48.09,30.37C819.79,215.43,811.38,230.54,809.6,259.56Z"/></clipPath></defs><title>topic</title><path class="cls-2" d="M867,665c-14.84,0-178.68,12.77-178.68,26.35s61.23,34,98.35,34,64.22-12.66,84-12.66,84.07,18.5,107.36,18.5,37.87-25.8,48.53-23.91,117.49,22,117.49,6.38-74.25-18.63-84.72-23.37-2.87-6.29-10.22-12.4S972.28,666,958.45,666s-40.77,13.16-53.67,13.16S881.88,665,867,665Z"/><path class="cls-3" d="M976,418.49c-7.53-70.4-7.53-97.42-6.16-130.23,1.41,6.14,18.84,7.93,20.38-4.52s-2.84-99.56-20-112.6c-8.88-6.75-37-8.65-40.65-19.32a40.86,40.86,0,0,1-1.34-5.36,32.42,32.42,0,0,1-10.13,1.33c-7.17,0-21.4-8.49-27.42-14.87v1.88c0,15-11.79,25-25.06,28.49-15.57,4.12-28.35,13.32-33.49,28.87s-19.81,73.1-19.81,113.53c0,10.41,29.34,11.88,28.84-2.79-0.32-9.24,13.63-40.08,18.21-56.13,3.56,28.44,19.6,50.05,9.36,109.51C861.35,399.22,979,446.95,976,418.49Z"/><path class="cls-4" d="M922.51,183.19c4.68,1,7.88,7.09,4.76,11.15-1.87,2.44-5.95,1.88-7.19,1.43s-3.07-.72-3.56-2.89c-0.58-2.58,2.12-3.86,3.5-2.61s0.81,3.67.06,5.51a7.35,7.35,0,0,1-7.46,4c-4.29-.42-5.9-4.9-4.33-9.53"/><path class="cls-4" d="M922.51,183.19c4.68,1,7.88,7.09,4.76,11.15-1.87,2.44-5.95,1.88-7.19,1.43s-3.07-.72-3.56-2.89c-0.58-2.58,2.12-3.86,3.5-2.61s0.81,3.67.06,5.51a7.35,7.35,0,0,1-7.46,4c-4.29-.42-5.9-4.9-4.33-9.53"/><path class="cls-5" d="M965,654.13s7.68-79.68,10.12-117.66c0.69-10.78,3.95-89.52.9-118-1.52-14.21-2.73-26.65-3.69-37.73-5.2,8.22-84.49,12.84-106.21.43C865,410,871,428.52,870.43,431.49c-0.68,3.76-5.72,57.71-7.44,120.61-0.89,32.36,4.45,103.46,4.06,105.75l12.07,0.28c1.8-20,7.09-66.93,11.32-105.11,4.64-41.82,26.61-111.68,28.12-117.46a78.68,78.68,0,0,1,8.92-1.43c1.25,4.65,10,46.83,16.12,93.68S953,655.92,953,655.92l7,0.36Z"/><path class="cls-6" d="M950.66,83.67s-3,8.36-.14,10.22,3.56,5.27,11,6C956.35,103,953,102,953,102s2.06,11.88.16,15.51c1.63,1.75,4.33,2.5,3.55-1.83,2.84,2,3.39,6.57.24,8.64s-5.21-.58-6.16-3C948.15,124.68,947,125,947,125a31.67,31.67,0,0,0-1.36,6.32c3.07,1.92,4.64-.71,5-3.41,2.5-.52,4.85,7.5,1.32,10-2.18,1.57-4.42,2.41-7.34,1.42-0.32,5.44-2.85,6.31-10.53,9.71-0.65-4.36-5.62-1.42-5.62-1.42s13-9.5,15.4-22.65,1.79-39.91,1.79-39.91Z"/><path class="cls-5" d="M945.6,78.16S934.76,71,922.31,71s-38,3.2-43.56,29.16c-5.51-4.27-16.72-13.51-1.61-29.87A13.85,13.85,0,0,1,887.29,58c4.62-1.21,16.95-5.3,17-8,4-1.42,46.82-6.76,46.82,21.87,2,2,4.47,11.9-4.79,16C946.67,85.27,946,81.18,945.6,78.16Z"/><path class="cls-7" d="M989.06,652.62c-10.44-1.74-26.74,3.78-26.74,3.78-3.92.8-13.62-2-14.26,1.76s3.49,8.84,3.49,8.84l29,10.54,20.31-9.08S999.5,654.37,989.06,652.62Z"/><path class="cls-8" d="M950.1,664.91c-2.68,2.32,4.64,9.29,29.92,14.38,11.78,2.37,25.49-12.06,20.11-14.65-0.41,3.66-2-3-5.17-4.13s-9.47,2-8.47,5.31,0.29,7.82-4,7.91S950.74,668.65,950.1,664.91Z"/><path class="cls-8" d="M953.26,660.51s1,6.88,5.19,5.52c7.38-2.37,19.32,3.87,19.32,3.87s-13.13-9.43-17.44-7.94A6.84,6.84,0,0,1,953.26,660.51Z"/><path class="cls-8" d="M958.44,658.41a0.22,0.22,0,0,1,0-.1l0-.3a3.63,3.63,0,0,1,.28-0.91,4.37,4.37,0,0,1,.74-1.09,5,5,0,0,1,1.17-.93,6.25,6.25,0,0,1,.67-0.32,4.56,4.56,0,0,1,.68-0.2,3.86,3.86,0,0,1,1.23,0,3,3,0,0,1,.85.22,2,2,0,0,1,.31.15,1,1,0,0,1,.33,1.44l-0.11.14-0.1.11a2.34,2.34,0,0,1-.23.21c-0.14.13-.35,0.25-0.57,0.41s-0.24.14-.36,0.22a2.55,2.55,0,0,1-.38.21c-0.26.14-.53,0.25-0.79,0.37l-0.77.36c-0.26.11-.48,0.24-0.69,0.34l-0.53.27a0.44,0.44,0,0,1-.15.06,0.08,0.08,0,0,0-.05,0,0.78,0.78,0,0,1-1.26-.11Z"/><path class="cls-8" d="M962.11,657.53a0.22,0.22,0,0,1,0-.1l0-.3a3.61,3.61,0,0,1,.28-0.91,4.38,4.38,0,0,1,.74-1.09,5,5,0,0,1,1.17-.93,6.26,6.26,0,0,1,.67-0.32,4.57,4.57,0,0,1,.68-0.2,3.86,3.86,0,0,1,1.23,0,3,3,0,0,1,.85.22,2.05,2.05,0,0,1,.31.15,1,1,0,0,1,.33,1.44l-0.11.14-0.1.11a2.38,2.38,0,0,1-.23.21c-0.14.13-.35,0.25-0.57,0.41s-0.24.14-.36,0.22a2.55,2.55,0,0,1-.38.21c-0.26.14-.53,0.25-0.79,0.37l-0.77.36c-0.26.11-.48,0.24-0.69,0.34l-0.53.27a0.44,0.44,0,0,1-.15.06,0.08,0.08,0,0,0-.05,0,0.78,0.78,0,0,1-1.26-.11Z"/><path class="cls-8" d="M970.65,657.88a2.29,2.29,0,0,1-.14-0.36,3.92,3.92,0,0,1-.18-0.94,4.47,4.47,0,0,1,.14-1.38,4.29,4.29,0,0,1,.77-1.53,3.74,3.74,0,0,1,.64-0.65,3.48,3.48,0,0,1,.74-0.48,3.38,3.38,0,0,1,.76-0.26,2.75,2.75,0,0,1,.68-0.08,2.16,2.16,0,0,1,.56,0,3.35,3.35,0,0,1,.42.11,2.13,2.13,0,0,1,.35.14,1,1,0,0,1,.27,1.52l-0.15.18a2.7,2.7,0,0,1-.22.22c-0.13.13-.33,0.26-0.51,0.43a2.68,2.68,0,0,0-.28.24c-0.08.1-.19,0.15-0.26,0.24s-0.17.14-.24,0.23a2.31,2.31,0,0,0-.24.23,4.69,4.69,0,0,0-.49.57c-0.16.22-.31,0.46-0.45,0.68l-0.34.57a1.64,1.64,0,0,0-.14.22A0.85,0.85,0,0,1,970.65,657.88Z"/><path class="cls-8" d="M967.3,658a2.26,2.26,0,0,1-.14-0.36,3.92,3.92,0,0,1-.18-0.94,4.47,4.47,0,0,1,.14-1.38,4.29,4.29,0,0,1,.77-1.53,3.74,3.74,0,0,1,.64-0.65,3.48,3.48,0,0,1,.74-0.48,3.38,3.38,0,0,1,.76-0.26,2.75,2.75,0,0,1,.69-0.08,2.16,2.16,0,0,1,.56,0,3.31,3.31,0,0,1,.42.11,2.13,2.13,0,0,1,.35.14,1,1,0,0,1,.4,1.34,1,1,0,0,1-.12.18l-0.15.18a2.73,2.73,0,0,1-.22.22c-0.13.13-.33,0.26-0.51,0.43a2.67,2.67,0,0,0-.28.24c-0.08.1-.19,0.15-0.26,0.24s-0.17.14-.24,0.23a2.31,2.31,0,0,0-.24.23,4.65,4.65,0,0,0-.49.57c-0.16.22-.31,0.46-0.45,0.68l-0.34.57a1.65,1.65,0,0,0-.14.22A0.85,0.85,0,0,1,967.3,658Z"/><path class="cls-9" d="M809.6,259.56c0,8.06,28.33,14.1,45.54,14.1,0.15,15.07.19,42.5,0.77,63.39,0.61,22-3.19,37.5-.77,55.26,3.34,24.55,130.13,18.68,127.57,4.6s-12.88-97.51-12.88-110.14c0-5.15,1.22-21.47,1.22-21.47s26.29-4.93,26.29-14.92c0-25.15-8.23-42.51-14.83-68-3.83-14.79-26.95-19.18-41.41-23.78-2.07-2.59-8.65-5.34-10-4.13,14.63,20.25,6.89,38.25-3.75,47.5-36.24-6.64-48.74-34-44-48.77-0.71-2.26-7.21.07-8.19,2.2-17.21,2.84-43.49,11.5-48.09,30.37C819.79,215.43,811.38,230.54,809.6,259.56Z"/><path class="cls-10" d="M921.6,65.08a1.5,1.5,0,0,1-1.39-.94l-0.68-1.68-2.15.45a1.48,1.48,0,0,1-.31,0A1.5,1.5,0,0,1,916,60.41l1.5-1.55-1.12-2.27a1.5,1.5,0,0,1,2-2l2.63,1.16,1.25-1a1.5,1.5,0,0,1,2.42,1.18v2l2,1.07a1.5,1.5,0,0,1-.61,2.82l-2.47.17-0.46,1.95a1.5,1.5,0,0,1-1.34,1.15H921.6Z"/><path class="cls-8" d="M923.11,55.92v2.89l2.77,1.49-3.57.25-0.71,3-1.16-2.84-3.38.71,2.23-2.31-1.58-3.21,3.45,1.52,2-1.52m-5.4-3A3,3,0,0,0,915,57.25l0.65,1.32-0.77.8a3,3,0,0,0,2.78,5l0.93-.19,0.21,0.52a3,3,0,0,0,2.78,1.87h0.23a3,3,0,0,0,2.69-2.3l0.2-.87,1.37-.09a3,3,0,0,0,1.21-5.63L926.11,57v-1.1a3,3,0,0,0-4.84-2.37l-0.54.42-1.8-.8a3,3,0,0,0-1.21-.26h0Z"/><path class="cls-8" d="M873.3,97.15s-4.56,8.74-10.73,9.13c3.32,1.1,4.27.23,4.27,0.23s-5.33,19.6,6.46,27.42c-0.53,2.13-2,3.79-3.74,3.56,0.84,2.13,3.74,1.91,3.74,1.91s-5.76,9.47,3.85,11.13c-2.48-4.51,4.1-11.13,4.1-11.13s0.9,5.68,0,7.1c2.66-1,3.23,5.35,3.23,5.35s8-9.83,6-19.09c-3-2.15-4.84-13.22-5.1-15.38-2.63.91-10.17,0.1-11.26-8.15s4.66-9,4.66-9Z"/><g class="cls-11"><rect class="cls-12" x="720.77" y="177.19" width="421.34" height="40.13"/><rect class="cls-13" x="720.77" y="137.06" width="421.34" height="40.13"/><rect class="cls-14" x="720.77" y="257.37" width="421.34" height="40.13"/><rect class="cls-15" x="720.77" y="217.25" width="421.34" height="40.13"/><rect class="cls-16" x="720.77" y="337.63" width="421.34" height="40.13"/><rect class="cls-17" x="720.77" y="377.76" width="421.34" height="40.13"/><rect class="cls-18" x="720.77" y="297.5" width="421.34" height="40.13"/></g><path class="cls-4" d="M967.69,207.64s5.11,32.67,3.35,57.64"/><path class="cls-4" d="M866.13,219.58c-0.71,18.27-6.12,34.86-6.76,47.8-0.23,4.68-1.54,6.27-5,6.27"/><path class="cls-4" d="M875.12,155.39c-5.9,35.66,39.46,53.44,54.34,55.81,11.22-11.14,24.38-26.55,11.64-52.61"/><path class="cls-4" d="M859.38,265.28c-3.2,4.23-50.3-4.31-49.21-12.57"/><path class="cls-4" d="M971.76,259.56c8.15,0,25.57-9.19,25.57-12.94"/><path class="cls-4" d="M854.4,384c5,28.44,127.42,20.27,127.42,6.63"/><circle class="cls-19" cx="924.48" cy="260.23" r="39.23"/><rect class="cls-8" x="933.75" y="235.7" width="7.7" height="20.86" rx="3.85" ry="3.85" transform="translate(225.3 -411.37) rotate(28)"/><rect class="cls-8" x="941.98" y="245.86" width="7.7" height="17.57" rx="3.85" ry="3.85" transform="translate(230.26 -414.23) rotate(28)"/><path class="cls-8" d="M943.51,266.14a7.14,7.14,0,0,1-7.14-7.31,7.14,7.14,0,0,1-9-6.92h-9.26c-1.23,0-3.48-.08-4.49-2.41h9.31c2.26,0,4-2.25,4-4.42a4.47,4.47,0,0,0-4.26-4.53H911.61a6.75,6.75,0,0,0-6.84,4.53c-0.77,2-4.4,15.21-4.89,16.56s0.41,5.29,1.86,6.74c1,1,3.05,3,5,5a6.45,6.45,0,0,1,2,4.46c0,1.2.16,10.26,0.16,10.26h29.39v-4.95a4.79,4.79,0,0,1,1.79-3.37,6,6,0,0,0,2.36-2.91c0.27-.91,3-8.52,4.09-11.43A7.16,7.16,0,0,1,943.51,266.14Z"/><path class="cls-8" d="M925.91,238a7.53,7.53,0,0,1,2.38,1.85,8.16,8.16,0,0,1,2,4.68l0-.09,4.63-8.72a3.85,3.85,0,0,0-1.59-5.21h0a3.85,3.85,0,0,0-5.21,1.59l-3,5.58A7.28,7.28,0,0,1,925.91,238Z"/><path class="cls-8" d="M921.87,237.25l1.24-2.33a3.85,3.85,0,0,0-1.59-5.21h0a3.85,3.85,0,0,0-5.21,1.59l-3.16,5.94h8.72Z"/><circle class="cls-20" cx="882.01" cy="220.26" r="14.08" transform="translate(423.21 1005.1) rotate(-73.71)"/><circle class="cls-4" cx="883.41" cy="217.06" r="4.74" transform="translate(427.29 1004.13) rotate(-73.71)"/><line class="cls-19" x1="880" y1="228.71" x2="882.08" y2="221.61"/><line class="cls-19" x1="878.08" y1="224.3" x2="884" y2="226.03"/><path class="cls-4" d="M809.6,259.56c0,8.06,28.33,14.1,45.54,14.1,0.15,15.07.19,42.5,0.77,63.39,0.61,22-3.19,37.5-.77,55.26,3.34,24.55,130.13,18.68,127.57,4.6s-12.88-97.51-12.88-110.14c0-5.15,1.22-21.47,1.22-21.47s26.29-4.93,26.29-14.92c0-25.15-8.23-42.51-14.83-68-3.83-14.79-26.95-19.18-41.41-23.78-2.07-2.59-8.65-5.34-10-4.13,14.63,20.25,6.89,38.25-3.75,47.5-36.24-6.64-48.74-34-44-48.77-0.71-2.26-7.21.07-8.19,2.2-17.21,2.84-43.49,11.5-48.09,30.37C819.79,215.43,811.38,230.54,809.6,259.56Z"/><path class="cls-7" d="M855.47,658.7c-13.5-.44-18.05,14.81-18.05,14.81s15,12.55,25.17,12.55,21.91-10.92,22.18-15.49-4.27-10.85-9.46-11.9S866.17,659.05,855.47,658.7Z"/><path class="cls-8" d="M884.76,670.58c2.4,4.18-11.8,15.49-22.18,15.49s-27.72-4.14-26.93-12.27c0.21-2.11.55-5.18,4.92-6.28-1.15,2.53.62,3.87,1.54,1.24,1.42-4.06,14.71-3,15.07,1.94,0.18,2.58,1.51,7.55,9.68,7.39S883.61,674.82,884.76,670.58Z"/><path class="cls-8" d="M866.86,673.51s4.24-6.46,7-6.27,2.56-3.79,2.56-3.79,4,7.44,0,7.2S866.86,673.51,866.86,673.51Z"/><path class="cls-8" d="M864.28,657.3a0.3,0.3,0,0,1,.1-0.06l0.3-.16a4.36,4.36,0,0,1,1-.34,5.27,5.27,0,0,1,1.52-.06,6.09,6.09,0,0,1,1.67.43,7.76,7.76,0,0,1,.77.39,5.82,5.82,0,0,1,.67.48,4.88,4.88,0,0,1,1,1.07,3.69,3.69,0,0,1,.45.91,2.52,2.52,0,0,1,.11.38,1,1,0,0,1-1.14,1.15l-0.12,0a2.81,2.81,0,0,1-.34-0.09c-0.21-.06-0.47-0.19-0.78-0.3-0.16-.06-0.3-0.14-0.46-0.22a3.87,3.87,0,0,1-.49-0.24c-0.33-.16-0.65-0.35-1-0.52s-0.66-.33-1-0.46-0.63-.26-0.9-0.37L865,659l-0.18-.07a0.13,0.13,0,0,0-.07,0,0.83,0.83,0,0,1-.68-1.27Z"/><path class="cls-8" d="M857.74,657.57l0.11,0,0.34,0a4.36,4.36,0,0,1,1.09,0,5.27,5.27,0,0,1,1.44.48,6.08,6.08,0,0,1,1.41,1,7.71,7.71,0,0,1,.58.64,5.88,5.88,0,0,1,.46.68,4.9,4.9,0,0,1,.52,1.34,3.7,3.7,0,0,1,.1,1,2.58,2.58,0,0,1,0,.39,1,1,0,0,1-1.48.68l-0.11-.06a2.85,2.85,0,0,1-.29-0.21c-0.18-.13-0.37-0.34-0.62-0.56s-0.23-.24-0.36-0.37a3.89,3.89,0,0,1-.37-0.39c-0.25-.27-0.49-0.56-0.74-0.83s-0.5-.54-0.75-0.78-0.5-.46-0.72-0.66l-0.56-.47a0.78,0.78,0,0,1-.14-0.13,0.13,0.13,0,0,0-.06,0,0.83,0.83,0,0,1-.19-1.43Z"/><path class="cls-8" d="M866.7,662.89l-0.29-.21c-0.17-.12-0.42-0.39-0.67-0.55l-0.81-.65-0.9-.68c-0.61-.42-1.18-0.81-1.65-1.16-0.23-.18-0.44-0.32-0.59-0.45a0.49,0.49,0,0,1-.19-0.19,0.85,0.85,0,0,1-.08-1.69s0.19-.09.46-0.17a3.62,3.62,0,0,1,1.11-.13,4.52,4.52,0,0,1,.73.09,4,4,0,0,1,.78.23,5.52,5.52,0,0,1,1.48.9,6.74,6.74,0,0,1,1.13,1.25l0.39,0.65c0.11,0.22.2,0.45,0.29,0.64a3.64,3.64,0,0,1,.24.92c0,0.22,0,.36,0,0.36A0.94,0.94,0,0,1,866.7,662.89Z"/></svg>