<svg id="Shadow" xmlns="http://www.w3.org/2000/svg" xmlns:xlink="http://www.w3.org/1999/xlink" viewBox="0 0 1792 768"><defs><style>.cls-1,.cls-12,.cls-4{fill:none;}.cls-2,.cls-5,.cls-8{fill:#24265b;}.cls-2{opacity:0.1;}.cls-3{fill:#eeb9a9;}.cls-10,.cls-11,.cls-12,.cls-13,.cls-3,.cls-4,.cls-5,.cls-6,.cls-9{stroke:#24265b;stroke-linecap:round;stroke-linejoin:round;}.cls-10,.cls-3,.cls-4,.cls-5,.cls-6{stroke-width:3px;}.cls-6{fill:#adcc29;}.cls-7{clip-path:url(#clip-path);}.cls-9{fill:#fff;}.cls-11,.cls-12,.cls-13,.cls-9{stroke-width:2.55px;}.cls-10{fill:#296bcc;}.cls-11{fill:#93acb8;}.cls-13{fill:#a8a887;}</style><clipPath id="clip-path"><path class="cls-1" d="M809.6,259.56c0,8.06,28.33,14.1,45.54,14.1,0.15,15.07.19,42.5,0.77,63.39,0.61,22-3.19,37.5-.77,55.26,3.34,24.55,130.13,18.68,127.57,4.6s-12.88-97.51-12.88-110.14c0-5.15,1.22-21.47,1.22-21.47s26.29-4.93,26.29-14.92c0-25.15-8.23-42.51-14.83-68-3.83-14.79-26.95-19.18-41.41-23.78-2.07-2.59-8.65-5.34-10-4.13,14.63,20.25,6.89,38.25-3.75,47.5-36.24-6.64-48.74-34-44-48.77-0.71-2.26-7.21.07-8.19,2.2-17.21,2.84-43.49,11.5-48.09,30.37C819.79,215.43,811.38,230.54,809.6,259.56Z"/></clipPath></defs><title>topic</title><path class="cls-2" d="M867,665c-14.84,0-178.68,12.77-178.68,26.35s61.23,34,98.35,34,64.22-12.66,84-12.66,84.07,18.5,107.36,18.5,37.87-25.8,48.53-23.91,117.49,22,117.49,6.38-74.25-18.63-84.72-23.37-2.87-6.29-10.22-12.4-39.79-11-53.61-11-77.83,12.25-90.73,12.25S881.88,665,867,665Z"/><polygon class="cls-2" points="1037.44 614.93 1136.19 666.25 1179.16 648.53 1179.16 636.81 1037.44 614.93"/><polygon class="cls-2" points="679.21 633.86 619.18 624.13 656.18 651.4 672.55 649.76 717.63 673.13 844.63 627.21 835.63 618.13 679.21 633.86"/><path class="cls-3" d="M976,418.49c-7.53-70.4-7.53-97.42-6.16-130.23,1.41,6.14,18.84,7.93,20.38-4.52s-2.84-99.56-20-112.6c-8.88-6.75-37-8.65-40.65-19.32a40.86,40.86,0,0,1-1.34-5.36,32.42,32.42,0,0,1-10.13,1.33c-7.17,0-21.4-8.49-27.42-14.87v1.88c0,15-11.79,25-25.06,28.49-15.57,4.12-28.35,13.32-33.49,28.87s-19.81,73.1-19.81,113.53c0,10.41,29.34,11.88,28.84-2.79-0.32-9.24,13.63-40.08,18.21-56.13,3.56,28.44,19.6,50.05,9.36,109.51C861.35,399.22,979,446.95,976,418.49Z"/><path class="cls-4" d="M922.51,183.19c4.68,1,7.88,7.09,4.76,11.15-1.87,2.44-5.95,1.88-7.19,1.43s-3.07-.72-3.56-2.89c-0.58-2.58,2.12-3.86,3.5-2.61s0.81,3.67.06,5.51a7.35,7.35,0,0,1-7.46,4c-4.29-.42-5.9-4.9-4.33-9.53"/><path class="cls-5" d="M965,654.13s7.68-79.68,10.12-117.66c0.69-10.78,3.95-89.52.9-118-1.52-14.21-2.73-26.65-3.69-37.73-5.2,8.22-84.49,12.84-106.21.43C865,410,871,428.52,870.43,431.49c-0.68,3.76-5.72,57.71-7.44,120.61-0.89,32.36,4.45,103.46,4.06,105.75l12.07,0.28c1.8-20,7.09-66.93,11.32-105.11,4.64-41.82,26.61-111.68,28.12-117.46a78.68,78.68,0,0,1,8.92-1.43c1.25,4.65,10,46.83,16.12,93.68S953,655.92,953,655.92l7,0.36Z"/><path class="cls-6" d="M809.6,259.56c0,8.06,28.33,14.1,45.54,14.1,0.15,15.07.19,42.5,0.77,63.39,0.61,22-3.19,37.5-.77,55.26,3.34,24.55,130.13,18.68,127.57,4.6s-12.88-97.51-12.88-110.14c0-5.15,1.22-21.47,1.22-21.47s26.29-4.93,26.29-14.92c0-25.15-8.23-42.51-14.83-68-3.83-14.79-26.95-19.18-41.41-23.78-2.07-2.59-8.65-5.34-10-4.13,14.63,20.25,6.89,38.25-3.75,47.5-36.24-6.64-48.74-34-44-48.77-0.71-2.26-7.21.07-8.19,2.2-17.21,2.84-43.49,11.5-48.09,30.37C819.79,215.43,811.38,230.54,809.6,259.56Z"/><g class="cls-7"><path class="cls-8" d="M1279.42,437l-17,12,1.76,2.18,18-10.32s4.67-2.85,3.39-4.91S1279.42,437,1279.42,437Z"/><path class="cls-8" d="M1261.47,436c1.37,0.86,11.22,8.16,11.22,8.16s2.73,10.83,3.49,13.12c0.53,1.59,2.76.21,2.76-1.69s-0.43-15.24-.43-15.24-12.06-5.28-13.55-6.2S1258.93,434.44,1261.47,436Z"/><path class="cls-8" d="M1257.53,446.5c0.64,0.4,5.24,3.81,5.24,3.81s1.28,5.06,1.63,6.13c0.25,0.74,1.29.1,1.29-.79s0.59-7.12.59-7.12-6.43-2.47-7.12-2.9S1256.35,445.76,1257.53,446.5Z"/><path class="cls-8" d="M1234.42,454.89l-17-12,1.76-2.18,18,10.32s4.67,2.85,3.39,4.91S1234.42,454.89,1234.42,454.89Z"/><path class="cls-8" d="M1216.47,455.82c1.37-.86,11.22-8.16,11.22-8.16s2.73-10.83,3.49-13.12c0.53-1.59,2.76-.21,2.76,1.69s-0.43,15.24-.43,15.24-12.06,5.28-13.55,6.2S1213.93,457.4,1216.47,455.82Z"/><path class="cls-8" d="M1212.53,445.34c0.64-.4,5.24-3.81,5.24-3.81s1.28-5.06,1.63-6.13c0.25-.74,1.29-0.1,1.29.79s0.59,7.12.59,7.12-6.43,2.47-7.12,2.9S1211.35,446.08,1212.53,445.34Z"/><path class="cls-8" d="M1189.42,437l-17,12,1.76,2.18,18-10.32s4.67-2.85,3.39-4.91S1189.42,437,1189.42,437Z"/><path class="cls-8" d="M1171.47,436c1.37,0.86,11.22,8.16,11.22,8.16s2.73,10.83,3.49,13.12c0.53,1.59,2.76.21,2.76-1.69s-0.43-15.24-.43-15.24-12.06-5.28-13.55-6.2S1168.93,434.44,1171.47,436Z"/><path class="cls-8" d="M1167.53,446.5c0.64,0.4,5.24,3.81,5.24,3.81s1.28,5.06,1.63,6.13c0.25,0.74,1.29.1,1.29-.79s0.59-7.12.59-7.12-6.43-2.47-7.12-2.9S1166.35,445.76,1167.53,446.5Z"/><path class="cls-8" d="M1144.42,454.89l-17-12,1.76-2.18,18,10.32s4.67,2.85,3.39,4.91S1144.42,454.89,1144.42,454.89Z"/><path class="cls-8" d="M1126.47,455.82c1.37-.86,11.22-8.16,11.22-8.16s2.73-10.83,3.49-13.12c0.53-1.59,2.76-.21,2.76,1.69s-0.43,15.24-.43,15.24-12.06,5.28-13.55,6.2S1123.93,457.4,1126.47,455.82Z"/><path class="cls-8" d="M1122.53,445.34c0.64-.4,5.24-3.81,5.24-3.81s1.28-5.06,1.63-6.13c0.25-.74,1.29-0.1,1.29.79s0.59,7.12.59,7.12-6.43,2.47-7.12,2.9S1121.35,446.08,1122.53,445.34Z"/><path class="cls-8" d="M1099.42,437l-17,12,1.76,2.18,18-10.32s4.67-2.85,3.39-4.91S1099.42,437,1099.42,437Z"/><path class="cls-8" d="M1081.47,436c1.37,0.86,11.22,8.16,11.22,8.16s2.73,10.83,3.49,13.12c0.53,1.59,2.76.21,2.76-1.69s-0.43-15.24-.43-15.24-12.06-5.28-13.55-6.2S1078.93,434.44,1081.47,436Z"/><path class="cls-8" d="M1077.53,446.5c0.64,0.4,5.24,3.81,5.24,3.81s1.28,5.06,1.63,6.13c0.25,0.74,1.29.1,1.29-.79s0.59-7.12.59-7.12-6.43-2.47-7.12-2.9S1076.35,445.76,1077.53,446.5Z"/><path class="cls-8" d="M1054.42,454.89l-17-12,1.76-2.18,18,10.32s4.67,2.85,3.39,4.91S1054.42,454.89,1054.42,454.89Z"/><path class="cls-8" d="M1036.47,455.82c1.37-.86,11.22-8.16,11.22-8.16s2.73-10.83,3.49-13.12c0.53-1.59,2.76-.21,2.76,1.69s-0.43,15.24-.43,15.24-12.06,5.28-13.55,6.2S1033.93,457.4,1036.47,455.82Z"/><path class="cls-8" d="M1032.53,445.34c0.64-.4,5.24-3.81,5.24-3.81s1.28-5.06,1.63-6.13c0.25-.74,1.29-0.1,1.29.79s0.59,7.12.59,7.12-6.43,2.47-7.12,2.9S1031.35,446.08,1032.53,445.34Z"/><path class="cls-8" d="M1009.42,437l-17,12,1.76,2.18,18-10.32s4.67-2.85,3.39-4.91S1009.42,437,1009.42,437Z"/><path class="cls-8" d="M991.47,436c1.37,0.86,11.22,8.16,11.22,8.16s2.73,10.83,3.49,13.12c0.53,1.59,2.76.21,2.76-1.69s-0.43-15.24-.43-15.24-12.06-5.28-13.55-6.2S988.93,434.44,991.47,436Z"/><path class="cls-8" d="M987.53,446.5c0.64,0.4,5.24,3.81,5.24,3.81s1.28,5.06,1.63,6.13c0.25,0.74,1.29.1,1.29-.79s0.59-7.12.59-7.12-6.43-2.47-7.12-2.9S986.35,445.76,987.53,446.5Z"/><path class="cls-8" d="M964.42,454.89l-17-12,1.76-2.18,18,10.32s4.67,2.85,3.39,4.91S964.42,454.89,964.42,454.89Z"/><path class="cls-8" d="M946.47,455.82c1.37-.86,11.22-8.16,11.22-8.16s2.73-10.83,3.49-13.12c0.53-1.59,2.76-.21,2.76,1.69s-0.43,15.24-.43,15.24-12.06,5.28-13.55,6.2S943.93,457.4,946.47,455.82Z"/><path class="cls-8" d="M942.53,445.34c0.64-.4,5.24-3.81,5.24-3.81s1.28-5.06,1.63-6.13c0.25-.74,1.29-0.1,1.29.79s0.59,7.12.59,7.12-6.43,2.47-7.12,2.9S941.35,446.08,942.53,445.34Z"/><path class="cls-8" d="M919.42,437l-17,12,1.76,2.18,18-10.32s4.67-2.85,3.39-4.91S919.42,437,919.42,437Z"/><path class="cls-8" d="M901.47,436c1.37,0.86,11.22,8.16,11.22,8.16s2.73,10.83,3.49,13.12c0.53,1.59,2.76.21,2.76-1.69s-0.43-15.24-.43-15.24-12.06-5.28-13.55-6.2S898.93,434.44,901.47,436Z"/><path class="cls-8" d="M897.53,446.5c0.64,0.4,5.24,3.81,5.24,3.81s1.28,5.06,1.63,6.13c0.25,0.74,1.29.1,1.29-.79s0.59-7.12.59-7.12-6.43-2.47-7.12-2.9S896.35,445.76,897.53,446.5Z"/><path class="cls-8" d="M1256.42,392l-17,12,1.76,2.18,18-10.32s4.67-2.85,3.39-4.91S1256.42,392,1256.42,392Z"/><path class="cls-8" d="M1238.47,391c1.37,0.86,11.22,8.16,11.22,8.16s2.73,10.83,3.49,13.12c0.53,1.59,2.76.21,2.76-1.69s-0.43-15.24-.43-15.24-12.06-5.28-13.55-6.2S1235.93,389.44,1238.47,391Z"/><path class="cls-8" d="M1234.53,401.5c0.64,0.4,5.24,3.81,5.24,3.81s1.28,5.06,1.63,6.13c0.25,0.74,1.29.1,1.29-.79s0.59-7.12.59-7.12-6.43-2.47-7.12-2.9S1233.35,400.76,1234.53,401.5Z"/><path class="cls-8" d="M1211.42,409.89l-17-12,1.76-2.18,18,10.32s4.67,2.85,3.39,4.91S1211.42,409.89,1211.42,409.89Z"/><path class="cls-8" d="M1193.47,410.82c1.37-.86,11.22-8.16,11.22-8.16s2.73-10.83,3.49-13.12c0.53-1.59,2.76-.21,2.76,1.69s-0.43,15.24-.43,15.24-12.06,5.28-13.55,6.2S1190.93,412.4,1193.47,410.82Z"/><path class="cls-8" d="M1189.53,400.34c0.64-.4,5.24-3.81,5.24-3.81s1.28-5.06,1.63-6.13c0.25-.74,1.29-0.1,1.29.79s0.59,7.12.59,7.12-6.43,2.47-7.12,2.9S1188.35,401.08,1189.53,400.34Z"/><path class="cls-8" d="M1166.42,392l-17,12,1.76,2.18,18-10.32s4.67-2.85,3.39-4.91S1166.42,392,1166.42,392Z"/><path class="cls-8" d="M1148.47,391c1.37,0.86,11.22,8.16,11.22,8.16s2.73,10.83,3.49,13.12c0.53,1.59,2.76.21,2.76-1.69s-0.43-15.24-.43-15.24-12.06-5.28-13.55-6.2S1145.93,389.44,1148.47,391Z"/><path class="cls-8" d="M1144.53,401.5c0.64,0.4,5.24,3.81,5.24,3.81s1.28,5.06,1.63,6.13c0.25,0.74,1.29.1,1.29-.79s0.59-7.12.59-7.12-6.43-2.47-7.12-2.9S1143.35,400.76,1144.53,401.5Z"/><path class="cls-8" d="M1121.42,409.89l-17-12,1.76-2.18,18,10.32s4.67,2.85,3.39,4.91S1121.42,409.89,1121.42,409.89Z"/><path class="cls-8" d="M1103.47,410.82c1.37-.86,11.22-8.16,11.22-8.16s2.73-10.83,3.49-13.12c0.53-1.59,2.76-.21,2.76,1.69s-0.43,15.24-.43,15.24-12.06,5.28-13.55,6.2S1100.93,412.4,1103.47,410.82Z"/><path class="cls-8" d="M1099.53,400.34c0.64-.4,5.24-3.81,5.24-3.81s1.28-5.06,1.63-6.13c0.25-.74,1.29-0.1,1.29.79s0.59,7.12.59,7.12-6.43,2.47-7.12,2.9S1098.35,401.08,1099.53,400.34Z"/><path class="cls-8" d="M1076.42,392l-17,12,1.76,2.18,18-10.32s4.67-2.85,3.39-4.91S1076.42,392,1076.42,392Z"/><path class="cls-8" d="M1058.47,391c1.37,0.86,11.22,8.16,11.22,8.16s2.73,10.83,3.49,13.12c0.53,1.59,2.76.21,2.76-1.69s-0.43-15.24-.43-15.24-12.06-5.28-13.55-6.2S1055.93,389.44,1058.47,391Z"/><path class="cls-8" d="M1054.53,401.5c0.64,0.4,5.24,3.81,5.24,3.81s1.28,5.06,1.63,6.13c0.25,0.74,1.29.1,1.29-.79s0.59-7.12.59-7.12-6.43-2.47-7.12-2.9S1053.35,400.76,1054.53,401.5Z"/><path class="cls-8" d="M1031.42,409.89l-17-12,1.76-2.18,18,10.32s4.67,2.85,3.39,4.91S1031.42,409.89,1031.42,409.89Z"/><path class="cls-8" d="M1013.47,410.82c1.37-.86,11.22-8.16,11.22-8.16s2.73-10.83,3.49-13.12c0.53-1.59,2.76-.21,2.76,1.69s-0.43,15.24-.43,15.24-12.06,5.28-13.55,6.2S1010.93,412.4,1013.47,410.82Z"/><path class="cls-8" d="M1009.53,400.34c0.64-.4,5.24-3.81,5.24-3.81s1.28-5.06,1.63-6.13c0.25-.74,1.29-0.1,1.29.79s0.59,7.12.59,7.12-6.43,2.47-7.12,2.9S1008.35,401.08,1009.53,400.34Z"/><path class="cls-8" d="M986.42,392l-17,12,1.76,2.18,18-10.32s4.67-2.85,3.39-4.91S986.42,392,986.42,392Z"/><path class="cls-8" d="M968.47,391c1.37,0.86,11.22,8.16,11.22,8.16s2.73,10.83,3.49,13.12c0.53,1.59,2.76.21,2.76-1.69s-0.43-15.24-.43-15.24-12.06-5.28-13.55-6.2S965.93,389.44,968.47,391Z"/><path class="cls-8" d="M964.53,401.5c0.64,0.4,5.24,3.81,5.24,3.81s1.28,5.06,1.63,6.13c0.25,0.74,1.29.1,1.29-.79s0.59-7.12.59-7.12-6.43-2.47-7.12-2.9S963.35,400.76,964.53,401.5Z"/><path class="cls-8" d="M941.42,409.89l-17-12,1.76-2.18,18,10.32s4.67,2.85,3.39,4.91S941.42,409.89,941.42,409.89Z"/><path class="cls-8" d="M923.47,410.82c1.37-.86,11.22-8.16,11.22-8.16s2.73-10.83,3.49-13.12c0.53-1.59,2.76-.21,2.76,1.69s-0.43,15.24-.43,15.24-12.06,5.28-13.55,6.2S920.93,412.4,923.47,410.82Z"/><path class="cls-8" d="M919.53,400.34c0.64-.4,5.24-3.81,5.24-3.81s1.28-5.06,1.63-6.13c0.25-.74,1.29-0.1,1.29.79s0.59,7.12.59,7.12-6.43,2.47-7.12,2.9S918.35,401.08,919.53,400.34Z"/><path class="cls-8" d="M896.42,392l-17,12,1.76,2.18,18-10.32s4.67-2.85,3.39-4.91S896.42,392,896.42,392Z"/><path class="cls-8" d="M878.47,391c1.37,0.86,11.22,8.16,11.22,8.16s2.73,10.83,3.49,13.12c0.53,1.59,2.76.21,2.76-1.69s-0.43-15.24-.43-15.24-12.06-5.28-13.55-6.2S875.93,389.44,878.47,391Z"/><path class="cls-8" d="M874.53,401.5c0.64,0.4,5.24,3.81,5.24,3.81s1.28,5.06,1.63,6.13c0.25,0.74,1.29.1,1.29-.79s0.59-7.12.59-7.12-6.43-2.47-7.12-2.9S873.35,400.76,874.53,401.5Z"/><path class="cls-8" d="M1233.42,347l-17,12,1.76,2.18,18-10.32s4.67-2.85,3.39-4.91S1233.42,347,1233.42,347Z"/><path class="cls-8" d="M1215.47,346c1.37,0.86,11.22,8.16,11.22,8.16s2.73,10.83,3.49,13.12c0.53,1.59,2.76.21,2.76-1.69s-0.43-15.24-.43-15.24-12.06-5.28-13.55-6.2S1212.93,344.44,1215.47,346Z"/><path class="cls-8" d="M1211.53,356.5c0.64,0.4,5.24,3.81,5.24,3.81s1.28,5.06,1.63,6.13c0.25,0.74,1.29.1,1.29-.79s0.59-7.12.59-7.12-6.43-2.47-7.12-2.9S1210.35,355.76,1211.53,356.5Z"/><path class="cls-8" d="M1188.42,364.89l-17-12,1.76-2.18,18,10.32s4.67,2.85,3.39,4.91S1188.42,364.89,1188.42,364.89Z"/><path class="cls-8" d="M1170.47,365.82c1.37-.86,11.22-8.16,11.22-8.16s2.73-10.83,3.49-13.12c0.53-1.59,2.76-.21,2.76,1.69s-0.43,15.24-.43,15.24-12.06,5.28-13.55,6.2S1167.93,367.4,1170.47,365.82Z"/><path class="cls-8" d="M1166.53,355.34c0.64-.4,5.24-3.81,5.24-3.81s1.28-5.06,1.63-6.13c0.25-.74,1.29-0.1,1.29.79s0.59,7.12.59,7.12-6.43,2.47-7.12,2.9S1165.35,356.08,1166.53,355.34Z"/><path class="cls-8" d="M1143.42,347l-17,12,1.76,2.18,18-10.32s4.67-2.85,3.39-4.91S1143.42,347,1143.42,347Z"/><path class="cls-8" d="M1125.47,346c1.37,0.86,11.22,8.16,11.22,8.16s2.73,10.83,3.49,13.12c0.53,1.59,2.76.21,2.76-1.69s-0.43-15.24-.43-15.24-12.06-5.28-13.55-6.2S1122.93,344.44,1125.47,346Z"/><path class="cls-8" d="M1121.53,356.5c0.64,0.4,5.24,3.81,5.24,3.81s1.28,5.06,1.63,6.13c0.25,0.74,1.29.1,1.29-.79s0.59-7.12.59-7.12-6.43-2.47-7.12-2.9S1120.35,355.76,1121.53,356.5Z"/><path class="cls-8" d="M1098.42,364.89l-17-12,1.76-2.18,18,10.32s4.67,2.85,3.39,4.91S1098.42,364.89,1098.42,364.89Z"/><path class="cls-8" d="M1080.47,365.82c1.37-.86,11.22-8.16,11.22-8.16s2.73-10.83,3.49-13.12c0.53-1.59,2.76-.21,2.76,1.69s-0.43,15.24-.43,15.24-12.06,5.28-13.55,6.2S1077.93,367.4,1080.47,365.82Z"/><path class="cls-8" d="M1076.53,355.34c0.64-.4,5.24-3.81,5.24-3.81s1.28-5.06,1.63-6.13c0.25-.74,1.29-0.1,1.29.79s0.59,7.12.59,7.12-6.43,2.47-7.12,2.9S1075.35,356.08,1076.53,355.34Z"/><path class="cls-8" d="M1053.42,347l-17,12,1.76,2.18,18-10.32s4.67-2.85,3.39-4.91S1053.42,347,1053.42,347Z"/><path class="cls-8" d="M1035.47,346c1.37,0.86,11.22,8.16,11.22,8.16s2.73,10.83,3.49,13.12c0.53,1.59,2.76.21,2.76-1.69s-0.43-15.24-.43-15.24-12.06-5.28-13.55-6.2S1032.93,344.44,1035.47,346Z"/><path class="cls-8" d="M1031.53,356.5c0.64,0.4,5.24,3.81,5.24,3.81s1.28,5.06,1.63,6.13c0.25,0.74,1.29.1,1.29-.79s0.59-7.12.59-7.12-6.43-2.47-7.12-2.9S1030.35,355.76,1031.53,356.5Z"/><path class="cls-8" d="M1008.42,364.89l-17-12,1.76-2.18,18,10.32s4.67,2.85,3.39,4.91S1008.42,364.89,1008.42,364.89Z"/><path class="cls-8" d="M990.47,365.82c1.37-.86,11.22-8.16,11.22-8.16s2.73-10.83,3.49-13.12c0.53-1.59,2.76-.21,2.76,1.69s-0.43,15.24-.43,15.24-12.06,5.28-13.55,6.2S987.93,367.4,990.47,365.82Z"/><path class="cls-8" d="M986.53,355.34c0.64-.4,5.24-3.81,5.24-3.81s1.28-5.06,1.63-6.13c0.25-.74,1.29-0.1,1.29.79s0.59,7.12.59,7.12-6.43,2.47-7.12,2.9S985.35,356.08,986.53,355.34Z"/><path class="cls-8" d="M963.42,347l-17,12,1.76,2.18,18-10.32s4.67-2.85,3.39-4.91S963.42,347,963.42,347Z"/><path class="cls-8" d="M945.47,346c1.37,0.86,11.22,8.16,11.22,8.16s2.73,10.83,3.49,13.12c0.53,1.59,2.76.21,2.76-1.69s-0.43-15.24-.43-15.24-12.06-5.28-13.55-6.2S942.93,344.44,945.47,346Z"/><path class="cls-8" d="M941.53,356.5c0.64,0.4,5.24,3.81,5.24,3.81s1.28,5.06,1.63,6.13c0.25,0.74,1.29.1,1.29-.79s0.59-7.12.59-7.12-6.43-2.47-7.12-2.9S940.35,355.76,941.53,356.5Z"/><path class="cls-8" d="M918.42,364.89l-17-12,1.76-2.18,18,10.32s4.67,2.85,3.39,4.91S918.42,364.89,918.42,364.89Z"/><path class="cls-8" d="M900.47,365.82c1.37-.86,11.22-8.16,11.22-8.16s2.73-10.83,3.49-13.12c0.53-1.59,2.76-.21,2.76,1.69s-0.43,15.24-.43,15.24-12.06,5.28-13.55,6.2S897.93,367.4,900.47,365.82Z"/><path class="cls-8" d="M896.53,355.34c0.64-.4,5.24-3.81,5.24-3.81s1.28-5.06,1.63-6.13c0.25-.74,1.29-0.1,1.29.79s0.59,7.12.59,7.12-6.43,2.47-7.12,2.9S895.35,356.08,896.53,355.34Z"/><path class="cls-8" d="M873.42,347l-17,12,1.76,2.18,18-10.32s4.67-2.85,3.39-4.91S873.42,347,873.42,347Z"/><path class="cls-8" d="M855.47,346c1.37,0.86,11.22,8.16,11.22,8.16s2.73,10.83,3.49,13.12c0.53,1.59,2.76.21,2.76-1.69s-0.43-15.24-.43-15.24-12.06-5.28-13.55-6.2S852.93,344.44,855.47,346Z"/><path class="cls-8" d="M851.53,356.5c0.64,0.4,5.24,3.81,5.24,3.81s1.28,5.06,1.63,6.13c0.25,0.74,1.29.1,1.29-.79s0.59-7.12.59-7.12-6.43-2.47-7.12-2.9S850.35,355.76,851.53,356.5Z"/><path class="cls-8" d="M1210.42,302l-17,12,1.76,2.18,18-10.32s4.67-2.85,3.39-4.91S1210.42,302,1210.42,302Z"/><path class="cls-8" d="M1192.47,301c1.37,0.86,11.22,8.16,11.22,8.16s2.73,10.83,3.49,13.12c0.53,1.59,2.76.21,2.76-1.69s-0.43-15.24-.43-15.24-12.06-5.28-13.55-6.2S1189.93,299.44,1192.47,301Z"/><path class="cls-8" d="M1188.53,311.5c0.64,0.4,5.24,3.81,5.24,3.81s1.28,5.06,1.63,6.13c0.25,0.74,1.29.1,1.29-.79s0.59-7.12.59-7.12-6.43-2.47-7.12-2.9S1187.35,310.76,1188.53,311.5Z"/><path class="cls-8" d="M1165.42,319.89l-17-12,1.76-2.18,18,10.32s4.67,2.85,3.39,4.91S1165.42,319.89,1165.42,319.89Z"/><path class="cls-8" d="M1147.47,320.82c1.37-.86,11.22-8.16,11.22-8.16s2.73-10.83,3.49-13.12c0.53-1.59,2.76-.21,2.76,1.69s-0.43,15.24-.43,15.24-12.06,5.28-13.55,6.2S1144.93,322.4,1147.47,320.82Z"/><path class="cls-8" d="M1143.53,310.34c0.64-.4,5.24-3.81,5.24-3.81s1.28-5.06,1.63-6.13c0.25-.74,1.29-0.1,1.29.79s0.59,7.12.59,7.12-6.43,2.47-7.12,2.9S1142.35,311.08,1143.53,310.34Z"/><path class="cls-8" d="M1120.42,302l-17,12,1.76,2.18,18-10.32s4.67-2.85,3.39-4.91S1120.42,302,1120.42,302Z"/><path class="cls-8" d="M1102.47,301c1.37,0.86,11.22,8.16,11.22,8.16s2.73,10.83,3.49,13.12c0.53,1.59,2.76.21,2.76-1.69s-0.43-15.24-.43-15.24-12.06-5.28-13.55-6.2S1099.93,299.44,1102.47,301Z"/><path class="cls-8" d="M1098.53,311.5c0.64,0.4,5.24,3.81,5.24,3.81s1.28,5.06,1.63,6.13c0.25,0.74,1.29.1,1.29-.79s0.59-7.12.59-7.12-6.43-2.47-7.12-2.9S1097.35,310.76,1098.53,311.5Z"/><path class="cls-8" d="M1075.42,319.89l-17-12,1.76-2.18,18,10.32s4.67,2.85,3.39,4.91S1075.42,319.89,1075.42,319.89Z"/><path class="cls-8" d="M1057.47,320.82c1.37-.86,11.22-8.16,11.22-8.16s2.73-10.83,3.49-13.12c0.53-1.59,2.76-.21,2.76,1.69s-0.43,15.24-.43,15.24-12.06,5.28-13.55,6.2S1054.93,322.4,1057.47,320.82Z"/><path class="cls-8" d="M1053.53,310.34c0.64-.4,5.24-3.81,5.24-3.81s1.28-5.06,1.63-6.13c0.25-.74,1.29-0.1,1.29.79s0.59,7.12.59,7.12-6.43,2.47-7.12,2.9S1052.35,311.08,1053.53,310.34Z"/><path class="cls-8" d="M1030.42,302l-17,12,1.76,2.18,18-10.32s4.67-2.85,3.39-4.91S1030.42,302,1030.42,302Z"/><path class="cls-8" d="M1012.47,301c1.37,0.86,11.22,8.16,11.22,8.16s2.73,10.83,3.49,13.12c0.53,1.59,2.76.21,2.76-1.69s-0.43-15.24-.43-15.24-12.06-5.28-13.55-6.2S1009.93,299.44,1012.47,301Z"/><path class="cls-8" d="M1008.53,311.5c0.64,0.4,5.24,3.81,5.24,3.81s1.28,5.06,1.63,6.13c0.25,0.74,1.29.1,1.29-.79s0.59-7.12.59-7.12-6.43-2.47-7.12-2.9S1007.35,310.76,1008.53,311.5Z"/><path class="cls-8" d="M985.42,319.89l-17-12,1.76-2.18,18,10.32s4.67,2.85,3.39,4.91S985.42,319.89,985.42,319.89Z"/><path class="cls-8" d="M967.47,320.82c1.37-.86,11.22-8.16,11.22-8.16s2.73-10.83,3.49-13.12c0.53-1.59,2.76-.21,2.76,1.69s-0.43,15.24-.43,15.24-12.06,5.28-13.55,6.2S964.93,322.4,967.47,320.82Z"/><path class="cls-8" d="M963.53,310.34c0.64-.4,5.24-3.81,5.24-3.81s1.28-5.06,1.63-6.13c0.25-.74,1.29-0.1,1.29.79s0.59,7.12.59,7.12-6.43,2.47-7.12,2.9S962.35,311.08,963.53,310.34Z"/><path class="cls-8" d="M940.42,302l-17,12,1.76,2.18,18-10.32s4.67-2.85,3.39-4.91S940.42,302,940.42,302Z"/><path class="cls-8" d="M922.47,301c1.37,0.86,11.22,8.16,11.22,8.16s2.73,10.83,3.49,13.12c0.53,1.59,2.76.21,2.76-1.69s-0.43-15.24-.43-15.24-12.06-5.28-13.55-6.2S919.93,299.44,922.47,301Z"/><path class="cls-8" d="M918.53,311.5c0.64,0.4,5.24,3.81,5.24,3.81s1.28,5.06,1.63,6.13c0.25,0.74,1.29.1,1.29-.79s0.59-7.12.59-7.12-6.43-2.47-7.12-2.9S917.35,310.76,918.53,311.5Z"/><path class="cls-8" d="M895.42,319.89l-17-12,1.76-2.18,18,10.32s4.67,2.85,3.39,4.91S895.42,319.89,895.42,319.89Z"/><path class="cls-8" d="M877.47,320.82c1.37-.86,11.22-8.16,11.22-8.16s2.73-10.83,3.49-13.12c0.53-1.59,2.76-.21,2.76,1.69s-0.43,15.24-.43,15.24-12.06,5.28-13.55,6.2S874.93,322.4,877.47,320.82Z"/><path class="cls-8" d="M873.53,310.34c0.64-.4,5.24-3.81,5.24-3.81s1.28-5.06,1.63-6.13c0.25-.74,1.29-0.1,1.29.79s0.59,7.12.59,7.12-6.43,2.47-7.12,2.9S872.35,311.08,873.53,310.34Z"/><path class="cls-8" d="M850.42,302l-17,12,1.76,2.18,18-10.32s4.67-2.85,3.39-4.91S850.42,302,850.42,302Z"/><path class="cls-8" d="M832.47,301c1.37,0.86,11.22,8.16,11.22,8.16s2.73,10.83,3.49,13.12c0.53,1.59,2.76.21,2.76-1.69s-0.43-15.24-.43-15.24-12.06-5.28-13.55-6.2S829.93,299.44,832.47,301Z"/><path class="cls-8" d="M828.53,311.5c0.64,0.4,5.24,3.81,5.24,3.81s1.28,5.06,1.63,6.13c0.25,0.74,1.29.1,1.29-.79s0.59-7.12.59-7.12-6.43-2.47-7.12-2.9S827.35,310.76,828.53,311.5Z"/><path class="cls-8" d="M1187.42,257l-17,12,1.76,2.18,18-10.32s4.67-2.85,3.39-4.91S1187.42,257,1187.42,257Z"/><path class="cls-8" d="M1169.47,256c1.37,0.86,11.22,8.16,11.22,8.16s2.73,10.83,3.49,13.12c0.53,1.59,2.76.21,2.76-1.69s-0.43-15.24-.43-15.24-12.06-5.28-13.55-6.2S1166.93,254.44,1169.47,256Z"/><path class="cls-8" d="M1165.53,266.5c0.64,0.4,5.24,3.81,5.24,3.81s1.28,5.06,1.63,6.13c0.25,0.74,1.29.1,1.29-.79s0.59-7.12.59-7.12-6.43-2.47-7.12-2.9S1164.35,265.76,1165.53,266.5Z"/><path class="cls-8" d="M1142.42,274.89l-17-12,1.76-2.18,18,10.32s4.67,2.85,3.39,4.91S1142.42,274.89,1142.42,274.89Z"/><path class="cls-8" d="M1124.47,275.82c1.37-.86,11.22-8.16,11.22-8.16s2.73-10.83,3.49-13.12c0.53-1.59,2.76-.21,2.76,1.69s-0.43,15.24-.43,15.24-12.06,5.28-13.55,6.2S1121.93,277.4,1124.47,275.82Z"/><path class="cls-8" d="M1120.53,265.34c0.64-.4,5.24-3.81,5.24-3.81s1.28-5.06,1.63-6.13c0.25-.74,1.29-0.1,1.29.79s0.59,7.12.59,7.12-6.43,2.47-7.12,2.9S1119.35,266.08,1120.53,265.34Z"/><path class="cls-8" d="M1097.42,257l-17,12,1.76,2.18,18-10.32s4.67-2.85,3.39-4.91S1097.42,257,1097.42,257Z"/><path class="cls-8" d="M1079.47,256c1.37,0.86,11.22,8.16,11.22,8.16s2.73,10.83,3.49,13.12c0.53,1.59,2.76.21,2.76-1.69s-0.43-15.24-.43-15.24-12.06-5.28-13.55-6.2S1076.93,254.44,1079.47,256Z"/><path class="cls-8" d="M1075.53,266.5c0.64,0.4,5.24,3.81,5.24,3.81s1.28,5.06,1.63,6.13c0.25,0.74,1.29.1,1.29-.79s0.59-7.12.59-7.12-6.43-2.47-7.12-2.9S1074.35,265.76,1075.53,266.5Z"/><path class="cls-8" d="M1052.42,274.89l-17-12,1.76-2.18,18,10.32s4.67,2.85,3.39,4.91S1052.42,274.89,1052.42,274.89Z"/><path class="cls-8" d="M1034.47,275.82c1.37-.86,11.22-8.16,11.22-8.16s2.73-10.83,3.49-13.12c0.53-1.59,2.76-.21,2.76,1.69s-0.43,15.24-.43,15.24-12.06,5.28-13.55,6.2S1031.93,277.4,1034.47,275.82Z"/><path class="cls-8" d="M1030.53,265.34c0.64-.4,5.24-3.81,5.24-3.81s1.28-5.06,1.63-6.13c0.25-.74,1.29-0.1,1.29.79s0.59,7.12.59,7.12-6.43,2.47-7.12,2.9S1029.35,266.08,1030.53,265.34Z"/><path class="cls-8" d="M1007.42,257l-17,12,1.76,2.18,18-10.32s4.67-2.85,3.39-4.91S1007.42,257,1007.42,257Z"/><path class="cls-8" d="M989.47,256c1.37,0.86,11.22,8.16,11.22,8.16s2.73,10.83,3.49,13.12c0.53,1.59,2.76.21,2.76-1.69s-0.43-15.24-.43-15.24-12.06-5.28-13.55-6.2S986.93,254.44,989.47,256Z"/><path class="cls-8" d="M985.53,266.5c0.64,0.4,5.24,3.81,5.24,3.81s1.28,5.06,1.63,6.13c0.25,0.74,1.29.1,1.29-.79s0.59-7.12.59-7.12-6.43-2.47-7.12-2.9S984.35,265.76,985.53,266.5Z"/><path class="cls-8" d="M962.42,274.89l-17-12,1.76-2.18,18,10.32s4.67,2.85,3.39,4.91S962.42,274.89,962.42,274.89Z"/><path class="cls-8" d="M944.47,275.82c1.37-.86,11.22-8.16,11.22-8.16s2.73-10.83,3.49-13.12c0.53-1.59,2.76-.21,2.76,1.69s-0.43,15.24-.43,15.24-12.06,5.28-13.55,6.2S941.93,277.4,944.47,275.82Z"/><path class="cls-8" d="M940.53,265.34c0.64-.4,5.24-3.81,5.24-3.81s1.28-5.06,1.63-6.13c0.25-.74,1.29-0.1,1.29.79s0.59,7.12.59,7.12-6.43,2.47-7.12,2.9S939.35,266.08,940.53,265.34Z"/><path class="cls-8" d="M917.42,257l-17,12,1.76,2.18,18-10.32s4.67-2.85,3.39-4.91S917.42,257,917.42,257Z"/><path class="cls-8" d="M899.47,256c1.37,0.86,11.22,8.16,11.22,8.16s2.73,10.83,3.49,13.12c0.53,1.59,2.76.21,2.76-1.69s-0.43-15.24-.43-15.24-12.06-5.28-13.55-6.2S896.93,254.44,899.47,256Z"/><path class="cls-8" d="M895.53,266.5c0.64,0.4,5.24,3.81,5.24,3.81s1.28,5.06,1.63,6.13c0.25,0.74,1.29.1,1.29-.79s0.59-7.12.59-7.12-6.43-2.47-7.12-2.9S894.35,265.76,895.53,266.5Z"/><path class="cls-8" d="M872.42,274.89l-17-12,1.76-2.18,18,10.32s4.67,2.85,3.39,4.91S872.42,274.89,872.42,274.89Z"/><path class="cls-8" d="M854.47,275.82c1.37-.86,11.22-8.16,11.22-8.16s2.73-10.83,3.49-13.12c0.53-1.59,2.76-.21,2.76,1.69s-0.43,15.24-.43,15.24-12.06,5.28-13.55,6.2S851.93,277.4,854.47,275.82Z"/><path class="cls-8" d="M850.53,265.34c0.64-.4,5.24-3.81,5.24-3.81s1.28-5.06,1.63-6.13c0.25-.74,1.29-0.1,1.29.79s0.59,7.12.59,7.12-6.43,2.47-7.12,2.9S849.35,266.08,850.53,265.34Z"/><path class="cls-8" d="M827.42,257l-17,12,1.76,2.18,18-10.32s4.67-2.85,3.39-4.91S827.42,257,827.42,257Z"/><path class="cls-8" d="M809.47,256c1.37,0.86,11.22,8.16,11.22,8.16s2.73,10.83,3.49,13.12c0.53,1.59,2.76.21,2.76-1.69s-0.43-15.24-.43-15.24-12.06-5.28-13.55-6.2S806.93,254.44,809.47,256Z"/><path class="cls-8" d="M805.53,266.5c0.64,0.4,5.24,3.81,5.24,3.81s1.28,5.06,1.63,6.13c0.25,0.74,1.29.1,1.29-.79s0.59-7.12.59-7.12-6.43-2.47-7.12-2.9S804.35,265.76,805.53,266.5Z"/><path class="cls-8" d="M1164.42,212l-17,12,1.76,2.18,18-10.32s4.67-2.85,3.39-4.91S1164.42,212,1164.42,212Z"/><path class="cls-8" d="M1146.47,211c1.37,0.86,11.22,8.16,11.22,8.16s2.73,10.83,3.49,13.12c0.53,1.59,2.76.21,2.76-1.69s-0.43-15.24-.43-15.24-12.06-5.28-13.55-6.2S1143.93,209.44,1146.47,211Z"/><path class="cls-8" d="M1142.53,221.5c0.64,0.4,5.24,3.81,5.24,3.81s1.28,5.06,1.63,6.13c0.25,0.74,1.29.1,1.29-.79s0.59-7.12.59-7.12-6.43-2.47-7.12-2.9S1141.35,220.76,1142.53,221.5Z"/><path class="cls-8" d="M1119.42,229.89l-17-12,1.76-2.18,18,10.32s4.67,2.85,3.39,4.91S1119.42,229.89,1119.42,229.89Z"/><path class="cls-8" d="M1101.47,230.82c1.37-.86,11.22-8.16,11.22-8.16s2.73-10.83,3.49-13.12c0.53-1.59,2.76-.21,2.76,1.69s-0.43,15.24-.43,15.24-12.06,5.28-13.55,6.2S1098.93,232.4,1101.47,230.82Z"/><path class="cls-8" d="M1097.53,220.34c0.64-.4,5.24-3.81,5.24-3.81s1.28-5.06,1.63-6.13c0.25-.74,1.29-0.1,1.29.79s0.59,7.12.59,7.12-6.43,2.47-7.12,2.9S1096.35,221.08,1097.53,220.34Z"/><path class="cls-8" d="M1074.42,212l-17,12,1.76,2.18,18-10.32s4.67-2.85,3.39-4.91S1074.42,212,1074.42,212Z"/><path class="cls-8" d="M1056.47,211c1.37,0.86,11.22,8.16,11.22,8.16s2.73,10.83,3.49,13.12c0.53,1.59,2.76.21,2.76-1.69s-0.43-15.24-.43-15.24-12.06-5.28-13.55-6.2S1053.93,209.44,1056.47,211Z"/><path class="cls-8" d="M1052.53,221.5c0.64,0.4,5.24,3.81,5.24,3.81s1.28,5.06,1.63,6.13c0.25,0.74,1.29.1,1.29-.79s0.59-7.12.59-7.12-6.43-2.47-7.12-2.9S1051.35,220.76,1052.53,221.5Z"/><path class="cls-8" d="M1029.42,229.89l-17-12,1.76-2.18,18,10.32s4.67,2.85,3.39,4.91S1029.42,229.89,1029.42,229.89Z"/><path class="cls-8" d="M1011.47,230.82c1.37-.86,11.22-8.16,11.22-8.16s2.73-10.83,3.49-13.12c0.53-1.59,2.76-.21,2.76,1.69s-0.43,15.24-.43,15.24-12.06,5.28-13.55,6.2S1008.93,232.4,1011.47,230.82Z"/><path class="cls-8" d="M1007.53,220.34c0.64-.4,5.24-3.81,5.24-3.81s1.28-5.06,1.63-6.13c0.25-.74,1.29-0.1,1.29.79s0.59,7.12.59,7.12-6.43,2.47-7.12,2.9S1006.35,221.08,1007.53,220.34Z"/><path class="cls-8" d="M984.42,212l-17,12,1.76,2.18,18-10.32s4.67-2.85,3.39-4.91S984.42,212,984.42,212Z"/><path class="cls-8" d="M966.47,211c1.37,0.86,11.22,8.16,11.22,8.16s2.73,10.83,3.49,13.12c0.53,1.59,2.76.21,2.76-1.69s-0.43-15.24-.43-15.24-12.06-5.28-13.55-6.2S963.93,209.44,966.47,211Z"/><path class="cls-8" d="M962.53,221.5c0.64,0.4,5.24,3.81,5.24,3.81s1.28,5.06,1.63,6.13c0.25,0.74,1.29.1,1.29-.79s0.59-7.12.59-7.12-6.43-2.47-7.12-2.9S961.35,220.76,962.53,221.5Z"/><path class="cls-8" d="M939.42,229.89l-17-12,1.76-2.18,18,10.32s4.67,2.85,3.39,4.91S939.42,229.89,939.42,229.89Z"/><path class="cls-8" d="M921.47,230.82c1.37-.86,11.22-8.16,11.22-8.16s2.73-10.83,3.49-13.12c0.53-1.59,2.76-.21,2.76,1.69s-0.43,15.24-.43,15.24-12.06,5.28-13.55,6.2S918.93,232.4,921.47,230.82Z"/><path class="cls-8" d="M917.53,220.34c0.64-.4,5.24-3.81,5.24-3.81s1.28-5.06,1.63-6.13c0.25-.74,1.29-0.1,1.29.79s0.59,7.12.59,7.12-6.43,2.47-7.12,2.9S916.35,221.08,917.53,220.34Z"/><path class="cls-8" d="M894.42,212l-17,12,1.76,2.18,18-10.32s4.67-2.85,3.39-4.91S894.42,212,894.42,212Z"/><path class="cls-8" d="M876.47,211c1.37,0.86,11.22,8.16,11.22,8.16s2.73,10.83,3.49,13.12c0.53,1.59,2.76.21,2.76-1.69s-0.43-15.24-.43-15.24-12.06-5.28-13.55-6.2S873.93,209.44,876.47,211Z"/><path class="cls-8" d="M872.53,221.5c0.64,0.4,5.24,3.81,5.24,3.81s1.28,5.06,1.63,6.13c0.25,0.74,1.29.1,1.29-.79s0.59-7.12.59-7.12-6.43-2.47-7.12-2.9S871.35,220.76,872.53,221.5Z"/><path class="cls-8" d="M849.42,229.89l-17-12,1.76-2.18,18,10.32s4.67,2.85,3.39,4.91S849.42,229.89,849.42,229.89Z"/><path class="cls-8" d="M831.47,230.82c1.37-.86,11.22-8.16,11.22-8.16s2.73-10.83,3.49-13.12c0.53-1.59,2.76-.21,2.76,1.69s-0.43,15.24-.43,15.24-12.06,5.28-13.55,6.2S828.93,232.4,831.47,230.82Z"/><path class="cls-8" d="M827.53,220.34c0.64-.4,5.24-3.81,5.24-3.81s1.28-5.06,1.63-6.13c0.25-.74,1.29-0.1,1.29.79s0.59,7.12.59,7.12-6.43,2.47-7.12,2.9S826.35,221.08,827.53,220.34Z"/><path class="cls-8" d="M804.42,212l-17,12,1.76,2.18,18-10.32s4.67-2.85,3.39-4.91S804.42,212,804.42,212Z"/><path class="cls-8" d="M786.47,211c1.37,0.86,11.22,8.16,11.22,8.16s2.73,10.83,3.49,13.12c0.53,1.59,2.76.21,2.76-1.69s-0.43-15.24-.43-15.24-12.06-5.28-13.55-6.2S783.93,209.44,786.47,211Z"/><path class="cls-8" d="M782.53,221.5c0.64,0.4,5.24,3.81,5.24,3.81s1.28,5.06,1.63,6.13c0.25,0.74,1.29.1,1.29-.79s0.59-7.12.59-7.12-6.43-2.47-7.12-2.9S781.35,220.76,782.53,221.5Z"/><path class="cls-8" d="M1141.42,167l-17,12,1.76,2.18,18-10.32s4.67-2.85,3.39-4.91S1141.42,167,1141.42,167Z"/><path class="cls-8" d="M1123.47,166c1.37,0.86,11.22,8.16,11.22,8.16s2.73,10.83,3.49,13.12c0.53,1.59,2.76.21,2.76-1.69s-0.43-15.24-.43-15.24-12.06-5.28-13.55-6.2S1120.93,164.44,1123.47,166Z"/><path class="cls-8" d="M1119.53,176.5c0.64,0.4,5.24,3.81,5.24,3.81s1.28,5.06,1.63,6.13c0.25,0.74,1.29.1,1.29-.79s0.59-7.12.59-7.12-6.43-2.47-7.12-2.9S1118.35,175.76,1119.53,176.5Z"/><path class="cls-8" d="M1096.42,184.89l-17-12,1.76-2.18,18,10.32s4.67,2.85,3.39,4.91S1096.42,184.89,1096.42,184.89Z"/><path class="cls-8" d="M1078.47,185.82c1.37-.86,11.22-8.16,11.22-8.16s2.73-10.83,3.49-13.12c0.53-1.59,2.76-.21,2.76,1.69s-0.43,15.24-.43,15.24-12.06,5.28-13.55,6.2S1075.93,187.4,1078.47,185.82Z"/><path class="cls-8" d="M1074.53,175.34c0.64-.4,5.24-3.81,5.24-3.81s1.28-5.06,1.63-6.13c0.25-.74,1.29-0.1,1.29.79s0.59,7.12.59,7.12-6.43,2.47-7.12,2.9S1073.35,176.08,1074.53,175.34Z"/><path class="cls-8" d="M1051.42,167l-17,12,1.76,2.18,18-10.32s4.67-2.85,3.39-4.91S1051.42,167,1051.42,167Z"/><path class="cls-8" d="M1033.47,166c1.37,0.86,11.22,8.16,11.22,8.16s2.73,10.83,3.49,13.12c0.53,1.59,2.76.21,2.76-1.69s-0.43-15.24-.43-15.24-12.06-5.28-13.55-6.2S1030.93,164.44,1033.47,166Z"/><path class="cls-8" d="M1029.53,176.5c0.64,0.4,5.24,3.81,5.24,3.81s1.28,5.06,1.63,6.13c0.25,0.74,1.29.1,1.29-.79s0.59-7.12.59-7.12-6.43-2.47-7.12-2.9S1028.35,175.76,1029.53,176.5Z"/><path class="cls-8" d="M1006.42,184.89l-17-12,1.76-2.18,18,10.32s4.67,2.85,3.39,4.91S1006.42,184.89,1006.42,184.89Z"/><path class="cls-8" d="M988.47,185.82c1.37-.86,11.22-8.16,11.22-8.16s2.73-10.83,3.49-13.12c0.53-1.59,2.76-.21,2.76,1.69s-0.43,15.24-.43,15.24-12.06,5.28-13.55,6.2S985.93,187.4,988.47,185.82Z"/><path class="cls-8" d="M984.53,175.34c0.64-.4,5.24-3.81,5.24-3.81s1.28-5.06,1.63-6.13c0.25-.74,1.29-0.1,1.29.79s0.59,7.12.59,7.12-6.43,2.47-7.12,2.9S983.35,176.08,984.53,175.34Z"/><path class="cls-8" d="M961.42,167l-17,12,1.76,2.18,18-10.32s4.67-2.85,3.39-4.91S961.42,167,961.42,167Z"/><path class="cls-8" d="M943.47,166c1.37,0.86,11.22,8.16,11.22,8.16s2.73,10.83,3.49,13.12c0.53,1.59,2.76.21,2.76-1.69s-0.43-15.24-.43-15.24-12.06-5.28-13.55-6.2S940.93,164.44,943.47,166Z"/><path class="cls-8" d="M939.53,176.5c0.64,0.4,5.24,3.81,5.24,3.81s1.28,5.06,1.63,6.13c0.25,0.74,1.29.1,1.29-.79s0.59-7.12.59-7.12-6.43-2.47-7.12-2.9S938.35,175.76,939.53,176.5Z"/><path class="cls-8" d="M916.42,184.89l-17-12,1.76-2.18,18,10.32s4.67,2.85,3.39,4.91S916.42,184.89,916.42,184.89Z"/><path class="cls-8" d="M898.47,185.82c1.37-.86,11.22-8.16,11.22-8.16s2.73-10.83,3.49-13.12c0.53-1.59,2.76-.21,2.76,1.69s-0.43,15.24-.43,15.24-12.06,5.28-13.55,6.2S895.93,187.4,898.47,185.82Z"/><path class="cls-8" d="M894.53,175.34c0.64-.4,5.24-3.81,5.24-3.81s1.28-5.06,1.63-6.13c0.25-.74,1.29-0.1,1.29.79s0.59,7.12.59,7.12-6.43,2.47-7.12,2.9S893.35,176.08,894.53,175.34Z"/><path class="cls-8" d="M871.42,167l-17,12,1.76,2.18,18-10.32s4.67-2.85,3.39-4.91S871.42,167,871.42,167Z"/><path class="cls-8" d="M853.47,166c1.37,0.86,11.22,8.16,11.22,8.16s2.73,10.83,3.49,13.12c0.53,1.59,2.76.21,2.76-1.69s-0.43-15.24-.43-15.24-12.06-5.28-13.55-6.2S850.93,164.44,853.47,166Z"/><path class="cls-8" d="M849.53,176.5c0.64,0.4,5.24,3.81,5.24,3.81s1.28,5.06,1.63,6.13c0.25,0.74,1.29.1,1.29-.79s0.59-7.12.59-7.12-6.43-2.47-7.12-2.9S848.35,175.76,849.53,176.5Z"/><path class="cls-8" d="M826.42,184.89l-17-12,1.76-2.18,18,10.32s4.67,2.85,3.39,4.91S826.42,184.89,826.42,184.89Z"/><path class="cls-8" d="M808.47,185.82c1.37-.86,11.22-8.16,11.22-8.16s2.73-10.83,3.49-13.12c0.53-1.59,2.76-.21,2.76,1.69s-0.43,15.24-.43,15.24-12.06,5.28-13.55,6.2S805.93,187.4,808.47,185.82Z"/><path class="cls-8" d="M804.53,175.34c0.64-.4,5.24-3.81,5.24-3.81s1.28-5.06,1.63-6.13c0.25-.74,1.29-0.1,1.29.79s0.59,7.12.59,7.12-6.43,2.47-7.12,2.9S803.35,176.08,804.53,175.34Z"/><path class="cls-8" d="M781.42,167l-17,12,1.76,2.18,18-10.32s4.67-2.85,3.39-4.91S781.42,167,781.42,167Z"/><path class="cls-8" d="M763.47,166c1.37,0.86,11.22,8.16,11.22,8.16s2.73,10.83,3.49,13.12c0.53,1.59,2.76.21,2.76-1.69s-0.43-15.24-.43-15.24-12.06-5.28-13.55-6.2S760.93,164.44,763.47,166Z"/><path class="cls-8" d="M759.53,176.5c0.64,0.4,5.24,3.81,5.24,3.81s1.28,5.06,1.63,6.13c0.25,0.74,1.29.1,1.29-.79s0.59-7.12.59-7.12-6.43-2.47-7.12-2.9S758.35,175.76,759.53,176.5Z"/></g><path class="cls-9" d="M989.06,652.62c-10.44-1.74-26.74,3.78-26.74,3.78-3.92.8-13.62-2-14.26,1.76s3.49,8.84,3.49,8.84l29,10.54,20.31-9.08S999.5,654.37,989.06,652.62Z"/><path class="cls-8" d="M950.1,664.91c-2.68,2.32,4.64,9.29,29.92,14.38,11.78,2.37,25.49-12.06,20.11-14.65-0.41,3.66-2-3-5.17-4.13s-9.47,2-8.47,5.31,0.29,7.82-4,7.91S950.74,668.65,950.1,664.91Z"/><path class="cls-8" d="M953.26,660.51s1,6.88,5.19,5.52c7.38-2.37,19.32,3.87,19.32,3.87s-13.13-9.43-17.44-7.94A6.84,6.84,0,0,1,953.26,660.51Z"/><path class="cls-8" d="M958.44,658.41a0.22,0.22,0,0,1,0-.1l0-.3a3.62,3.62,0,0,1,.28-0.91,4.36,4.36,0,0,1,.74-1.09,5,5,0,0,1,1.17-.93,6.26,6.26,0,0,1,.67-0.32,4.59,4.59,0,0,1,.68-0.2,3.86,3.86,0,0,1,1.23,0,3,3,0,0,1,.85.22,2.05,2.05,0,0,1,.31.15,1,1,0,0,1,.33,1.44l-0.11.14-0.1.11a2.33,2.33,0,0,1-.23.21c-0.14.13-.35,0.25-0.57,0.41s-0.24.14-.36,0.22a2.56,2.56,0,0,1-.38.21c-0.26.14-.53,0.25-0.79,0.37l-0.77.36c-0.26.11-.48,0.24-0.69,0.34l-0.53.27a0.44,0.44,0,0,1-.15.06,0.08,0.08,0,0,0-.05,0,0.78,0.78,0,0,1-1.26-.11Z"/><path class="cls-8" d="M962.11,657.53a0.21,0.21,0,0,1,0-.1l0-.3a3.63,3.63,0,0,1,.28-0.91,4.37,4.37,0,0,1,.74-1.09,5,5,0,0,1,1.17-.93,6.24,6.24,0,0,1,.67-0.32,4.58,4.58,0,0,1,.68-0.2,3.86,3.86,0,0,1,1.23,0,3,3,0,0,1,.85.22,2,2,0,0,1,.31.15,1,1,0,0,1,.33,1.44l-0.11.14-0.1.11a2.38,2.38,0,0,1-.23.21c-0.14.13-.35,0.25-0.57,0.41s-0.24.14-.36,0.22a2.56,2.56,0,0,1-.38.21c-0.26.14-.53,0.25-0.79,0.37l-0.77.36c-0.26.11-.48,0.24-0.69,0.34l-0.53.27a0.44,0.44,0,0,1-.15.06,0.08,0.08,0,0,0-.05,0,0.78,0.78,0,0,1-1.26-.11Z"/><path class="cls-8" d="M970.65,657.88a2.32,2.32,0,0,1-.14-0.36,3.92,3.92,0,0,1-.18-0.94,4.47,4.47,0,0,1,.14-1.38,4.29,4.29,0,0,1,.77-1.53,3.73,3.73,0,0,1,.64-0.65,3.47,3.47,0,0,1,.74-0.47,3.38,3.38,0,0,1,.76-0.26,2.76,2.76,0,0,1,.69-0.08,2.16,2.16,0,0,1,.56,0,3.35,3.35,0,0,1,.42.11,2.14,2.14,0,0,1,.35.14,1,1,0,0,1,.27,1.52l-0.15.18a2.69,2.69,0,0,1-.22.22c-0.13.13-.33,0.26-0.51,0.43a2.7,2.7,0,0,0-.28.24c-0.08.1-.19,0.15-0.26,0.24s-0.17.14-.24,0.23a2.32,2.32,0,0,0-.24.23,4.65,4.65,0,0,0-.49.57c-0.16.22-.31,0.46-0.45,0.68l-0.34.57a1.63,1.63,0,0,0-.14.22A0.85,0.85,0,1,1,970.65,657.88Z"/><path class="cls-8" d="M967.3,658a2.35,2.35,0,0,1-.14-0.36,3.92,3.92,0,0,1-.18-0.94,4.47,4.47,0,0,1,.14-1.38,4.29,4.29,0,0,1,.77-1.53,3.74,3.74,0,0,1,.64-0.65,3.48,3.48,0,0,1,.74-0.47,3.38,3.38,0,0,1,.76-0.26,2.75,2.75,0,0,1,.68-0.08,2.16,2.16,0,0,1,.56,0,3.36,3.36,0,0,1,.42.11,2.14,2.14,0,0,1,.35.14,1,1,0,0,1,.4,1.34,1,1,0,0,1-.12.18l-0.15.18a2.71,2.71,0,0,1-.22.22c-0.13.13-.33,0.26-0.51,0.43a2.7,2.7,0,0,0-.28.24c-0.08.1-.19,0.15-0.26,0.24s-0.17.14-.24,0.23a2.32,2.32,0,0,0-.24.23,4.67,4.67,0,0,0-.49.57c-0.16.22-.31,0.46-0.45,0.68l-0.34.57a1.7,1.7,0,0,0-.14.22A0.85,0.85,0,0,1,967.3,658Z"/><path class="cls-4" d="M967.69,207.64s5.11,32.67,3.35,57.64"/><path class="cls-4" d="M866.13,219.58c-0.71,18.27-6.12,34.86-6.76,47.8-0.23,4.68-1.54,6.27-5,6.27"/><path class="cls-4" d="M875.12,155.39c-5.9,35.66,39.46,53.44,54.34,55.81,11.22-11.14,24.38-26.55,11.64-52.61"/><path class="cls-4" d="M859.38,265.28c-3.2,4.23-50.3-4.31-49.21-12.57"/><path class="cls-4" d="M971.76,259.56c8.15,0,25.57-9.19,25.57-12.94"/><path class="cls-4" d="M854.4,384c5,28.44,127.42,20.27,127.42,6.63"/><path class="cls-10" d="M900.12,144c7.58,7.44,8,17.55,3.09,23.08s-17.83,8.36-24.87,2.41c-16-13.52-15.23-35.59,6.93-43.93C887.8,135.56,890.05,140.48,900.12,144Z"/><path class="cls-4" d="M886,150.15c-4.91.37-8.94,9.37-6.89,12.8"/><path class="cls-10" d="M940.9,129.16s18.39,3.59,20.76,19.84c1.26,8.62-3.66,16.69-12.73,16.69s-16.44-8.76-16.44-15.17C932.49,141.78,943.51,139.71,940.9,129.16Z"/><polygon class="cls-11" points="621.18 508.56 619.18 624.13 663.26 642.23 792.36 597.39 792.36 489.19 752.91 477.17 621.18 508.56"/><polyline class="cls-12" points="663.26 642.23 664.93 527.6 621.18 508.56"/><line class="cls-12" x1="792.36" y1="489.19" x2="664.93" y2="527.6"/><polyline class="cls-12" points="770.98 482.68 643.06 518.08 639.78 632.04"/><path class="cls-11" d="M656.36,510.12s7.79,7.12,12.69,7.12,10.46-1.34,9.13-3.56-10.24-6.9-13.25-6.68S655,507.15,656.36,510.12Z"/><path class="cls-11" d="M735.62,487.19s7.79,7.12,12.69,7.12,10.46-1.34,9.13-3.56-10.24-6.9-13.25-6.68S734.26,484.23,735.62,487.19Z"/><path class="cls-11" d="M661.26,508.56s5.34,5.12,7.79,5.34,8.13-1.41,6.52-4.82S661.07,503.05,661.26,508.56Z"/><path class="cls-11" d="M740.74,485s5.34,5.12,7.79,5.34,8.13-1.41,6.52-4.82S740.55,479.45,740.74,485Z"/><path class="cls-13" d="M684.88,508c-3.9-1.23-2.94-11.69,3.42-15,11.71-6.08,28.07-9.6,37.87-10,6.45-.28,7.71,4.22,8,7.79s-8.86,5.42-10.12,4-0.48-5.52-1.66-5.23-27,6.95-28.62,8,3.05,4.18,1.52,7.36C694.44,506.66,687.55,508.85,684.88,508Z"/><polygon class="cls-11" points="1177.52 542.24 1179.16 636.81 1143.09 651.63 1037.44 614.93 1037.44 526.39 1069.72 516.55 1177.52 542.24"/><polyline class="cls-12" points="1143.09 651.63 1141.72 557.82 1177.52 542.24"/><line class="cls-12" x1="1037.44" y1="526.39" x2="1141.72" y2="557.82"/><polyline class="cls-12" points="1054.93 521.05 1159.62 550.03 1162.3 643.29"/><path class="cls-11" d="M1148.74,543.51s-6.38,5.83-10.39,5.83-8.56-1.09-7.47-2.92,8.38-5.65,10.84-5.47S1149.85,541.09,1148.74,543.51Z"/><path class="cls-11" d="M1083.87,524.75s-6.38,5.83-10.39,5.83-8.56-1.09-7.47-2.92,8.38-5.65,10.84-5.47S1085,522.32,1083.87,524.75Z"/><path class="cls-11" d="M1144.73,542.24s-4.37,4.19-6.38,4.37-6.66-1.15-5.33-3.95S1144.88,537.73,1144.73,542.24Z"/><path class="cls-11" d="M1079.68,522.92s-4.37,4.19-6.38,4.37-6.66-1.15-5.33-3.95S1079.84,518.42,1079.68,522.92Z"/><path class="cls-13" d="M1125.39,541.79c3.2-1,2.41-9.57-2.8-12.27-9.58-5-23-7.86-31-8.21-5.28-.23-6.31,3.45-6.55,6.38s7.25,4.44,8.28,3.31,0.39-4.52,1.36-4.28,22.09,5.69,23.42,6.53-2.5,3.42-1.24,6C1117.57,540.68,1123.21,542.48,1125.39,541.79Z"/><polygon class="cls-11" points="681.02 537.9 679.21 642.28 719.02 658.63 835.63 618.13 835.63 520.4 799.99 509.55 681.02 537.9"/><polyline class="cls-12" points="719.02 658.63 720.53 555.09 681.02 537.9"/><line class="cls-12" x1="835.63" y1="520.4" x2="720.53" y2="555.09"/><polyline class="cls-12" points="816.31 514.52 700.77 546.5 697.82 649.42"/><path class="cls-11" d="M712.79,539.31s7,6.43,11.46,6.43,9.45-1.21,8.24-3.22-9.25-6.23-12-6S711.56,536.63,712.79,539.31Z"/><path class="cls-11" d="M784.38,518.6s7,6.43,11.46,6.43,9.45-1.21,8.24-3.22-9.25-6.23-12-6S783.15,515.92,784.38,518.6Z"/><path class="cls-11" d="M717.21,537.9s4.83,4.63,7,4.83,7.35-1.27,5.88-4.36S717,532.92,717.21,537.9Z"/><path class="cls-11" d="M789,516.58s4.83,4.63,7,4.83,7.35-1.27,5.88-4.36S788.83,511.61,789,516.58Z"/><path class="cls-13" d="M738.55,537.4c-3.53-1.11-2.66-10.56,3.09-13.54,10.57-5.49,25.35-8.67,34.2-9.06,5.83-.25,7,3.81,7.23,7s-8,4.9-9.14,3.65-0.43-5-1.5-4.72S748,527,746.57,528s2.76,3.77,1.37,6.64C747.18,536.18,741,538.16,738.55,537.4Z"/><path class="cls-9" d="M855.47,658.7c-13.5-.44-18.05,14.81-18.05,14.81s15,12.55,25.17,12.55,21.91-10.92,22.18-15.49-4.27-10.85-9.46-11.9S866.17,659.05,855.47,658.7Z"/><path class="cls-8" d="M884.76,670.58c2.4,4.18-11.8,15.49-22.18,15.49s-27.72-4.14-26.93-12.27c0.21-2.11.55-5.18,4.92-6.28-1.15,2.53.62,3.87,1.54,1.24,1.42-4.06,14.71-3,15.07,1.94,0.18,2.58,1.51,7.55,9.68,7.39S883.61,674.82,884.76,670.58Z"/><path class="cls-8" d="M866.86,673.51s4.24-6.46,7-6.27,2.56-3.79,2.56-3.79,4,7.44,0,7.2S866.86,673.51,866.86,673.51Z"/><path class="cls-8" d="M864.28,657.3a0.31,0.31,0,0,1,.1-0.06l0.3-.16a4.36,4.36,0,0,1,1-.34,5.27,5.27,0,0,1,1.52-.06,6.09,6.09,0,0,1,1.67.43,7.81,7.81,0,0,1,.77.39,5.88,5.88,0,0,1,.67.48,4.9,4.9,0,0,1,1,1.07,3.71,3.71,0,0,1,.45.91,2.6,2.6,0,0,1,.11.38,1,1,0,0,1-1.14,1.15l-0.12,0a2.82,2.82,0,0,1-.34-0.09c-0.21-.06-0.47-0.19-0.78-0.3-0.16-.06-0.3-0.14-0.46-0.22a3.9,3.9,0,0,1-.49-0.24c-0.33-.16-0.65-0.35-1-0.52s-0.66-.33-1-0.46-0.63-.26-0.9-0.37L865,659,864.8,659a0.13,0.13,0,0,0-.07,0,0.83,0.83,0,0,1-.68-1.27Z"/><path class="cls-8" d="M857.74,657.57l0.11,0,0.34,0a4.37,4.37,0,0,1,1.09,0,5.27,5.27,0,0,1,1.44.48,6.09,6.09,0,0,1,1.41,1,7.8,7.8,0,0,1,.58.64,5.84,5.84,0,0,1,.46.68,4.9,4.9,0,0,1,.52,1.34,3.7,3.7,0,0,1,.1,1,2.59,2.59,0,0,1,0,.39,1,1,0,0,1-1.48.68l-0.11-.06a2.82,2.82,0,0,1-.29-0.21c-0.18-.13-0.37-0.34-0.63-0.56s-0.23-.24-0.36-0.37a3.89,3.89,0,0,1-.37-0.39c-0.25-.27-0.49-0.56-0.74-0.83s-0.5-.54-0.75-0.78-0.5-.46-0.72-0.66l-0.56-.47a0.77,0.77,0,0,1-.14-0.13,0.13,0.13,0,0,0-.06,0,0.83,0.83,0,0,1-.19-1.43Z"/><path class="cls-8" d="M866.7,662.89l-0.29-.21c-0.17-.12-0.42-0.39-0.67-0.55l-0.81-.65-0.9-.68c-0.61-.42-1.18-0.81-1.65-1.16-0.23-.18-0.44-0.32-0.59-0.45a0.5,0.5,0,0,1-.19-0.19,0.85,0.85,0,0,1-.08-1.69s0.19-.09.46-0.17a3.62,3.62,0,0,1,1.11-.13,4.53,4.53,0,0,1,.73.09,4,4,0,0,1,.78.23,5.52,5.52,0,0,1,1.48.9,6.73,6.73,0,0,1,1.13,1.25l0.39,0.65c0.11,0.22.2,0.45,0.29,0.64a3.65,3.65,0,0,1,.24.92c0,0.22,0,.36,0,0.36A0.94,0.94,0,0,1,866.7,662.89Z"/></svg>