<svg id="Shadow" xmlns="http://www.w3.org/2000/svg" viewBox="0 0 1792 768"><defs><style>.cls-1,.cls-10,.cls-11,.cls-4,.cls-6{fill:#24265b;}.cls-1{opacity:0.1;}.cls-2{fill:#eeb9a9;}.cls-10,.cls-11,.cls-12,.cls-13,.cls-2,.cls-3,.cls-4,.cls-5,.cls-7,.cls-8,.cls-9{stroke:#24265b;stroke-linecap:round;stroke-linejoin:round;}.cls-10,.cls-11,.cls-12,.cls-13,.cls-2,.cls-3,.cls-4,.cls-7,.cls-8,.cls-9{stroke-width:3px;}.cls-3{fill:none;}.cls-5,.cls-9{fill:#fff;}.cls-5{stroke-width:2.55px;}.cls-7{fill:#4429cc;}.cls-8{fill:#d6cf90;}.cls-10{opacity:0.25;}.cls-11{opacity:0.75;}.cls-12{fill:#cc9e62;}.cls-13{fill:#6183b0;}</style></defs><title>topic</title><path class="cls-1" d="M867,665c-14.84,0-178.68,12.77-178.68,26.35s61.23,34,98.35,34,64.22-12.66,84-12.66,84.07,18.5,107.36,18.5,37.87-25.8,48.53-23.91,117.49,22,117.49,6.38-74.25-18.63-84.72-23.37-2.87-6.29-10.22-12.4-75-16-88.79-16-42.65,17.23-55.56,17.23S881.88,665,867,665Z"/><polygon class="cls-1" points="626.63 566.55 626.98 592.9 570.42 597.93 589 622 834.76 607 789 581 710.47 585 647.98 563.81 626.63 566.55"/><path class="cls-2" d="M976,418.49c-7.53-70.4-7.53-97.42-6.16-130.23,1.41,6.14,18.84,7.93,20.38-4.52s-2.84-99.56-20-112.6c-8.88-6.75-37-8.65-40.65-19.32a40.86,40.86,0,0,1-1.34-5.36,32.42,32.42,0,0,1-10.13,1.33c-7.17,0-21.4-8.49-27.42-14.87v1.88c0,15-11.79,25-25.06,28.49-15.57,4.12-28.35,13.32-33.49,28.87s-19.81,73.1-19.81,113.53c0,10.41,29.34,11.88,28.84-2.79-0.32-9.24,13.63-40.08,18.21-56.13,3.56,28.44,19.6,50.05,9.36,109.51C861.35,399.22,979,446.95,976,418.49Z"/><path class="cls-3" d="M922.51,183.19c4.68,1,7.88,7.09,4.76,11.15-1.87,2.44-5.95,1.88-7.19,1.43s-3.07-.72-3.56-2.89c-0.58-2.58,2.12-3.86,3.5-2.61s0.81,3.67.06,5.51a7.35,7.35,0,0,1-7.46,4c-4.29-.42-5.9-4.9-4.33-9.53"/><path class="cls-4" d="M965,654.13s7.68-79.68,10.12-117.66c0.69-10.78,3.95-89.52.9-118-1.52-14.21-2.73-26.65-3.69-37.73-5.2,8.22-84.49,12.84-106.21.43C865,410,871,428.52,870.43,431.49c-0.68,3.76-5.72,57.71-7.44,120.61-0.89,32.36,4.45,103.46,4.06,105.75l12.07,0.28c1.8-20,7.09-66.93,11.32-105.11,4.64-41.82,26.61-111.68,28.12-117.46a78.68,78.68,0,0,1,8.92-1.43c1.25,4.65,10,46.83,16.12,93.68S953,655.92,953,655.92l7,0.36Z"/><path class="cls-5" d="M989.06,652.62c-10.44-1.74-26.74,3.78-26.74,3.78-3.92.8-13.62-2-14.26,1.76s3.49,8.84,3.49,8.84l29,10.54,20.31-9.08S999.5,654.37,989.06,652.62Z"/><path class="cls-6" d="M950.1,664.91c-2.68,2.32,4.64,9.29,29.92,14.38,11.78,2.37,25.49-12.06,20.11-14.65-0.41,3.66-2-3-5.17-4.13s-9.47,2-8.47,5.31,0.29,7.82-4,7.91S950.74,668.65,950.1,664.91Z"/><path class="cls-6" d="M953.26,660.51s1,6.88,5.19,5.52c7.38-2.37,19.32,3.87,19.32,3.87s-13.13-9.43-17.44-7.94A6.84,6.84,0,0,1,953.26,660.51Z"/><path class="cls-6" d="M958.44,658.41a0.22,0.22,0,0,1,0-.1l0-.3a3.62,3.62,0,0,1,.28-0.91,4.36,4.36,0,0,1,.74-1.09,5,5,0,0,1,1.17-.93,6.25,6.25,0,0,1,.67-0.32,4.58,4.58,0,0,1,.68-0.2,3.86,3.86,0,0,1,1.23,0,3,3,0,0,1,.85.22,2,2,0,0,1,.31.15,1,1,0,0,1,.33,1.44l-0.11.14-0.1.11a2.34,2.34,0,0,1-.23.21c-0.14.13-.35,0.25-0.57,0.41s-0.24.14-.36,0.22a2.56,2.56,0,0,1-.38.21c-0.26.14-.53,0.25-0.79,0.37l-0.77.36c-0.26.11-.48,0.24-0.69,0.34l-0.53.27a0.44,0.44,0,0,1-.15.06,0.08,0.08,0,0,0-.05,0,0.78,0.78,0,0,1-1.26-.11Z"/><path class="cls-6" d="M962.11,657.53a0.22,0.22,0,0,1,0-.1l0-.3a3.63,3.63,0,0,1,.28-0.91,4.36,4.36,0,0,1,.74-1.09,5,5,0,0,1,1.17-.93,6.26,6.26,0,0,1,.67-0.32,4.58,4.58,0,0,1,.68-0.2,3.86,3.86,0,0,1,1.23,0,3,3,0,0,1,.85.22,2,2,0,0,1,.31.15,1,1,0,0,1,.33,1.44l-0.11.14-0.1.11a2.37,2.37,0,0,1-.23.21c-0.14.13-.35,0.25-0.57,0.41s-0.24.14-.36,0.22a2.56,2.56,0,0,1-.38.21c-0.26.14-.53,0.25-0.79,0.37l-0.77.36c-0.26.11-.48,0.24-0.69,0.34l-0.53.27a0.44,0.44,0,0,1-.15.06,0.08,0.08,0,0,0-.05,0,0.78,0.78,0,0,1-1.26-.11Z"/><path class="cls-6" d="M970.65,657.88a2.33,2.33,0,0,1-.14-0.36,3.92,3.92,0,0,1-.18-0.94,4.47,4.47,0,0,1,.14-1.38,4.29,4.29,0,0,1,.77-1.53,3.73,3.73,0,0,1,.64-0.65,3.47,3.47,0,0,1,.74-0.48,3.38,3.38,0,0,1,.76-0.26,2.76,2.76,0,0,1,.69-0.08,2.16,2.16,0,0,1,.56,0,3.35,3.35,0,0,1,.42.11,2.15,2.15,0,0,1,.35.14,1,1,0,0,1,.27,1.52l-0.15.18a2.69,2.69,0,0,1-.22.22c-0.13.13-.33,0.26-0.51,0.43a2.7,2.7,0,0,0-.28.24c-0.08.1-.19,0.15-0.26,0.24s-0.17.14-.24,0.23a2.31,2.31,0,0,0-.24.23,4.65,4.65,0,0,0-.49.57c-0.16.22-.31,0.46-0.45,0.68l-0.34.57a1.63,1.63,0,0,0-.14.22A0.85,0.85,0,0,1,970.65,657.88Z"/><path class="cls-6" d="M967.3,658a2.34,2.34,0,0,1-.14-0.36,3.92,3.92,0,0,1-.18-0.94,4.46,4.46,0,0,1,.14-1.38,4.29,4.29,0,0,1,.77-1.53,3.75,3.75,0,0,1,.64-0.65,3.48,3.48,0,0,1,.74-0.48,3.38,3.38,0,0,1,.76-0.26,2.75,2.75,0,0,1,.68-0.08,2.16,2.16,0,0,1,.56,0,3.34,3.34,0,0,1,.42.11,2.14,2.14,0,0,1,.35.14,1,1,0,0,1,.27,1.52l-0.15.18a2.71,2.71,0,0,1-.22.22c-0.13.13-.33,0.26-0.51,0.43a2.7,2.7,0,0,0-.28.24c-0.08.1-.19,0.15-0.26,0.24s-0.17.14-.24,0.23a2.31,2.31,0,0,0-.24.23,4.67,4.67,0,0,0-.49.57c-0.16.22-.31,0.46-0.45,0.68l-0.34.57a1.71,1.71,0,0,0-.14.22A0.85,0.85,0,1,1,967.3,658Z"/><path class="cls-7" d="M809.6,259.56c0,8.06,28.33,14.1,45.54,14.1,0.15,15.07.19,42.5,0.77,63.39,0.61,22-3.19,37.5-.77,55.26,3.34,24.55,130.13,18.68,127.57,4.6s-12.88-97.51-12.88-110.14c0-5.15,1.22-21.47,1.22-21.47s26.29-4.93,26.29-14.92c0-25.15-8.23-42.51-14.83-68-3.83-14.79-26.95-19.18-41.41-23.78-2.07-2.59-8.65-5.34-10-4.13,14.63,20.25,6.89,38.25-3.75,47.5-36.24-6.64-48.74-34-44-48.77-0.71-2.26-7.21.07-8.19,2.2-17.21,2.84-43.49,11.5-48.09,30.37C819.79,215.43,811.38,230.54,809.6,259.56Z"/><path class="cls-3" d="M967.69,207.64s5.11,32.67,3.35,57.64"/><path class="cls-3" d="M866.13,219.58c-0.71,18.27-6.12,34.86-6.76,47.8-0.23,4.68-1.54,6.27-5,6.27"/><path class="cls-3" d="M875.12,155.39c-5.9,35.66,39.46,53.44,54.34,55.81,11.22-11.14,24.38-26.55,11.64-52.61"/><path class="cls-3" d="M859.38,265.28c-3.2,4.23-50.3-4.31-49.21-12.57"/><path class="cls-3" d="M971.76,259.56c8.15,0,25.57-9.19,25.57-12.94"/><path class="cls-3" d="M854.4,384c5,28.44,127.42,20.27,127.42,6.63"/><rect class="cls-8" x="646.57" y="309.82" width="19.03" height="259.76" transform="translate(75.75 -96.02) rotate(8.88)"/><rect class="cls-8" x="665.88" y="99.64" width="19.03" height="292.92" transform="translate(-15.86 48.88) rotate(-4.1)"/><rect class="cls-8" x="735.38" y="374.44" width="19.03" height="218.12" transform="translate(-32.64 54.46) rotate(-4.1)"/><rect class="cls-8" x="629.03" y="382.06" width="19.03" height="218.12" transform="translate(-33.46 46.88) rotate(-4.1)"/><rect class="cls-8" x="577.17" y="132.35" width="198.52" height="256.34" transform="matrix(1, -0.07, 0.07, 1, -16.89, 49)"/><rect class="cls-9" x="592.07" y="147.97" width="168.74" height="225.45" transform="translate(-16.9 49) rotate(-4.1)"/><rect class="cls-10" x="592.07" y="147.97" width="168.74" height="225.45" transform="translate(-16.9 49) rotate(-4.1)"/><path class="cls-11" d="M603.05,272.32s0-12.2,5.45-19.12c0.9-7.31,10.06-15.55,3.08-13.39-4.31-7-11.65-7.17-5.41-17.73-3-9.9-5.48-18.73-2.4-33.54s-17.71-20.43-6.88-24.77,45.5-11.36,49-12.76c0.63,5.41,42.9.25,47.45-3.4,7.43,3.26,46.73-2.2,51.14-3.66,1.62,2.73,2.65,7.16-.81,8.6s3.53,3.42,3,6.36-3.53,86.4-.27,88.9,3,9.4.74,10.27-0.23,3.43.41,5.71-0.55,7.18-2.08,9.86-0.35,19.12,2.73,22.38,14.11,14.54,9,23.45S688.8,352.4,688.8,352.4Z"/><path class="cls-8" d="M621.45,258.08c-22.45,5-20.6,25.94-27.08,41.19,1.06,14.75,6.23,79.87,6.23,79.87l166.95-12-3.26-45.57s-9.33-1.35-15.93-8.05c3.1-15.58-6.07-20.85-12.17-24.45,7.4-9.19-1.5-22.9-6.88-23.4l-25.9-40.51s-33.3,6.66-44.48,9.62C650.6,237,649.65,247,649.65,247Z"/><path class="cls-2" d="M660.41,238c-0.67,4.79,3.39,22.23,6.7,25.85,1.09,4.9,12.2.79,13.06-.94s8.5-12.08,6.49-20.2"/><path class="cls-2" d="M694.51,198.77l3.61-16.62-50,14.25,7.62,20.09a186.63,186.63,0,0,0,3.82,20.12c0.91,2.78,10.78,11.09,16.2,10.46s15.75-6.82,16.24-12.78,5.28-15.32,3.23-20.63,0.54-7.87-.75-14.89"/><path class="cls-3" d="M658.39,219.34c-0.18,8.3,2,7.63,3.68,9.91"/><path class="cls-9" d="M675.38,191.6c-0.24,3.34,7.91,11.34,19.07,4.35,0.06,2.82,1.56,8.22,4.77,10,0,3.65-.57,8.67,2,8.37-1.21,3-8.33,9.73-7,15.56-1.06,5.06-6,18.93,1.93,23.58-3.55,3.57-2.38,6.57,1.08,8.46-0.95,3.39,6,7.16,11.18,6.79-1.44,3.19,7.26,6.6,10.94-.78,6.38,0.49,16.09-3.29,14.37-10.75,2.7-5.41,6.58-13.74-1.08-16.4,7-.86,8-28.27-0.67-24.18-1.26-8.07.56-22.43-8.68-25.32,5.32-2-.83-18.26-14.76-17,0.74-6.19-6.57-32-32.63-14.24-5.94,0-21.06,1.27-22.43,5.4s-6.45,6.15-7.13,0c-4.44,1-5,7.17-1.8,11.36-5.29,2.43-11.07,1.38-11.06,4.84s-5.42,4-5.55,8.77-6.41,20,1.81,25.31c-6.66,1.63-12.28,10.22-11.86,16s3.64,8.65,1.25,11.67c4.12,2.13,8.28-3.81,8.28-3.81s-8.81,10-6,15.92,12.67,14.2,17.74,5.3,11.65-6.53,10.42-13.79c-4.26.3-2.79-9.05-5.61-8.61,1.57-4.62,7.08-10.71,3.49-14.24,0.78-2.43,4.64,5.12,9.05,3.62s0.34-18.52-1.47-20.53c3.21-1.65,13.86-5.5,12-11.77C670.49,196.22,675.38,191.6,675.38,191.6Z"/><path class="cls-3" d="M657,207.83c3-2.26,10-4,14.11,1.63"/><path class="cls-3" d="M679.84,210.73c3.78-.27,10.32-8.57,12.87-2.82"/><path class="cls-12" d="M765.51,323.3c-44,17.65-86.69,12.86-105.67-39.37,2.26,17.52,17.85,55.16,41.74,54.89-14.19,6-22.06,5.37-26,3.75,14.68,16.53,90.39,4.69,90.56-11Z"/><path class="cls-9" d="M680.21,215c-0.45,2.77,3.43,4.11,6.67,4s6.29-1.32,6.33-3.91"/><path class="cls-9" d="M658.63,214.46c0.14,2,3.46,4.71,6.88,5,3,0.3,7.65-2.27,7.52-4.09"/><path class="cls-3" d="M672.58,212.2s2.3,5.07.62,8.59c-3.77,7.86,3.59,7.42,4.76,5.56"/><path class="cls-3" d="M673,221.26c-0.65,1.86-3.59,2.4-3.39,4.79,0.13,1.48,1.8,1.56,2.73.25"/><path class="cls-3" d="M677.62,227.31c0.46,0.62,2.17-.87,2.17-0.87"/><path class="cls-3" d="M659.93,211.83a3.23,3.23,0,0,0-1.29,2.64c0.14,2,3.46,4.71,6.88,5,3,0.3,7.65-2.27,7.52-4.09"/><path class="cls-3" d="M682.29,212.41a4,4,0,0,0-2.07,2.56c-0.45,2.77,3.43,4.11,6.67,4s6.29-1.32,6.33-3.91a4.25,4.25,0,0,0-1-3"/><path class="cls-3" d="M665.73,234.33c2.7,1.59,7.26.55,9.31,0.58s5,0.77,9.11.24"/><ellipse class="cls-6" cx="666.14" cy="216.37" rx="2.42" ry="2.42" transform="translate(-13.76 48.15) rotate(-4.1)"/><ellipse class="cls-6" cx="686.07" cy="216.36" rx="2.42" ry="2.42" transform="translate(-13.71 49.57) rotate(-4.1)"/><path class="cls-3" d="M680.27,215.72c1-2.86,12.67-2.16,12.91-1"/><path class="cls-3" d="M659.47,214.86c1.43-2,12.83-.8,13.56.55"/><path class="cls-9" d="M691.16,228.6s3-1.89,3.28-4.33"/><path class="cls-3" d="M661.38,171.61c1.5-1,.73-5.32-2.62-1.47-3.74,4.3-8.7,11.3-14.14,6.67"/><path class="cls-3" d="M679.89,183.09c0.16-5.23,8-.1,4.61,1.33-5.33,2.24-4.19,14.46,2.29,14,4.61-.34,5.52-5.17,5.27-7.4"/><path class="cls-3" d="M704.15,221.56c-10.66,6.08-7,16-.21,13.65"/><path class="cls-3" d="M715.38,237.36c-3.72,1.1-4.71,10.54,3.07,8.08,8.15-2.57,17.56-2,11.86,6.27"/><path class="cls-3" d="M721.6,234.9c-1.73.48-4.59,7,.4,5.55,4.77-1.37,7.31-2,10.71.31"/><path class="cls-3" d="M655.33,184.85s-12,2.22-10.9,12.52c1.47,13.89,14.42,17.89,6.94,23.9"/><path class="cls-3" d="M655.12,190.68c-5,3.92-4.84,13.31,1.49,12.15"/><path class="cls-3" d="M660,191.33c-5.1,4-5,14.3,1.33,11.86"/><path class="cls-3" d="M676.49,180.49c-2.15,1.46-6.62,4.39-6.09-1.82s6.62-8.3,15.9-8.85c6.63-.39,9.84-7.58,1.74-9.85"/><path class="cls-3" d="M660.53,161.66c2.66-.9,11.26,2.35,10.39,6.19"/><path class="cls-3" d="M668.63,160.54c4.6,0,13.56,3.42,11.12,6.69"/><path class="cls-3" d="M676,160c3.64,0.1,15.22,3.42,11.44,5.47"/><path class="cls-3" d="M701.93,175.59c1.38-2.23-1-22.25-17-20.32"/><path class="cls-3" d="M706.6,190.31s16,2.53,19.79,7.56c2.71,3.57,1.66,9.53,5,10.12"/><path class="cls-3" d="M709.4,198.18s4.08,6,10.63,6.26"/><path class="cls-3" d="M713,196s3.39,4.24,7.12,3.21"/><path class="cls-3" d="M719.29,194.15s-0.55,7.89,8.38,6.23"/><path class="cls-3" d="M694.45,196a12.21,12.21,0,0,0,4.42-3.19"/><path class="cls-3" d="M706.79,205.39c-0.1-1.44-7.17-5.06-8.3-11.16"/><path class="cls-3" d="M702.2,211c0.26-3.06-.49-6.89-2.64-8.59a9.65,9.65,0,0,1-3.09-7.88"/><path class="cls-3" d="M688.57,192.31c-2.27-.79,3.26-8.19,7.7-3.58"/><path class="cls-3" d="M672,193.5c-2.79.91-4.19-5-4.1-7.06-1.37,1.28-6.2,3.05-5.71-1.73"/><path class="cls-3" d="M704.55,212.22s-2.44,9.15,2,8.76"/><path class="cls-3" d="M710.25,210s1,12.76,10.89,10"/><path class="cls-3" d="M710.43,212.51c-3.38,3.18-6.28,9,3.28,6.58"/><path class="cls-3" d="M718.36,264.06c-0.53-5.77-6.41-4.88-9.78-7.13"/><path class="cls-3" d="M709.54,250.35c-1.43-1.68-4.26-4.68-2-8.39"/><path class="cls-3" d="M705.07,248.65c-0.08-.47-3.11-4.52.46-7.74"/><path class="cls-3" d="M696.5,252.94s-5-11.2,2.72-18.25"/><path class="cls-3" d="M715.91,263.05c-2.21-1-5.4,1-7-1.4"/><path class="cls-3" d="M697.29,261.9s3.35,1.89,6.31.14"/><path class="cls-3" d="M728.1,249c-3.67.14-12.14,2.41-14.21-3.84"/><path class="cls-3" d="M627.31,238.68s0-11.3,12.43-14"/><path class="cls-3" d="M637.43,219.06c1.43,1.72,7,5.16,10.55,4.65"/><path class="cls-3" d="M647.39,245.79c-0.41,2-6.48,7-8.78,6.32"/><path class="cls-3" d="M644.42,237.46c0.15,2-.65,8.83-8.15,6.87"/><path class="cls-3" d="M628.94,237.38s2.54-8.62,11.08-8.74"/><path class="cls-3" d="M626.85,248.9c0.14,0.36,3.35,8.55,11.82,4.15"/><path class="cls-3" d="M624.47,252.17s2.82,2.88,4.8.71"/><path class="cls-3" d="M630.67,253.47s-0.78,5.15-5.81,4.13"/><path class="cls-3" d="M629.82,215.73s6.89-3.32,10.21,1.59"/><path class="cls-3" d="M644.12,200.12c-1.68-.71-9.25-3.46-9.12-15"/><path class="cls-3" d="M658.9,234.82s-10.29,3.58-9.25,12.23"/><path class="cls-3" d="M686.54,247.72s-3.71,31.28-2.29,41"/><path class="cls-3" d="M664.47,279.46s5.09-6,2.64-15.64"/><path class="cls-3" d="M642,256.84s11.69,28.09,57.24,34.91"/><path class="cls-3" d="M604.48,269.7s27.55-8.18,36.44,11.44,15.33,23.44,17.58,25.76,15.08,54.45,10.21,64.92"/><path class="cls-3" d="M663.47,283.67s12.26,52.11,84.87,29.89"/><path class="cls-12" d="M654.44,337.25c-7.1-1.09-25.36-24.92-22.26-43.77-5.24-18.48-27.43-13-32.51-11.94,0.74-3.57,4.81-11.84,4.81-11.84s27.55-8.18,36.44,11.44,15.33,23.44,17.58,25.76,10,28.81,9.46,39.52C668,346.42,661.54,338.34,654.44,337.25Z"/><path class="cls-13" d="M667.56,374.34s5-18.23-.38-29.53-8.17-9.52-11.34-11-23-28.53-23.6-39.37c-6.54,5.78-17.38,12.73-21.12,12.7,3.26,4.76,13.3,19.36,16.6,22.16,13.3,11.27,24.62,9.4,28.33,16.42S666,362.5,667.56,374.34Z"/><path class="cls-13" d="M736.17,289.11c5.08-6.31,2.47-14.76-1.4-19.59l0.09,1.24c4.11,9.6-31.16,15.82-39.8,12.24,0,0,7.94,9.32,14.19,9.23-5.31,8.39-32.57,6.63-32.57,6.63,28.17,14.32,48.38,5,59.5-9.75"/><path class="cls-3" d="M695,359.32c16,4.66,62.88-2.92,61.59-16"/><path class="cls-12" d="M596.9,334.61c11.67-.84,27.32,2,31.11,9.5-4-13.3-25.1-28.29-32.56-30.49C596.14,325.77,596.46,327.88,596.9,334.61Z"/><path class="cls-2" d="M672,240.47a9.78,9.78,0,0,1,4.77-1.05"/><path class="cls-3" d="M659.84,283.93s9,53.11,41.74,54.89"/><path class="cls-2" d="M631.77,376.91s-3.51-5.44-4-8.08-8.1-6.86-9.57-6.9-3.79-1.63-2.86-7.42,8.07-4,18.28-5a13.11,13.11,0,0,1,13.64,7.93l8.12,17.79Z"/><path class="cls-3" d="M631,290.42c-1.46,4.55-14.13,5.93-16.58,4.15s-6.57-4.69-10-3.37-6-5.12-6-5.12"/><path class="cls-3" d="M598.19,291.65s6.82,18.2,11.54,15.54c2.52-1.42,10.62,17,20.41,24,19.68,14.14,27.95,3.63,35.86,38.58"/><rect class="cls-8" x="611.65" y="382.67" width="148.1" height="14.53" transform="matrix(1, -0.07, 0.07, 1, -26.11, 49.99)"/><rect class="cls-8" x="647.26" y="125.42" width="40.02" height="14.53" transform="translate(-7.77 48.01) rotate(-4.1)"/><path class="cls-5" d="M855.47,658.7c-13.5-.44-18.05,14.81-18.05,14.81s15,12.55,25.17,12.55,21.91-10.92,22.18-15.49-4.27-10.85-9.46-11.9S866.17,659.05,855.47,658.7Z"/><path class="cls-6" d="M884.76,670.58c2.4,4.18-11.8,15.49-22.18,15.49s-27.72-4.14-26.93-12.27c0.21-2.11.55-5.18,4.92-6.28-1.15,2.53.62,3.87,1.54,1.24,1.42-4.06,14.71-3,15.07,1.94,0.18,2.58,1.51,7.55,9.68,7.39S883.61,674.82,884.76,670.58Z"/><path class="cls-6" d="M866.86,673.51s4.24-6.46,7-6.27,2.56-3.79,2.56-3.79,4,7.44,0,7.2S866.86,673.51,866.86,673.51Z"/><path class="cls-6" d="M864.28,657.3a0.31,0.31,0,0,1,.1-0.06l0.3-.16a4.36,4.36,0,0,1,1-.34,5.27,5.27,0,0,1,1.52-.06,6.09,6.09,0,0,1,1.67.43,7.77,7.77,0,0,1,.77.39,5.85,5.85,0,0,1,.67.48,4.89,4.89,0,0,1,1,1.07,3.71,3.71,0,0,1,.45.91,2.58,2.58,0,0,1,.11.38,1,1,0,0,1-1.14,1.15l-0.12,0a2.8,2.8,0,0,1-.34-0.09c-0.21-.06-0.47-0.19-0.78-0.3-0.16-.06-0.3-0.14-0.46-0.22a3.88,3.88,0,0,1-.49-0.24c-0.33-.16-0.65-0.35-1-0.52s-0.66-.33-1-0.46-0.63-.26-0.9-0.37L865,659,864.8,659a0.13,0.13,0,0,0-.07,0,0.83,0.83,0,0,1-.68-1.27Z"/><path class="cls-6" d="M857.74,657.57l0.11,0,0.34,0a4.36,4.36,0,0,1,1.09,0,5.27,5.27,0,0,1,1.44.48,6.09,6.09,0,0,1,1.41,1,7.78,7.78,0,0,1,.58.64,5.86,5.86,0,0,1,.46.68,4.89,4.89,0,0,1,.52,1.34,3.71,3.71,0,0,1,.1,1,2.58,2.58,0,0,1,0,.39,1,1,0,0,1-1.48.68l-0.11-.06a2.81,2.81,0,0,1-.29-0.21c-0.18-.13-0.37-0.34-0.63-0.56s-0.23-.24-0.36-0.37a3.88,3.88,0,0,1-.37-0.39c-0.25-.27-0.49-0.56-0.74-0.83s-0.5-.54-0.75-0.78-0.5-.46-0.72-0.66l-0.56-.47a0.77,0.77,0,0,1-.14-0.13,0.13,0.13,0,0,0-.06,0,0.83,0.83,0,0,1-.19-1.43Z"/><path class="cls-6" d="M866.7,662.89l-0.29-.21c-0.17-.12-0.42-0.39-0.67-0.55l-0.81-.65-0.9-.68c-0.61-.42-1.18-0.81-1.65-1.16-0.23-.18-0.44-0.32-0.59-0.45a0.49,0.49,0,0,1-.19-0.19,0.85,0.85,0,0,1-.08-1.69s0.19-.09.46-0.17a3.62,3.62,0,0,1,1.11-.13,4.52,4.52,0,0,1,.73.09,4,4,0,0,1,.78.23,5.52,5.52,0,0,1,1.48.9,6.74,6.74,0,0,1,1.13,1.25l0.39,0.65c0.11,0.22.2,0.45,0.29,0.64a3.65,3.65,0,0,1,.24.92c0,0.22,0,.36,0,0.36A0.94,0.94,0,0,1,866.7,662.89Z"/></svg>