<svg id="Shadow" xmlns="http://www.w3.org/2000/svg" viewBox="0 0 1792 768"><defs><style>.cls-1,.cls-2,.cls-5,.cls-6{fill:#24265b;}.cls-1{opacity:0.1;}.cls-2,.cls-3,.cls-4,.cls-6{stroke:#24265b;}.cls-2,.cls-6{stroke-miterlimit:10;}.cls-2{stroke-width:1.2px;}.cls-3{fill:#fff;stroke-width:3.06px;}.cls-3,.cls-4{stroke-linecap:round;stroke-linejoin:round;}.cls-4{fill:#d6cf90;stroke-width:3.61px;}.cls-6{stroke-width:1.2px;}</style></defs><title>topic</title><ellipse class="cls-1" cx="906.03" cy="590.63" rx="86.67" ry="24.56"/><rect class="cls-2" x="844.46" y="574.43" width="63.63" height="11.87" rx="5.93" ry="5.93" transform="translate(-150.97 358) rotate(-21.3)"/><rect class="cls-2" x="887.36" y="578.7" width="63.63" height="11.87" rx="5.93" ry="5.93" transform="translate(-169.17 537.91) rotate(-30)"/><circle class="cls-2" cx="878.81" cy="484.06" r="7.86"/><g id="Guitar"><line class="cls-3" x1="965.97" y1="315.44" x2="958.86" y2="316.94"/><ellipse class="cls-3" cx="970.78" cy="314.65" rx="5.38" ry="3.59" transform="translate(377.1 1144.69) rotate(-72.38)"/><line class="cls-3" x1="973.03" y1="297.74" x2="965.91" y2="299.24"/><ellipse class="cls-3" cx="977.84" cy="296.95" rx="5.38" ry="3.59" transform="translate(398.89 1139.07) rotate(-72.38)"/><line class="cls-3" x1="940.35" y1="296.66" x2="947.46" y2="295.17"/><ellipse class="cls-3" cx="935.53" cy="297.45" rx="5.38" ry="3.59" transform="translate(368.91 1099.1) rotate(-72.38)"/><line class="cls-3" x1="936.95" y1="315.31" x2="944.07" y2="313.81"/><ellipse class="cls-3" cx="932.14" cy="316.1" rx="5.38" ry="3.59" transform="translate(348.77 1108.87) rotate(-72.38)"/><path class="cls-4" d="M952.29,326.76s-20.93,1.39-20.83-.83,7.3-37.9,8.27-41,8.07-2.84,15.78-4.36c6-1.18,8.27.75,15.65,1.71,3.32,0.44,1.7,5.37,1.7,5.37s-11.06,27-12.37,31.79S952.29,326.76,952.29,326.76Z"/><path class="cls-4" d="M889.73,578.77c9.54,4.82,29.15,10.26,39.42,10.24,13.78,0,31.74-7,38-31.69,7-27.51-15.39-45.69-13.19-56.19,2.73-13,13.7-24.6,14.58-37.79s-14.42-25.82-25.19-27.12c-8.25-1-14.1-2.28-23.91-2.76-12.26-.61-22.93,8.54-26.68,21.71-3.09,10.84,4.73,24.6,3.12,33.81-1.4,8-16.38,16.51-24.44,39.62C865.61,545.44,870.2,568.9,889.73,578.77Z"/><path class="cls-4" d="M880.87,580.89c9.88,5,30.19,10.62,40.83,10.61,14.27,0,29.75-9.31,36.27-34.84,7.28-28.49-15.94-47.32-13.67-58.19,2.82-13.48,14.19-25.48,15.1-39.13s-11.81-24.72-23-26.07c-8.54-1-14.6-2.36-24.77-2.86-12.7-.63-23.75,8.85-27.63,22.48-3.2,11.23,4.9,25.48,3.24,35-1.45,8.29-17,17.09-25.31,41C855.9,546.37,860.64,570.67,880.87,580.89Z"/><path class="cls-5" d="M916.55,472.83c-9.45,0-13.57,6.89-14.68,13.78-1.59,9.84,4.72,17.55,13.7,18.24,8.18,0.63,13.63-5.34,16.06-14.67C934,481.08,926,472.78,916.55,472.83Z"/><path class="cls-6" d="M906,464c2.29-15,19.65-116.19,25.42-138.1,1.42-5.38,21.36-4.47,20.83.83-0.3,2.94-17.31,123-22,140.37C929.26,470.81,905.48,467.73,906,464Z"/></g><rect class="cls-3" x="898.87" y="529.24" width="14.35" height="35.88" transform="matrix(0.21, -0.98, 0.98, 0.21, 184.26, 1321.35)"/><circle class="cls-2" cx="955.86" cy="501.97" r="8.4"/></svg>