<svg id="Shadow" xmlns="http://www.w3.org/2000/svg" viewBox="0 0 1792 768"><defs><style>.cls-1,.cls-3,.cls-7{fill:#24265b;}.cls-1{opacity:0.1;}.cls-2{fill:#eeb9a9;}.cls-10,.cls-2,.cls-3,.cls-4,.cls-5,.cls-6,.cls-8,.cls-9{stroke:#24265b;stroke-linecap:round;stroke-linejoin:round;}.cls-10,.cls-2,.cls-3,.cls-4,.cls-5,.cls-8,.cls-9{stroke-width:3px;}.cls-13,.cls-4,.cls-6{fill:#fff;}.cls-5{fill:#6a29cc;}.cls-6{stroke-width:2.55px;}.cls-8{fill:#4c4f7f;}.cls-9{fill:none;}.cls-10{fill:#4a5077;}.cls-11{fill:#cc2929;}.cls-12{fill:#296acc;}</style></defs><title>topic</title><path class="cls-1" d="M867,665c-14.84,0-178.68,12.77-178.68,26.35s61.23,34,98.35,34,64.22-12.66,84-12.66,84.07,18.5,107.36,18.5,37.87-25.8,48.53-23.91,117.49,22,117.49,6.38-74.25-18.63-84.72-23.37-2.87-6.29-10.22-12.4-39.79-11-53.61-11-77.83,12.25-90.73,12.25S881.88,665,867,665Z"/><path class="cls-2" d="M976,418.49c-7.53-70.4-7.53-97.42-6.16-130.23,1.41,6.14,18.84,7.93,20.38-4.52s-2.84-99.56-20-112.6c-8.88-6.75-37-8.65-40.65-19.32a40.86,40.86,0,0,1-1.34-5.36,32.42,32.42,0,0,1-10.13,1.33c-7.17,0-21.4-8.49-27.42-14.87v1.88c0,15-11.79,25-25.06,28.49-15.57,4.12-28.35,13.32-33.49,28.87s-19.81,73.1-19.81,113.53c0,10.41,29.34,11.88,28.84-2.79-0.32-9.24,13.63-40.08,18.21-56.13,3.56,28.44,19.6,50.05,9.36,109.51C861.35,399.22,979,446.95,976,418.49Z"/><path class="cls-3" d="M965,654.13s7.68-79.68,10.12-117.66c0.69-10.78,3.95-89.52.9-118-1.52-14.21-2.73-26.65-3.69-37.73-5.2,8.22-84.49,12.84-106.21.43C865,410,871,428.52,870.43,431.49c-0.68,3.76-5.72,57.71-7.44,120.61-0.89,32.36,4.45,103.46,4.06,105.75l12.07,0.28c1.8-20,7.09-66.93,11.32-105.11,4.64-41.82,26.61-111.68,28.12-117.46a78.68,78.68,0,0,1,8.92-1.43c1.25,4.65,10,46.83,16.12,93.68S953,655.92,953,655.92l7,0.36Z"/><path class="cls-4" d="M888.63,145.39c-2.26,13.66,18.46,30,31.52,35.23,9-8.77,12.56-16.14,10.74-25.23,7,13.2,14.76,19.54,14.76,19.54l-9.48,78-71.24-61.45,13-30.56S882.38,157.44,888.63,145.39Z"/><path class="cls-5" d="M911.41,184.89c2.93-3.16,13-3.77,15.33-1.05,1.55,1.83,2.46,11.25.67,14.56s-8.52,5-11.56,3.08C912.12,199.18,908.48,188.05,911.41,184.89Z"/><path class="cls-5" d="M916.46,201.32c0.64-2.55,9.48-4,11-2.2,2.72,3.2,8.83,18.83,8.74,23.61-1,5.83-3.92,16.84-3.81,24.4-1.3-5.87-10.81-14.21-18.59-21.25C911.89,219.08,915.28,206.06,916.46,201.32Z"/><path class="cls-6" d="M989.06,652.62c-10.44-1.74-26.74,3.78-26.74,3.78-3.92.8-13.62-2-14.26,1.76s3.49,8.84,3.49,8.84l29,10.54,20.31-9.08S999.5,654.37,989.06,652.62Z"/><path class="cls-7" d="M950.1,664.91c-2.68,2.32,4.64,9.29,29.92,14.38,11.78,2.37,25.49-12.06,20.11-14.65-0.41,3.66-2-3-5.17-4.13s-9.47,2-8.47,5.31,0.29,7.82-4,7.91S950.74,668.65,950.1,664.91Z"/><path class="cls-7" d="M953.26,660.51s1,6.88,5.19,5.52c7.38-2.37,19.32,3.87,19.32,3.87s-13.13-9.43-17.44-7.94A6.84,6.84,0,0,1,953.26,660.51Z"/><path class="cls-7" d="M958.44,658.41a0.22,0.22,0,0,1,0-.1l0-.3a3.63,3.63,0,0,1,.28-0.91,4.37,4.37,0,0,1,.74-1.09,5,5,0,0,1,1.17-.93,6.26,6.26,0,0,1,.67-0.32,4.57,4.57,0,0,1,.68-0.2,3.86,3.86,0,0,1,1.23,0,3,3,0,0,1,.85.22,2,2,0,0,1,.31.15,1,1,0,0,1,.33,1.44l-0.11.14-0.1.11a2.36,2.36,0,0,1-.23.21c-0.14.13-.35,0.25-0.57,0.41s-0.24.14-.36,0.22a2.56,2.56,0,0,1-.38.21c-0.26.14-.53,0.25-0.79,0.37l-0.77.36c-0.26.11-.48,0.24-0.69,0.34l-0.53.27a0.44,0.44,0,0,1-.15.06,0.08,0.08,0,0,0-.05,0,0.78,0.78,0,0,1-1.26-.11Z"/><path class="cls-7" d="M962.11,657.53a0.22,0.22,0,0,1,0-.1l0-.3a3.63,3.63,0,0,1,.28-0.91,4.37,4.37,0,0,1,.74-1.09,5,5,0,0,1,1.17-.93,6.26,6.26,0,0,1,.67-0.32,4.58,4.58,0,0,1,.68-0.2,3.86,3.86,0,0,1,1.23,0,3,3,0,0,1,.85.22,2,2,0,0,1,.31.15,1,1,0,0,1,.33,1.44l-0.11.14-0.1.11a2.36,2.36,0,0,1-.23.21c-0.14.13-.35,0.25-0.57,0.41s-0.24.14-.36,0.22a2.56,2.56,0,0,1-.38.21c-0.26.14-.53,0.25-0.79,0.37l-0.77.36c-0.26.11-.48,0.24-0.69,0.34l-0.53.27a0.44,0.44,0,0,1-.15.06,0.08,0.08,0,0,0-.05,0,0.78,0.78,0,0,1-1.26-.11Z"/><path class="cls-7" d="M970.65,657.88a2.33,2.33,0,0,1-.14-0.36,3.92,3.92,0,0,1-.18-0.94,4.47,4.47,0,0,1,.14-1.38,4.29,4.29,0,0,1,.77-1.53,3.74,3.74,0,0,1,.64-0.65,3.48,3.48,0,0,1,.74-0.48,3.38,3.38,0,0,1,.76-0.26,2.76,2.76,0,0,1,.68-0.08,2.16,2.16,0,0,1,.56,0,3.35,3.35,0,0,1,.42.11,2.14,2.14,0,0,1,.35.14,1,1,0,0,1,.27,1.52l-0.15.18a2.69,2.69,0,0,1-.22.22c-0.13.13-.33,0.26-0.51,0.43a2.69,2.69,0,0,0-.28.24c-0.08.1-.19,0.15-0.26,0.24s-0.17.14-.24,0.23a2.31,2.31,0,0,0-.24.23,4.66,4.66,0,0,0-.49.57c-0.16.22-.31,0.46-0.45,0.68l-0.34.57a1.64,1.64,0,0,0-.14.22A0.85,0.85,0,0,1,970.65,657.88Z"/><path class="cls-7" d="M967.3,658a2.32,2.32,0,0,1-.14-0.36,3.92,3.92,0,0,1-.18-0.94,4.47,4.47,0,0,1,.14-1.38,4.29,4.29,0,0,1,.77-1.53,3.74,3.74,0,0,1,.64-0.65,3.48,3.48,0,0,1,.74-0.48,3.38,3.38,0,0,1,.76-0.26,2.75,2.75,0,0,1,.68-0.08,2.16,2.16,0,0,1,.56,0,3.33,3.33,0,0,1,.42.11,2.14,2.14,0,0,1,.35.14,1,1,0,0,1,.27,1.52l-0.15.18a2.69,2.69,0,0,1-.22.22c-0.13.13-.33,0.26-0.51,0.43a2.7,2.7,0,0,0-.28.24c-0.08.1-.19,0.15-0.26,0.24s-0.17.14-.24,0.23a2.31,2.31,0,0,0-.24.23,4.66,4.66,0,0,0-.49.57c-0.16.22-.31,0.46-0.45,0.68l-0.34.57a1.66,1.66,0,0,0-.14.22A0.85,0.85,0,0,1,967.3,658Z"/><path class="cls-8" d="M809.6,288.26c0,8.06,29,9.25,46.22,9.25,0,10.41.91,17.79,4.44,38.38,3.47,20.18-4.25,31.75-2.87,46.91,2.24,24.67,115.9,12.79,117.24-1.46,2.23-23.77-4.81-87.76-4.81-94.58,0-5.15.93-5.52,0.93-5.52S997,276.31,997,266.32c0-25.15-7.94-58.46-14.53-84-3.83-14.79-26.95-19.18-41.41-23.78-2.07-2.59-8.65-5.34-10-4.13,19.59,35.41.36,70.44,1.42,93.57-1.47-18.34-61.38-48.19-49.19-94.83-0.71-2.26-7.21.07-8.19,2.2-17.21,2.84-43.49,11.5-48.09,30.37C819.79,215.43,811.38,259.24,809.6,288.26Z"/><path class="cls-9" d="M967.69,207.64s4.81,48.63,3.06,73.59"/><path class="cls-9" d="M866.84,231.38a462.87,462.87,0,0,0-6.4,59.85c-0.23,4.68-1.54,6.27-5,6.27"/><path class="cls-9" d="M933.74,395.07c3.1-46.91,2.73-108.32-1.25-147"/><path class="cls-9" d="M933.29,240.32S953.5,207.84,956,202.19c1.66-3.79-9.16-13.51-7.24-15.17s9.28-5.52,7.61-8.06a168.45,168.45,0,0,0-15.25-20.37"/><path class="cls-9" d="M928.51,239.24s-42-26.21-48.72-33.1c-4.1-4.19,5.3-12.76,2.65-13.7s-11.94.45-12.76-5c-1.12-7.35,0-22.28,5.43-32.11"/><path class="cls-4" d="M920.16,180.62c3.16-3.58,12.58-23.57,8.08-34.15,5.05,0.9,7.35,10.72,8.49,21.29,1.11,10.25-7.06,24.88-8.49,21C926.3,183.47,920.16,180.62,920.16,180.62Z"/><path class="cls-4" d="M910.52,191.51a31.13,31.13,0,0,1,9.63-10.89s-32.21-13.55-30-40.66c-2.85-.46-6.23,8.83-7.61,12.93C875.73,173.39,908.17,195.81,910.52,191.51Z"/><path class="cls-10" d="M855.47,375.83c1.83,3.73,39.11,7.64,43,2.67s3.79-35.38,3.74-40.71c0-4.94-39.38-6.25-42.63-3.92S853.63,372.1,855.47,375.83Z"/><path class="cls-10" d="M861.16,318.94c0,6.22,36.1,7.47,41.08,6,2.71-.78,3.08,11.85,0,12.8-6.93,2.13-37.88,0-42.63-3.92C856.27,331.08,856.36,318.94,861.16,318.94Z"/><path class="cls-10" d="M967.69,330.5s0.89,36.62,3.44,38.22,7.41,0.4,8.89-1.76-0.58-37.24-2.75-38.72S967.69,330.5,967.69,330.5Z"/><path class="cls-10" d="M976.41,318.94c-2.54,1.6-6.9,2.31-8.72,2.49s-1.91,9.07,0,9.07,6.89,0,9.59-2.26C978.68,327.07,978.84,318.94,976.41,318.94Z"/><rect class="cls-4" x="882.84" y="223.4" width="26.14" height="18.67" transform="translate(-26.07 150.43) rotate(-9.46)"/><rect class="cls-11" x="885.49" y="238.88" width="23.19" height="1.78" transform="translate(-27.21 150.72) rotate(-9.46)"/><rect class="cls-11" x="884.91" y="235.36" width="23.19" height="1.78" transform="translate(-26.64 150.58) rotate(-9.46)"/><rect class="cls-11" x="884.32" y="231.84" width="23.19" height="1.78" transform="translate(-26.07 150.43) rotate(-9.46)"/><rect class="cls-11" x="883.73" y="228.32" width="23.19" height="1.78" transform="translate(-25.5 150.29) rotate(-9.46)"/><rect class="cls-11" x="883.15" y="224.8" width="23.19" height="1.78" transform="translate(-24.93 150.14) rotate(-9.46)"/><rect class="cls-12" x="883.81" y="225.73" width="11.3" height="8.92" transform="translate(-25.74 149.34) rotate(-9.46)"/><circle class="cls-13" cx="893.66" cy="231.9" r="0.89" transform="translate(-25.96 150.05) rotate(-9.46)"/><circle class="cls-13" cx="891.03" cy="232.34" r="0.89" transform="translate(-26.07 149.62) rotate(-9.46)"/><circle class="cls-13" cx="888.39" cy="232.78" r="0.89" transform="translate(-26.18 149.2) rotate(-9.46)"/><circle class="cls-13" cx="885.75" cy="233.22" r="0.89" transform="translate(-26.29 148.77) rotate(-9.46)"/><circle class="cls-13" cx="893.23" cy="229.26" r="0.89" transform="translate(-25.54 149.94) rotate(-9.46)"/><circle class="cls-13" cx="890.59" cy="229.7" r="0.89" transform="translate(-25.64 149.52) rotate(-9.46)"/><circle class="cls-13" cx="887.95" cy="230.14" r="0.89" transform="translate(-25.75 149.09) rotate(-9.46)"/><circle class="cls-13" cx="885.31" cy="230.58" r="0.89" transform="translate(-25.86 148.66) rotate(-9.46)"/><circle class="cls-13" cx="892.79" cy="226.62" r="0.89" transform="translate(-25.11 149.84) rotate(-9.46)"/><circle class="cls-13" cx="890.15" cy="227.06" r="0.89" transform="translate(-25.22 149.41) rotate(-9.46)"/><circle class="cls-13" cx="887.51" cy="227.5" r="0.89" transform="translate(-25.32 148.98) rotate(-9.46)"/><circle class="cls-13" cx="884.87" cy="227.94" r="0.89" transform="translate(-25.43 148.55) rotate(-9.46)"/><path class="cls-6" d="M855.47,658.7c-13.5-.44-18.05,14.81-18.05,14.81s15,12.55,25.17,12.55,21.91-10.92,22.18-15.49-4.27-10.85-9.46-11.9S866.17,659.05,855.47,658.7Z"/><path class="cls-7" d="M884.76,670.58c2.4,4.18-11.8,15.49-22.18,15.49s-27.72-4.14-26.93-12.27c0.21-2.11.55-5.18,4.92-6.28-1.15,2.53.62,3.87,1.54,1.24,1.42-4.06,14.71-3,15.07,1.94,0.18,2.58,1.51,7.55,9.68,7.39S883.61,674.82,884.76,670.58Z"/><path class="cls-7" d="M866.86,673.51s4.24-6.46,7-6.27,2.56-3.79,2.56-3.79,4,7.44,0,7.2S866.86,673.51,866.86,673.51Z"/><path class="cls-7" d="M864.28,657.3a0.31,0.31,0,0,1,.1-0.06l0.3-.16a4.36,4.36,0,0,1,1-.34,5.27,5.27,0,0,1,1.52-.06,6.09,6.09,0,0,1,1.67.43,7.77,7.77,0,0,1,.77.39,5.85,5.85,0,0,1,.67.48,4.89,4.89,0,0,1,1,1.07,3.71,3.71,0,0,1,.45.91,2.58,2.58,0,0,1,.11.38,1,1,0,0,1-1.14,1.15l-0.12,0a2.8,2.8,0,0,1-.34-0.09c-0.21-.06-0.47-0.19-0.78-0.3-0.16-.06-0.3-0.14-0.46-0.22a3.88,3.88,0,0,1-.49-0.24c-0.33-.16-0.65-0.35-1-0.52s-0.66-.33-1-0.46-0.63-.26-0.9-0.37L865,659,864.8,659a0.13,0.13,0,0,0-.07,0,0.83,0.83,0,0,1-.68-1.27Z"/><path class="cls-7" d="M857.74,657.57l0.11,0,0.34,0a4.36,4.36,0,0,1,1.09,0,5.27,5.27,0,0,1,1.44.48,6.09,6.09,0,0,1,1.41,1,7.78,7.78,0,0,1,.58.64,5.86,5.86,0,0,1,.46.68,4.89,4.89,0,0,1,.52,1.34,3.71,3.71,0,0,1,.1,1,2.58,2.58,0,0,1,0,.39,1,1,0,0,1-1.48.68l-0.11-.06a2.81,2.81,0,0,1-.29-0.21c-0.18-.13-0.37-0.34-0.63-0.56s-0.23-.24-0.36-0.37a3.88,3.88,0,0,1-.37-0.39c-0.25-.27-0.49-0.56-0.74-0.83s-0.5-.54-0.75-0.78-0.5-.46-0.72-0.66l-0.56-.47a0.77,0.77,0,0,1-.14-0.13,0.13,0.13,0,0,0-.06,0,0.83,0.83,0,0,1-.19-1.43Z"/><path class="cls-7" d="M866.7,662.89l-0.29-.21c-0.17-.12-0.42-0.39-0.67-0.55l-0.81-.65-0.9-.68c-0.61-.42-1.18-0.81-1.65-1.16-0.23-.18-0.44-0.32-0.59-0.45a0.49,0.49,0,0,1-.19-0.19,0.85,0.85,0,0,1-.08-1.69s0.19-.09.46-0.17a3.62,3.62,0,0,1,1.11-.13,4.52,4.52,0,0,1,.73.09,4,4,0,0,1,.78.23,5.52,5.52,0,0,1,1.48.9,6.74,6.74,0,0,1,1.13,1.25l0.39,0.65c0.11,0.22.2,0.45,0.29,0.64a3.65,3.65,0,0,1,.24.92c0,0.22,0,.36,0,0.36A0.94,0.94,0,0,1,866.7,662.89Z"/></svg>