<svg id="Shadow" xmlns="http://www.w3.org/2000/svg" viewBox="0 0 1792 768"><defs><style>.cls-1,.cls-3,.cls-4,.cls-5{fill:#24265b;}.cls-1{opacity:0.1;}.cls-2{fill:#eeb9a9;}.cls-10,.cls-11,.cls-2,.cls-3,.cls-4,.cls-6,.cls-7,.cls-8,.cls-9{stroke:#24265b;stroke-linecap:round;stroke-linejoin:round;}.cls-10,.cls-11,.cls-2,.cls-3,.cls-6,.cls-7,.cls-8,.cls-9{stroke-width:3px;}.cls-4{stroke-width:2.55px;}.cls-6{fill:#6183b0;}.cls-7{fill:#6b88b2;}.cls-8{fill:none;}.cls-9{fill:#d6cf90;}.cls-10{fill:gray;}.cls-11{fill:#666;}</style></defs><title>topic</title><path class="cls-1" d="M867,665c-14.84,0-178.68,12.77-178.68,26.35s61.23,34,98.35,34,64.22-12.66,84-12.66,84.07,18.5,107.36,18.5,37.87-25.8,48.53-23.91,117.49,22,117.49,6.38-74.25-18.63-84.72-23.37-2.87-6.29-10.22-12.4-39.79-11-53.61-11-77.83,12.25-90.73,12.25S881.88,665,867,665Z"/><path class="cls-2" d="M976,418.49c-7.53-70.4-7.53-97.42-6.16-130.23,1.41,6.14,18.84,7.93,20.38-4.52s-2.84-99.56-20-112.6c-8.88-6.75-37-8.65-40.65-19.32a40.86,40.86,0,0,1-1.34-5.36,32.42,32.42,0,0,1-10.13,1.33c-7.17,0-21.4-8.49-27.42-14.87v1.88c0,15-11.79,25-25.06,28.49-15.57,4.12-28.35,13.32-33.49,28.87s-19.81,73.1-19.81,113.53c0,10.41,29.34,11.88,28.84-2.79-0.32-9.24,13.63-40.08,18.21-56.13,3.56,28.44,19.6,50.05,9.36,109.51C861.35,399.22,979,446.95,976,418.49Z"/><path class="cls-3" d="M965,654.13s7.68-79.68,10.12-117.66c0.69-10.78,3.95-89.52.9-118-1.52-14.21-2.73-26.65-3.69-37.73-5.2,8.22-84.49,12.84-106.21.43C865,410,871,428.52,870.43,431.49c-0.68,3.76-5.72,57.71-7.44,120.61-0.89,32.36,4.45,103.46,4.06,105.75l12.07,0.28c1.8-20,7.09-66.93,11.32-105.11,4.64-41.82,26.61-111.68,28.12-117.46a78.68,78.68,0,0,1,8.92-1.43c1.25,4.65,10,46.83,16.12,93.68S953,655.92,953,655.92l7,0.36Z"/><path class="cls-4" d="M996.26,660.27c-22.27,0-26.23-12.49-25.85-15.06s-20.69,4.87-19.18,8.42c2.82,6.64-3,9.12.32,13.37s29,10.54,29,10.54l20.31-9.08S1003.88,660.27,996.26,660.27Z"/><path class="cls-5" d="M950.1,664.91c-2.68,2.32,4.64,9.29,29.92,14.38,11.78,2.37,26.69-10.45,21.32-13-0.41,3.66-3.22-4.61-6.37-5.74s-9.47,2-8.47,5.31,0.29,7.82-4,7.91S950.74,668.65,950.1,664.91Z"/><path class="cls-5" d="M958.44,658.41a0.21,0.21,0,0,1,0-.1l0-.3a3.63,3.63,0,0,1,.28-0.91,4.37,4.37,0,0,1,.74-1.09,5,5,0,0,1,1.17-.93,6.26,6.26,0,0,1,.67-0.32,4.56,4.56,0,0,1,.68-0.2,3.86,3.86,0,0,1,1.23,0,2.94,2.94,0,0,1,.85.22,2,2,0,0,1,.31.15,1,1,0,0,1,.33,1.44l-0.11.14-0.1.11a2.33,2.33,0,0,1-.23.21c-0.14.13-.35,0.25-0.57,0.41s-0.24.14-.36,0.22a2.55,2.55,0,0,1-.38.21c-0.26.14-.53,0.25-0.79,0.37l-0.77.36c-0.26.11-.48,0.24-0.69,0.34l-0.53.27a0.44,0.44,0,0,1-.15.06,0.08,0.08,0,0,0-.05,0,0.78,0.78,0,0,1-1.26-.11Z"/><path class="cls-6" d="M997.33,250.37c3.25,3.25-.36,13.49,1.07,20s-4.27,10.09-12.63,11.43c-10.36,1.66-16.17,6-15.7-3.27s-0.45-8.6,1-13.2C975.64,265.7,996.27,257.82,997.33,250.37Z"/><path class="cls-7" d="M997.33,250.37c0-25.15-8.23-42.51-14.83-68-3.41-13.2-25.84-21.9-40.91-26.89-0.64-1.21-4.45-3.31-5.1-1.65a14.79,14.79,0,0,1-6.91-2c5.68,11-1.12,19.17-10.83,20.7-12.3,1.93-37.5-5.89-34.17-21.6-3.33,1.61-7.44,3.32-7.44,3.32-0.94-1.23-4.55,0-5.25,1C854.7,159,831.18,168.7,827,185.76c-4.93,20.21-15.93,41.55-15.82,81.73,0,8.36.2,27.67,0.69,30.59,1.59,9.6,21.33-9.78,38.54-9.78-0.55,6.66,7.11,25.91,4.1,46.59-3.33,22.86-1.25,46.27,11.57,46.29,22.07,13.25,95.05,8.62,106.21-.43,6.26,3.72,7.06-10.46,4.76-23.31-4-22.56-7.25-62.39-7.25-70.69,0-5.15,1.22-21.47,1.22-21.47S997.33,260.35,997.33,250.37Z"/><path class="cls-8" d="M967.69,207.64s5.11,32.67,3.35,57.64"/><path class="cls-8" d="M863.11,219.73C862.4,238,853.51,262.07,852.86,275"/><path class="cls-6" d="M811.2,273.59c-5.2,2.32-4.57,6.57-3.52,14.74,0.72,5.58-2.11,5.76-1.63,8.67,1.59,9.6,29.73,5.16,36.43,3.79,7.4-1.51,14.34-5.79,11.32-12.54s2.36-7.2-.84-14.67C848,276.19,815.17,278.49,811.2,273.59Z"/><path class="cls-8" d="M904.27,364.09s0-112.12,34.64-112.59c12.86-.18,15.17,24.65,15.17,24.65"/><path class="cls-3" d="M936.49,153.83c-0.79-1.65-5.25-3.9-7.32-3.32,5.68,11-.71,20.49-10.42,22-12.3,1.93-37.5-5.89-34.17-21.6-2.69-.5-7.46,1.37-7.44,3.32,0.26,20.86,30.28,29.3,46.17,31.48C933,176.71,940.8,162.84,936.49,153.83Z"/><path class="cls-9" d="M891.88,210.28c-2.28,2.82-6.84,13-5.51,24,3.94-8.9,11-12.31,13.75-7.4C898.37,218.07,894.54,212.38,891.88,210.28Z"/><path class="cls-10" d="M890.37,416.57s-1,6.06-1.48,8.43-6.89,2.37-6.89,2.37-6.43-2.55-6.86-4.74l-2.6-13.27Z"/><polygon class="cls-11" points="861.38 379.22 882 379.95 893.41 376.26 893.41 414.84 882.25 421.21 862.88 410.78 861.38 379.22"/><line class="cls-8" x1="882" y1="379.95" x2="882.25" y2="421.21"/><path class="cls-10" d="M891.73,376.26s-1.9-18.81-4-23.32-8.92-1.85-8.3,2.61a32.78,32.78,0,0,1-2,15.88s-14.28-.47-19.41-4c-3-2.06-6.54,5.89-3.46,8.86,1.88,1.81,6.85,3,6.85,3L882,380Z"/><path class="cls-8" d="M875.85,380a11.34,11.34,0,0,1,1.54-8.52"/><path class="cls-2" d="M884.58,102.25c-1.92-.82-9.78-12.71-11.28-12.71-4.39,0-3.19,17-.49,23.05,1.77,4,6.72,4.91,11.12,4.91a8,8,0,0,0,2.27-.33C885.64,112.36,885.16,107.22,884.58,102.25Z"/><path class="cls-8" d="M874.84,98c1.42,4.19,7.66,8.57,10.51,12.36"/><path class="cls-8" d="M881.09,112.16c-1.5.95-5.33-4.46-1.82-7.94"/><path class="cls-3" d="M885.36,86.16c4.44-7.7,13.87-10.49,24.4-10.58,1.28-1.24.77-4.62,0.87-5.86,0.65,0,3.65,3.32,4,5.48a109.58,109.58,0,0,1,12.34.12c10.7,1.07,15.92,2.82,19.1,5.51-1.08-4.13-9-22.57-27.35-22.57C900.89,58.26,883.1,67.42,885.36,86.16Z"/><path class="cls-4" d="M864.5,667.62S863.63,645,863,640s20.93-3.55,20.22,0-3,26.25-3,26.25Z"/><path class="cls-4" d="M953.34,660.27s-5.43-17.66-4.48-20.27,19.76-2.37,21.26-1.43-3.24,22.33-3.24,22.33Z"/><path class="cls-4" d="M840.57,667.52c-4.07.73-3.15,6-3.15,6s15,12.55,25.17,12.55,21.91-10.92,22.18-15.49-5.59-5.67-3.65-13.34c0.46-1.81-12.34-6-15.45-2.78C860.33,659.91,847.4,666.3,840.57,667.52Z"/><path class="cls-5" d="M884.76,670.58c2.4,4.18-11.8,15.49-22.18,15.49s-27.72-4.14-26.93-12.27c0.21-2.11.55-5.18,4.92-6.28-1.15,2.53.62,3.87,1.54,1.24,1.42-4.06,14.71-3,15.07,1.94,0.18,2.58,1.51,7.55,9.68,7.39S883.61,674.82,884.76,670.58Z"/></svg>