<svg id="Shadow" xmlns="http://www.w3.org/2000/svg" viewBox="0 0 1792 768"><defs><style>.cls-1,.cls-4,.cls-6{fill:#24265b;}.cls-1{opacity:0.1;}.cls-2{fill:#eeb9a9;}.cls-10,.cls-2,.cls-3,.cls-4,.cls-5,.cls-7,.cls-8,.cls-9{stroke:#24265b;}.cls-2,.cls-3,.cls-4,.cls-5,.cls-7,.cls-8,.cls-9{stroke-linecap:round;stroke-linejoin:round;}.cls-2,.cls-3,.cls-4,.cls-7,.cls-8{stroke-width:3px;}.cls-3,.cls-9{fill:none;}.cls-5{fill:#fff;stroke-width:2.55px;}.cls-7{fill:#8829cc;}.cls-8{fill:#80c779;}.cls-9{stroke-width:1.5px;}.cls-10{fill:#8acc7a;stroke-miterlimit:10;stroke-width:4px;}</style></defs><title>topic</title><path class="cls-1" d="M867,665c-14.84,0-178.68,12.77-178.68,26.35s61.23,34,98.35,34,64.22-12.66,84-12.66,84.07,18.5,107.36,18.5,37.87-25.8,48.53-23.91,117.49,22,117.49,6.38-74.25-18.63-84.72-23.37-2.87-6.29-10.22-12.4-39.79-11-53.61-11-77.83,12.25-90.73,12.25S881.88,665,867,665Z"/><path class="cls-2" d="M976,418.49c-7.53-70.4-7.53-97.42-6.16-130.23,1.41,6.14,18.84,7.93,20.38-4.52s-2.84-99.56-20-112.6c-8.88-6.75-37-8.65-40.65-19.32a40.86,40.86,0,0,1-1.34-5.36,32.42,32.42,0,0,1-10.13,1.33c-7.17,0-21.4-8.49-27.42-14.87v1.88c0,15-11.79,25-25.06,28.49-15.57,4.12-28.35,13.32-33.49,28.87s-19.81,73.1-19.81,113.53c0,10.41,29.34,11.88,28.84-2.79-0.32-9.24,13.63-40.08,18.21-56.13,3.56,28.44,19.6,50.05,9.36,109.51C861.35,399.22,979,446.95,976,418.49Z"/><path class="cls-3" d="M922.51,183.19c4.68,1,7.88,7.09,4.76,11.15-1.87,2.44-5.95,1.88-7.19,1.43s-3.07-.72-3.56-2.89c-0.58-2.58,2.12-3.86,3.5-2.61s0.81,3.67.06,5.51a7.35,7.35,0,0,1-7.46,4c-4.29-.42-5.9-4.9-4.33-9.53"/><path class="cls-4" d="M965,654.13s7.68-79.68,10.12-117.66c0.69-10.78,3.95-89.52.9-118-1.52-14.21-2.73-26.65-3.69-37.73-5.2,8.22-84.49,12.84-106.21.43C865,410,871,428.52,870.43,431.49c-0.68,3.76-5.72,57.71-7.44,120.61-0.89,32.36,4.45,103.46,4.06,105.75l12.07,0.28c1.8-20,7.09-66.93,11.32-105.11,4.64-41.82,26.61-111.68,28.12-117.46a78.68,78.68,0,0,1,8.92-1.43c1.25,4.65,10,46.83,16.12,93.68S953,655.92,953,655.92l7,0.36Z"/><path class="cls-5" d="M989.06,652.62c-10.44-1.74-26.74,3.78-26.74,3.78-3.92.8-13.62-2-14.26,1.76s3.49,8.84,3.49,8.84l29,10.54,20.31-9.08S999.5,654.37,989.06,652.62Z"/><path class="cls-6" d="M950.1,664.91c-2.68,2.32,4.64,9.29,29.92,14.38,11.78,2.37,25.49-12.06,20.11-14.65-0.41,3.66-2-3-5.17-4.13s-9.47,2-8.47,5.31,0.29,7.82-4,7.91S950.74,668.65,950.1,664.91Z"/><path class="cls-6" d="M953.26,660.51s1,6.88,5.19,5.52c7.38-2.37,19.32,3.87,19.32,3.87s-13.13-9.43-17.44-7.94A6.84,6.84,0,0,1,953.26,660.51Z"/><path class="cls-6" d="M958.44,658.41a0.22,0.22,0,0,1,0-.1l0-.3a3.63,3.63,0,0,1,.28-0.91,4.37,4.37,0,0,1,.74-1.09,5,5,0,0,1,1.17-.93,6.26,6.26,0,0,1,.67-0.32,4.57,4.57,0,0,1,.68-0.2,3.86,3.86,0,0,1,1.23,0,2.94,2.94,0,0,1,.85.22,2.05,2.05,0,0,1,.31.15,1,1,0,0,1,.33,1.44l-0.11.14-0.1.11a2.33,2.33,0,0,1-.23.21c-0.14.13-.35,0.25-0.57,0.41s-0.24.14-.36,0.22a2.55,2.55,0,0,1-.38.21c-0.26.14-.53,0.25-0.79,0.37l-0.77.36c-0.26.11-.48,0.24-0.69,0.34l-0.53.27a0.44,0.44,0,0,1-.15.06,0.08,0.08,0,0,0-.05,0,0.78,0.78,0,0,1-1.26-.11Z"/><path class="cls-6" d="M962.11,657.53a0.21,0.21,0,0,1,0-.1l0-.3a3.61,3.61,0,0,1,.28-0.91,4.38,4.38,0,0,1,.74-1.09,5,5,0,0,1,1.17-.93,6.24,6.24,0,0,1,.67-0.32,4.56,4.56,0,0,1,.68-0.2,3.86,3.86,0,0,1,1.23,0,3,3,0,0,1,.85.22,2,2,0,0,1,.31.15,1,1,0,0,1,.33,1.44l-0.11.14-0.1.11a2.4,2.4,0,0,1-.23.21c-0.14.13-.35,0.25-0.57,0.41s-0.24.14-.36,0.22a2.55,2.55,0,0,1-.38.21c-0.26.14-.53,0.25-0.79,0.37l-0.77.36c-0.26.11-.48,0.24-0.69,0.34l-0.53.27a0.44,0.44,0,0,1-.15.06,0.08,0.08,0,0,0-.05,0,0.78,0.78,0,0,1-1.26-.11Z"/><path class="cls-6" d="M970.65,657.88a2.28,2.28,0,0,1-.14-0.36,3.92,3.92,0,0,1-.18-0.94,4.47,4.47,0,0,1,.14-1.38,4.29,4.29,0,0,1,.77-1.53,3.73,3.73,0,0,1,.64-0.65,3.48,3.48,0,0,1,.74-0.47,3.38,3.38,0,0,1,.76-0.26,2.75,2.75,0,0,1,.68-0.08,2.16,2.16,0,0,1,.56,0,3.35,3.35,0,0,1,.42.11,2.12,2.12,0,0,1,.35.14,1,1,0,0,1,.27,1.52l-0.15.18a2.71,2.71,0,0,1-.22.22c-0.13.13-.33,0.26-0.51,0.43a2.68,2.68,0,0,0-.28.24c-0.08.1-.19,0.15-0.26,0.24s-0.17.14-.24,0.23a2.31,2.31,0,0,0-.24.23,4.69,4.69,0,0,0-.49.57c-0.16.22-.31,0.46-0.45,0.68l-0.34.57a1.64,1.64,0,0,0-.14.22A0.85,0.85,0,0,1,970.65,657.88Z"/><path class="cls-6" d="M967.3,658a2.27,2.27,0,0,1-.14-0.36,3.92,3.92,0,0,1-.18-0.94,4.47,4.47,0,0,1,.14-1.38,4.29,4.29,0,0,1,.77-1.53,3.73,3.73,0,0,1,.64-0.65,3.48,3.48,0,0,1,.74-0.47,3.38,3.38,0,0,1,.76-0.26,2.75,2.75,0,0,1,.69-0.08,2.16,2.16,0,0,1,.56,0,3.33,3.33,0,0,1,.42.11,2.13,2.13,0,0,1,.35.14,1,1,0,0,1,.4,1.34,1,1,0,0,1-.12.18l-0.15.18a2.73,2.73,0,0,1-.22.22c-0.13.13-.33,0.26-0.51,0.43a2.67,2.67,0,0,0-.28.24c-0.08.1-.19,0.15-0.26,0.24s-0.17.14-.24,0.23a2.32,2.32,0,0,0-.24.23,4.65,4.65,0,0,0-.49.57c-0.16.22-.31,0.46-0.45,0.68l-0.34.57a1.64,1.64,0,0,0-.14.22A0.85,0.85,0,0,1,967.3,658Z"/><path class="cls-7" d="M809.6,259.56c0,8.06,28.33,14.1,45.54,14.1,0.15,15.07.19,42.5,0.77,63.39,0.61,22-3.19,37.5-.77,55.26,3.34,24.55,130.13,18.68,127.57,4.6s-12.88-97.51-12.88-110.14c0-5.15,1.22-21.47,1.22-21.47s26.29-4.93,26.29-14.92c0-25.15-8.23-42.51-14.83-68-3.83-14.79-26.95-19.18-41.41-23.78-2.07-2.59-8.65-5.34-10-4.13,14.63,20.25,6.89,38.25-3.75,47.5-36.24-6.64-48.74-34-44-48.77-0.71-2.26-7.21.07-8.19,2.2-17.21,2.84-43.49,11.5-48.09,30.37C819.79,215.43,811.38,230.54,809.6,259.56Z"/><path class="cls-3" d="M967.69,207.64s5.11,32.67,3.35,57.64"/><path class="cls-3" d="M866.13,219.58c-0.71,18.27-6.12,34.86-6.76,47.8-0.23,4.68-1.54,6.27-5,6.27"/><path class="cls-3" d="M875.12,155.39c-5.9,35.66,39.46,53.44,54.34,55.81,11.22-11.14,24.38-26.55,11.64-52.61"/><path class="cls-3" d="M859.38,265.28c-3.2,4.23-50.3-4.31-49.21-12.57"/><path class="cls-3" d="M971.76,259.56c8.15,0,25.57-9.19,25.57-12.94"/><path class="cls-3" d="M854.4,384c5,28.44,127.42,20.27,127.42,6.63"/><path class="cls-8" d="M895.84,441.53S899,420.19,903,413.32s-21.34-5.93-21.34-5.93l-0.08,32.89Z"/><path class="cls-9" d="M893.48,421.07c-1.51-1.14-4.53-1-4.61.19-0.14,2,4.32,1.75,4,3.73s-3.93,1.73-4.85.5"/><line class="cls-9" x1="889.87" y1="427.59" x2="891.89" y2="419.45"/><ellipse class="cls-9" cx="890.75" cy="423.34" rx="6" ry="6.01" transform="translate(-74.92 222.98) rotate(-13.7)"/><path class="cls-8" d="M887.47,438s2.52-19.53,4.64-27.21c1.29-4.65-20.13-5.18-21.08-1-0.56,2.45-.33,28-0.33,28Z"/><path class="cls-9" d="M883.42,420.39c-1.75-.8-4.71,0-4.52,1.21,0.32,2,4.67.78,4.76,2.82S880.15,427,879,426"/><line class="cls-9" x1="881.3" y1="427.66" x2="881.48" y2="419.14"/><ellipse class="cls-9" cx="881.23" cy="423.25" rx="6.08" ry="6.11" transform="translate(-96.3 435.42) rotate(-26.37)"/><path class="cls-8" d="M881.62,440.28s0.69-19.27-3.78-25.87c-2.93-4.34-21.42,4.26-19.05,7,2.17,2.51,9.26,9.44,9.92,14.4S881.62,440.28,881.62,440.28Z"/><path class="cls-8" d="M974.73,434.08c2.42-3.26,9.2-6.44,12.89-8.52,6.21-3.5-14.28-15.38-16.7-13.11-3.47,3.25-8.7,12.27-9.27,15.89S971.77,438.07,974.73,434.08Z"/><path class="cls-9" d="M977.88,423c-0.6-1.64-3-3-3.69-2.16-1.11,1.5,2.49,3.52,1.23,4.88s-3.92-.62-4-2"/><line class="cls-9" x1="971.81" y1="426.27" x2="977.45" y2="420.96"/><circle class="cls-9" cx="974.62" cy="423.41" r="5.54" transform="translate(256.86 1206.99) rotate(-70.99)"/><path class="cls-8" d="M971.2,432.66c1.49-3.78,9-13.25,12-16.22,5.08-5-17.8-11.1-19.55-8.28-2.5,4-5.18,14.12-4.79,17.76S969.38,437.29,971.2,432.66Z"/><path class="cls-4" d="M867.57,434.84s21.8,5.43,30.57-2.73c0,0-4.24,32.1-10.9,30.81C873.72,460.33,867.57,434.84,867.57,434.84Z"/><path class="cls-4" d="M956.92,424.65c6.4,9,19.65,7.39,19.65,7.39s0.07,3.55,0,7.11c-0.05,2.72-21.31,6.16-21.31,6.16S944.36,424.65,956.92,424.65Z"/><path class="cls-9" d="M970.88,420.46c-1.11-1.35-3.86-1.88-4.19-.84-0.56,1.78,3.5,2.52,2.75,4.21s-3.91.69-4.46-.61"/><line class="cls-9" x1="966.2" y1="425.52" x2="969.8" y2="418.66"/><circle class="cls-9" cx="967.93" cy="421.9" r="5.54"/><path class="cls-9" d="M874.12,423.35c-1.74-.14-4,1.48-3.49,2.44,0.9,1.64,4.24-.78,4.95.93s-2.19,3.3-3.52,2.79"/><line class="cls-9" x1="874.56" y1="430.23" x2="872.07" y2="422.88"/><ellipse class="cls-9" cx="873.13" cy="426.48" rx="5.53" ry="5.56" transform="translate(-38.23 763.61) rotate(-46.33)"/><ellipse class="cls-10" cx="922.04" cy="271.65" rx="34.04" ry="47.89"/><path class="cls-6" d="M906.95,267.75a0.83,0.83,0,0,1,.85-1,3.09,3.09,0,0,1,1.13.29,3,3,0,0,0,1,.29,2.3,2.3,0,0,0,.59-0.07q-0.09-3-.41-13.36L909.5,253l-0.86-1.19q-0.34-.48-1-1.52a13,13,0,0,1-.94-1.74,9.11,9.11,0,0,1-.78-3.43,5.51,5.51,0,0,1,1-3,6.36,6.36,0,0,1,2.78-2.31q0-.78,0-1.26a1.78,1.78,0,0,1,.15-0.89,0.34,0.34,0,0,1,.31-0.22,0.73,0.73,0,0,1,.39.15,1.46,1.46,0,0,1,.48,1.28v0.5a9.09,9.09,0,0,1,2.08-.28,3,3,0,0,1,1.56.38,2.09,2.09,0,0,1,.91,1l-0.65.81a9.09,9.09,0,0,1-1.2-.12q-0.81-.12-1.31-0.16h-0.19a6.11,6.11,0,0,0-1.13.13L911.59,253a18.86,18.86,0,0,1,3.55,6.37,12.1,12.1,0,0,1,.3,2.83,9.07,9.07,0,0,1-.77,3.46,5.51,5.51,0,0,1-2.27,2.74v2.92q0,1.67-1.09,1.67-0.67,0-.67-1.17v-0.3L910.58,269a4.79,4.79,0,0,1-.7,0,7.4,7.4,0,0,1-1.09-.09,4,4,0,0,1-1.22-.41A0.91,0.91,0,0,1,906.95,267.75Zm3.07-16.9q-0.07-2-.28-9.18a4.1,4.1,0,0,0-1.48,1.54,4.16,4.16,0,0,0-.5,2.07Q907.76,247.58,910,250.85Zm2.17,15.25a6.45,6.45,0,0,0,1.12-2.15,7.35,7.35,0,0,0,.4-2.15,10.7,10.7,0,0,0-2-5.59Z"/><path class="cls-6" d="M917.15,249.06l-0.2-3.2q0-2.68,1.59-2.68a11.42,11.42,0,0,1,2.78.47q1.76,0.47,1.76,1.21A1.35,1.35,0,0,1,922,246a14.85,14.85,0,0,0-2.87-.72q0.05,0.81.05,1.63L919,252.39s0,0.22.11,0.59l1.35-.06q1.83,0,1.83,1a0.94,0.94,0,0,1-.33.71,1.2,1.2,0,0,1-.84.31,8.92,8.92,0,0,1-1.1-.07h-1q0.11,1.44.11,2.87L919,264.64a11.48,11.48,0,0,0,.07,2.13l2.79-.09q1.44,0,1.44.93a0.87,0.87,0,0,1-.5.83,2.42,2.42,0,0,1-1.13.26h-3.2a1.37,1.37,0,0,1-.91-0.34,1.1,1.1,0,0,1-.43-0.82v-1l-0.24-6.4Z"/><path class="cls-6" d="M927.49,246.95l0.11,9.1a3.31,3.31,0,0,0-.22,1.3v0.76l-0.15,6q0,2.61,1.28,2.61l1.57-.06q2,0,2,1.11a0.82,0.82,0,0,1-.35.68,1.62,1.62,0,0,1-.8.32,11.2,11.2,0,0,0-3.39-.44,2.36,2.36,0,0,1-1.17.35,1.07,1.07,0,0,1-.88-0.39,1.32,1.32,0,0,1-.31-0.85q0-2.81.24-8.47t0.24-8.47v-0.28q-0.22-2.37-.22-3.55,0-3.59,1.31-3.59a0.94,0.94,0,0,1,.68.28,0.89,0.89,0,0,1,.29.67Z"/><path class="cls-6" d="M936.13,246.95l0.11,9.1a3.31,3.31,0,0,0-.22,1.3v0.76l-0.15,6q0,2.61,1.28,2.61l1.57-.06q2,0,2,1.11a0.82,0.82,0,0,1-.35.68,1.62,1.62,0,0,1-.8.32,11.2,11.2,0,0,0-3.39-.44,2.36,2.36,0,0,1-1.17.35,1.07,1.07,0,0,1-.88-0.39,1.32,1.32,0,0,1-.31-0.85q0-2.81.24-8.47t0.24-8.47v-0.28q-0.22-2.37-.22-3.55,0-3.59,1.31-3.59a0.94,0.94,0,0,1,.68.28,0.89,0.89,0,0,1,.29.67Z"/><path class="cls-6" d="M908,287.7l0-1.44c0-.12,0-0.19-0.05-0.19v-0.69a36.29,36.29,0,0,1,.68-8.48,6.38,6.38,0,0,1,1.11-2.63,1.58,1.58,0,0,1,1.05-.5q4.4,0,6.07,4.44a18,18,0,0,1,1,6.29v0.28l0.07,4.29q0,10.9-5.05,10.9a3.48,3.48,0,0,1-3.2-2.31,13.74,13.74,0,0,1-1.3-4.37A48,48,0,0,1,908,287.7Zm2.24-5.18-0.18,3.5a45.57,45.57,0,0,0,.89,9.59q0.94,2.39,1.79,2.81a1.72,1.72,0,0,0,1.24-.56,3.86,3.86,0,0,0,.88-1.49,17,17,0,0,0,.55-2,21.62,21.62,0,0,0,.31-2.18q0.18-2,.18-3.44t-0.25-4.37q-0.25-2.94-.25-4.39v-0.67a4,4,0,0,0-.91-2.47,2.73,2.73,0,0,0-2.22-1.08,1.72,1.72,0,0,0-1.72,1.46,11,11,0,0,0-.35,3Z"/><path class="cls-6" d="M929.5,282.39l0,0.65q0,16.82-4.89,16.82a3,3,0,0,1-2.79-1.54,8.28,8.28,0,0,1-1.15-3.16,49.35,49.35,0,0,1-.36-5.56q0-3.14,0-9.06l-0.17-5.42a1,1,0,0,1,.81-0.8,1,1,0,0,1,.8.69,3.21,3.21,0,0,1,.35,1.47v10.31q0,1.35.27,4t0.27,4q0,2.78,2.41,2.78,2.7,0,2.7-20.38V275.1l0-.63a1,1,0,0,1,.2-0.67,0.94,0.94,0,0,1,.71-0.22,1.43,1.43,0,0,1,.77.17,0.85,0.85,0,0,1,.35.44,4.5,4.5,0,0,1,.17,1.22l-0.26,3.81Z"/><path class="cls-6" d="M935.75,298.67l-0.07-2.91s0-.44.06-1.3q-0.15-.48-0.6-8.55t-0.49-9.86H934.5q-3.07-.05-3.07-1.13a0.67,0.67,0,0,1,.41-0.58,1.6,1.6,0,0,1,.8-0.23l5.14,0.35,0.61,0q1.19,0,1.18.91a0.89,0.89,0,0,1-.39.75,1.43,1.43,0,0,1-.87.29l-1.74-.26-0.07.39q0,3.59.63,10.75T937.75,298a1,1,0,0,1-.41.79,1.35,1.35,0,0,1-.89.34Z"/><path class="cls-5" d="M855.47,658.7c-13.5-.44-18.05,14.81-18.05,14.81s15,12.55,25.17,12.55,21.91-10.92,22.18-15.49-4.27-10.85-9.46-11.9S866.17,659.05,855.47,658.7Z"/><path class="cls-6" d="M884.76,670.58c2.4,4.18-11.8,15.49-22.18,15.49s-27.72-4.14-26.93-12.27c0.21-2.11.55-5.18,4.92-6.28-1.15,2.53.62,3.87,1.54,1.24,1.42-4.06,14.71-3,15.07,1.94,0.18,2.58,1.51,7.55,9.68,7.39S883.61,674.82,884.76,670.58Z"/><path class="cls-6" d="M866.86,673.51s4.24-6.46,7-6.27,2.56-3.79,2.56-3.79,4,7.44,0,7.2S866.86,673.51,866.86,673.51Z"/><path class="cls-6" d="M864.28,657.3a0.3,0.3,0,0,1,.1-0.06l0.3-.16a4.36,4.36,0,0,1,1-.34,5.27,5.27,0,0,1,1.52-.06,6.09,6.09,0,0,1,1.67.43,7.8,7.8,0,0,1,.77.39,5.84,5.84,0,0,1,.67.48,4.88,4.88,0,0,1,1,1.07,3.69,3.69,0,0,1,.45.91,2.52,2.52,0,0,1,.11.38,1,1,0,0,1-1.14,1.15l-0.12,0a2.82,2.82,0,0,1-.34-0.09c-0.21-.06-0.47-0.19-0.78-0.3-0.16-.06-0.3-0.14-0.46-0.22a3.88,3.88,0,0,1-.49-0.24c-0.33-.16-0.65-0.35-1-0.52s-0.66-.33-1-0.46-0.63-.26-0.9-0.37L865,659l-0.18-.07a0.13,0.13,0,0,0-.07,0,0.83,0.83,0,0,1-.68-1.27Z"/><path class="cls-6" d="M857.74,657.57l0.11,0,0.34,0a4.36,4.36,0,0,1,1.09,0,5.27,5.27,0,0,1,1.44.48,6.08,6.08,0,0,1,1.41,1,7.72,7.72,0,0,1,.58.64,5.87,5.87,0,0,1,.46.68,4.9,4.9,0,0,1,.52,1.34,3.7,3.7,0,0,1,.1,1,2.57,2.57,0,0,1,0,.39,1,1,0,0,1-1.48.68l-0.11-.06a2.85,2.85,0,0,1-.29-0.21c-0.18-.13-0.37-0.34-0.62-0.56s-0.23-.24-0.36-0.37a3.89,3.89,0,0,1-.37-0.39c-0.25-.27-0.49-0.56-0.74-0.83s-0.5-.54-0.75-0.78-0.5-.46-0.72-0.66l-0.56-.47a0.78,0.78,0,0,1-.14-0.13,0.13,0.13,0,0,0-.06,0,0.83,0.83,0,0,1-.19-1.43Z"/><path class="cls-6" d="M866.7,662.89l-0.29-.21c-0.17-.12-0.42-0.39-0.67-0.55l-0.81-.65-0.9-.68c-0.61-.42-1.18-0.81-1.65-1.16-0.23-.18-0.44-0.32-0.59-0.45a0.49,0.49,0,0,1-.19-0.19,0.85,0.85,0,0,1-.08-1.69s0.19-.09.46-0.17a3.62,3.62,0,0,1,1.11-.13,4.53,4.53,0,0,1,.73.09,3.94,3.94,0,0,1,.78.23,5.52,5.52,0,0,1,1.48.9,6.74,6.74,0,0,1,1.13,1.25l0.39,0.65c0.11,0.22.2,0.45,0.29,0.64a3.64,3.64,0,0,1,.24.92c0,0.22,0,.36,0,0.36A0.94,0.94,0,0,1,866.7,662.89Z"/></svg>