<svg id="Shadow" xmlns="http://www.w3.org/2000/svg" xmlns:xlink="http://www.w3.org/1999/xlink" viewBox="0 0 1792 768"><defs><style>.cls-1,.cls-12,.cls-16,.cls-4{fill:none;}.cls-2,.cls-5,.cls-7{fill:#24265b;}.cls-2{opacity:0.1;}.cls-11,.cls-14,.cls-3{fill:#eeb9a9;}.cls-10,.cls-11,.cls-12,.cls-13,.cls-15,.cls-16,.cls-3,.cls-4,.cls-5,.cls-6,.cls-8{stroke:#24265b;}.cls-10,.cls-11,.cls-12,.cls-13,.cls-15,.cls-3,.cls-4,.cls-5,.cls-6,.cls-8{stroke-linecap:round;stroke-linejoin:round;}.cls-10,.cls-16,.cls-3,.cls-4,.cls-5,.cls-8{stroke-width:3px;}.cls-13,.cls-6{fill:#fff;}.cls-6{stroke-width:2.55px;}.cls-8{fill:#cc298e;}.cls-9{clip-path:url(#clip-path);}.cls-10{fill:#d6cf90;}.cls-11,.cls-12,.cls-13,.cls-15{stroke-width:1.61px;}.cls-15{fill:#6183b0;}.cls-16{stroke-miterlimit:10;}</style><clipPath id="clip-path"><circle class="cls-1" cx="921.93" cy="262.4" r="37.28"/></clipPath></defs><title>topic</title><path class="cls-2" d="M867,665c-14.84,0-178.68,12.77-178.68,26.35s61.23,34,98.35,34,64.22-12.66,84-12.66,84.07,18.5,107.36,18.5,37.87-25.8,48.53-23.91,117.49,22,117.49,6.38-74.25-18.63-84.72-23.37-2.87-6.29-10.22-12.4-39.79-11-53.61-11-77.83,12.25-90.73,12.25S881.88,665,867,665Z"/><path class="cls-3" d="M976,418.49c-7.53-70.4-7.53-97.42-6.16-130.23,1.41,6.14,18.84,7.93,20.38-4.52s-2.84-99.56-20-112.6c-8.88-6.75-37-8.65-40.65-19.32a40.86,40.86,0,0,1-1.34-5.36,32.42,32.42,0,0,1-10.13,1.33c-7.17,0-21.4-8.49-27.42-14.87v1.88c0,15-11.79,25-25.06,28.49-15.57,4.12-28.35,13.32-33.49,28.87s-19.81,73.1-19.81,113.53c0,10.41,29.34,11.88,28.84-2.79-0.32-9.24,13.63-40.08,18.21-56.13,3.56,28.44,19.6,50.05,9.36,109.51C861.35,399.22,979,446.95,976,418.49Z"/><path class="cls-4" d="M922.51,183.19c4.68,1,7.88,7.09,4.76,11.15-1.87,2.44-5.95,1.88-7.19,1.43s-3.07-.72-3.56-2.89c-0.58-2.58,2.12-3.86,3.5-2.61s0.81,3.67.06,5.51a7.35,7.35,0,0,1-7.46,4c-4.29-.42-5.9-4.9-4.33-9.53"/><path class="cls-5" d="M965,654.13s7.68-79.68,10.12-117.66c0.69-10.78,3.95-89.52.9-118-1.52-14.21-2.73-26.65-3.69-37.73-5.2,8.22-84.49,12.84-106.21.43C865,410,871,428.52,870.43,431.49c-0.68,3.76-5.72,57.71-7.44,120.61-0.89,32.36,4.45,103.46,4.06,105.75l12.07,0.28c1.8-20,7.09-66.93,11.32-105.11,4.64-41.82,26.61-111.68,28.12-117.46a78.68,78.68,0,0,1,8.92-1.43c1.25,4.65,10,46.83,16.12,93.68S953,655.92,953,655.92l7,0.36Z"/><path class="cls-6" d="M989.06,652.62c-10.44-1.74-26.74,3.78-26.74,3.78-3.92.8-13.62-2-14.26,1.76s3.49,8.84,3.49,8.84l29,10.54,20.31-9.08S999.5,654.37,989.06,652.62Z"/><path class="cls-7" d="M950.1,664.91c-2.68,2.32,4.64,9.29,29.92,14.38,11.78,2.37,25.49-12.06,20.11-14.65-0.41,3.66-2-3-5.17-4.13s-9.47,2-8.47,5.31,0.29,7.82-4,7.91S950.74,668.65,950.1,664.91Z"/><path class="cls-7" d="M953.26,660.51s1,6.88,5.19,5.52c7.38-2.37,19.32,3.87,19.32,3.87s-13.13-9.43-17.44-7.94A6.84,6.84,0,0,1,953.26,660.51Z"/><path class="cls-7" d="M958.44,658.41a0.22,0.22,0,0,1,0-.1l0-.3a3.63,3.63,0,0,1,.28-0.91,4.37,4.37,0,0,1,.74-1.09,5,5,0,0,1,1.17-.93,6.27,6.27,0,0,1,.67-0.32,4.58,4.58,0,0,1,.68-0.2,3.86,3.86,0,0,1,1.23,0,3,3,0,0,1,.85.22,2,2,0,0,1,.31.15,1,1,0,0,1,.33,1.44l-0.11.14-0.1.11a2.35,2.35,0,0,1-.23.21c-0.14.13-.35,0.25-0.57,0.41s-0.24.14-.36,0.22a2.55,2.55,0,0,1-.38.21c-0.26.14-.53,0.25-0.79,0.37l-0.77.36c-0.26.11-.48,0.24-0.69,0.34l-0.53.27a0.44,0.44,0,0,1-.15.06,0.08,0.08,0,0,0-.05,0,0.78,0.78,0,0,1-1.26-.11Z"/><path class="cls-7" d="M962.11,657.53a0.22,0.22,0,0,1,0-.1l0-.3a3.63,3.63,0,0,1,.28-0.91,4.37,4.37,0,0,1,.74-1.09,5,5,0,0,1,1.17-.93,6.25,6.25,0,0,1,.67-0.32,4.57,4.57,0,0,1,.68-0.2,3.86,3.86,0,0,1,1.23,0,3,3,0,0,1,.85.22,2,2,0,0,1,.31.15,1,1,0,0,1,.33,1.44l-0.11.14-0.1.11a2.36,2.36,0,0,1-.23.21c-0.14.13-.35,0.25-0.57,0.41s-0.24.14-.36,0.22a2.56,2.56,0,0,1-.38.21c-0.26.14-.53,0.25-0.79,0.37l-0.77.36c-0.26.11-.48,0.24-0.69,0.34l-0.53.27a0.44,0.44,0,0,1-.15.06,0.08,0.08,0,0,0-.05,0,0.78,0.78,0,0,1-1.26-.11Z"/><path class="cls-7" d="M970.65,657.88a2.29,2.29,0,0,1-.14-0.36,3.91,3.91,0,0,1-.18-0.94,4.46,4.46,0,0,1,.14-1.38,4.29,4.29,0,0,1,.77-1.53,3.74,3.74,0,0,1,.64-0.65,3.47,3.47,0,0,1,.74-0.47,3.38,3.38,0,0,1,.76-0.26,2.76,2.76,0,0,1,.69-0.08,2.16,2.16,0,0,1,.56,0,3.35,3.35,0,0,1,.42.11,2.13,2.13,0,0,1,.35.14,1,1,0,0,1,.27,1.52l-0.15.18a2.71,2.71,0,0,1-.22.22c-0.13.13-.33,0.26-0.51,0.43a2.69,2.69,0,0,0-.28.24c-0.08.1-.19,0.15-0.26,0.24s-0.17.14-.24,0.23a2.32,2.32,0,0,0-.24.23,4.66,4.66,0,0,0-.49.57c-0.16.22-.31,0.46-0.45,0.68l-0.34.57a1.65,1.65,0,0,0-.14.22A0.85,0.85,0,1,1,970.65,657.88Z"/><path class="cls-7" d="M967.3,658a2.31,2.31,0,0,1-.14-0.36,3.91,3.91,0,0,1-.18-0.94,4.47,4.47,0,0,1,.14-1.38,4.29,4.29,0,0,1,.77-1.53,3.73,3.73,0,0,1,.64-0.65,3.47,3.47,0,0,1,.74-0.47,3.38,3.38,0,0,1,.76-0.26,2.75,2.75,0,0,1,.68-0.08,2.16,2.16,0,0,1,.56,0,3.35,3.35,0,0,1,.42.11,2.15,2.15,0,0,1,.35.14,1,1,0,0,1,.27,1.52l-0.15.18a2.7,2.7,0,0,1-.22.22c-0.13.13-.33,0.26-0.51,0.43a2.69,2.69,0,0,0-.28.24c-0.08.1-.19,0.15-0.26,0.24s-0.17.14-.24,0.23a2.32,2.32,0,0,0-.24.23,4.66,4.66,0,0,0-.49.57c-0.16.22-.31,0.46-0.45,0.68l-0.34.57a1.64,1.64,0,0,0-.14.22A0.85,0.85,0,0,1,967.3,658Z"/><path class="cls-8" d="M809.6,259.56c0,8.06,28.33,14.1,45.54,14.1,0.15,15.07.19,42.5,0.77,63.39,0.61,22-3.19,37.5-.77,55.26,3.34,24.55,130.13,18.68,127.57,4.6s-12.88-97.51-12.88-110.14c0-5.15,1.22-21.47,1.22-21.47s26.29-4.93,26.29-14.92c0-25.15-8.23-42.51-14.83-68-3.83-14.79-26.95-19.18-41.41-23.78-2.07-2.59-8.65-5.34-10-4.13,14.63,20.25,6.89,38.25-3.75,47.5-36.24-6.64-48.74-34-44-48.77-0.71-2.26-7.21.07-8.19,2.2-17.21,2.84-43.49,11.5-48.09,30.37C819.79,215.43,811.38,230.54,809.6,259.56Z"/><path class="cls-4" d="M967.69,207.64s5.11,32.67,3.35,57.64"/><path class="cls-4" d="M866.13,219.58c-0.71,18.27-6.12,34.86-6.76,47.8-0.23,4.68-1.54,6.27-5,6.27"/><path class="cls-4" d="M875.12,155.39c-5.9,35.66,39.46,53.44,54.34,55.81,11.22-11.14,24.38-26.55,11.64-52.61"/><path class="cls-4" d="M859.38,265.28c-3.2,4.23-50.3-4.31-49.21-12.57"/><path class="cls-4" d="M971.76,259.56c8.15,0,25.57-9.19,25.57-12.94"/><path class="cls-4" d="M854.4,384c5,28.44,127.42,20.27,127.42,6.63"/><g class="cls-9"><rect class="cls-10" x="863.7" y="215.67" width="111.18" height="111.18"/><path class="cls-2" d="M897,560.09c-7.94,0-95.61,6.84-95.61,14.1S834.12,592.4,854,592.4s34.36-6.77,44.94-6.77,45,9.9,57.45,9.9,20.26-13.81,26-12.79,62.87,11.75,62.87,3.41-39.73-10-45.33-12.51-1.53-3.37-5.47-6.63-21.29-5.88-28.69-5.88-41.65,6.55-48.55,6.55S904.91,560.09,897,560.09Z"/><path class="cls-11" d="M965,558.18a3.48,3.48,0,0,1-1,.12c-2.09-1.28-14-3.11-14.66-5.17,0,0,4.11-41.5,5.41-61.82,0.37-5.77,2.11-47.9.48-63.13-4-37.67-4-52.13-3.3-69.69,0.76,3.29,10.08,4.24,10.91-2.42s-1.52-53.27-10.7-60.25c-4.75-3.61-19.81-4.63-21.75-10.34-1.29-3.81-1.68-10.85-1.68-13.8s-19.13-5.39-19.13-2.91v7.6c0,8-6.31,13.37-13.41,15.24-8.33,2.2-15.17,7.13-17.92,15.45s-10.6,39.11-10.6,60.75c0,5.57,15.7,6.36,15.43-1.49-0.17-4.94,7.29-21.45,9.74-30,1.9,15.22,10.49,26.78,5,58.6-4,23,1.27,38.24.9,40.25s-3.06,30.88-4,64.54C894.32,517,897.18,555,897,556.26c-0.36,2.12-12,5.43-13.9,7a3.48,3.48,0,0,1-1,0,1,1,0,0,0-.35,1.92,1.5,1.5,0,0,0,1.48,1.79l0.23,0a3.44,3.44,0,0,0,4.5,2,2.28,2.28,0,0,0,3.24.63c2.1,0.21,3.91-.91,5.67-2.5,3.69-3.33,8.95-2.05,7.12-6.34a10,10,0,0,1-.56-4.34c1-10.72,3.79-35.82,6.06-56.24,2.48-22.38,14.24-59.76,15-62.85a42.1,42.1,0,0,1,4.78-.76c0.67,2.49,5.36,25.06,8.63,50.13S943,554.09,943,554.09a10,10,0,0,1,0,4.38c-1.28,4.48,3.77,2.55,7.85,5.39,1.95,1.36,3.88,2.23,5.94,1.77a2.28,2.28,0,0,0,3.13-1,3.23,3.23,0,0,1,2.76-.84,1.67,1.67,0,0,0,1.45-1.75h0.23a1.5,1.5,0,0,0,1.24-2A1,1,0,0,0,965,558.18Z"/><path class="cls-11" d="M957.81,562.48c1,0,2.52.48,2.1,2.12"/><path class="cls-11" d="M960.7,561.83a1.53,1.53,0,0,1,1.34,1.89"/><path class="cls-11" d="M962.66,560.55a1.53,1.53,0,0,1,1.34,1.89"/><path class="cls-11" d="M963.09,559.12c1.07,0.15,2.44.64,2.5,0.92"/><path class="cls-11" d="M889.78,566.59c-1,.14-2.44.79-1.82,2.37"/><path class="cls-11" d="M886.83,566.31a1.53,1.53,0,0,0-1.09,2"/><path class="cls-11" d="M884.73,565.29a1.53,1.53,0,0,0-1.09,2"/><path class="cls-11" d="M884.12,563.93c-1,.29-2.34.94-2.37,1.22"/><path class="cls-11" d="M952,316.12c0.8,11.8,1.21,20.17,0,42.37"/><path class="cls-12" d="M932.72,316.77c2.5,0.52,4.22,3.79,2.55,6-1,1.31-3.18,1-3.85.76s-1.64-.38-1.9-1.55a1.22,1.22,0,0,1,1.87-1.4c0.74,0.67.44,2,0,2.95a3.93,3.93,0,0,1-4,2.15c-2.3-.22-3.16-2.62-2.32-5.1"/><path class="cls-12" d="M936.37,315.76c2.08-1.7,8.24,2.43,3.73,5.44"/><path class="cls-12" d="M921.34,322.51c1.55,1.21-.4,6.28-3.28,3.55"/><path class="cls-12" d="M932.74,331.78c1,1.79-.05,4.56-2.25,4.7-1.32.09-2.29-1.39-2.5-1.92a1.78,1.78,0,0,1-.08-2,1,1,0,0,1,1.84.39c0,0.8-1,1.31-1.76,1.58a3.16,3.16,0,0,1-3.42-1.27c-1.08-1.5-.09-3.3,1.85-4.11"/><path class="cls-12" d="M935.26,336.84a2.4,2.4,0,0,1,1.71,3.54,2.28,2.28,0,0,1-2.31.57,1.34,1.34,0,0,1-1.19-.88,0.74,0.74,0,0,1,1.09-.9,1.65,1.65,0,0,1,.1,1.78,2.38,2.38,0,0,1-2.36,1.41c-1.4-.07-2-1.5-1.54-3"/><path class="cls-12" d="M933.44,328.49c2.21-1.52,8,3.12,3.26,5.74"/><path class="cls-12" d="M917.52,335.17c-1.07-1.65,2.44-5.8,4.27-2.27"/><path class="cls-12" d="M921.87,316.46c0.79-2.8,8.81-2.94,6.68,2.52"/><path class="cls-12" d="M927.08,337.53c-0.06,2-5.3,3.38-4.8-.56"/><path class="cls-12" d="M938.33,326c1.36-1.42,6.2,1,3.2,3.62"/><path class="cls-11" d="M896.87,319.84c-0.76,4.6-2.79,11.65-4,16.45"/><path class="cls-12" d="M926.65,302.28c2.5,0.52,4.22,3.79,2.55,6-1,1.31-3.18,1-3.85.76s-1.64-.38-1.9-1.55a1.22,1.22,0,0,1,1.87-1.4c0.74,0.67.44,2,0,2.95a3.93,3.93,0,0,1-4,2.15c-2.3-.22-3.16-2.62-2.32-5.1"/><path class="cls-7" d="M927.84,234.18s9.81,1.61,12.15,9.52a1.05,1.05,0,0,0-1.33,0c0.21,1.05,3.1,4.29,1.58,9.11a2.78,2.78,0,0,0-1.36-1.84C931.73,246.57,927.84,234.18,927.84,234.18Z"/><path class="cls-11" d="M900.49,263.28c0.47,2.3,3.16,3.84,5.51,3.84a4.26,4.26,0,0,0,4.26-4.26c0-2.35-4.43-4.61-6.78-4.61S899.83,260,900.49,263.28Z"/><path class="cls-11" d="M933.47,279.77c-1.48,2.49-4.39,3.57-9.18,3.57s-15.47-7.08-16.14-10.21c-1.49-7-1.6-18.89-3.89-24.76-3-7.67,9-12.65,19.13-12.65,13.85,0,16.69,10,15.71,16.92-0.54,3.81-.78,12.18-1,15.67C937.87,272.47,934.73,277.65,933.47,279.77Z"/><path class="cls-13" d="M924.17,260.76c0,2.07-1.81,3.74-4.75,3.74s-5.28-1.67-5.28-3.74,2.43-3.74,5.28-3.74S924.17,258.69,924.17,260.76Z"/><path class="cls-13" d="M918.92,273.63s0.66,3.46,5.88,3.3c4.16-.13,3.88-2.38,3.88-2.38"/><path class="cls-13" d="M938.49,260c0,2.07-1.81,3.74-4.75,3.74s-5.28-1.67-5.28-3.74,2.43-3.74,5.28-3.74S938.49,258,938.49,260Z"/><circle class="cls-7" cx="919.1" cy="260.58" r="1.63"/><circle class="cls-7" cx="933.34" cy="260.23" r="1.63"/><path class="cls-12" d="M907.32,258.84A46.8,46.8,0,0,0,908,266c0.33,2,2.3,3.65,3.72,4.75"/><path class="cls-12" d="M902.38,261.24c1.1-.36,2.87,0,4.39,2"/><path class="cls-7" d="M908,266c-0.65-9,2.35-14.77,1.16-15.29-1.73-.76-2.43-12.86,6.72-12.61,3.36-1.28,3.57-4.54,2.49-4.43-5.82.57-14.84,5.24-17.42,9.2a7.1,7.1,0,0,1,1.5.19c-0.63,2.45-2,4.16-1.59,6.39a2.69,2.69,0,0,1,1.17-.52c0,2.72,1,6.74,1.48,9.36,1.68,0.1,2.88.26,2.88,1.76C906.36,262.48,906.58,264.79,908,266Z"/><path class="cls-12" d="M918.92,273.63c2.62,1.14,10.41,1.27,11.45,0"/><path class="cls-14" d="M911.69,258.84h12.48a4.66,4.66,0,0,0-5-4.35C914.32,254.49,911.69,258.84,911.69,258.84Z"/><path class="cls-14" d="M928.29,258.83s8.72-.23,9.77-0.23c0.23-3.32-1.28-5-4.67-5S928.29,258.83,928.29,258.83Z"/><path class="cls-11" d="M929,258.26c-2.07,3.47,2.06,4.22,2.92,8.22,0.7,3.27-9.47,3-7.38-.52"/><line class="cls-12" x1="914.67" y1="259.13" x2="923.73" y2="259.13"/><line class="cls-12" x1="928.61" y1="259.13" x2="938.16" y2="259.13"/><path class="cls-12" d="M923.39,258.55a1.49,1.49,0,0,1,.69,1.47"/><path class="cls-7" d="M915.84,238.06c0.57,1.09,6.52,2.86,10.66,2.47,2.76-.26,4.29-1.9,4.44-3.78,0.38-4.71-1.39-5.78-3.7-6.13-0.92,2.55-2.46-1.28-6.7-.5,1.23,1.69-3,.26-5.62,3C917.57,234,914.79,236,915.84,238.06Z"/><path class="cls-12" d="M914.2,254.49a6,6,0,0,1,4.6-1.92,4.91,4.91,0,0,1,4.16,1.87"/><path class="cls-12" d="M928.47,253.53a6,6,0,0,1,4.6-1.92,4.91,4.91,0,0,1,4.16,1.87"/><path class="cls-15" d="M866.23,343.14c0,4.31,15.16,7.54,24.37,7.54,0.08,8.06.1,22.74,0.41,33.92,0.33,11.77-1.71,20.07-.41,29.57,1.79,13.13,69.63,10,68.26,2.46S952,364.45,952,357.69c0-2.76.65-11.49,0.65-11.49s14.07-2.64,14.07-8c0-13.46-4.41-22.74-7.93-36.39-2-7.92-14.42-10.26-22.16-12.72-1.11-1.39-4.63-2.85-5.36-2.21,7.83,10.83,3.68,20.47-2,25.42-19.39-3.55-26.08-18.17-23.55-26.1-0.38-1.21-3.86,0-4.38,1.18-9.21,1.52-23.27,6.15-25.74,16.25C871.69,319.53,867.19,327.61,866.23,343.14Z"/><path class="cls-12" d="M901.29,287.4c-3.16,19.08,21.12,28.6,29.07,29.86,6-6,13-14.21,6.23-28.15"/></g><circle class="cls-16" cx="921.93" cy="262.4" r="37.28"/><path class="cls-6" d="M855.47,658.7c-13.5-.44-18.05,14.81-18.05,14.81s15,12.55,25.17,12.55,21.91-10.92,22.18-15.49-4.27-10.85-9.46-11.9S866.17,659.05,855.47,658.7Z"/><path class="cls-7" d="M884.76,670.58c2.4,4.18-11.8,15.49-22.18,15.49s-27.72-4.14-26.93-12.27c0.21-2.11.55-5.18,4.92-6.28-1.15,2.53.62,3.87,1.54,1.24,1.42-4.06,14.71-3,15.07,1.94,0.18,2.58,1.51,7.55,9.68,7.39S883.61,674.82,884.76,670.58Z"/><path class="cls-7" d="M866.86,673.51s4.24-6.46,7-6.27,2.56-3.79,2.56-3.79,4,7.44,0,7.2S866.86,673.51,866.86,673.51Z"/><path class="cls-7" d="M864.28,657.3a0.31,0.31,0,0,1,.1-0.06l0.3-.16a4.36,4.36,0,0,1,1-.34,5.27,5.27,0,0,1,1.52-.06,6.09,6.09,0,0,1,1.67.43,7.81,7.81,0,0,1,.77.39,5.87,5.87,0,0,1,.67.48,4.89,4.89,0,0,1,1,1.07,3.7,3.7,0,0,1,.45.91,2.58,2.58,0,0,1,.11.38,1,1,0,0,1-1.14,1.15l-0.12,0a2.82,2.82,0,0,1-.34-0.09c-0.21-.06-0.47-0.19-0.78-0.3-0.16-.06-0.3-0.14-0.46-0.22a3.89,3.89,0,0,1-.49-0.24c-0.33-.16-0.65-0.35-1-0.52s-0.66-.33-1-0.46-0.63-.26-0.9-0.37L865,659,864.8,659a0.13,0.13,0,0,0-.07,0,0.83,0.83,0,0,1-.68-1.27Z"/><path class="cls-7" d="M857.74,657.57l0.11,0,0.34,0a4.36,4.36,0,0,1,1.09,0,5.27,5.27,0,0,1,1.44.48,6.09,6.09,0,0,1,1.41,1,7.78,7.78,0,0,1,.58.64,5.83,5.83,0,0,1,.46.68,4.89,4.89,0,0,1,.52,1.34,3.71,3.71,0,0,1,.1,1,2.58,2.58,0,0,1,0,.39,1,1,0,0,1-1.48.68l-0.11-.06a2.81,2.81,0,0,1-.29-0.21c-0.18-.13-0.37-0.34-0.63-0.56s-0.23-.24-0.36-0.37a3.88,3.88,0,0,1-.37-0.39c-0.25-.27-0.49-0.56-0.74-0.83s-0.5-.54-0.75-0.78-0.5-.46-0.72-0.66l-0.56-.47a0.76,0.76,0,0,1-.14-0.13,0.13,0.13,0,0,0-.06,0,0.83,0.83,0,0,1-.19-1.43Z"/><path class="cls-7" d="M866.7,662.89l-0.29-.21c-0.17-.12-0.42-0.39-0.67-0.55l-0.81-.65-0.9-.68c-0.61-.42-1.18-0.81-1.65-1.16-0.23-.18-0.44-0.32-0.59-0.45a0.5,0.5,0,0,1-.19-0.19,0.85,0.85,0,1,1-.08-1.69s0.19-.09.46-0.17a3.62,3.62,0,0,1,1.11-.13,4.53,4.53,0,0,1,.73.09,4,4,0,0,1,.78.23,5.52,5.52,0,0,1,1.48.9,6.73,6.73,0,0,1,1.13,1.25l0.39,0.65c0.11,0.22.2,0.45,0.29,0.64a3.65,3.65,0,0,1,.24.92c0,0.22,0,.36,0,0.36A0.94,0.94,0,0,1,866.7,662.89Z"/></svg>