<svg id="Shadow" xmlns="http://www.w3.org/2000/svg" viewBox="0 0 1792 768"><defs><style>.cls-1{fill:#24265b;opacity:0.1;}.cls-2,.cls-3,.cls-4{fill:#fff;}.cls-2,.cls-3,.cls-4,.cls-5{stroke:#24265b;stroke-linecap:round;stroke-linejoin:round;}.cls-2,.cls-5{stroke-width:3px;}.cls-3{stroke-width:2.86px;}.cls-4{stroke-width:2.8px;}.cls-5{fill:none;}</style></defs><title>topic</title><ellipse class="cls-1" cx="990" cy="681.8" rx="68" ry="16.2"/><rect class="cls-2" x="979.56" y="177.78" width="10.67" height="29.87" rx="5.33" ry="5.33"/><path class="cls-3" d="M1045.33,674.13c0,7.07-24.83,12.8-55.47,12.8s-55.47-5.73-55.47-12.8a18,18,0,0,1,2.13-8.53c8.89-17.78,97.78-16.36,106.67,0A24.31,24.31,0,0,1,1045.33,674.13Z"/><ellipse class="cls-4" cx="989.87" cy="665.6" rx="53.33" ry="12.8"/><path class="cls-4" d="M983.47,648.53V665.6c0,1.18,2.87,2.13,6.4,2.13s6.4-1,6.4-2.13V648.53h-12.8Z"/><ellipse class="cls-4" cx="989.87" cy="648.53" rx="6.4" ry="2.13"/><path class="cls-2" d="M994.13,649.6a9.07,9.07,0,0,1-8.53,0V224h8.53V649.6Z"/><rect class="cls-2" x="981.33" y="198.4" width="17.07" height="25.6"/><rect class="cls-2" x="974.22" y="138.97" width="34.13" height="51.2" rx="12" ry="12" transform="translate(215.09 -473.6) rotate(30)"/><rect class="cls-2" x="988.8" y="177.78" width="10.67" height="29.87" rx="5.33" ry="5.33"/><path class="cls-5" d="M989.51,146.49c2.9-3.84,5.25-9.48,11.23-6"/><path class="cls-5" d="M998.61,151.84c2.9-3.84,5.25-9.48,11.23-6"/><path class="cls-5" d="M993.7,149c2.9-3.84,5.25-9.48,11.23-6"/><path class="cls-5" d="M973.25,172.58c-2.08,4.34-5.29,6.89.52,10.61"/><path class="cls-5" d="M982.19,178.2c-2.08,4.34-5.29,6.89.52,10.61"/><path class="cls-5" d="M977.41,175.15c-2.08,4.34-5.29,6.89.52,10.61"/><line class="cls-5" x1="981.33" y1="147.68" x2="986.45" y2="150.52"/><line class="cls-5" x1="979.49" y1="151.84" x2="984.6" y2="154.68"/><line class="cls-5" x1="977.06" y1="156" x2="982.18" y2="158.84"/><line class="cls-5" x1="974.5" y1="160.16" x2="979.62" y2="163"/><line class="cls-5" x1="990.72" y1="153.21" x2="1004.02" y2="160.87"/><line class="cls-5" x1="988.88" y1="157.37" x2="1002.17" y2="165.03"/><line class="cls-5" x1="986.45" y1="161.53" x2="999.75" y2="169.19"/><line class="cls-5" x1="983.89" y1="165.69" x2="997.19" y2="173.35"/></svg>