<svg id="Shadow" xmlns="http://www.w3.org/2000/svg" viewBox="0 0 1792 768"><defs><style>.cls-1,.cls-10,.cls-5,.cls-7{fill:#24265b;}.cls-1{opacity:0.1;}.cls-2{fill:#eeb9a9;}.cls-10,.cls-11,.cls-2,.cls-3,.cls-4,.cls-5,.cls-6,.cls-8,.cls-9{stroke:#24265b;stroke-linecap:round;stroke-linejoin:round;}.cls-10,.cls-2,.cls-3,.cls-4,.cls-5,.cls-8,.cls-9{stroke-width:3px;}.cls-3{fill:none;}.cls-4{fill:#d6cf90;}.cls-11,.cls-6,.cls-9{fill:#fff;}.cls-6{stroke-width:2.55px;}.cls-8{fill:#cc29cc;}.cls-10{opacity:0.2;}.cls-11{stroke-width:1.5px;}</style></defs><title>topic</title><path class="cls-1" d="M867,665c-14.84,0-178.68,12.77-178.68,26.35s61.23,34,98.35,34,64.22-12.66,84-12.66,84.07,18.5,107.36,18.5,37.87-25.8,48.53-23.91,117.49,22,117.49,6.38-74.25-18.63-84.72-23.37-2.87-6.29-10.22-12.4-39.79-11-53.61-11-77.83,12.25-90.73,12.25S881.88,665,867,665Z"/><path class="cls-1" d="M1205.07,578.28c6.29,14.29-25.68,28.28-77.64,28.28S1028,595.48,1016.9,578.28c-8.47-13.12,29-28.28,81-28.28S1198,562.22,1205.07,578.28Z"/><path class="cls-2" d="M976,418.49c-7.53-70.4-7.53-97.42-6.16-130.23,1.41,6.14,18.84,7.93,20.38-4.52s-2.84-99.56-20-112.6c-8.88-6.75-37-8.65-40.65-19.32a40.86,40.86,0,0,1-1.34-5.36,32.42,32.42,0,0,1-10.13,1.33c-7.17,0-21.4-8.49-27.42-14.87v1.88c0,15-11.79,25-25.06,28.49-15.57,4.12-28.35,13.32-33.49,28.87s-19.81,73.1-19.81,113.53c0,10.41,29.34,11.88,28.84-2.79-0.32-9.24,13.63-40.08,18.21-56.13,3.56,28.44,19.6,50.05,9.36,109.51C861.35,399.22,979,446.95,976,418.49Z"/><path class="cls-3" d="M922.51,183.19c4.68,1,7.88,7.09,4.76,11.15-1.87,2.44-5.95,1.88-7.19,1.43s-3.07-.72-3.56-2.89c-0.58-2.58,2.12-3.86,3.5-2.61s0.81,3.67.06,5.51a7.35,7.35,0,0,1-7.46,4c-4.29-.42-5.9-4.9-4.33-9.53"/><polygon class="cls-4" points="1167.14 591.48 1154.77 591.48 1149.25 437.1 1167.14 437.1 1167.14 591.48"/><polygon class="cls-4" points="1075.75 595.48 1088.11 595.48 1093.64 441.1 1075.75 441.1 1075.75 595.48"/><polygon class="cls-4" points="1134.11 562.22 1124.21 562.22 1119.79 438.66 1134.11 438.66 1134.11 562.22"/><polygon class="cls-4" points="1056.16 564.66 1066.06 564.66 1070.48 441.1 1056.16 441.1 1056.16 564.66"/><path class="cls-4" d="M1133.14,418.07a221.95,221.95,0,0,0-44.3,0h-44.62V436.6c0,10.85,29.89,19.64,66.77,19.64s66.77-8.79,66.77-19.64V418.07h-44.62Z"/><path class="cls-5" d="M966.42,654.13s7.68-79.68,10.12-117.66c0.69-10.78,3.95-89.52.9-118-1.52-14.21-2.73-26.65-3.69-37.73-5.2,8.22-84.49,12.84-106.21.43-1.13,28.86,4.87,47.34,4.32,50.31-0.68,3.76-5.72,57.71-7.44,120.61-0.89,32.36,4.45,103.46,4.06,105.75l12.07,0.28c1.8-20,7.09-66.93,11.32-105.11,4.64-41.82,26.61-111.68,28.12-117.46a78.68,78.68,0,0,1,8.92-1.43c1.25,4.65,10,46.83,16.12,93.68s9.44,128.11,9.44,128.11l7,0.36Z"/><path class="cls-6" d="M990.5,652.62c-10.44-1.74-26.74,3.78-26.74,3.78-3.92.8-13.62-2-14.26,1.76S953,667,953,667l29,10.54,20.31-9.08S1000.94,654.37,990.5,652.62Z"/><path class="cls-7" d="M951.54,664.91c-2.68,2.32,4.64,9.29,29.92,14.38,11.78,2.37,25.49-12.06,20.11-14.65-0.41,3.66-2-3-5.17-4.13s-9.47,2-8.47,5.31,0.29,7.82-4,7.91S952.18,668.65,951.54,664.91Z"/><path class="cls-7" d="M954.7,660.51s1,6.88,5.19,5.52c7.38-2.37,19.32,3.87,19.32,3.87s-13.13-9.43-17.44-7.94A6.84,6.84,0,0,1,954.7,660.51Z"/><path class="cls-7" d="M959.88,658.41a0.22,0.22,0,0,1,0-.1l0-.3a3.63,3.63,0,0,1,.28-0.91,4.36,4.36,0,0,1,.74-1.09,5,5,0,0,1,1.17-.93,6.25,6.25,0,0,1,.67-0.32,4.58,4.58,0,0,1,.68-0.2,3.86,3.86,0,0,1,1.23,0,3,3,0,0,1,.85.22,2,2,0,0,1,.31.15,1,1,0,0,1,.33,1.44l-0.11.14-0.1.11a2.34,2.34,0,0,1-.23.21c-0.14.13-.35,0.25-0.57,0.41s-0.24.14-.36,0.22a2.56,2.56,0,0,1-.38.21c-0.26.14-.53,0.25-0.79,0.37l-0.77.36c-0.26.11-.48,0.24-0.69,0.34l-0.53.27a0.44,0.44,0,0,1-.15.06,0.08,0.08,0,0,0-.05,0,0.78,0.78,0,0,1-1.26-.11Z"/><path class="cls-7" d="M963.55,657.53a0.22,0.22,0,0,1,0-.1l0-.3a3.63,3.63,0,0,1,.28-0.91,4.37,4.37,0,0,1,.74-1.09,5,5,0,0,1,1.17-.93,6.26,6.26,0,0,1,.67-0.32,4.57,4.57,0,0,1,.68-0.2,3.86,3.86,0,0,1,1.23,0,3,3,0,0,1,.85.22,2,2,0,0,1,.31.15,1,1,0,0,1,.33,1.44l-0.11.14-0.1.11a2.37,2.37,0,0,1-.23.21c-0.14.13-.35,0.25-0.57,0.41s-0.24.14-.36,0.22a2.56,2.56,0,0,1-.38.21c-0.26.14-.53,0.25-0.79,0.37l-0.77.36c-0.26.11-.48,0.24-0.69,0.34l-0.53.27a0.44,0.44,0,0,1-.15.06,0.08,0.08,0,0,0-.05,0,0.78,0.78,0,0,1-1.26-.11Z"/><path class="cls-7" d="M972.1,657.88a2.33,2.33,0,0,1-.14-0.36,3.92,3.92,0,0,1-.18-0.94,4.47,4.47,0,0,1,.14-1.38,4.29,4.29,0,0,1,.77-1.53,3.73,3.73,0,0,1,.64-0.65,3.47,3.47,0,0,1,.74-0.48,3.38,3.38,0,0,1,.76-0.26,2.76,2.76,0,0,1,.69-0.08,2.16,2.16,0,0,1,.56,0,3.35,3.35,0,0,1,.42.11,2.14,2.14,0,0,1,.35.14,1,1,0,0,1,.27,1.52l-0.15.18a2.69,2.69,0,0,1-.22.22c-0.13.13-.33,0.26-0.51,0.43a2.7,2.7,0,0,0-.28.24c-0.08.1-.19,0.15-0.26,0.24s-0.17.14-.24,0.23a2.29,2.29,0,0,0-.24.23,4.65,4.65,0,0,0-.49.57c-0.16.22-.31,0.46-0.45,0.68l-0.34.57a1.63,1.63,0,0,0-.14.22A0.85,0.85,0,0,1,972.1,657.88Z"/><path class="cls-7" d="M968.74,658a2.28,2.28,0,0,1-.14-0.36,3.92,3.92,0,0,1-.18-0.94,4.46,4.46,0,0,1,.14-1.38,4.29,4.29,0,0,1,.77-1.53,3.74,3.74,0,0,1,.64-0.65,3.48,3.48,0,0,1,.74-0.48,3.38,3.38,0,0,1,.76-0.26,2.75,2.75,0,0,1,.68-0.08,2.16,2.16,0,0,1,.56,0,3.34,3.34,0,0,1,.42.11,2.14,2.14,0,0,1,.35.14,1,1,0,0,1,.4,1.34,1,1,0,0,1-.12.18l-0.15.18a2.71,2.71,0,0,1-.22.22c-0.13.13-.33,0.26-0.51,0.43a2.7,2.7,0,0,0-.28.24c-0.08.1-.19,0.15-0.26,0.24s-0.17.14-.24,0.23a2.31,2.31,0,0,0-.24.23,4.67,4.67,0,0,0-.49.57c-0.16.22-.31,0.46-0.45,0.68l-0.34.57a1.67,1.67,0,0,0-.14.22A0.85,0.85,0,1,1,968.74,658Z"/><path class="cls-8" d="M811,259.56c0,8.06,28.33,14.1,45.54,14.1,0.15,15.07.19,42.5,0.77,63.39,0.61,22-3.19,37.5-.77,55.26,3.34,24.55,130.13,18.68,127.57,4.6s-12.88-97.51-12.88-110.14c0-5.15,1.22-21.47,1.22-21.47s26.29-4.93,26.29-14.92c0-25.15-8.23-42.51-14.83-68-3.83-14.79-26.95-19.18-41.41-23.78-2.07-2.59-8.65-5.34-10-4.13,14.63,20.25,6.89,38.25-3.75,47.5-36.24-6.64-48.74-34-44-48.77-0.71-2.26-7.21.07-8.19,2.2-17.21,2.84-43.49,11.5-48.09,30.37C821.23,215.43,812.82,230.54,811,259.56Z"/><path class="cls-3" d="M969.13,207.64s5.11,32.67,3.35,57.64"/><path class="cls-3" d="M867.57,219.58c-0.71,18.27-6.12,34.86-6.76,47.8-0.23,4.68-1.54,6.27-5,6.27"/><path class="cls-3" d="M876.56,155.39c-5.9,35.66,39.46,53.44,54.34,55.81,11.22-11.14,24.38-26.55,11.64-52.61"/><path class="cls-3" d="M860.82,265.28c-3.2,4.23-50.3-4.31-49.21-12.57"/><path class="cls-3" d="M973.2,259.56c8.15,0,25.57-9.19,25.57-12.94"/><path class="cls-3" d="M855.84,384c5,28.44,127.42,20.27,127.42,6.63"/><ellipse class="cls-4" cx="1110.99" cy="418.07" rx="66.77" ry="19.64"/><polygon class="cls-4" points="1146.57 413.34 1117.65 365.84 1110.99 413.34 1146.57 413.34"/><polygon class="cls-4" points="1137.88 424.74 1072.75 417.89 1081.44 329.93 1146.57 336.77 1137.88 424.74"/><polygon class="cls-9" points="1131.1 413.34 1081.63 408.14 1088.22 341.33 1137.69 346.53 1131.1 413.34"/><polygon class="cls-10" points="1131.1 413.34 1081.63 408.14 1088.22 341.33 1137.69 346.53 1131.1 413.34"/><path class="cls-5" d="M1090.23,409s1.1-12.85,1.82-15.49a42.4,42.4,0,0,0,9.13,1.15c0.89,1.83-1.9,13.07-2,15.28l-1.74-.18-0.69-8.69h-3.15l-1.59,8Z"/><path class="cls-8" d="M1119.79,375c0,0.37-14.87,4.69-15,5.69-0.39,4.43-1.53,13.57-2.59,14.63-1.3,1.3-11.26.12-11.61-1.82-0.71-4-.37-12.9.34-16.22,0.83-3.87,2.87-5.9,6.83-5.9,1.67,0,2.9,1.76,4.44,1.54C1105,372.56,1119.79,372.76,1119.79,375Z"/><path class="cls-5" d="M1121.42,411.82s1.54-12.8,1.38-15.54a42.4,42.4,0,0,1-9.17-.73c-1.24,1.61-.81,13.18-1.2,15.36l1.74,0.18,2.45-8.37,3.08,0.64-0.07,8.13Z"/><path class="cls-4" d="M1104.83,380.74c-0.05.26,7.9,1.84,7.77,3.26-0.44,4.68-.81,11-0.15,12,1,1.53,11,2.42,11.74.58,1.5-3.73,3-12.55,3-15.95,0-4-1.61-6.36-5.49-7.17-2.79-.58-5.71,4.07-8.37,3.88C1110.85,377.16,1105.06,379.65,1104.83,380.74Z"/><polygon class="cls-5" points="1128.24 366.69 1129.14 373.41 1125.25 375.23 1128.24 366.69"/><circle class="cls-2" cx="1099.22" cy="365.8" r="7.17"/><circle class="cls-2" cx="1121.5" cy="369.12" r="7.17"/><polygon class="cls-5" points="1127.43 365.09 1120.49 358.63 1120.49 360.65 1114.33 359.94 1116.43 363.34 1127.43 365.09"/><line class="cls-4" x1="1093.64" y1="395.21" x2="1093.64" y2="381.45"/><line class="cls-4" x1="1121.21" y1="396.98" x2="1122.92" y2="385.36"/><ellipse class="cls-7" cx="1098.33" cy="365.09" rx="1.07" ry="1.6"/><ellipse class="cls-7" cx="1101.89" cy="365.09" rx="1.07" ry="1.6"/><ellipse class="cls-7" cx="1118.73" cy="367.08" rx="1.6" ry="1.07" transform="translate(530.85 1387.23) rotate(-78.21)"/><ellipse class="cls-7" cx="1122.21" cy="367.81" rx="1.6" ry="1.07" transform="matrix(0.2, -0.98, 0.98, 0.2, 532.9, 1391.21)"/><polygon class="cls-11" points="1117.06 370.25 1123.93 371.43 1121.21 373.41 1117.06 370.25"/><polygon class="cls-11" points="1102.91 368.81 1095.94 368.95 1098.33 371.31 1102.91 368.81"/><ellipse class="cls-5" cx="1099.87" cy="358.96" rx="2.01" ry="1.69"/><polygon class="cls-5" points="1095.79 359.5 1094.89 363.49 1092.05 365.09 1092.76 359.5 1095.79 359.5"/><path class="cls-6" d="M855.47,658.7c-13.5-.44-18.05,14.81-18.05,14.81s15,12.55,25.17,12.55,21.91-10.92,22.18-15.49-4.27-10.85-9.46-11.9S866.17,659.05,855.47,658.7Z"/><path class="cls-7" d="M884.76,670.58c2.4,4.18-11.8,15.49-22.18,15.49s-27.72-4.14-26.93-12.27c0.21-2.11.55-5.18,4.92-6.28-1.15,2.53.62,3.87,1.54,1.24,1.42-4.06,14.71-3,15.07,1.94,0.18,2.58,1.51,7.55,9.68,7.39S883.61,674.82,884.76,670.58Z"/><path class="cls-7" d="M866.86,673.51s4.24-6.46,7-6.27,2.56-3.79,2.56-3.79,4,7.44,0,7.2S866.86,673.51,866.86,673.51Z"/><path class="cls-7" d="M864.28,657.3a0.31,0.31,0,0,1,.1-0.06l0.3-.16a4.36,4.36,0,0,1,1-.34,5.27,5.27,0,0,1,1.52-.06,6.08,6.08,0,0,1,1.67.43,7.77,7.77,0,0,1,.77.39,5.86,5.86,0,0,1,.67.48,4.9,4.9,0,0,1,1,1.07,3.71,3.71,0,0,1,.45.91,2.6,2.6,0,0,1,.11.38,1,1,0,0,1-1.14,1.15l-0.12,0a2.8,2.8,0,0,1-.34-0.09c-0.21-.06-0.47-0.19-0.78-0.3-0.16-.06-0.3-0.14-0.46-0.22a3.89,3.89,0,0,1-.49-0.24c-0.33-.16-0.65-0.35-1-0.52s-0.66-.33-1-0.46-0.63-.26-0.9-0.37L865,659,864.8,659a0.13,0.13,0,0,0-.07,0,0.83,0.83,0,0,1-.68-1.27Z"/><path class="cls-7" d="M857.74,657.57l0.11,0,0.34,0a4.36,4.36,0,0,1,1.09,0,5.27,5.27,0,0,1,1.44.48,6.09,6.09,0,0,1,1.41,1,7.79,7.79,0,0,1,.58.64,5.85,5.85,0,0,1,.46.68,4.9,4.9,0,0,1,.52,1.34,3.7,3.7,0,0,1,.1,1,2.59,2.59,0,0,1,0,.39,1,1,0,0,1-1.48.68l-0.11-.06a2.82,2.82,0,0,1-.29-0.21c-0.18-.13-0.37-0.34-0.63-0.56s-0.23-.24-0.36-0.37a3.89,3.89,0,0,1-.37-0.39c-0.25-.27-0.49-0.56-0.74-0.83s-0.5-.54-0.75-0.78-0.5-.46-0.72-0.66l-0.56-.47a0.77,0.77,0,0,1-.14-0.13,0.13,0.13,0,0,0-.06,0,0.83,0.83,0,0,1-.19-1.43Z"/><path class="cls-7" d="M866.7,662.89l-0.29-.21c-0.17-.12-0.42-0.39-0.67-0.55l-0.81-.65-0.9-.68c-0.61-.42-1.18-0.81-1.65-1.16-0.23-.18-0.44-0.32-0.59-0.45a0.5,0.5,0,0,1-.19-0.19,0.85,0.85,0,0,1-.08-1.69s0.19-.09.46-0.17a3.62,3.62,0,0,1,1.11-.13,4.52,4.52,0,0,1,.73.09,4,4,0,0,1,.78.23,5.52,5.52,0,0,1,1.48.9,6.73,6.73,0,0,1,1.13,1.25l0.39,0.65c0.11,0.22.2,0.45,0.29,0.64a3.65,3.65,0,0,1,.24.92c0,0.22,0,.36,0,0.36A0.94,0.94,0,0,1,866.7,662.89Z"/></svg>