<svg id="Shadow" xmlns="http://www.w3.org/2000/svg" viewBox="0 0 1792 768"><defs><style>.cls-1,.cls-5,.cls-9{fill:#24265b;}.cls-1{opacity:0.1;}.cls-2{fill:#eeb9a9;}.cls-10,.cls-2,.cls-3,.cls-4,.cls-5,.cls-6,.cls-7,.cls-8{stroke:#24265b;stroke-linecap:round;stroke-linejoin:round;}.cls-10,.cls-2,.cls-3,.cls-4,.cls-5,.cls-6,.cls-7{stroke-width:3px;}.cls-3{fill:#80c779;}.cls-4{fill:#cc2929;}.cls-6,.cls-8{fill:#fff;}.cls-7{fill:#6a29cc;}.cls-8{stroke-width:2.55px;}.cls-10{fill:none;}</style></defs><title>topic</title><path class="cls-1" d="M867,665c-14.84,0-178.68,12.77-178.68,26.35s61.23,34,98.35,34,64.22-12.66,84-12.66,84.07,18.5,107.36,18.5,37.87-25.8,48.53-23.91,117.49,22,117.49,6.38-74.25-18.63-84.72-23.37-2.87-6.29-10.22-12.4-39.79-11-53.61-11-77.83,12.25-90.73,12.25S881.88,665,867,665Z"/><path class="cls-2" d="M976,418.49c-7.53-70.4-7.53-97.42-6.16-130.23,1.41,6.14,18.84,7.93,20.38-4.52s-2.84-99.56-20-112.6c-8.88-6.75-37-8.65-40.65-19.32a40.86,40.86,0,0,1-1.34-5.36,32.42,32.42,0,0,1-10.13,1.33c-7.17,0-21.4-8.49-27.42-14.87v1.88c0,15-11.79,25-25.06,28.49-15.57,4.12-28.35,13.32-33.49,28.87s-19.81,73.1-19.81,113.53c0,10.41,29.34,11.88,28.84-2.79-0.32-9.24,13.63-40.08,18.21-56.13,3.56,28.44,19.6,50.05,9.36,109.51C861.35,399.22,979,446.95,976,418.49Z"/><path class="cls-3" d="M874.1,136.94s-10.79,10.18-12.85,17.57c8.79-1.86,30.13-9.28,20-18.67C872.32,127.55,874.1,136.94,874.1,136.94Z"/><path class="cls-4" d="M839.29,140.74c-1.42,2.31-1.24,9.07,1.24,10s10,2.13,12.8,0-7.47-10-7.47-10h-6.58Z"/><path class="cls-4" d="M856.53,119.92s-10.13-4.16-13-3.14-6.58,9.72-8.36,12-2,5.5,0,7,17.6,5.51,19.73,2.63S856.53,119.92,856.53,119.92Z"/><path class="cls-5" d="M965,654.13s7.68-79.68,10.12-117.66c0.69-10.78,3.95-89.52.9-118-1.52-14.21-2.73-26.65-3.69-37.73-5.2,8.22-84.49,12.84-106.21.43C865,410,871,428.52,870.43,431.49c-0.68,3.76-5.72,57.71-7.44,120.61-0.89,32.36,4.45,103.46,4.06,105.75l12.07,0.28c1.8-20,7.09-66.93,11.32-105.11,4.64-41.82,26.61-111.68,28.12-117.46a78.68,78.68,0,0,1,8.92-1.43c1.25,4.65,10,46.83,16.12,93.68S953,655.92,953,655.92l7,0.36Z"/><path class="cls-6" d="M810.31,260.84c0,8.06,27.23,14.22,44.44,14.22,0,10.41,2,40.23,5.51,60.82,3.47,20.18-3.73,37.07,5.84,45.3,16,14.91,97.81,11.22,106.21-.43,7.25-5.07-2.54-84.29-2.54-91.1,0-5.15,1-15.53,1-15.53S997,269.2,997,259.21c0-25.15-7.94-51.35-14.53-76.84-3.83-14.79-26-19.86-41.41-23.78-2.43-.62-5.35-1.17-8.6-1.65,0,6.06-2.41,31.87-13.74,31.87s-30.24-26.11-30.24-34.31a128.61,128.61,0,0,0-13.39.88c-15.21,2-42.13,15.13-46.73,34C821.15,219.06,812.09,231.83,810.31,260.84Z"/><path class="cls-7" d="M911.41,184.89c2.93-3.16,13-3.77,15.33-1.05,1.55,1.83,2.46,11.25.67,14.56s-8.52,5-11.56,3.08C912.12,199.18,908.48,188.05,911.41,184.89Z"/><path class="cls-8" d="M989.06,652.62c-10.44-1.74-26.74,3.78-26.74,3.78-3.92.8-13.62-2-14.26,1.76s3.49,8.84,3.49,8.84l29,10.54,20.31-9.08S999.5,654.37,989.06,652.62Z"/><path class="cls-9" d="M950.1,664.91c-2.68,2.32,4.64,9.29,29.92,14.38,11.78,2.37,25.49-12.06,20.11-14.65-0.41,3.66-2-3-5.17-4.13s-9.47,2-8.47,5.31,0.29,7.82-4,7.91S950.74,668.65,950.1,664.91Z"/><path class="cls-9" d="M953.26,660.51s1,6.88,5.19,5.52c7.38-2.37,19.32,3.87,19.32,3.87s-13.13-9.43-17.44-7.94A6.84,6.84,0,0,1,953.26,660.51Z"/><path class="cls-9" d="M958.44,658.41a0.22,0.22,0,0,1,0-.1l0-.3a3.63,3.63,0,0,1,.28-0.91,4.37,4.37,0,0,1,.74-1.09,5,5,0,0,1,1.17-.93,6.25,6.25,0,0,1,.67-0.32,4.56,4.56,0,0,1,.68-0.2,3.86,3.86,0,0,1,1.23,0,3,3,0,0,1,.85.22,2,2,0,0,1,.31.15,1,1,0,0,1,.33,1.44l-0.11.14-0.1.11a2.34,2.34,0,0,1-.23.21c-0.14.13-.35,0.25-0.57,0.41s-0.24.14-.36,0.22a2.55,2.55,0,0,1-.38.21c-0.26.14-.53,0.25-0.79,0.37l-0.77.36c-0.26.11-.48,0.24-0.69,0.34l-0.53.27a0.44,0.44,0,0,1-.15.06,0.08,0.08,0,0,0-.05,0,0.78,0.78,0,0,1-1.26-.11Z"/><path class="cls-9" d="M962.11,657.53a0.22,0.22,0,0,1,0-.1l0-.3a3.61,3.61,0,0,1,.28-0.91,4.38,4.38,0,0,1,.74-1.09,5,5,0,0,1,1.17-.93,6.26,6.26,0,0,1,.67-0.32,4.57,4.57,0,0,1,.68-0.2,3.86,3.86,0,0,1,1.23,0,3,3,0,0,1,.85.22,2.05,2.05,0,0,1,.31.15,1,1,0,0,1,.33,1.44l-0.11.14-0.1.11a2.38,2.38,0,0,1-.23.21c-0.14.13-.35,0.25-0.57,0.41s-0.24.14-.36,0.22a2.55,2.55,0,0,1-.38.21c-0.26.14-.53,0.25-0.79,0.37l-0.77.36c-0.26.11-.48,0.24-0.69,0.34l-0.53.27a0.44,0.44,0,0,1-.15.06,0.08,0.08,0,0,0-.05,0,0.78,0.78,0,0,1-1.26-.11Z"/><path class="cls-9" d="M970.65,657.88a2.29,2.29,0,0,1-.14-0.36,3.92,3.92,0,0,1-.18-0.94,4.47,4.47,0,0,1,.14-1.38,4.29,4.29,0,0,1,.77-1.53,3.74,3.74,0,0,1,.64-0.65,3.48,3.48,0,0,1,.74-0.48,3.38,3.38,0,0,1,.76-0.26,2.75,2.75,0,0,1,.68-0.08,2.16,2.16,0,0,1,.56,0,3.35,3.35,0,0,1,.42.11,2.13,2.13,0,0,1,.35.14,1,1,0,0,1,.27,1.52l-0.15.18a2.7,2.7,0,0,1-.22.22c-0.13.13-.33,0.26-0.51,0.43a2.68,2.68,0,0,0-.28.24c-0.08.1-.19,0.15-0.26,0.24s-0.17.14-.24,0.23a2.31,2.31,0,0,0-.24.23,4.69,4.69,0,0,0-.49.57c-0.16.22-.31,0.46-0.45,0.68l-0.34.57a1.64,1.64,0,0,0-.14.22A0.85,0.85,0,0,1,970.65,657.88Z"/><path class="cls-9" d="M967.3,658a2.26,2.26,0,0,1-.14-0.36,3.92,3.92,0,0,1-.18-0.94,4.47,4.47,0,0,1,.14-1.38,4.29,4.29,0,0,1,.77-1.53,3.74,3.74,0,0,1,.64-0.65,3.48,3.48,0,0,1,.74-0.48,3.38,3.38,0,0,1,.76-0.26,2.75,2.75,0,0,1,.69-0.08,2.16,2.16,0,0,1,.56,0,3.31,3.31,0,0,1,.42.11,2.13,2.13,0,0,1,.35.14,1,1,0,0,1,.4,1.34,1,1,0,0,1-.12.18l-0.15.18a2.73,2.73,0,0,1-.22.22c-0.13.13-.33,0.26-0.51,0.43a2.67,2.67,0,0,0-.28.24c-0.08.1-.19,0.15-0.26,0.24s-0.17.14-.24,0.23a2.31,2.31,0,0,0-.24.23,4.65,4.65,0,0,0-.49.57c-0.16.22-.31,0.46-0.45,0.68l-0.34.57a1.65,1.65,0,0,0-.14.22A0.85,0.85,0,0,1,967.3,658Z"/><path class="cls-10" d="M965.33,216s7.17,33.15,5.42,58.11"/><path class="cls-10" d="M866.13,231.38c-4.5,25.09-5.16,28.37-5.69,36-0.33,4.67-2.25,7.69-5.69,7.69"/><path class="cls-10" d="M937.6,388.84c10.62-7.47,2-42.63-2-81.36"/><path class="cls-6" d="M920.16,180.62c3.16-3.58,12.58-23.57,8.08-34.15,5.05,0.9,7.35,10.72,8.49,21.29,1.11,10.25-7.06,24.88-8.49,21C926.3,183.47,920.16,180.62,920.16,180.62Z"/><path class="cls-6" d="M910.52,191.51a31.13,31.13,0,0,1,9.63-10.89s-32.21-13.55-30-40.66c-2.85-.46-6.23,8.83-7.61,12.93C875.73,173.39,908.17,195.81,910.52,191.51Z"/><path class="cls-7" d="M916.46,201.32c0.64-2.55,9.57-4,11-2.2,5.85,7.67,20.77,83.41,23.21,128.56,0.21,3.91-5.7,20.27-10.8,20.27s-15.13-12.42-15.13-18C924.73,257.29,915.28,206.06,916.46,201.32Z"/><path class="cls-3" d="M867.87,132s103.47-1.31,110.07-.63,0.9,5.1-.87,4.49-65.85-1.26-76.16,0-33,1.11-33,1.11S863.26,133.77,867.87,132Z"/><path class="cls-4" d="M878,135.14c0,9.09-10.86,16.45-21.24,16.45-5.68,0-15-1.78-15-6.56-3.24-2.91-5.68-5.89-3.78-9.89-4.92-4.63,8.33-17.64,18.72-17.64S878,126.05,878,135.14Z"/><path class="cls-4" d="M865.92,121.39c-2.07-.88-0.32-4.8-3.35-4.6-4.64.3-1.73,7.66-2.21,12-0.53,4.81,2.82,1.88,3.63,8.14,1,7.82-8,11.36-9.42,14.63-1.24,2.92-5.52,1.66-4.45-1.07s10.23-5.52,12.8-8"/><path class="cls-10" d="M864,137.72a68.87,68.87,0,0,0,.89-8.9c0.2-3.67-3.73-4.61-4.52-8.9"/><path class="cls-4" d="M844.62,135.84c2-.43,4.27-0.61,2.84,1.88s-5.51,1.86-5.69-.76a5.24,5.24,0,0,1,5.14-5.8c3.75-.2,6.42,1.11,6.42,3.39s-1.07,8.68-4.27,9.75-4.83,2.35-7.3.73"/><path class="cls-4" d="M860.37,127.58s-13.08-6.22-19.83-1.6C847.21,120.07,855,118.34,860.37,127.58Z"/><path class="cls-10" d="M854.93,146.5s5.87-9.92.89-19.81"/><path class="cls-10" d="M859.56,144.66a27,27,0,0,0,1.41-12.9"/><path class="cls-10" d="M847.47,137.72s3,5.33-8.66,4.17"/><path class="cls-10" d="M845.63,131.35s1.65-6.2,7.25-6.32"/><path class="cls-10" d="M848,144.66s2.55,2.08,8.46-1.72"/><path class="cls-3" d="M949.69,130.5s2.31-4,4.44-3.81c-0.53,4.49-.53,3.14,0,3.81S950.58,132.72,949.69,130.5Z"/><path class="cls-3" d="M959.34,135.64s2.33,4,4.46,3.79c-0.55-4.48-.55-3.14,0-3.81S960.22,133.42,959.34,135.64Z"/><path class="cls-3" d="M888.21,136.4s2.33,4,4.46,3.79c-0.55-4.48-.55-3.14,0-3.81S889.09,134.18,888.21,136.4Z"/><path class="cls-8" d="M855.47,658.7c-13.5-.44-18.05,14.81-18.05,14.81s15,12.55,25.17,12.55,21.91-10.92,22.18-15.49-4.27-10.85-9.46-11.9S866.17,659.05,855.47,658.7Z"/><path class="cls-9" d="M884.76,670.58c2.4,4.18-11.8,15.49-22.18,15.49s-27.72-4.14-26.93-12.27c0.21-2.11.55-5.18,4.92-6.28-1.15,2.53.62,3.87,1.54,1.24,1.42-4.06,14.71-3,15.07,1.94,0.18,2.58,1.51,7.55,9.68,7.39S883.61,674.82,884.76,670.58Z"/><path class="cls-9" d="M866.86,673.51s4.24-6.46,7-6.27,2.56-3.79,2.56-3.79,4,7.44,0,7.2S866.86,673.51,866.86,673.51Z"/><path class="cls-9" d="M864.28,657.3a0.3,0.3,0,0,1,.1-0.06l0.3-.16a4.36,4.36,0,0,1,1-.34,5.27,5.27,0,0,1,1.52-.06,6.09,6.09,0,0,1,1.67.43,7.76,7.76,0,0,1,.77.39,5.82,5.82,0,0,1,.67.48,4.88,4.88,0,0,1,1,1.07,3.69,3.69,0,0,1,.45.91,2.52,2.52,0,0,1,.11.38,1,1,0,0,1-1.14,1.15l-0.12,0a2.81,2.81,0,0,1-.34-0.09c-0.21-.06-0.47-0.19-0.78-0.3-0.16-.06-0.3-0.14-0.46-0.22a3.87,3.87,0,0,1-.49-0.24c-0.33-.16-0.65-0.35-1-0.52s-0.66-.33-1-0.46-0.63-.26-0.9-0.37L865,659l-0.18-.07a0.13,0.13,0,0,0-.07,0,0.83,0.83,0,0,1-.68-1.27Z"/><path class="cls-9" d="M857.74,657.57l0.11,0,0.34,0a4.36,4.36,0,0,1,1.09,0,5.27,5.27,0,0,1,1.44.48,6.08,6.08,0,0,1,1.41,1,7.71,7.71,0,0,1,.58.64,5.88,5.88,0,0,1,.46.68,4.9,4.9,0,0,1,.52,1.34,3.7,3.7,0,0,1,.1,1,2.58,2.58,0,0,1,0,.39,1,1,0,0,1-1.48.68l-0.11-.06a2.85,2.85,0,0,1-.29-0.21c-0.18-.13-0.37-0.34-0.62-0.56s-0.23-.24-0.36-0.37a3.89,3.89,0,0,1-.37-0.39c-0.25-.27-0.49-0.56-0.74-0.83s-0.5-.54-0.75-0.78-0.5-.46-0.72-0.66l-0.56-.47a0.78,0.78,0,0,1-.14-0.13,0.13,0.13,0,0,0-.06,0,0.83,0.83,0,0,1-.19-1.43Z"/><path class="cls-9" d="M866.7,662.89l-0.29-.21c-0.17-.12-0.42-0.39-0.67-0.55l-0.81-.65-0.9-.68c-0.61-.42-1.18-0.81-1.65-1.16-0.23-.18-0.44-0.32-0.59-0.45a0.49,0.49,0,0,1-.19-0.19,0.85,0.85,0,0,1-.08-1.69s0.19-.09.46-0.17a3.62,3.62,0,0,1,1.11-.13,4.52,4.52,0,0,1,.73.09,4,4,0,0,1,.78.23,5.52,5.52,0,0,1,1.48.9,6.74,6.74,0,0,1,1.13,1.25l0.39,0.65c0.11,0.22.2,0.45,0.29,0.64a3.64,3.64,0,0,1,.24.92c0,0.22,0,.36,0,0.36A0.94,0.94,0,0,1,866.7,662.89Z"/></svg>