<svg id="Shadow" xmlns="http://www.w3.org/2000/svg" viewBox="0 0 1792 768"><defs><style>.cls-1,.cls-4,.cls-6,.cls-8{fill:#24265b;}.cls-1{opacity:0.1;}.cls-2{fill:#eeb9a9;}.cls-2,.cls-3,.cls-4,.cls-6,.cls-7,.cls-9{stroke:#24265b;stroke-linecap:round;stroke-linejoin:round;}.cls-2,.cls-3,.cls-6,.cls-9{stroke-width:3px;}.cls-3{fill:none;}.cls-4{stroke-width:9px;}.cls-5{fill:#d6cf90;}.cls-7{fill:#fff;stroke-width:2.55px;}.cls-9{fill:#cc8a29;}</style></defs><title>topic</title><path class="cls-1" d="M867,665c-14.84,0-178.68,12.77-178.68,26.35s61.23,34,98.35,34,64.22-12.66,84-12.66,84.07,18.5,107.36,18.5,37.87-25.8,48.53-23.91,117.49,22,117.49,6.38-74.25-18.63-84.72-23.37-2.87-6.29-10.22-12.4-61.83-15.46-75.65-15.46-55.79,16.73-68.69,16.73S881.88,665,867,665Z"/><path class="cls-2" d="M976,418.49c-7.53-70.4-7.53-97.42-6.16-130.23,1.41,6.14,18.84,7.93,20.38-4.52s-2.84-99.56-20-112.6c-8.88-6.75-37-8.65-40.65-19.32a40.86,40.86,0,0,1-1.34-5.36,32.42,32.42,0,0,1-10.13,1.33c-7.17,0-21.4-8.49-27.42-14.87v1.88c0,15-11.79,25-25.06,28.49-15.57,4.12-28.35,13.32-33.49,28.87s-19.81,73.1-19.81,113.53c0,10.41,29.34,11.88,28.84-2.79-0.32-9.24,13.63-40.08,18.21-56.13,3.56,28.44,19.6,50.05,9.36,109.51C861.35,399.22,979,446.95,976,418.49Z"/><path class="cls-3" d="M922.51,183.19c4.68,1,7.88,7.09,4.76,11.15-1.87,2.44-5.95,1.88-7.19,1.43s-3.07-.72-3.56-2.89c-0.58-2.58,2.12-3.86,3.5-2.61s0.81,3.67.06,5.51a7.35,7.35,0,0,1-7.46,4c-4.29-.42-5.9-4.9-4.33-9.53"/><path class="cls-4" d="M569.2,61.79c0-2.66,2.56-6,7.53-6a21.33,21.33,0,0,1,3.87.72,11.42,11.42,0,0,1,1.25-.36c0.87,0,2.82,2,2.82,4.12A1.62,1.62,0,0,1,583.15,62c-1.72,0-2.71-2.92-5.38-2.92a1.41,1.41,0,0,0-1.64,1.28c0,2,3.51,1.48,6.48,3.46A4.71,4.71,0,0,1,585,68.11c0,3-2.46,6.37-8.42,6.37a15.54,15.54,0,0,1-6-1.23c-1.23-.69-1.82-3.4-1.82-4.71a1.18,1.18,0,0,1,1.08-1.38c1.82,0,1.51,4.07,6.22,4.07,0.56,0,2-.28,2-1.25,0-1.84-3.51-1.38-6.35-3.66A5.88,5.88,0,0,1,569.2,61.79Z"/><path class="cls-4" d="M593.83,68.59c0,1.72.72,2.13,1.41,2.13s1.25-.59,1.71-0.59a1.17,1.17,0,0,1,.87,1.18c0,1.69-2.92,3.17-5.5,3.17a4.32,4.32,0,0,1-4.58-4.63V64.58a0.84,0.84,0,0,0-.13-0.72,3.36,3.36,0,0,0-1,0,2.17,2.17,0,0,1-1.13-.1,1.48,1.48,0,0,1-.13-1,0.82,0.82,0,0,1,.23-0.85l5.84-3.71a1.66,1.66,0,0,1,1.33-.28c1,0,1.07-.1,1.07,1.07a7.86,7.86,0,0,0,.08,1.89c0.08,0.2.26,0.2,0.92,0.2h1.79c1.1,0,1.1.08,1.1,1.23,0,1.46-.18,1.56-1.18,1.56h-1.77c-0.9,0-.95,0-0.95.95v3.81Z"/><path class="cls-4" d="M611.37,68c0,4.5,1.54,2,1.54,3.43s-2,3-3.87,3c-2,0-2.07-1.31-2.71-1.31a4,4,0,0,0-1.2.64,4.68,4.68,0,0,1-2.51.67c-2.12,0-4.25-1.13-4.25-3.66,0-1.82,1.74-4.07,6.25-4.07,0.79,0,1.15.05,1.15-.87s0-2.61-1.2-2.61c-1.54,0-1.69,2.76-4,2.76a1.38,1.38,0,0,1-1.43-1.41c0-2.18,4.33-3.58,6.76-3.58,1.46,0,5.45.56,5.45,4.4V68Zm-7.68,2.25a1.23,1.23,0,0,0,1.1,1.38c1,0,1-1,1-1.82,0-.56,0-1.2-0.69-1.2A1.57,1.57,0,0,0,603.69,70.26Z"/><path class="cls-4" d="M615.26,66.37c0-2.51-1.59-1.1-1.59-2.66,0-2,6-2.59,6.22-2.59,1,0,1,.26,1.1,1.13,0,0.31,0,.9.43,0.9,0.61,0,1-2,3.2-2a2.79,2.79,0,0,1,2.84,3,3.13,3.13,0,0,1-3.15,3.07c-1.66,0-2.12-1.46-2.79-1.46s-0.59,1.72-.59,2.18a23.41,23.41,0,0,0,.2,2.82c0.15,1.13,2.1.43,2.1,2S621,74.4,618.18,74.4c-1.18,0-4.66.05-4.66-1.71,0-1.08,1.18-1.08,1.46-2a12.7,12.7,0,0,0,.28-2.82V66.37Z"/><path class="cls-4" d="M629.77,66.37c0-2.51-1.59-1.1-1.59-2.66,0-2,6-2.59,6.22-2.59,1,0,1,.26,1.1,1.13,0,0.31,0,.9.43,0.9,0.61,0,1-2,3.2-2a2.79,2.79,0,0,1,2.84,3,3.13,3.13,0,0,1-3.15,3.07c-1.66,0-2.12-1.46-2.79-1.46s-0.59,1.72-.59,2.18a23.41,23.41,0,0,0,.2,2.82c0.15,1.13,2.1.43,2.1,2s-2.25,1.74-5.07,1.74c-1.18,0-4.66.05-4.66-1.71,0-1.08,1.18-1.08,1.46-2a12.7,12.7,0,0,0,.28-2.82V66.37Z"/><path class="cls-4" d="M650,69.39c0,3,1.51,1.92,1.51,3.28,0,1.74-3.25,1.74-4.4,1.74-4.4,0-4.58-1-4.58-1.61,0-.92,1-1,1.36-1.77a16.83,16.83,0,0,0,.1-5.55c-0.23-.9-1.54-0.61-1.54-1.77,0-1.82,6.5-2.59,6.76-2.59,0.77,0,.79.59,0.79,1.13v7.14ZM644.9,60.3c-1.07,0-2.23-.49-2.23-1.74,0-1.69,3.38-2.38,4.68-2.38,1,0,2.48.33,2.48,1.61C649.84,59.79,646.36,60.3,644.9,60.3Z"/><path class="cls-4" d="M659.39,69.85c0,2.48.87,2,.87,3,0,1.59-3.4,1.54-4.45,1.54s-3.63,0-3.63-1.54c0-1.23,1.18-.13,1.25-2.64l0.1-3.84c0.05-1.89-1.51-1.28-1.51-2.64s5.89-2.64,6.4-2.64a1,1,0,0,1,.92,1c0,0.15,0,.31,0,0.46a0.57,0.57,0,0,0,.51.67c0.41,0,.64-0.54,1.15-1.08a3.56,3.56,0,0,1,2.74-1c5.3,0,4.4,5.2,4.66,9.09,0.13,2,1.18,1.56,1.18,2.66,0,0.46.1,1.54-4.71,1.54-0.92,0-3.38.05-3.38-1.38,0-.92.84-0.49,1-2.15,0.13-1.82.85-5.91-1.56-5.91-1.64,0-1.48,1.77-1.48,2.92v2Z"/><path class="cls-4" d="M676.7,79.32c-4.74,0-6.53-1.79-6.53-3.43,0-1.48,1.41-1.51,1.41-1.89s-1.38-1-1.38-2.18c0-1.82,2.07-2.35,2.07-2.71s-1.74-1.48-1.74-3.38c0-3.1,3.87-4.53,6.45-4.53,1.3,0,3.07.49,4,.49,1.95,0,2.92-1.36,3.3-1.36a1.14,1.14,0,0,1,.84,1.25c0,1.43-1.43,2.46-1.43,2.74s0.08,0.54.08,0.79c0,3.46-4,4.63-6.83,4.63-0.44,0-.87-0.08-1.33-0.08a0.65,0.65,0,0,0-.69.69c0,0.79,1.13.95,1.72,0.95,0.79,0,3.76-.43,4.79-0.43,2.66,0,3.79,1.51,3.79,3C685.17,76.22,683,79.32,676.7,79.32Zm0.26-2.2c0.84,0,2.76-.13,2.76-1.31a0.87,0.87,0,0,0-1-.77c-0.38,0-1.38.15-2.2,0.15-0.59,0-2-.2-2.25-0.2a0.35,0.35,0,0,0-.31.41C674,76.76,676,77.12,677,77.12Zm0.15-14.05a1.61,1.61,0,0,0-1.43,1.84c0,1,.26,3.1,1.56,3.1,1.15,0,1.54-1,1.54-2S678.54,63.07,677.11,63.07Z"/><path class="cls-4" d="M597.06,114.16C596.75,125,585.49,126,582.62,126c-5.94,0-14.8-2.46-14.8-9.78,0-3.33,2.3-6.14,5.73-6.14,3,0,5.94,1.84,5.94,5.07,0,0.87-.36,1.74-0.36,2.41a1.91,1.91,0,0,0,2.25,1.89c6-.61,3.18-11.06,3.58-20.28,0.26-5.68-4.61-2.66-4.61-6.09,0-1,.41-4.25,10.39-4.25,9.68,0,10.8,2.36,10.8,3.79,0,2.66-4,1.43-4.1,5.74Z"/><path class="cls-4" d="M602.84,113.5c0-9.17,8-14.34,16.49-14.34a13.62,13.62,0,0,1,14.08,13.36c0,8.4-9,13.52-16.54,13.52S602.84,121.59,602.84,113.5Zm14.29-8.3a2.69,2.69,0,0,0-2.51,3.07c0.2,3.23,1.13,11.11,4.66,11.32,1.95,0.1,2.36-1.54,2.36-3.17C621.63,114.11,620.61,105.2,617.13,105.2Z"/><path class="cls-4" d="M649.59,116.77c0,5,1.74,4.1,1.74,6,0,3.18-6.81,3.07-8.91,3.07s-7.27,0-7.27-3.07c0-2.46,2.36-.26,2.51-5.27l0.2-7.68c0.1-3.79-3-2.56-3-5.27s11.78-5.27,12.8-5.27a1.9,1.9,0,0,1,1.84,2c0,0.31-.05.61-0.05,0.92a1.14,1.14,0,0,0,1,1.33c0.82,0,1.28-1.08,2.3-2.15a7.12,7.12,0,0,1,5.48-2.1c10.6,0,8.81,10.39,9.32,18.18,0.26,4,2.35,3.12,2.35,5.32,0,0.92.2,3.07-9.42,3.07-1.84,0-6.76.1-6.76-2.77,0-1.84,1.69-1,1.95-4.3,0.26-3.64,1.69-11.83-3.12-11.83-3.28,0-3,3.53-3,5.84v3.94Z"/><path class="cls-4" d="M697.15,113.09c0,9,3.07,4.1,3.07,6.86,0,2.92-4,6.09-7.73,6.09-4,0-4.15-2.61-5.43-2.61-0.61,0-1.28.67-2.41,1.28a9.35,9.35,0,0,1-5,1.33c-4.25,0-8.5-2.25-8.5-7.32,0-3.64,3.48-8.14,12.49-8.14,1.59,0,2.3.1,2.3-1.74,0-1.69-.05-5.22-2.41-5.22-3.07,0-3.38,5.53-7.94,5.53a2.76,2.76,0,0,1-2.87-2.82c0-4.35,8.65-7.17,13.52-7.17,2.92,0,10.91,1.13,10.91,8.81v5.12Zm-15.36,4.51c0,1.33.72,2.77,2.2,2.77,1.95,0,2.1-2.1,2.1-3.64,0-1.13.05-2.41-1.38-2.41A3.13,3.13,0,0,0,681.79,117.59Z"/><path class="cls-4" d="M717.53,114.26c0,3.43,1.43,4.25,2.82,4.25,1.59,0,2.51-1.18,3.43-1.18s1.74,1.43,1.74,2.36c0,3.38-5.84,6.35-11,6.35-2.61,0-9.17-1.13-9.17-9.27V106.22c0-.92,0-1.28-0.26-1.43a6.63,6.63,0,0,0-2-.05c-1.33,0-2,.05-2.25-0.2s-0.26-.87-0.26-2c0-.72-0.15-1.28.46-1.69l11.67-7.42c1.18-.72,1.13-0.56,2.66-0.56,2,0,2.15-.2,2.15,2.15a15.7,15.7,0,0,0,.15,3.79c0.15,0.41.51,0.41,1.84,0.41h3.58c2.2,0,2.2.15,2.2,2.46,0,2.92-.36,3.12-2.36,3.12h-3.53c-1.79,0-1.89.05-1.89,1.89v7.63Z"/><path class="cls-4" d="M759.36,117.69c0,4.35,2.51,3.28,2.51,5.27,0,3-6.55,2.92-8.45,2.92-1.59,0-7.78,0-7.78-2.61,0-1.49,1.43-1.43,1.84-4a28.42,28.42,0,0,0,.36-5.12c0-2.56-.05-7.37-3.69-7.37-3.12,0-3,2.66-3,5v5.94c0,4.25,2,3.38,2,5.22,0,3-5.84,3-7.78,3-7.32,0-9-1.54-9-3.12,0-2,2-1.13,2.87-4.45,0.61-2.41.61-9.17,0.61-12,0-2.3-.15-4.66-0.2-7-0.1-3.64-3.17-2.36-3.17-4.76,0-4.1,13.31-5.17,13.36-5.17,1.54,0,1.64.46,1.64,1.95l-0.31,9.73c-0.05,1-.1,2.61,1.23,2.61,1.54,0,2.2-4.56,7.94-4.56,9.42,0,8.76,8.86,8.81,10.29Z"/><path class="cls-4" d="M789.11,113.09c0,9,3.07,4.1,3.07,6.86,0,2.92-4,6.09-7.73,6.09-4,0-4.15-2.61-5.43-2.61-0.61,0-1.28.67-2.41,1.28a9.35,9.35,0,0,1-5,1.33c-4.25,0-8.5-2.25-8.5-7.32,0-3.64,3.48-8.14,12.49-8.14,1.59,0,2.3.1,2.3-1.74,0-1.69-.05-5.22-2.41-5.22-3.07,0-3.38,5.53-7.94,5.53a2.76,2.76,0,0,1-2.87-2.82c0-4.35,8.65-7.17,13.52-7.17,2.92,0,10.91,1.13,10.91,8.81v5.12Zm-15.36,4.51c0,1.33.72,2.77,2.2,2.77,1.95,0,2.1-2.1,2.1-3.64,0-1.13.05-2.41-1.38-2.41A3.13,3.13,0,0,0,773.75,117.59Z"/><path class="cls-4" d="M808.15,116.77c0,5,1.74,4.1,1.74,6,0,3.18-6.81,3.07-8.91,3.07s-7.27,0-7.27-3.07c0-2.46,2.36-.26,2.51-5.27l0.2-7.68c0.1-3.79-3-2.56-3-5.27s11.78-5.27,12.8-5.27a1.9,1.9,0,0,1,1.84,2c0,0.31-.05.61-0.05,0.92a1.14,1.14,0,0,0,1,1.33c0.82,0,1.28-1.08,2.3-2.15a7.12,7.12,0,0,1,5.48-2.1c10.6,0,8.81,10.39,9.32,18.18,0.26,4,2.35,3.12,2.35,5.32,0,0.92.2,3.07-9.42,3.07-1.84,0-6.76.1-6.76-2.77,0-1.84,1.69-1,1.95-4.3,0.26-3.64,1.69-11.83-3.12-11.83-3.28,0-3,3.53-3,5.84v3.94Z"/><path class="cls-4" d="M582.42,162.14c-0.31-.67-0.87-2.2-1.79-2.2-1.59,0-1.08,6.76-1.08,8.45,0,5.48,3.28,2.92,3.28,5.68,0,2.92-5.48,3-7.48,3-1.79,0-6.45-.15-6.45-2.82,0-2.92,3.07-.51,3.48-4.71a155.32,155.32,0,0,0,.87-16.49c0-3.07-.2-4.66-0.77-5.84s-3.43-1.43-3.43-3.53c0-2.92,4.76-3.64,8.86-3.64,6,0,5.89,1,7.42,3.64,1.79,3,5,11.42,7.22,11.93,1.59,0.36,3.69-5.84,5.53-9.22,2.61-4.81,2.66-6.35,9.42-6.35,2.25,0,7.37.15,7.37,3.38,0,2-2.3,2.46-2.82,4.2a67.12,67.12,0,0,0-.77,9.78c0,0.77.31,6.4,0.51,11.16,0.15,3.74,3.23,2.92,3.23,5.22,0,3.43-7,3.28-9.27,3.28-2.1,0-9.11.2-9.11-3.07,0-1.79,2.3-2.1,2.66-3.74,0.2-.87,1.23-9.68-0.56-9.68-1.59,0-3.23,4.51-4.45,7.12-1.13,2.35-3,8.19-4.61,8-0.82-.1-1.23,0-4.3-6.91Z"/><path class="cls-4" d="M642.47,164.29c0,9,3.07,4.1,3.07,6.86,0,2.92-4,6.09-7.73,6.09-4,0-4.15-2.61-5.43-2.61-0.61,0-1.28.67-2.41,1.28a9.35,9.35,0,0,1-5,1.33c-4.25,0-8.5-2.25-8.5-7.32,0-3.64,3.48-8.14,12.49-8.14,1.59,0,2.3.1,2.3-1.74,0-1.69-.05-5.22-2.41-5.22-3.07,0-3.38,5.53-7.94,5.53a2.76,2.76,0,0,1-2.87-2.82c0-4.35,8.65-7.17,13.52-7.17,2.92,0,10.91,1.13,10.91,8.81v5.12Zm-15.36,4.51c0,1.33.72,2.77,2.2,2.77,1.95,0,2.1-2.1,2.1-3.64,0-1.13.05-2.41-1.38-2.41A3.13,3.13,0,0,0,627.11,168.79Z"/><path class="cls-4" d="M661.52,168c0,5,1.74,4.1,1.74,6,0,3.18-6.81,3.07-8.91,3.07s-7.27,0-7.27-3.07c0-2.46,2.36-.26,2.51-5.27l0.2-7.68c0.1-3.79-3-2.56-3-5.27s11.78-5.27,12.8-5.27a1.9,1.9,0,0,1,1.84,2c0,0.31-.05.61-0.05,0.92a1.14,1.14,0,0,0,1,1.33c0.82,0,1.28-1.08,2.3-2.15a7.12,7.12,0,0,1,5.48-2.1c10.6,0,8.81,10.39,9.32,18.18,0.26,4,2.35,3.12,2.35,5.32,0,0.92.2,3.07-9.42,3.07-1.84,0-6.76.1-6.76-2.77,0-1.84,1.69-1,1.95-4.3,0.26-3.64,1.69-11.83-3.12-11.83-3.28,0-3,3.53-3,5.84V168Z"/><path class="cls-4" d="M697.61,168c0,5,1.74,4.1,1.74,6,0,3.18-6.81,3.07-8.91,3.07s-7.27,0-7.27-3.07c0-2.46,2.36-.26,2.51-5.27l0.2-7.68c0.1-3.79-3-2.56-3-5.27s11.78-5.27,12.8-5.27a1.9,1.9,0,0,1,1.84,2c0,0.31-.05.61-0.05,0.92a1.14,1.14,0,0,0,1,1.33c0.82,0,1.28-1.08,2.3-2.15a7.12,7.12,0,0,1,5.48-2.1c10.6,0,8.81,10.39,9.32,18.18,0.26,4,2.35,3.12,2.35,5.32,0,0.92.2,3.07-9.42,3.07-1.84,0-6.76.1-6.76-2.77,0-1.84,1.69-1,1.95-4.3,0.26-3.64,1.69-11.83-3.12-11.83-3.28,0-3,3.53-3,5.84V168Z"/><path class="cls-4" d="M586,209.33c0,6,2,2.73,2,4.57s-2.66,4.06-5.15,4.06c-2.7,0-2.76-1.74-3.62-1.74a5.28,5.28,0,0,0-1.6.85,6.24,6.24,0,0,1-3.35.89c-2.83,0-5.67-1.5-5.67-4.88,0-2.42,2.32-5.43,8.33-5.43,1.06,0,1.54.07,1.54-1.16s0-3.48-1.6-3.48c-2,0-2.25,3.69-5.29,3.69a1.84,1.84,0,0,1-1.91-1.88c0-2.9,5.77-4.78,9-4.78,1.95,0,7.27.75,7.27,5.87v3.41Zm-10.24,3a1.64,1.64,0,0,0,1.47,1.84c1.3,0,1.4-1.4,1.4-2.42,0-.75,0-1.6-0.92-1.6A2.09,2.09,0,0,0,575.76,212.33Z"/><path class="cls-4" d="M598.39,200.24c0.61,0.1,1.16.24,1.4,0.24a2.17,2.17,0,0,0,.92-0.24,3,3,0,0,1,.92-0.2c1.57,0,3.14,3.14,3.14,4.54a1.64,1.64,0,0,1-1.67,1.6c-1.95,0-3-2.7-4.54-2.7a1.23,1.23,0,0,0-1.23,1.16c0,2.18,7.51,2.59,7.51,7.89,0,3.21-3.11,5.43-6.66,5.43a17.83,17.83,0,0,1-2.53-.24c-0.85-.1-1.6-0.2-1.81-0.2a4.64,4.64,0,0,0-.68.07,3.72,3.72,0,0,1-.65.07A1.64,1.64,0,0,1,591,217a7.63,7.63,0,0,1-1.71-4.2c0-.89.31-1.6,1.3-1.6,1.5,0,2.87,3.38,4.78,3.38a1.17,1.17,0,0,0,1.33-1.09c0-2-6.69-2.25-6.69-7.89,0-3.41,2.8-5.56,6.32-5.56A10.15,10.15,0,0,1,598.39,200.24Z"/><path class="cls-4" d="M638.7,212.4c0,2.9,1.67,2.18,1.67,3.52,0,2-4.37,1.95-5.63,1.95-1.06,0-5.19,0-5.19-1.74,0-1,1-1,1.23-2.7A18.91,18.91,0,0,0,631,210c0-1.71,0-4.92-2.46-4.92-2.08,0-2,1.78-2,3.31v4c0,2.83,1.37,2.25,1.37,3.48,0,2-3.89,2-5.19,2-4.88,0-6-1-6-2.08,0-1.37,1.33-.75,1.91-3a50.45,50.45,0,0,0,.41-8c0-1.54-.1-3.11-0.14-4.64-0.07-2.42-2.12-1.57-2.12-3.18,0-2.73,8.88-3.45,8.91-3.45,1,0,1.09.31,1.09,1.3l-0.2,6.49c0,0.65-.07,1.74.82,1.74s1.47-3,5.29-3c6.28,0,5.84,5.91,5.87,6.86Z"/><path class="cls-4" d="M651.12,211.17c0,4,2,2.56,2,4.37,0,2.32-4.34,2.32-5.87,2.32-5.87,0-6.11-1.33-6.11-2.15,0-1.23,1.4-1.3,1.81-2.36a22.45,22.45,0,0,0,.14-7.41c-0.31-1.19-2-.82-2-2.36,0-2.42,8.67-3.45,9-3.45,1,0,1.06.78,1.06,1.5v9.52Zm-6.76-12.12c-1.43,0-3-.65-3-2.32,0-2.25,4.51-3.18,6.25-3.18,1.37,0,3.31.44,3.31,2.15C651,198.37,646.31,199.05,644.37,199.05Z"/><path class="cls-4" d="M655.9,208c0-2.18-.44-2.8-0.79-3.11s-0.92-.34-0.92-1.23c0-2.53,8.47-3.48,8.53-3.48,0.85,0,.92.75,0.92,1.47,0,0.41-.14,1.57.58,1.57,0.34,0,.89-0.75,1.84-1.54a6.75,6.75,0,0,1,4.33-1.5c4.06,0,4.1,3,4.81,3a11.44,11.44,0,0,0,1.88-1.54,6.92,6.92,0,0,1,4.13-1.5c3.24,0,5.26,1.78,5.26,5.12v7.2c0,2,1.26,2.15,1.26,3.14,0,2.15-3.89,2.25-5.22,2.25-1.13,0-5.09-.24-5.09-2,0-1.26,1.19-1.23,1.19-3.21v-3.07c0-1.43.17-4.3-1.78-4.3s-1.74,2.32-1.74,3.58V211c0,4.2,1.23,3.48,1.23,4.75,0,2.12-4.1,2.15-5.33,2.15-5.15,0-5.43-1-5.39-1.91,0-1.81,1.74-.38,1.64-4.44v-1.95c0-1.23.17-4.3-1.77-4.3s-1.74,2.32-1.74,3.58v2.77c0,3.14.92,2.94,0.92,4.16,0,0.89-.78,2.08-5.46,2.08-1.33,0-5.36,0-5.36-1.78,0-1.54,2-.72,2-5V208Z"/><path class="cls-4" d="M698,200.24c0.61,0.1,1.16.24,1.4,0.24a2.17,2.17,0,0,0,.92-0.24,3,3,0,0,1,.92-0.2c1.57,0,3.14,3.14,3.14,4.54a1.64,1.64,0,0,1-1.67,1.6c-1.95,0-3-2.7-4.54-2.7a1.23,1.23,0,0,0-1.23,1.16c0,2.18,7.51,2.59,7.51,7.89,0,3.21-3.11,5.43-6.66,5.43a17.83,17.83,0,0,1-2.53-.24c-0.85-.1-1.6-0.2-1.81-0.2a4.64,4.64,0,0,0-.68.07,3.72,3.72,0,0,1-.65.07,1.64,1.64,0,0,1-1.5-.65,7.63,7.63,0,0,1-1.71-4.2c0-.89.31-1.6,1.3-1.6,1.5,0,2.87,3.38,4.78,3.38a1.17,1.17,0,0,0,1.33-1.09c0-2-6.69-2.25-6.69-7.89,0-3.41,2.8-5.56,6.32-5.56A10.15,10.15,0,0,1,698,200.24Z"/><path class="cls-4" d="M714.24,209.63c-0.37,0-.92-0.1-0.92.48,0,1.71,2.22,3.14,3.82,3.14,2.56,0,3.82-1.54,4.54-1.54a1.8,1.8,0,0,1,1.33,1.71c0,2.63-4.81,4.54-7.89,4.54-6.14,0-9.32-4.44-9.32-8.84,0-5.26,4.47-9.08,9.59-9.08,5.8,0,8.36,4.47,8.36,7,0,2.25-1,2.56-2.12,2.56h-7.41Zm3-4.3a2,2,0,0,0-2-2.18,2.26,2.26,0,0,0-2,2.25c0,1.23,1.16,1,2,1S717.21,206.56,717.21,205.33Z"/><path class="cls-4" d="M734.92,211.37a10.06,10.06,0,0,0,.14,2.29c0.38,1.23,1.91.65,1.91,2.08,0,2.29-4.16,2.12-5.63,2.12S725,218,725,215.61c0-1.19,1.47-.75,1.88-2s0.44-5.67.44-7.34a33,33,0,0,0-.24-5.43c-0.51-2.53-2.53-1.64-2.53-3.58,0-3,8.88-3.69,9.35-3.69,1.16,0,1.43.75,1.43,1.78,0,0.78-.44,4.54-0.44,9.42v6.62Z"/><path class="cls-4" d="M740.45,208.64c0.07-1.06-.27-1.6-1.37-1.6-0.41,0-1.47.17-1.47-.44,0-2.7-.2-3,0.82-3.07,0.41,0,1-.07,1-0.65s-1.3-1.91-1.3-4.06c0-4.06,4.2-5.43,7.61-5.43,5.56,0,6.86,2.94,6.86,4.4a2.62,2.62,0,0,1-2.59,2.63c-3,0-3.35-3.07-5.29-3.07a1.17,1.17,0,0,0-1.16,1.23c0,2.15,3.55,2.87,4.16,4.37a0.41,0.41,0,0,0,.48.38c1.43,0,3.38-.38,3.31.65l-0.17,2.49c0,0.51-.41.58-0.89,0.58-2,0-2.36,0-2.36,2.22a12.76,12.76,0,0,0,.34,3c0.61,2,3,1,3,3.07,0,0.82-.07,2.49-7.75,2.49-1.64,0-6,0-6-2.42,0-1.91,2.39-1,2.53-3.11Z"/><path class="cls-5" d="M568.14,60.72c0-2.66,2.56-6,7.53-6a21.33,21.33,0,0,1,3.87.72,11.42,11.42,0,0,1,1.25-.36c0.87,0,2.82,2,2.82,4.12A1.62,1.62,0,0,1,582.09,61c-1.72,0-2.71-2.92-5.38-2.92a1.41,1.41,0,0,0-1.64,1.28c0,2,3.51,1.48,6.48,3.46A4.71,4.71,0,0,1,583.93,67c0,3-2.46,6.37-8.42,6.37a15.54,15.54,0,0,1-6-1.23c-1.23-.69-1.82-3.4-1.82-4.71a1.18,1.18,0,0,1,1.07-1.38c1.82,0,1.51,4.07,6.22,4.07,0.56,0,2-.28,2-1.25,0-1.84-3.51-1.38-6.35-3.66A5.88,5.88,0,0,1,568.14,60.72Z"/><path class="cls-5" d="M592.76,67.53c0,1.72.72,2.13,1.41,2.13s1.25-.59,1.71-0.59a1.17,1.17,0,0,1,.87,1.18c0,1.69-2.92,3.17-5.5,3.17a4.32,4.32,0,0,1-4.58-4.63V63.51a0.84,0.84,0,0,0-.13-0.72,3.36,3.36,0,0,0-1,0,2.17,2.17,0,0,1-1.13-.1,1.48,1.48,0,0,1-.13-1,0.82,0.82,0,0,1,.23-0.85l5.84-3.71a1.66,1.66,0,0,1,1.33-.28c1,0,1.07-.1,1.07,1.08a7.86,7.86,0,0,0,.08,1.89c0.08,0.2.26,0.2,0.92,0.2h1.79c1.1,0,1.1.08,1.1,1.23,0,1.46-.18,1.56-1.18,1.56h-1.77c-0.9,0-.95,0-0.95.95v3.81Z"/><path class="cls-5" d="M610.3,66.94c0,4.5,1.54,2,1.54,3.43s-2,3-3.87,3c-2,0-2.07-1.31-2.71-1.31a4,4,0,0,0-1.2.64,4.68,4.68,0,0,1-2.51.67c-2.12,0-4.25-1.13-4.25-3.66,0-1.82,1.74-4.07,6.25-4.07,0.79,0,1.15.05,1.15-.87s0-2.61-1.2-2.61c-1.54,0-1.69,2.76-4,2.76a1.38,1.38,0,0,1-1.43-1.41c0-2.18,4.33-3.58,6.76-3.58,1.46,0,5.45.56,5.45,4.4v2.56Zm-7.68,2.25a1.23,1.23,0,0,0,1.1,1.38c1,0,1-1,1-1.82,0-.56,0-1.2-0.69-1.2A1.57,1.57,0,0,0,602.62,69.19Z"/><path class="cls-5" d="M614.19,65.3c0-2.51-1.59-1.1-1.59-2.66,0-2,6-2.59,6.22-2.59,1,0,1,.26,1.1,1.13,0,0.31,0,.9.43,0.9,0.61,0,1-2,3.2-2a2.79,2.79,0,0,1,2.84,3,3.13,3.13,0,0,1-3.15,3.07c-1.66,0-2.12-1.46-2.79-1.46s-0.59,1.72-.59,2.18a23.41,23.41,0,0,0,.2,2.82c0.15,1.13,2.1.43,2.1,2s-2.25,1.74-5.07,1.74c-1.18,0-4.66.05-4.66-1.71,0-1.08,1.18-1.08,1.46-2a12.7,12.7,0,0,0,.28-2.82V65.3Z"/><path class="cls-5" d="M628.71,65.3c0-2.51-1.59-1.1-1.59-2.66,0-2,6-2.59,6.22-2.59,1,0,1,.26,1.1,1.13,0,0.31,0,.9.43,0.9,0.61,0,1-2,3.2-2a2.79,2.79,0,0,1,2.84,3,3.13,3.13,0,0,1-3.15,3.07c-1.66,0-2.12-1.46-2.79-1.46s-0.59,1.72-.59,2.18a23.41,23.41,0,0,0,.2,2.82c0.15,1.13,2.1.43,2.1,2s-2.25,1.74-5.07,1.74c-1.18,0-4.66.05-4.66-1.71,0-1.08,1.18-1.08,1.46-2a12.7,12.7,0,0,0,.28-2.82V65.3Z"/><path class="cls-5" d="M648.9,68.32c0,3,1.51,1.92,1.51,3.28,0,1.74-3.25,1.74-4.4,1.74-4.4,0-4.58-1-4.58-1.61,0-.92,1-1,1.36-1.77a16.83,16.83,0,0,0,.1-5.55c-0.23-.9-1.54-0.61-1.54-1.77,0-1.82,6.5-2.59,6.76-2.59,0.77,0,.79.59,0.79,1.13v7.14Zm-5.07-9.09c-1.08,0-2.23-.49-2.23-1.74,0-1.69,3.38-2.38,4.68-2.38,1,0,2.48.33,2.48,1.61C648.78,58.72,645.3,59.23,643.84,59.23Z"/><path class="cls-5" d="M658.33,68.78c0,2.48.87,2,.87,3,0,1.59-3.4,1.54-4.45,1.54s-3.63,0-3.63-1.54c0-1.23,1.18-.13,1.25-2.64l0.1-3.84C652.51,63.43,651,64,651,62.69s5.89-2.64,6.4-2.64a1,1,0,0,1,.92,1c0,0.15,0,.31,0,0.46a0.57,0.57,0,0,0,.51.67c0.41,0,.64-0.54,1.15-1.08a3.56,3.56,0,0,1,2.74-1c5.3,0,4.4,5.2,4.66,9.09,0.13,2,1.18,1.56,1.18,2.66,0,0.46.1,1.54-4.71,1.54-0.92,0-3.38.05-3.38-1.38,0-.92.84-0.49,1-2.15,0.13-1.82.85-5.91-1.56-5.91-1.64,0-1.48,1.77-1.48,2.92v2Z"/><path class="cls-5" d="M675.63,78.25c-4.74,0-6.53-1.79-6.53-3.43,0-1.48,1.41-1.51,1.41-1.89s-1.38-1-1.38-2.18c0-1.82,2.07-2.35,2.07-2.71s-1.74-1.48-1.74-3.38c0-3.1,3.87-4.53,6.45-4.53,1.3,0,3.07.49,4,.49,1.95,0,2.92-1.36,3.3-1.36a1.14,1.14,0,0,1,.84,1.25c0,1.43-1.43,2.46-1.43,2.74s0.08,0.54.08,0.79c0,3.46-4,4.63-6.83,4.63-0.44,0-.87-0.08-1.33-0.08a0.65,0.65,0,0,0-.69.69c0,0.79,1.13.95,1.72,0.95,0.79,0,3.76-.43,4.79-0.43,2.66,0,3.79,1.51,3.79,3C684.1,75.16,681.9,78.25,675.63,78.25Zm0.26-2.2c0.84,0,2.76-.13,2.76-1.31a0.87,0.87,0,0,0-1-.77c-0.38,0-1.38.15-2.2,0.15-0.59,0-2-.2-2.25-0.2a0.35,0.35,0,0,0-.31.41C672.89,75.69,674.89,76.05,675.89,76.05ZM676,62a1.61,1.61,0,0,0-1.43,1.84c0,1,.26,3.1,1.56,3.1,1.15,0,1.54-1,1.54-2S677.47,62,676,62Z"/><path class="cls-5" d="M596,113.09C595.69,124,584.42,125,581.55,125c-5.94,0-14.8-2.46-14.8-9.78,0-3.33,2.3-6.14,5.73-6.14,3,0,5.94,1.84,5.94,5.07,0,0.87-.36,1.74-0.36,2.41a1.91,1.91,0,0,0,2.25,1.89c6-.61,3.17-11.06,3.58-20.28,0.26-5.68-4.61-2.66-4.61-6.09,0-1,.41-4.25,10.39-4.25,9.68,0,10.8,2.36,10.8,3.79,0,2.66-4,1.43-4.1,5.74Z"/><path class="cls-5" d="M601.78,112.43c0-9.17,8-14.34,16.49-14.34a13.62,13.62,0,0,1,14.08,13.36c0,8.4-9,13.52-16.54,13.52S601.78,120.52,601.78,112.43Zm14.29-8.3a2.69,2.69,0,0,0-2.51,3.07c0.2,3.23,1.13,11.11,4.66,11.32,1.95,0.1,2.36-1.54,2.36-3.17C620.57,113,619.54,104.13,616.06,104.13Z"/><path class="cls-5" d="M648.52,115.71c0,5,1.74,4.1,1.74,6,0,3.17-6.81,3.07-8.91,3.07s-7.27,0-7.27-3.07c0-2.46,2.36-.26,2.51-5.27l0.2-7.68c0.1-3.79-3-2.56-3-5.27s11.78-5.27,12.8-5.27a1.9,1.9,0,0,1,1.84,2c0,0.31-.05.61-0.05,0.92a1.14,1.14,0,0,0,1,1.33c0.82,0,1.28-1.08,2.3-2.15a7.12,7.12,0,0,1,5.48-2.1c10.6,0,8.81,10.39,9.32,18.18,0.26,4,2.35,3.12,2.35,5.33,0,0.92.2,3.07-9.42,3.07-1.84,0-6.76.1-6.76-2.77,0-1.84,1.69-1,1.95-4.3,0.26-3.64,1.69-11.83-3.12-11.83-3.28,0-3,3.53-3,5.84v3.94Z"/><path class="cls-5" d="M696.09,112c0,9,3.07,4.1,3.07,6.86,0,2.92-4,6.09-7.73,6.09-4,0-4.15-2.61-5.43-2.61-0.61,0-1.28.67-2.41,1.28a9.35,9.35,0,0,1-5,1.33c-4.25,0-8.5-2.25-8.5-7.32,0-3.64,3.48-8.14,12.49-8.14,1.59,0,2.3.1,2.3-1.74,0-1.69-.05-5.22-2.41-5.22-3.07,0-3.38,5.53-7.94,5.53a2.76,2.76,0,0,1-2.87-2.82c0-4.35,8.65-7.17,13.52-7.17,2.92,0,10.91,1.13,10.91,8.81V112Zm-15.36,4.51c0,1.33.72,2.77,2.2,2.77,1.95,0,2.1-2.1,2.1-3.64,0-1.13.05-2.41-1.38-2.41A3.13,3.13,0,0,0,680.73,116.53Z"/><path class="cls-5" d="M716.46,113.2c0,3.43,1.43,4.25,2.82,4.25,1.59,0,2.51-1.18,3.43-1.18s1.74,1.43,1.74,2.36c0,3.38-5.84,6.35-11,6.35-2.61,0-9.17-1.13-9.17-9.27V105.16c0-.92,0-1.28-0.26-1.43a6.63,6.63,0,0,0-2-.05c-1.33,0-2,.05-2.25-0.2s-0.26-.87-0.26-2c0-.72-0.15-1.28.46-1.69l11.68-7.42c1.18-.72,1.13-0.56,2.66-0.56,2,0,2.15-.2,2.15,2.15a15.7,15.7,0,0,0,.15,3.79c0.15,0.41.51,0.41,1.84,0.41H722c2.2,0,2.2.15,2.2,2.46,0,2.92-.36,3.12-2.36,3.12h-3.53c-1.79,0-1.89.05-1.89,1.89v7.63Z"/><path class="cls-5" d="M758.3,116.63c0,4.35,2.51,3.28,2.51,5.27,0,3-6.55,2.92-8.45,2.92-1.59,0-7.78,0-7.78-2.61,0-1.49,1.43-1.43,1.84-4a28.42,28.42,0,0,0,.36-5.12c0-2.56-.05-7.37-3.69-7.37-3.12,0-3,2.66-3,5v5.94c0,4.25,2,3.38,2,5.22,0,3-5.84,3-7.78,3-7.32,0-9-1.54-9-3.12,0-2,2-1.13,2.87-4.45,0.61-2.41.61-9.17,0.61-12,0-2.3-.15-4.66-0.2-7-0.1-3.64-3.17-2.36-3.17-4.76,0-4.1,13.31-5.17,13.36-5.17,1.54,0,1.64.46,1.64,1.95L740.12,100c-0.05,1-.1,2.61,1.23,2.61,1.54,0,2.2-4.56,7.94-4.56,9.42,0,8.76,8.86,8.81,10.29Z"/><path class="cls-5" d="M788,112c0,9,3.07,4.1,3.07,6.86,0,2.92-4,6.09-7.73,6.09-4,0-4.15-2.61-5.43-2.61-0.61,0-1.28.67-2.41,1.28a9.35,9.35,0,0,1-5,1.33c-4.25,0-8.5-2.25-8.5-7.32,0-3.64,3.48-8.14,12.49-8.14,1.59,0,2.3.1,2.3-1.74,0-1.69-.05-5.22-2.41-5.22-3.07,0-3.38,5.53-7.94,5.53a2.76,2.76,0,0,1-2.87-2.82c0-4.35,8.65-7.17,13.52-7.17,2.92,0,10.91,1.13,10.91,8.81V112Zm-15.36,4.51c0,1.33.72,2.77,2.2,2.77,1.95,0,2.1-2.1,2.1-3.64,0-1.13.05-2.41-1.38-2.41A3.13,3.13,0,0,0,772.68,116.53Z"/><path class="cls-5" d="M807.09,115.71c0,5,1.74,4.1,1.74,6,0,3.17-6.81,3.07-8.91,3.07s-7.27,0-7.27-3.07c0-2.46,2.36-.26,2.51-5.27l0.2-7.68c0.1-3.79-3-2.56-3-5.27s11.78-5.27,12.8-5.27a1.9,1.9,0,0,1,1.84,2c0,0.31-.05.61-0.05,0.92a1.14,1.14,0,0,0,1,1.33c0.82,0,1.28-1.08,2.3-2.15a7.12,7.12,0,0,1,5.48-2.1c10.6,0,8.81,10.39,9.32,18.18,0.26,4,2.35,3.12,2.35,5.33,0,0.92.2,3.07-9.42,3.07-1.84,0-6.76.1-6.76-2.77,0-1.84,1.69-1,1.95-4.3,0.26-3.64,1.69-11.83-3.12-11.83-3.28,0-3,3.53-3,5.84v3.94Z"/><path class="cls-5" d="M581.35,161.07c-0.31-.67-0.87-2.2-1.79-2.2-1.59,0-1.07,6.76-1.07,8.45,0,5.48,3.28,2.92,3.28,5.68,0,2.92-5.48,3-7.48,3-1.79,0-6.45-.15-6.45-2.82,0-2.92,3.07-.51,3.48-4.71a155.32,155.32,0,0,0,.87-16.49c0-3.07-.2-4.66-0.77-5.84s-3.43-1.43-3.43-3.53c0-2.92,4.76-3.64,8.86-3.64,6,0,5.89,1,7.42,3.64,1.79,3,5,11.42,7.22,11.93,1.59,0.36,3.69-5.84,5.53-9.22,2.61-4.81,2.66-6.35,9.42-6.35,2.25,0,7.37.15,7.37,3.38,0,2-2.3,2.46-2.82,4.2a67.12,67.12,0,0,0-.77,9.78c0,0.77.31,6.4,0.51,11.16,0.15,3.74,3.23,2.92,3.23,5.22,0,3.43-7,3.28-9.27,3.28-2.1,0-9.11.2-9.11-3.07,0-1.79,2.3-2.1,2.66-3.74,0.2-.87,1.23-9.68-0.56-9.68-1.59,0-3.23,4.51-4.45,7.12-1.13,2.35-3,8.19-4.61,8-0.82-.1-1.23,0-4.3-6.91Z"/><path class="cls-5" d="M641.41,163.22c0,9,3.07,4.1,3.07,6.86,0,2.92-4,6.09-7.73,6.09-4,0-4.15-2.61-5.43-2.61-0.61,0-1.28.67-2.41,1.28a9.35,9.35,0,0,1-5,1.33c-4.25,0-8.5-2.25-8.5-7.32,0-3.64,3.48-8.14,12.49-8.14,1.59,0,2.3.1,2.3-1.74,0-1.69-.05-5.22-2.41-5.22-3.07,0-3.38,5.53-7.94,5.53a2.76,2.76,0,0,1-2.87-2.82c0-4.35,8.65-7.17,13.52-7.17,2.92,0,10.91,1.13,10.91,8.81v5.12ZM626,167.73c0,1.33.72,2.77,2.2,2.77,1.95,0,2.1-2.1,2.1-3.64,0-1.13.05-2.41-1.38-2.41A3.13,3.13,0,0,0,626,167.73Z"/><path class="cls-5" d="M660.45,166.91c0,5,1.74,4.1,1.74,6,0,3.17-6.81,3.07-8.91,3.07s-7.27,0-7.27-3.07c0-2.46,2.36-.26,2.51-5.27l0.2-7.68c0.1-3.79-3-2.56-3-5.27s11.78-5.27,12.8-5.27a1.9,1.9,0,0,1,1.84,2c0,0.31-.05.61-0.05,0.92a1.14,1.14,0,0,0,1,1.33c0.82,0,1.28-1.08,2.3-2.15a7.12,7.12,0,0,1,5.48-2.1c10.6,0,8.81,10.39,9.32,18.18,0.26,4,2.35,3.12,2.35,5.33,0,0.92.2,3.07-9.42,3.07-1.84,0-6.76.1-6.76-2.77,0-1.84,1.69-1,1.95-4.3,0.26-3.64,1.69-11.83-3.12-11.83-3.28,0-3,3.53-3,5.84v3.94Z"/><path class="cls-5" d="M696.55,166.91c0,5,1.74,4.1,1.74,6,0,3.17-6.81,3.07-8.91,3.07s-7.27,0-7.27-3.07c0-2.46,2.36-.26,2.51-5.27l0.2-7.68c0.1-3.79-3-2.56-3-5.27s11.78-5.27,12.8-5.27a1.9,1.9,0,0,1,1.84,2c0,0.31-.05.61-0.05,0.92a1.14,1.14,0,0,0,1,1.33c0.82,0,1.28-1.08,2.3-2.15a7.12,7.12,0,0,1,5.48-2.1c10.6,0,8.81,10.39,9.32,18.18,0.26,4,2.35,3.12,2.35,5.33,0,0.92.2,3.07-9.42,3.07-1.84,0-6.76.1-6.76-2.77,0-1.84,1.69-1,1.95-4.3,0.26-3.64,1.69-11.83-3.12-11.83-3.28,0-3,3.53-3,5.84v3.94Z"/><path class="cls-5" d="M584.93,208.26c0,6,2,2.73,2,4.57s-2.66,4.06-5.15,4.06c-2.7,0-2.76-1.74-3.62-1.74a5.28,5.28,0,0,0-1.6.85,6.24,6.24,0,0,1-3.35.89c-2.83,0-5.67-1.5-5.67-4.88,0-2.42,2.32-5.43,8.33-5.43,1.06,0,1.54.07,1.54-1.16s0-3.48-1.6-3.48c-2,0-2.25,3.69-5.29,3.69a1.84,1.84,0,0,1-1.91-1.88c0-2.9,5.77-4.78,9-4.78,1.95,0,7.27.75,7.27,5.87v3.41Zm-10.24,3a1.64,1.64,0,0,0,1.47,1.84c1.3,0,1.4-1.4,1.4-2.42,0-.75,0-1.6-0.92-1.6A2.09,2.09,0,0,0,574.69,211.26Z"/><path class="cls-5" d="M597.32,199.18c0.61,0.1,1.16.24,1.4,0.24a2.17,2.17,0,0,0,.92-0.24,3,3,0,0,1,.92-0.2c1.57,0,3.14,3.14,3.14,4.54a1.64,1.64,0,0,1-1.67,1.6c-1.95,0-3-2.7-4.54-2.7a1.23,1.23,0,0,0-1.23,1.16c0,2.18,7.51,2.59,7.51,7.89,0,3.21-3.11,5.43-6.66,5.43a17.83,17.83,0,0,1-2.53-.24c-0.85-.1-1.6-0.2-1.81-0.2a4.64,4.64,0,0,0-.68.07,3.72,3.72,0,0,1-.65.07,1.64,1.64,0,0,1-1.5-.65,7.63,7.63,0,0,1-1.71-4.2c0-.89.31-1.6,1.3-1.6,1.5,0,2.87,3.38,4.78,3.38a1.17,1.17,0,0,0,1.33-1.09c0-2-6.69-2.25-6.69-7.89,0-3.41,2.8-5.56,6.32-5.56A10.15,10.15,0,0,1,597.32,199.18Z"/><path class="cls-5" d="M637.63,211.33c0,2.9,1.67,2.18,1.67,3.52,0,2-4.37,1.95-5.63,1.95-1.06,0-5.19,0-5.19-1.74,0-1,1-1,1.23-2.7a18.91,18.91,0,0,0,.24-3.41c0-1.71,0-4.92-2.46-4.92-2.08,0-2,1.78-2,3.31v4c0,2.83,1.37,2.25,1.37,3.48,0,2-3.89,2-5.19,2-4.88,0-6-1-6-2.08,0-1.37,1.33-.75,1.91-3a50.45,50.45,0,0,0,.41-8c0-1.54-.1-3.11-0.14-4.64-0.07-2.42-2.12-1.57-2.12-3.17,0-2.73,8.88-3.45,8.91-3.45,1,0,1.09.31,1.09,1.3l-0.2,6.49c0,0.65-.07,1.74.82,1.74s1.47-3,5.29-3c6.28,0,5.84,5.91,5.87,6.86Z"/><path class="cls-5" d="M650.06,210.1c0,4,2,2.56,2,4.37,0,2.32-4.34,2.32-5.87,2.32-5.87,0-6.11-1.33-6.11-2.15,0-1.23,1.4-1.3,1.81-2.36a22.45,22.45,0,0,0,.14-7.41c-0.31-1.19-2-.82-2-2.36,0-2.42,8.67-3.45,9-3.45,1,0,1.06.78,1.06,1.5v9.52ZM643.3,198c-1.43,0-3-.65-3-2.32,0-2.25,4.51-3.18,6.25-3.18,1.37,0,3.31.44,3.31,2.15C649.89,197.3,645.24,198,643.3,198Z"/><path class="cls-5" d="M654.84,206.89c0-2.18-.44-2.8-0.79-3.11s-0.92-.34-0.92-1.23c0-2.53,8.47-3.48,8.53-3.48,0.85,0,.92.75,0.92,1.47,0,0.41-.14,1.57.58,1.57,0.34,0,.89-0.75,1.84-1.54a6.75,6.75,0,0,1,4.33-1.5c4.06,0,4.1,3,4.81,3a11.44,11.44,0,0,0,1.88-1.54,6.92,6.92,0,0,1,4.13-1.5c3.24,0,5.26,1.78,5.26,5.12v7.2c0,2,1.26,2.15,1.26,3.14,0,2.15-3.89,2.25-5.22,2.25-1.13,0-5.09-.24-5.09-2,0-1.26,1.19-1.23,1.19-3.21V208.5c0-1.43.17-4.3-1.77-4.3s-1.74,2.32-1.74,3.58v2.12c0,4.2,1.23,3.48,1.23,4.75,0,2.12-4.1,2.15-5.33,2.15-5.15,0-5.43-1-5.39-1.91,0-1.81,1.74-.38,1.64-4.44V208.5c0-1.23.17-4.3-1.78-4.3s-1.74,2.32-1.74,3.58v2.77c0,3.14.92,2.94,0.92,4.16,0,0.89-.78,2.08-5.46,2.08-1.33,0-5.36,0-5.36-1.78,0-1.54,2-.72,2-5v-3.14Z"/><path class="cls-5" d="M696.92,199.18c0.61,0.1,1.16.24,1.4,0.24a2.17,2.17,0,0,0,.92-0.24,3,3,0,0,1,.92-0.2c1.57,0,3.14,3.14,3.14,4.54a1.64,1.64,0,0,1-1.67,1.6c-1.95,0-3-2.7-4.54-2.7a1.23,1.23,0,0,0-1.23,1.16c0,2.18,7.51,2.59,7.51,7.89,0,3.21-3.11,5.43-6.66,5.43a17.83,17.83,0,0,1-2.53-.24c-0.85-.1-1.6-0.2-1.81-0.2a4.64,4.64,0,0,0-.68.07,3.72,3.72,0,0,1-.65.07,1.64,1.64,0,0,1-1.5-.65,7.63,7.63,0,0,1-1.71-4.2c0-.89.31-1.6,1.3-1.6,1.5,0,2.87,3.38,4.78,3.38a1.17,1.17,0,0,0,1.33-1.09c0-2-6.69-2.25-6.69-7.89,0-3.41,2.8-5.56,6.32-5.56A10.15,10.15,0,0,1,696.92,199.18Z"/><path class="cls-5" d="M713.17,208.57c-0.37,0-.92-0.1-0.92.48,0,1.71,2.22,3.14,3.82,3.14,2.56,0,3.82-1.54,4.54-1.54a1.8,1.8,0,0,1,1.33,1.71c0,2.63-4.81,4.54-7.89,4.54-6.14,0-9.32-4.44-9.32-8.84,0-5.26,4.47-9.08,9.59-9.08,5.8,0,8.36,4.47,8.36,7,0,2.25-1,2.56-2.12,2.56h-7.41Zm3-4.3a2,2,0,0,0-2-2.18,2.26,2.26,0,0,0-2,2.25c0,1.23,1.16,1,2,1S716.14,205.49,716.14,204.26Z"/><path class="cls-5" d="M733.85,210.31a10.06,10.06,0,0,0,.14,2.29c0.38,1.23,1.91.65,1.91,2.08,0,2.29-4.16,2.12-5.63,2.12S724,217,724,214.54c0-1.19,1.47-.75,1.88-2s0.44-5.67.44-7.34a33,33,0,0,0-.24-5.43c-0.51-2.53-2.53-1.64-2.53-3.58,0-3,8.88-3.69,9.35-3.69,1.16,0,1.43.75,1.43,1.78,0,0.78-.44,4.54-0.44,9.42v6.62Z"/><path class="cls-5" d="M739.38,207.58c0.07-1.06-.27-1.6-1.37-1.6-0.41,0-1.47.17-1.47-.44,0-2.7-.2-3,0.82-3.07,0.41,0,1-.07,1-0.65s-1.3-1.91-1.3-4.06c0-4.06,4.2-5.43,7.61-5.43,5.56,0,6.86,2.94,6.86,4.4a2.62,2.62,0,0,1-2.59,2.63c-3,0-3.35-3.07-5.29-3.07a1.17,1.17,0,0,0-1.16,1.23c0,2.15,3.55,2.87,4.16,4.37a0.41,0.41,0,0,0,.48.38c1.43,0,3.38-.38,3.31.65l-0.17,2.49c0,0.51-.41.58-0.89,0.58-2,0-2.36,0-2.36,2.22a12.76,12.76,0,0,0,.34,3c0.61,2,3,1,3,3.07,0,0.82-.07,2.49-7.75,2.49-1.64,0-6,0-6-2.42,0-1.91,2.39-1,2.53-3.11Z"/><path class="cls-6" d="M965,654.13s7.68-79.68,10.12-117.66c0.69-10.78,3.95-89.52.9-118-1.52-14.21-2.73-26.65-3.69-37.73-5.2,8.22-84.49,12.84-106.21.43C865,410,871,428.52,870.43,431.49c-0.68,3.76-5.72,57.71-7.44,120.61-0.89,32.36,4.45,103.46,4.06,105.75l12.07,0.28c1.8-20,7.09-66.93,11.32-105.11,4.64-41.82,26.61-111.68,28.12-117.46a78.68,78.68,0,0,1,8.92-1.43c1.25,4.65,10,46.83,16.12,93.68S953,655.92,953,655.92l7,0.36Z"/><path class="cls-7" d="M989.06,652.62c-10.44-1.74-26.74,3.78-26.74,3.78-3.92.8-13.62-2-14.26,1.76s3.49,8.84,3.49,8.84l29,10.54,20.31-9.08S999.5,654.37,989.06,652.62Z"/><path class="cls-8" d="M950.1,664.91c-2.68,2.32,4.64,9.29,29.92,14.38,11.78,2.37,25.49-12.06,20.11-14.65-0.41,3.66-2-3-5.17-4.13s-9.47,2-8.47,5.31,0.29,7.82-4,7.91S950.74,668.65,950.1,664.91Z"/><path class="cls-8" d="M953.26,660.51s1,6.88,5.19,5.52c7.38-2.37,19.32,3.87,19.32,3.87s-13.13-9.43-17.44-7.94A6.84,6.84,0,0,1,953.26,660.51Z"/><path class="cls-8" d="M958.44,658.41a0.22,0.22,0,0,1,0-.1l0-.3a3.62,3.62,0,0,1,.28-0.91,4.36,4.36,0,0,1,.74-1.09,5,5,0,0,1,1.17-.93,6.25,6.25,0,0,1,.67-0.32,4.58,4.58,0,0,1,.68-0.2,3.86,3.86,0,0,1,1.23,0,3,3,0,0,1,.85.22,2,2,0,0,1,.31.15,1,1,0,0,1,.33,1.44l-0.11.14-0.1.11a2.34,2.34,0,0,1-.23.21c-0.14.13-.35,0.25-0.57,0.41s-0.24.14-.36,0.22a2.56,2.56,0,0,1-.38.21c-0.26.14-.53,0.25-0.79,0.37l-0.77.36c-0.26.11-.48,0.24-0.69,0.34l-0.53.27a0.44,0.44,0,0,1-.15.06,0.08,0.08,0,0,0-.05,0,0.78,0.78,0,0,1-1.26-.11Z"/><path class="cls-8" d="M962.11,657.53a0.22,0.22,0,0,1,0-.1l0-.3a3.63,3.63,0,0,1,.28-0.91,4.36,4.36,0,0,1,.74-1.09,5,5,0,0,1,1.17-.93,6.26,6.26,0,0,1,.67-0.32,4.58,4.58,0,0,1,.68-0.2,3.86,3.86,0,0,1,1.23,0,3,3,0,0,1,.85.22,2,2,0,0,1,.31.15,1,1,0,0,1,.33,1.44l-0.11.14-0.1.11a2.37,2.37,0,0,1-.23.21c-0.14.13-.35,0.25-0.57,0.41s-0.24.14-.36,0.22a2.56,2.56,0,0,1-.38.21c-0.26.14-.53,0.25-0.79,0.37l-0.77.36c-0.26.11-.48,0.24-0.69,0.34l-0.53.27a0.44,0.44,0,0,1-.15.06,0.08,0.08,0,0,0-.05,0,0.78,0.78,0,0,1-1.26-.11Z"/><path class="cls-8" d="M970.65,657.88a2.33,2.33,0,0,1-.14-0.36,3.92,3.92,0,0,1-.18-0.94,4.47,4.47,0,0,1,.14-1.38,4.29,4.29,0,0,1,.77-1.53,3.73,3.73,0,0,1,.64-0.65,3.47,3.47,0,0,1,.74-0.48,3.38,3.38,0,0,1,.76-0.26,2.76,2.76,0,0,1,.69-0.08,2.16,2.16,0,0,1,.56,0,3.35,3.35,0,0,1,.42.11,2.15,2.15,0,0,1,.35.14,1,1,0,0,1,.27,1.52l-0.15.18a2.69,2.69,0,0,1-.22.22c-0.13.13-.33,0.26-0.51,0.43a2.7,2.7,0,0,0-.28.24c-0.08.1-.19,0.15-0.26,0.24s-0.17.14-.24,0.23a2.31,2.31,0,0,0-.24.23,4.65,4.65,0,0,0-.49.57c-0.16.22-.31,0.46-0.45,0.68l-0.34.57a1.63,1.63,0,0,0-.14.22A0.85,0.85,0,0,1,970.65,657.88Z"/><path class="cls-8" d="M967.3,658a2.34,2.34,0,0,1-.14-0.36,3.92,3.92,0,0,1-.18-0.94,4.46,4.46,0,0,1,.14-1.38,4.29,4.29,0,0,1,.77-1.53,3.75,3.75,0,0,1,.64-0.65,3.48,3.48,0,0,1,.74-0.48,3.38,3.38,0,0,1,.76-0.26,2.75,2.75,0,0,1,.68-0.08,2.16,2.16,0,0,1,.56,0,3.34,3.34,0,0,1,.42.11,2.14,2.14,0,0,1,.35.14,1,1,0,0,1,.27,1.52l-0.15.18a2.71,2.71,0,0,1-.22.22c-0.13.13-.33,0.26-0.51,0.43a2.7,2.7,0,0,0-.28.24c-0.08.1-.19,0.15-0.26,0.24s-0.17.14-.24,0.23a2.31,2.31,0,0,0-.24.23,4.67,4.67,0,0,0-.49.57c-0.16.22-.31,0.46-0.45,0.68l-0.34.57a1.71,1.71,0,0,0-.14.22A0.85,0.85,0,1,1,967.3,658Z"/><path class="cls-9" d="M809.6,259.56c0,8.06,28.33,14.1,45.54,14.1,0.15,15.07.19,42.5,0.77,63.39,0.61,22-3.19,37.5-.77,55.26,3.34,24.55,130.13,18.68,127.57,4.6s-12.88-97.51-12.88-110.14c0-5.15,1.22-21.47,1.22-21.47s26.29-4.93,26.29-14.92c0-25.15-8.23-42.51-14.83-68-3.83-14.79-26.95-19.18-41.41-23.78-2.07-2.59-8.65-5.34-10-4.13,14.63,20.25,6.89,38.25-3.75,47.5-36.24-6.64-48.74-34-44-48.77-0.71-2.26-7.21.07-8.19,2.2-17.21,2.84-43.49,11.5-48.09,30.37C819.79,215.43,811.38,230.54,809.6,259.56Z"/><path class="cls-3" d="M967.69,207.64s5.11,32.67,3.35,57.64"/><path class="cls-3" d="M866.13,219.58c-0.71,18.27-6.12,34.86-6.76,47.8-0.23,4.68-1.54,6.27-5,6.27"/><path class="cls-3" d="M875.12,155.39c-5.9,35.66,39.46,53.44,54.34,55.81,11.22-11.14,24.38-26.55,11.64-52.61"/><path class="cls-3" d="M859.38,265.28c-3.2,4.23-50.3-4.31-49.21-12.57"/><path class="cls-3" d="M971.76,259.56c8.15,0,25.57-9.19,25.57-12.94"/><path class="cls-3" d="M854.4,384c5,28.44,127.42,20.27,127.42,6.63"/><path class="cls-7" d="M855.47,658.7c-13.5-.44-18.05,14.81-18.05,14.81s15,12.55,25.17,12.55,21.91-10.92,22.18-15.49-4.27-10.85-9.46-11.9S866.17,659.05,855.47,658.7Z"/><path class="cls-8" d="M884.76,670.58c2.4,4.18-11.8,15.49-22.18,15.49s-27.72-4.14-26.93-12.27c0.21-2.11.55-5.18,4.92-6.28-1.15,2.53.62,3.87,1.54,1.24,1.42-4.06,14.71-3,15.07,1.94,0.18,2.58,1.51,7.55,9.68,7.39S883.61,674.82,884.76,670.58Z"/><path class="cls-8" d="M866.86,673.51s4.24-6.46,7-6.27,2.56-3.79,2.56-3.79,4,7.44,0,7.2S866.86,673.51,866.86,673.51Z"/><path class="cls-8" d="M864.28,657.3a0.3,0.3,0,0,1,.1-0.06l0.3-.16a4.36,4.36,0,0,1,1-.34,5.27,5.27,0,0,1,1.52-.06,6.09,6.09,0,0,1,1.67.43,7.76,7.76,0,0,1,.77.39,5.82,5.82,0,0,1,.67.48,4.88,4.88,0,0,1,1,1.07,3.69,3.69,0,0,1,.45.91,2.52,2.52,0,0,1,.11.38,1,1,0,0,1-1.14,1.15l-0.12,0a2.81,2.81,0,0,1-.34-0.09c-0.21-.06-0.47-0.19-0.78-0.3-0.16-.06-0.3-0.14-0.46-0.22a3.87,3.87,0,0,1-.49-0.24c-0.33-.16-0.65-0.35-1-0.52s-0.66-.33-1-0.46-0.63-.26-0.9-0.37L865,659l-0.18-.07a0.13,0.13,0,0,0-.07,0,0.83,0.83,0,0,1-.68-1.27Z"/><path class="cls-8" d="M857.74,657.57l0.11,0,0.34,0a4.36,4.36,0,0,1,1.09,0,5.27,5.27,0,0,1,1.44.48,6.08,6.08,0,0,1,1.41,1,7.71,7.71,0,0,1,.58.64,5.88,5.88,0,0,1,.46.68,4.9,4.9,0,0,1,.52,1.34,3.7,3.7,0,0,1,.1,1,2.58,2.58,0,0,1,0,.39,1,1,0,0,1-1.48.68l-0.11-.06a2.85,2.85,0,0,1-.29-0.21c-0.18-.13-0.37-0.34-0.62-0.56s-0.23-.24-0.36-0.37a3.89,3.89,0,0,1-.37-0.39c-0.25-.27-0.49-0.56-0.74-0.83s-0.5-.54-0.75-0.78-0.5-.46-0.72-0.66l-0.56-.47a0.78,0.78,0,0,1-.14-0.13,0.13,0.13,0,0,0-.06,0,0.83,0.83,0,0,1-.19-1.43Z"/><path class="cls-8" d="M866.7,662.89l-0.29-.21c-0.17-.12-0.42-0.39-0.67-0.55l-0.81-.65-0.9-.68c-0.61-.42-1.18-0.81-1.65-1.16-0.23-.18-0.44-0.32-0.59-0.45a0.49,0.49,0,0,1-.19-0.19,0.85,0.85,0,0,1-.08-1.69s0.19-.09.46-0.17a3.62,3.62,0,0,1,1.11-.13,4.52,4.52,0,0,1,.73.09,4,4,0,0,1,.78.23,5.52,5.52,0,0,1,1.48.9,6.74,6.74,0,0,1,1.13,1.25l0.39,0.65c0.11,0.22.2,0.45,0.29,0.64a3.64,3.64,0,0,1,.24.92c0,0.22,0,.36,0,0.36A0.94,0.94,0,0,1,866.7,662.89Z"/></svg>