<svg id="Shadow" xmlns="http://www.w3.org/2000/svg" viewBox="0 0 1792 768"><defs><style>.cls-1,.cls-5{fill:#24265b;}.cls-1{opacity:0.1;}.cls-2{fill:#d6cf90;}.cls-2,.cls-4{stroke:#24265b;stroke-linecap:round;stroke-linejoin:round;stroke-width:3.05px;}.cls-3{fill:#fff;}.cls-4{fill:none;}</style></defs><title>topic</title><path class="cls-1" d="M717.45,655.18c-44.26,7.92,86.67,92.82,161.29,79.89,50.17-8.69,241.62-55.16,282.62-67.08s-66.52-75.7-102.49-73.92C998.35,597.07,761.53,647.29,717.45,655.18Z"/><polyline class="cls-2" points="1063.68 655.89 1076.1 654.05 1076.1 396.38 1055.6 396.38 1063.68 653.15"/><polygon class="cls-2" points="1063.68 655.89 1005.35 622.63 1005.35 359.85 1063.68 359.85 1063.68 655.89"/><polygon class="cls-2" points="1038.79 522.33 1038.73 568.48 779.24 607.17 779.24 561.02 1038.79 522.33"/><polygon class="cls-2" points="1038.79 392.36 1038.73 438.5 779.24 477.2 779.24 431.05 1038.79 392.36"/><polygon class="cls-2" points="1038.79 522.33 1030.44 517.65 770.95 556.35 779.24 561.02 1038.79 522.33"/><polyline class="cls-2" points="783.43 696.77 795.84 694.94 795.84 437.26 775.35 437.26 783.43 694.04"/><polygon class="cls-2" points="783.43 696.77 725.1 663.52 725.1 400.74 783.43 400.74 783.43 696.77"/><polygon class="cls-2" points="995.75 327.52 1015.38 338.8 1066.25 352.3 1066.25 342.47 995.75 327.52"/><polygon class="cls-2" points="708.74 409.89 791.54 457.48 791.53 387.2 707.29 370.32 708.74 409.89"/><polygon class="cls-2" points="1014.49 324.39 995.03 327.79 1066.25 342.47 1085.71 339.08 1014.49 324.39"/><polygon class="cls-3" points="1006.78 340.29 981.45 325.97 991.13 324.45 1016.46 338.78 1006.78 340.29"/><polygon class="cls-4" points="1006.78 340.29 981.45 325.97 991.13 324.45 1016.46 338.78 1006.78 340.29"/><polygon class="cls-3" points="994.58 342.23 969.25 327.9 978.93 326.38 1004.26 340.71 994.58 342.23"/><polygon class="cls-4" points="994.58 342.23 969.25 327.9 978.93 326.38 1004.26 340.71 994.58 342.23"/><polygon class="cls-3" points="982.38 344.16 957.05 329.83 966.73 328.31 992.06 342.64 982.38 344.16"/><polygon class="cls-4" points="982.38 344.16 957.05 329.83 966.73 328.31 992.06 342.64 982.38 344.16"/><polygon class="cls-3" points="970.18 346.09 944.85 331.76 954.53 330.24 979.86 344.57 970.18 346.09"/><polygon class="cls-4" points="970.18 346.09 944.85 331.76 954.53 330.24 979.86 344.57 970.18 346.09"/><polygon class="cls-3" points="957.98 348.02 932.65 333.69 942.33 332.18 967.66 346.5 957.98 348.02"/><polygon class="cls-4" points="957.98 348.02 932.65 333.69 942.33 332.18 967.66 346.5 957.98 348.02"/><polygon class="cls-3" points="945.78 349.95 920.45 335.62 930.13 334.11 955.46 348.44 945.78 349.95"/><polygon class="cls-4" points="945.78 349.95 920.45 335.62 930.13 334.11 955.46 348.44 945.78 349.95"/><polygon class="cls-3" points="933.58 351.88 908.25 337.56 917.93 336.04 943.26 350.37 933.58 351.88"/><polygon class="cls-4" points="933.58 351.88 908.25 337.56 917.93 336.04 943.26 350.37 933.58 351.88"/><polygon class="cls-3" points="921.38 353.81 896.05 339.49 905.73 337.97 931.06 352.3 921.38 353.81"/><polygon class="cls-4" points="921.38 353.81 896.05 339.49 905.73 337.97 931.06 352.3 921.38 353.81"/><polygon class="cls-3" points="909.18 355.75 883.85 341.42 893.53 339.9 918.86 354.23 909.18 355.75"/><polygon class="cls-4" points="909.18 355.75 883.85 341.42 893.53 339.9 918.86 354.23 909.18 355.75"/><polygon class="cls-3" points="896.98 357.68 871.65 343.35 881.33 341.83 906.66 356.16 896.98 357.68"/><polygon class="cls-4" points="896.98 357.68 871.65 343.35 881.33 341.83 906.66 356.16 896.98 357.68"/><polygon class="cls-3" points="884.78 359.61 859.45 345.28 869.13 343.77 894.46 358.09 884.78 359.61"/><polygon class="cls-4" points="884.78 359.61 859.45 345.28 869.13 343.77 894.46 358.09 884.78 359.61"/><polygon class="cls-3" points="872.58 361.54 847.25 347.21 856.93 345.7 882.26 360.02 872.58 361.54"/><polygon class="cls-4" points="872.58 361.54 847.25 347.21 856.93 345.7 882.26 360.02 872.58 361.54"/><polygon class="cls-3" points="860.38 363.47 835.05 349.15 844.73 347.63 870.05 361.96 860.38 363.47"/><polygon class="cls-4" points="860.38 363.47 835.05 349.15 844.73 347.63 870.05 361.96 860.38 363.47"/><polygon class="cls-3" points="848.18 365.4 822.85 351.08 832.53 349.56 857.86 363.89 848.18 365.4"/><polygon class="cls-4" points="848.18 365.4 822.85 351.08 832.53 349.56 857.86 363.89 848.18 365.4"/><polygon class="cls-3" points="835.98 367.34 810.65 353.01 820.33 351.49 845.65 365.82 835.98 367.34"/><polygon class="cls-4" points="835.98 367.34 810.65 353.01 820.33 351.49 845.65 365.82 835.98 367.34"/><polygon class="cls-3" points="823.78 369.27 798.45 354.94 808.13 353.43 833.45 367.75 823.78 369.27"/><polygon class="cls-4" points="823.78 369.27 798.45 354.94 808.13 353.43 833.45 367.75 823.78 369.27"/><polygon class="cls-3" points="811.58 371.2 786.25 356.87 795.93 355.36 821.25 369.68 811.58 371.2"/><polygon class="cls-4" points="811.58 371.2 786.25 356.87 795.93 355.36 821.25 369.68 811.58 371.2"/><polygon class="cls-3" points="799.38 373.13 774.05 358.81 783.73 357.29 809.05 371.62 799.38 373.13"/><polygon class="cls-4" points="799.38 373.13 774.05 358.81 783.73 357.29 809.05 371.62 799.38 373.13"/><polygon class="cls-3" points="787.18 375.06 761.85 360.74 771.53 359.22 796.85 373.55 787.18 375.06"/><polygon class="cls-4" points="787.18 375.06 761.85 360.74 771.53 359.22 796.85 373.55 787.18 375.06"/><polygon class="cls-3" points="774.98 377 749.65 362.67 759.33 361.15 784.65 375.48 774.98 377"/><polygon class="cls-4" points="774.98 377 749.65 362.67 759.33 361.15 784.65 375.48 774.98 377"/><polygon class="cls-3" points="762.78 378.93 737.45 364.6 747.13 363.08 772.45 377.41 762.78 378.93"/><polygon class="cls-4" points="762.78 378.93 737.45 364.6 747.13 363.08 772.45 377.41 762.78 378.93"/><polygon class="cls-5" points="828.24 367.93 817.45 361.83 821.57 361.18 832.36 367.28 828.24 367.93"/><polygon class="cls-4" points="828.24 367.93 817.45 361.83 821.57 361.18 832.36 367.28 828.24 367.93"/><polygon class="cls-5" points="816.54 369.96 805.76 363.86 809.88 363.21 820.66 369.31 816.54 369.96"/><polygon class="cls-4" points="816.54 369.96 805.76 363.86 809.88 363.21 820.66 369.31 816.54 369.96"/><polygon class="cls-5" points="804.85 371.99 794.07 365.89 798.19 365.25 808.97 371.35 804.85 371.99"/><polygon class="cls-4" points="804.85 371.99 794.07 365.89 798.19 365.25 808.97 371.35 804.85 371.99"/><polygon class="cls-5" points="851.13 364.31 840.34 358.21 844.46 357.56 855.25 363.66 851.13 364.31"/><polygon class="cls-4" points="851.13 364.31 840.34 358.21 844.46 357.56 855.25 363.66 851.13 364.31"/><polygon class="cls-5" points="839.43 366.34 828.65 360.24 832.77 359.59 843.55 365.69 839.43 366.34"/><polygon class="cls-4" points="839.43 366.34 828.65 360.24 832.77 359.59 843.55 365.69 839.43 366.34"/><polygon class="cls-5" points="791 374.25 780.21 368.15 784.33 367.51 795.12 373.61 791 374.25"/><polygon class="cls-4" points="791 374.25 780.21 368.15 784.33 367.51 795.12 373.61 791 374.25"/><polygon class="cls-5" points="779.31 376.29 768.52 370.19 772.64 369.54 783.43 375.64 779.31 376.29"/><polygon class="cls-4" points="779.31 376.29 768.52 370.19 772.64 369.54 783.43 375.64 779.31 376.29"/><polygon class="cls-5" points="888.85 358.29 878.06 352.19 882.18 351.54 892.97 357.64 888.85 358.29"/><polygon class="cls-4" points="888.85 358.29 878.06 352.19 882.18 351.54 892.97 357.64 888.85 358.29"/><polygon class="cls-5" points="877.15 360.32 866.37 354.22 870.49 353.57 881.27 359.68 877.15 360.32"/><polygon class="cls-4" points="877.15 360.32 866.37 354.22 870.49 353.57 881.27 359.68 877.15 360.32"/><polygon class="cls-5" points="865.46 362.36 854.68 356.25 858.8 355.61 869.58 361.71 865.46 362.36"/><polygon class="cls-4" points="865.46 362.36 854.68 356.25 858.8 355.61 869.58 361.71 865.46 362.36"/><polygon class="cls-5" points="911.74 354.67 900.95 348.57 905.07 347.92 915.86 354.02 911.74 354.67"/><polygon class="cls-4" points="911.74 354.67 900.95 348.57 905.07 347.92 915.86 354.02 911.74 354.67"/><polygon class="cls-5" points="900.04 356.7 889.26 350.6 893.38 349.95 904.16 356.06 900.04 356.7"/><polygon class="cls-4" points="900.04 356.7 889.26 350.6 893.38 349.95 904.16 356.06 900.04 356.7"/><polygon class="cls-5" points="949.94 348.65 939.15 342.55 943.27 341.9 954.06 348 949.94 348.65"/><polygon class="cls-4" points="949.94 348.65 939.15 342.55 943.27 341.9 954.06 348 949.94 348.65"/><polygon class="cls-5" points="938.25 350.68 927.46 344.58 931.58 343.94 942.37 350.04 938.25 350.68"/><polygon class="cls-4" points="938.25 350.68 927.46 344.58 931.58 343.94 942.37 350.04 938.25 350.68"/><polygon class="cls-5" points="926.55 352.71 915.77 346.61 919.89 345.97 930.67 352.07 926.55 352.71"/><polygon class="cls-4" points="926.55 352.71 915.77 346.61 919.89 345.97 930.67 352.07 926.55 352.71"/><polygon class="cls-5" points="972.83 345.03 962.04 338.93 966.16 338.28 976.95 344.38 972.83 345.03"/><polygon class="cls-4" points="972.83 345.03 962.04 338.93 966.16 338.28 976.95 344.38 972.83 345.03"/><polygon class="cls-5" points="961.14 347.06 950.35 340.96 954.47 340.31 965.26 346.42 961.14 347.06"/><polygon class="cls-4" points="961.14 347.06 950.35 340.96 954.47 340.31 965.26 346.42 961.14 347.06"/><polygon class="cls-5" points="1010.67 339.08 999.88 332.98 1004 332.34 1014.79 338.44 1010.67 339.08"/><polygon class="cls-4" points="1010.67 339.08 999.88 332.98 1004 332.34 1014.79 338.44 1010.67 339.08"/><polygon class="cls-5" points="998.98 341.12 988.19 335.02 992.31 334.37 1003.1 340.47 998.98 341.12"/><polygon class="cls-4" points="998.98 341.12 988.19 335.02 992.31 334.37 1003.1 340.47 998.98 341.12"/><polygon class="cls-5" points="987.28 343.15 976.5 337.05 980.62 336.4 991.4 342.5 987.28 343.15"/><polygon class="cls-4" points="987.28 343.15 976.5 337.05 980.62 336.4 991.4 342.5 987.28 343.15"/><polygon class="cls-3" points="1043.37 347.95 1018.04 333.62 1027.72 332.1 1053.05 346.43 1043.37 347.95"/><polygon class="cls-4" points="1043.37 347.95 1018.04 333.62 1027.72 332.1 1053.05 346.43 1043.37 347.95"/><polygon class="cls-3" points="1031.17 349.88 1005.84 335.55 1015.52 334.03 1040.85 348.36 1031.17 349.88"/><polygon class="cls-4" points="1031.17 349.88 1005.84 335.55 1015.52 334.03 1040.85 348.36 1031.17 349.88"/><polygon class="cls-3" points="1018.97 351.81 993.64 337.48 1003.32 335.97 1028.64 350.29 1018.97 351.81"/><polygon class="cls-4" points="1018.97 351.81 993.64 337.48 1003.32 335.97 1028.64 350.29 1018.97 351.81"/><polygon class="cls-3" points="1006.77 353.74 981.44 339.41 991.12 337.9 1016.45 352.23 1006.77 353.74"/><polygon class="cls-4" points="1006.77 353.74 981.44 339.41 991.12 337.9 1016.45 352.23 1006.77 353.74"/><polygon class="cls-3" points="994.57 355.67 969.24 341.35 978.92 339.83 1004.24 354.16 994.57 355.67"/><polygon class="cls-4" points="994.57 355.67 969.24 341.35 978.92 339.83 1004.24 354.16 994.57 355.67"/><polygon class="cls-3" points="982.37 357.61 957.04 343.28 966.72 341.76 992.04 356.09 982.37 357.61"/><polygon class="cls-4" points="982.37 357.61 957.04 343.28 966.72 341.76 992.04 356.09 982.37 357.61"/><polygon class="cls-3" points="970.17 359.54 944.84 345.21 954.52 343.69 979.84 358.02 970.17 359.54"/><polygon class="cls-4" points="970.17 359.54 944.84 345.21 954.52 343.69 979.84 358.02 970.17 359.54"/><polygon class="cls-3" points="957.97 361.47 932.64 347.14 942.32 345.63 967.64 359.95 957.97 361.47"/><polygon class="cls-4" points="957.97 361.47 932.64 347.14 942.32 345.63 967.64 359.95 957.97 361.47"/><polygon class="cls-3" points="945.77 363.4 920.44 349.07 930.12 347.56 955.44 361.88 945.77 363.4"/><polygon class="cls-4" points="945.77 363.4 920.44 349.07 930.12 347.56 955.44 361.88 945.77 363.4"/><polygon class="cls-3" points="933.57 365.33 908.24 351 917.91 349.49 943.24 363.81 933.57 365.33"/><polygon class="cls-4" points="933.57 365.33 908.24 351 917.91 349.49 943.24 363.81 933.57 365.33"/><polygon class="cls-3" points="921.37 367.26 896.04 352.94 905.72 351.42 931.04 365.75 921.37 367.26"/><polygon class="cls-4" points="921.37 367.26 896.04 352.94 905.72 351.42 931.04 365.75 921.37 367.26"/><polygon class="cls-3" points="909.16 369.19 883.84 354.87 893.51 353.35 918.84 367.68 909.16 369.19"/><polygon class="cls-4" points="909.16 369.19 883.84 354.87 893.51 353.35 918.84 367.68 909.16 369.19"/><polygon class="cls-3" points="896.97 371.13 871.64 356.8 881.31 355.28 906.64 369.61 896.97 371.13"/><polygon class="cls-4" points="896.97 371.13 871.64 356.8 881.31 355.28 906.64 369.61 896.97 371.13"/><polygon class="cls-3" points="884.76 373.06 859.44 358.73 869.11 357.21 894.44 371.54 884.76 373.06"/><polygon class="cls-4" points="884.76 373.06 859.44 358.73 869.11 357.21 894.44 371.54 884.76 373.06"/><polygon class="cls-3" points="872.56 374.99 847.24 360.66 856.91 359.15 882.24 373.47 872.56 374.99"/><polygon class="cls-4" points="872.56 374.99 847.24 360.66 856.91 359.15 882.24 373.47 872.56 374.99"/><polygon class="cls-3" points="860.36 376.92 835.04 362.6 844.71 361.08 870.04 375.4 860.36 376.92"/><polygon class="cls-4" points="860.36 376.92 835.04 362.6 844.71 361.08 870.04 375.4 860.36 376.92"/><polygon class="cls-3" points="848.16 378.85 822.84 364.53 832.51 363.01 857.84 377.34 848.16 378.85"/><polygon class="cls-4" points="848.16 378.85 822.84 364.53 832.51 363.01 857.84 377.34 848.16 378.85"/><polygon class="cls-3" points="835.96 380.79 810.64 366.46 820.31 364.94 845.64 379.27 835.96 380.79"/><polygon class="cls-4" points="835.96 380.79 810.64 366.46 820.31 364.94 845.64 379.27 835.96 380.79"/><polygon class="cls-3" points="823.76 382.72 798.43 368.39 808.11 366.87 833.44 381.2 823.76 382.72"/><polygon class="cls-4" points="823.76 382.72 798.43 368.39 808.11 366.87 833.44 381.2 823.76 382.72"/><polygon class="cls-3" points="811.56 384.65 786.24 370.32 795.91 368.81 821.24 383.13 811.56 384.65"/><polygon class="cls-4" points="811.56 384.65 786.24 370.32 795.91 368.81 821.24 383.13 811.56 384.65"/><polygon class="cls-3" points="799.36 386.58 774.03 372.25 783.71 370.74 809.04 385.06 799.36 386.58"/><polygon class="cls-4" points="799.36 386.58 774.03 372.25 783.71 370.74 809.04 385.06 799.36 386.58"/><polygon class="cls-5" points="864.82 375.58 854.04 369.48 858.16 368.83 868.94 374.94 864.82 375.58"/><polygon class="cls-4" points="864.82 375.58 854.04 369.48 858.16 368.83 868.94 374.94 864.82 375.58"/><polygon class="cls-5" points="853.13 377.61 842.35 371.51 846.47 370.87 857.25 376.97 853.13 377.61"/><polygon class="cls-4" points="853.13 377.61 842.35 371.51 846.47 370.87 857.25 376.97 853.13 377.61"/><polygon class="cls-5" points="841.44 379.65 830.65 373.55 834.77 372.9 845.56 379 841.44 379.65"/><polygon class="cls-4" points="841.44 379.65 830.65 373.55 834.77 372.9 845.56 379 841.44 379.65"/><polygon class="cls-5" points="887.71 371.96 876.93 365.86 881.05 365.21 891.83 371.31 887.71 371.96"/><polygon class="cls-4" points="887.71 371.96 876.93 365.86 881.05 365.21 891.83 371.31 887.71 371.96"/><polygon class="cls-5" points="876.02 373.99 865.24 367.89 869.36 367.25 880.14 373.35 876.02 373.99"/><polygon class="cls-4" points="876.02 373.99 865.24 367.89 869.36 367.25 880.14 373.35 876.02 373.99"/><polygon class="cls-5" points="827.59 381.91 816.8 375.81 820.92 375.16 831.71 381.26 827.59 381.91"/><polygon class="cls-4" points="827.59 381.91 816.8 375.81 820.92 375.16 831.71 381.26 827.59 381.91"/><polygon class="cls-5" points="815.89 383.94 805.11 377.84 809.23 377.19 820.01 383.3 815.89 383.94"/><polygon class="cls-4" points="815.89 383.94 805.11 377.84 809.23 377.19 820.01 383.3 815.89 383.94"/><polygon class="cls-5" points="925.43 365.94 914.65 359.84 918.77 359.19 929.55 365.3 925.43 365.94"/><polygon class="cls-4" points="925.43 365.94 914.65 359.84 918.77 359.19 929.55 365.3 925.43 365.94"/><polygon class="cls-5" points="913.74 367.98 902.96 361.87 907.08 361.23 917.86 367.33 913.74 367.98"/><polygon class="cls-4" points="913.74 367.98 902.96 361.87 907.08 361.23 917.86 367.33 913.74 367.98"/><polygon class="cls-5" points="902.05 370.01 891.26 363.91 895.38 363.26 906.17 369.36 902.05 370.01"/><polygon class="cls-4" points="902.05 370.01 891.26 363.91 895.38 363.26 906.17 369.36 902.05 370.01"/><polygon class="cls-5" points="948.32 362.32 937.54 356.22 941.66 355.57 952.44 361.68 948.32 362.32"/><polygon class="cls-4" points="948.32 362.32 937.54 356.22 941.66 355.57 952.44 361.68 948.32 362.32"/><polygon class="cls-5" points="936.63 364.35 925.85 358.25 929.97 357.61 940.75 363.71 936.63 364.35"/><polygon class="cls-4" points="936.63 364.35 925.85 358.25 929.97 357.61 940.75 363.71 936.63 364.35"/><polygon class="cls-5" points="986.52 356.3 975.74 350.2 979.86 349.56 990.64 355.66 986.52 356.3"/><polygon class="cls-4" points="986.52 356.3 975.74 350.2 979.86 349.56 990.64 355.66 986.52 356.3"/><polygon class="cls-5" points="974.83 358.33 964.05 352.23 968.17 351.59 978.95 357.69 974.83 358.33"/><polygon class="cls-4" points="974.83 358.33 964.05 352.23 968.17 351.59 978.95 357.69 974.83 358.33"/><polygon class="cls-5" points="963.14 360.37 952.36 354.27 956.48 353.62 967.26 359.72 963.14 360.37"/><polygon class="cls-4" points="963.14 360.37 952.36 354.27 956.48 353.62 967.26 359.72 963.14 360.37"/><polygon class="cls-5" points="1009.41 352.68 998.63 346.58 1002.75 345.93 1013.53 352.04 1009.41 352.68"/><polygon class="cls-4" points="1009.41 352.68 998.63 346.58 1002.75 345.93 1013.53 352.04 1009.41 352.68"/><polygon class="cls-5" points="997.72 354.71 986.94 348.61 991.06 347.97 1001.84 354.07 997.72 354.71"/><polygon class="cls-4" points="997.72 354.71 986.94 348.61 991.06 347.97 1001.84 354.07 997.72 354.71"/><polygon class="cls-5" points="1047.25 346.74 1036.47 340.64 1040.59 339.99 1051.38 346.09 1047.25 346.74"/><polygon class="cls-4" points="1047.25 346.74 1036.47 340.64 1040.59 339.99 1051.38 346.09 1047.25 346.74"/><polygon class="cls-5" points="1035.56 348.77 1024.78 342.67 1028.9 342.02 1039.68 348.12 1035.56 348.77"/><polygon class="cls-4" points="1035.56 348.77 1024.78 342.67 1028.9 342.02 1039.68 348.12 1035.56 348.77"/><polygon class="cls-5" points="1023.87 350.8 1013.09 344.7 1017.21 344.06 1027.99 350.16 1023.87 350.8"/><polygon class="cls-4" points="1023.87 350.8 1013.09 344.7 1017.21 344.06 1027.99 350.16 1023.87 350.8"/><polygon class="cls-2" points="736.63 365.93 706.84 370.21 791.53 387.2 818.53 382.81 736.63 365.93"/><polygon class="cls-2" points="1097.99 411.48 791.53 457.17 791.53 387.2 1097.99 341.5 1097.99 411.48"/><polygon class="cls-2" points="1080 337.57 774.26 383.99 791.53 387.2 1097.99 341.5 1080 337.57"/></svg>