<svg id="Shadow" xmlns="http://www.w3.org/2000/svg" xmlns:xlink="http://www.w3.org/1999/xlink" viewBox="0 0 455.73 599.77"><defs><style>.cls-1,.cls-12,.cls-16,.cls-4{fill:none;}.cls-2,.cls-5,.cls-7{fill:#24265b;}.cls-2{opacity:0.1;isolation:isolate;}.cls-11,.cls-14,.cls-3{fill:#eeb9a9;}.cls-10,.cls-11,.cls-12,.cls-13,.cls-15,.cls-16,.cls-3,.cls-4,.cls-5,.cls-6,.cls-8{stroke:#24265b;}.cls-10,.cls-11,.cls-12,.cls-13,.cls-15,.cls-3,.cls-4,.cls-5,.cls-6,.cls-8{stroke-linecap:round;stroke-linejoin:round;}.cls-10,.cls-16,.cls-3,.cls-4,.cls-5,.cls-8{stroke-width:3px;}.cls-13,.cls-6{fill:#fff;}.cls-6{stroke-width:2.55px;}.cls-8{fill:#cc298e;}.cls-9{clip-path:url(#clip-path);}.cls-10{fill:#d6cf90;}.cls-11,.cls-12,.cls-13,.cls-15{stroke-width:1.61px;}.cls-15{fill:#6183b0;}.cls-16{stroke-miterlimit:10;}</style><clipPath id="clip-path"><circle class="cls-1" cx="233.61" cy="130.98" r="37.28"/></clipPath></defs><title>topic_songaday</title><path class="cls-2" d="M178.68,533.58C163.84,533.58,0,546.35,0,559.93s61.23,34,98.35,34,64.22-12.66,84-12.66,84.07,18.5,107.36,18.5,37.87-25.8,48.53-23.91,117.49,22,117.49,6.38S381.48,563.61,371,558.87s-2.87-6.29-10.22-12.4-39.79-11-53.61-11-77.83,12.25-90.73,12.25S193.56,533.58,178.68,533.58Z"/><path class="cls-3" d="M287.68,287.07c-7.53-70.4-7.53-97.42-6.16-130.23,1.41,6.14,18.84,7.93,20.38-4.52s-2.84-99.56-20-112.6C273,33,244.9,31.07,241.25,20.4A41.18,41.18,0,0,1,239.91,15a32.45,32.45,0,0,1-10.13,1.33c-7.17,0-21.4-8.49-27.42-14.87V3.38c0,15-11.79,25-25.06,28.49C161.73,36,149,45.19,143.81,60.74S124,133.84,124,174.27c0,10.41,29.34,11.88,28.84-2.79-.32-9.24,13.63-40.08,18.21-56.13,3.56,28.44,19.6,50.05,9.36,109.51C173,267.8,290.68,315.53,287.68,287.07Z"/><path class="cls-4" d="M234.19,51.77c4.68,1,7.88,7.09,4.76,11.15-1.87,2.44-5.95,1.88-7.19,1.43s-3.07-.72-3.56-2.89c-.58-2.58,2.12-3.86,3.5-2.61s.81,3.67.06,5.51a7.34,7.34,0,0,1-7.46,4c-4.29-.42-5.9-4.9-4.33-9.53"/><path class="cls-5" d="M276.68,522.71S284.36,443,286.8,405.05c.69-10.78,3.95-89.52.9-118-1.52-14.21-2.73-26.65-3.69-37.73-5.2,8.22-84.49,12.84-106.21.43-1.12,28.83,4.88,47.35,4.31,50.32-.68,3.76-5.72,57.71-7.44,120.61-.89,32.36,4.45,103.46,4.06,105.75l12.07.28c1.8-20,7.09-66.93,11.32-105.11,4.64-41.82,26.61-111.68,28.12-117.46a78.87,78.87,0,0,1,8.92-1.43c1.25,4.65,10,46.83,16.12,93.68s9.4,128.11,9.4,128.11l7,.36Z"/><path class="cls-6" d="M300.74,521.2C290.3,519.46,274,525,274,525c-3.92.8-13.62-2-14.26,1.76s3.49,8.84,3.49,8.84l29,10.54L312.54,537S311.18,523,300.74,521.2Z"/><path class="cls-7" d="M261.78,533.49c-2.68,2.32,4.64,9.29,29.92,14.38,11.78,2.37,25.49-12.06,20.11-14.65-.41,3.66-2-3-5.17-4.13s-9.47,2-8.47,5.31.29,7.82-4,7.91S262.42,537.23,261.78,533.49Z"/><path class="cls-7" d="M264.94,529.09s1,6.88,5.19,5.52c7.38-2.37,19.32,3.87,19.32,3.87s-13.13-9.43-17.44-7.94A6.84,6.84,0,0,1,264.94,529.09Z"/><path class="cls-7" d="M270.12,527a.17.17,0,0,1,0-.1v-.3a3.68,3.68,0,0,1,.28-.91,4.28,4.28,0,0,1,.74-1.09,5,5,0,0,1,1.17-.93,5.86,5.86,0,0,1,.67-.32,5.31,5.31,0,0,1,.68-.2,3.63,3.63,0,0,1,1.23,0,3.13,3.13,0,0,1,.85.22,1.77,1.77,0,0,1,.31.15,1,1,0,0,1,.38,1.36l-.05.08-.11.14-.1.11a2.29,2.29,0,0,1-.23.21c-.14.13-.35.25-.57.41a3.5,3.5,0,0,1-.36.22,2.82,2.82,0,0,1-.38.21c-.26.14-.53.25-.79.37l-.77.36c-.26.11-.48.24-.69.34l-.53.27-.15.06h-.05a.78.78,0,0,1-1.1.08.74.74,0,0,1-.16-.19Z"/><path class="cls-7" d="M273.79,526.11a.17.17,0,0,1,0-.1v-.3a3.68,3.68,0,0,1,.28-.91,4.28,4.28,0,0,1,.74-1.09,5,5,0,0,1,1.17-.93,5.86,5.86,0,0,1,.67-.32,5.31,5.31,0,0,1,.68-.2,3.63,3.63,0,0,1,1.23,0,3.13,3.13,0,0,1,.85.22,1.77,1.77,0,0,1,.31.15,1,1,0,0,1,.38,1.36.56.56,0,0,1-.05.08l-.11.14-.1.11a1.51,1.51,0,0,1-.23.21c-.14.13-.35.25-.57.41a3.5,3.5,0,0,1-.36.22,2.82,2.82,0,0,1-.38.21c-.26.14-.53.25-.79.37l-.77.36c-.26.11-.48.24-.69.34l-.53.27-.15.06h-.05a.78.78,0,0,1-1.1.08.74.74,0,0,1-.16-.19Z"/><path class="cls-7" d="M282.33,526.46a2.67,2.67,0,0,1-.14-.36,3.72,3.72,0,0,1-.18-.94,4.3,4.3,0,0,1,.14-1.38,4.17,4.17,0,0,1,.77-1.53,3.94,3.94,0,0,1,.64-.65,3.2,3.2,0,0,1,.74-.47,3.41,3.41,0,0,1,.76-.26,2.71,2.71,0,0,1,.69-.08,2.62,2.62,0,0,1,.56,0,3.25,3.25,0,0,1,.42.11,2.13,2.13,0,0,1,.35.14,1,1,0,0,1,.38,1.36.91.91,0,0,1-.11.16l-.15.18L287,523c-.13.13-.33.26-.51.43a2.09,2.09,0,0,0-.28.24c-.08.1-.19.15-.26.24s-.17.14-.24.23a1.75,1.75,0,0,0-.24.23,5.27,5.27,0,0,0-.49.57c-.16.22-.31.46-.45.68l-.34.57a1.64,1.64,0,0,0-.14.22.85.85,0,0,1-1.7.09Z"/><path class="cls-7" d="M279,526.58a2.67,2.67,0,0,1-.14-.36,3.72,3.72,0,0,1-.18-.94,4.3,4.3,0,0,1,.14-1.38,4.17,4.17,0,0,1,.77-1.53,3.94,3.94,0,0,1,.64-.65,3.2,3.2,0,0,1,.74-.47,3.41,3.41,0,0,1,.76-.26,3.08,3.08,0,0,1,.68-.08,2.62,2.62,0,0,1,.56,0,3.25,3.25,0,0,1,.42.11,2.13,2.13,0,0,1,.35.14,1,1,0,0,1,.38,1.36.91.91,0,0,1-.11.16l-.15.18-.22.22c-.13.13-.33.26-.51.43a2.09,2.09,0,0,0-.28.24c-.08.1-.19.15-.26.24s-.17.14-.24.23a1.75,1.75,0,0,0-.24.23,5.27,5.27,0,0,0-.49.57c-.16.22-.31.46-.45.68l-.34.57a1.64,1.64,0,0,0-.14.22.85.85,0,0,1-1.69.09Z"/><path class="cls-8" d="M121.28,128.14c0,8.06,28.33,14.1,45.54,14.1.15,15.07.19,42.5.77,63.39.61,22-3.19,37.5-.77,55.26,3.34,24.55,130.13,18.68,127.57,4.6S281.51,168,281.51,155.35c0-5.15,1.22-21.47,1.22-21.47S309,129,309,119c0-25.15-8.23-42.51-14.83-68-3.83-14.79-26.95-19.18-41.41-23.78-2.07-2.59-8.65-5.34-10-4.13,14.63,20.25,6.89,38.25-3.75,47.5-36.24-6.64-48.74-34-44-48.77-.71-2.26-7.21.07-8.19,2.2-17.21,2.84-43.49,11.5-48.09,30.37C131.47,84,123.06,99.12,121.28,128.14Z"/><path class="cls-4" d="M279.37,76.22s5.11,32.67,3.35,57.64"/><path class="cls-4" d="M177.81,88.16c-.71,18.27-6.12,34.86-6.76,47.8-.23,4.68-1.54,6.27-5,6.27"/><path class="cls-4" d="M186.8,24c-5.9,35.66,39.46,53.44,54.34,55.81,11.22-11.14,24.38-26.55,11.64-52.61"/><path class="cls-4" d="M171.06,133.86c-3.2,4.23-50.3-4.31-49.21-12.57"/><path class="cls-4" d="M283.44,128.14c8.15,0,25.57-9.19,25.57-12.94"/><path class="cls-4" d="M166.08,252.58c5,28.44,127.42,20.27,127.42,6.63"/><g class="cls-9"><rect class="cls-10" x="175.38" y="84.25" width="111.18" height="111.18"/><path class="cls-2" d="M208.68,428.67c-7.94,0-95.61,6.84-95.61,14.1S145.8,461,165.68,461s34.36-6.77,44.94-6.77,45,9.9,57.45,9.9,20.26-13.81,26-12.79,62.87,11.75,62.87,3.41-39.73-10-45.33-12.51-1.53-3.37-5.47-6.63-21.29-5.88-28.69-5.88-41.65,6.55-48.55,6.55S216.59,428.67,208.68,428.67Z"/><path class="cls-11" d="M276.68,426.76a3.38,3.38,0,0,1-1,.12c-2.09-1.28-14-3.11-14.66-5.17,0,0,4.11-41.5,5.41-61.82.37-5.77,2.11-47.9.48-63.13-4-37.67-4-52.13-3.3-69.69.76,3.29,10.08,4.24,10.91-2.42s-1.52-53.27-10.7-60.25c-4.75-3.61-19.81-4.63-21.75-10.34-1.29-3.81-1.68-10.85-1.68-13.8s-19.13-5.39-19.13-2.91V145c0,8-6.31,13.37-13.41,15.24-8.33,2.2-15.17,7.13-17.92,15.45s-10.6,39.11-10.6,60.75c0,5.57,15.7,6.36,15.43-1.49-.17-4.94,7.29-21.45,9.74-30,1.9,15.22,10.49,26.78,5,58.6-4,23,1.27,38.24.9,40.25s-3.06,30.88-4,64.54c-.4,17.29,2.46,55.29,2.28,56.55-.36,2.12-12,5.43-13.9,7a3.35,3.35,0,0,1-1,0,1,1,0,0,0-.35,1.92,1.5,1.5,0,0,0,1.18,1.76,1.53,1.53,0,0,0,.3,0h.23a3.44,3.44,0,0,0,4.42,2l.08,0a2.28,2.28,0,0,0,3.15.69l.09-.06c2.1.21,3.91-.91,5.67-2.5,3.69-3.33,8.95-2.05,7.12-6.34a10,10,0,0,1-.56-4.34c1-10.72,3.79-35.82,6.06-56.24,2.48-22.38,14.24-59.76,15-62.85a42.83,42.83,0,0,1,4.78-.76c.67,2.49,5.36,25.06,8.63,50.13s5.1,67.39,5.1,67.39a10.11,10.11,0,0,1,0,4.38c-1.28,4.48,3.77,2.55,7.85,5.39,2,1.36,3.88,2.23,5.94,1.77a2.28,2.28,0,0,0,3.09-.92s0-.05,0-.08a3.23,3.23,0,0,1,2.76-.84,1.67,1.67,0,0,0,1.45-1.75H276a1.5,1.5,0,0,0,1.32-1.66,1.3,1.3,0,0,0-.08-.34,1,1,0,0,0,.36-1.37A1,1,0,0,0,276.68,426.76Z"/><path class="cls-11" d="M269.49,431.06c1,0,2.52.48,2.1,2.12"/><path class="cls-11" d="M272.38,430.41a1.53,1.53,0,0,1,1.38,1.67,1.7,1.7,0,0,1,0,.22"/><path class="cls-11" d="M274.34,429.13a1.53,1.53,0,0,1,1.38,1.67,1.7,1.7,0,0,1,0,.22"/><path class="cls-11" d="M274.77,427.7c1.07.15,2.44.64,2.5.92"/><path class="cls-11" d="M201.46,435.17c-1,.14-2.44.79-1.82,2.37"/><path class="cls-11" d="M198.51,434.89a1.54,1.54,0,0,0-1.14,1.84s0,.11,0,.16"/><path class="cls-11" d="M196.41,433.87a1.54,1.54,0,0,0-1.14,1.84c0,.05,0,.11,0,.16"/><path class="cls-11" d="M195.8,432.51c-1,.29-2.34.94-2.37,1.22"/><path class="cls-11" d="M263.68,184.7c.8,11.8,1.21,20.17,0,42.37"/><path class="cls-12" d="M244.4,185.35c2.5.52,4.22,3.79,2.55,6-1,1.31-3.18,1-3.85.76s-1.64-.38-1.9-1.55a1.22,1.22,0,0,1,1.87-1.4c.74.67.44,2,0,3a3.94,3.94,0,0,1-4,2.15c-2.3-.22-3.16-2.62-2.32-5.1"/><path class="cls-12" d="M248.05,184.34c2.08-1.7,8.24,2.43,3.73,5.44"/><path class="cls-12" d="M233,191.09c1.55,1.21-.4,6.28-3.28,3.55"/><path class="cls-12" d="M244.42,200.36c1,1.79,0,4.56-2.25,4.7-1.32.09-2.29-1.39-2.5-1.92a1.78,1.78,0,0,1-.08-2,1,1,0,0,1,1.38-.32,1,1,0,0,1,.46.71c0,.8-1,1.31-1.76,1.58a3.16,3.16,0,0,1-3.42-1.27c-1.08-1.5-.09-3.3,1.85-4.11"/><path class="cls-12" d="M246.94,205.42a2.39,2.39,0,0,1,2,2.75,2.18,2.18,0,0,1-.27.79,2.27,2.27,0,0,1-2.31.57,1.33,1.33,0,0,1-1.19-.88.75.75,0,0,1,.4-1,.76.76,0,0,1,.69.07,1.64,1.64,0,0,1,.1,1.78,2.38,2.38,0,0,1-2.36,1.41c-1.4-.07-2-1.5-1.54-3"/><path class="cls-12" d="M245.12,197.07c2.21-1.52,8,3.12,3.26,5.74"/><path class="cls-12" d="M229.2,203.75c-1.07-1.65,2.44-5.8,4.27-2.27"/><path class="cls-12" d="M233.55,185c.79-2.8,8.81-2.94,6.68,2.52"/><path class="cls-12" d="M238.76,206.11c-.06,2-5.3,3.38-4.8-.56"/><path class="cls-12" d="M250,194.58c1.36-1.42,6.2,1,3.2,3.62"/><path class="cls-11" d="M208.55,188.42c-.76,4.6-2.79,11.65-4,16.45"/><path class="cls-12" d="M238.33,170.86c2.5.52,4.22,3.79,2.55,6-1,1.31-3.18,1-3.85.76s-1.64-.38-1.9-1.55a1.22,1.22,0,0,1,1.87-1.4c.74.67.44,2,0,3a3.94,3.94,0,0,1-4,2.15c-2.3-.22-3.16-2.62-2.32-5.1"/><path class="cls-7" d="M239.52,102.76s9.81,1.61,12.15,9.52a1,1,0,0,0-1.33,0c.21,1,3.1,4.29,1.58,9.11a2.78,2.78,0,0,0-1.36-1.84C243.41,115.15,239.52,102.76,239.52,102.76Z"/><path class="cls-11" d="M212.17,131.86c.47,2.3,3.16,3.84,5.51,3.84a4.26,4.26,0,0,0,4.26-4.26h0c0-2.35-4.43-4.61-6.78-4.61S211.51,128.58,212.17,131.86Z"/><path class="cls-11" d="M245.15,148.35c-1.48,2.49-4.39,3.57-9.18,3.57s-15.47-7.08-16.14-10.21c-1.49-7-1.6-18.89-3.89-24.76-3-7.67,9-12.65,19.13-12.65,13.85,0,16.69,10,15.71,16.92-.54,3.81-.78,12.18-1,15.67C249.55,141.05,246.41,146.23,245.15,148.35Z"/><path class="cls-13" d="M235.85,129.34c0,2.07-1.81,3.74-4.75,3.74s-5.28-1.67-5.28-3.74,2.43-3.74,5.28-3.74S235.85,127.27,235.85,129.34Z"/><path class="cls-13" d="M230.6,142.21s.66,3.46,5.88,3.3c4.16-.13,3.88-2.38,3.88-2.38"/><path class="cls-13" d="M250.17,128.58c0,2.07-1.81,3.74-4.75,3.74s-5.28-1.67-5.28-3.74,2.43-3.74,5.28-3.74S250.17,126.58,250.17,128.58Z"/><circle class="cls-7" cx="230.78" cy="129.16" r="1.63"/><circle class="cls-7" cx="245.02" cy="128.81" r="1.63"/><path class="cls-12" d="M219,127.42a46.52,46.52,0,0,0,.68,7.16c.33,2,2.3,3.65,3.72,4.75"/><path class="cls-12" d="M214.06,129.82c1.1-.36,2.87,0,4.39,2"/><path class="cls-7" d="M219.68,134.58c-.65-9,2.35-14.77,1.16-15.29-1.73-.76-2.43-12.86,6.72-12.61,3.36-1.28,3.57-4.54,2.49-4.43-5.82.57-14.84,5.24-17.42,9.2a6.85,6.85,0,0,1,1.5.19c-.63,2.45-2,4.16-1.59,6.39a2.76,2.76,0,0,1,1.17-.52c0,2.72,1,6.74,1.48,9.36,1.68.1,2.88.26,2.88,1.76C218,131.06,218.26,133.37,219.68,134.58Z"/><path class="cls-12" d="M230.6,142.21c2.62,1.14,10.41,1.27,11.45,0"/><path class="cls-14" d="M223.37,127.42h12.48a4.65,4.65,0,0,0-4.95-4.35h-.05C226,123.07,223.37,127.42,223.37,127.42Z"/><path class="cls-14" d="M240,127.41s8.72-.23,9.77-.23c.23-3.32-1.28-5-4.67-5S240,127.41,240,127.41Z"/><path class="cls-11" d="M240.68,126.84c-2.07,3.47,2.06,4.22,2.92,8.22.7,3.27-9.47,3-7.38-.52"/><line class="cls-12" x1="226.35" y1="127.71" x2="235.41" y2="127.71"/><line class="cls-12" x1="240.29" y1="127.71" x2="249.84" y2="127.71"/><path class="cls-12" d="M235.07,127.13a1.49,1.49,0,0,1,.69,1.47"/><path class="cls-7" d="M227.52,106.64c.57,1.09,6.52,2.86,10.66,2.47,2.76-.26,4.29-1.9,4.44-3.78.38-4.71-1.39-5.78-3.7-6.13-.92,2.55-2.46-1.28-6.7-.5,1.23,1.69-3,.26-5.62,3C229.25,102.58,226.47,104.58,227.52,106.64Z"/><path class="cls-12" d="M225.88,123.07a6,6,0,0,1,4.6-1.92,4.91,4.91,0,0,1,4.16,1.87"/><path class="cls-12" d="M240.15,122.11a6,6,0,0,1,4.6-1.92,4.91,4.91,0,0,1,4.16,1.87"/><path class="cls-15" d="M177.91,211.72c0,4.31,15.16,7.54,24.37,7.54.08,8.06.1,22.74.41,33.92.33,11.77-1.71,20.07-.41,29.57,1.79,13.13,69.63,10,68.26,2.46s-6.86-52.18-6.86-58.94c0-2.76.65-11.49.65-11.49s14.07-2.64,14.07-8c0-13.46-4.41-22.74-7.93-36.39-2-7.92-14.42-10.26-22.16-12.72-1.11-1.39-4.63-2.85-5.36-2.21,7.83,10.83,3.68,20.47-2,25.42-19.39-3.55-26.08-18.17-23.55-26.1-.38-1.21-3.86,0-4.38,1.18-9.21,1.52-23.27,6.15-25.74,16.25C183.37,188.11,178.87,196.19,177.91,211.72Z"/><path class="cls-12" d="M213,156c-3.16,19.08,21.12,28.6,29.07,29.86,6-6,13-14.21,6.23-28.15"/></g><circle class="cls-16" cx="233.61" cy="130.98" r="37.28"/><path class="cls-6" d="M167.15,527.28c-13.5-.44-18.05,14.81-18.05,14.81s15,12.55,25.17,12.55,21.91-10.92,22.18-15.49-4.27-10.85-9.46-11.9S177.85,527.63,167.15,527.28Z"/><path class="cls-7" d="M196.44,539.16c2.4,4.18-11.8,15.49-22.18,15.49s-27.72-4.14-26.93-12.27c.21-2.11.55-5.18,4.92-6.28-1.15,2.53.62,3.87,1.54,1.24,1.42-4.06,14.71-3,15.07,1.94.18,2.58,1.51,7.55,9.68,7.39S195.29,543.4,196.44,539.16Z"/><path class="cls-7" d="M178.54,542.09s4.24-6.46,7-6.27S188.1,532,188.1,532s4,7.44,0,7.2S178.54,542.09,178.54,542.09Z"/><path class="cls-7" d="M176,525.88a.21.21,0,0,1,.1-.06l.3-.16a4.37,4.37,0,0,1,1-.34,5.52,5.52,0,0,1,1.52-.06,6,6,0,0,1,1.67.43c.26.12.52.25.77.39a5.14,5.14,0,0,1,.67.48,4.84,4.84,0,0,1,1,1.07,3.86,3.86,0,0,1,.45.91,2.38,2.38,0,0,1,.11.38,1,1,0,0,1-.83,1.15.81.81,0,0,1-.31,0h-.12A1.89,1.89,0,0,1,182,530c-.21-.06-.47-.19-.78-.3a4.81,4.81,0,0,1-.46-.22,4.44,4.44,0,0,1-.49-.24c-.33-.16-.65-.35-1-.52s-.66-.33-1-.46l-.9-.37-.64-.29h-.27a.83.83,0,0,1-.81-.85.9.9,0,0,1,.13-.42Z"/><path class="cls-7" d="M169.42,526.15h.45a4,4,0,0,1,1.09,0,5.2,5.2,0,0,1,1.44.48,5.82,5.82,0,0,1,1.41,1,7,7,0,0,1,.58.64,6.24,6.24,0,0,1,.46.68,5,5,0,0,1,.52,1.34,3.74,3.74,0,0,1,.1,1,2.54,2.54,0,0,1,0,.39,1,1,0,0,1-1.17.79.89.89,0,0,1-.31-.11l-.11-.06a1.94,1.94,0,0,1-.29-.21c-.18-.13-.37-.34-.63-.56a2.78,2.78,0,0,1-.36-.37,3.41,3.41,0,0,1-.37-.39c-.25-.27-.49-.56-.74-.83s-.5-.54-.75-.78-.5-.46-.72-.66l-.56-.47a.86.86,0,0,1-.14-.13h-.06a.84.84,0,0,1-.46-1.08.85.85,0,0,1,.27-.35Z"/><path class="cls-7" d="M178.38,531.47l-.29-.21c-.17-.12-.42-.39-.67-.55l-.81-.65-.9-.68c-.61-.42-1.18-.81-1.65-1.16-.23-.18-.44-.32-.59-.45a.44.44,0,0,1-.19-.19.85.85,0,0,1-.25-1.68h.17a3.53,3.53,0,0,1,.46-.17,3.79,3.79,0,0,1,1.11-.13,4.41,4.41,0,0,1,.73.09,4.12,4.12,0,0,1,.78.23,5.34,5.34,0,0,1,1.48.9,6.69,6.69,0,0,1,1.13,1.25l.39.65c.11.22.2.45.29.64a3.56,3.56,0,0,1,.24.92v.36a.94.94,0,0,1-.9,1A.9.9,0,0,1,178.38,531.47Z"/></svg>