<svg id="Shadow" xmlns="http://www.w3.org/2000/svg" viewBox="0 0 1792 768"><defs><style>.cls-1{fill:#24265b;opacity:0.1;}.cls-2{fill:#eeb9a9;}.cls-2,.cls-3,.cls-4,.cls-5{stroke:#24265b;stroke-linecap:round;stroke-linejoin:round;stroke-width:3px;}.cls-3{fill:none;}.cls-4{fill:#8dcc29;}.cls-5{fill:#fff;}</style></defs><title>topic</title><path class="cls-1" d="M867,665c-14.84,0-178.68,12.77-178.68,26.35s61.23,34,98.35,34,64.22-12.66,84-12.66,84.07,18.5,107.36,18.5,37.87-25.8,48.53-23.91,117.49,22,117.49,6.38-74.25-18.63-84.72-23.37-2.87-6.29-10.22-12.4-67.61-14.73-81.44-14.73-50,16-62.91,16S881.88,665,867,665Z"/><path class="cls-2" d="M879.11,658.13c1.8-20,7.09-66.93,11.32-105.11,4.64-41.82,26.61-111.68,28.12-117.46a78.66,78.66,0,0,1,8.92-1.43c1.25,4.65,10,46.83,16.12,93.68s9.44,126,9.44,126a18.65,18.65,0,0,1,0,8.18c-2.39,8.37,7,4.76,14.68,10.08,3.64,2.53,7.26,4.17,11.1,3.3a4.27,4.27,0,0,0,5.85-1.92,6,6,0,0,1,5.15-1.58,3.11,3.11,0,0,0,2.71-3.27,2.8,2.8,0,0,0,2.75-3.68,1.85,1.85,0,0,0-1.1-3.48,6.49,6.49,0,0,1-1.78.23c-3.9-2.4-26.24-5.82-27.4-9.66,0,0,7.68-77.55,10.12-115.53,0.69-10.78,3.95-89.52.9-118-7.53-70.4-7.53-97.42-6.16-130.23,1.41,6.14,18.84,7.93,20.38-4.52s-2.84-99.56-20-112.6c-8.88-6.75-37-8.65-40.65-19.32a40.79,40.79,0,0,1-1.34-5.36,32.43,32.43,0,0,1-10.13,1.33c-7.17,0-21.4-8.49-27.42-14.87v1.88c0,15-11.79,25-25.06,28.49-15.57,4.12-28.35,13.32-33.49,28.87s-19.81,73.1-19.81,113.53c0,10.41,29.34,11.88,28.84-2.79-0.32-9.24,13.63-40.08,18.21-56.13,3.56,28.44,19.6,50.05,9.36,109.51-7.39,43,2.37,71.47,1.69,75.22S864.71,489.2,863,552.1c-0.89,32.36,4.45,103.46,4.06,105.75"/><path class="cls-2" d="M980.73,669.46c1.81,0,4.71.9,3.92,4"/><path class="cls-2" d="M986.14,668.24a2.86,2.86,0,0,1,2.5,3.53"/><path class="cls-2" d="M989.8,665.86a2.86,2.86,0,0,1,2.5,3.53"/><path class="cls-2" d="M990.6,663.2c2,0.28,4.55,1.19,4.67,1.71"/><path class="cls-2" d="M969.82,209.07c1.49,22,2.27,37.69,0,79.19"/><path class="cls-3" d="M933.86,210.27c4.68,1,7.88,7.09,4.76,11.15-1.87,2.44-5.95,1.88-7.19,1.43s-3.07-.72-3.56-2.89c-0.58-2.58,2.12-3.86,3.5-2.61s0.81,3.67.06,5.51a7.35,7.35,0,0,1-7.46,4c-4.29-.42-5.9-4.9-4.33-9.53"/><path class="cls-3" d="M940.67,208.39c3.88-3.19,15.4,4.54,7,10.18"/><path class="cls-3" d="M912.59,221c2.9,2.26-.75,11.73-6.14,6.63"/><path class="cls-3" d="M933.89,238.33c1.89,3.34-.1,8.51-4.2,8.79-2.47.17-4.29-2.59-4.68-3.58s-1.19-2.23-.14-3.68a1.84,1.84,0,0,1,3.44.72c0,1.5-1.78,2.44-3.29,3a5.91,5.91,0,0,1-6.39-2.37c-2-2.81-.17-6.16,3.45-7.67"/><path class="cls-3" d="M938.6,247.8c2.86,0.46,5,4.07,3.19,6.61-1.06,1.53-3.55,1.3-4.31,1.06s-1.88-.35-2.23-1.65a1.39,1.39,0,0,1,2-1.68c0.87,0.72.59,2.2,0.19,3.33a4.45,4.45,0,0,1-4.4,2.64c-2.61-.13-3.71-2.8-2.89-5.65"/><path class="cls-3" d="M935.19,232.19c4.14-2.85,15,5.83,6.09,10.73"/><path class="cls-3" d="M905.44,244.67c-2-3.09,4.57-10.83,8-4.24"/><path class="cls-3" d="M913.58,209.7c1.47-5.23,16.47-5.5,12.48,4.71"/><path class="cls-3" d="M923.32,249.07c-0.11,3.68-9.9,6.32-9-1"/><path class="cls-3" d="M944.33,227.55c2.54-2.66,11.59,1.93,6,6.77"/><path class="cls-2" d="M866.84,216c-1.42,8.61-5.21,21.77-7.47,30.74"/><path class="cls-4" d="M907.73,425.31c-1.5,1.26-2.05,2.24-2.08,4.78s0,6.46,7.18,17.22c3.4,5.1,11,6.73,14.83,2.87,6.22-6.24,11.84-12.44,12.92-16.74s-2.41-6.7-6.72-10c-3.2-2.48,4.47-1.19,8.88,1,2.63,1.28,5.5,1.57,6.21-1.19,1.92-7.42-.24-11.38-1.19-14.36,2.46-1.3-2.19-6.5-6.94-6-2.66.29,3.06-2.52,0.72-4.78s-4.33-5.11-7.68-5.53-7,2.9-9.78,5.53c-7.65-4.78-13.63-7.59-16.74-6.94s-8.61,6.94-5.26,8.85c-5,2.63-12.68,14.11-9.09,15.31-3.59,4.78.59,9.64,4.31,8.61C901.58,422.68,911.72,422,907.73,425.31Z"/><path class="cls-5" d="M923,429.51A135.54,135.54,0,0,0,924,400"/><path class="cls-4" d="M917.21,389.81c1.81,3.5,4.71,6.4,6.74,10.15,0.31-5.06.06-9.32-1.4-11.93C920.66,384.66,915.44,386.38,917.21,389.81Z"/><path class="cls-3" d="M935.22,320.63c-3.3.49-4.2,4.69-4.2,6.42,0,3.52,3.24,3.47,4.2,1.65s0.23-6.09-3.82-4.06"/><path class="cls-3" d="M922.51,183.19c4.68,1,7.88,7.09,4.76,11.15-1.87,2.44-5.95,1.88-7.19,1.43s-3.07-.72-3.56-2.89c-0.58-2.58,2.12-3.86,3.5-2.61s0.81,3.67.06,5.51a7.35,7.35,0,0,1-7.46,4c-4.29-.42-5.9-4.9-4.33-9.53"/><path class="cls-3" d="M922.51,183.19c4.68,1,7.88,7.09,4.76,11.15-1.87,2.44-5.95,1.88-7.19,1.43s-3.07-.72-3.56-2.89c-0.58-2.58,2.12-3.86,3.5-2.61s0.81,3.67.06,5.51a7.35,7.35,0,0,1-7.46,4c-4.29-.42-5.9-4.9-4.33-9.53"/><path class="cls-2" d="M867,657.85c-0.67,4-22.41,10.15-26,13a6.5,6.5,0,0,1-1.8,0,1.85,1.85,0,0,0-.66,3.59,2.8,2.8,0,0,0,2.76,3.35,2.79,2.79,0,0,0,.43,0,6.42,6.42,0,0,0,8.41,3.82,4.26,4.26,0,0,0,6,1.17c3.93,0.39,7.31-1.69,10.6-4.67,6.9-6.23,16.72-3.84,13.3-11.84a18.65,18.65,0,0,1-1-8.12"/><path class="cls-2" d="M853.6,677.16c-1.79.27-4.56,1.48-3.39,4.43"/><path class="cls-2" d="M848.09,676.62a2.86,2.86,0,0,0-2,3.82"/><path class="cls-2" d="M844.16,674.71a2.86,2.86,0,0,0-2,3.82"/><path class="cls-2" d="M843,672.17c-2,.53-4.37,1.75-4.42,2.28"/></svg>