<svg id="Shadow" xmlns="http://www.w3.org/2000/svg" viewBox="0 0 1792 768"><defs><style>.cls-1{fill:#24265b;opacity:0.1;}.cls-2{fill:#6183b0;}.cls-2,.cls-3,.cls-4{stroke:#24265b;stroke-linecap:round;stroke-linejoin:round;stroke-width:3px;}.cls-3{fill:#fff;}.cls-4{fill:none;}</style></defs><title>topic</title><ellipse class="cls-1" cx="910.74" cy="606.39" rx="181" ry="49.02"/><path class="cls-2" d="M910.74,618.47c69.14,0,125.19-11.8,125.19-26.36V427.38H785.54V592.11C785.54,606.67,841.59,618.47,910.74,618.47Z"/><ellipse class="cls-3" cx="910.74" cy="427.38" rx="125.19" ry="26.36"/><path class="cls-3" d="M910.74,606.39c73.46,0,133-12.54,133-28,0-3.36-2.82-6.59-8-9.58a5.77,5.77,0,0,1,.16,1.34c0,14.56-56.05,26.36-125.19,26.36s-125.19-11.8-125.19-26.36a5.77,5.77,0,0,1,.16-1.34c-5.16,3-8,6.21-8,9.58C777.72,593.85,837.27,606.39,910.74,606.39Z"/><path class="cls-3" d="M910.74,462.54c73.46,0,133-12.54,133-28,0-3.36-2.82-6.59-8-9.58a5.77,5.77,0,0,1,.16,1.34c0,14.56-56.05,26.36-125.19,26.36s-125.19-11.8-125.19-26.36a5.77,5.77,0,0,1,.16-1.34c-5.16,3-8,6.21-8,9.58C777.72,450,837.27,462.54,910.74,462.54Z"/><path class="cls-4" d="M1030.51,434c-15.63-10.81-63.34-18.67-119.78-18.67S806.59,423.16,791,434"/><path class="cls-3" d="M864.61,599.8a3.29,3.29,0,0,0,3.29-3.29V580a3.29,3.29,0,0,0-6.59,0V596.5A3.29,3.29,0,0,0,864.61,599.8Z"/><path class="cls-3" d="M864.61,587.72c5.46,0,9.88-1.13,9.88-6.59V558.07a9.88,9.88,0,1,0-19.77,0v23.06C854.73,586.59,859.15,587.72,864.61,587.72Z"/><path class="cls-3" d="M785.54,578.93a3.29,3.29,0,0,0,3.29-3.29V559.17a3.29,3.29,0,0,0-6.59,0v16.47A3.29,3.29,0,0,0,785.54,578.93Z"/><path class="cls-3" d="M788.84,566.85c5.46,0,9.88-1.13,9.88-6.59V537.2a9.88,9.88,0,0,0-19.77,0v23.06C779,565.72,783.38,566.85,788.84,566.85Z"/><path class="cls-3" d="M1035.93,578.93a3.29,3.29,0,0,1-3.29-3.29V559.17a3.29,3.29,0,0,1,6.59,0v16.47A3.29,3.29,0,0,1,1035.93,578.93Z"/><path class="cls-3" d="M1032.63,566.85c-5.46,0-9.88-1.13-9.88-6.59V537.2a9.88,9.88,0,1,1,19.77,0v23.06C1042.52,565.72,1038.09,566.85,1032.63,566.85Z"/><path class="cls-3" d="M956.86,599.8a3.29,3.29,0,0,0,3.29-3.29V580a3.29,3.29,0,1,0-6.59,0V596.5A3.29,3.29,0,0,0,956.86,599.8Z"/><path class="cls-3" d="M956.86,587.72c5.46,0,9.88-1.13,9.88-6.59V558.07a9.88,9.88,0,0,0-19.77,0v23.06C947,586.59,951.4,587.72,956.86,587.72Z"/><path class="cls-3" d="M956.86,454.84a3.29,3.29,0,0,0-3.29,3.29V474.6a3.29,3.29,0,0,0,6.59,0V458.13A3.29,3.29,0,0,0,956.86,454.84Z"/><path class="cls-3" d="M956.86,466.92c-5.46,0-9.88,1.13-9.88,6.59v9.88a9.88,9.88,0,1,0,19.77,0v-9.88C966.74,468,962.32,466.92,956.86,466.92Z"/><path class="cls-3" d="M1035.93,436.17a3.29,3.29,0,0,0-3.29,3.29v16.47a3.29,3.29,0,1,0,6.59,0V439.46A3.29,3.29,0,0,0,1035.93,436.17Z"/><path class="cls-3" d="M1032.63,448.25c-5.46,0-9.88,1.13-9.88,6.59v9.88a9.88,9.88,0,1,0,19.77,0v-9.88C1042.52,449.38,1038.09,448.25,1032.63,448.25Z"/><path class="cls-3" d="M785.54,436.17a3.29,3.29,0,0,1,3.29,3.29v16.47a3.29,3.29,0,0,1-6.59,0V439.46A3.29,3.29,0,0,1,785.54,436.17Z"/><path class="cls-3" d="M788.84,448.25c5.46,0,9.88,1.13,9.88,6.59v9.88a9.88,9.88,0,1,1-19.77,0v-9.88C779,449.38,783.38,448.25,788.84,448.25Z"/><path class="cls-3" d="M864.61,454.84a3.29,3.29,0,0,0-3.29,3.29V474.6a3.29,3.29,0,1,0,6.59,0V458.13A3.29,3.29,0,0,0,864.61,454.84Z"/><path class="cls-3" d="M864.61,466.92c-5.46,0-9.88,1.13-9.88,6.59v9.88a9.88,9.88,0,1,0,19.77,0v-9.88C874.49,468,870.07,466.92,864.61,466.92Z"/><rect class="cls-3" x="884.38" y="509.75" width="52.71" height="26.36" rx="6" ry="6" transform="translate(1821.47 1045.85) rotate(180)"/></svg>