<svg id="Shadow" xmlns="http://www.w3.org/2000/svg" viewBox="0 0 1792 768"><defs><style>.cls-1,.cls-4,.cls-6{fill:#24265b;}.cls-1{opacity:0.1;}.cls-2{fill:#eeb9a9;}.cls-2,.cls-3,.cls-4,.cls-5,.cls-7,.cls-9{stroke:#24265b;stroke-linecap:round;stroke-linejoin:round;}.cls-2,.cls-3,.cls-4,.cls-7,.cls-9{stroke-width:3px;}.cls-3{fill:none;}.cls-5,.cls-8{fill:#fff;}.cls-5{stroke-width:2.55px;}.cls-7{fill:#294ccc;}.cls-9{fill:#d6cf90;}</style></defs><title>topic</title><path class="cls-1" d="M867,665c-14.84,0-178.68,12.77-178.68,26.35s61.23,34,98.35,34,64.22-12.66,84-12.66,84.07,18.5,107.36,18.5,37.87-25.8,48.53-23.91,117.49,22,117.49,6.38-74.25-18.63-84.72-23.37-2.87-6.29-10.22-12.4S972.28,666,958.45,666s-40.77,13.16-53.67,13.16S881.88,665,867,665Z"/><path class="cls-2" d="M976,418.49c-7.53-70.4-7.53-97.42-6.16-130.23,1.41,6.14,18.84,7.93,20.38-4.52s-2.84-99.56-20-112.6c-8.88-6.75-37-8.65-40.65-19.32a40.86,40.86,0,0,1-1.34-5.36,32.42,32.42,0,0,1-10.13,1.33c-7.17,0-21.4-8.49-27.42-14.87v1.88c0,15-11.79,25-25.06,28.49-15.57,4.12-28.35,13.32-33.49,28.87s-19.81,73.1-19.81,113.53c0,10.41,29.34,11.88,28.84-2.79-0.32-9.24,13.63-40.08,18.21-56.13,3.56,28.44,19.6,50.05,9.36,109.51C861.35,399.22,979,446.95,976,418.49Z"/><path class="cls-3" d="M922.51,183.19c4.68,1,7.88,7.09,4.76,11.15-1.87,2.44-5.95,1.88-7.19,1.43s-3.07-.72-3.56-2.89c-0.58-2.58,2.12-3.86,3.5-2.61s0.81,3.67.06,5.51a7.35,7.35,0,0,1-7.46,4c-4.29-.42-5.9-4.9-4.33-9.53"/><path class="cls-4" d="M965,654.13s7.68-79.68,10.12-117.66c0.69-10.78,3.95-89.52.9-118-1.52-14.21-2.73-26.65-3.69-37.73-5.2,8.22-84.49,12.84-106.21.43C865,410,871,428.52,870.43,431.49c-0.68,3.76-5.72,57.71-7.44,120.61-0.89,32.36,4.45,103.46,4.06,105.75l12.07,0.28c1.8-20,7.09-66.93,11.32-105.11,4.64-41.82,26.61-111.68,28.12-117.46a78.68,78.68,0,0,1,8.92-1.43c1.25,4.65,10,46.83,16.12,93.68S953,655.92,953,655.92l7,0.36Z"/><path class="cls-5" d="M989.06,652.62c-10.44-1.74-26.74,3.78-26.74,3.78-3.92.8-13.62-2-14.26,1.76s3.49,8.84,3.49,8.84l29,10.54,20.31-9.08S999.5,654.37,989.06,652.62Z"/><path class="cls-6" d="M950.1,664.91c-2.68,2.32,4.64,9.29,29.92,14.38,11.78,2.37,25.49-12.06,20.11-14.65-0.41,3.66-2-3-5.17-4.13s-9.47,2-8.47,5.31,0.29,7.82-4,7.91S950.74,668.65,950.1,664.91Z"/><path class="cls-6" d="M953.26,660.51s1,6.88,5.19,5.52c7.38-2.37,19.32,3.87,19.32,3.87s-13.13-9.43-17.44-7.94A6.84,6.84,0,0,1,953.26,660.51Z"/><path class="cls-6" d="M958.44,658.41a0.22,0.22,0,0,1,0-.1l0-.3a3.63,3.63,0,0,1,.28-0.91,4.37,4.37,0,0,1,.74-1.09,5,5,0,0,1,1.17-.93,6.25,6.25,0,0,1,.67-0.32,4.56,4.56,0,0,1,.68-0.2,3.86,3.86,0,0,1,1.23,0,3,3,0,0,1,.85.22,2,2,0,0,1,.31.15,1,1,0,0,1,.33,1.44l-0.11.14-0.1.11a2.34,2.34,0,0,1-.23.21c-0.14.13-.35,0.25-0.57,0.41s-0.24.14-.36,0.22a2.55,2.55,0,0,1-.38.21c-0.26.14-.53,0.25-0.79,0.37l-0.77.36c-0.26.11-.48,0.24-0.69,0.34l-0.53.27a0.44,0.44,0,0,1-.15.06,0.08,0.08,0,0,0-.05,0,0.78,0.78,0,0,1-1.26-.11Z"/><path class="cls-6" d="M962.11,657.53a0.22,0.22,0,0,1,0-.1l0-.3a3.61,3.61,0,0,1,.28-0.91,4.38,4.38,0,0,1,.74-1.09,5,5,0,0,1,1.17-.93,6.26,6.26,0,0,1,.67-0.32,4.57,4.57,0,0,1,.68-0.2,3.86,3.86,0,0,1,1.23,0,3,3,0,0,1,.85.22,2.05,2.05,0,0,1,.31.15,1,1,0,0,1,.33,1.44l-0.11.14-0.1.11a2.38,2.38,0,0,1-.23.21c-0.14.13-.35,0.25-0.57,0.41s-0.24.14-.36,0.22a2.55,2.55,0,0,1-.38.21c-0.26.14-.53,0.25-0.79,0.37l-0.77.36c-0.26.11-.48,0.24-0.69,0.34l-0.53.27a0.44,0.44,0,0,1-.15.06,0.08,0.08,0,0,0-.05,0,0.78,0.78,0,0,1-1.26-.11Z"/><path class="cls-6" d="M970.65,657.88a2.29,2.29,0,0,1-.14-0.36,3.92,3.92,0,0,1-.18-0.94,4.47,4.47,0,0,1,.14-1.38,4.29,4.29,0,0,1,.77-1.53,3.74,3.74,0,0,1,.64-0.65,3.48,3.48,0,0,1,.74-0.48,3.38,3.38,0,0,1,.76-0.26,2.75,2.75,0,0,1,.68-0.08,2.16,2.16,0,0,1,.56,0,3.35,3.35,0,0,1,.42.11,2.13,2.13,0,0,1,.35.14,1,1,0,0,1,.27,1.52l-0.15.18a2.7,2.7,0,0,1-.22.22c-0.13.13-.33,0.26-0.51,0.43a2.68,2.68,0,0,0-.28.24c-0.08.1-.19,0.15-0.26,0.24s-0.17.14-.24,0.23a2.31,2.31,0,0,0-.24.23,4.69,4.69,0,0,0-.49.57c-0.16.22-.31,0.46-0.45,0.68l-0.34.57a1.64,1.64,0,0,0-.14.22A0.85,0.85,0,0,1,970.65,657.88Z"/><path class="cls-6" d="M967.3,658a2.26,2.26,0,0,1-.14-0.36,3.92,3.92,0,0,1-.18-0.94,4.47,4.47,0,0,1,.14-1.38,4.29,4.29,0,0,1,.77-1.53,3.74,3.74,0,0,1,.64-0.65,3.48,3.48,0,0,1,.74-0.48,3.38,3.38,0,0,1,.76-0.26,2.75,2.75,0,0,1,.69-0.08,2.16,2.16,0,0,1,.56,0,3.31,3.31,0,0,1,.42.11,2.13,2.13,0,0,1,.35.14,1,1,0,0,1,.4,1.34,1,1,0,0,1-.12.18l-0.15.18a2.73,2.73,0,0,1-.22.22c-0.13.13-.33,0.26-0.51,0.43a2.67,2.67,0,0,0-.28.24c-0.08.1-.19,0.15-0.26,0.24s-0.17.14-.24,0.23a2.31,2.31,0,0,0-.24.23,4.65,4.65,0,0,0-.49.57c-0.16.22-.31,0.46-0.45,0.68l-0.34.57a1.65,1.65,0,0,0-.14.22A0.85,0.85,0,0,1,967.3,658Z"/><path class="cls-7" d="M809.6,259.56c0,8.06,28.33,14.1,45.54,14.1,0.15,15.07.19,42.5,0.77,63.39,0.61,22-3.19,37.5-.77,55.26,3.34,24.55,130.13,18.68,127.57,4.6s-12.88-97.51-12.88-110.14c0-5.15,1.22-21.47,1.22-21.47s26.29-4.93,26.29-14.92c0-25.15-8.23-42.51-14.83-68-3.83-14.79-26.95-19.18-41.41-23.78-2.07-2.59-8.65-5.34-10-4.13,14.63,20.25,6.89,38.25-3.75,47.5-36.24-6.64-48.74-34-44-48.77-0.71-2.26-7.21.07-8.19,2.2-17.21,2.84-43.49,11.5-48.09,30.37C819.79,215.43,811.38,230.54,809.6,259.56Z"/><path class="cls-3" d="M967.69,207.64s5.11,32.67,3.35,57.64"/><path class="cls-3" d="M866.13,219.58c-0.71,18.27-6.12,34.86-6.76,47.8-0.23,4.68-1.54,6.27-5,6.27"/><path class="cls-3" d="M875.12,155.39c-5.9,35.66,39.46,53.44,54.34,55.81,11.22-11.14,24.38-26.55,11.64-52.61"/><path class="cls-3" d="M859.38,265.28c-3.2,4.23-50.3-4.31-49.21-12.57"/><path class="cls-3" d="M971.76,259.56c8.15,0,25.57-9.19,25.57-12.94"/><path class="cls-6" d="M871.11,238.7c-1.19,4,.12,28.5,2.19,38.32,14.16,2.2,71-3,95.1-8.7,0-8.06-.82-24.61-2.24-32.58C951,233.05,885.39,234.54,871.11,238.7Z"/><path class="cls-3" d="M854.4,384c5,28.44,127.42,20.27,127.42,6.63"/><path class="cls-8" d="M879.91,253.34l-0.12,2.13,0.05,0.72a43.25,43.25,0,0,0,.48,4.63q0.23,1.12.46,2a7.69,7.69,0,0,0,.53,1.5,7.46,7.46,0,0,0,.69,1.15,2.21,2.21,0,0,0,2,1,2.42,2.42,0,0,0,1.25-.63,2.39,2.39,0,0,1,1.13-.62,1.28,1.28,0,0,1,.89.4,2.26,2.26,0,0,1-1.58,2.29,5.43,5.43,0,0,1-1.84.44,3.38,3.38,0,0,1-1.74-.29,3.76,3.76,0,0,1-1.25-1,6.32,6.32,0,0,1-.94-1.59,15.33,15.33,0,0,1-.7-2q-0.25-1-.46-2.28-0.33-2.17-.52-4.76l-0.22-3.61a15.32,15.32,0,0,1,0-2.8,5.26,5.26,0,0,1-.15-0.94,3.58,3.58,0,0,1,1.18-3.05,5.34,5.34,0,0,1,3.34-1.34,2.77,2.77,0,0,1,1.44.31,1.21,1.21,0,0,1,.77,1,0.58,0.58,0,0,1-.21.52,1.53,1.53,0,0,1-.84.24,0.88,0.88,0,0,1-.84-0.31h0l-0.41,0v-0.07a2.53,2.53,0,0,0-2.31,1.26,7.29,7.29,0,0,0-.35,3.49Z"/><path class="cls-8" d="M888,258.3L888,257.15c0-.1,0-0.15-0.05-0.14l0-.55a29,29,0,0,1,.08-6.79,5.09,5.09,0,0,1,.74-2.16,1.25,1.25,0,0,1,.81-0.46,4.86,4.86,0,0,1,5.08,3.2,14.31,14.31,0,0,1,1.12,5l0,0.22,0.3,3.42q0.6,8.69-3.42,9a2.78,2.78,0,0,1-2.68-1.67,11,11,0,0,1-1.27-3.41A38.4,38.4,0,0,1,888,258.3Zm1.5-4.25,0,2.8a36.4,36.4,0,0,0,1.24,7.59,4.38,4.38,0,0,0,1.59,2.14,1.37,1.37,0,0,0,1-.51,3.05,3.05,0,0,0,.62-1.24,13.21,13.21,0,0,0,.33-1.6,17.23,17.23,0,0,0,.13-1.76c0-1.08,0-2,0-2.75s-0.2-1.91-.44-3.47-0.39-2.71-.44-3.48l0-.53a3.21,3.21,0,0,0-.86-1.92,2.17,2.17,0,0,0-1.83-.74,1.38,1.38,0,0,0-1.29,1.26,8.88,8.88,0,0,0-.11,2.42Z"/><path class="cls-8" d="M897.61,254.63L897.39,249a2.64,2.64,0,0,1,1-2.3v0.19a0.43,0.43,0,0,1,.22-0.09q0.71,0,1.94,2.32a45.48,45.48,0,0,1,2.29,5.22q1.06,2.86,2.11,5.77t1.3,3.41q0.16-6.37-.46-15.36l-0.1-.81a0.74,0.74,0,0,1,.69-1,0.7,0.7,0,0,1,.67.31,1.56,1.56,0,0,1,.27.81l0.16,2.29q0.22,3.56.34,9.51t-0.31,6.75a4.8,4.8,0,0,1-1.12.33,0.58,0.58,0,0,1-.5-0.18,1.68,1.68,0,0,1-.32-0.64,3.35,3.35,0,0,0-.22-0.58v-0.13q-0.08-1.12-2.67-7t-3.71-8l1.06,15.2,0.13,0.2a1.21,1.21,0,0,1,.23.59,0.82,0.82,0,0,1-.23.58,0.87,0.87,0,0,1-.62.33q-1,.07-1.12-1.77Z"/><path class="cls-8" d="M913.46,265.32L913.24,263s0-.35,0-1q-0.14-.37-1-6.78t-0.94-7.83H911.2q-2.45.13-2.51-.73a0.54,0.54,0,0,1,.29-0.49,1.3,1.3,0,0,1,.62-0.23h4.12l0.49,0q0.94-.07,1,0.66a0.71,0.71,0,0,1-.27.62,1.15,1.15,0,0,1-.68.28l-1.4-.11,0,0.31q0.2,2.86,1.1,8.53t1.1,8.55a0.8,0.8,0,0,1-.28.65,1.08,1.08,0,0,1-.69.32Z"/><path class="cls-8" d="M917.18,250.23l-0.34-2.54q-0.15-2.14,1.12-2.23a9.05,9.05,0,0,1,2.24.22q1.43,0.28,1.47.87a1.08,1.08,0,0,1-.82,1,11.9,11.9,0,0,0-2.33-.42q0.09,0.65.13,1.29l0.17,4.34s0,0.18.12,0.47l1.07-.12q1.46-.1,1.52.72a0.75,0.75,0,0,1-.23.59,1,1,0,0,1-.65.29,7,7,0,0,1-.88,0l-0.77.05q0.17,1.14.25,2.28l0.25,5.48a9.32,9.32,0,0,0,.18,1.69l2.22-.23q1.15-.08,1.2.66a0.7,0.7,0,0,1-.35.69,2,2,0,0,1-.89.27l-2.55.18a1.1,1.1,0,0,1-.74-0.22,0.87,0.87,0,0,1-.39-0.63l-0.06-.8-0.55-5.09Z"/><path class="cls-8" d="M924.66,263.75l1.27,0.13a1.28,1.28,0,0,0,1-.57,3.19,3.19,0,0,0,.55-1.3,9.84,9.84,0,0,0,.22-2.58,6.86,6.86,0,0,0-.52-2.18,11.31,11.31,0,0,0-1-2q-0.6-.9-1.2-1.83a9.33,9.33,0,0,1-1.58-4.42,6,6,0,0,1,.29-2.44q0.72-2,2.14-2.1a1.72,1.72,0,0,1,1,.27,0.94,0.94,0,0,1,.53.7,0.63,0.63,0,0,1-.69.74,1.27,1.27,0,0,1-.65-0.13q-1,.11-1.15,2.23a6.91,6.91,0,0,0,0,1.07,5.55,5.55,0,0,0,.37,1.49,7.37,7.37,0,0,0,.78,1.55q0.46,0.67,1,1.49t1,1.58a9,9,0,0,1,1.22,4.15,7.43,7.43,0,0,1-.6,3.55,3.54,3.54,0,0,1-1.08,1.43,3.07,3.07,0,0,1-1.7.66v0.07a1.35,1.35,0,0,1-1.44-1.07Z"/><path class="cls-8" d="M934,263.89l-0.22-2.31s0-.35,0-1q-0.14-.37-1-6.78t-0.94-7.83h-0.12q-2.45.13-2.51-.73a0.54,0.54,0,0,1,.29-0.49,1.28,1.28,0,0,1,.62-0.23h4.12l0.49,0q0.94-.06,1,0.66a0.71,0.71,0,0,1-.27.62,1.14,1.14,0,0,1-.68.28l-1.4-.11,0,0.31q0.2,2.86,1.1,8.53t1.1,8.54a0.8,0.8,0,0,1-.28.65,1.07,1.07,0,0,1-.69.32Z"/><path class="cls-8" d="M944.72,257.47l0.45,1.84a12.9,12.9,0,0,0,.41,1.78,12.43,12.43,0,0,1,.42,1.85v0a0.81,0.81,0,0,1-.44.89,2,2,0,0,1-1-.14,0.85,0.85,0,0,1-.41-0.77,22.68,22.68,0,0,0-.7-3.7l-3-.24a14.9,14.9,0,0,0-.28,2.23A16.56,16.56,0,0,1,940,263a1.14,1.14,0,0,1-.91,1.19,1.06,1.06,0,0,1-.67-0.18,0.7,0.7,0,0,1-.34-0.56l0.05-.27a128.88,128.88,0,0,0,2-15.51q0-.21,0-1.22a6.74,6.74,0,0,1,.36-2.86l1-.07a1.35,1.35,0,0,1,.74.14,0.63,0.63,0,0,1,.35.55,55.85,55.85,0,0,0,1.09,6.78A55.43,55.43,0,0,1,944.72,257.47Zm-1.54.71a9.21,9.21,0,0,1-.2-1.53q-0.08-1.1-.32-2.72t-0.63-3.76q-0.38-2.14-.54-3.11-0.84,7.69-1,10.83A7.08,7.08,0,0,0,943.19,258.18Z"/><path class="cls-8" d="M946.76,251.2l-0.22-5.64a2.64,2.64,0,0,1,1-2.3v0.19a0.43,0.43,0,0,1,.22-0.09q0.71,0,1.94,2.32A45.48,45.48,0,0,1,952,250.9q1.06,2.86,2.11,5.77t1.3,3.41q0.16-6.37-.46-15.36l-0.1-.81a0.74,0.74,0,0,1,.69-1,0.7,0.7,0,0,1,.67.31,1.57,1.57,0,0,1,.27.81l0.16,2.29q0.22,3.56.34,9.51t-0.31,6.75a4.75,4.75,0,0,1-1.12.33,0.58,0.58,0,0,1-.5-0.18,1.69,1.69,0,0,1-.32-0.64,3.24,3.24,0,0,0-.22-0.58v-0.13q-0.08-1.12-2.66-7t-3.71-8l1.06,15.2,0.13,0.2a1.2,1.2,0,0,1,.23.59,0.82,0.82,0,0,1-.23.58,0.87,0.87,0,0,1-.62.32q-1,.07-1.12-1.77Z"/><path class="cls-8" d="M962.62,261.89l-0.22-2.31s0-.35,0-1q-0.14-.37-1-6.78t-0.94-7.83h-0.12q-2.45.13-2.51-.73a0.54,0.54,0,0,1,.29-0.49,1.3,1.3,0,0,1,.62-0.23h4.12l0.49,0a0.76,0.76,0,0,1,1,.66,0.71,0.71,0,0,1-.27.62,1.15,1.15,0,0,1-.68.28l-1.4-.11,0,0.31q0.2,2.86,1.1,8.53t1.1,8.55a0.8,0.8,0,0,1-.28.65,1.08,1.08,0,0,1-.69.32Z"/><circle class="cls-9" cx="893.29" cy="225.43" r="15.11" transform="translate(-19.17 98.15) rotate(-6.22)"/><polygon class="cls-9" points="892.25 206.15 886.38 217.64 877.14 220 883.48 229 882.64 241.56 894.53 236.57 907.42 238.63 902.69 226.48 908.38 217.88 899.43 216.28 892.25 206.15"/><path class="cls-3" d="M888.67,224.86a19.36,19.36,0,0,0,5.07-6.84s-0.39,4.46.91,14.08"/><path class="cls-3" d="M889.55,232.9a50.43,50.43,0,0,1,9-1.1"/><path class="cls-5" d="M855.47,658.7c-13.5-.44-18.05,14.81-18.05,14.81s15,12.55,25.17,12.55,21.91-10.92,22.18-15.49-4.27-10.85-9.46-11.9S866.17,659.05,855.47,658.7Z"/><path class="cls-6" d="M884.76,670.58c2.4,4.18-11.8,15.49-22.18,15.49s-27.72-4.14-26.93-12.27c0.21-2.11.55-5.18,4.92-6.28-1.15,2.53.62,3.87,1.54,1.24,1.42-4.06,14.71-3,15.07,1.94,0.18,2.58,1.51,7.55,9.68,7.39S883.61,674.82,884.76,670.58Z"/><path class="cls-6" d="M866.86,673.51s4.24-6.46,7-6.27,2.56-3.79,2.56-3.79,4,7.44,0,7.2S866.86,673.51,866.86,673.51Z"/><path class="cls-6" d="M864.28,657.3a0.3,0.3,0,0,1,.1-0.06l0.3-.16a4.36,4.36,0,0,1,1-.34,5.27,5.27,0,0,1,1.52-.06,6.09,6.09,0,0,1,1.67.43,7.78,7.78,0,0,1,.77.39,5.83,5.83,0,0,1,.67.48,4.88,4.88,0,0,1,1,1.07,3.69,3.69,0,0,1,.45.91,2.52,2.52,0,0,1,.11.38,1,1,0,0,1-1.14,1.15l-0.12,0a2.82,2.82,0,0,1-.34-0.09c-0.21-.06-0.47-0.19-0.78-0.3-0.16-.06-0.3-0.14-0.46-0.22a3.87,3.87,0,0,1-.49-0.24c-0.33-.16-0.65-0.35-1-0.52s-0.66-.33-1-0.46-0.63-.26-0.9-0.37L865,659l-0.18-.07a0.13,0.13,0,0,0-.07,0,0.83,0.83,0,0,1-.68-1.27Z"/><path class="cls-6" d="M857.74,657.57l0.11,0,0.34,0a4.36,4.36,0,0,1,1.09,0,5.27,5.27,0,0,1,1.44.48,6.09,6.09,0,0,1,1.41,1,7.72,7.72,0,0,1,.58.64,5.88,5.88,0,0,1,.46.68,4.9,4.9,0,0,1,.52,1.34,3.7,3.7,0,0,1,.1,1,2.58,2.58,0,0,1,0,.39,1,1,0,0,1-1.48.68l-0.11-.06a2.85,2.85,0,0,1-.29-0.21c-0.18-.13-0.37-0.34-0.62-0.56s-0.23-.24-0.36-0.37a3.9,3.9,0,0,1-.37-0.39c-0.25-.27-0.49-0.56-0.74-0.83s-0.5-.54-0.75-0.78-0.5-.46-0.72-0.66l-0.56-.47a0.78,0.78,0,0,1-.14-0.13,0.13,0.13,0,0,0-.06,0,0.83,0.83,0,0,1-.19-1.43Z"/><path class="cls-6" d="M866.7,662.89l-0.29-.21c-0.17-.12-0.42-0.39-0.67-0.55l-0.81-.65-0.9-.68c-0.61-.42-1.18-0.81-1.65-1.16-0.23-.18-0.44-0.32-0.59-0.45a0.49,0.49,0,0,1-.19-0.19,0.85,0.85,0,1,1-.08-1.69s0.19-.09.46-0.17a3.62,3.62,0,0,1,1.11-.13,4.52,4.52,0,0,1,.73.09,4,4,0,0,1,.78.23,5.52,5.52,0,0,1,1.48.9,6.74,6.74,0,0,1,1.13,1.25l0.39,0.65c0.11,0.22.2,0.45,0.29,0.64a3.64,3.64,0,0,1,.24.92c0,0.22,0,.36,0,0.36A0.94,0.94,0,0,1,866.7,662.89Z"/></svg>