<svg id="Shadow" xmlns="http://www.w3.org/2000/svg" viewBox="0 0 1792 768"><defs><style>.cls-1,.cls-10,.cls-8{fill:#24265b;}.cls-1{opacity:0.1;}.cls-2{fill:#eeb9a9;}.cls-11,.cls-12,.cls-13,.cls-2,.cls-3,.cls-4,.cls-5,.cls-6,.cls-7,.cls-8,.cls-9{stroke:#24265b;stroke-linecap:round;stroke-linejoin:round;}.cls-11,.cls-12,.cls-13,.cls-2,.cls-3,.cls-4,.cls-5,.cls-6,.cls-7,.cls-8{stroke-width:3px;}.cls-3{fill:none;}.cls-4{fill:#6183b0;}.cls-5{fill:#d6cf90;}.cls-6{fill:#cc2929;}.cls-7{fill:#93acb8;}.cls-13,.cls-9{fill:#fff;}.cls-9{stroke-width:2.55px;}.cls-11{fill:#29cc29;}.cls-12{fill:#b0b0b0;}</style></defs><title>topic</title><path class="cls-1" d="M867,665c-14.84,0-178.68,12.77-178.68,26.35s61.23,34,98.35,34,64.22-12.66,84-12.66,84.07,18.5,107.36,18.5,37.87-25.8,48.53-23.91,117.49,22,117.49,6.38-74.25-18.63-84.72-23.37-2.87-6.29-10.22-12.4-39.79-11-53.61-11-77.83,12.25-90.73,12.25S881.88,665,867,665Z"/><ellipse class="cls-1" cx="686.05" cy="660.31" rx="23.95" ry="6.97"/><path class="cls-1" d="M1169,676.16c-10,9.91-25.39,1.1-43.52,3.39,0,12-44.65,13.63-49.34,5.51-22.62-3.9-35.46-27.47-50.74-27.63-43.58-.44-58.48-19.71-47.62-19.57s80.91-6.54,103.92-5.4S1184.34,661,1169,676.16Z"/><path class="cls-2" d="M976,418.49c-7.53-70.4-7.53-97.42-6.16-130.23,1.41,6.14,18.84,7.93,20.38-4.52s-2.84-99.56-20-112.6c-8.88-6.75-37-8.65-40.65-19.32a40.86,40.86,0,0,1-1.34-5.36,32.42,32.42,0,0,1-10.13,1.33c-7.17,0-21.4-8.49-27.42-14.87v1.88c0,15-11.79,25-25.06,28.49-15.57,4.12-28.35,13.32-33.49,28.87s-19.81,73.1-19.81,113.53c0,10.41,29.34,11.88,28.84-2.79-0.32-9.24,13.63-40.08,18.21-56.13,3.56,28.44,19.6,50.05,9.36,109.51C861.35,399.22,979,446.95,976,418.49Z"/><path class="cls-3" d="M922.51,183.19c4.68,1,7.88,7.09,4.76,11.15-1.87,2.44-5.95,1.88-7.19,1.43s-3.07-.72-3.56-2.89c-0.58-2.58,2.12-3.86,3.5-2.61s0.81,3.67.06,5.51a7.35,7.35,0,0,1-7.46,4c-4.29-.42-5.9-4.9-4.33-9.53"/><polygon class="cls-4" points="940.26 640.4 940.26 671.89 967.48 667.43 967.48 636.57 940.26 640.4"/><polygon class="cls-5" points="940.26 640.4 940.26 671.89 916.51 667.43 916.51 636.57 940.26 640.4"/><polygon class="cls-6" points="940.26 640.4 967.48 636.57 943.41 632.46 916.51 636.57 940.26 640.4"/><circle class="cls-6" cx="817.62" cy="610.67" r="53.31"/><polygon class="cls-4" points="754.87 643.96 754.87 675.45 782.08 670.98 782.08 640.12 754.87 643.96"/><polygon class="cls-5" points="754.87 643.96 754.87 675.45 731.12 670.98 731.12 640.12 754.87 643.96"/><polygon class="cls-6" points="754.87 643.96 782.08 640.12 758.02 636.02 731.12 640.12 754.87 643.96"/><polygon class="cls-6" points="825.09 641.7 825.09 673.19 852.3 668.73 852.3 637.87 825.09 641.7"/><polygon class="cls-7" points="825.09 641.7 825.09 673.19 801.34 668.73 801.34 637.87 825.09 641.7"/><polygon class="cls-5" points="825.09 641.7 852.3 637.87 828.24 633.76 801.34 637.87 825.09 641.7"/><path class="cls-8" d="M965,654.13s7.68-79.68,10.12-117.66c0.69-10.78,3.95-89.52.9-118-1.52-14.21-2.73-26.65-3.69-37.73-5.2,8.22-84.49,12.84-106.21.43C865,410,871,428.52,870.43,431.49c-0.68,3.76-5.72,57.71-7.44,120.61-0.89,32.36,4.45,103.46,4.06,105.75l12.07,0.28c1.8-20,7.09-66.93,11.32-105.11,4.64-41.82,26.61-111.68,28.12-117.46a78.68,78.68,0,0,1,8.92-1.43c1.25,4.65,10,46.83,16.12,93.68S953,655.92,953,655.92l7,0.36Z"/><path class="cls-9" d="M989.06,652.62c-10.44-1.74-26.74,3.78-26.74,3.78-3.92.8-13.62-2-14.26,1.76s3.49,8.84,3.49,8.84l29,10.54,20.31-9.08S999.5,654.37,989.06,652.62Z"/><path class="cls-10" d="M950.1,664.91c-2.68,2.32,4.64,9.29,29.92,14.38,11.78,2.37,25.49-12.06,20.11-14.65-0.41,3.66-2-3-5.17-4.13s-9.47,2-8.47,5.31,0.29,7.82-4,7.91S950.74,668.65,950.1,664.91Z"/><path class="cls-10" d="M953.26,660.51s1,6.88,5.19,5.52c7.38-2.37,19.32,3.87,19.32,3.87s-13.13-9.43-17.44-7.94A6.84,6.84,0,0,1,953.26,660.51Z"/><path class="cls-10" d="M958.44,658.41a0.22,0.22,0,0,1,0-.1l0-.3a3.63,3.63,0,0,1,.28-0.91,4.37,4.37,0,0,1,.74-1.09,5,5,0,0,1,1.17-.93,6.27,6.27,0,0,1,.67-0.32,4.57,4.57,0,0,1,.68-0.2,3.86,3.86,0,0,1,1.23,0,3,3,0,0,1,.85.22,2,2,0,0,1,.31.15,1,1,0,0,1,.33,1.44l-0.11.14-0.1.11a2.35,2.35,0,0,1-.23.21c-0.14.13-.35,0.25-0.57,0.41s-0.24.14-.36,0.22a2.55,2.55,0,0,1-.38.21c-0.26.14-.53,0.25-0.79,0.37l-0.77.36c-0.26.11-.48,0.24-0.69,0.34l-0.53.27a0.44,0.44,0,0,1-.15.06,0.08,0.08,0,0,0-.05,0,0.78,0.78,0,0,1-1.26-.11Z"/><path class="cls-10" d="M962.11,657.53a0.22,0.22,0,0,1,0-.1l0-.3a3.63,3.63,0,0,1,.28-0.91,4.37,4.37,0,0,1,.74-1.09,5,5,0,0,1,1.17-.93,6.27,6.27,0,0,1,.67-0.32,4.58,4.58,0,0,1,.68-0.2,3.86,3.86,0,0,1,1.23,0,3,3,0,0,1,.85.22,2,2,0,0,1,.31.15,1,1,0,0,1,.33,1.44l-0.11.14-0.1.11a2.35,2.35,0,0,1-.23.21c-0.14.13-.35,0.25-0.57,0.41s-0.24.14-.36,0.22a2.56,2.56,0,0,1-.38.21c-0.26.14-.53,0.25-0.79,0.37l-0.77.36c-0.26.11-.48,0.24-0.69,0.34l-0.53.27a0.44,0.44,0,0,1-.15.06,0.08,0.08,0,0,0-.05,0,0.78,0.78,0,0,1-1.26-.11Z"/><path class="cls-10" d="M975.57,654.18l-0.27.18-0.31.18a0.84,0.84,0,0,0-.28.22,2.61,2.61,0,0,0-.25.23,2.18,2.18,0,0,0-.27.25c-0.07.1-.17,0.16-0.23,0.26a2.25,2.25,0,0,0-.21.27c-0.08.08-.12,0.2-0.2,0.29l-0.2.32c-0.07.11-.14,0.22-0.22,0.33s-0.14.23-.22,0.33-0.28.41-.39,0.55a0.78,0.78,0,0,1-.18.2l-0.83.58a0.55,0.55,0,0,1-.87-0.48,3.3,3.3,0,0,1-.41-1.33,3.79,3.79,0,0,1,.15-1.4,4.07,4.07,0,0,1,.85-1.5,4.18,4.18,0,0,1,1.42-1.05,5.3,5.3,0,0,1,.75-0.24,4,4,0,0,1,.72-0.09,2,2,0,0,1,.56,0l0.35,0.09,0.31,0.1A1,1,0,0,1,975.57,654.18Z"/><path class="cls-10" d="M967.3,658a2.3,2.3,0,0,1-.14-0.36,3.91,3.91,0,0,1-.18-0.94,4.46,4.46,0,0,1,.14-1.38,4.29,4.29,0,0,1,.77-1.53,3.73,3.73,0,0,1,.64-0.65,3.47,3.47,0,0,1,.74-0.48,3.38,3.38,0,0,1,.76-0.26,2.76,2.76,0,0,1,.68-0.08,2.16,2.16,0,0,1,.56,0,3.34,3.34,0,0,1,.42.11,2.14,2.14,0,0,1,.35.14,1,1,0,0,1,.27,1.52l-0.15.18a2.7,2.7,0,0,1-.22.22c-0.13.13-.33,0.26-0.51,0.43a2.69,2.69,0,0,0-.28.24c-0.08.1-.19,0.15-0.26,0.24s-0.17.14-.24,0.23a2.31,2.31,0,0,0-.24.23,4.66,4.66,0,0,0-.49.57c-0.16.22-.31,0.46-0.45,0.68l-0.34.57a1.64,1.64,0,0,0-.14.22A0.85,0.85,0,1,1,967.3,658Z"/><path class="cls-11" d="M809.6,259.56c0,8.06,28.33,14.1,45.54,14.1,0.15,15.07.19,42.5,0.77,63.39,0.61,22-3.19,37.5-.77,55.26,3.34,24.55,130.13,18.68,127.57,4.6s-12.88-97.51-12.88-110.14c0-5.15,1.22-21.47,1.22-21.47s26.29-4.93,26.29-14.92c0-25.15-8.23-42.51-14.83-68-3.83-14.79-26.95-19.18-41.41-23.78-2.07-2.59-8.65-5.34-10-4.13,14.63,20.25,6.89,38.25-3.75,47.5-36.24-6.64-48.74-34-44-48.77-0.71-2.26-7.21.07-8.19,2.2-17.21,2.84-43.49,11.5-48.09,30.37C819.79,215.43,811.38,230.54,809.6,259.56Z"/><path class="cls-3" d="M967.69,207.64s5.11,32.67,3.35,57.64"/><path class="cls-3" d="M866.13,219.58c-0.71,18.27-6.12,34.86-6.76,47.8-0.23,4.68-1.54,6.27-5,6.27"/><path class="cls-3" d="M875.12,155.39c-5.9,35.66,39.46,53.44,54.34,55.81,11.22-11.14,24.38-26.55,11.64-52.61"/><path class="cls-3" d="M859.38,265.28c-3.2,4.23-50.3-4.31-49.21-12.57"/><path class="cls-3" d="M971.76,259.56c8.15,0,25.57-9.19,25.57-12.94"/><path class="cls-3" d="M854.4,384c5,28.44,127.42,20.27,127.42,6.63"/><path class="cls-8" d="M1126.33,500.79c3.07-.72,10.84-2,13.87-2.31s3.73,4.86.71,5.81-7.7,3.58-10.29,4.17C1126.43,509.42,1122.36,501.72,1126.33,500.79Z"/><path class="cls-12" d="M1105.18,523.8c-1,2.6-.53,9.82-0.18,13.62s7.14,1.95,6.93-1.6c-0.16-2.69-.75-8.19.32-12S1107.13,518.75,1105.18,523.8Z"/><path class="cls-8" d="M1041.58,581.52c4.18,0.86,15.78-2.88,19.51-8.28s16.4-20.07,9.11-20.07c-13,0-30.26,13.11-33.59,19.44C1034.64,576.35,1036.28,580.44,1041.58,581.52Z"/><path class="cls-6" d="M1048.82,572.33c0.75,2,4.43,5.8,7.46,6.69s3.38-3.34,3.38-3.34-4.77-4.84-5.42-7C1053.32,565.68,1047.22,568.06,1048.82,572.33Z"/><ellipse class="cls-8" cx="1076.65" cy="614.83" rx="21.9" ry="26.04"/><ellipse class="cls-13" cx="1074.38" cy="614.64" rx="16.68" ry="19.83"/><polygon class="cls-6" points="1077.39 618.01 1007.39 624.71 1007.39 615.11 1066.34 610.67 1077.39 611.26 1077.39 618.01"/><ellipse class="cls-8" cx="1005.38" cy="621.23" rx="21.9" ry="26.04"/><ellipse class="cls-13" cx="1003.12" cy="621.04" rx="16.68" ry="19.83"/><path class="cls-6" d="M1050.07,613.21c0-36.86,36.8-59,54.87-59,5.56,0,7-13-1.43-13-26.87,0-61.12,37.8-61.12,72.19C1042.39,616.26,1050.07,616.3,1050.07,613.21Z"/><rect class="cls-6" x="1104.12" y="534.3" width="10.67" height="24.32" transform="translate(-52.6 123.22) rotate(-6.21)"/><ellipse class="cls-8" cx="1117.51" cy="619.1" rx="40.53" ry="48.19"/><ellipse class="cls-13" cx="1113.32" cy="618.74" rx="30.87" ry="36.7"/><ellipse class="cls-12" cx="1113.32" cy="618.74" rx="7.06" ry="8.4"/><path class="cls-6" d="M1110.87,619.81c-4.61-7.9-11.84-32.06-11.84-46.74,0-22,26.46-21.83,26.46-1.45a62.75,62.75,0,0,0-8-.71c0-4.16-6.8-4.08-7.71.47-1.42,7.11,2.45,35.91,4.94,47.53C1115.08,620.45,1112.15,622,1110.87,619.81Z"/><path class="cls-12" d="M1068.73,512.17c7.3-1,30.29,5.16,39.74,3.91,7.18-.95,14.3-12.35,19.81-13.55s4.13,4.47,1.62,4.92-12.54,13.89-20.44,15.21c-10.65,1.79-30.78-5.68-38.25-5.68C1067.1,517,1065,512.69,1068.73,512.17Z"/><path class="cls-8" d="M1048.43,512.65c4.68-.73,16.53-2.08,21.16-2.75,2.86-.41,6.39,7.12,3,8.16s-16,3.32-19.56,4.06C1046.48,523.51,1042.73,513.53,1048.43,512.65Z"/><path class="cls-12" d="M1109.47,619.1l-7.67.57a2.53,2.53,0,0,0-2.35,2.53v6.18c0,1.3,4,1.66,4,0v-4.74s3.52-.53,6.06-0.71C1111.7,622.76,1112.68,619.1,1109.47,619.1Z"/><polygon class="cls-8" points="1104.71 633.6 1083.99 636.87 1075.85 632.27 1075.85 626.85 1096.29 624.36 1104.71 627.55 1104.71 633.6"/><circle class="cls-6" cx="1075.14" cy="657.78" r="18.9" transform="translate(-150.22 952.9) rotate(-45)"/><ellipse class="cls-5" cx="1075.14" cy="657.78" rx="18.9" ry="8.8" transform="translate(-150.22 952.9) rotate(-45)"/><circle class="cls-6" cx="1101.42" cy="664.6" r="20.28" transform="translate(-183.12 595.53) rotate(-28.03)"/><ellipse class="cls-5" cx="1101.42" cy="664.6" rx="9.44" ry="20.28" transform="translate(-183.12 595.53) rotate(-28.03)"/><circle class="cls-6" cx="684.09" cy="639.99" r="20.28" transform="translate(-220.5 396.53) rotate(-28.03)"/><ellipse class="cls-5" cx="684.09" cy="639.99" rx="9.44" ry="20.28" transform="translate(-220.5 396.53) rotate(-28.03)"/><polygon class="cls-5" points="790.41 654.09 790.41 685.57 817.62 681.11 817.62 650.25 790.41 654.09"/><polygon class="cls-6" points="790.41 654.09 790.41 685.57 766.65 681.11 766.65 650.25 790.41 654.09"/><polygon class="cls-4" points="790.41 654.09 817.62 650.25 793.56 646.14 766.65 650.25 790.41 654.09"/><path class="cls-9" d="M855.47,658.7c-13.5-.44-18.05,14.81-18.05,14.81s15,12.55,25.17,12.55,21.91-10.92,22.18-15.49-4.27-10.85-9.46-11.9S866.17,659.05,855.47,658.7Z"/><path class="cls-10" d="M884.76,670.58c2.4,4.18-11.8,15.49-22.18,15.49s-27.72-4.14-26.93-12.27c0.21-2.11.55-5.18,4.92-6.28-1.15,2.53.62,3.87,1.54,1.24,1.42-4.06,14.71-3,15.07,1.94,0.18,2.58,1.51,7.55,9.68,7.39S883.61,674.82,884.76,670.58Z"/><path class="cls-10" d="M866.86,673.51s4.24-6.46,7-6.27,2.56-3.79,2.56-3.79,4,7.44,0,7.2S866.86,673.51,866.86,673.51Z"/><path class="cls-10" d="M864.28,657.3a0.31,0.31,0,0,1,.1-0.06l0.3-.16a4.36,4.36,0,0,1,1-.34,5.27,5.27,0,0,1,1.52-.06,6.09,6.09,0,0,1,1.67.43,7.78,7.78,0,0,1,.77.39,5.86,5.86,0,0,1,.67.48,4.89,4.89,0,0,1,1,1.07,3.71,3.71,0,0,1,.45.91,2.58,2.58,0,0,1,.11.38,1,1,0,0,1-1.14,1.15l-0.12,0a2.81,2.81,0,0,1-.34-0.09c-0.21-.06-0.47-0.19-0.78-0.3-0.16-.06-0.3-0.14-0.46-0.22a3.88,3.88,0,0,1-.49-0.24c-0.33-.16-0.65-0.35-1-0.52s-0.66-.33-1-0.46-0.63-.26-0.9-0.37L865,659,864.8,659a0.13,0.13,0,0,0-.07,0,0.83,0.83,0,0,1-.68-1.27Z"/><path class="cls-10" d="M857.74,657.57l0.11,0,0.34,0a4.36,4.36,0,0,1,1.09,0,5.27,5.27,0,0,1,1.44.48,6.09,6.09,0,0,1,1.41,1,7.78,7.78,0,0,1,.58.64,5.84,5.84,0,0,1,.46.68,4.89,4.89,0,0,1,.52,1.34,3.71,3.71,0,0,1,.1,1,2.58,2.58,0,0,1,0,.39,1,1,0,0,1-1.48.68l-0.11-.06a2.81,2.81,0,0,1-.29-0.21c-0.18-.13-0.37-0.34-0.63-0.56s-0.23-.24-0.36-0.37a3.88,3.88,0,0,1-.37-0.39c-0.25-.27-0.49-0.56-0.74-0.83s-0.5-.54-0.75-0.78-0.5-.46-0.72-0.66l-0.56-.47a0.76,0.76,0,0,1-.14-0.13,0.13,0.13,0,0,0-.06,0,0.83,0.83,0,0,1-.19-1.43Z"/><path class="cls-10" d="M866.7,662.89l-0.29-.21c-0.17-.12-0.42-0.39-0.67-0.55l-0.81-.65-0.9-.68c-0.61-.42-1.18-0.81-1.65-1.16-0.23-.18-0.44-0.32-0.59-0.45a0.5,0.5,0,0,1-.19-0.19,0.85,0.85,0,1,1-.08-1.69s0.19-.09.46-0.17a3.62,3.62,0,0,1,1.11-.13,4.52,4.52,0,0,1,.73.09,4,4,0,0,1,.78.23,5.52,5.52,0,0,1,1.48.9,6.73,6.73,0,0,1,1.13,1.25l0.39,0.65c0.11,0.22.2,0.45,0.29,0.64a3.65,3.65,0,0,1,.24.92c0,0.22,0,.36,0,0.36A0.94,0.94,0,0,1,866.7,662.89Z"/></svg>