<svg id="Shadow" xmlns="http://www.w3.org/2000/svg" viewBox="0 0 1792 768"><defs><style>.cls-1,.cls-3,.cls-4{fill:#24265b;}.cls-1{opacity:0.1;}.cls-2{fill:#d6cf90;stroke-width:3.59px;}.cls-2,.cls-3,.cls-5{stroke:#24265b;}.cls-2,.cls-5{stroke-linecap:round;stroke-linejoin:round;}.cls-3{stroke-miterlimit:10;stroke-width:1.2px;}.cls-5{fill:#fff;stroke-width:3.05px;}</style></defs><title>topic</title><ellipse class="cls-1" cx="910" cy="666.29" rx="126" ry="35.71"/><g id="Guitar"><path class="cls-2" d="M935.8,204.15s-18,.45-18.16-3.17l-1.79-47.86s5.69-21.19,18.09-24.17S961,139.59,961,139.59s-6,45-7.48,52.93S935.8,204.15,935.8,204.15Z"/><path class="cls-2" d="M826.22,605.53c10.8,12.05,59.12,35.91,59.12,35.91L957.77,635,976,620.54l17.49-40.75,4.44-50-21.08-42.07,2.71-14.75,12.48-17.62s-4-20-7.26-24.28a67,67,0,0,0-27.3-21.64c-12.75-5.69-69.12-8-83.28.45S850.89,434,849.6,443.12c-2,13.77,4.38,21.92.9,35.13s-24.83,34.1-32.8,58S815.42,593.47,826.22,605.53Z"/><path class="cls-3" d="M821.94,599.18c2.59,10.62,17.86,25,42.06,38.67,25.56,14.43,75.82,30.5,113.92-7.63,16.33-16.34,26.46-48,27.55-69.6s-13.2-56.4-21.46-65.49,12.56-17.74,15-40.61-30.69-42.39-41.55-45.13c12.87,6.89,25.93,17.13,26,30.42s-8.31,19.38-11.14,29.11,3.7,23.19,3.7,23.19,41.72,54.43-4.28,113.94c-24.58,31.8-60.08,32.64-91.42,25.78C857.6,626.86,834.49,614.41,821.94,599.18Z"/><path class="cls-4" d="M911.68,460.5c-15.28,1.29-21.07,12.89-22,24.18-1.3,16.13,9.9,27.79,24.51,27.75,13.32,0,21.37-10.39,24.1-25.81C941,471.61,927,459.21,911.68,460.5Z"/><path class="cls-3" d="M898.83,446.27c-0.59-6,22.48-248.6,22.48-248.6s-0.35-4.93,6.88-7.27,15.71,2.23,15.71,2.23S929.37,439.9,928.18,446,899.42,452.3,898.83,446.27Z"/><line class="cls-5" x1="960.15" y1="185" x2="955.14" y2="182.29"/><ellipse class="cls-5" cx="962.22" cy="186" rx="3.38" ry="2.3" transform="translate(341.96 944.78) rotate(-61.68)"/><line class="cls-5" x1="962.84" y1="169.17" x2="957.82" y2="166.46"/><ellipse class="cls-5" cx="964.9" cy="170.17" rx="3.38" ry="2.3" transform="translate(-2.95 322.66) rotate(-18.96)"/><line class="cls-5" x1="965.16" y1="154.02" x2="960.14" y2="151.32"/><ellipse class="cls-5" cx="967.22" cy="155.03" rx="3.38" ry="2.3" transform="translate(371.86 932.91) rotate(-61.68)"/></g><rect class="cls-3" x="884.26" y="540.52" width="48.11" height="16.71" rx="6.28" ry="6.28" transform="translate(38.38 -59) rotate(3.8)"/><circle class="cls-3" cx="837.86" cy="630.58" r="9.42"/><circle class="cls-3" cx="967.84" cy="645.11" r="10.06"/><rect class="cls-3" x="826.34" y="649.45" width="76.25" height="14.22" rx="7.11" ry="7.11" transform="translate(-179.46 358.91) rotate(-21.3)"/><rect class="cls-3" x="877.74" y="654.57" width="76.25" height="14.22" rx="6.82" ry="6.82" transform="translate(-208.14 546.58) rotate(-30)"/></svg>