<svg id="Shadow" xmlns="http://www.w3.org/2000/svg" viewBox="0 0 1792 768"><defs><style>.cls-1,.cls-9{fill:#24265b;}.cls-1{opacity:0.1;}.cls-2{fill:#eeb9a9;}.cls-11,.cls-2,.cls-3,.cls-4,.cls-5,.cls-6,.cls-7{stroke:#24265b;}.cls-2,.cls-3,.cls-4,.cls-5,.cls-6,.cls-7{stroke-linecap:round;stroke-linejoin:round;}.cls-2,.cls-3,.cls-5,.cls-6,.cls-7{stroke-width:3px;}.cls-3{fill:#0c0f2d;}.cls-12,.cls-4{fill:#c9c9c9;}.cls-4{stroke-width:2.55px;}.cls-10,.cls-5,.cls-8{fill:#fff;}.cls-6{fill:#6183b0;}.cls-11,.cls-7{fill:none;}.cls-10{opacity:0.5;}.cls-11{stroke-width:1.5px;}</style></defs><title>topic</title><path class="cls-1" d="M867,665c-14.84,0-178.68,12.77-178.68,26.35s61.23,34,98.35,34,64.22-12.66,84-12.66,84.07,18.5,107.36,18.5,37.87-25.8,48.53-23.91,117.49,22,117.49,6.38-74.25-18.63-84.72-23.37-2.87-6.29-10.22-12.4-39.79-11-53.61-11-77.83,12.25-90.73,12.25S881.88,665,867,665Z"/><path class="cls-2" d="M976,418.49c-7.53-70.4-7.53-97.42-6.16-130.23,1.41,6.14,18.84,7.93,20.38-4.52s-2.84-99.56-20-112.6c-8.88-6.75-37-8.65-40.65-19.32a40.86,40.86,0,0,1-1.34-5.36,32.42,32.42,0,0,1-10.13,1.33c-7.17,0-21.4-8.49-27.42-14.87v1.88c0,15-11.79,25-25.06,28.49-15.57,4.12-28.35,13.32-33.49,28.87s-19.81,73.1-19.81,113.53c0,10.41,29.34,11.88,28.84-2.79-0.32-9.24,13.63-40.08,18.21-56.13,3.56,28.44,19.6,50.05,9.36,109.51C861.35,399.22,979,446.95,976,418.49Z"/><path class="cls-3" d="M997.33,250.37c3.25,3.25-.36,13.49,1.07,20s-4.27,10.09-12.63,11.43c-10.36,1.66-16.17,6-15.7-3.27s-0.45-8.6,1-13.2C975.64,265.7,996.27,257.82,997.33,250.37Z"/><path class="cls-3" d="M997.33,250.37c0-25.15-8.23-42.51-14.83-68-3.83-14.79-31.55-23.94-46-28.53-0.25-4.31.65-11.5-2.58-10.9a12.92,12.92,0,0,1-5.67,3.53c4.25,11.16-42.88,7.78-37.79-8.14h0c-7.87-.79-7.87,11.12-7.87,14.86-17.21,2.84-51,13.7-55.57,32.58-4.93,20.21-15.93,41.55-15.82,81.73,0,8.36.2,27.67,0.69,30.59,1.59,9.6,21.33-9.78,38.54-9.78-0.55,6.66,7.11,25.91,4.1,46.59-3.33,22.86-1.25,46.27,11.57,46.29,22.07,13.25,95.05,8.62,106.21-.43,6.26,3.72,7.06-10.46,4.76-23.31-4-22.56-7.25-62.39-7.25-70.69,0-5.15,1.22-21.47,1.22-21.47S997.33,260.35,997.33,250.37Z"/><path class="cls-4" d="M989.06,652.62c-10.44-1.74-26.74,3.78-26.74,3.78-3.92.8-13.62-2-14.26,1.76s3.49,8.84,3.49,8.84l29,10.54,20.31-9.08S999.5,654.37,989.06,652.62Z"/><path class="cls-5" d="M950.1,664.91c-2.68,2.32,4.64,9.29,29.92,14.38,11.78,2.37,25.49-12.06,20.11-14.65-0.41,3.66-2-3-5.17-4.13s-9.47,2-8.47,5.31,0.29,7.82-4,7.91S950.74,668.65,950.1,664.91Z"/><path class="cls-5" d="M953.26,660.51s1,6.88,5.19,5.52c7.38-2.37,19.32,3.87,19.32,3.87s-13.13-9.43-17.44-7.94A6.84,6.84,0,0,1,953.26,660.51Z"/><path class="cls-6" d="M965,652s7.68-77.55,10.12-115.53c0.69-10.78,3.95-89.52.9-118-1.52-14.21-2.73-26.65-3.69-37.73-5.2,8.22-84.49,12.84-106.21.43C865,410,871,428.52,870.43,431.49c-0.68,3.76-5.72,57.71-7.44,120.61-0.89,32.36,4.45,103.46,4.06,105.75l12.07,0.28c1.8-20,7.09-66.93,11.32-105.11,4.64-41.82,26.61-111.68,28.12-117.46a78.68,78.68,0,0,1,8.92-1.43c1.25,4.65,10,46.83,16.12,93.68s9.44,126,9.44,126l9.35,4.06Z"/><path class="cls-7" d="M967.69,207.64s5.11,32.67,3.35,57.64"/><path class="cls-7" d="M863.11,219.73C862.4,238,853.51,262.07,852.86,275"/><path class="cls-8" d="M958.44,658.41a0.22,0.22,0,0,1,0-.1l0-.3a3.63,3.63,0,0,1,.28-0.91,4.37,4.37,0,0,1,.74-1.09,5,5,0,0,1,1.17-.93,6.26,6.26,0,0,1,.67-0.32,4.57,4.57,0,0,1,.68-0.2,3.86,3.86,0,0,1,1.23,0,3,3,0,0,1,.85.22,2,2,0,0,1,.31.15,1,1,0,0,1,.33,1.44l-0.11.14-0.1.11a2.35,2.35,0,0,1-.23.21c-0.14.13-.35,0.25-0.57,0.41s-0.24.14-.36,0.22a2.55,2.55,0,0,1-.38.21c-0.26.14-.53,0.25-0.79,0.37l-0.77.36c-0.26.11-.48,0.24-0.69,0.34l-0.53.27a0.44,0.44,0,0,1-.15.06,0.08,0.08,0,0,0-.05,0,0.78,0.78,0,0,1-1.26-.11Z"/><path class="cls-8" d="M962.11,657.53a0.22,0.22,0,0,1,0-.1l0-.3a3.63,3.63,0,0,1,.28-0.91,4.37,4.37,0,0,1,.74-1.09,5,5,0,0,1,1.17-.93,6.27,6.27,0,0,1,.67-0.32,4.58,4.58,0,0,1,.68-0.2,3.86,3.86,0,0,1,1.23,0,3,3,0,0,1,.85.22,2,2,0,0,1,.31.15,1,1,0,0,1,.33,1.44l-0.11.14-0.1.11a2.35,2.35,0,0,1-.23.21c-0.14.13-.35,0.25-0.57,0.41s-0.24.14-.36,0.22a2.57,2.57,0,0,1-.38.21c-0.26.14-.53,0.25-0.79,0.37l-0.77.36c-0.26.11-.48,0.24-0.69,0.34l-0.53.27a0.44,0.44,0,0,1-.15.06,0.08,0.08,0,0,0-.05,0,0.78,0.78,0,0,1-1.26-.11Z"/><path class="cls-8" d="M970.65,657.88a2.3,2.3,0,0,1-.14-0.36,3.91,3.91,0,0,1-.18-0.94,4.46,4.46,0,0,1,.14-1.38,4.29,4.29,0,0,1,.77-1.53,3.74,3.74,0,0,1,.64-0.65,3.48,3.48,0,0,1,.74-0.48,3.38,3.38,0,0,1,.76-0.26,2.76,2.76,0,0,1,.69-0.08,2.16,2.16,0,0,1,.56,0,3.35,3.35,0,0,1,.42.11,2.14,2.14,0,0,1,.35.14,1,1,0,0,1,.27,1.52l-0.15.18a2.7,2.7,0,0,1-.22.22c-0.13.13-.33,0.26-0.51,0.43a2.69,2.69,0,0,0-.28.24c-0.08.1-.19,0.15-0.26,0.24s-0.17.14-.24,0.23a2.31,2.31,0,0,0-.24.23,4.66,4.66,0,0,0-.49.57c-0.16.22-.31,0.46-0.45,0.68l-0.34.57a1.65,1.65,0,0,0-.14.22A0.85,0.85,0,0,1,970.65,657.88Z"/><path class="cls-8" d="M967.3,658a2.3,2.3,0,0,1-.14-0.36,3.91,3.91,0,0,1-.18-0.94,4.46,4.46,0,0,1,.14-1.38,4.29,4.29,0,0,1,.77-1.53,3.73,3.73,0,0,1,.64-0.65,3.47,3.47,0,0,1,.74-0.48,3.38,3.38,0,0,1,.76-0.26,2.75,2.75,0,0,1,.68-0.08,2.16,2.16,0,0,1,.56,0,3.33,3.33,0,0,1,.42.11,2.14,2.14,0,0,1,.35.14,1,1,0,0,1,.27,1.52l-0.15.18a2.7,2.7,0,0,1-.22.22c-0.13.13-.33,0.26-0.51,0.43a2.69,2.69,0,0,0-.28.24c-0.08.1-.19,0.15-0.26,0.24s-0.17.14-.24,0.23a2.31,2.31,0,0,0-.24.23,4.66,4.66,0,0,0-.49.57c-0.16.22-.31,0.46-0.45,0.68l-0.34.57a1.65,1.65,0,0,0-.14.22A0.85,0.85,0,1,1,967.3,658Z"/><path class="cls-8" d="M959.3,660.71a2.08,2.08,0,0,1-1.26-.42,2.11,2.11,0,0,1-.79-1.22l-0.05-.23a2,2,0,0,1,0-.71c0-.12,0-0.22.07-0.33a5.22,5.22,0,0,1,.45-1.17,6,6,0,0,1,1-1.34,6.5,6.5,0,0,1,1.41-1.08l0.27-.14a5.09,5.09,0,0,1,.62-0.28,6.65,6.65,0,0,1,.82-0.25,5.81,5.81,0,0,1,1.28-.14h0.28a4.42,4.42,0,0,1,1.08.17,3.82,3.82,0,0,1,.55.18,2.18,2.18,0,0,1,.47,3.72,4.93,4.93,0,0,1-.86.53l-0.23.12a3.62,3.62,0,0,1-.38.18l-0.09,0a5.08,5.08,0,0,1-.51.24l-0.83.37c-0.19.1-.44,0.22-0.65,0.35a5.36,5.36,0,0,0-.48.3l-0.17.12L961,660l-0.19.15A2.11,2.11,0,0,1,959.3,660.71Z"/><path class="cls-9" d="M963.12,654.9h0.2a3.23,3.23,0,0,1,.81.13,2.3,2.3,0,0,1,.3.1,0.68,0.68,0,0,1,.15,1.16l-0.06,0a2.44,2.44,0,0,1-.24.16c-0.15.1-.37,0.19-0.61,0.32s-0.26.11-.39,0.18a3.91,3.91,0,0,1-.42.19l-0.87.39c-0.29.14-.57,0.28-0.82,0.44s-0.49.31-.7,0.45l-0.49.37-0.13.09a0.13,0.13,0,0,0,0,0,0.6,0.6,0,0,1-1.06-.23l-0.05-.23a0.3,0.3,0,0,1,0-.09c0-.07,0-0.16.05-0.27a3.65,3.65,0,0,1,.32-0.82,4.4,4.4,0,0,1,.73-1,5.1,5.1,0,0,1,1.11-.85,6.67,6.67,0,0,1,.63-0.3,5.14,5.14,0,0,1,.64-0.2,4.32,4.32,0,0,1,1-.11m0-3a7.31,7.31,0,0,0-1.63.19,7.45,7.45,0,0,0-1,.29,6.27,6.27,0,0,0-.81.36l-0.12.06-0.22.12a8.08,8.08,0,0,0-1.74,1.34,7.37,7.37,0,0,0-1.21,1.63,6.71,6.71,0,0,0-.6,1.54c0,0.18-.06.3-0.08,0.4a3.2,3.2,0,0,0,0,1.33l0.05,0.23a3.6,3.6,0,0,0,6,1.86l0.06,0,0.07-.06,0.28-.21,0.14-.09,0.28-.19,0.14-.08c0.13-.08.33-0.18,0.54-0.28l0.34-.15,0.43-.19c0.21-.09.4-0.17,0.57-0.26h0a4.94,4.94,0,0,0,.54-0.26l0.15-.07a5.83,5.83,0,0,0,.55-0.3,5.22,5.22,0,0,0,.5-0.34l0.06,0a3.68,3.68,0,0,0-.79-6.27,5.19,5.19,0,0,0-.74-0.25h0a6.14,6.14,0,0,0-1.43-.21h-0.3Z"/><path class="cls-8" d="M963,659.82a2.1,2.1,0,0,1-2.05-1.65l0-.22a2,2,0,0,1,0-.71c0-.12,0-0.21.06-0.31a5.23,5.23,0,0,1,.46-1.18,5.93,5.93,0,0,1,1-1.34,6.5,6.5,0,0,1,1.41-1.08l0.27-.14a5,5,0,0,1,.62-0.28,6.39,6.39,0,0,1,.82-0.25,5.72,5.72,0,0,1,1.27-.14h0.28a4.4,4.4,0,0,1,1.08.16,3.64,3.64,0,0,1,.56.19,2.18,2.18,0,0,1,.46,3.71,4,4,0,0,1-.46.32,3.92,3.92,0,0,1-.41.22l-0.23.12a3.6,3.6,0,0,1-.38.18l-0.09,0a4.75,4.75,0,0,1-.52.24l-0.82.37c-0.19.1-.44,0.22-0.66,0.35a5.13,5.13,0,0,0-.48.3l-0.17.12-0.31.23-0.2.15A2.11,2.11,0,0,1,963,659.82Z"/><path class="cls-9" d="M966.78,654H967a3.21,3.21,0,0,1,.81.13,2.29,2.29,0,0,1,.3.1,0.68,0.68,0,0,1,.15,1.16l-0.06,0a2.42,2.42,0,0,1-.24.16c-0.15.1-.37,0.19-0.61,0.32s-0.26.11-.39,0.18a3.91,3.91,0,0,1-.42.19l-0.87.39c-0.29.14-.57,0.28-0.82,0.44s-0.49.31-.7,0.45l-0.49.37-0.13.09a0.14,0.14,0,0,0,0,0,0.6,0.6,0,0,1-1.06-.23l-0.05-.23a0.3,0.3,0,0,1,0-.09c0-.07,0-0.16.05-0.27a3.63,3.63,0,0,1,.32-0.82,4.4,4.4,0,0,1,.73-1,5.09,5.09,0,0,1,1.11-.85,6.61,6.61,0,0,1,.63-0.3,5.12,5.12,0,0,1,.64-0.2,4.31,4.31,0,0,1,1-.11m0-3h0a7.3,7.3,0,0,0-1.63.19,7.4,7.4,0,0,0-1,.29,6.28,6.28,0,0,0-.82.36l-0.12.06L963,652a8.08,8.08,0,0,0-1.74,1.34,7.37,7.37,0,0,0-1.21,1.63,6.69,6.69,0,0,0-.6,1.54c0,0.17-.06.29-0.08,0.4a3.2,3.2,0,0,0,0,1.33l0.05,0.24a3.6,3.6,0,0,0,6,1.86l0.06,0,0.08-.06,0.28-.21L966,660l0.29-.19,0.14-.08c0.14-.08.33-0.18,0.54-0.28l0.77-.34c0.21-.08.4-0.17,0.57-0.26h0a4.94,4.94,0,0,0,.54-0.26l0.14-.07a5.82,5.82,0,0,0,.56-0.3,5.18,5.18,0,0,0,.51-0.34l0.06,0a3.68,3.68,0,0,0-.79-6.28,5.18,5.18,0,0,0-.74-0.25,6.27,6.27,0,0,0-1.48-.22h-0.3Z"/><path class="cls-8" d="M968.14,660.09a2.1,2.1,0,0,1-2.08-1.77c0-.09-0.06-0.19-0.08-0.29a5.53,5.53,0,0,1-.15-1.22,6.06,6.06,0,0,1,.24-1.72,5.68,5.68,0,0,1,1-1.93,4.76,4.76,0,0,1,.75-0.77,3.83,3.83,0,0,1,.77-0.53l0.13-.07a4,4,0,0,1,.89-0.36l0.11,0a3.9,3.9,0,0,1,.91-0.16h0.51a2.3,2.3,0,0,1,.41,0l0.49,0.08a3.29,3.29,0,0,1,.52.14,2.16,2.16,0,0,1,.61,3.69l-0.11.09a4,4,0,0,1-.38.27l-0.28.16-0.19.12a2.26,2.26,0,0,1-.31.2,2.5,2.5,0,0,1-.27.19l-0.24.19-0.15.14a1.39,1.39,0,0,1-.22.22l-0.06.1-0.18.27a6,6,0,0,0-.32.62c-0.1.22-.18,0.42-0.24,0.56l0,0.06a2.07,2.07,0,0,1-.52,1.06,2.09,2.09,0,0,1-1.46.68h-0.09Z"/><path class="cls-9" d="M971.15,652.7l0.17,0,0.39,0.06a2.43,2.43,0,0,1,.33.09,0.66,0.66,0,0,1,.18,1.12l-0.1.08a2.67,2.67,0,0,1-.24.16c-0.15.1-.36,0.19-0.57,0.35a2.83,2.83,0,0,0-.34.22c-0.1.09-.23,0.15-0.33,0.24s-0.22.16-.31,0.26a2.37,2.37,0,0,0-.3.3,3.17,3.17,0,0,0-.28.34l-0.25.38a7.59,7.59,0,0,0-.4.78c-0.11.25-.2,0.47-0.27,0.62a2.27,2.27,0,0,0-.1.24,0.6,0.6,0,0,1-.58.63h0a0.6,0.6,0,0,1-.6-0.58h0a2.69,2.69,0,0,1-.1-0.34,4.08,4.08,0,0,1-.1-0.89,4.57,4.57,0,0,1,.18-1.28,4.15,4.15,0,0,1,.73-1.39,3.48,3.48,0,0,1,.58-0.59,3.45,3.45,0,0,1,1.35-.7,2.71,2.71,0,0,1,.63-0.1l0.35,0m0-3-0.4,0h-0.2a5.48,5.48,0,0,0-1.29.23l-0.08,0a5.44,5.44,0,0,0-1.17.48l0,0-0.09.05a5.34,5.34,0,0,0-1,.71,6.47,6.47,0,0,0-1,1,7.12,7.12,0,0,0-1.24,2.35l0,0.07a7.54,7.54,0,0,0-.3,2.13,7.1,7.1,0,0,0,.19,1.59q0,0.15.08,0.29a3.59,3.59,0,0,0,3.54,2.91h0.15a3.61,3.61,0,0,0,3.37-2.81l0.19-.43a4.89,4.89,0,0,1,.23-0.45l0.1-.15,0.06-.07,0.06-.07,0.07-.07,0.17-.14,0.21-.15,0.32-.21,0.07,0,0.38-.23a5.56,5.56,0,0,0,.49-0.35l0.1-.08a3.66,3.66,0,0,0-1-6.28,5.23,5.23,0,0,0-.74-0.21l-0.56-.1a3.83,3.83,0,0,0-.64-0.05h0Z"/><path class="cls-8" d="M971.5,660a2.1,2.1,0,0,1-2.07-1.72c0-.11-0.06-0.23-0.09-0.34a5.66,5.66,0,0,1-.15-1.22,6.09,6.09,0,0,1,.24-1.72,5.66,5.66,0,0,1,1-1.93,4.76,4.76,0,0,1,.75-0.77,3.84,3.84,0,0,1,.77-0.53l0.12-.07a4,4,0,0,1,.88-0.36l0.11,0a3.93,3.93,0,0,1,.91-0.16h0.52a2.34,2.34,0,0,1,.41,0l0.5,0.09a3.21,3.21,0,0,1,.51.14,2.16,2.16,0,0,1,1.27,2.77,2.16,2.16,0,0,1-.67.93l-0.09.08a4,4,0,0,1-.39.27l-0.27.16-0.19.12a2.22,2.22,0,0,1-.32.2,2.53,2.53,0,0,1-.27.19l-0.24.19-0.15.14a1.29,1.29,0,0,1-.21.22,0.45,0.45,0,0,1-.06.1l-0.18.28a6.3,6.3,0,0,0-.32.62c-0.1.21-.18,0.42-0.24,0.56v0a2.11,2.11,0,0,1-2,1.77H971.5Z"/><path class="cls-9" d="M974.51,652.57l0.17,0,0.39,0.06a2.44,2.44,0,0,1,.33.09,0.66,0.66,0,0,1,.18,1.12l-0.1.08a2.67,2.67,0,0,1-.24.16c-0.15.1-.36,0.19-0.57,0.35a2.81,2.81,0,0,0-.34.22c-0.1.09-.23,0.15-0.33,0.24s-0.22.16-.31,0.26a2.37,2.37,0,0,0-.3.3,3.19,3.19,0,0,0-.28.34l-0.25.38a7.62,7.62,0,0,0-.4.78c-0.11.25-.2,0.47-0.27,0.62a2.27,2.27,0,0,0-.1.24,0.6,0.6,0,0,1-.58.63h0a0.6,0.6,0,0,1-.6-0.58h0a2.74,2.74,0,0,1-.1-0.34,4.07,4.07,0,0,1-.1-0.89,4.57,4.57,0,0,1,.18-1.28,4.16,4.16,0,0,1,.73-1.39,3.48,3.48,0,0,1,.58-0.59,3.45,3.45,0,0,1,1.35-.7,2.71,2.71,0,0,1,.63-0.1l0.35,0m0-3-0.4,0h-0.2a5.48,5.48,0,0,0-1.29.23l-0.08,0a5.44,5.44,0,0,0-1.17.48l0,0-0.09.05a5.33,5.33,0,0,0-1,.71,6.47,6.47,0,0,0-1,1,7.12,7.12,0,0,0-1.24,2.35l0,0.07a7.55,7.55,0,0,0-.3,2.13,7.11,7.11,0,0,0,.19,1.59q0,0.15.08,0.29a3.59,3.59,0,0,0,3.54,2.91h0.15a3.61,3.61,0,0,0,3.37-2.81l0.19-.43a4.87,4.87,0,0,1,.23-0.46l0.1-.15,0.06-.07,0.06-.07,0.07-.07,0.17-.14,0.21-.15,0.32-.21,0.07,0,0.38-.23a5.54,5.54,0,0,0,.49-0.35l0.1-.08a3.66,3.66,0,0,0-1-6.28,5.24,5.24,0,0,0-.74-0.21l-0.56-.1a3.83,3.83,0,0,0-.64-0.05h0Z"/><path class="cls-7" d="M882.59,153.18c0,4.09,18,16.1,39,12.19,14.41-2.69,14.89-11.54,14.89-11.54"/><path class="cls-3" d="M811.2,273.59c-5.2,2.32-4.57,6.57-3.52,14.74,0.72,5.58-2.11,5.76-1.63,8.67,1.59,9.6,29.73,5.16,36.43,3.79,7.4-1.51,14.34-5.79,11.32-12.54s2.36-7.2-.84-14.67C848,276.19,815.17,278.49,811.2,273.59Z"/><path class="cls-7" d="M953.84,376.17c-1.73,3.32-5.34,11.28-30.52,12.58"/><path class="cls-7" d="M904.27,364.09s0-112.12,34.64-112.59c12.86-.18,15.17,24.65,15.17,24.65"/><circle class="cls-10" cx="912.9" cy="108.22" r="8.27"/><circle class="cls-10" cx="936.49" cy="108.22" r="8.27"/><circle class="cls-11" cx="912.9" cy="108.22" r="8.27"/><circle class="cls-11" cx="936.49" cy="108.22" r="8.27"/><path class="cls-2" d="M927,100.94c-3.86,6.48,3.86,7.89,5.45,15.36,1.31,6.11-17.7,5.65-13.79-1"/><path class="cls-7" d="M921,106.5c1.35-1.35,5.94-1.58,7.52,0"/><path class="cls-7" d="M884.43,101.48c2.68,1.83,12,5.9,14.68,6.37a42.56,42.56,0,0,0,4.81.37"/><path class="cls-7" d="M944.95,104.22s2.79,1,2.79,2.06-2.49,1.95-2.49,1.95"/><path class="cls-7" d="M866,388.76c23.89,11,98.46,6.74,107.12,0"/><path class="cls-7" d="M974.32,400.69c-16.1,3.19-28.26.39-28.73-6.4"/><path class="cls-7" d="M871.82,402.54c11,2.76,28.48.07,29.16-7"/><path class="cls-7" d="M870.43,431.49s-2.32-31.12,3.09-40.14"/><line class="cls-7" x1="937.2" y1="388.57" x2="937.2" y2="394.29"/><path class="cls-7" d="M941.51,394.43c0,10,15.29,14.15,33.13,9.45"/><path class="cls-7" d="M870.31,405.8c23.2,6.59,35.29-3.21,36.14-10.3"/><path class="cls-7" d="M970,382.15s4-2.16,3-9"/><path class="cls-7" d="M866,369.89s-5,10.76,5.76,13.73"/><path class="cls-12" d="M855.47,658.7c-13.5-.44-18.05,14.81-18.05,14.81s15,12.55,25.17,12.55,21.91-10.92,22.18-15.49-4.27-10.85-9.46-11.9S866.17,659.05,855.47,658.7Z"/><path class="cls-9" d="M862.58,687.34c-10.52,0-25.36-12.33-26-12.85a1.28,1.28,0,0,1-.4-1.34,28,28,0,0,1,4.17-8c4-5.26,9.2-7.93,15.15-7.75a107.92,107.92,0,0,0,11.17-.23,32.42,32.42,0,0,1,8.87.23c6,1.21,10.77,8.28,10.48,13.22C885.7,676.31,872.92,687.34,862.58,687.34Zm-23.67-14.25c3,2.38,15.26,11.71,23.67,11.71,9.86,0,20.69-10.61,20.91-14.29s-3.83-9.65-8.44-10.58a30.16,30.16,0,0,0-8.21-.18,111.16,111.16,0,0,1-11.42.24h0c-5.14-.16-9.51,2.08-13,6.67A26.43,26.43,0,0,0,838.91,673.08Z"/><path class="cls-8" d="M884.76,670.58c2.4,4.18-11.8,15.49-22.18,15.49s-27.72-4.14-26.93-12.27c0.21-2.11.55-5.18,4.92-6.28-1.15,2.53.62,3.87,1.54,1.24,1.42-4.06,14.71-3,15.07,1.94,0.18,2.58,1.51,7.55,9.68,7.39S883.61,674.82,884.76,670.58Z"/><path class="cls-9" d="M862.58,687.56c-7.33,0-21-2.2-26.3-8.09a7.4,7.4,0,0,1-2.12-5.82c0.2-2,.61-6.21,6-7.59a1.5,1.5,0,0,1,1.52.49l0.06,0.08c1.91-1.74,5.57-2.17,8.91-1.73,4.71,0.63,7.77,2.81,8,5.69,0.29,4.08,3,6.09,8.16,6,7.9-.16,15.6-3.15,16.48-6.41a1.5,1.5,0,0,1,2.75-.35c0.53,0.93.88,2.53-.5,4.92C882.57,679.91,871.6,687.56,862.58,687.56ZM838.8,669.92c-1.23.94-1.49,2.32-1.65,4a4.46,4.46,0,0,0,1.35,3.52c4,4.39,15.6,7.1,24.08,7.1,5.86,0,12.85-3.79,17.1-7.57a35.18,35.18,0,0,1-12.8,2.6c-9.5.21-11-6.08-11.21-8.78-0.09-1.29-2.35-2.52-5.38-2.92-3.45-.46-6.42.34-6.78,1.37-0.66,1.89-1.73,2.32-2.31,2.41a2.05,2.05,0,0,1-2-.81A2.62,2.62,0,0,1,838.8,669.92Z"/><path class="cls-8" d="M866.86,673.51s4.24-6.46,7-6.27,2.56-3.79,2.56-3.79,4,7.44,0,7.2S866.86,673.51,866.86,673.51Z"/><path class="cls-9" d="M866.86,675a1.5,1.5,0,0,1-1.26-2.32c1.11-1.69,5-7.19,8.37-6.94a0.48,0.48,0,0,0,.45-0.12,3.45,3.45,0,0,0,.51-2.1,1.5,1.5,0,0,1,2.82-.79c0.92,1.69,2.9,5.86,1.47,8.11a3,3,0,0,1-2.88,1.31c-3-.18-7.32,1.87-8.75,2.67A1.5,1.5,0,0,1,866.86,675Zm6.87-6.27a3.54,3.54,0,0,0-1.79,1.05,14.07,14.07,0,0,1,4.58-.64h0.2a3.42,3.42,0,0,0-.16-1.42l0,0a3.47,3.47,0,0,1-2.77,1h0Z"/><path class="cls-8" d="M864.28,657.3a0.31,0.31,0,0,1,.1-0.06l0.3-.16a4.36,4.36,0,0,1,1-.34,5.27,5.27,0,0,1,1.52-.06,6.09,6.09,0,0,1,1.67.43,7.77,7.77,0,0,1,.77.39,5.85,5.85,0,0,1,.67.48,4.89,4.89,0,0,1,1,1.07,3.71,3.71,0,0,1,.45.91,2.58,2.58,0,0,1,.11.38,1,1,0,0,1-1.14,1.15l-0.12,0a2.8,2.8,0,0,1-.34-0.09c-0.21-.06-0.47-0.19-0.78-0.3-0.16-.06-0.3-0.14-0.46-0.22a3.88,3.88,0,0,1-.49-0.24c-0.33-.16-0.65-0.35-1-0.52s-0.66-.33-1-0.46-0.63-.26-0.9-0.37L865,659,864.8,659a0.13,0.13,0,0,0-.07,0,0.83,0.83,0,0,1-.68-1.27Z"/><path class="cls-8" d="M857.74,657.57l0.11,0,0.34,0a4.36,4.36,0,0,1,1.09,0,5.27,5.27,0,0,1,1.44.48,6.09,6.09,0,0,1,1.41,1,7.77,7.77,0,0,1,.58.64,5.85,5.85,0,0,1,.46.68,4.89,4.89,0,0,1,.52,1.34,3.71,3.71,0,0,1,.1,1,2.58,2.58,0,0,1,0,.39,1,1,0,0,1-1.48.68l-0.11-.06a2.81,2.81,0,0,1-.29-0.21c-0.18-.13-0.37-0.34-0.63-0.56s-0.23-.24-0.36-0.37a3.88,3.88,0,0,1-.37-0.39c-0.25-.27-0.49-0.56-0.74-0.83s-0.5-.54-0.75-0.78-0.5-.46-0.72-0.66l-0.56-.47a0.76,0.76,0,0,1-.14-0.13,0.13,0.13,0,0,0-.06,0,0.83,0.83,0,0,1-.19-1.43Z"/><path class="cls-8" d="M866.7,662.89l-0.29-.21c-0.17-.12-0.42-0.39-0.67-0.55l-0.81-.65-0.9-.68c-0.61-.42-1.18-0.81-1.65-1.16-0.23-.18-0.44-0.32-0.59-0.45a0.5,0.5,0,0,1-.19-0.19,0.85,0.85,0,1,1-.08-1.69s0.19-.09.46-0.17a3.62,3.62,0,0,1,1.11-.13,4.52,4.52,0,0,1,.73.09,4,4,0,0,1,.78.23,5.52,5.52,0,0,1,1.48.9,6.74,6.74,0,0,1,1.13,1.25l0.39,0.65c0.11,0.22.2,0.45,0.29,0.64a3.65,3.65,0,0,1,.24.92c0,0.22,0,.36,0,0.36A0.94,0.94,0,0,1,866.7,662.89Z"/><path class="cls-8" d="M864.34,657.54l0.09-.05,0.28-.13a4.42,4.42,0,0,1,1-.26,5.34,5.34,0,0,1,1.43,0,6.19,6.19,0,0,1,1.57.43c0.24,0.12.5,0.23,0.73,0.37a6.58,6.58,0,0,1,.65.44c0.19,0.16.38,0.33,0.54,0.49s0.3,0.33.41,0.49a4.11,4.11,0,0,1,.5.82,3,3,0,0,1,.15.34,0.66,0.66,0,0,1-.84.83l-0.06,0a3.1,3.1,0,0,1-.31-0.13c-0.2-.08-0.43-0.24-0.73-0.39-0.15-.07-0.29-0.17-0.46-0.26s-0.33-.18-0.5-0.28c-0.34-.19-0.69-0.39-1.05-0.57a10.53,10.53,0,0,0-1.08-.46,8.85,8.85,0,0,0-1-.3c-0.3-.08-0.56-0.12-0.74-0.16l-0.19,0h-0.07a0.61,0.61,0,0,1-.44-1Z"/><path class="cls-9" d="M866.42,657.05a4.9,4.9,0,0,1,.71.05,6.19,6.19,0,0,1,1.57.43c0.24,0.12.5,0.23,0.73,0.37a6.59,6.59,0,0,1,.65.44c0.19,0.16.38,0.33,0.54,0.49s0.3,0.33.41,0.49a4.12,4.12,0,0,1,.5.82,3,3,0,0,1,.15.34,0.65,0.65,0,0,1-.84.83l-0.06,0a3.09,3.09,0,0,1-.31-0.13c-0.2-.08-0.43-0.24-0.73-0.39-0.15-.07-0.29-0.17-0.46-0.26s-0.33-.18-0.5-0.28c-0.34-.19-0.69-0.39-1.05-0.57a10.52,10.52,0,0,0-1.08-.46,8.86,8.86,0,0,0-1-.3c-0.3-.08-0.56-0.12-0.74-0.16l-0.19,0h-0.1a0.61,0.61,0,0,1-.42-1l0.13-.12,0.09-.05,0.28-.13a4.42,4.42,0,0,1,1-.26,5.78,5.78,0,0,1,.72,0m0-3a8.79,8.79,0,0,0-1.09.07,7.48,7.48,0,0,0-1.71.44l0,0-0.39.17a3.29,3.29,0,0,0-.9.59l-0.13.12a3.61,3.61,0,0,0,2.14,6.22l0.11,0h0l0.45,0.09,0.14,0a5,5,0,0,1,.5.15l0.14,0.05a7.83,7.83,0,0,1,.73.32l0.65,0.35,0.21,0.12,0.59,0.33,0.05,0c0.17,0.11.35,0.21,0.52,0.29l0.22,0.12c0.16,0.09.34,0.19,0.57,0.3a5.86,5.86,0,0,0,.58.24l0.06,0a3.66,3.66,0,0,0,4.66-4.61,5.86,5.86,0,0,0-.3-0.71l0-.08a6.84,6.84,0,0,0-.79-1.26c-0.13-.17-0.28-0.35-0.44-0.53l-0.08-.09-0.15-.16c-0.21-.2-0.43-0.41-0.72-0.65a8.56,8.56,0,0,0-.91-0.64l-0.06,0a7.05,7.05,0,0,0-.83-0.44l-0.16-.08-0.22-.1a9.18,9.18,0,0,0-2.31-.63,7.93,7.93,0,0,0-1.11-.08h0Z"/><path class="cls-8" d="M866.92,662.77l-0.25-.23-0.27-.28a3.17,3.17,0,0,0-.33-0.33c-0.22-.22-0.49-0.47-0.79-0.74s-0.61-.52-0.93-0.76-0.65-.46-1-0.65-0.61-.37-0.88-0.52l-0.66-.36a1,1,0,0,1-.23-0.14,0.6,0.6,0,0,1-.06-1.21s0.17-.06.42-0.11a3.74,3.74,0,0,1,1,0,4.69,4.69,0,0,1,.67.11,4.13,4.13,0,0,1,.72.24,5.73,5.73,0,0,1,1.39.85c0.2,0.19.42,0.36,0.59,0.56a7.71,7.71,0,0,1,.5.6l0.4,0.6c0.11,0.21.21,0.41,0.3,0.59a4.36,4.36,0,0,1,.3.87l0.08,0.33a0.63,0.63,0,0,1-.47.76A0.64,0.64,0,0,1,866.92,662.77Z"/><path class="cls-9" d="M862.65,657.37H863a4.68,4.68,0,0,1,.67.11,4.13,4.13,0,0,1,.72.24,5.73,5.73,0,0,1,1.39.85c0.2,0.19.42,0.36,0.59,0.56a7.68,7.68,0,0,1,.5.6l0.4,0.6c0.11,0.21.21,0.41,0.3,0.59a4.36,4.36,0,0,1,.3.87l0.08,0.33a0.63,0.63,0,0,1-.47.76l-0.14,0a0.64,0.64,0,0,1-.43-0.17l-0.25-.23-0.27-.28a3.16,3.16,0,0,0-.33-0.33c-0.22-.22-0.49-0.47-0.79-0.74s-0.61-.52-0.93-0.76-0.65-.46-1-0.65-0.61-.37-0.88-0.52l-0.66-.36a1.12,1.12,0,0,1-.23-0.14h0a0.6,0.6,0,0,1,0-1.21h0s0.18-.07.42-0.11a3.51,3.51,0,0,1,.69-0.06m0-3a6.47,6.47,0,0,0-1.29.12l-0.48.12a3.6,3.6,0,0,0-.35,7l0.49,0.27,0.1,0.06c0.19,0.11.4,0.23,0.61,0.37l0.08,0.05c0.21,0.13.46,0.3,0.74,0.49s0.47,0.37.74,0.61l0.67,0.62,0.09,0.09,0.05,0,0,0,0.1,0.11,0.13,0.13,0.14,0.14,0.11,0.11,0.26,0.24a3.63,3.63,0,0,0,6-3.5l-0.08-.33q0-.11-0.06-0.22v-0.06a6.33,6.33,0,0,0-.47-1.27l-0.06-.12c-0.09-.18-0.18-0.37-0.29-0.56l-0.13-.21-0.22-.33-0.18-.27-0.06-.09a9.08,9.08,0,0,0-.63-0.77l-0.07-.08a7.54,7.54,0,0,0-.67-0.65l-0.14-.12-0.17-.15a8.62,8.62,0,0,0-2.1-1.27,7.13,7.13,0,0,0-1.21-.4,7.61,7.61,0,0,0-1.13-.18l-0.57,0h0Z"/><path class="cls-8" d="M857.72,657.82h0.1l0.31,0a4.43,4.43,0,0,1,1,.11,5.34,5.34,0,0,1,1.34.51,6.2,6.2,0,0,1,1.32,1c0.19,0.2.39,0.39,0.55,0.61a6.6,6.6,0,0,1,.45.64c0.12,0.22.24,0.44,0.33,0.65s0.16,0.42.21,0.61a4.12,4.12,0,0,1,.18.94,3,3,0,0,1,0,.37,0.66,0.66,0,0,1-1.07.48l-0.05,0a3.15,3.15,0,0,1-.24-0.23c-0.15-.15-0.32-0.38-0.55-0.62s-0.21-.27-0.33-0.41-0.25-.28-0.37-0.44-0.51-.61-0.78-0.9a10.56,10.56,0,0,0-.85-0.81,8.76,8.76,0,0,0-.82-0.63c-0.25-.18-0.48-0.31-0.63-0.4l-0.17-.11-0.07,0a0.61,0.61,0,0,1,0-1.14Z"/><path class="cls-9" d="M858.19,657.78a4.46,4.46,0,0,1,1,.11,5.34,5.34,0,0,1,1.34.51,6.21,6.21,0,0,1,1.32,1c0.19,0.2.39,0.39,0.55,0.61a6.6,6.6,0,0,1,.45.64c0.12,0.22.24,0.44,0.33,0.65s0.16,0.42.21,0.61a4.12,4.12,0,0,1,.18.94,3,3,0,0,1,0,.37,0.65,0.65,0,0,1-.65.63h0a0.65,0.65,0,0,1-.39-0.15l-0.05,0a3.16,3.16,0,0,1-.24-0.23c-0.15-.15-0.32-0.38-0.55-0.62s-0.21-.27-0.33-0.41-0.25-.28-0.37-0.44-0.51-.61-0.78-0.9a10.58,10.58,0,0,0-.85-0.81,8.76,8.76,0,0,0-.82-0.63c-0.25-.18-0.48-0.31-0.63-0.4l-0.17-.11-0.07,0a0.61,0.61,0,0,1,0-1.14l0.16-.07h0.1l0.31,0h0.06m0-3H858l-0.42,0a3.32,3.32,0,0,0-1,.23l-0.18.08a3.61,3.61,0,0,0-.19,6.57l0.1,0.06,0,0,0.39,0.25,0.11,0.08a4.92,4.92,0,0,1,.41.31l0.11,0.1a7.92,7.92,0,0,1,.58.55c0.17,0.18.33,0.37,0.48,0.56l0.16,0.18c0.15,0.19.29,0.36,0.43,0.51l0,0c0.13,0.16.25,0.31,0.39,0.46l0.16,0.19c0.11,0.14.25,0.3,0.43,0.48a6,6,0,0,0,.45.43l0.05,0a3.67,3.67,0,0,0,2.2.84h0.14a3.64,3.64,0,0,0,3.65-3.52,5.9,5.9,0,0,0,0-.77v-0.09a6.83,6.83,0,0,0-.29-1.46c-0.06-.21-0.14-0.42-0.23-0.65l0-.11-0.08-.2c-0.12-.26-0.26-0.54-0.44-0.86a8.56,8.56,0,0,0-.62-0.92l0-.06a7,7,0,0,0-.62-0.71l-0.12-.13-0.17-.17a9.2,9.2,0,0,0-1.94-1.4,8.33,8.33,0,0,0-2.06-.78,7.54,7.54,0,0,0-1.65-.19h0Z"/></svg>