<svg id="Shadow" xmlns="http://www.w3.org/2000/svg" viewBox="0 0 1792 768"><defs><style>.cls-1,.cls-6{fill:#24265b;}.cls-1{opacity:0.1;}.cls-2,.cls-4{fill:#fff;}.cls-2,.cls-3,.cls-5{stroke:#24265b;stroke-linecap:round;stroke-linejoin:round;stroke-width:3.51px;}.cls-3{fill:#94809e;}.cls-5{fill:none;}</style></defs><title>topic</title><path class="cls-1" d="M717.45,655.18c-44.26,7.92,86.67,92.82,161.29,79.89,50.17-8.69,241.62-55.16,282.62-67.08s-66.52-75.7-102.49-73.92C998.35,597.07,761.53,647.29,717.45,655.18Z"/><polygon class="cls-2" points="921.33 681.96 899.3 681.96 786.28 385.75 807.49 383.59 921.33 681.96"/><polygon class="cls-2" points="1068.22 662.54 1045.96 661.94 932.94 365.73 954.15 363.57 1068.22 662.54"/><line class="cls-2" x1="945.82" y1="363.57" x2="1059.89" y2="662.54"/><polygon class="cls-2" points="1017.47 438.44 873.77 455.97 873.77 439.22 1017.47 421.69 1017.47 438.44"/><line class="cls-2" x1="799.16" y1="383.59" x2="913" y2="681.96"/><polygon class="cls-2" points="806.45 663.88 785.94 664.09 899.93 348 921.14 345.85 806.45 663.88"/><polygon class="cls-2" points="952.67 645.08 932.24 645.08 1046.59 327.98 1067.8 325.83 952.67 645.08"/><line class="cls-2" x1="913.64" y1="345.85" x2="798.95" y2="663.88"/><line class="cls-2" x1="1060.3" y1="325.83" x2="945.17" y2="645.08"/><polygon class="cls-3" points="1071.89 279.47 665.09 339.64 775.96 367.69 1182.75 307.51 1071.89 279.47"/><polygon class="cls-3" points="1018.31 287.28 1040.92 300.27 1126.53 327.56 1126.53 316.23 1018.31 287.28"/><polygon class="cls-3" points="1182.75 369.05 775.96 429.23 775.96 367.85 1182.75 307.68 1182.75 369.05"/><polygon class="cls-3" points="665.92 371.25 775.96 429.06 775.96 367.69 664.26 339.74 665.92 371.25"/><polygon class="cls-3" points="1072.15 279.47 1017.47 287.58 1127.61 316.03 1182.29 307.92 1072.15 279.47"/><polygon class="cls-4" points="1045.07 299.77 1015.89 283.26 1027.04 281.51 1056.22 298.02 1045.07 299.77"/><polygon class="cls-5" points="1045.07 299.77 1015.89 283.26 1027.04 281.51 1056.22 298.02 1045.07 299.77"/><polygon class="cls-4" points="1031.01 301.99 1001.83 285.49 1012.98 283.74 1042.16 300.25 1031.01 301.99"/><polygon class="cls-5" points="1031.01 301.99 1001.83 285.49 1012.98 283.74 1042.16 300.25 1031.01 301.99"/><polygon class="cls-4" points="1016.96 304.22 987.78 287.71 998.92 285.96 1028.11 302.47 1016.96 304.22"/><polygon class="cls-5" points="1016.96 304.22 987.78 287.71 998.92 285.96 1028.11 302.47 1016.96 304.22"/><polygon class="cls-4" points="1002.9 306.44 973.72 289.94 984.87 288.19 1014.05 304.7 1002.9 306.44"/><polygon class="cls-5" points="1002.9 306.44 973.72 289.94 984.87 288.19 1014.05 304.7 1002.9 306.44"/><polygon class="cls-4" points="988.84 308.67 959.66 292.16 970.81 290.42 999.99 306.92 988.84 308.67"/><polygon class="cls-5" points="988.84 308.67 959.66 292.16 970.81 290.42 999.99 306.92 988.84 308.67"/><polygon class="cls-4" points="974.79 310.89 945.61 294.39 956.76 292.64 985.94 309.15 974.79 310.89"/><polygon class="cls-5" points="974.79 310.89 945.61 294.39 956.76 292.64 985.94 309.15 974.79 310.89"/><polygon class="cls-4" points="960.73 313.12 931.55 296.61 942.7 294.87 971.88 311.37 960.73 313.12"/><polygon class="cls-5" points="960.73 313.12 931.55 296.61 942.7 294.87 971.88 311.37 960.73 313.12"/><polygon class="cls-4" points="946.68 315.35 917.5 298.84 928.64 297.09 957.83 313.6 946.68 315.35"/><polygon class="cls-5" points="946.68 315.35 917.5 298.84 928.64 297.09 957.83 313.6 946.68 315.35"/><polygon class="cls-4" points="932.62 317.57 903.44 301.06 914.59 299.32 943.77 315.82 932.62 317.57"/><polygon class="cls-5" points="932.62 317.57 903.44 301.06 914.59 299.32 943.77 315.82 932.62 317.57"/><polygon class="cls-4" points="918.56 319.8 889.38 303.29 900.53 301.54 929.71 318.05 918.56 319.8"/><polygon class="cls-5" points="918.56 319.8 889.38 303.29 900.53 301.54 929.71 318.05 918.56 319.8"/><polygon class="cls-4" points="904.51 322.02 875.33 305.52 886.48 303.77 915.66 320.28 904.51 322.02"/><polygon class="cls-5" points="904.51 322.02 875.33 305.52 886.48 303.77 915.66 320.28 904.51 322.02"/><polygon class="cls-4" points="890.45 324.25 861.27 307.74 872.42 306 901.6 322.5 890.45 324.25"/><polygon class="cls-5" points="890.45 324.25 861.27 307.74 872.42 306 901.6 322.5 890.45 324.25"/><polygon class="cls-4" points="876.4 326.47 847.22 309.97 858.36 308.22 887.54 324.73 876.4 326.47"/><polygon class="cls-5" points="876.4 326.47 847.22 309.97 858.36 308.22 887.54 324.73 876.4 326.47"/><polygon class="cls-4" points="862.34 328.7 833.16 312.19 844.31 310.45 873.49 326.95 862.34 328.7"/><polygon class="cls-5" points="862.34 328.7 833.16 312.19 844.31 310.45 873.49 326.95 862.34 328.7"/><polygon class="cls-4" points="848.28 330.93 819.1 314.42 830.25 312.67 859.43 329.18 848.28 330.93"/><polygon class="cls-5" points="848.28 330.93 819.1 314.42 830.25 312.67 859.43 329.18 848.28 330.93"/><polygon class="cls-4" points="834.23 333.15 805.05 316.64 816.2 314.9 845.38 331.4 834.23 333.15"/><polygon class="cls-5" points="834.23 333.15 805.05 316.64 816.2 314.9 845.38 331.4 834.23 333.15"/><polygon class="cls-4" points="820.17 335.38 790.99 318.87 802.14 317.12 831.32 333.63 820.17 335.38"/><polygon class="cls-5" points="820.17 335.38 790.99 318.87 802.14 317.12 831.32 333.63 820.17 335.38"/><polygon class="cls-4" points="806.12 337.6 776.93 321.1 788.08 319.35 817.26 335.85 806.12 337.6"/><polygon class="cls-5" points="806.12 337.6 776.93 321.1 788.08 319.35 817.26 335.85 806.12 337.6"/><polygon class="cls-4" points="792.06 339.83 762.88 323.32 774.03 321.57 803.21 338.08 792.06 339.83"/><polygon class="cls-5" points="792.06 339.83 762.88 323.32 774.03 321.57 803.21 338.08 792.06 339.83"/><polygon class="cls-4" points="778 342.05 748.82 325.55 759.97 323.8 789.15 340.31 778 342.05"/><polygon class="cls-5" points="778 342.05 748.82 325.55 759.97 323.8 789.15 340.31 778 342.05"/><polygon class="cls-4" points="763.95 344.28 734.77 327.77 745.92 326.02 775.1 342.53 763.95 344.28"/><polygon class="cls-5" points="763.95 344.28 734.77 327.77 745.92 326.02 775.1 342.53 763.95 344.28"/><polygon class="cls-4" points="749.89 346.5 720.71 330 731.86 328.25 761.04 344.76 749.89 346.5"/><polygon class="cls-5" points="749.89 346.5 720.71 330 731.86 328.25 761.04 344.76 749.89 346.5"/><polygon class="cls-6" points="825.31 333.83 812.88 326.8 817.63 326.06 830.05 333.09 825.31 333.83"/><polygon class="cls-5" points="825.31 333.83 812.88 326.8 817.63 326.06 830.05 333.09 825.31 333.83"/><polygon class="cls-6" points="811.84 336.17 799.41 329.14 804.16 328.4 816.58 335.43 811.84 336.17"/><polygon class="cls-5" points="811.84 336.17 799.41 329.14 804.16 328.4 816.58 335.43 811.84 336.17"/><polygon class="cls-6" points="798.37 338.52 785.94 331.49 790.69 330.74 803.11 337.77 798.37 338.52"/><polygon class="cls-5" points="798.37 338.52 785.94 331.49 790.69 330.74 803.11 337.77 798.37 338.52"/><polygon class="cls-6" points="851.68 329.66 839.25 322.63 844 321.89 856.43 328.92 851.68 329.66"/><polygon class="cls-5" points="851.68 329.66 839.25 322.63 844 321.89 856.43 328.92 851.68 329.66"/><polygon class="cls-6" points="838.21 332 825.78 324.97 830.53 324.23 842.96 331.26 838.21 332"/><polygon class="cls-5" points="838.21 332 825.78 324.97 830.53 324.23 842.96 331.26 838.21 332"/><polygon class="cls-6" points="782.41 341.12 769.98 334.09 774.73 333.35 787.15 340.38 782.41 341.12"/><polygon class="cls-5" points="782.41 341.12 769.98 334.09 774.73 333.35 787.15 340.38 782.41 341.12"/><polygon class="cls-6" points="768.94 343.46 756.51 336.44 761.26 335.69 773.68 342.72 768.94 343.46"/><polygon class="cls-5" points="768.94 343.46 756.51 336.44 761.26 335.69 773.68 342.72 768.94 343.46"/><polygon class="cls-6" points="895.14 322.73 882.71 315.7 887.46 314.95 899.88 321.98 895.14 322.73"/><polygon class="cls-5" points="895.14 322.73 882.71 315.7 887.46 314.95 899.88 321.98 895.14 322.73"/><polygon class="cls-6" points="881.67 325.07 869.24 318.04 873.99 317.3 886.41 324.32 881.67 325.07"/><polygon class="cls-5" points="881.67 325.07 869.24 318.04 873.99 317.3 886.41 324.32 881.67 325.07"/><polygon class="cls-6" points="868.2 327.41 855.77 320.38 860.52 319.64 872.94 326.67 868.2 327.41"/><polygon class="cls-5" points="868.2 327.41 855.77 320.38 860.52 319.64 872.94 326.67 868.2 327.41"/><polygon class="cls-6" points="921.51 318.55 909.08 311.52 913.83 310.78 926.26 317.81 921.51 318.55"/><polygon class="cls-5" points="921.51 318.55 909.08 311.52 913.83 310.78 926.26 317.81 921.51 318.55"/><polygon class="cls-6" points="908.04 320.9 895.61 313.87 900.36 313.12 912.79 320.15 908.04 320.9"/><polygon class="cls-5" points="908.04 320.9 895.61 313.87 900.36 313.12 912.79 320.15 908.04 320.9"/><polygon class="cls-6" points="965.52 311.62 953.1 304.59 957.84 303.85 970.27 310.88 965.52 311.62"/><polygon class="cls-5" points="965.52 311.62 953.1 304.59 957.84 303.85 970.27 310.88 965.52 311.62"/><polygon class="cls-6" points="952.05 313.96 939.63 306.93 944.37 306.19 956.8 313.22 952.05 313.96"/><polygon class="cls-5" points="952.05 313.96 939.63 306.93 944.37 306.19 956.8 313.22 952.05 313.96"/><polygon class="cls-6" points="938.58 316.3 926.15 309.28 930.9 308.53 943.33 315.56 938.58 316.3"/><polygon class="cls-5" points="938.58 316.3 926.15 309.28 930.9 308.53 943.33 315.56 938.58 316.3"/><polygon class="cls-6" points="991.89 307.45 979.47 300.42 984.22 299.68 996.64 306.7 991.89 307.45"/><polygon class="cls-5" points="991.89 307.45 979.47 300.42 984.22 299.68 996.64 306.7 991.89 307.45"/><polygon class="cls-6" points="978.42 309.79 966 302.76 970.75 302.02 983.17 309.05 978.42 309.79"/><polygon class="cls-5" points="978.42 309.79 966 302.76 970.75 302.02 983.17 309.05 978.42 309.79"/><polygon class="cls-6" points="1035.49 300.6 1023.06 293.57 1027.81 292.83 1040.24 299.86 1035.49 300.6"/><polygon class="cls-5" points="1035.49 300.6 1023.06 293.57 1027.81 292.83 1040.24 299.86 1035.49 300.6"/><polygon class="cls-6" points="1022.02 302.94 1009.59 295.91 1014.34 295.17 1026.77 302.2 1022.02 302.94"/><polygon class="cls-5" points="1022.02 302.94 1009.59 295.91 1014.34 295.17 1026.77 302.2 1022.02 302.94"/><polygon class="cls-6" points="1008.55 305.29 996.12 298.26 1000.87 297.51 1013.29 304.54 1008.55 305.29"/><polygon class="cls-5" points="1008.55 305.29 996.12 298.26 1000.87 297.51 1013.29 304.54 1008.55 305.29"/><polygon class="cls-3" points="719.76 331.53 665.09 339.64 777.62 367.69 832.3 359.57 719.76 331.53"/><path class="cls-3" d="M864.15,409.92l-51,7.81a5,5,0,0,1-5.75-4.94V395.18a5,5,0,0,1,4.24-4.94l51-7.81a5,5,0,0,1,5.75,4.94V405A5,5,0,0,1,864.15,409.92Z"/><circle class="cls-2" cx="846.63" cy="401.82" r="3.75"/><circle class="cls-2" cx="830.44" cy="403.9" r="3.75"/><polygon class="cls-2" points="812.4 651.09 804.07 652.76 790.75 646.93 784.36 664.42 798.24 670.25 806.02 668.59 812.4 651.09"/><polygon class="cls-2" points="959.19 631.75 950.86 633.41 937.54 627.58 931.15 645.08 945.03 650.91 952.81 649.24 959.19 631.75"/><polygon class="cls-2" points="918.73 672.64 910.4 674.3 893 667.22 898.77 681.85 916.72 688.93 924.5 687.27 918.73 672.64"/><polygon class="cls-2" points="1066.17 654.57 1057.83 656.23 1040.44 649.15 1046.21 663.78 1064.16 670.86 1071.93 669.2 1066.17 654.57"/><polygon class="cls-2" points="1063.58 298.88 1046.26 297.35 1046.26 302.9 1052.43 305.77 1063.58 304.02 1063.2 303.84 1063.58 303.88 1063.58 298.88"/><polygon class="cls-2" points="1052.43 300.14 1046.26 297.27 1057.41 295.53 1063.58 298.4 1052.43 300.14"/><line class="cls-5" x1="1052.43" y1="300.14" x2="1052.43" y2="305.77"/><polygon class="cls-2" points="1048.36 301.22 1031.03 299.69 1031.03 305.24 1037.21 308.11 1048.36 306.36 1047.97 306.18 1048.36 306.22 1048.36 301.22"/><polygon class="cls-2" points="1037.21 302.49 1031.03 299.62 1042.18 297.87 1048.36 300.74 1037.21 302.49"/><line class="cls-5" x1="1037.21" y1="302.49" x2="1037.21" y2="308.11"/><polygon class="cls-2" points="1033.13 303.56 1015.81 302.03 1015.81 307.58 1021.98 310.45 1033.13 308.71 1032.74 308.53 1033.13 308.56 1033.13 303.56"/><polygon class="cls-2" points="1021.98 304.83 1015.81 301.96 1026.95 300.21 1033.13 303.08 1021.98 304.83"/><line class="cls-5" x1="1021.98" y1="304.83" x2="1021.98" y2="310.45"/><polygon class="cls-2" points="1017.9 305.9 1000.58 304.38 1000.58 309.93 1006.75 312.8 1017.9 311.05 1017.51 310.87 1017.9 310.9 1017.9 305.9"/><polygon class="cls-2" points="1006.75 307.17 1000.58 304.3 1011.73 302.56 1017.9 305.43 1006.75 307.17"/><line class="cls-5" x1="1006.75" y1="307.17" x2="1006.75" y2="312.8"/><polygon class="cls-2" points="1004.5 307.86 987.18 306.34 987.18 311.88 993.35 314.75 1004.5 313.01 1004.11 312.83 1004.5 312.86 1004.5 307.86"/><polygon class="cls-2" points="993.35 309.13 987.18 306.26 998.33 304.51 1004.5 307.38 993.35 309.13"/><line class="cls-5" x1="993.35" y1="309.13" x2="993.35" y2="314.75"/><polygon class="cls-2" points="989.27 310.21 971.95 308.68 971.95 314.23 978.12 317.1 989.27 315.35 988.88 315.17 989.27 315.2 989.27 310.21"/><polygon class="cls-2" points="978.12 311.47 971.95 308.61 983.1 306.86 989.27 309.73 978.12 311.47"/><line class="cls-5" x1="978.12" y1="311.47" x2="978.12" y2="317.1"/><polygon class="cls-2" points="974.04 312.55 956.72 311.02 956.72 316.57 962.9 319.44 974.04 317.69 973.66 317.51 974.04 317.55 974.04 312.55"/><polygon class="cls-2" points="962.9 313.82 956.72 310.95 967.87 309.2 974.04 312.07 962.9 313.82"/><line class="cls-5" x1="962.9" y1="313.82" x2="962.9" y2="319.44"/><polygon class="cls-2" points="958.82 314.89 941.5 313.36 941.5 318.91 947.67 321.78 958.82 320.04 958.43 319.86 958.82 319.89 958.82 314.89"/><polygon class="cls-2" points="947.67 316.16 941.5 313.29 952.64 311.54 958.82 314.41 947.67 316.16"/><line class="cls-5" x1="947.67" y1="316.16" x2="947.67" y2="321.78"/><polygon class="cls-2" points="904.87 323.66 887.55 322.13 887.55 327.68 893.73 330.55 904.87 328.81 904.49 328.63 904.87 328.66 904.87 323.66"/><polygon class="cls-2" points="893.73 324.93 887.55 322.06 898.7 320.31 904.87 323.18 893.73 324.93"/><line class="cls-5" x1="893.72" y1="324.93" x2="893.72" y2="330.55"/><polygon class="cls-2" points="889.65 326 872.32 324.48 872.32 330.03 878.5 332.9 889.65 331.15 889.26 330.97 889.65 331 889.65 326"/><polygon class="cls-2" points="878.5 327.27 872.32 324.4 883.47 322.66 889.65 325.52 878.5 327.27"/><line class="cls-5" x1="878.5" y1="327.27" x2="878.5" y2="332.9"/><polygon class="cls-2" points="874.42 328.35 857.1 326.82 857.1 332.37 863.27 335.24 874.42 333.49 874.03 333.31 874.42 333.35 874.42 328.35"/><polygon class="cls-2" points="863.27 329.62 857.1 326.75 868.25 325 874.42 327.87 863.27 329.62"/><line class="cls-5" x1="863.27" y1="329.62" x2="863.27" y2="335.24"/><polygon class="cls-2" points="859.19 330.69 841.87 329.16 841.87 334.71 848.04 337.58 859.19 335.83 858.8 335.65 859.19 335.69 859.19 330.69"/><polygon class="cls-2" points="848.04 331.96 841.87 329.09 853.02 327.34 859.19 330.21 848.04 331.96"/><line class="cls-5" x1="848.04" y1="331.96" x2="848.04" y2="337.58"/><polygon class="cls-2" points="843.96 333.03 826.64 331.5 826.64 337.05 832.82 339.92 843.96 338.18 843.58 338 843.96 338.03 843.96 333.03"/><polygon class="cls-2" points="832.82 334.3 826.64 331.43 837.79 329.68 843.96 332.55 832.82 334.3"/><line class="cls-5" x1="832.82" y1="334.3" x2="832.82" y2="339.92"/><polygon class="cls-2" points="828.74 335.38 811.41 333.85 811.41 339.4 817.59 342.27 828.74 340.52 828.35 340.34 828.74 340.37 828.74 335.38"/><polygon class="cls-2" points="817.59 336.64 811.41 333.77 822.56 332.03 828.74 334.9 817.59 336.64"/><line class="cls-5" x1="817.59" y1="336.64" x2="817.59" y2="342.27"/><polygon class="cls-2" points="800.58 347.31 783.26 345.78 783.26 351.33 789.43 354.2 800.58 352.45 800.19 352.27 800.58 352.31 800.58 347.31"/><polygon class="cls-2" points="789.43 348.58 783.26 345.71 794.41 343.96 800.58 346.83 789.43 348.58"/><line class="cls-5" x1="789.43" y1="348.58" x2="789.43" y2="354.2"/><polygon class="cls-2" points="785.35 349.65 768.03 348.13 768.03 353.68 774.21 356.55 785.35 354.8 784.97 354.62 785.35 354.65 785.35 349.65"/><polygon class="cls-2" points="774.21 350.92 768.03 348.05 779.18 346.31 785.35 349.18 774.21 350.92"/><line class="cls-5" x1="774.2" y1="350.92" x2="774.2" y2="356.54"/><polygon class="cls-2" points="770.13 352 752.8 350.47 752.8 356.02 758.98 358.89 770.13 357.14 769.74 356.96 770.13 356.99 770.13 352"/><polygon class="cls-2" points="758.98 353.26 752.8 350.39 763.95 348.65 770.13 351.52 758.98 353.26"/><line class="cls-5" x1="758.98" y1="353.26" x2="758.98" y2="358.89"/><polygon class="cls-2" points="817.57 351.6 800.25 350.07 800.25 355.62 806.42 358.49 817.57 356.74 817.18 356.56 817.57 356.6 817.57 351.6"/><polygon class="cls-2" points="806.42 352.87 800.25 350 811.4 348.25 817.57 351.12 806.42 352.87"/><line class="cls-5" x1="806.42" y1="352.87" x2="806.42" y2="358.49"/><polygon class="cls-2" points="802.34 353.94 785.02 352.41 785.02 357.96 791.19 360.83 802.34 359.08 801.96 358.9 802.34 358.94 802.34 353.94"/><polygon class="cls-2" points="791.19 355.21 785.02 352.34 796.17 350.59 802.34 353.46 791.19 355.21"/><line class="cls-5" x1="791.19" y1="355.21" x2="791.19" y2="360.83"/><polygon class="cls-2" points="787.12 356.28 769.79 354.76 769.79 360.3 775.97 363.17 787.12 361.43 786.73 361.25 787.12 361.28 787.12 356.28"/><polygon class="cls-2" points="775.97 357.55 769.79 354.68 780.94 352.93 787.12 355.8 775.97 357.55"/><line class="cls-5" x1="775.97" y1="357.55" x2="775.97" y2="363.17"/><polygon class="cls-2" points="750.5 335.57 733.18 334.04 733.18 339.59 739.35 342.46 750.5 340.71 750.11 340.53 750.5 340.56 750.5 335.57"/><polygon class="cls-2" points="739.35 336.83 733.18 333.96 744.32 332.22 750.5 335.09 739.35 336.83"/><line class="cls-5" x1="739.35" y1="336.83" x2="739.35" y2="342.46"/><polygon class="cls-2" points="735.27 337.91 717.95 336.38 717.95 341.93 724.12 344.8 735.27 343.05 734.88 342.87 735.27 342.91 735.27 337.91"/><polygon class="cls-2" points="724.12 339.18 717.95 336.31 729.1 334.56 735.27 337.43 724.12 339.18"/><line class="cls-5" x1="724.12" y1="339.18" x2="724.12" y2="344.8"/><polygon class="cls-2" points="720.04 340.25 702.72 338.72 702.72 344.27 708.89 347.14 720.04 345.39 719.66 345.21 720.04 345.25 720.04 340.25"/><polygon class="cls-2" points="708.89 341.52 702.72 338.65 713.87 336.9 720.04 339.77 708.89 341.52"/><line class="cls-5" x1="708.89" y1="341.52" x2="708.89" y2="347.14"/><polygon class="cls-2" points="767.49 339.85 750.16 338.32 750.16 343.87 756.34 346.74 767.49 345 767.1 344.82 767.49 344.85 767.49 339.85"/><polygon class="cls-2" points="756.34 341.12 750.16 338.25 761.31 336.5 767.49 339.37 756.34 341.12"/><line class="cls-5" x1="756.34" y1="341.12" x2="756.34" y2="346.74"/><polygon class="cls-2" points="752.26 342.2 734.94 340.67 734.94 346.22 741.11 349.09 752.26 347.34 751.87 347.16 752.26 347.19 752.26 342.2"/><polygon class="cls-2" points="741.11 343.46 734.94 340.59 746.09 338.85 752.26 341.72 741.11 343.46"/><line class="cls-5" x1="741.11" y1="343.46" x2="741.11" y2="349.09"/><polygon class="cls-2" points="737.03 344.54 719.71 343.01 719.71 348.56 725.88 351.43 737.03 349.68 736.64 349.5 737.03 349.54 737.03 344.54"/><polygon class="cls-2" points="725.88 345.81 719.71 342.94 730.86 341.19 737.03 344.06 725.88 345.81"/><line class="cls-5" x1="725.88" y1="345.81" x2="725.88" y2="351.43"/><polygon class="cls-2" points="1090.51 279.47 1073.19 277.94 1073.19 283.49 1079.36 286.36 1090.51 284.62 1090.12 284.44 1090.51 284.47 1090.51 279.47"/><polygon class="cls-2" points="1079.36 280.74 1073.19 277.87 1084.34 276.12 1090.51 278.99 1079.36 280.74"/><line class="cls-5" x1="1079.36" y1="280.74" x2="1079.36" y2="286.36"/><polygon class="cls-2" points="1075.28 281.81 1057.96 280.29 1057.96 285.83 1064.13 288.7 1075.28 286.96 1074.89 286.78 1075.28 286.81 1075.28 281.81"/><polygon class="cls-2" points="1064.13 283.08 1057.96 280.21 1069.11 278.46 1075.28 281.33 1064.13 283.08"/><line class="cls-5" x1="1064.13" y1="283.08" x2="1064.13" y2="288.7"/><polygon class="cls-2" points="1060.05 284.16 1042.73 282.63 1042.73 288.18 1048.9 291.05 1060.05 289.3 1059.67 289.12 1060.05 289.15 1060.05 284.16"/><polygon class="cls-2" points="1048.9 285.43 1042.73 282.56 1053.88 280.81 1060.05 283.68 1048.9 285.43"/><line class="cls-5" x1="1048.9" y1="285.42" x2="1048.9" y2="291.05"/><polygon class="cls-2" points="1107.5 283.76 1090.17 282.23 1090.17 287.78 1096.35 290.65 1107.5 288.9 1107.11 288.72 1107.5 288.76 1107.5 283.76"/><polygon class="cls-2" points="1096.35 285.03 1090.17 282.16 1101.32 280.41 1107.5 283.28 1096.35 285.03"/><line class="cls-5" x1="1096.35" y1="285.03" x2="1096.35" y2="290.65"/><polygon class="cls-2" points="1092.27 286.1 1074.95 284.57 1074.95 290.12 1081.12 292.99 1092.27 291.25 1091.88 291.06 1092.27 291.1 1092.27 286.1"/><polygon class="cls-2" points="1081.12 287.37 1074.95 284.5 1086.1 282.75 1092.27 285.62 1081.12 287.37"/><line class="cls-5" x1="1081.12" y1="287.37" x2="1081.12" y2="292.99"/><polygon class="cls-2" points="1077.04 288.44 1059.72 286.92 1059.72 292.46 1065.89 295.33 1077.04 293.59 1076.65 293.41 1077.04 293.44 1077.04 288.44"/><polygon class="cls-2" points="1065.89 289.71 1059.72 286.84 1070.87 285.1 1077.04 287.96 1065.89 289.71"/><line class="cls-5" x1="1065.89" y1="289.71" x2="1065.89" y2="295.33"/><path class="cls-2" d="M1057,303.06v7.5c0,1.38,1.68,2.5,3.75,2.5s3.75-1.12,3.75-2.5v-7.5H1057Z"/><ellipse class="cls-2" cx="1060.72" cy="303.06" rx="3.75" ry="2.5"/><path class="cls-2" d="M1039.4,305.7v7.5c0,1.38,1.68,2.5,3.75,2.5s3.75-1.12,3.75-2.5v-7.5h-7.5Z"/><ellipse class="cls-2" cx="1043.15" cy="305.7" rx="3.75" ry="2.5"/><path class="cls-2" d="M1021.83,308.33v7.5c0,1.38,1.68,2.5,3.75,2.5s3.75-1.12,3.75-2.5v-7.5h-7.5Z"/><ellipse class="cls-2" cx="1025.58" cy="308.33" rx="3.75" ry="2.5"/><path class="cls-2" d="M1070.92,307.2v7.5c0,1.38,1.68,2.5,3.75,2.5s3.75-1.12,3.75-2.5v-7.5h-7.5Z"/><ellipse class="cls-2" cx="1074.67" cy="307.2" rx="3.75" ry="2.5"/><path class="cls-2" d="M1053.35,309.83v7.5c0,1.38,1.68,2.5,3.75,2.5s3.75-1.12,3.75-2.5v-7.5h-7.5Z"/><ellipse class="cls-2" cx="1057.1" cy="309.83" rx="3.75" ry="2.5"/><path class="cls-2" d="M1035.78,312.47V320c0,1.38,1.68,2.5,3.75,2.5s3.75-1.12,3.75-2.5v-7.5h-7.5Z"/><ellipse class="cls-2" cx="1039.53" cy="312.47" rx="3.75" ry="2.5"/><path class="cls-2" d="M1126.45,286.43v7.5c0,1.38,1.68,2.5,3.75,2.5s3.75-1.12,3.75-2.5v-7.5h-7.5Z"/><ellipse class="cls-2" cx="1130.2" cy="286.43" rx="3.75" ry="2.5"/><path class="cls-2" d="M1108.88,289.06v7.5c0,1.38,1.68,2.5,3.75,2.5s3.75-1.12,3.75-2.5v-7.5h-7.5Z"/><ellipse class="cls-2" cx="1112.63" cy="289.06" rx="3.75" ry="2.5"/><path class="cls-2" d="M1091.31,291.7v7.5c0,1.38,1.68,2.5,3.75,2.5s3.75-1.12,3.75-2.5v-7.5h-7.5Z"/><ellipse class="cls-2" cx="1095.06" cy="291.7" rx="3.75" ry="2.5"/><path class="cls-2" d="M1140.41,290.56v7.5c0,1.38,1.68,2.5,3.75,2.5s3.75-1.12,3.75-2.5v-7.5h-7.5Z"/><ellipse class="cls-2" cx="1144.15" cy="290.56" rx="3.75" ry="2.5"/><path class="cls-2" d="M1122.84,293.2v7.5c0,1.38,1.68,2.5,3.75,2.5s3.75-1.12,3.75-2.5v-7.5h-7.5Z"/><ellipse class="cls-2" cx="1126.58" cy="293.2" rx="3.75" ry="2.5"/><path class="cls-2" d="M1105.27,295.83v7.5c0,1.38,1.68,2.5,3.75,2.5s3.75-1.12,3.75-2.5v-7.5h-7.5Z"/><ellipse class="cls-2" cx="1109.01" cy="295.83" rx="3.75" ry="2.5"/><path class="cls-2" d="M1008.47,310.36v7.5c0,1.38,1.68,2.5,3.75,2.5s3.75-1.12,3.75-2.5v-7.5h-7.5Z"/><ellipse class="cls-2" cx="1012.22" cy="310.36" rx="3.75" ry="2.5"/><path class="cls-2" d="M990.9,313v7.5c0,1.38,1.68,2.5,3.75,2.5s3.75-1.12,3.75-2.5V313h-7.5Z"/><ellipse class="cls-2" cx="994.65" cy="312.99" rx="3.75" ry="2.5"/><path class="cls-2" d="M973.33,315.63v7.5c0,1.38,1.68,2.5,3.75,2.5s3.75-1.12,3.75-2.5v-7.5h-7.5Z"/><ellipse class="cls-2" cx="977.08" cy="315.63" rx="3.75" ry="2.5"/><path class="cls-2" d="M955.76,318.26v7.5c0,1.38,1.68,2.5,3.75,2.5s3.75-1.12,3.75-2.5v-7.5h-7.5Z"/><ellipse class="cls-2" cx="959.51" cy="318.26" rx="3.75" ry="2.5"/><path class="cls-2" d="M1022.42,314.49V322c0,1.38,1.68,2.5,3.75,2.5s3.75-1.12,3.75-2.5v-7.5h-7.5Z"/><ellipse class="cls-2" cx="1026.17" cy="314.49" rx="3.75" ry="2.5"/><path class="cls-2" d="M1004.85,317.13v7.5c0,1.38,1.68,2.5,3.75,2.5s3.75-1.12,3.75-2.5v-7.5h-7.5Z"/><ellipse class="cls-2" cx="1008.6" cy="317.13" rx="3.75" ry="2.5"/><path class="cls-2" d="M987.28,319.76v7.5c0,1.38,1.68,2.5,3.75,2.5s3.75-1.12,3.75-2.5v-7.5h-7.5Z"/><ellipse class="cls-2" cx="991.03" cy="319.76" rx="3.75" ry="2.5"/><path class="cls-2" d="M969.71,322.4v7.5c0,1.38,1.68,2.5,3.75,2.5s3.75-1.12,3.75-2.5v-7.5h-7.5Z"/><ellipse class="cls-2" cx="973.46" cy="322.4" rx="3.75" ry="2.5"/><path class="cls-2" d="M941.66,320.68v7.5c0,1.38,1.68,2.5,3.75,2.5s3.75-1.12,3.75-2.5v-7.5h-7.5Z"/><ellipse class="cls-2" cx="945.41" cy="320.68" rx="3.75" ry="2.5"/><path class="cls-2" d="M924.09,323.31v7.5c0,1.38,1.68,2.5,3.75,2.5s3.75-1.12,3.75-2.5v-7.5h-7.5Z"/><ellipse class="cls-2" cx="927.84" cy="323.31" rx="3.75" ry="2.5"/><path class="cls-2" d="M906.52,325.95v7.5c0,1.38,1.68,2.5,3.75,2.5s3.75-1.12,3.75-2.5v-7.5h-7.5Z"/><ellipse class="cls-2" cx="910.27" cy="325.95" rx="3.75" ry="2.5"/><path class="cls-2" d="M888.95,328.58v7.5c0,1.38,1.68,2.5,3.75,2.5s3.75-1.12,3.75-2.5v-7.5h-7.5Z"/><ellipse class="cls-2" cx="892.7" cy="328.58" rx="3.75" ry="2.5"/><path class="cls-2" d="M955.61,324.81v7.5c0,1.38,1.68,2.5,3.75,2.5s3.75-1.12,3.75-2.5v-7.5h-7.5Z"/><ellipse class="cls-2" cx="959.36" cy="324.81" rx="3.75" ry="2.5"/><path class="cls-2" d="M938,327.45v7.5c0,1.38,1.68,2.5,3.75,2.5s3.75-1.12,3.75-2.5v-7.5H938Z"/><ellipse class="cls-2" cx="941.79" cy="327.45" rx="3.75" ry="2.5"/><path class="cls-2" d="M920.47,330.08v7.5c0,1.38,1.68,2.5,3.75,2.5S928,339,928,337.58v-7.5h-7.5Z"/><ellipse class="cls-2" cx="924.22" cy="330.08" rx="3.75" ry="2.5"/><path class="cls-2" d="M902.9,332.72v7.5c0,1.38,1.68,2.5,3.75,2.5s3.75-1.12,3.75-2.5v-7.5h-7.5Z"/><ellipse class="cls-2" cx="906.65" cy="332.72" rx="3.75" ry="2.5"/><path class="cls-2" d="M867.62,332.13v7.5c0,1.38,1.68,2.5,3.75,2.5s3.75-1.12,3.75-2.5v-7.5h-7.5Z"/><ellipse class="cls-2" cx="871.37" cy="332.13" rx="3.75" ry="2.5"/><path class="cls-2" d="M850,334.76v7.5c0,1.38,1.68,2.5,3.75,2.5s3.75-1.12,3.75-2.5v-7.5H850Z"/><ellipse class="cls-2" cx="853.8" cy="334.76" rx="3.75" ry="2.5"/><path class="cls-2" d="M832.48,337.4v7.5c0,1.38,1.68,2.5,3.75,2.5s3.75-1.12,3.75-2.5v-7.5h-7.5Z"/><ellipse class="cls-2" cx="836.23" cy="337.4" rx="3.75" ry="2.5"/><path class="cls-2" d="M814.91,340v7.5c0,1.38,1.68,2.5,3.75,2.5s3.75-1.12,3.75-2.5V340h-7.5Z"/><ellipse class="cls-2" cx="818.66" cy="340.03" rx="3.75" ry="2.5"/><path class="cls-2" d="M881.57,336.26v7.5c0,1.38,1.68,2.5,3.75,2.5s3.75-1.12,3.75-2.5v-7.5h-7.5Z"/><ellipse class="cls-2" cx="885.32" cy="336.26" rx="3.75" ry="2.5"/><path class="cls-2" d="M864,338.89v7.5c0,1.38,1.68,2.5,3.75,2.5s3.75-1.12,3.75-2.5v-7.5H864Z"/><ellipse class="cls-2" cx="867.75" cy="338.89" rx="3.75" ry="2.5"/><path class="cls-2" d="M846.43,341.53V349c0,1.38,1.68,2.5,3.75,2.5s3.75-1.12,3.75-2.5v-7.5h-7.5Z"/><ellipse class="cls-2" cx="850.18" cy="341.53" rx="3.75" ry="2.5"/><path class="cls-2" d="M828.86,344.17v7.5c0,1.38,1.68,2.5,3.75,2.5s3.75-1.12,3.75-2.5v-7.5h-7.5Z"/><ellipse class="cls-2" cx="832.61" cy="344.17" rx="3.75" ry="2.5"/></svg>