<svg id="Shadow" xmlns="http://www.w3.org/2000/svg" viewBox="0 0 1792 768"><defs><style>.cls-1,.cls-7,.cls-8{fill:#24265b;}.cls-1{opacity:0.1;}.cls-2{fill:#eeb9a9;}.cls-11,.cls-12,.cls-13,.cls-14,.cls-2,.cls-3,.cls-4,.cls-5,.cls-6,.cls-8,.cls-9{stroke:#24265b;stroke-linecap:round;stroke-linejoin:round;}.cls-11,.cls-12,.cls-13,.cls-14,.cls-2,.cls-3,.cls-4,.cls-5,.cls-8,.cls-9{stroke-width:3px;}.cls-3{fill:none;}.cls-4,.cls-6{fill:#fff;}.cls-5{fill:#93acb8;}.cls-6{stroke-width:2.55px;}.cls-9{fill:#cc296b;}.cls-10,.cls-11{fill:#296bcc;}.cls-12{fill:#69cc29;}.cls-13{fill:#6829cc;}.cls-14{fill:#ccad29;}</style></defs><title>topic</title><path class="cls-1" d="M867,665c-14.84,0-178.68,12.77-178.68,26.35s61.23,34,98.35,34,64.22-12.66,84-12.66,84.07,18.5,107.36,18.5,37.87-25.8,48.53-23.91,117.49,22,117.49,6.38-74.25-18.63-84.72-23.37-2.87-6.29-10.22-12.4-39.79-11-53.61-11-77.83,12.25-90.73,12.25S881.88,665,867,665Z"/><path class="cls-1" d="M903.32,611.83s144.41,58.27,172.55,67.72,102.08,2.5,73.61-22.53-196.22-54.88-196.22-54.88Z"/><path class="cls-2" d="M976,418.49c-7.53-70.4-7.53-97.42-6.16-130.23,1.41,6.14,18.84,7.93,20.38-4.52s-2.84-99.56-20-112.6c-8.88-6.75-37-8.65-40.65-19.32a40.86,40.86,0,0,1-1.34-5.36,32.42,32.42,0,0,1-10.13,1.33c-7.17,0-21.4-8.49-27.42-14.87v1.88c0,15-11.79,25-25.06,28.49-15.57,4.12-28.35,13.32-33.49,28.87s-19.81,73.1-19.81,113.53c0,10.41,29.34,11.88,28.84-2.79-0.32-9.24,13.63-40.08,18.21-56.13,3.56,28.44,19.6,50.05,9.36,109.51C861.35,399.22,979,446.95,976,418.49Z"/><path class="cls-3" d="M922.51,183.19c4.68,1,7.88,7.09,4.76,11.15-1.87,2.44-5.95,1.88-7.19,1.43s-3.07-.72-3.56-2.89c-0.58-2.58,2.12-3.86,3.5-2.61s0.81,3.67.06,5.51a7.35,7.35,0,0,1-7.46,4c-4.29-.42-5.9-4.9-4.33-9.53"/><path class="cls-4" d="M1064,438.79s-74.51,166-75.62,168.16-9.56,1.87-7.58-2.43c2.11-4.57,72.11-166.29,72.11-166.29Z"/><path class="cls-4" d="M1008.08,422.87s100.33,228.6,101.44,230.77,9.56,1.87,7.58-2.43c-2.11-4.57-100.78-231-100.78-231Z"/><path class="cls-4" d="M995.27,486s39.64-4.47,42-4.8c3.33-.47,4.89,5.7,2.11,6.16s-43.12,5-43.12,5Z"/><path class="cls-4" d="M1017.57,452.57S943.77,615,942.66,617.18s-9.56,1.87-7.58-2.43c2.11-4.57,74.24-164.87,74.24-164.87Z"/><path class="cls-4" d="M947.37,608.73c-1.45,3.73-2.85,6.69-4.16,9.42-2.12,4.42-11.78,2.37-9.43-3,0.94-2.16,2.35-5.77,4-9.38C938.91,609,945.15,609.75,947.37,608.73Z"/><path class="cls-4" d="M993.12,598.51c-1.45,3.73-2.85,6.69-4.16,9.42-2.12,4.42-11.78,2.37-9.43-3,0.94-2.16,2.35-5.77,4-9.38C984.65,598.73,990.9,599.53,993.12,598.51Z"/><path class="cls-4" d="M1104.81,645.2c1.45,3.73,2.85,6.69,4.16,9.42,2.12,4.42,11.78,2.37,9.43-3-0.94-2.16-2.35-5.77-4-9.38C1113.28,645.42,1107,646.21,1104.81,645.2Z"/><path class="cls-4" d="M964.47,432s101,232.16,102.15,234.33,9.56,1.87,7.58-2.43c-2.11-4.57-98.65-232.46-98.65-232.46Z"/><path class="cls-4" d="M904.3,429.52s112.52,48.87,178.31,53.77,79.77-14.22,56.14-26.14c-40.07-20.19-190.12-50.43-190.12-50.43Z"/><path class="cls-5" d="M904.3,423.75s112.52,48.87,178.31,53.77,79.77-14.22,56.14-26.14C1098.67,431.19,948.62,401,948.62,401Z"/><path class="cls-1" d="M697.16,626.69s-23.94,8.73-16.54,13.31c9.16,5.66,71.56,23.39,94,26.25,15.29,1.95,83.51-12,79-18.43S831.21,637,831.21,637Z"/><path class="cls-4" d="M1047.16,378.94s-17.23,11.89-20.27,19.89c-5.37,14.13-1.62,37.33,2.45,41.6,3,3.16,9.72,6.79,21.09,7.1,2.42,0.07,3.66-3,4.12-7.89-10.63,3.1-17.43-5-19.79-10.07-2-4.21-3-17.46-.09-22.83,2.69-5,6.73-4.48,16.7-4.93C1049.34,389.2,1047.16,378.94,1047.16,378.94Z"/><polygon class="cls-4" points="675.83 531.91 674.13 539.02 783.41 559.88 856.41 550.5 854.99 540.68 766.17 500.49 704 517.38 675.83 531.91"/><path class="cls-6" d="M989.06,652.62c-10.44-1.74-26.74,3.78-26.74,3.78-3.92.8-13.62-2-14.26,1.76s3.49,8.84,3.49,8.84l29,10.54,20.31-9.08S999.5,654.37,989.06,652.62Z"/><path class="cls-7" d="M950.1,664.91c-2.68,2.32,4.64,9.29,29.92,14.38,11.78,2.37,25.49-12.06,20.11-14.65-0.41,3.66-2-3-5.17-4.13s-9.47,2-8.47,5.31,0.29,7.82-4,7.91S950.74,668.65,950.1,664.91Z"/><path class="cls-7" d="M953.26,660.51s1,6.88,5.19,5.52c7.38-2.37,19.32,3.87,19.32,3.87s-13.13-9.43-17.44-7.94A6.84,6.84,0,0,1,953.26,660.51Z"/><path class="cls-7" d="M958.44,658.41a0.22,0.22,0,0,1,0-.1l0-.3a3.63,3.63,0,0,1,.28-0.91,4.37,4.37,0,0,1,.74-1.09,5,5,0,0,1,1.17-.93,6.27,6.27,0,0,1,.67-0.32,4.58,4.58,0,0,1,.68-0.2,3.86,3.86,0,0,1,1.23,0,3,3,0,0,1,.85.22,2,2,0,0,1,.31.15,1,1,0,0,1,.33,1.44l-0.11.14-0.1.11a2.35,2.35,0,0,1-.23.21c-0.14.13-.35,0.25-0.57,0.41s-0.24.14-.36,0.22a2.56,2.56,0,0,1-.38.21c-0.26.14-.53,0.25-0.79,0.37l-0.77.36c-0.26.11-.48,0.24-0.69,0.34l-0.53.27a0.44,0.44,0,0,1-.15.06,0.08,0.08,0,0,0-.05,0,0.78,0.78,0,0,1-1.26-.11Z"/><path class="cls-7" d="M962.11,657.53a0.22,0.22,0,0,1,0-.1l0-.3a3.63,3.63,0,0,1,.28-0.91,4.37,4.37,0,0,1,.74-1.09,5,5,0,0,1,1.17-.93,6.24,6.24,0,0,1,.67-0.32,4.57,4.57,0,0,1,.68-0.2,3.86,3.86,0,0,1,1.23,0,3,3,0,0,1,.85.22,2,2,0,0,1,.31.15,1,1,0,0,1,.33,1.44l-0.11.14-0.1.11a2.37,2.37,0,0,1-.23.21c-0.14.13-.35,0.25-0.57,0.41s-0.24.14-.36,0.22a2.56,2.56,0,0,1-.38.21c-0.26.14-.53,0.25-0.79,0.37l-0.77.36c-0.26.11-.48,0.24-0.69,0.34l-0.53.27a0.44,0.44,0,0,1-.15.06,0.08,0.08,0,0,0-.05,0,0.78,0.78,0,0,1-1.26-.11Z"/><path class="cls-7" d="M970.65,657.88a2.32,2.32,0,0,1-.14-0.36,3.92,3.92,0,0,1-.18-0.94,4.47,4.47,0,0,1,.14-1.38,4.29,4.29,0,0,1,.77-1.53,3.73,3.73,0,0,1,.64-0.65,3.48,3.48,0,0,1,.74-0.47,3.38,3.38,0,0,1,.76-0.26,2.75,2.75,0,0,1,.68-0.08,2.16,2.16,0,0,1,.56,0,3.35,3.35,0,0,1,.42.11,2.14,2.14,0,0,1,.35.14,1,1,0,0,1,.27,1.52l-0.15.18a2.7,2.7,0,0,1-.22.22c-0.13.13-.33,0.26-0.51,0.43a2.7,2.7,0,0,0-.28.24c-0.08.1-.19,0.15-0.26,0.24s-0.17.14-.24,0.23a2.32,2.32,0,0,0-.24.23,4.66,4.66,0,0,0-.49.57c-0.16.22-.31,0.46-0.45,0.68l-0.34.57a1.64,1.64,0,0,0-.14.22A0.85,0.85,0,1,1,970.65,657.88Z"/><path class="cls-7" d="M967.3,658a2.32,2.32,0,0,1-.14-0.36,3.92,3.92,0,0,1-.18-0.94,4.47,4.47,0,0,1,.14-1.38,4.29,4.29,0,0,1,.77-1.53,3.73,3.73,0,0,1,.64-0.65,3.48,3.48,0,0,1,.74-0.47,3.38,3.38,0,0,1,.76-0.26,2.75,2.75,0,0,1,.68-0.08,2.16,2.16,0,0,1,.56,0,3.35,3.35,0,0,1,.42.11,2.14,2.14,0,0,1,.35.14,1,1,0,0,1,.27,1.52l-0.15.18a2.69,2.69,0,0,1-.22.22c-0.13.13-.33,0.26-0.51,0.43a2.69,2.69,0,0,0-.28.24c-0.08.1-.19,0.15-0.26,0.24s-0.17.14-.24,0.23a2.32,2.32,0,0,0-.24.23,4.66,4.66,0,0,0-.49.57c-0.16.22-.31,0.46-0.45,0.68l-0.34.57a1.65,1.65,0,0,0-.14.22A0.85,0.85,0,0,1,967.3,658Z"/><path class="cls-8" d="M965,654.13s7.68-79.68,10.12-117.66c0.69-10.78,3.95-89.52.9-118-1.52-14.21-2.73-26.65-3.69-37.73-5.2,8.22-84.49,12.84-106.21.43C865,410,871,428.52,870.43,431.49c-0.68,3.76-5.72,57.71-7.44,120.61-0.89,32.36,4.45,103.46,4.06,105.75l12.07,0.28c1.8-20,7.09-66.93,11.32-105.11,4.64-41.82,26.61-111.68,28.12-117.46a78.68,78.68,0,0,1,8.92-1.43c1.25,4.65,10,46.83,16.12,93.68S953,655.92,953,655.92l7,0.36Z"/><path class="cls-9" d="M809.6,259.56c0,8.06,28.33,14.1,45.54,14.1,0.15,15.07.19,42.5,0.77,63.39,0.61,22-3.19,37.5-.77,55.26,3.34,24.55,130.13,18.68,127.57,4.6s-12.88-97.51-12.88-110.14c0-5.15,1.22-21.47,1.22-21.47s26.29-4.93,26.29-14.92c0-25.15-8.23-42.51-14.83-68-3.83-14.79-26.95-19.18-41.41-23.78-2.07-2.59-8.65-5.34-10-4.13,14.63,20.25,6.89,38.25-3.75,47.5-36.24-6.64-48.74-34-44-48.77-0.71-2.26-7.21.07-8.19,2.2-17.21,2.84-43.49,11.5-48.09,30.37C819.79,215.43,811.38,230.54,809.6,259.56Z"/><path class="cls-3" d="M967.69,207.64s5.11,32.67,3.35,57.64"/><path class="cls-3" d="M866.13,219.58c-0.71,18.27-6.12,34.86-6.76,47.8-0.23,4.68-1.54,6.27-5,6.27"/><path class="cls-3" d="M875.12,155.39c-5.9,35.66,39.46,53.44,54.34,55.81,11.22-11.14,24.38-26.55,11.64-52.61"/><path class="cls-3" d="M859.38,265.28c-3.2,4.23-50.3-4.31-49.21-12.57"/><path class="cls-3" d="M971.76,259.56c8.15,0,25.57-9.19,25.57-12.94"/><path class="cls-3" d="M854.4,384c5,28.44,127.42,20.27,127.42,6.63"/><polygon class="cls-10" points="751.38 502.07 805.69 511.33 814.93 540.68 777.48 535.7 751.38 502.07"/><path class="cls-11" d="M819.67,526.7c0-22.52-45-39.14-67.08-26.21"/><path class="cls-10" d="M844.62,642.67c-3.24,6-44.43,17.26-57.55,17.26s-93.14-18.65-96.81-25.88c-6.64-13.08-11.59-89.7-11.59-89.7L784.27,556l67.49-3.82S847.86,636.71,844.62,642.67Z"/><path class="cls-4" d="M709,521.72c-4.1-20.94,50.25-33.19,53.81-14.7,0,0,3.15,15.11,2.32,17.42s-47.24,24.36-47.24,24.36A126.69,126.69,0,0,1,709,521.72Z"/><path class="cls-12" d="M675.83,534c-2.88-13.51,29.06-25.93,37.18-17.61a22,22,0,0,1,5.79,12.89l2.86,18.78-46.82-10.85Z"/><path class="cls-13" d="M718,543.07c-4-9,.47-19,15.41-23.25,8.9-2.54,45.27-7.82,50,14.22l-3.74,21.45-55.4-4.91Z"/><path class="cls-4" d="M855.14,543.07c3.94-44.07-61.72-25-66.7-16.37L794,555.49l59.56-7.58Z"/><path class="cls-14" d="M829.53,549.11c-3.65-17.91-22.42-25.49-38.3-22.41s-28.92,11.14-27.73,23.1l18,11.53Z"/><path class="cls-4" d="M763.34,655.68c-5-17.6-4.74-89.13-4.74-89.13l7.18,0.73s-0.24,72.25,4.74,89.84"/><path class="cls-4" d="M791.15,659.33c-5-17.6-3.32-89.84-3.32-89.84l-7.9,0s-1.66,72.25,3.32,89.84"/><path class="cls-4" d="M748.95,652.73c-5-17.6-4.74-89.13-4.74-89.13L737,562.15s0,71.2,5,88.8"/><path class="cls-4" d="M803.6,657.6c2.57-3.65,1.2-85.27.93-89.14l7.37-1c0.89,7.8,1.63,84.78-.93,88.43"/><path class="cls-4" d="M824.18,651.7c2.57-3.65,3.62-82.9,3.36-86.77l7.37-1c0.89,7.8-1.14,81.67-3.7,85.31"/><path class="cls-4" d="M850.73,575.51c-6.36,2.27-56.08,11-65.88,10.86S693,572.13,680.62,567l0.71,6.95c12.35,5.17,93.73,19.27,103.52,19.4s58.81-8.59,65.17-10.86Z"/><path class="cls-4" d="M848.54,606c-6.36,2.27-53.9,10.81-63.69,10.68S696,602.6,683.64,597.43l-0.79-7c12.35,5.17,92.21,19.2,102,19.32s57.79-8.1,64.15-10.37"/><path class="cls-4" d="M685.93,612.2c12.35,5.17,89.13,21.91,98.92,22s56.37-10.29,62.72-12.56l-0.46,6.64c-6.36,2.27-52.47,13-62.27,12.87s-85.78-16.84-98.13-22Z"/><path class="cls-4" d="M1043.77,377.49c-8.8,16.27-11.88,64.67-6,68.47s32.55,2.69,34.06-1.37c3.91-10.5.41-55.17-10.14-68.86C1057.4,370.15,1049.25,367.36,1043.77,377.49Z"/><circle class="cls-4" cx="1054.76" cy="383.36" r="2.13"/><circle class="cls-4" cx="1049.29" cy="393.09" r="2.13"/><circle class="cls-4" cx="1060.93" cy="393.09" r="2.13"/><circle class="cls-4" cx="1048.72" cy="400.98" r="2.13"/><circle class="cls-4" cx="1062.5" cy="400.98" r="2.13"/><circle class="cls-4" cx="1049.29" cy="437.5" r="2.13"/><circle class="cls-4" cx="1063.07" cy="437.5" r="2.13"/><circle class="cls-4" cx="1047.87" cy="429.25" r="2.13"/><circle class="cls-4" cx="1064.49" cy="429.25" r="2.13"/><path class="cls-4" d="M1061.91,657.87c1.45,3.73,2.85,6.69,4.16,9.42,2.12,4.42,11.78,2.37,9.43-3-0.94-2.16-2.35-5.77-4-9.38C1070.38,658.09,1064.13,658.89,1061.91,657.87Z"/><path class="cls-4" d="M844.62,642.67c3.24-6,7.14-90.5,7.14-90.5l-5.93,10.69c0.13,14.08-3.16,79.15-5.72,82.8"/><path class="cls-4" d="M694.34,637c-5.76-20.13-10.15-83.84-10.15-83.84l-5.51-8.76s5,76.62,11.59,89.7"/><path class="cls-4" d="M721.66,645.48c-5-17.6-5.72-87-5.72-87l6.47,1.44s0.75,70.14,5.72,87.73"/><path class="cls-4" d="M709.42,642.61c-6.13-18.73-8.33-86.26-8.33-86.26l-6.47-.73s2.57,64.71,8.33,84.84"/><path class="cls-4" d="M675.93,550.69c12.9,5.4,98.64,18.64,108.86,18.78s62.17-6.74,68.81-9.11c5.81-2.07,6.19-16.79,1.54-17.28,0,5.2-69.64,10.37-69.64,10.37S675.83,540,675.83,534C670.58,534,670.51,548.42,675.93,550.69Z"/><path class="cls-4" d="M690.26,634.05c3.67,7.23,83.68,25.88,96.81,25.88s54.32-11.29,57.55-17.26l0.91-3.53c-3.63,5.13-50.35,16.38-60.14,16.25s-89.78-17.84-96.71-25.57Z"/><path class="cls-6" d="M855.47,658.7c-13.5-.44-18.05,14.81-18.05,14.81s15,12.55,25.17,12.55,21.91-10.92,22.18-15.49-4.27-10.85-9.46-11.9S866.17,659.05,855.47,658.7Z"/><path class="cls-7" d="M884.76,670.58c2.4,4.18-11.8,15.49-22.18,15.49s-27.72-4.14-26.93-12.27c0.21-2.11.55-5.18,4.92-6.28-1.15,2.53.62,3.87,1.54,1.24,1.42-4.06,14.71-3,15.07,1.94,0.18,2.58,1.51,7.55,9.68,7.39S883.61,674.82,884.76,670.58Z"/><path class="cls-7" d="M866.86,673.51s4.24-6.46,7-6.27,2.56-3.79,2.56-3.79,4,7.44,0,7.2S866.86,673.51,866.86,673.51Z"/><path class="cls-7" d="M864.28,657.3a0.31,0.31,0,0,1,.1-0.06l0.3-.16a4.36,4.36,0,0,1,1-.34,5.27,5.27,0,0,1,1.52-.06,6.09,6.09,0,0,1,1.67.43,7.81,7.81,0,0,1,.77.39,5.87,5.87,0,0,1,.67.48,4.9,4.9,0,0,1,1,1.07,3.71,3.71,0,0,1,.45.91,2.58,2.58,0,0,1,.11.38,1,1,0,0,1-1.14,1.15l-0.12,0a2.82,2.82,0,0,1-.34-0.09c-0.21-.06-0.47-0.19-0.78-0.3-0.16-.06-0.3-0.14-0.46-0.22a3.89,3.89,0,0,1-.49-0.24c-0.33-.16-0.65-0.35-1-0.52s-0.66-.33-1-0.46-0.63-.26-0.9-0.37L865,659,864.8,659a0.13,0.13,0,0,0-.07,0,0.83,0.83,0,0,1-.68-1.27Z"/><path class="cls-7" d="M857.74,657.57l0.11,0,0.34,0a4.36,4.36,0,0,1,1.09,0,5.27,5.27,0,0,1,1.44.48,6.09,6.09,0,0,1,1.41,1,7.79,7.79,0,0,1,.58.64,5.85,5.85,0,0,1,.46.68,4.89,4.89,0,0,1,.52,1.34,3.71,3.71,0,0,1,.1,1,2.58,2.58,0,0,1,0,.39,1,1,0,0,1-1.48.68l-0.11-.06a2.81,2.81,0,0,1-.29-0.21c-0.18-.13-0.37-0.34-0.63-0.56s-0.23-.24-0.36-0.37a3.88,3.88,0,0,1-.37-0.39c-0.25-.27-0.49-0.56-0.74-0.83s-0.5-.54-0.75-0.78-0.5-.46-0.72-0.66l-0.56-.47a0.77,0.77,0,0,1-.14-0.13,0.13,0.13,0,0,0-.06,0,0.83,0.83,0,0,1-.19-1.43Z"/><path class="cls-7" d="M866.7,662.89l-0.29-.21c-0.17-.12-0.42-0.39-0.67-0.55l-0.81-.65-0.9-.68c-0.61-.42-1.18-0.81-1.65-1.16-0.23-.18-0.44-0.32-0.59-0.45a0.49,0.49,0,0,1-.19-0.19,0.85,0.85,0,0,1-.08-1.69s0.19-.09.46-0.17a3.62,3.62,0,0,1,1.11-.13,4.53,4.53,0,0,1,.73.09,4,4,0,0,1,.78.23,5.52,5.52,0,0,1,1.48.9,6.74,6.74,0,0,1,1.13,1.25l0.39,0.65c0.11,0.22.2,0.45,0.29,0.64a3.65,3.65,0,0,1,.24.92c0,0.22,0,.36,0,0.36A0.94,0.94,0,0,1,866.7,662.89Z"/></svg>