<svg id="Shadow" xmlns="http://www.w3.org/2000/svg" viewBox="0 0 1792 768"><defs><style>.cls-1,.cls-4{fill:#24265b;}.cls-1{opacity:0.1;}.cls-2{fill:#eeb9a9;}.cls-2,.cls-3,.cls-4,.cls-5,.cls-6{stroke:#24265b;stroke-linecap:round;stroke-linejoin:round;stroke-width:3px;}.cls-3{fill:none;}.cls-5{fill:#cc2929;}.cls-6{fill:#fff;}</style></defs><title>topic</title><path class="cls-1" d="M867,665c-14.84,0-178.68,12.77-178.68,26.35s61.23,34,98.35,34,64.22-12.66,84-12.66,84.07,18.5,107.36,18.5,37.87-25.8,48.53-23.91,117.49,22,117.49,6.38-74.25-18.63-84.72-23.37-2.87-6.29-10.22-12.4-39.79-11-53.61-11-77.83,12.25-90.73,12.25S881.88,665,867,665Z"/><path class="cls-2" d="M879.11,658.13c1.8-20,7.09-66.93,11.32-105.11,4.64-41.82,26.61-111.68,28.12-117.46a78.66,78.66,0,0,1,8.92-1.43c1.25,4.65,10,46.83,16.12,93.68s9.44,126,9.44,126a18.65,18.65,0,0,1,0,8.18c-2.39,8.37,7,4.76,14.68,10.08,3.64,2.53,7.26,4.17,11.1,3.3a4.27,4.27,0,0,0,5.85-1.92,6,6,0,0,1,5.15-1.58,3.11,3.11,0,0,0,2.71-3.27,2.8,2.8,0,0,0,2.75-3.68,1.85,1.85,0,0,0-1.1-3.48,6.49,6.49,0,0,1-1.78.23c-3.9-2.4-26.24-5.82-27.4-9.66,0,0,7.68-77.55,10.12-115.53,0.69-10.78,3.95-89.52.9-118-7.53-70.4-7.53-97.42-6.16-130.23,1.41,6.14,18.84,7.93,20.38-4.52s-2.84-99.56-20-112.6c-8.88-6.75-37-8.65-40.65-19.32a40.79,40.79,0,0,1-1.34-5.36,32.43,32.43,0,0,1-10.13,1.33c-7.17,0-21.4-8.49-27.42-14.87v1.88c0,15-11.79,25-25.06,28.49-15.57,4.12-28.35,13.32-33.49,28.87s-19.81,73.1-19.81,113.53c0,10.41,29.34,11.88,28.84-2.79-0.32-9.24,13.63-40.08,18.21-56.13,3.56,28.44,19.6,50.05,9.36,109.51-7.39,43,2.37,71.47,1.69,75.22S864.71,489.2,863,552.1c-0.89,32.36,4.45,103.46,4.06,105.75"/><path class="cls-2" d="M980.73,669.46c1.81,0,4.71.9,3.92,4"/><path class="cls-2" d="M986.14,668.24a2.86,2.86,0,0,1,2.5,3.53"/><path class="cls-2" d="M989.8,665.86a2.86,2.86,0,0,1,2.5,3.53"/><path class="cls-2" d="M990.6,663.2c2,0.28,4.55,1.19,4.67,1.71"/><path class="cls-2" d="M969.82,209.07c1.49,22,2.27,37.69,0,79.19"/><path class="cls-3" d="M933.86,210.27c4.68,1,7.88,7.09,4.76,11.15-1.87,2.44-5.95,1.88-7.19,1.43s-3.07-.72-3.56-2.89c-0.58-2.58,2.12-3.86,3.5-2.61s0.81,3.67.06,5.51a7.35,7.35,0,0,1-7.46,4c-4.29-.42-5.9-4.9-4.33-9.53"/><path class="cls-3" d="M940.67,208.39c3.88-3.19,15.4,4.54,7,10.18"/><path class="cls-3" d="M912.59,221c2.9,2.26-.75,11.73-6.14,6.63"/><path class="cls-3" d="M933.89,238.33c1.89,3.34-.1,8.51-4.2,8.79-2.47.17-4.29-2.59-4.68-3.58s-1.19-2.23-.14-3.68a1.84,1.84,0,0,1,3.44.72c0,1.5-1.78,2.44-3.29,3a5.91,5.91,0,0,1-6.39-2.37c-2-2.81-.17-6.16,3.45-7.67"/><path class="cls-3" d="M938.6,247.8c2.86,0.46,5,4.07,3.19,6.61-1.06,1.53-3.55,1.3-4.31,1.06s-1.88-.35-2.23-1.65a1.39,1.39,0,0,1,2-1.68c0.87,0.72.59,2.2,0.19,3.33a4.45,4.45,0,0,1-4.4,2.64c-2.61-.13-3.71-2.8-2.89-5.65"/><path class="cls-3" d="M935.19,232.19c4.14-2.85,15,5.83,6.09,10.73"/><path class="cls-3" d="M905.44,244.67c-2-3.09,4.57-10.83,8-4.24"/><path class="cls-3" d="M913.58,209.7c1.47-5.23,16.47-5.5,12.48,4.71"/><path class="cls-3" d="M923.32,249.07c-0.11,3.68-9.9,6.32-9-1"/><path class="cls-3" d="M944.33,227.55c2.54-2.66,11.59,1.93,6,6.77"/><path class="cls-2" d="M866.84,216c-1.42,8.61-5.21,21.77-7.47,30.74"/><path class="cls-3" d="M933.86,210.27c4.68,1,7.88,7.09,4.76,11.15-1.87,2.44-5.95,1.88-7.19,1.43s-3.07-.72-3.56-2.89c-0.58-2.58,2.12-3.86,3.5-2.61s0.81,3.67.06,5.51a7.35,7.35,0,0,1-7.46,4c-4.29-.42-5.9-4.9-4.33-9.53"/><path class="cls-3" d="M940.67,208.39c3.88-3.19,15.4,4.54,7,10.18"/><path class="cls-3" d="M912.59,221c2.9,2.26-.75,11.73-6.14,6.63"/><path class="cls-3" d="M933.89,238.33c1.89,3.34-.1,8.51-4.2,8.79-2.47.17-4.29-2.59-4.68-3.58s-1.19-2.23-.14-3.68a1.84,1.84,0,0,1,3.44.72c0,1.5-1.78,2.44-3.29,3a5.91,5.91,0,0,1-6.39-2.37c-2-2.81-.17-6.16,3.45-7.67"/><path class="cls-3" d="M938.6,247.8c2.86,0.46,5,4.07,3.19,6.61-1.06,1.53-3.55,1.3-4.31,1.06s-1.88-.35-2.23-1.65a1.39,1.39,0,0,1,2-1.68c0.87,0.72.59,2.2,0.19,3.33a4.45,4.45,0,0,1-4.4,2.64c-2.61-.13-3.71-2.8-2.89-5.65"/><path class="cls-3" d="M935.19,232.19c4.14-2.85,15,5.83,6.09,10.73"/><path class="cls-3" d="M905.44,244.67c-2-3.09,4.57-10.83,8-4.24"/><path class="cls-3" d="M913.58,209.7c1.47-5.23,16.47-5.5,12.48,4.71"/><path class="cls-3" d="M923.32,249.07c-0.11,3.68-9.9,6.32-9-1"/><path class="cls-3" d="M944.33,227.55c2.54-2.66,11.59,1.93,6,6.77"/><path class="cls-4" d="M971.31,201.95s1.75,8.95,2,11.89c0.23,2.45-5.58,8-5.58,8s-6.37-3.79-6.94-6.4-1.28-12.61-1.28-12.61Z"/><path class="cls-4" d="M887,206.15s0.82,9.09,1.42,12c0.5,2.43,8.73,6.23,8.73,6.23s6-5.35,5.78-8-2.49-12.5-2.49-12.5Z"/><polygon class="cls-4" points="961.8 221.42 962.15 226.09 972.69 225.49 972.69 221 961.8 221.42"/><polygon class="cls-4" points="888.55 223.66 888.91 228.34 902.95 226.91 902.95 222.43 888.55 223.66"/><path class="cls-5" d="M928.78,42.37c-24.41-6.14-47,4.57-52.32,28.89-1,4.55-4.38,11.44-8.51,13.86-8.11,4.76-3.4,21.08,6.8,23.05,0,0-.88-5.8,3.85-6.95,3.26-.79,7.27.24,6.28,0.58,0,0,8.05-16.21,22.16-21.34s32.53-11.92,42.55-7.72C950.08,63.45,942.3,45.76,928.78,42.37Z"/><path class="cls-6" d="M944,56.63c2.38,5.71.49,11.52-4.35,11.95-7.4.65-15.06-2.93-17.27-9.44-2-5.79.57-13.18,7.13-13.34C935.22,45.65,941.91,51.68,944,56.63Z"/><path class="cls-5" d="M941.2,63.6c-22.87-.34-46.42,15.24-47.87,27"/><path class="cls-5" d="M884.87,101.8c6.18-8.1,10.77-15.42,16.82-19.14,10.36-6.38,26-24,50.92-17.75,8.62,2.17,12.57,9.76,10.9,16.43-2.25,9-9.38,11.79-16,13.48,0,0-1.62-16.19-14.3-19.38S893.54,92,884.87,101.8Z"/><path class="cls-5" d="M926.15,59.35L930,62.41s2.59-5.46,2.57-7.3c0.89,1.32,2.28,2.61,2.95,3.84a10.37,10.37,0,0,0,1.8-3.26c0.66,1.27,2.73,6.6,2.73,7.81,1.66-.1,3.84-0.42,3.84-0.42s-3.13-8.7-6.57-12.52a24.34,24.34,0,0,0-2.17,2.75s-4.32-3.9-5.35-4.65C929,51.51,926.15,59.35,926.15,59.35Z"/><path class="cls-5" d="M905.44,231.63c6.94,5.64,48.34,5.36,54.39-1.18,0-1.51-.16-4.39,2.17-5.11a23,23,0,0,1,10.69-.58c1.15,0.25,1.71,2.16,1.87,4.56,1.81,27.22-.68,48.58-3,59-3,13.47,9.11,95.72,11.2,151.9,2.14,57.54,2.4,148.62-.56,157.87-10.76,1.1-30.33,2.13-40.29-1.78,0.21-19.86,1.34-105.62-12.45-147.14-1.9-1.16-8.64-1.51-11.32,0-10.76,39.38-17.44,109.81-16.44,143.23-8.78,2.73-38.72.71-45.12-1.42-5.18-122.31,11.41-152.19,6.08-167.27-8.88-25.12-1.74-67.52-.28-83.71,0.58-6.46,5.15-10,9.92-10.12,18.13-.45,23.54-23.63,21.05-49.58-2.13-22.22-4.78-42-6.41-47.2-0.36-1.14-.67-3.9,2-4.72,3.56-1.09,9.42-1.57,14-1.42C905.1,227,905.36,230,905.44,231.63Z"/><path class="cls-5" d="M858.46,166.23c8.45-3.4,24.05,16.12,26.29,36.8,0.76,7.07,17.47,3.55,17.3-1.42-0.48-14.4-8.82-34.49-25.8-43.38C871,155.45,856.32,164.27,858.46,166.23Z"/><path class="cls-5" d="M936,157.45c7.69,2.91,22.19,26.73,22.19,42.91,0,3.91,13,4.78,13.27,1.42,1.18-16.53-10-33.17-15.85-39.39C951,157.4,937.24,154,936,157.45Z"/><path class="cls-5" d="M908.82,255.29c14.22,2.38,38.29,1.24,52-2.33,2.71-.7,4.83.32,5.24,2.39,0.51,2.61.58,48.68-6.54,58.43-11.8,16.15-48.07,15.82-52.08,5.63-2.61-6.65,4-32.3-1-59.08C906,257.67,906.78,255,908.82,255.29Z"/><path class="cls-4" d="M876,112.59s-2.71,1.64-4.49.53c-1.07,2.8,1.51,7.56,4.49,7.49-0.93,2.06-2.49,4.71-4.73,5,1.67,2.41,8,3.18,10,1.73-1.57,4.24-2.73,9.1-5,10.4,4.14-.12,9.06.36,11.58-3.32a9.76,9.76,0,0,1-3.78,8.54c3.1,0.7,7.87-4.27,7.87-4.27l0.35-5a27.65,27.65,0,0,1-2.86-5l-1.75-11.55S878.59,119.82,876,112.59Z"/><path class="cls-4" d="M891.9,91c-1.21,7-2.78,19.32,6.11,28.46,1.43,1.47-5.94-.47-8.27-2s-3.29-10.8-3.14-17.87C887.82,95.82,891.9,91,891.9,91Z"/><path class="cls-4" d="M946.84,101.48s0.71,5.28,5.54,5c0.39,5-2.13,4.9-3.91,6.09a5.68,5.68,0,0,1,1.71,6.1c-2.63-2.24-4.71-.73-4.71-0.73Z"/><path class="cls-3" d="M922.51,183.19c4.68,1,7.88,7.09,4.76,11.15-1.87,2.44-5.95,1.88-7.19,1.43s-3.07-.72-3.56-2.89c-0.58-2.58,2.12-3.86,3.5-2.61s0.81,3.67.06,5.51a7.35,7.35,0,0,1-7.46,4c-4.29-.42-5.9-4.9-4.33-9.53"/><path class="cls-2" d="M867,657.85c-0.67,4-22.41,10.15-26,13a6.5,6.5,0,0,1-1.8,0,1.85,1.85,0,0,0-.66,3.59,2.8,2.8,0,0,0,2.76,3.35,2.79,2.79,0,0,0,.43,0,6.42,6.42,0,0,0,8.41,3.82,4.26,4.26,0,0,0,6,1.17c3.93,0.39,7.31-1.69,10.6-4.67,6.9-6.23,16.72-3.84,13.3-11.84a18.65,18.65,0,0,1-1-8.12"/><path class="cls-2" d="M853.6,677.16c-1.79.27-4.56,1.48-3.39,4.43"/><path class="cls-2" d="M848.09,676.62a2.86,2.86,0,0,0-2,3.82"/><path class="cls-2" d="M844.16,674.71a2.86,2.86,0,0,0-2,3.82"/><path class="cls-2" d="M843,672.17c-2,.53-4.37,1.75-4.42,2.28"/></svg>