<svg id="Shadow" xmlns="http://www.w3.org/2000/svg" viewBox="0 0 1792 768"><defs><style>.cls-1{fill:#24265b;opacity:0.1;}.cls-2{fill:#fff;}.cls-2,.cls-3,.cls-4{stroke:#24265b;stroke-linecap:round;stroke-linejoin:round;stroke-width:3.42px;}.cls-3{fill:#eeb9a9;}.cls-4{fill:#94809e;}</style></defs><title>topic</title><ellipse class="cls-1" cx="913.32" cy="658.37" rx="74.42" ry="18.36"/><path class="cls-2" d="M963.9,643.22c-10.1-3.64-29-6.09-50.59-6.09s-40.48,2.45-50.59,6.09H854.9v6.09c0,6.72,26.16,12.17,58.42,12.17s58.42-5.45,58.42-12.17v-6.09H963.9Z"/><ellipse class="cls-2" cx="913.32" cy="643.22" rx="58.42" ry="12.17"/><path class="cls-2" d="M904.8,630.13v13.09h0.13c0.68,1.15,4.17,2,8.39,2s7.71-.88,8.39-2h0.13V630.13h-17Z"/><ellipse class="cls-2" cx="913.32" cy="630.13" rx="8.52" ry="2.43"/><path class="cls-2" d="M907.23,319.18V630.13c0,0.67,2.72,1.22,6.09,1.22s6.09-.54,6.09-1.22V319.18H907.23Z"/><path class="cls-3" d="M933.31,264c4.54,2.25,15.06.83,32.52,5.56,3.32,0.9,4.28,4.16,1.87,5.89,2.67,1.06,4.69,1.63,5.85,4.6,0.72,1.84-.77,3.15-1.41,4.18,2.53,2.95-.85,7.43-3.55,5.55-4.89-3.4-11.28-4.66-15.79-6,4.19,1.22,11,4.49,12.69,7.51,2.1,3.75,0,6.13-4.66,4.1-3-1.31-11-7-19.32-10,3.91,2.5,8.85,9.31,3.86,10.72-3,.85-11.09-4.5-15.58-8-6.31-4.87-11-11.65-11-17.5"/><path class="cls-3" d="M956.17,278.8s11.85,2.42,16,5.38"/><path class="cls-3" d="M967.7,275.41s-6.88-2.62-10.8-3.08"/><polygon class="cls-4" points="1001.61 315.67 884.02 351.45 884.02 304.54 1001.61 268.75 1001.61 315.67"/><polygon class="cls-4" points="809.06 328.38 884.02 351.45 884.02 304.54 809.06 299.31 809.06 328.38"/><polygon class="cls-4" points="926.6 263.49 1001.56 268.71 884.02 304.54 809.06 299.31 926.6 263.49"/><path class="cls-2" d="M934,257.93v7.3c0,1.34,1.63,2.43,3.65,2.43s3.65-1.09,3.65-2.43v-7.3H934Z"/><ellipse class="cls-2" cx="937.67" cy="257.93" rx="3.65" ry="2.43"/><path class="cls-2" d="M918,262.5v7.3c0,1.34,1.63,2.43,3.65,2.43s3.65-1.09,3.65-2.43v-7.3H918Z"/><ellipse class="cls-2" cx="921.69" cy="262.5" rx="3.65" ry="2.43"/><path class="cls-2" d="M902.07,267.06v7.3c0,1.34,1.63,2.43,3.65,2.43s3.65-1.09,3.65-2.43v-7.3h-7.3Z"/><ellipse class="cls-2" cx="905.72" cy="267.06" rx="3.65" ry="2.43"/><path class="cls-2" d="M953.49,260.37v7.3c0,1.34,1.63,2.43,3.65,2.43s3.65-1.09,3.65-2.43v-7.3h-7.3Z"/><ellipse class="cls-2" cx="957.14" cy="260.37" rx="3.65" ry="2.43"/><path class="cls-2" d="M937.51,264.93v7.3c0,1.34,1.63,2.43,3.65,2.43s3.65-1.09,3.65-2.43v-7.3h-7.3Z"/><ellipse class="cls-2" cx="941.17" cy="264.93" rx="3.65" ry="2.43"/><path class="cls-2" d="M921.54,269.5v7.3c0,1.34,1.63,2.43,3.65,2.43s3.65-1.09,3.65-2.43v-7.3h-7.3Z"/><ellipse class="cls-2" cx="925.19" cy="269.5" rx="3.65" ry="2.43"/><path class="cls-2" d="M972.89,261.54v7.3c0,1.34,1.63,2.43,3.65,2.43s3.65-1.09,3.65-2.43v-7.3h-7.3Z"/><ellipse class="cls-2" cx="976.54" cy="261.54" rx="3.65" ry="2.43"/><path class="cls-2" d="M956.91,266.1v7.3c0,1.34,1.63,2.43,3.65,2.43s3.65-1.09,3.65-2.43v-7.3h-7.3Z"/><ellipse class="cls-2" cx="960.57" cy="266.1" rx="3.65" ry="2.43"/><path class="cls-2" d="M940.94,270.66V278c0,1.34,1.63,2.43,3.65,2.43s3.65-1.09,3.65-2.43v-7.3h-7.3Z"/><ellipse class="cls-2" cx="944.59" cy="270.66" rx="3.65" ry="2.43"/><polygon class="cls-2" points="854.61 283.54 854.61 287.52 881.57 289.4 908.85 280.99 908.85 277.01 854.61 283.54"/><polygon class="cls-2" points="881.89 275.13 908.85 277.01 881.57 285.42 854.61 283.54 881.89 275.13"/><polygon class="cls-2" points="827.49 291.94 827.49 295.92 854.45 297.8 881.73 289.38 881.73 285.4 827.49 291.94"/><polygon class="cls-2" points="854.77 283.52 881.73 285.4 854.45 293.81 827.49 291.94 854.77 283.52"/><polygon class="cls-2" points="881.73 285.42 881.73 289.4 908.69 291.28 935.97 282.87 935.97 278.88 881.73 285.42"/><polygon class="cls-2" points="909.01 277.01 935.97 278.88 908.69 287.3 881.73 285.42 909.01 277.01"/><polygon class="cls-2" points="854.61 293.81 854.61 297.8 881.57 299.68 908.85 291.26 908.85 287.28 854.61 293.81"/><polygon class="cls-2" points="881.89 285.4 908.85 287.28 881.57 295.69 854.61 293.81 881.89 285.4"/><polygon class="cls-2" points="987.74 321.2 901.44 347.46 903.96 322.73 984.62 297.44 987.74 321.2"/></svg>