<svg id="Shadow" xmlns="http://www.w3.org/2000/svg" viewBox="0 0 1792 768"><defs><style>.cls-1,.cls-5,.cls-6{fill:#24265b;}.cls-1{opacity:0.1;}.cls-2{fill:#eeb9a9;}.cls-2,.cls-3,.cls-4,.cls-5{stroke:#24265b;stroke-linecap:round;stroke-linejoin:round;}.cls-2,.cls-3,.cls-4{stroke-width:3px;}.cls-3{fill:none;}.cls-4{fill:#d6cf90;}.cls-5{stroke-width:2.55px;}</style></defs><title>topic</title><path class="cls-1" d="M867,665c-14.84,0-178.68,12.77-178.68,26.35s61.23,34,98.35,34,64.22-12.66,84-12.66,84.07,18.5,107.36,18.5,37.87-25.8,48.53-23.91,117.49,22,117.49,6.38-74.25-18.63-84.72-23.37-2.87-6.29-10.22-12.4-39.79-11-53.61-11-77.83,12.25-90.73,12.25S881.88,665,867,665Z"/><path class="cls-2" d="M879.11,658.13c1.8-20,7.09-66.93,11.32-105.11,4.64-41.82,26.61-111.68,28.12-117.46a78.66,78.66,0,0,1,8.92-1.43c1.25,4.65,10,46.83,16.12,93.68s9.44,126,9.44,126a18.65,18.65,0,0,1,0,8.18c-2.39,8.37,7,4.76,14.68,10.08,3.64,2.53,7.26,4.17,11.1,3.3a4.27,4.27,0,0,0,5.85-1.92,6,6,0,0,1,5.15-1.58,3.11,3.11,0,0,0,2.71-3.27,2.8,2.8,0,0,0,2.75-3.68,1.85,1.85,0,0,0-1.1-3.48,6.49,6.49,0,0,1-1.78.23c-3.9-2.4-26.24-5.82-27.4-9.66,0,0,7.68-77.55,10.12-115.53,0.69-10.78,3.95-89.52.9-118-7.53-70.4-7.53-97.42-6.16-130.23,1.41,6.14,18.84,7.93,20.38-4.52s-2.84-99.56-20-112.6c-8.88-6.75-37-8.65-40.65-19.32a40.79,40.79,0,0,1-1.34-5.36,32.43,32.43,0,0,1-10.13,1.33c-7.17,0-21.4-8.49-27.42-14.87v1.88c0,15-11.79,25-25.06,28.49-15.57,4.12-28.35,13.32-33.49,28.87s-19.81,73.1-19.81,113.53c0,10.41,29.34,11.88,28.84-2.79-0.32-9.24,13.63-40.08,18.21-56.13,3.56,28.44,19.6,50.05,9.36,109.51-7.39,43,2.37,71.47,1.69,75.22S864.71,489.2,863,552.1c-0.89,32.36,4.45,103.46,4.06,105.75Z"/><path class="cls-3" d="M922.51,183.19c4.68,1,7.88,7.09,4.76,11.15-1.87,2.44-5.95,1.88-7.19,1.43s-3.07-.72-3.56-2.89c-0.58-2.58,2.12-3.86,3.5-2.61s0.81,3.67.06,5.51a7.35,7.35,0,0,1-7.46,4c-4.29-.42-5.9-4.9-4.33-9.53"/><path class="cls-4" d="M888,575.18c-3.63,32.66-7.39,66.68-8.86,83a18.65,18.65,0,0,0,1,8.12s-13.78-4.44-13.11-8.4c0.31-1.85-3.1-48.46-4-83.41C863.26,580.92,887.32,581.08,888,575.18Z"/><path class="cls-4" d="M953,662a18.65,18.65,0,0,0,0-8.18s-1.58-37.53-4.55-76.2c1.09,6,23,6,23.6-2.3C968.95,611.93,965,652,965,652c1.16,3.84,23.5,7.26,27.4,9.66Z"/><line class="cls-3" x1="867.47" y1="582.69" x2="868.18" y2="596.56"/><line class="cls-3" x1="882.49" y1="583.48" x2="881.13" y2="596.9"/><line class="cls-3" x1="877.63" y1="584.19" x2="876.94" y2="597.35"/><line class="cls-3" x1="872.53" y1="584.19" x2="872.78" y2="597.35"/><line class="cls-3" x1="966.76" y1="585.38" x2="966.04" y2="598.68"/><line class="cls-3" x1="953.24" y1="586.13" x2="954.19" y2="599.01"/><line class="cls-3" x1="957.87" y1="586.81" x2="958.21" y2="599.44"/><line class="cls-3" x1="962.13" y1="586.81" x2="962.2" y2="599.44"/><path class="cls-4" d="M982,504.67c-1.73-11.09-.13-57.73-3.17-86.19-1.52-14.21-4.16-26.65-5.11-37.73-5.2,8.22-85.91,12.84-107.63.43-5.84,34.47-3.43,44.24-4,49.69-2,18.06-3.39,58.79-.79,72.45,7.23,6.68,36.92,7.16,53.27,4.2,5.14-16.36,4.74-59.48,6.32-64.1,1.07-3.12,5.52-3.32,6.26-1.17,1.9,5.51.72,49.63,5.12,65.09C941.91,515.94,976.77,511.2,982,504.67Z"/><path class="cls-4" d="M810.31,260.84c0,8.06,27.23,14.22,44.44,14.22,0,10.41,2,40.23,5.51,60.82,3.47,20.18-3.73,37.07,5.84,45.3,16,14.91,97.81,11.22,106.21-.43,7.25-5.07-2.54-84.29-2.54-91.1,0-5.15,1-15.53,1-15.53S997,269.2,997,259.21c0-25.15-7.94-51.35-14.53-76.84-3.83-14.79-26-19.86-41.41-23.78-2.43-.62-5.35-1.17-8.6-1.65,0,6.06-1.86,36.72-12,42.89-7.69-11.9-32-37.13-32-45.33a128.61,128.61,0,0,0-13.39.88c-15.21,2-42.13,15.13-46.73,34C821.15,219.06,812.09,231.83,810.31,260.84Z"/><path class="cls-3" d="M965.33,216s7.17,33.15,5.42,58.11"/><path class="cls-3" d="M866.13,231.38c-4.5,25.09-5.16,28.37-5.69,36-0.33,4.67-2.25,7.69-5.69,7.69"/><path class="cls-4" d="M928.32,188.78c3.16-3.58,4.42-31.73-.08-42.31,5.05,0.9,10.48,8.65,11.62,19.22,1.11,10.25-2,35.11-3.46,31.22C934.46,191.63,928.32,188.78,928.32,188.78Z"/><path class="cls-4" d="M905.22,203.85A31.13,31.13,0,0,1,914.85,193s-26.91-25.88-24.65-53c-2.85-.46-6.23,8.83-7.61,12.93C875.73,173.39,902.86,208.14,905.22,203.85Z"/><path class="cls-3" d="M929.45,391s5.69-39.32,5.16-70.35c-0.8-46.46-14.13-120.8-14.13-120.8"/><path class="cls-5" d="M996.26,660.27c-22.27,0-26.23-12.49-25.85-15.06s-20.69,4.87-19.18,8.42c2.82,6.64-3,9.12.32,13.37s29,10.54,29,10.54l20.31-9.08S1003.88,660.27,996.26,660.27Z"/><path class="cls-6" d="M950.1,664.91c-2.68,2.32,4.64,9.29,29.92,14.38,11.78,2.37,26.69-10.45,21.32-13-0.41,3.66-3.22-4.61-6.37-5.74s-9.47,2-8.47,5.31,0.29,7.82-4,7.91S950.74,668.65,950.1,664.91Z"/><path class="cls-5" d="M864.5,667.62S863.63,645,863,640s20.93-3.55,20.22,0-3,26.25-3,26.25Z"/><path class="cls-5" d="M953.34,660.27s-5.43-17.66-4.48-20.27,19.76-2.37,21.26-1.43-3.24,22.33-3.24,22.33Z"/><path class="cls-4" d="M982.16,79c-2.15-8.73-17.37-13.11-38.49-12.5a25.07,25.07,0,0,0-.68-7.27C938.9,42.64,918.78,33.34,898,38.45S863.78,61.13,867.86,77.7A25,25,0,0,0,870.34,84c-20.47,9.51-33,21-30.77,30.12,2.45,10,22,14.27,47.86,11.94-0.47-2.71-.87-5.71-1.23-8.85a8,8,0,0,1-2.27.33c-4.39,0-9.43-2.88-10.3-7.18-1.24-6.1,1.18-9.38,5.58-9.38-0.94-4.9-2.76-12.42-2.77-17.5a5,5,0,0,0-2.19,1c-0.8-4.18,1.8-7.36,3-11.95-1-.31,18.32-4.08,28-6.57s18.13-2.13,25.36-8.29c5.76,2.15,14.07,6.79,16.83,16.12a2,2,0,0,0-2.48-.07c0.39,2,5.8,8,3,17a5.26,5.26,0,0,0-1.86-3c-0.05.94-.14,1.86-0.27,2.74-0.72,5.06-1.16,14.41-1.49,21.74C968.89,102.18,984.65,89.1,982.16,79Z"/><path class="cls-4" d="M982.16,79c-3.33-13.51-37.94-16.6-77.32-6.91s-68.6,28.5-65.27,42c-6.86-23.3,33.74-45.92,62-53.1S973.55,54.16,982.16,79Z"/><path class="cls-5" d="M840.57,667.52c-4.07.73-3.15,6-3.15,6s15,12.55,25.17,12.55,21.91-10.92,22.18-15.49-5.59-5.67-3.65-13.34c0.46-1.81-12.34-6-15.45-2.78C860.33,659.91,847.4,666.3,840.57,667.52Z"/><path class="cls-6" d="M884.76,670.58c2.4,4.18-11.8,15.49-22.18,15.49s-27.72-4.14-26.93-12.27c0.21-2.11.55-5.18,4.92-6.28-1.15,2.53.62,3.87,1.54,1.24,1.42-4.06,14.71-3,15.07,1.94,0.18,2.58,1.51,7.55,9.68,7.39S883.61,674.82,884.76,670.58Z"/></svg>