<svg id="Shadow" xmlns="http://www.w3.org/2000/svg" xmlns:xlink="http://www.w3.org/1999/xlink" viewBox="0 0 1792 768"><defs><style>.cls-1,.cls-4{fill:none;}.cls-10,.cls-2,.cls-8{fill:#24265b;}.cls-2{opacity:0.1;}.cls-3{fill:#eeb9a9;}.cls-11,.cls-3,.cls-4,.cls-7,.cls-8,.cls-9{stroke:#24265b;stroke-linecap:round;stroke-linejoin:round;}.cls-11,.cls-3,.cls-4,.cls-7,.cls-8{stroke-width:3px;}.cls-5{clip-path:url(#clip-path);}.cls-6{fill:#cc2929;}.cls-7{fill:#d6cf90;}.cls-9{fill:#fff;stroke-width:2.55px;}.cls-11{fill:#cc4729;}</style><clipPath id="clip-path"><polygon class="cls-1" points="869.33 17.91 878.82 71.8 893.04 60.18 909.31 53.36 869.33 17.91"/></clipPath></defs><title>topic</title><path class="cls-2" d="M867,665c-14.84,0-178.68,12.77-178.68,26.35s61.23,34,98.35,34,64.22-12.66,84-12.66,84.07,18.5,107.36,18.5,37.87-25.8,48.53-23.91,117.49,22,117.49,6.38-74.25-18.63-84.72-23.37-2.87-6.29-10.22-12.4-39.79-11-53.61-11-77.83,12.25-90.73,12.25S881.88,665,867,665Z"/><path class="cls-3" d="M976,418.49c-7.53-70.4-7.53-97.42-6.16-130.23,1.41,6.14,18.84,7.93,20.38-4.52s-2.84-99.56-20-112.6c-8.88-6.75-37-8.65-40.65-19.32a40.86,40.86,0,0,1-1.34-5.36,32.42,32.42,0,0,1-10.13,1.33c-7.17,0-21.4-8.49-27.42-14.87v1.88c0,15-11.79,25-25.06,28.49-15.57,4.12-28.35,13.32-33.49,28.87s-19.81,73.1-19.81,113.53c0,10.41,29.34,11.88,28.84-2.79-0.32-9.24,13.63-40.08,18.21-56.13,3.56,28.44,19.6,50.05,9.36,109.51C861.35,399.22,979,446.95,976,418.49Z"/><path class="cls-4" d="M922.51,183.19c4.68,1,7.88,7.09,4.76,11.15-1.87,2.44-5.95,1.88-7.19,1.43s-3.07-.72-3.56-2.89c-0.58-2.58,2.12-3.86,3.5-2.61s0.81,3.67.06,5.51a7.35,7.35,0,0,1-7.46,4c-4.29-.42-5.9-4.9-4.33-9.53"/><g class="cls-5"><polygon class="cls-6" points="869.33 17.91 878.82 71.8 893.04 60.18 909.31 53.36 869.33 17.91"/><path class="cls-7" d="M866.29,31.71s9-9.74,9.25-13.8,6.13,1,6.13,4.06S876,37.39,870.55,40.43C866.38,42.78,866.29,31.71,866.29,31.71Z"/><path class="cls-7" d="M873.57,49s13.28-14.42,13.7-20.43,5.78-2.11,5.78,2.39-8.47,21.64-16.46,27.34C870.82,62.43,873.57,49,873.57,49Z"/><path class="cls-7" d="M877.15,68.89c8.72-5.88,20.17-22.7,20.59-28.71s5.46,0.11,5.46,4.62-8.44,22.83-16.46,27.34C880.56,75.61,874.59,70.62,877.15,68.89Z"/></g><path class="cls-8" d="M965,654.13s7.68-79.68,10.12-117.66c0.69-10.78,3.95-89.52.9-118-1.52-14.21-2.73-26.65-3.69-37.73-5.2,8.22-84.49,12.84-106.21.43C865,410,871,428.52,870.43,431.49c-0.68,3.76-5.72,57.71-7.44,120.61-0.89,32.36,4.45,103.46,4.06,105.75l12.07,0.28c1.8-20,7.09-66.93,11.32-105.11,4.64-41.82,26.61-111.68,28.12-117.46a78.68,78.68,0,0,1,8.92-1.43c1.25,4.65,10,46.83,16.12,93.68S953,655.92,953,655.92l7,0.36Z"/><path class="cls-9" d="M989.06,652.62c-10.44-1.74-26.74,3.78-26.74,3.78-3.92.8-13.62-2-14.26,1.76s3.49,8.84,3.49,8.84l29,10.54,20.31-9.08S999.5,654.37,989.06,652.62Z"/><path class="cls-10" d="M950.1,664.91c-2.68,2.32,4.64,9.29,29.92,14.38,11.78,2.37,25.49-12.06,20.11-14.65-0.41,3.66-2-3-5.17-4.13s-9.47,2-8.47,5.31,0.29,7.82-4,7.91S950.74,668.65,950.1,664.91Z"/><path class="cls-10" d="M953.26,660.51s1,6.88,5.19,5.52c7.38-2.37,19.32,3.87,19.32,3.87s-13.13-9.43-17.44-7.94A6.84,6.84,0,0,1,953.26,660.51Z"/><path class="cls-10" d="M958.44,658.41a0.21,0.21,0,0,1,0-.1l0-.3a3.63,3.63,0,0,1,.28-0.91,4.37,4.37,0,0,1,.74-1.09,5,5,0,0,1,1.17-.93,6.26,6.26,0,0,1,.67-0.32,4.56,4.56,0,0,1,.68-0.2,3.86,3.86,0,0,1,1.23,0,2.94,2.94,0,0,1,.85.22,2,2,0,0,1,.31.15,1,1,0,0,1,.33,1.44l-0.11.14-0.1.11a2.33,2.33,0,0,1-.23.21c-0.14.13-.35,0.25-0.57,0.41s-0.24.14-.36,0.22a2.55,2.55,0,0,1-.38.21c-0.26.14-.53,0.25-0.79,0.37l-0.77.36c-0.26.11-.48,0.24-0.69,0.34l-0.53.27a0.44,0.44,0,0,1-.15.06,0.08,0.08,0,0,0-.05,0,0.78,0.78,0,0,1-1.26-.11Z"/><path class="cls-10" d="M962.11,657.53a0.21,0.21,0,0,1,0-.1l0-.3a3.61,3.61,0,0,1,.28-0.91,4.38,4.38,0,0,1,.74-1.09,5,5,0,0,1,1.17-.93,6.26,6.26,0,0,1,.67-0.32,4.57,4.57,0,0,1,.68-0.2,3.85,3.85,0,0,1,1.23,0,3,3,0,0,1,.85.22,2.05,2.05,0,0,1,.31.15,1,1,0,0,1,.33,1.44l-0.11.14-0.1.11a2.38,2.38,0,0,1-.23.21c-0.14.13-.35,0.25-0.57,0.41s-0.24.14-.36,0.22a2.55,2.55,0,0,1-.38.21c-0.26.14-.53,0.25-0.79,0.37l-0.77.36c-0.26.11-.48,0.24-0.69,0.34l-0.53.27a0.44,0.44,0,0,1-.15.06,0.08,0.08,0,0,0-.05,0,0.78,0.78,0,0,1-1.26-.11Z"/><path class="cls-10" d="M970.65,657.88a2.29,2.29,0,0,1-.14-0.36,3.92,3.92,0,0,1-.18-0.94,4.47,4.47,0,0,1,.14-1.38,4.29,4.29,0,0,1,.77-1.53,3.74,3.74,0,0,1,.64-0.65,3.48,3.48,0,0,1,.74-0.48,3.38,3.38,0,0,1,.76-0.26,2.75,2.75,0,0,1,.68-0.08,2.16,2.16,0,0,1,.56,0,3.34,3.34,0,0,1,.42.11,2.13,2.13,0,0,1,.35.14,1,1,0,0,1,.27,1.52l-0.15.18a2.7,2.7,0,0,1-.22.22c-0.13.13-.33,0.26-0.51,0.43a2.68,2.68,0,0,0-.28.24c-0.08.1-.19,0.15-0.26,0.24s-0.17.14-.24,0.23a2.31,2.31,0,0,0-.24.23,4.69,4.69,0,0,0-.49.57c-0.16.22-.31,0.46-0.45,0.68l-0.34.57a1.65,1.65,0,0,0-.14.22A0.85,0.85,0,0,1,970.65,657.88Z"/><path class="cls-10" d="M967.3,658a2.26,2.26,0,0,1-.14-0.36,3.92,3.92,0,0,1-.18-0.94,4.47,4.47,0,0,1,.14-1.38,4.29,4.29,0,0,1,.77-1.53,3.74,3.74,0,0,1,.64-0.65,3.48,3.48,0,0,1,.74-0.48,3.38,3.38,0,0,1,.76-0.26,2.76,2.76,0,0,1,.69-0.08,2.16,2.16,0,0,1,.56,0,3.32,3.32,0,0,1,.42.11,2.12,2.12,0,0,1,.35.14,1,1,0,0,1,.4,1.34,1,1,0,0,1-.12.18l-0.15.18a2.74,2.74,0,0,1-.22.22c-0.13.13-.33,0.26-0.51,0.43a2.68,2.68,0,0,0-.28.24c-0.08.1-.19,0.15-0.26,0.24s-0.17.14-.24,0.23a2.31,2.31,0,0,0-.24.23,4.65,4.65,0,0,0-.49.57c-0.16.22-.31,0.46-0.45,0.68l-0.34.57a1.65,1.65,0,0,0-.14.22A0.85,0.85,0,0,1,967.3,658Z"/><path class="cls-11" d="M809.6,259.56c0,8.06,28.33,14.1,45.54,14.1,0.15,15.07.19,42.5,0.77,63.39,0.61,22-3.19,37.5-.77,55.26,3.34,24.55,130.13,18.68,127.57,4.6s-12.88-97.51-12.88-110.14c0-5.15,1.22-21.47,1.22-21.47s26.29-4.93,26.29-14.92c0-25.15-8.23-42.51-14.83-68-3.83-14.79-26.95-19.18-41.41-23.78-2.07-2.59-8.65-5.34-10-4.13,14.63,20.25,6.89,38.25-3.75,47.5-36.24-6.64-48.74-34-44-48.77-0.71-2.26-7.21.07-8.19,2.2-17.21,2.84-43.49,11.5-48.09,30.37C819.79,215.43,811.38,230.54,809.6,259.56Z"/><path class="cls-4" d="M967.69,207.64s5.11,32.67,3.35,57.64"/><path class="cls-4" d="M866.13,219.58c-0.71,18.27-6.12,34.86-6.76,47.8-0.23,4.68-1.54,6.27-5,6.27"/><path class="cls-4" d="M875.12,155.39c-5.9,35.66,39.46,53.44,54.34,55.81,11.22-11.14,24.38-26.55,11.64-52.61"/><path class="cls-4" d="M859.38,265.28c-3.2,4.23-50.3-4.31-49.21-12.57"/><path class="cls-4" d="M971.76,259.56c8.15,0,25.57-9.19,25.57-12.94"/><path class="cls-4" d="M854.4,384c5,28.44,127.42,20.27,127.42,6.63"/><path class="cls-10" d="M887.58,115.32c-1.21-16.83,4.39-27.59,2.17-28.57-3.23-1.41-4.54-24,12.57-23.56,6.27-2.39,6.68-8.48,4.65-8.28C896.09,56,879.22,64.71,874.41,72.1a13.27,13.27,0,0,1,2.8.36c-1.17,4.58-3.77,7.77-3,11.95a5,5,0,0,1,2.19-1c0,5.07,1.83,12.59,2.77,17.5,3.14,0.19,5.38.49,5.38,3.28C884.58,108.83,885,113.15,887.58,115.32Z"/><path class="cls-10" d="M902.31,63.19c1.07,2,12.19,5.34,19.93,4.62,5.15-.48,8-3.54,8.29-7.06,0.71-8.81-2.61-10.79-6.91-11.45-1.72,4.76-4.6-2.39-12.52-.93,2.29,3.16-5.56.49-10.5,5.6C905.54,55.66,900.34,59.42,902.31,63.19Z"/><path class="cls-6" d="M865.69,25.47a4,4,0,0,1-3.55-2,2.43,2.43,0,0,1,.5-2.67,35.94,35.94,0,0,1,5.94-4.37,1.5,1.5,0,0,1,2.18,1.82c-0.32.83-2,5.05-3,6.31a2.62,2.62,0,0,1-2.11.9h0Z"/><path class="cls-10" d="M869.35,17.72h0m0,0s-1.82,4.77-2.73,5.9a1.17,1.17,0,0,1-.93.34c-1.24,0-3-1-1.94-2.16a36.51,36.51,0,0,1,5.6-4.09m0-3h-0.12a3,3,0,0,0-1.48.46,35.86,35.86,0,0,0-6.23,4.62,3.9,3.9,0,0,0-.75,4.28A5.45,5.45,0,0,0,865.69,27,4.08,4.08,0,0,0,869,25.5a32.89,32.89,0,0,0,3.14-6.59,3,3,0,0,0-2.74-4.19h0Zm0,6h0Z"/><path class="cls-6" d="M863.13,20.34h-0.29c-1.68-.12-2.78-2.12-2.72-3.85a2.47,2.47,0,0,1,2.48-2.56l0.39,0a35.94,35.94,0,0,1,7,2.4,1.5,1.5,0,0,1-.25,2.83,42.52,42.52,0,0,1-6.57,1.16h0Z"/><path class="cls-10" d="M862.6,15.42h0.2a36.5,36.5,0,0,1,6.55,2.28,43.81,43.81,0,0,1-6.22,1.12h-0.19c-1.2-.08-2.1-3.41-0.34-3.41m0-3a4,4,0,0,0-4,4c-0.09,2.46,1.55,5.22,4.11,5.4h0.4a41,41,0,0,0,6.93-1.21,3,3,0,0,0,.51-5.65,36.19,36.19,0,0,0-7.39-2.52,4.6,4.6,0,0,0-.59,0h0Z"/><path class="cls-6" d="M876.14,20.62a36.55,36.55,0,0,1-7.28-1.49,1.5,1.5,0,0,1-.11-2.84c0.83-.32,5.08-1.94,6.69-2h0.13c1.72,0,3.11,2.09,3.11,3.82a2.43,2.43,0,0,1-2.54,2.54h0Z"/><path class="cls-10" d="M875.57,15.75c1.24,0,2.6,3.37.58,3.37h0a37.13,37.13,0,0,1-6.85-1.43s4.77-1.85,6.24-1.93h0m0-3h-0.21c-1.74.1-5.58,1.52-7.15,2.13a3,3,0,0,0,.22,5.67,36.76,36.76,0,0,0,7.71,1.56,3.91,3.91,0,0,0,4-4c0-2.51-2-5.32-4.61-5.32h0Z"/><path class="cls-6" d="M869.35,19.22a1.5,1.5,0,0,1-1.46-1.83c0.2-.87,1.22-5.28,2-6.66a2.82,2.82,0,0,1,2.54-1.23,3.74,3.74,0,0,1,3.3,1.66,2.43,2.43,0,0,1-.2,2.56,36,36,0,0,1-5.26,5.16A1.5,1.5,0,0,1,869.35,19.22Z"/><path class="cls-10" d="M872.46,11c1.19,0,2.63.73,1.86,1.89a36.49,36.49,0,0,1-5,4.84s1.12-5,1.86-6.23a1.42,1.42,0,0,1,1.25-.49m0-3a4.27,4.27,0,0,0-3.83,2c-0.85,1.44-1.75,5.06-2.2,7.09a3,3,0,0,0,4.83,3,36.18,36.18,0,0,0,5.55-5.49,3.94,3.94,0,0,0,.28-4.1A5.24,5.24,0,0,0,872.46,8h0Z"/><path class="cls-6" d="M869.35,19.22a1.5,1.5,0,0,1-1-.4c-0.65-.61-3.94-3.72-4.72-5.12a2.82,2.82,0,0,1,.22-2.82,3.8,3.8,0,0,1,3-2,2.41,2.41,0,0,1,2.2,1.46,36,36,0,0,1,1.8,7.15A1.5,1.5,0,0,1,869.35,19.22Z"/><path class="cls-10" d="M866.83,10.37a0.94,0.94,0,0,1,.85.62,36.5,36.5,0,0,1,1.67,6.73s-3.73-3.48-4.44-4.75c-0.46-.83.86-2.6,1.92-2.6m0-3a5.24,5.24,0,0,0-4.3,2.75,4.27,4.27,0,0,0-.24,4.31c0.82,1.46,3.49,4.06,5,5.48a3,3,0,0,0,5-2.67,36.17,36.17,0,0,0-1.93-7.56,3.91,3.91,0,0,0-3.55-2.31h0Z"/><polygon class="cls-4" points="869.33 17.91 878.82 71.8 893.04 60.18 909.31 53.36 869.33 17.91"/><path class="cls-9" d="M855.47,658.7c-13.5-.44-18.05,14.81-18.05,14.81s15,12.55,25.17,12.55,21.91-10.92,22.18-15.49-4.27-10.85-9.46-11.9S866.17,659.05,855.47,658.7Z"/><path class="cls-10" d="M884.76,670.58c2.4,4.18-11.8,15.49-22.18,15.49s-27.72-4.14-26.93-12.27c0.21-2.11.55-5.18,4.92-6.28-1.15,2.53.62,3.87,1.54,1.24,1.42-4.06,14.71-3,15.07,1.94,0.18,2.58,1.51,7.55,9.68,7.39S883.61,674.82,884.76,670.58Z"/><path class="cls-10" d="M866.86,673.51s4.24-6.46,7-6.27,2.56-3.79,2.56-3.79,4,7.44,0,7.2S866.86,673.51,866.86,673.51Z"/><path class="cls-10" d="M864.28,657.3a0.31,0.31,0,0,1,.1-0.06l0.3-.16a4.36,4.36,0,0,1,1-.34,5.27,5.27,0,0,1,1.52-.06,6.08,6.08,0,0,1,1.67.43,7.79,7.79,0,0,1,.77.39,5.87,5.87,0,0,1,.67.48,4.9,4.9,0,0,1,1,1.07,3.71,3.71,0,0,1,.45.91,2.6,2.6,0,0,1,.11.38,1,1,0,0,1-1.14,1.15l-0.12,0a2.81,2.81,0,0,1-.34-0.09c-0.21-.06-0.47-0.19-0.78-0.3-0.16-.06-0.3-0.14-0.46-0.22a3.89,3.89,0,0,1-.49-0.24c-0.33-.16-0.65-0.35-1-0.52s-0.66-.33-1-0.46-0.63-.26-0.9-0.37L865,659,864.8,659a0.13,0.13,0,0,0-.07,0,0.83,0.83,0,0,1-.68-1.27Z"/><path class="cls-10" d="M857.74,657.57l0.11,0,0.34,0a4.36,4.36,0,0,1,1.09,0,5.27,5.27,0,0,1,1.44.48,6.09,6.09,0,0,1,1.41,1,7.8,7.8,0,0,1,.58.64,5.85,5.85,0,0,1,.46.68,4.9,4.9,0,0,1,.52,1.34,3.7,3.7,0,0,1,.1,1,2.59,2.59,0,0,1,0,.39,1,1,0,0,1-1.48.68l-0.11-.06a2.82,2.82,0,0,1-.29-0.21c-0.18-.13-0.37-0.34-0.63-0.56s-0.23-.24-0.36-0.37a3.9,3.9,0,0,1-.37-0.39c-0.25-.27-0.49-0.56-0.74-0.83s-0.5-.54-0.75-0.78-0.5-.46-0.72-0.66l-0.56-.47a0.77,0.77,0,0,1-.14-0.13,0.13,0.13,0,0,0-.06,0,0.83,0.83,0,0,1-.19-1.43Z"/><path class="cls-10" d="M866.7,662.89l-0.29-.21c-0.17-.12-0.42-0.39-0.67-0.55l-0.81-.65-0.9-.68c-0.61-.42-1.18-0.81-1.65-1.16-0.23-.18-0.44-0.32-0.59-0.45a0.5,0.5,0,0,1-.19-0.19,0.85,0.85,0,0,1-.08-1.69s0.19-.09.46-0.17a3.62,3.62,0,0,1,1.11-.13,4.52,4.52,0,0,1,.73.09,4,4,0,0,1,.78.23,5.52,5.52,0,0,1,1.48.9,6.73,6.73,0,0,1,1.13,1.25l0.39,0.65c0.11,0.22.2,0.45,0.29,0.64a3.65,3.65,0,0,1,.24.92c0,0.22,0,.36,0,0.36A0.94,0.94,0,0,1,866.7,662.89Z"/></svg>