<svg id="Shadow" xmlns="http://www.w3.org/2000/svg" xmlns:xlink="http://www.w3.org/1999/xlink" viewBox="0 0 1792 768"><defs><style>.cls-1,.cls-10,.cls-15,.cls-16,.cls-20{fill:none;}.cls-12,.cls-2,.cls-7{fill:#24265b;}.cls-2{opacity:0.1;}.cls-3{fill:#d6cf90;}.cls-10,.cls-12,.cls-13,.cls-14,.cls-15,.cls-17,.cls-18,.cls-19,.cls-20,.cls-3,.cls-8,.cls-9{stroke:#24265b;}.cls-10,.cls-12,.cls-13,.cls-14,.cls-15,.cls-16,.cls-17,.cls-18,.cls-19,.cls-20,.cls-3,.cls-8,.cls-9{stroke-linecap:round;stroke-linejoin:round;}.cls-10,.cls-12,.cls-14,.cls-15,.cls-16,.cls-17,.cls-18,.cls-3,.cls-8,.cls-9{stroke-width:3px;}.cls-4{fill:#e3e3e3;}.cls-15,.cls-16,.cls-5{opacity:0.5;}.cls-6{clip-path:url(#clip-path);}.cls-11,.cls-8{fill:#eeb9a9;}.cls-13,.cls-9{fill:#fff;}.cls-13{stroke-width:2.55px;}.cls-14{fill:#85c959;}.cls-16{stroke:#fff;}.cls-17{fill:#4f5999;}.cls-18,.cls-19{fill:#c9c9c9;}.cls-19,.cls-20{stroke-width:1.5px;}</style><clipPath id="clip-path"><polygon class="cls-1" points="826.94 255.14 735.21 260.51 748.4 546.94 840.13 542.04 826.94 255.14"/></clipPath></defs><title>topic</title><path class="cls-2" d="M867,665c-14.84,0-178.68,12.77-178.68,26.35s61.23,34,98.35,34,64.22-12.66,84-12.66,84.07,18.5,107.36,18.5,37.87-25.8,48.53-23.91,117.49,22,117.49,6.38-74.25-18.63-84.72-23.37-2.87-6.29-10.22-12.4-39.79-11-53.61-11-77.83,12.25-90.73,12.25S881.88,665,867,665Z"/><path class="cls-2" d="M1205.07,578.28c6.29,14.29-25.68,28.28-77.64,28.28S1028,595.48,1016.9,578.28c-8.47-13.12,29-28.28,81-28.28S1198,562.22,1205.07,578.28Z"/><polygon class="cls-2" points="848.49 556.83 812.99 537 713 543.91 735.21 562.92 848.49 556.83"/><polygon class="cls-3" points="834.61 245.25 725.32 250.98 739.2 556.83 848.49 551.6 834.61 245.25"/><polygon class="cls-4" points="826.94 255.14 735.21 260.51 748.4 546.94 840.13 542.04 826.94 255.14"/><g class="cls-5"><g class="cls-6"><path class="cls-7" d="M759.13,139.31s-12.8,3.13-15.09,13.83a1.39,1.39,0,0,1,1.75-.19c-0.17,1.41-3.66,6-1.15,12.21a3.68,3.68,0,0,1,1.61-2.57C755.26,156.09,759.13,139.31,759.13,139.31Z"/><path class="cls-8" d="M798.27,175c-0.38,3.09-3.78,5.41-6.89,5.65a5.64,5.64,0,0,1-6.06-5.19c-0.24-3.11,5.39-6.55,8.49-6.79S798.81,170.59,798.27,175Z"/><path class="cls-8" d="M756.37,200.15c2.21,3.14,6.17,4.26,12.5,3.77s19.72-10.94,20.28-15.15c1.25-9.39.18-25.14,2.61-33.12,3.17-10.45-13.17-15.79-26.58-14.75-18.3,1.42-21,15-19,24,1.11,5,2.29,16,2.92,20.61C749.81,191,754.48,197.48,756.37,200.15Z"/><path class="cls-9" d="M766.72,174.06c0.21,2.73,2.78,4.76,6.66,4.46s6.81-2.76,6.6-5.49-3.59-4.7-7.37-4.4S766.51,171.33,766.72,174.06Z"/><path class="cls-9" d="M775,190.54s-0.51,4.65-7.44,5c-5.51.25-5.37-2.74-5.37-2.74"/><path class="cls-9" d="M747.71,174.56c0.21,2.73,2.78,4.76,6.66,4.46s6.81-2.76,6.6-5.49-3.59-4.7-7.37-4.4S747.5,171.83,747.71,174.56Z"/><circle class="cls-7" cx="772.13" cy="176.45" r="2.16" transform="translate(-11.35 60.33) rotate(-4.44)"/><circle class="cls-7" cx="753.22" cy="176.94" r="2.16" transform="translate(-11.44 58.86) rotate(-4.44)"/><path class="cls-10" d="M788.79,169.8a62.05,62.05,0,0,1-.12,9.47c-0.23,2.66-2.67,5.06-4.44,6.67"/><path class="cls-10" d="M795.57,172.47c-1.49-.36-3.79.31-5.6,3.15"/><path class="cls-7" d="M788.67,179.28c-0.07-12-4.62-19.28-3.1-20.09,2.2-1.18,1.89-17.25-10.18-16-4.57-1.35-5.19-5.63-3.74-5.6,7.75,0.16,20.16,5.4,24,10.37a9.41,9.41,0,0,0-2,.41c1.08,3.18,3.09,5.29,2.76,8.29a3.57,3.57,0,0,0-1.6-.56c0.27,3.59-.6,9-1,12.53-2.21.31-3.78,0.64-3.62,2.62C790.44,174.52,790.38,177.6,788.67,179.28Z"/><path class="cls-10" d="M775,190.54c-3.35,1.78-13.62,2.75-15.14,1.18"/><path class="cls-11" d="M783,170.25l-16.5,1.28s-0.19-5.77,6.19-6.26S783,170.25,783,170.25Z"/><path class="cls-11" d="M761.06,171.94s-11.55.59-12.94,0.7c-0.64-4.37,1.19-6.69,5.67-7S761.06,171.94,761.06,171.94Z"/><path class="cls-8" d="M760,171.26c3.09,4.37-2.29,5.79-3,11.17-0.59,4.4,12.83,3,9.7-1.45"/><line class="cls-10" x1="779.1" y1="170.93" x2="767.13" y2="171.86"/><line class="cls-10" x1="760.68" y1="172.37" x2="748.05" y2="173.35"/><path class="cls-10" d="M767.51,171.07s-0.82.39-.76,2"/><path class="cls-7" d="M775.39,143.22c-0.64,1.5-8.33,4.45-13.84,4.36-3.67-.06-5.86-2.06-6.25-4.54-1-6.19,1.25-7.78,4.26-8.48,1.48,3.27,3.12-1.95,8.81-1.35-1.45,2.36,4,0,7.73,3.38C772.69,138.07,776.58,140.44,775.39,143.22Z"/><path class="cls-10" d="M779.26,164.76A7.89,7.89,0,0,0,773,162.7a6.51,6.51,0,0,0-5.31,2.9"/><path class="cls-10" d="M760.29,165a7.89,7.89,0,0,0-6.28-2.07,6.51,6.51,0,0,0-5.31,2.9"/><path class="cls-8" d="M743.81,398.49c1.46-50.21,0-69.32-2.8-92.45-0.66,4.42-12.89,6.64-14.67-2.08s-3.46-70.57,8-80.74c5.91-5.26,25.71-8.15,27.69-15.9a29,29,0,0,0,.65-3.86,23,23,0,0,0,7.24.38c5.07-.39,14.67-7.18,18.58-12l0.1,1.33c0.82,10.62,9.71,17,19.29,18.77,11.24,2.06,20.78,7.86,25.27,18.58s18,50.61,20.25,79.21c0.57,7.36-20.1,10-20.55-.39-0.28-6.55-11.84-27.6-16-38.7-1,20.31-11.11,36.48-.61,78C823.84,378.56,743.22,418.78,743.81,398.49Z"/><path class="cls-10" d="M768.71,229.12c-3.26.95-5.18,5.45-2.76,8.15,1.46,1.62,4.31,1,5.16.62s2.13-.68,2.36-2.24a1.62,1.62,0,0,0-2.62-1.66c-0.91,1-.37,2.64.26,3.9a5.21,5.21,0,0,0,5.5,2.44c3-.53,3.9-3.79,2.54-7"/><path class="cls-12" d="M763.53,564.63s-9.81-55.94-13.62-82.67c-1.08-7.58-7.71-63.1-7.12-83.4,0.29-10.13.47-19,.54-26.89,4.13,5.53,60.46,4.44,75.14-5.53,2.39,20.35-.84,33.75-0.29,35.82,0.69,2.62,7.21,40.5,11.89,84.9,2.41,22.84,2.54,73.42,2.94,75l-8.52.86c-2.38-14.07-8.69-47-13.78-73.72-5.58-29.32-25-77.53-26.34-81.54A55.82,55.82,0,0,0,778,407c-0.63,3.36-4.51,33.67-6.26,67.15s0.36,91.13.36,91.13l-5,.64Z"/><path class="cls-13" d="M746.41,564.89c7.29-1.81,19.12,1.2,19.12,1.2,2.82,0.35,9.52-2.2,10.18.46s-2,6.45-2,6.45l-20,9.05-14.87-5.31S739.13,566.69,746.41,564.89Z"/><path class="cls-7" d="M774.65,571.44c2,1.5-2.77,6.82-20.37,11.81-8.21,2.33-18.69-7.13-15-9.26,0.49,2.57,1.26-2.23,3.43-3.2s6.81,0.87,6.28,3.29,0.22,5.55,3.27,5.37S774.4,574.12,774.65,571.44Z"/><path class="cls-7" d="M772.17,568.5s-0.3,4.92-3.37,4.19c-5.35-1.27-13.46,3.8-13.46,3.8s8.77-7.39,11.9-6.57A4.85,4.85,0,0,0,772.17,568.5Z"/><path class="cls-7" d="M767.1,568a0,0,0,0,0,0,0,0.21,0.21,0,0,1-.12,0l-0.42-.07a7.7,7.7,0,0,1-1-.23,2.52,2.52,0,0,1-.5-0.2,1.19,1.19,0,0,1-.24-0.15,2.62,2.62,0,0,1-.24-0.17,5.2,5.2,0,0,1-.39-0.36,1.74,1.74,0,0,1-.16-0.19l-0.11-.15a1.2,1.2,0,0,1,.1-1.55,2,2,0,0,1,.85-0.47,2.52,2.52,0,0,1,.94-0.09,3.27,3.27,0,0,1,1.07.31,3.57,3.57,0,0,1,.94.67,3.14,3.14,0,0,1,.6.84,2.66,2.66,0,0,1,.22.72l0,0.25a0.12,0.12,0,0,1,0,.08l-0.86.76A0.5,0.5,0,0,1,767.1,568Z"/><path class="cls-7" d="M764.45,567.53a0,0,0,0,0,0,0,0.22,0.22,0,0,1-.12,0l-0.42-.07a7.74,7.74,0,0,1-1-.23,2.56,2.56,0,0,1-.5-0.2,1.17,1.17,0,0,1-.24-0.15,2.51,2.51,0,0,1-.24-0.17,5.07,5.07,0,0,1-.39-0.36c-0.1-.1-0.17-0.19-0.16-0.19l-0.11-.15a1.2,1.2,0,0,1,.1-1.55,2,2,0,0,1,.84-0.47,2.52,2.52,0,0,1,.94-0.09,3.26,3.26,0,0,1,1.07.31,3.57,3.57,0,0,1,.94.67,3.14,3.14,0,0,1,.6.84,2.66,2.66,0,0,1,.22.72l0,0.25a0.12,0.12,0,0,1,0,.08l-0.86.76A0.5,0.5,0,0,1,764.45,567.53Z"/><path class="cls-7" d="M758.27,567.65a0.88,0.88,0,0,0-.15-0.12l-0.34-.32c-0.13-.12-0.26-0.25-0.39-0.35s-0.23-.19-0.32-0.24-0.09-.06-0.12-0.1a1,1,0,0,1-.11-0.12c0-.05-0.09-0.09-0.12-0.16a1.42,1.42,0,0,0-.15-0.18c-0.1-.14-0.23-0.25-0.32-0.37a2.17,2.17,0,0,1-.15-0.2l-0.18-.25a1.09,1.09,0,0,1,.17-1.44,1.48,1.48,0,0,1,.26-0.17,2.16,2.16,0,0,1,.31-0.15,1.56,1.56,0,0,1,.44-0.1,2.46,2.46,0,0,1,1.17.13,2.61,2.61,0,0,1,.63.33,2.92,2.92,0,0,1,.55.48,3.11,3.11,0,0,1,.81,2.25,2.75,2.75,0,0,1-.15.73,1.56,1.56,0,0,1-.12.28A0.85,0.85,0,1,1,758.27,567.65Z"/><path class="cls-7" d="M760.66,567.56a0.84,0.84,0,0,0-.15-0.12l-0.34-.32c-0.13-.12-0.26-0.25-0.39-0.35s-0.23-.19-0.32-0.24-0.09-.06-0.12-0.1a1,1,0,0,1-.11-0.12c0-.05-0.09-0.09-0.12-0.16a1.51,1.51,0,0,0-.15-0.18c-0.1-.14-0.23-0.25-0.32-0.37l-0.15-.19-0.18-.26a1.09,1.09,0,0,1,.17-1.44,1.48,1.48,0,0,1,.26-0.17,2.15,2.15,0,0,1,.31-0.15,1.57,1.57,0,0,1,.44-0.1,2.46,2.46,0,0,1,1.17.13,2.6,2.6,0,0,1,.63.33,2.9,2.9,0,0,1,.55.48,3.11,3.11,0,0,1,.82,2.25,2.75,2.75,0,0,1-.15.73,1.5,1.5,0,0,1-.12.28A0.85,0.85,0,1,1,760.66,567.56Z"/><path class="cls-14" d="M851.75,277c0.45,5.7-19.26,11.53-31.44,12.47,0.73,10.67,2.2,30.07,2.94,44.88,0.77,15.59,4.31,26.35,3.58,39-1,17.54-91,20.36-90,10.26s3.76-69.68,3.06-78.61c-0.28-3.64-2-15.12-2-15.12s-18.87-2-19.41-9.11c-1.38-17.79,3.49-30.52,6.75-48.91,1.89-10.67,18-15,28-19.09,1.32-1.95,5.83-4.25,6.86-3.47-9.23,15.12-2.77,27.43,5.26,33.39,25.27-6.69,32.61-26.7,28.45-36.91,0.38-1.64,5.11-.35,5.91,1.11,12.33,1.06,31.4,5.74,35.69,18.84C842.12,246.36,848.9,256.59,851.75,277Z"/><path class="cls-10" d="M737.08,249s-1.82,23.39.79,41"/><path class="cls-10" d="M809.57,251.84c1.51,12.88,6.24,24.32,7.4,33.44,0.42,3.3,1.43,4.35,3.87,4.16"/><path class="cls-10" d="M799.69,206.93c6.13,24.9-25,40-35.37,42.46-8.55-7.26-18.71-17.44-11.13-36.57"/><path class="cls-10" d="M816.86,283.79c2.5,2.81,35.34-5.81,34.12-11.6"/><path class="cls-10" d="M737.06,285.92c-5.77.45-18.59-5.09-18.8-7.75"/><path class="cls-10" d="M826.9,367.49c-2,20.39-89,21.33-89.76,11.69"/><path class="cls-13" d="M842.26,561.77c9.53-1.05,13.58,9.48,13.58,9.48s-9.91,9.7-17.11,10.26-16.1-6.52-16.54-9.74,2.42-7.91,6-8.94S834.71,562.6,842.26,561.77Z"/><path class="cls-7" d="M822.19,571.78c-1.47,3.09,9.19,10.31,16.54,9.74s19.38-4.45,18.37-10.16c-0.26-1.48-.67-3.63-3.82-4.17,1,1.73-.22,2.77-1,1-1.23-2.8-10.57-1.33-10.55,2.2,0,1.84-.65,5.42-6.44,5.76S823.24,574.72,822.19,571.78Z"/><path class="cls-7" d="M835,572.87s-3.35-4.33-5.3-4-2-2.54-2-2.54-2.45,5.48.4,5.09S835,572.87,835,572.87Z"/><path class="cls-7" d="M835.68,562.68a0.06,0.06,0,0,0,0,0,0.3,0.3,0,0,1-.1.1l-0.41.29c-0.16.12-.34,0.23-0.52,0.36l-0.57.38a5.67,5.67,0,0,1-.6.37,1.81,1.81,0,0,1-.33.15c-0.12,0-.21.1-0.33,0.13s-0.42.14-.59,0.17l-0.28,0h-0.16a1.11,1.11,0,0,1-1.19-1v0a1.71,1.71,0,0,1,0-.31,2.45,2.45,0,0,1,.22-0.75,3.15,3.15,0,0,1,.61-0.9,4,4,0,0,1,1-.75,4.29,4.29,0,0,1,1.26-.4,3.74,3.74,0,0,1,1.17,0,3.13,3.13,0,0,1,.81.26l0.24,0.13a0.17,0.17,0,0,1,.08.05l0.23,0.79a0.69,0.69,0,0,1-.47.86Z"/><path class="cls-7" d="M840.83,562.52a0.06,0.06,0,0,0,0,0,0.3,0.3,0,0,1-.06.12l-0.29.41c-0.11.17-.24,0.33-0.36,0.52l-0.4.55a5.62,5.62,0,0,1-.44.56,1.82,1.82,0,0,1-.25.26,3.5,3.5,0,0,1-.26.24c-0.19.14-.34,0.28-0.49,0.37a2.15,2.15,0,0,1-.24.14l-0.14.07a1.11,1.11,0,0,1-1.47-.53v0a1.76,1.76,0,0,1-.09-0.3,2.47,2.47,0,0,1-.06-0.78,3.17,3.17,0,0,1,.25-1.06,4,4,0,0,1,.71-1.07,4.28,4.28,0,0,1,1-.82,3.74,3.74,0,0,1,1.1-.4,3.12,3.12,0,0,1,.85,0l0.27,0a0.17,0.17,0,0,1,.09,0l0.49,0.66a0.69,0.69,0,0,1-.14,1Z"/><path class="cls-7" d="M833.24,564.72s0-.1,0-0.27a2.16,2.16,0,0,1,.05-0.71c0-.16.09-0.34,0.15-0.52l0.23-.52a4.56,4.56,0,0,1,.76-1,3.8,3.8,0,0,1,1.08-.76,3.11,3.11,0,0,1,1.15-.28,2.58,2.58,0,0,1,.88.11c0.21,0.07.36,0.15,0.38,0.14a0.85,0.85,0,1,1,.05,1.7,0.26,0.26,0,0,1-.08.2c-0.08.12-.19,0.27-0.31,0.43a5.43,5.43,0,0,1-.41.47,6.24,6.24,0,0,1-.5.43c-0.35.28-.8,0.64-1.13,0.85-0.18.09-.37,0.3-0.51,0.38l-0.23.15a1,1,0,0,1-1.4-.37A1,1,0,0,1,833.24,564.72Z"/></g></g><polygon class="cls-10" points="826.94 255.14 735.21 260.51 748.4 546.94 840.13 542.04 826.94 255.14"/><line class="cls-15" x1="766.49" y1="340.02" x2="817.76" y2="289.21"/><line class="cls-15" x1="779.42" y1="507.93" x2="817.64" y2="471.55"/><line class="cls-15" x1="764.12" y1="508.51" x2="816.55" y2="458.63"/><line class="cls-15" x1="756.77" y1="418.09" x2="820.54" y2="354.8"/><line class="cls-16" x1="759.86" y1="503.49" x2="812.29" y2="453.61"/><line class="cls-16" x1="751.2" y1="418.09" x2="814.97" y2="354.8"/><line class="cls-16" x1="761.73" y1="354.46" x2="812.99" y2="303.65"/><line class="cls-15" x1="755.68" y1="405.17" x2="819.45" y2="341.88"/><polygon class="cls-17" points="1181.48 422.24 1151.71 421.25 1151.31 291.04 1181.09 292.04 1181.48 422.24"/><polygon class="cls-17" points="1140.65 419.62 1110.87 418.62 1109.65 290.1 1139.42 291.1 1140.65 419.62"/><path class="cls-8" d="M976,418.49c-7.53-70.4-7.53-97.42-6.16-130.23,1.41,6.14,18.84,7.93,20.38-4.52s-2.84-99.56-20-112.6c-8.88-6.75-37-8.65-40.65-19.32a40.86,40.86,0,0,1-1.34-5.36,32.42,32.42,0,0,1-10.13,1.33c-7.17,0-21.4-8.49-27.42-14.87v1.88c0,15-11.79,25-25.06,28.49-15.57,4.12-28.35,13.32-33.49,28.87s-19.81,73.1-19.81,113.53c0,10.41,29.34,11.88,28.84-2.79-0.32-9.24,13.63-40.08,18.21-56.13,3.56,28.44,19.6,50.05,9.36,109.51C861.35,399.22,979,446.95,976,418.49Z"/><path class="cls-10" d="M922.51,183.19c4.68,1,7.88,7.09,4.76,11.15-1.87,2.44-5.95,1.88-7.19,1.43s-3.07-.72-3.56-2.89c-0.58-2.58,2.12-3.86,3.5-2.61s0.81,3.67.06,5.51a7.35,7.35,0,0,1-7.46,4c-4.29-.42-5.9-4.9-4.33-9.53"/><polygon class="cls-3" points="1054.83 591.48 1067.2 591.48 1072.73 437.1 1054.83 437.1 1054.83 591.48"/><polygon class="cls-3" points="1116.06 299.11 1103.69 299.11 1098.17 421.89 1116.06 421.89 1116.06 299.11"/><polygon class="cls-3" points="1174.76 302.77 1162.39 302.77 1156.86 425.55 1174.76 425.55 1174.76 302.77"/><polygon class="cls-3" points="1146.22 595.48 1133.86 595.48 1128.33 441.1 1146.22 441.1 1146.22 595.48"/><polygon class="cls-3" points="1082.23 562.92 1094.6 562.92 1100.13 417.77 1082.23 417.77 1082.23 562.92"/><polygon class="cls-3" points="1173.63 566.69 1161.26 566.69 1155.73 421.53 1173.63 421.53 1173.63 566.69"/><path class="cls-12" d="M966.42,654.13s7.68-79.68,10.12-117.66c0.69-10.78,3.95-89.52.9-118-1.52-14.21-2.73-26.65-3.69-37.73-5.2,8.22-84.49,12.84-106.21.43-1.13,28.86,4.87,47.34,4.32,50.31-0.68,3.76-5.72,57.71-7.44,120.61-0.89,32.36,4.45,103.46,4.06,105.75l12.07,0.28c1.8-20,7.09-66.93,11.32-105.11,4.64-41.82,26.61-111.68,28.12-117.46a78.68,78.68,0,0,1,8.92-1.43c1.25,4.65,10,46.83,16.12,93.68s9.44,128.11,9.44,128.11l7,0.36Z"/><path class="cls-13" d="M990.5,652.62c-10.44-1.74-26.74,3.78-26.74,3.78-3.92.8-13.62-2-14.26,1.76S953,667,953,667l29,10.54,20.31-9.08S1000.94,654.37,990.5,652.62Z"/><path class="cls-7" d="M951.54,664.91c-2.68,2.32,4.64,9.29,29.92,14.38,11.78,2.37,25.49-12.06,20.11-14.65-0.41,3.66-2-3-5.17-4.13s-9.47,2-8.47,5.31,0.29,7.82-4,7.91S952.18,668.65,951.54,664.91Z"/><path class="cls-7" d="M954.7,660.51s1,6.88,5.19,5.52c7.38-2.37,19.32,3.87,19.32,3.87s-13.13-9.43-17.44-7.94A6.84,6.84,0,0,1,954.7,660.51Z"/><path class="cls-7" d="M959.88,658.41a0.22,0.22,0,0,1,0-.1l0-.3a3.63,3.63,0,0,1,.28-0.91,4.36,4.36,0,0,1,.74-1.09,5,5,0,0,1,1.17-.93,6.25,6.25,0,0,1,.67-0.32,4.58,4.58,0,0,1,.68-0.2,3.86,3.86,0,0,1,1.23,0,3,3,0,0,1,.85.22,2,2,0,0,1,.31.15,1,1,0,0,1,.33,1.44l-0.11.14-0.1.11a2.34,2.34,0,0,1-.23.21c-0.14.13-.35,0.25-0.57,0.41s-0.24.14-.36,0.22a2.56,2.56,0,0,1-.38.21c-0.26.14-.53,0.25-0.79,0.37l-0.77.36c-0.26.11-.48,0.24-0.69,0.34l-0.53.27a0.44,0.44,0,0,1-.15.06,0.08,0.08,0,0,0-.05,0,0.78,0.78,0,0,1-1.26-.11Z"/><path class="cls-7" d="M963.55,657.53a0.22,0.22,0,0,1,0-.1l0-.3a3.63,3.63,0,0,1,.28-0.91,4.37,4.37,0,0,1,.74-1.09,5,5,0,0,1,1.17-.93,6.26,6.26,0,0,1,.67-0.32,4.57,4.57,0,0,1,.68-0.2,3.86,3.86,0,0,1,1.23,0,3,3,0,0,1,.85.22,2,2,0,0,1,.31.15,1,1,0,0,1,.33,1.44l-0.11.14-0.1.11a2.37,2.37,0,0,1-.23.21c-0.14.13-.35,0.25-0.57,0.41s-0.24.14-.36,0.22a2.56,2.56,0,0,1-.38.21c-0.26.14-.53,0.25-0.79,0.37l-0.77.36c-0.26.11-.48,0.24-0.69,0.34l-0.53.27a0.44,0.44,0,0,1-.15.06,0.08,0.08,0,0,0-.05,0,0.78,0.78,0,0,1-1.26-.11Z"/><path class="cls-7" d="M972.1,657.88a2.33,2.33,0,0,1-.14-0.36,3.92,3.92,0,0,1-.18-0.94,4.47,4.47,0,0,1,.14-1.38,4.29,4.29,0,0,1,.77-1.53,3.73,3.73,0,0,1,.64-0.65,3.47,3.47,0,0,1,.74-0.48,3.38,3.38,0,0,1,.76-0.26,2.76,2.76,0,0,1,.69-0.08,2.16,2.16,0,0,1,.56,0,3.35,3.35,0,0,1,.42.11,2.14,2.14,0,0,1,.35.14,1,1,0,0,1,.27,1.52l-0.15.18a2.69,2.69,0,0,1-.22.22c-0.13.13-.33,0.26-0.51,0.43a2.7,2.7,0,0,0-.28.24c-0.08.1-.19,0.15-0.26,0.24s-0.17.14-.24,0.23a2.29,2.29,0,0,0-.24.23,4.65,4.65,0,0,0-.49.57c-0.16.22-.31,0.46-0.45,0.68l-0.34.57a1.63,1.63,0,0,0-.14.22A0.85,0.85,0,0,1,972.1,657.88Z"/><path class="cls-7" d="M968.74,658a2.28,2.28,0,0,1-.14-0.36,3.92,3.92,0,0,1-.18-0.94,4.46,4.46,0,0,1,.14-1.38,4.29,4.29,0,0,1,.77-1.53,3.74,3.74,0,0,1,.64-0.65,3.48,3.48,0,0,1,.74-0.48,3.38,3.38,0,0,1,.76-0.26,2.75,2.75,0,0,1,.68-0.08,2.16,2.16,0,0,1,.56,0,3.34,3.34,0,0,1,.42.11,2.14,2.14,0,0,1,.35.14,1,1,0,0,1,.4,1.34,1,1,0,0,1-.12.18l-0.15.18a2.71,2.71,0,0,1-.22.22c-0.13.13-.33,0.26-0.51,0.43a2.7,2.7,0,0,0-.28.24c-0.08.1-.19,0.15-0.26,0.24s-0.17.14-.24,0.23a2.31,2.31,0,0,0-.24.23,4.67,4.67,0,0,0-.49.57c-0.16.22-.31,0.46-0.45,0.68l-0.34.57a1.67,1.67,0,0,0-.14.22A0.85,0.85,0,1,1,968.74,658Z"/><path class="cls-14" d="M811,259.56c0,8.06,28.33,14.1,45.54,14.1,0.15,15.07.19,42.5,0.77,63.39,0.61,22-3.19,37.5-.77,55.26,3.34,24.55,130.13,18.68,127.57,4.6s-12.88-97.51-12.88-110.14c0-5.15,1.22-21.47,1.22-21.47s26.29-4.93,26.29-14.92c0-25.15-8.23-42.51-14.83-68-3.83-14.79-26.95-19.18-41.41-23.78-2.07-2.59-8.65-5.34-10-4.13,14.63,20.25,6.89,38.25-3.75,47.5-36.24-6.64-48.74-34-44-48.77-0.71-2.26-7.21.07-8.19,2.2-17.21,2.84-43.49,11.5-48.09,30.37C821.23,215.43,812.82,230.54,811,259.56Z"/><path class="cls-10" d="M969.13,207.64s5.11,32.67,3.35,57.64"/><path class="cls-10" d="M867.57,219.58c-0.71,18.27-6.12,34.86-6.76,47.8-0.23,4.68-1.54,6.27-5,6.27"/><path class="cls-10" d="M876.56,155.39c-5.9,35.66,39.46,53.44,54.34,55.81,11.22-11.14,24.38-26.55,11.64-52.61"/><path class="cls-10" d="M860.82,265.28c-3.2,4.23-50.3-4.31-49.21-12.57"/><path class="cls-10" d="M973.2,259.56c8.15,0,25.57-9.19,25.57-12.94"/><path class="cls-10" d="M855.84,384c5,28.44,127.42,20.27,127.42,6.63"/><polygon class="cls-3" points="1182.67 335.62 1088.18 328.64 1090.18 289.21 1184.67 294.19 1182.67 335.62"/><polygon class="cls-3" points="1167.51 445.88 1028.13 435.81 1080.43 412.64 1187.25 419.2 1167.51 445.88"/><polygon class="cls-3" points="1167.51 445.88 1028.13 435.81 1028.13 451.87 1167.51 462.58 1167.51 445.88"/><polygon class="cls-3" points="1167.51 445.88 1198.25 428.05 1198.25 444.11 1167.51 462.58 1167.51 445.88"/><polygon class="cls-3" points="1182.67 335.62 1187.84 333.63 1189.84 294.2 1184.67 294.19 1182.67 335.62"/><polygon class="cls-8" points="1192.81 441.84 1022.56 429.33 1022.56 376.33 1192.81 388.84 1192.81 441.84"/><polygon class="cls-8" points="1212.19 379.74 1041.94 367.24 1022.56 376.33 1192.81 388.84 1212.19 379.74"/><polygon class="cls-8" points="1212.19 379.74 1212.05 433 1192.67 442 1192.81 388.84 1212.19 379.74"/><circle class="cls-18" cx="1054.83" cy="405.34" r="20.09"/><circle class="cls-12" cx="1054.83" cy="405.34" r="14.13"/><circle class="cls-18" cx="1159.5" cy="413.64" r="20.09"/><circle class="cls-12" cx="1159.5" cy="413.64" r="14.13"/><polygon class="cls-18" points="1134.06 427.35 1079.94 423.37 1079.94 392.89 1134.06 396.87 1134.06 427.35"/><polygon class="cls-12" points="1134.06 419.77 1079.94 415.79 1079.94 392.89 1134.06 396.87 1134.06 419.77"/><polygon class="cls-12" points="1189.53 383.09 1045.63 372.52 1042.99 373.99 1186.9 384.56 1189.53 383.09"/><polygon class="cls-12" points="1159.14 373.35 1152.02 372.97 1149.39 374.44 1156.5 374.83 1159.14 373.35"/><polygon class="cls-9" points="1156.49 382.27 1149.38 381.89 1149.39 374.44 1156.5 374.83 1156.49 382.27"/><polygon class="cls-9" points="1156.49 382.27 1159.13 381.02 1159.14 373.57 1156.5 374.83 1156.49 382.27"/><polygon class="cls-12" points="1166.14 373.88 1159.02 373.5 1156.39 374.97 1163.5 375.36 1166.14 373.88"/><polygon class="cls-9" points="1163.49 382.8 1156.38 382.42 1156.39 374.97 1163.5 375.36 1163.49 382.8"/><polygon class="cls-9" points="1163.49 382.8 1166.13 381.55 1166.14 374.1 1163.5 375.36 1163.49 382.8"/><polygon class="cls-12" points="1173.14 374.41 1166.02 374.03 1163.39 375.5 1170.5 375.89 1173.14 374.41"/><polygon class="cls-9" points="1170.49 383.33 1163.38 382.95 1163.39 375.5 1170.5 375.89 1170.49 383.33"/><polygon class="cls-9" points="1170.49 383.33 1173.13 382.08 1173.14 374.63 1170.5 375.89 1170.49 383.33"/><polygon class="cls-12" points="1180.14 374.94 1173.02 374.56 1170.39 376.03 1177.5 376.42 1180.14 374.94"/><polygon class="cls-9" points="1177.49 383.86 1170.38 383.48 1170.39 376.03 1177.5 376.42 1177.49 383.86"/><polygon class="cls-9" points="1177.49 383.86 1180.13 382.61 1180.14 375.16 1177.5 376.42 1177.49 383.86"/><polygon class="cls-12" points="1187.14 375.47 1180.02 375.09 1177.39 376.56 1184.5 376.95 1187.14 375.47"/><polygon class="cls-9" points="1184.49 384.39 1177.38 384.01 1177.39 376.56 1184.5 376.95 1184.49 384.39"/><polygon class="cls-9" points="1184.49 384.39 1187.13 383.14 1187.14 375.69 1184.5 376.95 1184.49 384.39"/><polygon class="cls-12" points="1054.69 365.13 1047.58 364.75 1044.94 366.22 1052.06 366.61 1054.69 365.13"/><polygon class="cls-9" points="1052.05 374.05 1044.94 373.67 1044.94 366.22 1052.06 366.61 1052.05 374.05"/><polygon class="cls-9" points="1052.05 374.05 1054.69 372.8 1054.7 365.35 1052.06 366.61 1052.05 374.05"/><polygon class="cls-12" points="1061.69 365.66 1054.58 365.28 1051.94 366.75 1059.06 367.13 1061.69 365.66"/><polygon class="cls-9" points="1059.05 374.58 1051.94 374.2 1051.94 366.75 1059.06 367.13 1059.05 374.58"/><polygon class="cls-9" points="1059.05 374.58 1061.69 373.33 1061.7 365.88 1059.06 367.13 1059.05 374.58"/><polygon class="cls-12" points="1068.69 366.19 1061.58 365.81 1058.94 367.28 1066.06 367.67 1068.69 366.19"/><polygon class="cls-9" points="1066.05 375.11 1058.94 374.73 1058.94 367.28 1066.06 367.67 1066.05 375.11"/><polygon class="cls-9" points="1066.05 375.11 1068.69 373.86 1068.7 366.41 1066.06 367.67 1066.05 375.11"/><polygon class="cls-12" points="1075.69 366.72 1068.58 366.34 1065.94 367.81 1073.06 368.19 1075.69 366.72"/><polygon class="cls-9" points="1073.05 375.64 1065.94 375.26 1065.94 367.81 1073.06 368.19 1073.05 375.64"/><polygon class="cls-9" points="1073.05 375.64 1075.69 374.39 1075.7 366.94 1073.06 368.19 1073.05 375.64"/><polygon class="cls-12" points="1082.69 367.25 1075.58 366.87 1072.94 368.34 1080.06 368.73 1082.69 367.25"/><polygon class="cls-9" points="1080.05 376.17 1072.94 375.79 1072.94 368.34 1080.06 368.73 1080.05 376.17"/><polygon class="cls-9" points="1080.05 376.17 1082.69 374.92 1082.7 367.47 1080.06 368.73 1080.05 376.17"/><polygon class="cls-12" points="1107.32 368.95 1100.21 368.56 1097.57 370.04 1104.68 370.42 1107.32 368.95"/><polygon class="cls-9" points="1104.68 377.87 1097.56 377.48 1097.57 370.04 1104.68 370.42 1104.68 377.87"/><polygon class="cls-9" points="1104.68 377.87 1107.32 376.61 1107.32 369.17 1104.68 370.42 1104.68 377.87"/><polygon class="cls-12" points="1114.32 369.48 1107.21 369.09 1104.57 370.56 1111.68 370.95 1114.32 369.48"/><polygon class="cls-9" points="1111.68 378.39 1104.56 378.01 1104.57 370.56 1111.68 370.95 1111.68 378.39"/><polygon class="cls-9" points="1111.68 378.39 1114.32 377.14 1114.32 369.7 1111.68 370.95 1111.68 378.39"/><polygon class="cls-12" points="1121.32 370.01 1114.21 369.62 1111.57 371.1 1118.68 371.48 1121.32 370.01"/><polygon class="cls-9" points="1118.68 378.93 1111.56 378.54 1111.57 371.1 1118.68 371.48 1118.68 378.93"/><polygon class="cls-9" points="1118.68 378.93 1121.32 377.67 1121.32 370.23 1118.68 371.48 1118.68 378.93"/><polygon class="cls-12" points="1128.32 370.54 1121.21 370.15 1118.57 371.63 1125.68 372.01 1128.32 370.54"/><polygon class="cls-9" points="1125.68 379.45 1118.56 379.07 1118.57 371.63 1125.68 372.01 1125.68 379.45"/><polygon class="cls-9" points="1125.68 379.45 1128.32 378.2 1128.32 370.76 1125.68 372.01 1125.68 379.45"/><polygon class="cls-12" points="1135.32 371.07 1128.21 370.68 1125.57 372.15 1132.68 372.54 1135.32 371.07"/><polygon class="cls-9" points="1132.68 379.99 1125.56 379.6 1125.57 372.15 1132.68 372.54 1132.68 379.99"/><polygon class="cls-9" points="1132.68 379.99 1135.32 378.73 1135.32 371.29 1132.68 372.54 1132.68 379.99"/><polygon class="cls-18" points="1041.5 391.84 1028.17 391.21 1028.17 384 1041.5 384.63 1041.5 391.84"/><polygon class="cls-18" points="1186.25 401.76 1172.91 400.76 1172.91 393.56 1186.25 394.55 1186.25 401.76"/><path class="cls-17" d="M1178.49,288.15l-29.82-1.48a4,4,0,0,0-4.06,3.43c-0.17,1.83-1.1,23.83-1.1,23.83l-9.51-.66,1-21.69,4.92,0.26,0.09-1.48c0.22-2.87-.09-4.38-3.12-4.69s-23.18-1.19-25.2-1.42a2.71,2.71,0,0,0-3.23,2.46l-3,67.37,66,7,2-45h-0.07l0.94-22.37,7.31-.3C1181.48,290.33,1181.15,288.28,1178.49,288.15Z"/><polyline class="cls-10" points="1105.4 354.05 1135.32 350.17 1136.86 334.55 1141.17 352.13 1171.36 361.02"/><circle class="cls-19" cx="1130.72" cy="344.59" r="2"/><polygon class="cls-19" points="1136.86 334.55 1138.38 329.5 1140.65 331.17 1138.38 335.62 1136.86 334.55"/><path class="cls-20" d="M1149.67,349a4.18,4.18,0,0,1,3.83-3.5c2.83-.33,14.67,3.5,14.67,3.5"/><path class="cls-20" d="M1123.67,345.48c0,1.76-.33-3.48-3.5-4s-11,.66-11,0.66"/><line class="cls-15" x1="749.99" y1="285.48" x2="763.83" y2="270.97"/><line class="cls-15" x1="756" y1="294.58" x2="766.42" y2="283.65"/><line class="cls-16" x1="750.17" y1="291.46" x2="769.72" y2="270.97"/><path class="cls-13" d="M855.47,658.7c-13.5-.44-18.05,14.81-18.05,14.81s15,12.55,25.17,12.55,21.91-10.92,22.18-15.49-4.27-10.85-9.46-11.9S866.17,659.05,855.47,658.7Z"/><path class="cls-7" d="M884.76,670.58c2.4,4.18-11.8,15.49-22.18,15.49s-27.72-4.14-26.93-12.27c0.21-2.11.55-5.18,4.92-6.28-1.15,2.53.62,3.87,1.54,1.24,1.42-4.06,14.71-3,15.07,1.94,0.18,2.58,1.51,7.55,9.68,7.39S883.61,674.82,884.76,670.58Z"/><path class="cls-7" d="M866.86,673.51s4.24-6.46,7-6.27,2.56-3.79,2.56-3.79,4,7.44,0,7.2S866.86,673.51,866.86,673.51Z"/><path class="cls-7" d="M864.28,657.3a0.31,0.31,0,0,1,.1-0.06l0.3-.16a4.36,4.36,0,0,1,1-.34,5.27,5.27,0,0,1,1.52-.06,6.08,6.08,0,0,1,1.67.43,7.77,7.77,0,0,1,.77.39,5.86,5.86,0,0,1,.67.48,4.9,4.9,0,0,1,1,1.07,3.71,3.71,0,0,1,.45.91,2.6,2.6,0,0,1,.11.38,1,1,0,0,1-1.14,1.15l-0.12,0a2.8,2.8,0,0,1-.34-0.09c-0.21-.06-0.47-0.19-0.78-0.3-0.16-.06-0.3-0.14-0.46-0.22a3.89,3.89,0,0,1-.49-0.24c-0.33-.16-0.65-0.35-1-0.52s-0.66-.33-1-0.46-0.63-.26-0.9-0.37L865,659,864.8,659a0.13,0.13,0,0,0-.07,0,0.83,0.83,0,0,1-.68-1.27Z"/><path class="cls-7" d="M857.74,657.57l0.11,0,0.34,0a4.36,4.36,0,0,1,1.09,0,5.27,5.27,0,0,1,1.44.48,6.09,6.09,0,0,1,1.41,1,7.79,7.79,0,0,1,.58.64,5.85,5.85,0,0,1,.46.68,4.9,4.9,0,0,1,.52,1.34,3.7,3.7,0,0,1,.1,1,2.59,2.59,0,0,1,0,.39,1,1,0,0,1-1.48.68l-0.11-.06a2.82,2.82,0,0,1-.29-0.21c-0.18-.13-0.37-0.34-0.63-0.56s-0.23-.24-0.36-0.37a3.89,3.89,0,0,1-.37-0.39c-0.25-.27-0.49-0.56-0.74-0.83s-0.5-.54-0.75-0.78-0.5-.46-0.72-0.66l-0.56-.47a0.77,0.77,0,0,1-.14-0.13,0.13,0.13,0,0,0-.06,0,0.83,0.83,0,0,1-.19-1.43Z"/><path class="cls-7" d="M866.7,662.89l-0.29-.21c-0.17-.12-0.42-0.39-0.67-0.55l-0.81-.65-0.9-.68c-0.61-.42-1.18-0.81-1.65-1.16-0.23-.18-0.44-0.32-0.59-0.45a0.5,0.5,0,0,1-.19-0.19,0.85,0.85,0,0,1-.08-1.69s0.19-.09.46-0.17a3.62,3.62,0,0,1,1.11-.13,4.52,4.52,0,0,1,.73.09,4,4,0,0,1,.78.23,5.52,5.52,0,0,1,1.48.9,6.73,6.73,0,0,1,1.13,1.25l0.39,0.65c0.11,0.22.2,0.45,0.29,0.64a3.65,3.65,0,0,1,.24.92c0,0.22,0,.36,0,0.36A0.94,0.94,0,0,1,866.7,662.89Z"/></svg>