<svg id="Shadow" xmlns="http://www.w3.org/2000/svg" viewBox="0 0 1792 768"><defs><style>.cls-1{fill:#24265b;opacity:0.1;}.cls-2,.cls-4{fill:#fff;}.cls-2,.cls-3{stroke:#24265b;stroke-linecap:round;stroke-linejoin:round;}.cls-2{stroke-width:4.06px;}.cls-3{fill:none;stroke-width:2.39px;}</style></defs><title>topic</title><path class="cls-1" d="M784.38,628.32S761,633.82,751,637.41,896.19,670,913.1,670s141.09-34.24,104.19-40.77S784.38,628.32,784.38,628.32Z"/><path class="cls-2" d="M768.35,626.11l100.29-24.18a11.82,11.82,0,0,1,4.65-.18l141,22.74a3.75,3.75,0,0,1,3,4.74h0a3.75,3.75,0,0,1-2.74,2.61l-97.76,23a7.76,7.76,0,0,1-2.9.12l-145.2-21.15a3.75,3.75,0,0,1-3.21-3.71v-0.33A3.75,3.75,0,0,1,768.35,626.11Z"/><polygon class="cls-2" points="844.02 627.25 930.77 608.94 1000.52 618.1 916.2 637.41 844.02 627.25"/><line class="cls-2" x1="917.05" y1="646.54" x2="768.35" y2="626.11"/><polygon class="cls-2" points="844.02 632.19 916.2 642.62 916.2 637.41 844.02 627.25 844.02 632.19"/><line class="cls-3" x1="928.84" y1="639.27" x2="928.84" y2="644.27"/><line class="cls-3" x1="913.69" y1="637.12" x2="913.69" y2="642.12"/><line class="cls-3" x1="898.54" y1="634.97" x2="898.54" y2="639.96"/><line class="cls-3" x1="883.39" y1="632.81" x2="883.39" y2="637.81"/><line class="cls-3" x1="868.24" y1="630.66" x2="868.24" y2="635.66"/><line class="cls-3" x1="853.09" y1="628.51" x2="853.09" y2="633.5"/><line class="cls-4" x1="929.98" y1="639.27" x2="1008.23" y2="622.83"/><line class="cls-3" x1="929.98" y1="639.27" x2="1008.23" y2="622.83"/><line class="cls-4" x1="914.83" y1="637.12" x2="993.08" y2="620.67"/><line class="cls-3" x1="914.83" y1="637.12" x2="993.08" y2="620.67"/><line class="cls-4" x1="899.68" y1="634.97" x2="977.93" y2="618.52"/><line class="cls-3" x1="899.68" y1="634.97" x2="977.93" y2="618.52"/><line class="cls-4" x1="884.53" y1="632.81" x2="962.78" y2="616.37"/><line class="cls-3" x1="884.53" y1="632.81" x2="962.78" y2="616.37"/><line class="cls-4" x1="869.38" y1="630.66" x2="947.63" y2="614.22"/><line class="cls-3" x1="869.38" y1="630.66" x2="947.63" y2="614.22"/><line class="cls-4" x1="854.22" y1="628.51" x2="932.48" y2="612.06"/><line class="cls-3" x1="854.22" y1="628.51" x2="932.48" y2="612.06"/><line class="cls-3" x1="866.82" y1="626.16" x2="876.08" y2="627.47"/><line class="cls-3" x1="880.55" y1="623.18" x2="889.81" y2="624.49"/><line class="cls-3" x1="906.58" y1="617.58" x2="915.84" y2="618.9"/><line class="cls-3" x1="895.79" y1="620.22" x2="905.06" y2="621.54"/><line class="cls-3" x1="881.57" y1="626.66" x2="890.83" y2="627.98"/><line class="cls-3" x1="895.3" y1="623.68" x2="904.56" y2="625"/><line class="cls-3" x1="864.27" y1="623.33" x2="873.53" y2="624.64"/><line class="cls-3" x1="878" y1="620.35" x2="887.26" y2="621.66"/><line class="cls-3" x1="910.73" y1="613.05" x2="920" y2="614.37"/><line class="cls-3" x1="908.46" y1="620.91" x2="917.73" y2="622.23"/><line class="cls-3" x1="889.14" y1="628.86" x2="898.41" y2="630.17"/><line class="cls-3" x1="902.88" y1="625.88" x2="912.14" y2="627.19"/><line class="cls-3" x1="916.04" y1="623.1" x2="925.3" y2="624.42"/><line class="cls-3" x1="903.64" y1="629.82" x2="912.9" y2="631.14"/><line class="cls-3" x1="917.37" y1="626.84" x2="926.64" y2="628.16"/><path class="cls-2" d="M1021.4,624.53L918.86,646.89a2.43,2.43,0,0,1-2.91-2.78l30-176.73a8,8,0,0,1,8.17-6.67l89.13,3a13.15,13.15,0,0,1,12.53,15.32l-22.22,132.7A15.73,15.73,0,0,1,1021.4,624.53Z"/><line class="cls-2" x1="923.4" y1="640.35" x2="952.89" y2="466.9"/><ellipse class="cls-2" cx="995.64" cy="546.66" rx="20.41" ry="9.7" transform="translate(332.52 1468.84) rotate(-83.05)"/></svg>