<svg id="Shadow" xmlns="http://www.w3.org/2000/svg" viewBox="0 0 1792 768"><defs><style>.cls-1,.cls-6,.cls-8{fill:#24265b;}.cls-1{opacity:0.1;}.cls-2{fill:#eeb9a9;}.cls-2,.cls-3,.cls-4,.cls-5,.cls-6,.cls-7{stroke:#24265b;stroke-linecap:round;stroke-linejoin:round;}.cls-2,.cls-3,.cls-4,.cls-5,.cls-6{stroke-width:3px;}.cls-3{fill:none;}.cls-4,.cls-7{fill:#fff;}.cls-5{fill:#29cc8a;}.cls-7{stroke-width:2.55px;}</style></defs><title>topic</title><path class="cls-1" d="M867,665c-14.84,0-178.68,12.77-178.68,26.35s61.23,34,98.35,34,64.22-12.66,84-12.66,84.07,18.5,107.36,18.5,37.87-25.8,48.53-23.91,117.49,22,117.49,6.38-74.25-18.63-84.72-23.37-2.87-6.29-10.22-12.4-63.21-14.73-77-14.73-54.41,16-67.31,16S881.88,665,867,665Z"/><path class="cls-2" d="M879.11,658.13c1.8-20,7.09-66.93,11.32-105.11,4.64-41.82,26.61-111.68,28.12-117.46a78.66,78.66,0,0,1,8.92-1.43c1.25,4.65,10,46.83,16.12,93.68s9.44,126,9.44,126a18.65,18.65,0,0,1,0,8.18c-2.39,8.37,7,4.76,14.68,10.08,3.64,2.53,7.26,4.17,11.1,3.3a4.27,4.27,0,0,0,5.85-1.92,6,6,0,0,1,5.15-1.58,3.11,3.11,0,0,0,2.71-3.27,2.8,2.8,0,0,0,2.75-3.68,1.85,1.85,0,0,0-1.1-3.48,6.49,6.49,0,0,1-1.78.23c-3.9-2.4-26.24-5.82-27.4-9.66,0,0,7.68-77.55,10.12-115.53,0.69-10.78,3.95-89.52.9-118-7.53-70.4-7.53-97.42-6.16-130.23,1.41,6.14,18.84,7.93,20.38-4.52s-2.84-99.56-20-112.6c-8.88-6.75-37-8.65-40.65-19.32a40.79,40.79,0,0,1-1.34-5.36,32.43,32.43,0,0,1-10.13,1.33c-7.17,0-21.4-8.49-27.42-14.87v1.88c0,15-11.79,25-25.06,28.49-15.57,4.12-28.35,13.32-33.49,28.87s-19.81,73.1-19.81,113.53c0,10.41,29.34,11.88,28.84-2.79-0.32-9.24,13.63-40.08,18.21-56.13,3.56,28.44,19.6,50.05,9.36,109.51-7.39,43,2.37,71.47,1.69,75.22S864.71,489.2,863,552.1c-0.89,32.36,4.45,103.46,4.06,105.75Z"/><path class="cls-2" d="M980.73,669.46c1.81,0,4.71.9,3.92,4"/><path class="cls-2" d="M986.14,668.24a2.86,2.86,0,0,1,2.5,3.53"/><path class="cls-2" d="M989.8,665.86a2.86,2.86,0,0,1,2.5,3.53"/><path class="cls-2" d="M990.6,663.2c2,0.28,4.55,1.19,4.67,1.71"/><path class="cls-2" d="M969.82,209.07c1.49,22,2.27,37.69,0,79.19"/><path class="cls-3" d="M933.86,210.27c4.68,1,7.88,7.09,4.76,11.15-1.87,2.44-5.95,1.88-7.19,1.43s-3.07-.72-3.56-2.89c-0.58-2.58,2.12-3.86,3.5-2.61s0.81,3.67.06,5.51a7.35,7.35,0,0,1-7.46,4c-4.29-.42-5.9-4.9-4.33-9.53"/><path class="cls-3" d="M940.67,208.39c3.88-3.19,15.4,4.54,7,10.18"/><path class="cls-3" d="M912.59,221c2.9,2.26-.75,11.73-6.14,6.63"/><path class="cls-3" d="M933.89,238.33c1.89,3.34-.1,8.51-4.2,8.79-2.47.17-4.29-2.59-4.68-3.58s-1.19-2.23-.14-3.68a1.84,1.84,0,0,1,3.44.72c0,1.5-1.78,2.44-3.29,3a5.91,5.91,0,0,1-6.39-2.37c-2-2.81-.17-6.16,3.45-7.67"/><path class="cls-3" d="M938.6,247.8c2.86,0.46,5,4.07,3.19,6.61-1.06,1.53-3.55,1.3-4.31,1.06s-1.88-.35-2.23-1.65a1.39,1.39,0,0,1,2-1.68c0.87,0.72.59,2.2,0.19,3.33a4.45,4.45,0,0,1-4.4,2.64c-2.61-.13-3.71-2.8-2.89-5.65"/><path class="cls-3" d="M935.19,232.19c4.14-2.85,15,5.83,6.09,10.73"/><path class="cls-3" d="M905.44,244.67c-2-3.09,4.57-10.83,8-4.24"/><path class="cls-3" d="M913.58,209.7c1.47-5.23,16.47-5.5,12.48,4.71"/><path class="cls-3" d="M923.32,249.07c-0.11,3.68-9.9,6.32-9-1"/><path class="cls-3" d="M944.33,227.55c2.54-2.66,11.59,1.93,6,6.77"/><path class="cls-2" d="M866.84,216c-1.42,8.61-5.21,21.77-7.47,30.74"/><path class="cls-4" d="M888,575.18c-3.63,32.66-7.39,66.68-8.86,83a18.65,18.65,0,0,0,1,8.12s-13.78-4.44-13.11-8.4c0.31-1.85-3.1-48.46-4-83.41C863.26,580.92,887.32,581.08,888,575.18Z"/><path class="cls-4" d="M953,662a18.65,18.65,0,0,0,0-8.18s-1.58-37.53-4.55-76.2c1.09,6,23,6,23.6-2.3C968.95,611.93,965,652,965,652c1.16,3.84,23.5,7.26,27.4,9.66Z"/><path class="cls-5" d="M976,418.49c-7.53-70.4-7.53-97.42-6.16-130.23,0.3-4.41.7-13.3,0.86-18.09,4.06,2.49,19.92,4,19.57-4.88-1.18-29.94-6.81-84.08-20-94.14-6.66-5.06-24.16-7.4-34-12.75,7,15-55,12-55.37-2.87a38.78,38.78,0,0,1-15.21,7.77c-15.57,4.12-28.35,13.32-33.49,28.87-3.55,10.73-11.68,41.63-16.35,73.05-2.08,14,30,19.13,34.93,6.05,3.37-9,6.79-18,8.65-24.49,3.56,28.44,19.6,50.05,9.36,109.51-7.39,43,2.37,71.47,1.69,75.22s46.62,9.85,48.13,4.07a78.68,78.68,0,0,1,8.92-1.43C928.73,438.78,979,446.95,976,418.49Z"/><path class="cls-6" d="M975.46,529.47c1.25-22.67,3.2-86.08.54-111-1.52-14.21-2.73-26.65-3.69-37.73-5.2,8.22-84.49,12.84-106.21.43C865,410,871,428.52,870.43,431.49c-0.6,3.29-4.54,45.17-6.67,97.83-0.3,7.41,28.5,10.28,29.88,2.91,7.67-40.87,23.64-91.77,24.92-96.67a78.68,78.68,0,0,1,8.92-1.43c1.25,4.65,10,46.83,16.12,93.68q0.26,2,.51,4C944.93,538.54,975,538.62,975.46,529.47Z"/><path class="cls-7" d="M989.06,652.62c-10.44-1.74-26.74,3.78-26.74,3.78-3.92.8-13.62-2-14.26,1.76s3.49,8.84,3.49,8.84l29,10.54,20.31-9.08S999.5,654.37,989.06,652.62Z"/><path class="cls-8" d="M950.1,664.91c-2.68,2.32,4.64,9.29,29.92,14.38,11.78,2.37,25.49-12.06,20.11-14.65-0.41,3.66-2-3-5.17-4.13s-9.47,2-8.47,5.31,0.29,7.82-4,7.91S950.74,668.65,950.1,664.91Z"/><path class="cls-8" d="M953.26,660.51s1,6.88,5.19,5.52c7.38-2.37,19.32,3.87,19.32,3.87s-13.13-9.43-17.44-7.94A6.84,6.84,0,0,1,953.26,660.51Z"/><path class="cls-8" d="M958.44,658.41a0.22,0.22,0,0,1,0-.1l0-.3a3.63,3.63,0,0,1,.28-0.91,4.37,4.37,0,0,1,.74-1.09,5,5,0,0,1,1.17-.93,6.25,6.25,0,0,1,.67-0.32,4.56,4.56,0,0,1,.68-0.2,3.86,3.86,0,0,1,1.23,0,3,3,0,0,1,.85.22,2,2,0,0,1,.31.15,1,1,0,0,1,.33,1.44l-0.11.14-0.1.11a2.34,2.34,0,0,1-.23.21c-0.14.13-.35,0.25-0.57,0.41s-0.24.14-.36,0.22a2.55,2.55,0,0,1-.38.21c-0.26.14-.53,0.25-0.79,0.37l-0.77.36c-0.26.11-.48,0.24-0.69,0.34l-0.53.27a0.44,0.44,0,0,1-.15.06,0.08,0.08,0,0,0-.05,0,0.78,0.78,0,0,1-1.26-.11Z"/><path class="cls-8" d="M962.11,657.53a0.22,0.22,0,0,1,0-.1l0-.3a3.61,3.61,0,0,1,.28-0.91,4.38,4.38,0,0,1,.74-1.09,5,5,0,0,1,1.17-.93,6.26,6.26,0,0,1,.67-0.32,4.57,4.57,0,0,1,.68-0.2,3.86,3.86,0,0,1,1.23,0,3,3,0,0,1,.85.22,2.05,2.05,0,0,1,.31.15,1,1,0,0,1,.33,1.44l-0.11.14-0.1.11a2.38,2.38,0,0,1-.23.21c-0.14.13-.35,0.25-0.57,0.41s-0.24.14-.36,0.22a2.55,2.55,0,0,1-.38.21c-0.26.14-.53,0.25-0.79,0.37l-0.77.36c-0.26.11-.48,0.24-0.69,0.34l-0.53.27a0.44,0.44,0,0,1-.15.06,0.08,0.08,0,0,0-.05,0,0.78,0.78,0,0,1-1.26-.11Z"/><path class="cls-8" d="M970.65,657.88a2.29,2.29,0,0,1-.14-0.36,3.92,3.92,0,0,1-.18-0.94,4.47,4.47,0,0,1,.14-1.38,4.29,4.29,0,0,1,.77-1.53,3.74,3.74,0,0,1,.64-0.65,3.48,3.48,0,0,1,.74-0.48,3.38,3.38,0,0,1,.76-0.26,2.75,2.75,0,0,1,.68-0.08,2.16,2.16,0,0,1,.56,0,3.35,3.35,0,0,1,.42.11,2.13,2.13,0,0,1,.35.14,1,1,0,0,1,.27,1.52l-0.15.18a2.7,2.7,0,0,1-.22.22c-0.13.13-.33,0.26-0.51,0.43a2.68,2.68,0,0,0-.28.24c-0.08.1-.19,0.15-0.26,0.24s-0.17.14-.24,0.23a2.31,2.31,0,0,0-.24.23,4.69,4.69,0,0,0-.49.57c-0.16.22-.31,0.46-0.45,0.68l-0.34.57a1.64,1.64,0,0,0-.14.22A0.85,0.85,0,0,1,970.65,657.88Z"/><path class="cls-8" d="M967.3,658a2.26,2.26,0,0,1-.14-0.36,3.92,3.92,0,0,1-.18-0.94,4.47,4.47,0,0,1,.14-1.38,4.29,4.29,0,0,1,.77-1.53,3.74,3.74,0,0,1,.64-0.65,3.48,3.48,0,0,1,.74-0.48,3.38,3.38,0,0,1,.76-0.26,2.75,2.75,0,0,1,.69-0.08,2.16,2.16,0,0,1,.56,0,3.31,3.31,0,0,1,.42.11,2.13,2.13,0,0,1,.35.14,1,1,0,0,1,.4,1.34,1,1,0,0,1-.12.18l-0.15.18a2.73,2.73,0,0,1-.22.22c-0.13.13-.33,0.26-0.51,0.43a2.67,2.67,0,0,0-.28.24c-0.08.1-.19,0.15-0.26,0.24s-0.17.14-.24,0.23a2.31,2.31,0,0,0-.24.23,4.65,4.65,0,0,0-.49.57c-0.16.22-.31,0.46-0.45,0.68l-0.34.57a1.65,1.65,0,0,0-.14.22A0.85,0.85,0,0,1,967.3,658Z"/><path class="cls-3" d="M967,209.78s5.47,35.42,3.72,60.38"/><line class="cls-3" x1="867.47" y1="582.69" x2="868.18" y2="596.56"/><line class="cls-3" x1="882.49" y1="583.48" x2="881.13" y2="596.9"/><line class="cls-3" x1="877.63" y1="584.19" x2="876.94" y2="597.35"/><line class="cls-3" x1="872.53" y1="584.19" x2="872.78" y2="597.35"/><line class="cls-3" x1="966.76" y1="585.38" x2="966.04" y2="598.68"/><line class="cls-3" x1="953.24" y1="586.13" x2="954.19" y2="599.01"/><line class="cls-3" x1="957.87" y1="586.81" x2="958.21" y2="599.44"/><line class="cls-3" x1="962.13" y1="586.81" x2="962.2" y2="599.44"/><path class="cls-6" d="M897.64,80.64s-5.55,17.33-9.28,28.58c0.28,7.19,1.86,14.28,2.72,19.08,0.32,1.8,9.48,12.25,16.74,16.45-6.3-1-18.9-10.54-19.86-16S884,102,884,102l-6.87-6.26-0.35-8.53,9.57,9.92,7.31-20.41Z"/><path class="cls-8" d="M902.31,63.19c1.07,2,12.19,5.34,19.93,4.62,5.15-.48,8-3.54,8.29-7.06,0.71-8.81-2.61-10.79-6.91-11.45-1.72,4.76-4.6-2.39-12.52-.93,2.29,3.16-5.56.49-10.5,5.6C905.54,55.66,900.34,59.42,902.31,63.19Z"/><path class="cls-5" d="M910.52,34.94c-3.46-.09,6.2,5.48,3,5.89-3.35.44-19.49-4.23-22.49-3.31a54.12,54.12,0,0,0-9.82,4.12c3.33,1.49,4.64,6.66,3.33,7.54S874.52,46,873.3,47C865,53.73,859.7,62.41,858,70.4a35.37,35.37,0,0,0-.58,10.77c5.85,2,7.1,12.73,5.3,15.89a40.72,40.72,0,0,0,9.74,11.11,1.7,1.7,0,0,0,.87.16c-0.37-4.82,2-7.39,5.86-7.39a12.28,12.28,0,0,1,3.54.63l0-.09S878.71,87.27,884,82.19s28,1.48,40.78,1.48c10.16,0,19.15-2.49,21.38-2.49,0.63,1.09.68,3.3,0.68,6.06C975.93,66.25,940.62,35.69,910.52,34.94Z"/><path class="cls-6" d="M892.31,49.18c5,3.91,10.68,13.16,17.56,18.73,7.54,6.11,8.31-3.36,1.6-7.89C905.68,56.12,898.92,48.45,892.31,49.18Z"/><path class="cls-6" d="M905.13,46.53c7.91,3,13.68,8.33,18,15.85,2,3.39,5.93,7.34,8.74,7.16s1.74-6.64,0-9.5C927.18,52.25,912.13,46.53,905.13,46.53Z"/><path class="cls-6" d="M930.63,50.25c4.84,3.23,14,10.49,11.67,16.89C952.53,63.4,942.3,51.32,930.63,50.25Z"/><path class="cls-6" d="M878.4,55.92S893,68.57,899.17,70.6c-3.19,2.5-9.23,1.07-13.13-1.38S878.4,55.92,878.4,55.92Z"/><path class="cls-6" d="M910.52,146.49s-0.36,3.68.94,4,13.48,0.71,14.83,0,2-3.48,2-3.48Z"/><path class="cls-6" d="M865.94,74.11s3.58,9.72,9.3,11.38,2.82,7.09-2.1,5.87C868.43,90.19,865.41,82.7,865.94,74.11Z"/><path class="cls-7" d="M855.47,658.7c-13.5-.44-18.05,14.81-18.05,14.81s15,12.55,25.17,12.55,21.91-10.92,22.18-15.49-4.27-10.85-9.46-11.9S866.17,659.05,855.47,658.7Z"/><path class="cls-8" d="M884.76,670.58c2.4,4.18-11.8,15.49-22.18,15.49s-27.72-4.14-26.93-12.27c0.21-2.11.55-5.18,4.92-6.28-1.15,2.53.62,3.87,1.54,1.24,1.42-4.06,14.71-3,15.07,1.94,0.18,2.58,1.51,7.55,9.68,7.39S883.61,674.82,884.76,670.58Z"/><path class="cls-8" d="M866.86,673.51s4.24-6.46,7-6.27,2.56-3.79,2.56-3.79,4,7.44,0,7.2S866.86,673.51,866.86,673.51Z"/><path class="cls-8" d="M864.28,657.3a0.31,0.31,0,0,1,.1-0.06l0.3-.16a4.36,4.36,0,0,1,1-.34,5.27,5.27,0,0,1,1.52-.06,6.08,6.08,0,0,1,1.67.43,7.77,7.77,0,0,1,.77.39,5.86,5.86,0,0,1,.67.48,4.9,4.9,0,0,1,1,1.07,3.71,3.71,0,0,1,.45.91,2.6,2.6,0,0,1,.11.38,1,1,0,0,1-1.14,1.15l-0.12,0a2.8,2.8,0,0,1-.34-0.09c-0.21-.06-0.47-0.19-0.78-0.3-0.16-.06-0.3-0.14-0.46-0.22a3.89,3.89,0,0,1-.49-0.24c-0.33-.16-0.65-0.35-1-0.52s-0.66-.33-1-0.46-0.63-.26-0.9-0.37L865,659,864.8,659a0.13,0.13,0,0,0-.07,0,0.83,0.83,0,0,1-.68-1.27Z"/><path class="cls-8" d="M857.74,657.57l0.11,0,0.34,0a4.36,4.36,0,0,1,1.09,0,5.27,5.27,0,0,1,1.44.48,6.09,6.09,0,0,1,1.41,1,7.79,7.79,0,0,1,.58.64,5.85,5.85,0,0,1,.46.68,4.9,4.9,0,0,1,.52,1.34,3.7,3.7,0,0,1,.1,1,2.59,2.59,0,0,1,0,.39,1,1,0,0,1-1.48.68l-0.11-.06a2.82,2.82,0,0,1-.29-0.21c-0.18-.13-0.37-0.34-0.63-0.56s-0.23-.24-0.36-0.37a3.89,3.89,0,0,1-.37-0.39c-0.25-.27-0.49-0.56-0.74-0.83s-0.5-.54-0.75-0.78-0.5-.46-0.72-0.66l-0.56-.47a0.77,0.77,0,0,1-.14-0.13,0.13,0.13,0,0,0-.06,0,0.83,0.83,0,0,1-.19-1.43Z"/><path class="cls-8" d="M866.7,662.89l-0.29-.21c-0.17-.12-0.42-0.39-0.67-0.55l-0.81-.65-0.9-.68c-0.61-.42-1.18-0.81-1.65-1.16-0.23-.18-0.44-0.32-0.59-0.45a0.5,0.5,0,0,1-.19-0.19,0.85,0.85,0,0,1-.08-1.69s0.19-.09.46-0.17a3.62,3.62,0,0,1,1.11-.13,4.52,4.52,0,0,1,.73.09,4,4,0,0,1,.78.23,5.52,5.52,0,0,1,1.48.9,6.73,6.73,0,0,1,1.13,1.25l0.39,0.65c0.11,0.22.2,0.45,0.29,0.64a3.65,3.65,0,0,1,.24.92c0,0.22,0,.36,0,0.36A0.94,0.94,0,0,1,866.7,662.89Z"/></svg>