<svg id="Shadow" xmlns="http://www.w3.org/2000/svg" viewBox="0 0 1792 768"><defs><style>.cls-1,.cls-4,.cls-6{fill:#24265b;}.cls-1{opacity:0.1;}.cls-2{fill:#eeb9a9;}.cls-2,.cls-3,.cls-4,.cls-5,.cls-7,.cls-8{stroke:#24265b;stroke-linecap:round;stroke-linejoin:round;}.cls-2,.cls-3,.cls-4,.cls-7,.cls-8{stroke-width:3px;}.cls-3{fill:none;}.cls-5,.cls-8{fill:#fff;}.cls-5{stroke-width:2.55px;}.cls-7{fill:#29cc29;}</style></defs><title>topic</title><path class="cls-1" d="M867,665c-14.84,0-178.68,12.77-178.68,26.35s61.23,34,98.35,34,64.22-12.66,84-12.66,84.07,18.5,107.36,18.5,37.87-25.8,48.53-23.91,117.49,22,117.49,6.38-74.25-18.63-84.72-23.37-2.87-6.29-10.22-12.4-39.79-11-53.61-11-77.83,12.25-90.73,12.25S881.88,665,867,665Z"/><path class="cls-2" d="M976,418.49c-7.53-70.4-7.53-97.42-6.16-130.23,1.41,6.14,18.84,7.93,20.38-4.52s-2.84-99.56-20-112.6c-8.88-6.75-37-8.65-40.65-19.32a40.86,40.86,0,0,1-1.34-5.36,32.42,32.42,0,0,1-10.13,1.33c-7.17,0-21.4-8.49-27.42-14.87v1.88c0,15-11.79,25-25.06,28.49-15.57,4.12-28.35,13.32-33.49,28.87s-19.81,73.1-19.81,113.53c0,10.41,29.34,11.88,28.84-2.79-0.32-9.24,13.63-40.08,18.21-56.13,3.56,28.44,19.6,50.05,9.36,109.51C861.35,399.22,979,446.95,976,418.49Z"/><path class="cls-3" d="M922.51,183.19c4.68,1,7.88,7.09,4.76,11.15-1.87,2.44-5.95,1.88-7.19,1.43s-3.07-.72-3.56-2.89c-0.58-2.58,2.12-3.86,3.5-2.61s0.81,3.67.06,5.51a7.35,7.35,0,0,1-7.46,4c-4.29-.42-5.9-4.9-4.33-9.53"/><path class="cls-4" d="M965,654.13s7.68-79.68,10.12-117.66c0.69-10.78,3.95-89.52.9-118-1.52-14.21-2.73-26.65-3.69-37.73-5.2,8.22-84.49,12.84-106.21.43C865,410,871,428.52,870.43,431.49c-0.68,3.76-5.72,57.71-7.44,120.61-0.89,32.36,4.45,103.46,4.06,105.75l12.07,0.28c1.8-20,7.09-66.93,11.32-105.11,4.64-41.82,26.61-111.68,28.12-117.46a78.68,78.68,0,0,1,8.92-1.43c1.25,4.65,10,46.83,16.12,93.68S953,655.92,953,655.92l7,0.36Z"/><path class="cls-5" d="M989.06,652.62c-10.44-1.74-26.74,3.78-26.74,3.78-3.92.8-13.62-2-14.26,1.76s3.49,8.84,3.49,8.84l29,10.54,20.31-9.08S999.5,654.37,989.06,652.62Z"/><path class="cls-6" d="M950.1,664.91c-2.68,2.32,4.64,9.29,29.92,14.38,11.78,2.37,25.49-12.06,20.11-14.65-0.41,3.66-2-3-5.17-4.13s-9.47,2-8.47,5.31,0.29,7.82-4,7.91S950.74,668.65,950.1,664.91Z"/><path class="cls-6" d="M953.26,660.51s1,6.88,5.19,5.52c7.38-2.37,19.32,3.87,19.32,3.87s-13.13-9.43-17.44-7.94A6.84,6.84,0,0,1,953.26,660.51Z"/><path class="cls-6" d="M958.44,658.41a0.21,0.21,0,0,1,0-.1l0-.3a3.63,3.63,0,0,1,.28-0.91,4.37,4.37,0,0,1,.74-1.09,5,5,0,0,1,1.17-.93,6.29,6.29,0,0,1,.67-0.32,4.6,4.6,0,0,1,.68-0.2,3.85,3.85,0,0,1,1.23,0,2.94,2.94,0,0,1,.85.22,2.05,2.05,0,0,1,.31.15,1,1,0,0,1,.33,1.44l-0.11.14-0.1.11a2.36,2.36,0,0,1-.23.21c-0.14.13-.35,0.25-0.57,0.41s-0.24.14-.36,0.22a2.56,2.56,0,0,1-.38.21c-0.26.14-.53,0.25-0.79,0.37l-0.77.36c-0.26.11-.48,0.24-0.69,0.34l-0.53.27a0.44,0.44,0,0,1-.15.06,0.08,0.08,0,0,0-.05,0,0.78,0.78,0,0,1-1.26-.11Z"/><path class="cls-6" d="M962.11,657.53a0.22,0.22,0,0,1,0-.1l0-.3a3.61,3.61,0,0,1,.28-0.91,4.38,4.38,0,0,1,.74-1.09,5,5,0,0,1,1.17-.93,6.24,6.24,0,0,1,.67-0.32,4.55,4.55,0,0,1,.68-0.2,3.85,3.85,0,0,1,1.23,0,3,3,0,0,1,.85.22,2,2,0,0,1,.31.15,1,1,0,0,1,.33,1.44l-0.11.14-0.1.11a2.38,2.38,0,0,1-.23.21c-0.14.13-.35,0.25-0.57,0.41s-0.24.14-.36,0.22a2.54,2.54,0,0,1-.38.21c-0.26.14-.53,0.25-0.79,0.37l-0.77.36c-0.26.11-.48,0.24-0.69,0.34l-0.53.27a0.43,0.43,0,0,1-.15.06,0.08,0.08,0,0,0-.05,0,0.78,0.78,0,0,1-1.26-.11Z"/><path class="cls-6" d="M970.65,657.88a2.27,2.27,0,0,1-.14-0.36,3.92,3.92,0,0,1-.18-0.94,4.47,4.47,0,0,1,.14-1.38,4.29,4.29,0,0,1,.77-1.53,3.73,3.73,0,0,1,.64-0.65,3.47,3.47,0,0,1,.74-0.48,3.38,3.38,0,0,1,.76-0.26,2.76,2.76,0,0,1,.68-0.08,2.16,2.16,0,0,1,.56,0,3.33,3.33,0,0,1,.42.11,2.12,2.12,0,0,1,.35.14,1,1,0,0,1,.27,1.52l-0.15.18a2.67,2.67,0,0,1-.22.22c-0.13.13-.33,0.26-0.51,0.43a2.65,2.65,0,0,0-.28.24c-0.08.1-.19,0.15-0.26,0.24s-0.17.14-.24,0.23a2.3,2.3,0,0,0-.24.23,4.7,4.7,0,0,0-.49.57c-0.16.22-.31,0.46-0.45,0.68l-0.34.57a1.68,1.68,0,0,0-.14.22A0.85,0.85,0,1,1,970.65,657.88Z"/><path class="cls-6" d="M967.3,658a2.27,2.27,0,0,1-.14-0.36,3.92,3.92,0,0,1-.18-0.94,4.47,4.47,0,0,1,.14-1.38,4.29,4.29,0,0,1,.77-1.53,3.74,3.74,0,0,1,.64-0.65,3.48,3.48,0,0,1,.74-0.48,3.38,3.38,0,0,1,.76-0.26,2.77,2.77,0,0,1,.69-0.08,2.17,2.17,0,0,1,.56,0,3.35,3.35,0,0,1,.42.11,2.13,2.13,0,0,1,.35.14,1,1,0,0,1,.4,1.34,1,1,0,0,1-.12.18l-0.15.18a2.73,2.73,0,0,1-.22.22c-0.13.13-.33,0.26-0.51,0.43a2.7,2.7,0,0,0-.28.24c-0.08.1-.19,0.15-0.26,0.24s-0.17.14-.24,0.23a2.33,2.33,0,0,0-.24.23,4.66,4.66,0,0,0-.49.57c-0.16.22-.31,0.46-0.45,0.68l-0.34.57a1.65,1.65,0,0,0-.14.22A0.85,0.85,0,0,1,967.3,658Z"/><path class="cls-7" d="M809.6,259.56c0,8.06,28.33,14.1,45.54,14.1,0.15,15.07.19,42.5,0.77,63.39,0.61,22-3.19,37.5-.77,55.26,3.34,24.55,130.13,18.68,127.57,4.6s-12.88-97.51-12.88-110.14c0-5.15,1.22-21.47,1.22-21.47s26.29-4.93,26.29-14.92c0-25.15-8.23-42.51-14.83-68-3.83-14.79-26.95-19.18-41.41-23.78-2.07-2.59-8.65-5.34-10-4.13,14.63,20.25,6.89,38.25-3.75,47.5-36.24-6.64-48.74-34-44-48.77-0.71-2.26-7.21.07-8.19,2.2-17.21,2.84-43.49,11.5-48.09,30.37C819.79,215.43,811.38,230.54,809.6,259.56Z"/><path class="cls-3" d="M967.69,207.64s5.11,32.67,3.35,57.64"/><path class="cls-3" d="M866.13,219.58c-0.71,18.27-6.12,34.86-6.76,47.8-0.23,4.68-1.54,6.27-5,6.27"/><path class="cls-3" d="M875.12,155.39c-5.9,35.66,39.46,53.44,54.34,55.81,11.22-11.14,24.38-26.55,11.64-52.61"/><path class="cls-3" d="M859.38,265.28c-3.2,4.23-50.3-4.31-49.21-12.57"/><path class="cls-3" d="M971.76,259.56c8.15,0,25.57-9.19,25.57-12.94"/><path class="cls-3" d="M854.4,384c5,28.44,127.42,20.27,127.42,6.63"/><polygon class="cls-8" points="901.42 133.65 942.3 123.59 940.92 130.5 902.07 141.75 901.42 133.65"/><polygon class="cls-8" points="901.42 120.93 938 137.83 933.71 143.95 899.44 128.26 901.42 120.93"/><path class="cls-6" d="M879.14,343.67l-0.46,0a0.56,0.56,0,0,0-.37.13,0.58,0.58,0,0,0-.09.43q0.16,2.53.79,7.57t0.79,7.57l0.06,1a3.74,3.74,0,0,1,.53-0.07,0.89,0.89,0,0,1,1.13.84v0.15l-0.62.48-1.76.17q-2.24.14-2.29-.63a0.63,0.63,0,0,1,.75-0.67h0.55c0.25,0,.37-0.23.34-0.63q-0.13-2-.61-6t-0.61-6l-0.12-2.65A14.16,14.16,0,0,0,877,344a1.94,1.94,0,0,1-.6.15,0.55,0.55,0,0,1-.65-0.58,0.66,0.66,0,0,1,.36-0.58,2.85,2.85,0,0,1,1-.4,10.53,10.53,0,0,1,1.6-.29,1.11,1.11,0,0,1,.77.16,0.65,0.65,0,0,1,.26.48,0.76,0.76,0,0,1-.14.51A0.55,0.55,0,0,1,879.14,343.67Z"/><path class="cls-6" d="M881.94,348.19l-0.12-4.77v-0.17q-0.08-1.29.49-1.33t1.54,2.32a127.46,127.46,0,0,1,4.72,14.19l0,0.13-0.46-9.05-0.48-7.68a0.78,0.78,0,0,1,.81-0.7q0.7,0,.76,1v0.15a1.76,1.76,0,0,0-.11.77l0.43,9.6,0.49,7.93a1.58,1.58,0,0,1-.17.79,0.62,0.62,0,0,1-.51.41q-0.55,0-2.46-5.21t-3.84-11.29l0.53,8.52q0.08,1.24.41,3.69t0.41,3.69a0.46,0.46,0,0,1-.27.42,1.54,1.54,0,0,1-.73.21,0.38,0.38,0,0,1-.47-0.38v-1.87q-0.08-1.34-.44-4.35t-0.39-3.68Z"/><path class="cls-6" d="M891.74,360.92a0.57,0.57,0,0,1,.54-0.73,2.14,2.14,0,0,1,.78.15,2.23,2.23,0,0,0,.84.15,1.11,1.11,0,0,0,.73-0.49,3.13,3.13,0,0,0,.56-1.14,7.43,7.43,0,0,0,.32-2.46,8,8,0,0,0-.53-2.3,15.08,15.08,0,0,0-1.07-2.27l-1.24-2.11a10.49,10.49,0,0,1-1.6-4.66,4,4,0,0,1,1.08-3.26,2.35,2.35,0,0,1,1.57-.71,1.79,1.79,0,0,1,.93.2,1.43,1.43,0,0,1,.66.64l-0.41.59a1.76,1.76,0,0,1-1-.19,1.28,1.28,0,0,0-.81.51,2.72,2.72,0,0,0-.53,1.88,8.12,8.12,0,0,0,.41,2.12,9.52,9.52,0,0,0,.81,1.82l1,1.73q0.55,0.93,1,1.79a10.22,10.22,0,0,1,1.25,4.37,6.44,6.44,0,0,1-.65,3.27,3.46,3.46,0,0,1-1,1.28,2.78,2.78,0,0,1-1.55.57,3.25,3.25,0,0,1-1.49-.19A0.78,0.78,0,0,1,891.74,360.92Z"/><path class="cls-6" d="M901,345.53l0.16,3.35,0.6,6,0.51,4.65q0.08,1.27-.67,1.31a0.67,0.67,0,0,1-.66-0.37,2,2,0,0,1-.26-0.89l-0.05-4.16q-0.08-1.34-.43-4t-0.43-4l-0.1-2.27a7.51,7.51,0,0,0-.39-2.41l-1.4.23a1,1,0,0,1-.6-0.16,0.61,0.61,0,0,1-.29-0.49,0.72,0.72,0,0,1,.59-0.56,6.89,6.89,0,0,1,1.5-.42,24.16,24.16,0,0,1,2.61-.34,0.89,0.89,0,0,1,.59.17,0.65,0.65,0,0,1,.29.51,0.61,0.61,0,0,1-.2.51,0.87,0.87,0,0,1-.55.22h-0.93l-0.27,0A27.29,27.29,0,0,1,901,345.53Z"/><path class="cls-6" d="M905.08,359.64l-0.85-15.22-0.2-3.19a0.59,0.59,0,0,1,.1-0.44,1.08,1.08,0,0,1,.66-0.17,2.55,2.55,0,0,1,1.11.19,2.86,2.86,0,0,1,1,.63,5.16,5.16,0,0,1,.7,1,5.41,5.41,0,0,1,.65,2.31,8.16,8.16,0,0,1-.45,2.94l-0.26.77-0.22.69a18.16,18.16,0,0,0,1.29,4.95q0.4,1,1.12,2.79t0.9,2.24v0.06a1.46,1.46,0,0,1-.14,1,0.72,0.72,0,0,1-.42.17,1.24,1.24,0,0,1-1-.64v-0.09a32.68,32.68,0,0,0-2.07-7q-0.82-2.14-1.15-3.17l0.63,10.23a1.13,1.13,0,0,1-.1.62,0.56,0.56,0,0,1-.49.25,0.7,0.7,0,0,1-.56-0.17,0.76,0.76,0,0,1-.21-0.5v-0.2Zm0.33-17.87,0.19,5.31q0,0.8.1,1.19a7.62,7.62,0,0,0,.81-1.05l0.27-2.27a2.1,2.1,0,0,0,0-.41,5.76,5.76,0,0,0-.35-1.49A1.63,1.63,0,0,0,905.41,341.77Z"/><path class="cls-6" d="M910.36,345.89l-0.23-4.06a0.78,0.78,0,0,1-.22-0.52,0.81,0.81,0,0,1,.19-0.57,0.7,0.7,0,0,1,.51-0.27q0.94-.06,1.05,1.79l0.8,9a5.48,5.48,0,0,1,.35,1.37c0.11,0.69.18,1.22,0.21,1.61a6.93,6.93,0,0,0,.27,1.41,12.41,12.41,0,0,0,.61,1.67,4.56,4.56,0,0,0,1,1.42,1.52,1.52,0,0,0,1.08.54,1,1,0,0,0,.72-0.28,1.26,1.26,0,0,0,.29-0.69,7.15,7.15,0,0,0,.05-1.44l-0.31-5.07q0-.82-0.32-2.44t-0.32-2.44v-0.18l-0.14-1.5-0.47-4.44a0.59,0.59,0,0,1,.29-0.53,1.23,1.23,0,0,1,.65-0.24l0.67,0.57,0,0.43-0.09,1.6q0.13,2.17.64,6.51t0.6,5.88q0.1,1.54.08,2.06a6.67,6.67,0,0,1-.13,1.11,3,3,0,0,1-.36,1,2.16,2.16,0,0,1-1.84,1,2.93,2.93,0,0,1-2.63-1.22,9.32,9.32,0,0,1-1.64-3.43,31.43,31.43,0,0,1-.85-4.21Q910.52,348.59,910.36,345.89Z"/><path class="cls-6" d="M920.12,353.56l-0.71-10q-0.1-1.69-.17-3.36l0.7-.45q0.78,0,2,4,1,3.28,1.67,5.91t0.72,2.85q0.13-.85.47-3t0.51-3.39a45.15,45.15,0,0,0,.49-6.25v-0.15a0.8,0.8,0,0,1,.29-0.55,0.91,0.91,0,0,1,.54-0.24,0.6,0.6,0,0,1,.49.18,0.68,0.68,0,0,1,.21.44q0.19,3.1.81,9.29t0.81,9.29a1.79,1.79,0,0,1-.26,1.1,0.87,0.87,0,0,1-.61.5c-0.42,0-.65-0.3-0.7-1l-0.78-10.92-0.08-1.32q-0.11,1-.58,3.55a38.71,38.71,0,0,0-.56,3.88V354c0,0.07,0,.23,0,0.49s0,0.47-.07.63a4.5,4.5,0,0,1-.13.56,0.83,0.83,0,0,1-.76.66q-0.93.06-1.07-2.36a27.66,27.66,0,0,0-1.58-6.63q-0.71-2.12-.93-2.87,0.08,2.08.14,3.13l0.88,10.66a1.37,1.37,0,0,1-.33,1,0.94,0.94,0,0,1-.93-0.37,2.44,2.44,0,0,1-.31-1.15Z"/><path class="cls-6" d="M933,349.12h-0.65a0.65,0.65,0,0,0-.52.22l0.5,8,1.44-.17c1-.06,1.5.14,1.53,0.59v0.09a1.19,1.19,0,0,1-.57.58,2.41,2.41,0,0,1-.75.26c-0.22,0-.5.06-0.85,0.08l-0.81.05a1.34,1.34,0,0,1-1.21-.31,1,1,0,0,1-.13-0.46L930,343a7.43,7.43,0,0,0-.26-1.31,7.36,7.36,0,0,1-.26-1.32V340.3a5.2,5.2,0,0,1,.59-1L932,339a1.56,1.56,0,0,1,.81.19,0.7,0.7,0,0,1,.44.59q0,0.77-1.13.85l-0.75,0-0.28,0,0.47,4.27q0,0.52,0,1.52c0,0.67,0,1.15,0,1.45l0.37-.11a3.49,3.49,0,0,1,.82-0.19,0.77,0.77,0,0,1,.54.18,0.69,0.69,0,0,1,.27.51,0.87,0.87,0,0,1-.16.56A0.61,0.61,0,0,1,933,349.12Z"/><path class="cls-6" d="M935.67,344.85l-0.12-4.78v-0.16q-0.08-1.29.49-1.33t1.54,2.32a127.52,127.52,0,0,1,4.72,14.2l0,0.13-0.46-9.05-0.48-7.68a0.78,0.78,0,0,1,.81-0.7q0.7,0,.76,1v0.15a1.76,1.76,0,0,0-.11.77l0.43,9.6,0.49,7.93a1.57,1.57,0,0,1-.17.79,0.62,0.62,0,0,1-.51.41q-0.55,0-2.46-5.21t-3.84-11.29l0.53,8.51q0.08,1.24.41,3.69t0.41,3.69a0.46,0.46,0,0,1-.27.42,1.55,1.55,0,0,1-.73.2,0.38,0.38,0,0,1-.47-0.38v-1.87q-0.08-1.34-.44-4.35c-0.24-2-.37-3.23-0.39-3.68Z"/><path class="cls-6" d="M948.13,342.6l0.16,3.35,0.6,6,0.51,4.65q0.08,1.27-.67,1.31a0.67,0.67,0,0,1-.66-0.37,2,2,0,0,1-.26-0.89l-0.05-4.16q-0.08-1.34-.43-4t-0.43-4l-0.1-2.27a7.51,7.51,0,0,0-.39-2.4l-1.4.23a1,1,0,0,1-.6-0.16,0.61,0.61,0,0,1-.29-0.49,0.72,0.72,0,0,1,.59-0.56,6.79,6.79,0,0,1,1.5-.42,23.71,23.71,0,0,1,2.61-.34,0.9,0.9,0,0,1,.59.17,0.65,0.65,0,0,1,.29.51,0.61,0.61,0,0,1-.2.51,0.87,0.87,0,0,1-.55.22H948l-0.27,0A27.3,27.3,0,0,1,948.13,342.6Z"/><path class="cls-6" d="M957.15,357.15a0.66,0.66,0,0,1-.84-0.62l-0.21-3.38a3.69,3.69,0,0,0-1.35-.35,15.26,15.26,0,0,0-1.72-.12,4.39,4.39,0,0,0-.36,1.34c-0.08.58-.16,1.17-0.25,1.76a4.54,4.54,0,0,1-.4,1.41,1,1,0,0,1-1.17-.45,25.18,25.18,0,0,0,.83-5.25q0.51-4.73.86-7.4a37,37,0,0,1,.83-4.51q0.48-1.84,1-1.87a1.34,1.34,0,0,1,.85.18q0.06,0.93.82,5t0.83,5.25q0.07,1.2.52,4t0.53,4.16A0.77,0.77,0,0,1,957.15,357.15Zm-1.62-8.4q-0.37-2.29-.69-4.36c-0.21-1.38-.32-2.22-0.34-2.51a4.34,4.34,0,0,1,0-.5q-0.38.45-.88,4.72t-0.48,5.41a7.21,7.21,0,0,0,1.82.18,4.91,4.91,0,0,0,1-.14Q955.91,351,955.54,348.75Z"/><path class="cls-6" d="M960.6,347.09l0.08,0.82V348q0.24,2.25.52,6.76l0,0.66,2-.12a1,1,0,0,1,.6.69,0.84,0.84,0,0,1-.16.58,0.53,0.53,0,0,1-.38.25,1.54,1.54,0,0,1-.47-0.06,2.1,2.1,0,0,1-.49.08h-0.84a0.83,0.83,0,0,1-.64.36,1,1,0,0,1-.69-0.21,0.76,0.76,0,0,1-.31-0.56l0.09-1.15q-0.18-3-.81-8.83t-0.81-8.83a0.46,0.46,0,0,1,.17-0.4,0.78,0.78,0,0,1,1,0,0.7,0.7,0,0,1,.27.52Z"/><path class="cls-5" d="M855.47,658.7c-13.5-.44-18.05,14.81-18.05,14.81s15,12.55,25.17,12.55,21.91-10.92,22.18-15.49-4.27-10.85-9.46-11.9S866.17,659.05,855.47,658.7Z"/><path class="cls-6" d="M884.76,670.58c2.4,4.18-11.8,15.49-22.18,15.49s-27.72-4.14-26.93-12.27c0.21-2.11.55-5.18,4.92-6.28-1.15,2.53.62,3.87,1.54,1.24,1.42-4.06,14.71-3,15.07,1.94,0.18,2.58,1.51,7.55,9.68,7.39S883.61,674.82,884.76,670.58Z"/><path class="cls-6" d="M866.86,673.51s4.24-6.46,7-6.27,2.56-3.79,2.56-3.79,4,7.44,0,7.2S866.86,673.51,866.86,673.51Z"/><path class="cls-6" d="M864.28,657.3a0.3,0.3,0,0,1,.1-0.06l0.3-.16a4.37,4.37,0,0,1,1-.34,5.28,5.28,0,0,1,1.52-.06,6.09,6.09,0,0,1,1.67.43,7.8,7.8,0,0,1,.77.39,5.82,5.82,0,0,1,.67.48,4.88,4.88,0,0,1,1,1.07,3.7,3.7,0,0,1,.45.91,2.52,2.52,0,0,1,.11.38,1,1,0,0,1-1.14,1.15l-0.12,0a2.83,2.83,0,0,1-.34-0.09c-0.21-.06-0.47-0.19-0.78-0.3-0.16-.06-0.3-0.15-0.46-0.22a3.9,3.9,0,0,1-.49-0.24c-0.33-.16-0.65-0.35-1-0.52s-0.66-.33-1-0.46-0.63-.26-0.9-0.37L865,659l-0.18-.07a0.13,0.13,0,0,0-.07,0,0.83,0.83,0,0,1-.68-1.27Z"/><path class="cls-6" d="M857.74,657.57l0.11,0,0.34,0a4.36,4.36,0,0,1,1.09,0,5.27,5.27,0,0,1,1.44.48,6.08,6.08,0,0,1,1.41,1,7.72,7.72,0,0,1,.58.64,5.9,5.9,0,0,1,.46.68,4.9,4.9,0,0,1,.52,1.34,3.7,3.7,0,0,1,.1,1,2.58,2.58,0,0,1,0,.39,1,1,0,0,1-1.48.68l-0.11-.06a2.83,2.83,0,0,1-.29-0.21c-0.18-.13-0.37-0.34-0.62-0.56s-0.23-.24-0.36-0.37a3.92,3.92,0,0,1-.37-0.39c-0.25-.27-0.49-0.56-0.74-0.83s-0.5-.54-0.75-0.78-0.5-.46-0.72-0.66l-0.56-.47a0.77,0.77,0,0,1-.14-0.13,0.12,0.12,0,0,0-.06,0,0.83,0.83,0,0,1-.19-1.43Z"/><path class="cls-6" d="M866.7,662.89l-0.29-.21c-0.17-.12-0.42-0.39-0.67-0.55l-0.81-.65-0.9-.68c-0.61-.42-1.18-0.81-1.65-1.16-0.23-.18-0.44-0.32-0.59-0.45a0.49,0.49,0,0,1-.19-0.19,0.85,0.85,0,1,1-.08-1.69s0.19-.09.46-0.17a3.61,3.61,0,0,1,1.11-.13,4.54,4.54,0,0,1,.73.09,4,4,0,0,1,.78.23,5.52,5.52,0,0,1,1.48.9,6.74,6.74,0,0,1,1.13,1.25l0.39,0.65c0.11,0.22.2,0.45,0.29,0.64a3.64,3.64,0,0,1,.24.92c0,0.22,0,.36,0,0.36A0.94,0.94,0,0,1,866.7,662.89Z"/></svg>