<svg id="Shadow" xmlns="http://www.w3.org/2000/svg" viewBox="0 0 1792 768"><defs><style>.cls-1,.cls-10,.cls-3,.cls-8{fill:#24265b;}.cls-1{opacity:0.1;}.cls-2{fill:#eeb9a9;}.cls-10,.cls-2,.cls-3,.cls-5,.cls-6,.cls-7,.cls-9{stroke:#24265b;}.cls-2,.cls-3,.cls-5,.cls-6,.cls-7,.cls-9{stroke-linecap:round;stroke-linejoin:round;}.cls-2,.cls-3,.cls-5,.cls-6,.cls-9{stroke-width:3px;}.cls-4,.cls-5,.cls-7{fill:#fff;}.cls-4{opacity:0.63;}.cls-6{fill:#6a29cc;}.cls-7{stroke-width:2.55px;}.cls-9{fill:none;}</style></defs><title>topic</title><path class="cls-1" d="M867,665c-14.84,0-178.68,12.77-178.68,26.35s61.23,34,98.35,34,64.22-12.66,84-12.66,84.07,18.5,107.36,18.5,37.87-25.8,48.53-23.91,117.49,22,117.49,6.38-74.25-18.63-84.72-23.37-2.87-6.29-10.22-12.4-75-16-88.79-16-42.65,17.23-55.56,17.23S881.88,665,867,665Z"/><path class="cls-2" d="M976,418.49c-7.53-70.4-7.53-97.42-6.16-130.23,1.41,6.14,18.84,7.93,20.38-4.52s-2.84-99.56-20-112.6c-8.88-6.75-37-8.65-40.65-19.32a40.86,40.86,0,0,1-1.34-5.36,32.42,32.42,0,0,1-10.13,1.33c-7.17,0-21.4-8.49-27.42-14.87v1.88c0,15-11.79,25-25.06,28.49-15.57,4.12-28.35,13.32-33.49,28.87s-19.81,73.1-19.81,113.53c0,10.41,29.34,11.88,28.84-2.79-0.32-9.24,13.63-40.08,18.21-56.13,3.56,28.44,19.6,50.05,9.36,109.51C861.35,399.22,979,446.95,976,418.49Z"/><path class="cls-3" d="M965,654.13s7.68-79.68,10.12-117.66c0.69-10.78,3.95-89.52.9-118-1.52-14.21-2.73-26.65-3.69-37.73-5.2,8.22-84.49,12.84-106.21.43C865,410,871,428.52,870.43,431.49c-0.68,3.76-5.72,57.71-7.44,120.61-0.89,32.36,4.45,103.46,4.06,105.75l12.07,0.28c1.8-20,7.09-66.93,11.32-105.11,4.64-41.82,26.61-111.68,28.12-117.46a78.68,78.68,0,0,1,8.92-1.43c1.25,4.65,10,46.83,16.12,93.68S953,655.92,953,655.92l7,0.36Z"/><path class="cls-4" d="M895.13,93.63C899,90.46,919.34,90,923.36,90c5.53,0,19.68.11,22.73,1.93,3.92,2.33,5.27,16.24-2,22.21-4.49,3.67-8.37,3.25-10.77,1.73-0.08-3.3-1.54-4.08-2.8-5.12-2.59-2.24-4.65-4.48-5.83-4.48-2.79,0-9.64,15.51-24,12.4-8.8-1.91-14.4-11.24-13.36-17.75C888,96.84,893.86,94.66,895.13,93.63Z"/><path class="cls-5" d="M888.63,145.39c-2.26,13.66,18.46,30,31.52,35.23,9-8.77,12.56-16.14,10.74-25.23,7,13.2,14.76,19.54,14.76,19.54l-9.48,78-71.24-61.45,13-30.56S882.38,157.44,888.63,145.39Z"/><path class="cls-6" d="M911.41,184.89c2.93-3.16,13-3.77,15.33-1.05,1.55,1.83,2.46,11.25.67,14.56s-8.52,5-11.56,3.08C912.12,199.18,908.48,188.05,911.41,184.89Z"/><path class="cls-6" d="M916.46,201.32c0.64-2.55,9.48-4,11-2.2,2.72,3.2,8.83,18.83,8.74,23.61-1,5.83-3.92,16.84-3.81,24.4-1.3-5.87-10.81-14.21-18.59-21.25C911.89,219.08,915.28,206.06,916.46,201.32Z"/><path class="cls-7" d="M989.06,652.62c-10.44-1.74-26.74,3.78-26.74,3.78-3.92.8-13.62-2-14.26,1.76s3.49,8.84,3.49,8.84l29,10.54,20.31-9.08S999.5,654.37,989.06,652.62Z"/><path class="cls-8" d="M950.1,664.91c-2.68,2.32,4.64,9.29,29.92,14.38,11.78,2.37,25.49-12.06,20.11-14.65-0.41,3.66-2-3-5.17-4.13s-9.47,2-8.47,5.31,0.29,7.82-4,7.91S950.74,668.65,950.1,664.91Z"/><path class="cls-8" d="M953.26,660.51s1,6.88,5.19,5.52c7.38-2.37,19.32,3.87,19.32,3.87s-13.13-9.43-17.44-7.94A6.84,6.84,0,0,1,953.26,660.51Z"/><path class="cls-8" d="M958.44,658.41a0.22,0.22,0,0,1,0-.1l0-.3a3.63,3.63,0,0,1,.28-0.91,4.37,4.37,0,0,1,.74-1.09,5,5,0,0,1,1.17-.93,6.25,6.25,0,0,1,.67-0.32,4.56,4.56,0,0,1,.68-0.2,3.86,3.86,0,0,1,1.23,0,3,3,0,0,1,.85.22,2,2,0,0,1,.31.15,1,1,0,0,1,.33,1.44l-0.11.14-0.1.11a2.34,2.34,0,0,1-.23.21c-0.14.13-.35,0.25-0.57,0.41s-0.24.14-.36,0.22a2.55,2.55,0,0,1-.38.21c-0.26.14-.53,0.25-0.79,0.37l-0.77.36c-0.26.11-.48,0.24-0.69,0.34l-0.53.27a0.44,0.44,0,0,1-.15.06,0.08,0.08,0,0,0-.05,0,0.78,0.78,0,0,1-1.26-.11Z"/><path class="cls-8" d="M962.11,657.53a0.22,0.22,0,0,1,0-.1l0-.3a3.61,3.61,0,0,1,.28-0.91,4.38,4.38,0,0,1,.74-1.09,5,5,0,0,1,1.17-.93,6.26,6.26,0,0,1,.67-0.32,4.57,4.57,0,0,1,.68-0.2,3.86,3.86,0,0,1,1.23,0,3,3,0,0,1,.85.22,2.05,2.05,0,0,1,.31.15,1,1,0,0,1,.33,1.44l-0.11.14-0.1.11a2.38,2.38,0,0,1-.23.21c-0.14.13-.35,0.25-0.57,0.41s-0.24.14-.36,0.22a2.55,2.55,0,0,1-.38.21c-0.26.14-.53,0.25-0.79,0.37l-0.77.36c-0.26.11-.48,0.24-0.69,0.34l-0.53.27a0.44,0.44,0,0,1-.15.06,0.08,0.08,0,0,0-.05,0,0.78,0.78,0,0,1-1.26-.11Z"/><path class="cls-8" d="M970.65,657.88a2.29,2.29,0,0,1-.14-0.36,3.92,3.92,0,0,1-.18-0.94,4.47,4.47,0,0,1,.14-1.38,4.29,4.29,0,0,1,.77-1.53,3.74,3.74,0,0,1,.64-0.65,3.48,3.48,0,0,1,.74-0.48,3.38,3.38,0,0,1,.76-0.26,2.75,2.75,0,0,1,.68-0.08,2.16,2.16,0,0,1,.56,0,3.35,3.35,0,0,1,.42.11,2.13,2.13,0,0,1,.35.14,1,1,0,0,1,.27,1.52l-0.15.18a2.7,2.7,0,0,1-.22.22c-0.13.13-.33,0.26-0.51,0.43a2.68,2.68,0,0,0-.28.24c-0.08.1-.19,0.15-0.26,0.24s-0.17.14-.24,0.23a2.31,2.31,0,0,0-.24.23,4.69,4.69,0,0,0-.49.57c-0.16.22-.31,0.46-0.45,0.68l-0.34.57a1.64,1.64,0,0,0-.14.22A0.85,0.85,0,0,1,970.65,657.88Z"/><path class="cls-8" d="M967.3,658a2.26,2.26,0,0,1-.14-0.36,3.92,3.92,0,0,1-.18-0.94,4.47,4.47,0,0,1,.14-1.38,4.29,4.29,0,0,1,.77-1.53,3.74,3.74,0,0,1,.64-0.65,3.48,3.48,0,0,1,.74-0.48,3.38,3.38,0,0,1,.76-0.26,2.75,2.75,0,0,1,.69-0.08,2.16,2.16,0,0,1,.56,0,3.31,3.31,0,0,1,.42.11,2.13,2.13,0,0,1,.35.14,1,1,0,0,1,.4,1.34,1,1,0,0,1-.12.18l-0.15.18a2.73,2.73,0,0,1-.22.22c-0.13.13-.33,0.26-0.51,0.43a2.67,2.67,0,0,0-.28.24c-0.08.1-.19,0.15-0.26,0.24s-0.17.14-.24,0.23a2.31,2.31,0,0,0-.24.23,4.65,4.65,0,0,0-.49.57c-0.16.22-.31,0.46-0.45,0.68l-0.34.57a1.65,1.65,0,0,0-.14.22A0.85,0.85,0,0,1,967.3,658Z"/><path class="cls-5" d="M809.6,288.26c0,8.06,29,9.25,46.22,9.25,0,10.41.91,17.79,4.44,38.38,3.47,20.18-11.91,80.59-5.12,145.54,2.57,24.64,130.13,18.68,127.57,4.6-1.18-6.48-.6-59.46-3.3-102-3.17-49.95-9.58-90.43-9.58-97.24,0-5.15.93-5.52,0.93-5.52S997,276.31,997,266.32c0-25.15-7.94-58.46-14.53-84-3.83-14.79-26.95-19.18-41.41-23.78-2.07-2.59-8.65-5.34-10-4.13,19.59,35.41.36,70.44,1.42,93.57-1.47-18.34-61.38-48.19-49.19-94.83-0.71-2.26-7.21.07-8.19,2.2-17.21,2.84-43.49,11.5-48.09,30.37C819.79,215.43,811.38,259.24,809.6,288.26Z"/><path class="cls-9" d="M967.69,207.64s4.81,48.63,3.06,73.59"/><path class="cls-9" d="M866.84,231.38a462.87,462.87,0,0,0-6.4,59.85c-0.23,4.68-1.54,6.27-5,6.27"/><path class="cls-9" d="M934.61,497.87c11.5-63.38,1.86-211.12-2.12-249.84"/><path class="cls-9" d="M933.29,240.32S953.5,207.84,956,202.19c1.66-3.79-9.16-13.51-7.24-15.17s9.28-5.52,7.61-8.06a168.45,168.45,0,0,0-15.25-20.37"/><path class="cls-9" d="M928.51,239.24s-42-26.21-48.72-33.1c-4.1-4.19,5.3-12.76,2.65-13.7s-11.94.45-12.76-5c-1.12-7.35,0-22.28,5.43-32.11"/><path class="cls-9" d="M895.13,93.63C899,90.46,919.34,90,923.36,90c5.53,0,19.68.11,22.73,1.93,3.92,2.33,5.41,17.46-2.74,22.21s-15.89-7.87-18.68-7.87-6.46,12.92-20.79,9.81S891.85,96.3,895.13,93.63Z"/><path class="cls-9" d="M896.47,92.87s-5.1,2.24-7.29,4.47c-4.57,4.65-.33,18.61,9.43,20.94s16.25-1.45,18.52-4.08"/><path class="cls-9" d="M932.8,116.79a8.57,8.57,0,0,0,10.54-2.63"/><path class="cls-10" d="M887.47,100.15s-9.4-4.19-10-8c-2.78,1.77.9,8.83,0.9,8.83s6.08,11.61,13.54,12.54C886.65,107.88,887.47,100.15,887.47,100.15Z"/><path class="cls-5" d="M920.16,180.62c3.16-3.58,12.58-23.57,8.08-34.15,5.05,0.9,7.35,10.72,8.49,21.29,1.11,10.25-7.06,24.88-8.49,21C926.3,183.47,920.16,180.62,920.16,180.62Z"/><path class="cls-5" d="M910.52,191.51a31.13,31.13,0,0,1,9.63-10.89s-32.21-13.55-30-40.66c-2.85-.46-6.23,8.83-7.61,12.93C875.73,173.39,908.17,195.81,910.52,191.51Z"/><path class="cls-5" d="M855.47,403.91c1.83,3.73,39.11,7.64,43,2.67s3.79-35.38,3.74-40.71c0-4.94-39.38-6.25-42.63-3.92S853.63,400.18,855.47,403.91Z"/><path class="cls-5" d="M861.16,347c0,6.22,36.1,7.47,41.08,6,2.71-.78,3.08,11.85,0,12.8-6.93,2.13-37.88,0-42.63-3.92C856.27,359.17,856.36,347,861.16,347Z"/><path class="cls-5" d="M967.69,358.58s0.89,36.62,3.44,38.22,7.41,0.4,8.89-1.76-0.58-37.24-2.75-38.72S967.69,358.58,967.69,358.58Z"/><path class="cls-5" d="M976.41,347c-2.54,1.6-6.9,2.31-8.72,2.49s-1.91,9.07,0,9.07,6.89,0,9.59-2.26C978.68,355.15,978.84,347,976.41,347Z"/><path class="cls-7" d="M855.47,658.7c-13.5-.44-18.05,14.81-18.05,14.81s15,12.55,25.17,12.55,21.91-10.92,22.18-15.49-4.27-10.85-9.46-11.9S866.17,659.05,855.47,658.7Z"/><path class="cls-8" d="M884.76,670.58c2.4,4.18-11.8,15.49-22.18,15.49s-27.72-4.14-26.93-12.27c0.21-2.11.55-5.18,4.92-6.28-1.15,2.53.62,3.87,1.54,1.24,1.42-4.06,14.71-3,15.07,1.94,0.18,2.58,1.51,7.55,9.68,7.39S883.61,674.82,884.76,670.58Z"/><path class="cls-8" d="M866.86,673.51s4.24-6.46,7-6.27,2.56-3.79,2.56-3.79,4,7.44,0,7.2S866.86,673.51,866.86,673.51Z"/><path class="cls-8" d="M864.28,657.3a0.3,0.3,0,0,1,.1-0.06l0.3-.16a4.36,4.36,0,0,1,1-.34,5.27,5.27,0,0,1,1.52-.06,6.09,6.09,0,0,1,1.67.43,7.76,7.76,0,0,1,.77.39,5.82,5.82,0,0,1,.67.48,4.88,4.88,0,0,1,1,1.07,3.69,3.69,0,0,1,.45.91,2.52,2.52,0,0,1,.11.38,1,1,0,0,1-1.14,1.15l-0.12,0a2.81,2.81,0,0,1-.34-0.09c-0.21-.06-0.47-0.19-0.78-0.3-0.16-.06-0.3-0.14-0.46-0.22a3.87,3.87,0,0,1-.49-0.24c-0.33-.16-0.65-0.35-1-0.52s-0.66-.33-1-0.46-0.63-.26-0.9-0.37L865,659l-0.18-.07a0.13,0.13,0,0,0-.07,0,0.83,0.83,0,0,1-.68-1.27Z"/><path class="cls-8" d="M857.74,657.57l0.11,0,0.34,0a4.36,4.36,0,0,1,1.09,0,5.27,5.27,0,0,1,1.44.48,6.08,6.08,0,0,1,1.41,1,7.71,7.71,0,0,1,.58.64,5.88,5.88,0,0,1,.46.68,4.9,4.9,0,0,1,.52,1.34,3.7,3.7,0,0,1,.1,1,2.58,2.58,0,0,1,0,.39,1,1,0,0,1-1.48.68l-0.11-.06a2.85,2.85,0,0,1-.29-0.21c-0.18-.13-0.37-0.34-0.62-0.56s-0.23-.24-0.36-0.37a3.89,3.89,0,0,1-.37-0.39c-0.25-.27-0.49-0.56-0.74-0.83s-0.5-.54-0.75-0.78-0.5-.46-0.72-0.66l-0.56-.47a0.78,0.78,0,0,1-.14-0.13,0.13,0.13,0,0,0-.06,0,0.83,0.83,0,0,1-.19-1.43Z"/><path class="cls-8" d="M866.7,662.89l-0.29-.21c-0.17-.12-0.42-0.39-0.67-0.55l-0.81-.65-0.9-.68c-0.61-.42-1.18-0.81-1.65-1.16-0.23-.18-0.44-0.32-0.59-0.45a0.49,0.49,0,0,1-.19-0.19,0.85,0.85,0,0,1-.08-1.69s0.19-.09.46-0.17a3.62,3.62,0,0,1,1.11-.13,4.52,4.52,0,0,1,.73.09,4,4,0,0,1,.78.23,5.52,5.52,0,0,1,1.48.9,6.74,6.74,0,0,1,1.13,1.25l0.39,0.65c0.11,0.22.2,0.45,0.29,0.64a3.64,3.64,0,0,1,.24.92c0,0.22,0,.36,0,0.36A0.94,0.94,0,0,1,866.7,662.89Z"/></svg>