<svg width="68" height="68" viewBox="0 0 68 68" fill="none" xmlns="http://www.w3.org/2000/svg">
<path opacity="0.8" d="M34 0.666656C15.6 0.666656 0.666656 15.6 0.666656 34C0.666656 52.4 15.6 67.3333 34 67.3333C52.4 67.3333 67.3333 52.4 67.3333 34C67.3333 15.6 52.4 0.666656 34 0.666656ZM34 60.6667C19.3 60.6667 7.33332 48.7 7.33332 34C7.33332 19.3 19.3 7.33332 34 7.33332C48.7 7.33332 60.6667 19.3 60.6667 34C60.6667 48.7 48.7 60.6667 34 60.6667ZM46.9333 21.6333L27.3333 41.2333L21.0667 34.9667C19.7667 33.6667 17.6667 33.6667 16.3667 34.9667C15.0667 36.2667 15.0667 38.3667 16.3667 39.6667L25 48.3C26.3 49.6 28.4 49.6 29.7 48.3L51.6667 26.3333C52.9667 25.0333 52.9667 22.9333 51.6667 21.6333C50.3667 20.3333 48.2333 20.3333 46.9333 21.6333Z" fill="#6D70C5"/>
</svg>
