<svg width="324" height="107" viewBox="0 0 324 107" fill="none" xmlns="http://www.w3.org/2000/svg">
<mask id="path-1-outside-1" maskUnits="userSpaceOnUse" x="0" y="-1" width="324" height="73" fill="black">
<rect fill="white" y="-1" width="324" height="73"/>
<path d="M22.1797 20.1097C21.5908 22.2172 21.8853 22.4132 20.4132 24.4227C18.4504 24.0796 17.9107 24.3737 16.4386 22.4622C16.6839 20.7959 15.6044 20.4038 14.6721 19.3256C12.5621 19.3746 11.5317 21.5801 10.5012 23.1974C9.96144 26.6281 11.6298 26.6772 14.0342 26.7262C15.6044 26.7262 17.6653 26.3341 19.0883 28.2945C20.4132 29.5688 22.5722 31.2351 21.2964 34.5679C21.3455 36.3322 20.8548 38.0476 19.9716 39.5179C18.9902 41.1843 17.6162 42.6056 16.2914 43.4388C13.7888 44.1739 11.3354 43.3898 9.27447 42.1155C7.90054 41.2333 6.62474 40.1551 5.64335 39.1258L5.34894 36.9204C5.54521 36.3322 5.79056 35.8421 6.33032 35.4501C7.11543 34.6659 9.12727 33.2936 10.6484 35.6951C11.4335 36.9204 13.2 37.7045 14.2795 37.5575C14.2305 37.6065 14.2305 37.7536 14.1814 37.9006C14.8684 37.2634 15.6044 35.9402 16.046 34.6659C16.5367 33.9307 15.31 32.4114 14.9665 31.7743C14.7702 31.5292 14.4758 31.4312 14.2305 31.4802L13.7398 31.4312C12.464 31.9213 10.7466 31.5292 9.2254 30.794C7.65519 30.0099 6.33032 28.8826 5.93777 28.1965C4.95638 26.3341 4.80918 24.5207 5.20173 22.8053C5.64335 20.8939 6.72287 19.0315 7.90054 17.4141C9.02913 15.9438 10.5503 14.6205 12.6603 14.1304C14.4758 13.5423 16.3404 13.9344 17.9107 14.8656C19.7753 15.9928 21.3455 17.9043 22.1797 20.1097ZM42.3682 35.401C41.4358 36.1362 40.6507 38.6848 39.2277 39.1258C37.8047 40.2041 36.1364 40.8902 34.1736 40.6452C32.2599 40.7922 30.4934 40.3511 29.6102 39.1749C28.3344 38.0966 27.353 36.5773 26.4207 35.058C25.0958 32.9995 24.9486 29.9119 25.7828 27.3633C25.5374 26.5791 26.3716 25.795 26.8623 25.2068C27.5492 24.0796 28.5797 23.1484 29.8555 22.6583C30.5915 22.4132 31.3766 22.2662 32.2599 22.0211C34.8115 21.7271 36.8233 22.9523 39.0314 23.9326C43.2514 26.5791 42.6135 31.2351 42.3682 35.401ZM37.4122 30.402C36.3326 29.3727 36.4308 27.0692 33.1431 27.0692C32.4562 27.3633 31.0822 26.9712 31.0822 28.1475C30.7878 28.9316 30.7388 30.2549 30.6406 30.9901C30.886 32.4604 31.4748 33.6857 32.6034 34.7639C32.7997 34.8619 32.9959 34.9109 33.0941 35.058C34.3699 35.8421 36.4308 34.8619 37.1177 33.7837C37.8047 33.0975 37.5103 31.2351 37.4122 30.402ZM62.9492 29.2257V38.4397C62.9492 40.4981 63.7343 41.5274 61.7225 43.1447C59.7106 43.5858 59.3181 43.9289 58.3857 42.9487C56.7174 41.2333 53.7242 37.2144 51.8595 35.7441C51.1726 34.3228 51.1726 34.7149 51.0744 34.5679V35.058C51.0744 36.9204 51.8595 39.3219 51.9086 41.1353V42.0665C51.9577 43.1447 52.5956 43.8309 51.6142 44.7621C50.044 46.1834 48.7191 47.2126 46.9526 45.1051C46.8054 42.5076 46.5601 39.812 46.1675 37.1654C45.824 35.058 45.4315 32.9505 45.2843 30.8431C44.6954 29.9609 44.8426 29.0297 45.2843 28.1475L45.5787 27.8534C45.4315 24.0306 49.7496 24.4227 51.6633 26.8732C52.1049 27.4613 52.5465 28.0494 53.0863 28.4415C54.0186 30.1569 57.3062 33.3916 58.2876 35.058L57.7969 32.0193C57.846 29.7648 56.7665 27.8044 57.3062 25.6969C57.6006 24.2266 58.7292 23.7855 60.005 23.2954C64.5194 24.1776 62.5076 27.5103 62.9492 29.2257ZM87.652 15.1107C87.7011 16.2379 87.4067 17.5122 86.7688 17.9533C85.7383 18.5414 83.2358 19.3256 82.9904 21.0409C84.1681 21.9231 86.2781 23.4425 86.5234 24.8148C88.0446 26.6281 87.2104 29.1767 87.2104 31.2842C86.0327 32.7545 85.8365 34.7149 84.4625 36.0382C83.2849 38.4887 78.3779 39.4199 75.7282 39.4689C75.581 39.861 74.845 41.0373 74.6978 42.2135C74.5505 43.4878 75.0412 44.664 75.2375 45.1051C76.7587 45.3012 80.4389 46.4284 81.7637 47.2126C82.4016 47.6047 82.9414 48.1438 83.4321 48.6339C86.2781 51.7216 85.6893 56.3776 85.4439 60.1514C83.9718 62.6509 81.6656 65.4445 78.427 65.9347C77.6419 66.0817 77.004 65.9347 76.268 65.9347C75.4829 65.9347 74.845 66.0327 74.1089 65.8366C71.0666 65.1505 69.1529 62.1608 67.6809 59.8573C65.3746 56.0345 66.2088 48.3889 70.6741 46.1344C70.5269 45.2522 70.1343 43.7328 70.2815 42.2135C70.4287 40.8412 71.1157 39.4199 71.312 38.5867C68.6132 36.8223 66.8957 34.0778 66.6013 31.0881C66.5523 30.549 66.5032 29.9609 66.6013 29.4708C66.6995 28.7846 67.1411 28.0004 67.4355 27.3633C68.7113 24.5207 71.7536 19.8647 75.4338 19.4236C76.268 19.3256 79.3103 20.0607 79.9482 19.8157C79.9482 18.1003 81.7637 15.0126 82.647 14.1304C83.2358 13.4933 84.1681 13.1992 85.9837 13.3953C87.2595 13.5913 87.652 14.2775 87.652 15.1107ZM81.1258 28.5886C80.8314 27.3633 79.4084 26.2361 78.0345 26.138C77.4456 26.089 76.1698 25.5009 75.5319 25.5499C74.2561 26.7262 71.5573 28.8826 72.5878 30.794C72.9803 31.5782 74.1089 33.8327 74.894 34.0778C75.5319 33.9797 76.3661 33.9307 76.9549 34.0287C77.2003 34.0778 79.114 33.2446 79.4084 32.9995L80.4879 32.0193C81.6165 30.9901 81.5674 30.2059 81.1258 28.5886ZM79.8991 54.7112C78.8686 53.731 76.6605 50.2022 75.0412 50.2513C74.1089 50.3493 73.5201 50.9374 72.9313 51.2805C72.6859 51.8686 71.8027 54.7602 71.8517 55.3484C71.9008 56.3286 73.1275 58.387 73.9127 59.0242C74.1089 59.1222 74.9922 59.1222 75.2375 59.2202C77.1021 59.5143 78.5742 59.5143 79.7028 58.093C80.3898 57.2108 79.9972 55.6424 79.8991 54.7112ZM126.115 48.3889C124.741 49.4181 123.416 49.6631 121.846 48.3889C119.883 44.7131 120.718 44.272 119.442 40.6942C118.019 40.9883 113.21 40.8412 112.229 40.7922L111.787 41.4784L111.296 44.2229L111.395 44.8601C111.395 45.0071 111.198 45.0561 111.149 45.2032C111.051 45.6933 110.953 46.3304 110.708 47.2616C109.235 49.222 107.076 51.0354 105.604 47.6537L104.77 46.3794C104.721 45.6933 105.212 44.9091 105.457 44.517C105.457 44.37 105.506 44.321 105.555 44.2229L105.506 43.5858L105.752 42.9977L105.85 42.9487C105.653 42.0175 105.85 41.8704 106.095 40.8412C105.752 40.6942 105.212 40.5472 104.672 40.3511C103.936 40.1061 103.151 39.4689 103.004 39.1258C102.513 38.1456 102.758 36.8714 103.74 35.9402C104.132 35.5481 104.819 35.205 105.506 35.058C106.34 34.9109 107.125 35.009 107.469 35.058C108.156 32.6074 108.941 30.0589 109.53 27.1182C110.021 26.187 109.972 24.1776 110.56 22.6093C111.395 20.4038 111.002 19.9137 111.983 17.7572C111.689 15.8458 113.897 13.8364 115.124 13.1502C117.626 13.2973 117.97 14.2775 118.608 15.7478C119 17.4141 119.295 17.7572 119.982 18.1983C119.638 19.3256 120.472 20.4038 120.57 22.0702C122.092 25.0108 121.748 28.4415 123.122 31.4312C123.024 32.9995 124.005 34.2248 124.005 35.7931C124.889 37.9986 124.839 40.4981 125.821 42.6546C126.213 44.9091 127.391 45.6933 126.115 48.3889ZM118.215 35.254L117.97 33.8817L117.872 33.2446C117.381 30.549 116.547 26.3341 116.449 25.2068C116.056 24.3246 115.811 23.2954 115.811 22.2662C115.271 24.3737 113.995 29.2747 113.308 32.4114C113.21 32.8035 113.063 32.5094 112.965 32.9015C112.916 33.2446 113.161 33.4896 113.112 33.8327L112.867 35.303C113.455 35.352 117.724 35.303 118.215 35.254ZM161.536 29.1277C162.125 31.1861 160.653 33.1466 160.8 34.8129C159.77 39.5669 154.078 42.6056 151.87 43.5858C149.661 44.7621 146.178 44.9581 145.343 42.8507C144.313 42.3115 144.215 39.1749 146.079 38.9298V38.8808C145.981 34.0287 145.638 28.0004 145.245 23.3444C143.479 22.6583 141.859 22.1192 143.969 19.0315C146.325 17.5122 149.76 17.5612 151.673 18.1003C155.403 18.3944 157.758 20.4038 159.524 23.1974C159.868 25.1088 161.978 26.9222 161.536 29.1277ZM156.482 30.451C156.286 27.6084 155.844 25.893 154.716 24.8638C154.568 24.7167 152.704 23.7855 152.409 23.5895C151.968 23.4915 150.545 23.2954 150.152 23.2464C150.005 25.5009 151.526 27.9024 150.937 30.647C151.379 32.1663 151.281 36.6263 151.232 38.2437C152.017 37.9006 153.636 36.9694 153.881 36.8223C155.403 35.7441 156.727 33.6367 156.482 30.451ZM182.314 41.6744C182.314 43.3898 181.381 44.664 179.418 45.3012C177.848 45.0561 176.965 44.1739 176.965 43.3408C176.965 42.7526 177.161 42.4096 177.161 41.0373C177.161 40.8902 177.112 40.8412 177.112 40.8412C176.376 42.2625 173.776 43.4388 171.567 43.4388C168.918 43.4388 167.446 41.0863 166.66 40.6942C165.385 40.057 165.188 37.6555 165.09 36.4303C165.581 32.3134 166.906 31.2351 168.378 29.9609L168.82 29.8628C169.065 29.7158 168.82 29.5198 169.114 29.3727C169.899 29.0297 171.028 28.8336 172.254 28.8336C173.677 28.8336 175.248 29.0787 176.572 29.5198C176.671 28.0985 176.474 26.2361 176.278 24.8638C175.493 23.7855 175.002 23.5405 174.217 23.5405C172.058 23.5405 170.684 26.6281 169.016 26.6281C166.906 26.6281 165.777 25.1088 165.777 23.6875C165.777 23.0504 167.004 21.531 167.593 21.188C167.691 21.237 168.083 21.188 168.182 21.188C168.378 21.188 168.329 21.139 168.623 20.8449C170.292 19.3746 171.469 18.5414 174.561 18.5414C177.014 18.5414 178.388 19.2275 179.615 20.5018C181.97 22.9033 181.774 25.3539 181.921 28.2945C181.97 29.0297 181.774 30.3039 181.823 30.9901L182.166 38.8808C182.215 39.861 182.314 40.7432 182.314 41.6744ZM176.769 35.6461C176.769 34.0778 175.248 32.9015 173.579 32.9015C171.862 32.9015 170.144 33.9307 170.144 35.8911C170.144 37.6555 172.402 38.8318 173.677 38.8318C175.346 38.8318 176.769 37.4595 176.769 35.6461ZM205.005 20.0607C206.133 24.1286 203.827 25.0598 202.944 27.0692C202.159 28.3435 197.89 39.0278 197.791 39.959C196.908 41.2823 197.595 42.5566 196.172 43.5858C195.681 45.5462 194.602 47.2616 194.455 49.3201C193.081 54.3191 191.658 59.6613 189.695 62.994C188.714 65.5426 185.818 66.3757 183.954 62.2098C182.923 60.4945 187.389 53.0939 188.517 48.0948C189.204 45.2032 190.529 41.9685 191.461 39.0768C191.167 38.7828 190.873 38.4397 190.725 37.9986C189.891 36.7243 188.763 34.7149 188.223 33.3916C187.291 30.9901 183.267 29.2747 186.211 24.9128C187.389 24.1286 189.155 23.0504 190.431 24.2756C191.265 25.942 192.492 27.5103 192.737 29.4217L194.209 32.5094C195.436 29.8138 197.006 25.844 197.595 22.7563C198.478 18.2473 201.962 16.777 205.005 20.0607ZM247.786 20.2568C247.197 22.0211 247.246 22.5113 247.099 24.1776C247.001 25.5499 245.97 31.4312 245.872 32.8035C245.823 33.7837 245.725 34.8129 245.48 35.7441C245.725 38.9298 244.744 42.0665 244.891 45.2522L244.695 46.2324C244.596 47.0166 244.744 47.6537 244.498 48.4379C244.106 50.9864 240.573 53.0449 238.855 50.7414C237.629 49.3201 237.874 48.1438 237.285 46.2324C236.893 45.1542 235.617 43.1447 235.126 42.6056C233.997 40.6452 234.243 40.8902 234.194 41.0373C234.096 41.4293 233.899 41.8704 233.654 42.3115C233.605 42.6546 232.722 43.4878 232.476 43.9289C231.789 45.1542 231.299 46.3304 231.004 46.9675C231.102 47.9478 230.857 49.271 230.366 50.3493C230.121 51.3295 229.238 52.1137 228.551 52.8488C226.048 52.9958 224.085 52.2607 224.184 49.8102C224.92 47.0656 223.595 44.468 223.399 41.7724C223.104 38.3417 222.417 35.5971 222.613 32.1663L222.761 31.4802L222.123 26.8242C220.7 24.1286 219.424 18.5904 223.889 18.0513C228.649 18.0513 226.441 23.4915 227.128 25.4519C228.305 29.0297 228.698 35.9402 228.992 39.665C229.041 39.3709 229.679 38.1456 229.876 37.6555C230.415 36.5283 230.906 33.6857 231.397 32.1173C231.544 31.5782 231.789 31.1861 231.887 30.696C232.427 29.8138 233.507 28.8336 235.028 29.8628C235.568 30.451 236.009 31.1371 236.402 31.8233C237.481 33.8817 238.119 36.3813 238.904 37.8026C239.101 38.1456 239.346 38.4887 239.542 38.6848C239.542 37.8516 239.837 36.0872 239.788 35.058C241.407 32.4604 240.082 25.3049 241.505 22.3642C241.456 21.188 241.456 19.6196 241.849 17.6102C241.75 16.924 242.535 17.1691 242.928 16.679C244.008 15.3557 245.283 14.8166 246.903 15.6498C248.914 17.0711 248.326 18.4434 247.786 20.2568ZM266.012 35.401C265.079 36.1362 264.294 38.6848 262.871 39.1258C261.448 40.2041 259.78 40.8902 257.817 40.6452C255.903 40.7922 254.137 40.3511 253.254 39.1749C251.978 38.0966 250.996 36.5773 250.064 35.058C248.739 32.9995 248.592 29.9119 249.426 27.3633C249.181 26.5791 250.015 25.795 250.506 25.2068C251.193 24.0796 252.223 23.1484 253.499 22.6583C254.235 22.4132 255.02 22.2662 255.903 22.0211C258.455 21.7271 260.467 22.9523 262.675 23.9326C266.895 26.5791 266.257 31.2351 266.012 35.401ZM261.056 30.402C259.976 29.3727 260.074 27.0692 256.787 27.0692C256.1 27.3633 254.726 26.9712 254.726 28.1475C254.431 28.9316 254.382 30.2549 254.284 30.9901C254.529 32.4604 255.118 33.6857 256.247 34.7639C256.443 34.8619 256.639 34.9109 256.738 35.058C258.013 35.8421 260.074 34.8619 260.761 33.7837C261.448 33.0975 261.154 31.2351 261.056 30.402ZM283.845 25.1578C284.777 27.8044 285.415 31.4802 282.863 31.2351C280.508 31.6762 280.999 28.4415 279.919 28.6866C278.643 28.5396 276.239 30.3039 275.945 31.3822C275.601 31.8233 275.945 33.3916 275.797 34.1758C275.945 34.5679 276.092 35.205 275.846 35.8421C275.896 36.7243 276.043 37.8516 276.043 38.9788C276.043 40.2041 276.141 42.9487 274.571 43.8309C273.099 44.1739 272.951 44.615 271.234 44.0269C270.253 42.4586 270.007 40.5472 270.547 39.1258C270.302 37.7536 270.302 36.2832 270.302 34.9599C270.302 33.4406 270.302 31.9703 270.007 30.5C270.007 30.451 270.4 25.1088 270.351 25.0598C269.517 21.188 275.503 19.4726 275.945 23.4425C276.092 23.8835 276.141 24.3246 276.092 24.6677C277.122 23.7855 277.711 22.3642 279.134 22.5113C281.146 22.9523 282.471 23.4425 283.845 25.1578ZM295.937 42.7036C296.575 42.8016 297.409 43.6838 297.507 44.7131C297.654 46.0854 296.82 47.7517 295.544 48.2418C294.808 48.4869 293.385 48.7809 292.06 48.7809C290.883 48.7809 289.754 48.5849 289.214 47.9478C288.184 44.223 287.889 42.5076 287.742 38.8318C287.644 35.058 287.153 31.2351 287.055 27.3143C286.957 22.0702 286.466 16.875 285.583 11.6799C285.73 10.2586 285.436 9.08235 285.632 7.9551C285.78 7.17093 286.123 6.38676 287.006 5.55358C288.478 5.30853 289.509 5.6516 290.147 6.19072C290.981 6.87687 291.373 7.9551 291.324 8.73927C291.275 9.08235 291.226 9.57245 291.275 9.96454C291.619 10.4546 291.177 9.96454 291.766 11.2878C291.717 13.4933 291.226 16.2379 291.766 18.1983C291.913 18.6884 291.913 19.4236 291.619 20.2078C292.06 21.6781 291.619 23.1484 292.502 24.5207C292.551 27.2653 292.257 30.1079 292.944 32.6564C292.845 34.8129 292.698 37.3615 293.434 39.959C292.796 41.0863 293.336 41.2823 293.483 42.4586V42.5566C293.827 43.8799 295.005 42.6056 295.937 42.7036ZM318.922 45.6443C318.971 46.8695 319.069 47.8497 318.922 48.8299C318.775 49.8102 318.481 50.7414 317.695 51.8196C317.156 52.0156 316.665 52.1137 316.223 52.1137C314.653 52.0647 313.917 50.7414 313.328 49.222C313.23 47.6537 313.23 45.2522 313.476 43.6838C313.377 43.6838 312.151 44.7621 312.102 44.7621C311.267 45.4972 309.795 46.6245 307.538 45.9873C306.262 46.5755 304.152 44.7131 302.926 44.419C301.159 42.7036 300.816 39.2239 300.816 36.8714C300.816 34.9599 301.503 33.6857 301.944 32.0193C303.711 27.5103 308.372 23.7855 312.936 24.8638C312.887 24.4227 312.887 20.0117 312.936 19.5216C312.298 16.63 313.083 13.5423 312.347 10.7977V9.71948C312.347 8.78828 312.249 8.15114 312.445 7.17093C313.23 5.79864 314.359 5.11249 315.438 5.01447C316.959 4.86743 318.333 5.84765 318.53 7.66104C318.628 8.3962 318.481 9.27839 318.088 10.2586C317.892 13.5913 318.039 16.0909 318.775 18.3944C318.432 21.531 318.579 27.9514 318.579 30.549C319.217 35.401 318.775 41.0373 318.922 45.6443ZM313.132 32.4114C312.887 32.2644 313.23 31.1861 312.936 30.8431C312.74 30.647 311.562 31.0881 311.316 30.8431C309.844 31.0881 308.618 32.2644 307.44 33.7347C306.851 35.5971 306.41 36.5773 306.704 37.9986C306.851 39.665 308.078 40.2531 308.961 40.3021C309.795 40.3511 310.63 39.91 311.316 39.665C311.954 39.4689 312.494 38.5377 313.132 38.3417C313.23 36.5773 313.132 34.2248 313.132 32.4114Z"/>
</mask>
<path d="M22.1797 20.1097C21.5908 22.2172 21.8853 22.4132 20.4132 24.4227C18.4504 24.0796 17.9107 24.3737 16.4386 22.4622C16.6839 20.7959 15.6044 20.4038 14.6721 19.3256C12.5621 19.3746 11.5317 21.5801 10.5012 23.1974C9.96144 26.6281 11.6298 26.6772 14.0342 26.7262C15.6044 26.7262 17.6653 26.3341 19.0883 28.2945C20.4132 29.5688 22.5722 31.2351 21.2964 34.5679C21.3455 36.3322 20.8548 38.0476 19.9716 39.5179C18.9902 41.1843 17.6162 42.6056 16.2914 43.4388C13.7888 44.1739 11.3354 43.3898 9.27447 42.1155C7.90054 41.2333 6.62474 40.1551 5.64335 39.1258L5.34894 36.9204C5.54521 36.3322 5.79056 35.8421 6.33032 35.4501C7.11543 34.6659 9.12727 33.2936 10.6484 35.6951C11.4335 36.9204 13.2 37.7045 14.2795 37.5575C14.2305 37.6065 14.2305 37.7536 14.1814 37.9006C14.8684 37.2634 15.6044 35.9402 16.046 34.6659C16.5367 33.9307 15.31 32.4114 14.9665 31.7743C14.7702 31.5292 14.4758 31.4312 14.2305 31.4802L13.7398 31.4312C12.464 31.9213 10.7466 31.5292 9.2254 30.794C7.65519 30.0099 6.33032 28.8826 5.93777 28.1965C4.95638 26.3341 4.80918 24.5207 5.20173 22.8053C5.64335 20.8939 6.72287 19.0315 7.90054 17.4141C9.02913 15.9438 10.5503 14.6205 12.6603 14.1304C14.4758 13.5423 16.3404 13.9344 17.9107 14.8656C19.7753 15.9928 21.3455 17.9043 22.1797 20.1097ZM42.3682 35.401C41.4358 36.1362 40.6507 38.6848 39.2277 39.1258C37.8047 40.2041 36.1364 40.8902 34.1736 40.6452C32.2599 40.7922 30.4934 40.3511 29.6102 39.1749C28.3344 38.0966 27.353 36.5773 26.4207 35.058C25.0958 32.9995 24.9486 29.9119 25.7828 27.3633C25.5374 26.5791 26.3716 25.795 26.8623 25.2068C27.5492 24.0796 28.5797 23.1484 29.8555 22.6583C30.5915 22.4132 31.3766 22.2662 32.2599 22.0211C34.8115 21.7271 36.8233 22.9523 39.0314 23.9326C43.2514 26.5791 42.6135 31.2351 42.3682 35.401ZM37.4122 30.402C36.3326 29.3727 36.4308 27.0692 33.1431 27.0692C32.4562 27.3633 31.0822 26.9712 31.0822 28.1475C30.7878 28.9316 30.7388 30.2549 30.6406 30.9901C30.886 32.4604 31.4748 33.6857 32.6034 34.7639C32.7997 34.8619 32.9959 34.9109 33.0941 35.058C34.3699 35.8421 36.4308 34.8619 37.1177 33.7837C37.8047 33.0975 37.5103 31.2351 37.4122 30.402ZM62.9492 29.2257V38.4397C62.9492 40.4981 63.7343 41.5274 61.7225 43.1447C59.7106 43.5858 59.3181 43.9289 58.3857 42.9487C56.7174 41.2333 53.7242 37.2144 51.8595 35.7441C51.1726 34.3228 51.1726 34.7149 51.0744 34.5679V35.058C51.0744 36.9204 51.8595 39.3219 51.9086 41.1353V42.0665C51.9577 43.1447 52.5956 43.8309 51.6142 44.7621C50.044 46.1834 48.7191 47.2126 46.9526 45.1051C46.8054 42.5076 46.5601 39.812 46.1675 37.1654C45.824 35.058 45.4315 32.9505 45.2843 30.8431C44.6954 29.9609 44.8426 29.0297 45.2843 28.1475L45.5787 27.8534C45.4315 24.0306 49.7496 24.4227 51.6633 26.8732C52.1049 27.4613 52.5465 28.0494 53.0863 28.4415C54.0186 30.1569 57.3062 33.3916 58.2876 35.058L57.7969 32.0193C57.846 29.7648 56.7665 27.8044 57.3062 25.6969C57.6006 24.2266 58.7292 23.7855 60.005 23.2954C64.5194 24.1776 62.5076 27.5103 62.9492 29.2257ZM87.652 15.1107C87.7011 16.2379 87.4067 17.5122 86.7688 17.9533C85.7383 18.5414 83.2358 19.3256 82.9904 21.0409C84.1681 21.9231 86.2781 23.4425 86.5234 24.8148C88.0446 26.6281 87.2104 29.1767 87.2104 31.2842C86.0327 32.7545 85.8365 34.7149 84.4625 36.0382C83.2849 38.4887 78.3779 39.4199 75.7282 39.4689C75.581 39.861 74.845 41.0373 74.6978 42.2135C74.5505 43.4878 75.0412 44.664 75.2375 45.1051C76.7587 45.3012 80.4389 46.4284 81.7637 47.2126C82.4016 47.6047 82.9414 48.1438 83.4321 48.6339C86.2781 51.7216 85.6893 56.3776 85.4439 60.1514C83.9718 62.6509 81.6656 65.4445 78.427 65.9347C77.6419 66.0817 77.004 65.9347 76.268 65.9347C75.4829 65.9347 74.845 66.0327 74.1089 65.8366C71.0666 65.1505 69.1529 62.1608 67.6809 59.8573C65.3746 56.0345 66.2088 48.3889 70.6741 46.1344C70.5269 45.2522 70.1343 43.7328 70.2815 42.2135C70.4287 40.8412 71.1157 39.4199 71.312 38.5867C68.6132 36.8223 66.8957 34.0778 66.6013 31.0881C66.5523 30.549 66.5032 29.9609 66.6013 29.4708C66.6995 28.7846 67.1411 28.0004 67.4355 27.3633C68.7113 24.5207 71.7536 19.8647 75.4338 19.4236C76.268 19.3256 79.3103 20.0607 79.9482 19.8157C79.9482 18.1003 81.7637 15.0126 82.647 14.1304C83.2358 13.4933 84.1681 13.1992 85.9837 13.3953C87.2595 13.5913 87.652 14.2775 87.652 15.1107ZM81.1258 28.5886C80.8314 27.3633 79.4084 26.2361 78.0345 26.138C77.4456 26.089 76.1698 25.5009 75.5319 25.5499C74.2561 26.7262 71.5573 28.8826 72.5878 30.794C72.9803 31.5782 74.1089 33.8327 74.894 34.0778C75.5319 33.9797 76.3661 33.9307 76.9549 34.0287C77.2003 34.0778 79.114 33.2446 79.4084 32.9995L80.4879 32.0193C81.6165 30.9901 81.5674 30.2059 81.1258 28.5886ZM79.8991 54.7112C78.8686 53.731 76.6605 50.2022 75.0412 50.2513C74.1089 50.3493 73.5201 50.9374 72.9313 51.2805C72.6859 51.8686 71.8027 54.7602 71.8517 55.3484C71.9008 56.3286 73.1275 58.387 73.9127 59.0242C74.1089 59.1222 74.9922 59.1222 75.2375 59.2202C77.1021 59.5143 78.5742 59.5143 79.7028 58.093C80.3898 57.2108 79.9972 55.6424 79.8991 54.7112ZM126.115 48.3889C124.741 49.4181 123.416 49.6631 121.846 48.3889C119.883 44.7131 120.718 44.272 119.442 40.6942C118.019 40.9883 113.21 40.8412 112.229 40.7922L111.787 41.4784L111.296 44.2229L111.395 44.8601C111.395 45.0071 111.198 45.0561 111.149 45.2032C111.051 45.6933 110.953 46.3304 110.708 47.2616C109.235 49.222 107.076 51.0354 105.604 47.6537L104.77 46.3794C104.721 45.6933 105.212 44.9091 105.457 44.517C105.457 44.37 105.506 44.321 105.555 44.2229L105.506 43.5858L105.752 42.9977L105.85 42.9487C105.653 42.0175 105.85 41.8704 106.095 40.8412C105.752 40.6942 105.212 40.5472 104.672 40.3511C103.936 40.1061 103.151 39.4689 103.004 39.1258C102.513 38.1456 102.758 36.8714 103.74 35.9402C104.132 35.5481 104.819 35.205 105.506 35.058C106.34 34.9109 107.125 35.009 107.469 35.058C108.156 32.6074 108.941 30.0589 109.53 27.1182C110.021 26.187 109.972 24.1776 110.56 22.6093C111.395 20.4038 111.002 19.9137 111.983 17.7572C111.689 15.8458 113.897 13.8364 115.124 13.1502C117.626 13.2973 117.97 14.2775 118.608 15.7478C119 17.4141 119.295 17.7572 119.982 18.1983C119.638 19.3256 120.472 20.4038 120.57 22.0702C122.092 25.0108 121.748 28.4415 123.122 31.4312C123.024 32.9995 124.005 34.2248 124.005 35.7931C124.889 37.9986 124.839 40.4981 125.821 42.6546C126.213 44.9091 127.391 45.6933 126.115 48.3889ZM118.215 35.254L117.97 33.8817L117.872 33.2446C117.381 30.549 116.547 26.3341 116.449 25.2068C116.056 24.3246 115.811 23.2954 115.811 22.2662C115.271 24.3737 113.995 29.2747 113.308 32.4114C113.21 32.8035 113.063 32.5094 112.965 32.9015C112.916 33.2446 113.161 33.4896 113.112 33.8327L112.867 35.303C113.455 35.352 117.724 35.303 118.215 35.254ZM161.536 29.1277C162.125 31.1861 160.653 33.1466 160.8 34.8129C159.77 39.5669 154.078 42.6056 151.87 43.5858C149.661 44.7621 146.178 44.9581 145.343 42.8507C144.313 42.3115 144.215 39.1749 146.079 38.9298V38.8808C145.981 34.0287 145.638 28.0004 145.245 23.3444C143.479 22.6583 141.859 22.1192 143.969 19.0315C146.325 17.5122 149.76 17.5612 151.673 18.1003C155.403 18.3944 157.758 20.4038 159.524 23.1974C159.868 25.1088 161.978 26.9222 161.536 29.1277ZM156.482 30.451C156.286 27.6084 155.844 25.893 154.716 24.8638C154.568 24.7167 152.704 23.7855 152.409 23.5895C151.968 23.4915 150.545 23.2954 150.152 23.2464C150.005 25.5009 151.526 27.9024 150.937 30.647C151.379 32.1663 151.281 36.6263 151.232 38.2437C152.017 37.9006 153.636 36.9694 153.881 36.8223C155.403 35.7441 156.727 33.6367 156.482 30.451ZM182.314 41.6744C182.314 43.3898 181.381 44.664 179.418 45.3012C177.848 45.0561 176.965 44.1739 176.965 43.3408C176.965 42.7526 177.161 42.4096 177.161 41.0373C177.161 40.8902 177.112 40.8412 177.112 40.8412C176.376 42.2625 173.776 43.4388 171.567 43.4388C168.918 43.4388 167.446 41.0863 166.66 40.6942C165.385 40.057 165.188 37.6555 165.09 36.4303C165.581 32.3134 166.906 31.2351 168.378 29.9609L168.82 29.8628C169.065 29.7158 168.82 29.5198 169.114 29.3727C169.899 29.0297 171.028 28.8336 172.254 28.8336C173.677 28.8336 175.248 29.0787 176.572 29.5198C176.671 28.0985 176.474 26.2361 176.278 24.8638C175.493 23.7855 175.002 23.5405 174.217 23.5405C172.058 23.5405 170.684 26.6281 169.016 26.6281C166.906 26.6281 165.777 25.1088 165.777 23.6875C165.777 23.0504 167.004 21.531 167.593 21.188C167.691 21.237 168.083 21.188 168.182 21.188C168.378 21.188 168.329 21.139 168.623 20.8449C170.292 19.3746 171.469 18.5414 174.561 18.5414C177.014 18.5414 178.388 19.2275 179.615 20.5018C181.97 22.9033 181.774 25.3539 181.921 28.2945C181.97 29.0297 181.774 30.3039 181.823 30.9901L182.166 38.8808C182.215 39.861 182.314 40.7432 182.314 41.6744ZM176.769 35.6461C176.769 34.0778 175.248 32.9015 173.579 32.9015C171.862 32.9015 170.144 33.9307 170.144 35.8911C170.144 37.6555 172.402 38.8318 173.677 38.8318C175.346 38.8318 176.769 37.4595 176.769 35.6461ZM205.005 20.0607C206.133 24.1286 203.827 25.0598 202.944 27.0692C202.159 28.3435 197.89 39.0278 197.791 39.959C196.908 41.2823 197.595 42.5566 196.172 43.5858C195.681 45.5462 194.602 47.2616 194.455 49.3201C193.081 54.3191 191.658 59.6613 189.695 62.994C188.714 65.5426 185.818 66.3757 183.954 62.2098C182.923 60.4945 187.389 53.0939 188.517 48.0948C189.204 45.2032 190.529 41.9685 191.461 39.0768C191.167 38.7828 190.873 38.4397 190.725 37.9986C189.891 36.7243 188.763 34.7149 188.223 33.3916C187.291 30.9901 183.267 29.2747 186.211 24.9128C187.389 24.1286 189.155 23.0504 190.431 24.2756C191.265 25.942 192.492 27.5103 192.737 29.4217L194.209 32.5094C195.436 29.8138 197.006 25.844 197.595 22.7563C198.478 18.2473 201.962 16.777 205.005 20.0607ZM247.786 20.2568C247.197 22.0211 247.246 22.5113 247.099 24.1776C247.001 25.5499 245.97 31.4312 245.872 32.8035C245.823 33.7837 245.725 34.8129 245.48 35.7441C245.725 38.9298 244.744 42.0665 244.891 45.2522L244.695 46.2324C244.596 47.0166 244.744 47.6537 244.498 48.4379C244.106 50.9864 240.573 53.0449 238.855 50.7414C237.629 49.3201 237.874 48.1438 237.285 46.2324C236.893 45.1542 235.617 43.1447 235.126 42.6056C233.997 40.6452 234.243 40.8902 234.194 41.0373C234.096 41.4293 233.899 41.8704 233.654 42.3115C233.605 42.6546 232.722 43.4878 232.476 43.9289C231.789 45.1542 231.299 46.3304 231.004 46.9675C231.102 47.9478 230.857 49.271 230.366 50.3493C230.121 51.3295 229.238 52.1137 228.551 52.8488C226.048 52.9958 224.085 52.2607 224.184 49.8102C224.92 47.0656 223.595 44.468 223.399 41.7724C223.104 38.3417 222.417 35.5971 222.613 32.1663L222.761 31.4802L222.123 26.8242C220.7 24.1286 219.424 18.5904 223.889 18.0513C228.649 18.0513 226.441 23.4915 227.128 25.4519C228.305 29.0297 228.698 35.9402 228.992 39.665C229.041 39.3709 229.679 38.1456 229.876 37.6555C230.415 36.5283 230.906 33.6857 231.397 32.1173C231.544 31.5782 231.789 31.1861 231.887 30.696C232.427 29.8138 233.507 28.8336 235.028 29.8628C235.568 30.451 236.009 31.1371 236.402 31.8233C237.481 33.8817 238.119 36.3813 238.904 37.8026C239.101 38.1456 239.346 38.4887 239.542 38.6848C239.542 37.8516 239.837 36.0872 239.788 35.058C241.407 32.4604 240.082 25.3049 241.505 22.3642C241.456 21.188 241.456 19.6196 241.849 17.6102C241.75 16.924 242.535 17.1691 242.928 16.679C244.008 15.3557 245.283 14.8166 246.903 15.6498C248.914 17.0711 248.326 18.4434 247.786 20.2568ZM266.012 35.401C265.079 36.1362 264.294 38.6848 262.871 39.1258C261.448 40.2041 259.78 40.8902 257.817 40.6452C255.903 40.7922 254.137 40.3511 253.254 39.1749C251.978 38.0966 250.996 36.5773 250.064 35.058C248.739 32.9995 248.592 29.9119 249.426 27.3633C249.181 26.5791 250.015 25.795 250.506 25.2068C251.193 24.0796 252.223 23.1484 253.499 22.6583C254.235 22.4132 255.02 22.2662 255.903 22.0211C258.455 21.7271 260.467 22.9523 262.675 23.9326C266.895 26.5791 266.257 31.2351 266.012 35.401ZM261.056 30.402C259.976 29.3727 260.074 27.0692 256.787 27.0692C256.1 27.3633 254.726 26.9712 254.726 28.1475C254.431 28.9316 254.382 30.2549 254.284 30.9901C254.529 32.4604 255.118 33.6857 256.247 34.7639C256.443 34.8619 256.639 34.9109 256.738 35.058C258.013 35.8421 260.074 34.8619 260.761 33.7837C261.448 33.0975 261.154 31.2351 261.056 30.402ZM283.845 25.1578C284.777 27.8044 285.415 31.4802 282.863 31.2351C280.508 31.6762 280.999 28.4415 279.919 28.6866C278.643 28.5396 276.239 30.3039 275.945 31.3822C275.601 31.8233 275.945 33.3916 275.797 34.1758C275.945 34.5679 276.092 35.205 275.846 35.8421C275.896 36.7243 276.043 37.8516 276.043 38.9788C276.043 40.2041 276.141 42.9487 274.571 43.8309C273.099 44.1739 272.951 44.615 271.234 44.0269C270.253 42.4586 270.007 40.5472 270.547 39.1258C270.302 37.7536 270.302 36.2832 270.302 34.9599C270.302 33.4406 270.302 31.9703 270.007 30.5C270.007 30.451 270.4 25.1088 270.351 25.0598C269.517 21.188 275.503 19.4726 275.945 23.4425C276.092 23.8835 276.141 24.3246 276.092 24.6677C277.122 23.7855 277.711 22.3642 279.134 22.5113C281.146 22.9523 282.471 23.4425 283.845 25.1578ZM295.937 42.7036C296.575 42.8016 297.409 43.6838 297.507 44.7131C297.654 46.0854 296.82 47.7517 295.544 48.2418C294.808 48.4869 293.385 48.7809 292.06 48.7809C290.883 48.7809 289.754 48.5849 289.214 47.9478C288.184 44.223 287.889 42.5076 287.742 38.8318C287.644 35.058 287.153 31.2351 287.055 27.3143C286.957 22.0702 286.466 16.875 285.583 11.6799C285.73 10.2586 285.436 9.08235 285.632 7.9551C285.78 7.17093 286.123 6.38676 287.006 5.55358C288.478 5.30853 289.509 5.6516 290.147 6.19072C290.981 6.87687 291.373 7.9551 291.324 8.73927C291.275 9.08235 291.226 9.57245 291.275 9.96454C291.619 10.4546 291.177 9.96454 291.766 11.2878C291.717 13.4933 291.226 16.2379 291.766 18.1983C291.913 18.6884 291.913 19.4236 291.619 20.2078C292.06 21.6781 291.619 23.1484 292.502 24.5207C292.551 27.2653 292.257 30.1079 292.944 32.6564C292.845 34.8129 292.698 37.3615 293.434 39.959C292.796 41.0863 293.336 41.2823 293.483 42.4586V42.5566C293.827 43.8799 295.005 42.6056 295.937 42.7036ZM318.922 45.6443C318.971 46.8695 319.069 47.8497 318.922 48.8299C318.775 49.8102 318.481 50.7414 317.695 51.8196C317.156 52.0156 316.665 52.1137 316.223 52.1137C314.653 52.0647 313.917 50.7414 313.328 49.222C313.23 47.6537 313.23 45.2522 313.476 43.6838C313.377 43.6838 312.151 44.7621 312.102 44.7621C311.267 45.4972 309.795 46.6245 307.538 45.9873C306.262 46.5755 304.152 44.7131 302.926 44.419C301.159 42.7036 300.816 39.2239 300.816 36.8714C300.816 34.9599 301.503 33.6857 301.944 32.0193C303.711 27.5103 308.372 23.7855 312.936 24.8638C312.887 24.4227 312.887 20.0117 312.936 19.5216C312.298 16.63 313.083 13.5423 312.347 10.7977V9.71948C312.347 8.78828 312.249 8.15114 312.445 7.17093C313.23 5.79864 314.359 5.11249 315.438 5.01447C316.959 4.86743 318.333 5.84765 318.53 7.66104C318.628 8.3962 318.481 9.27839 318.088 10.2586C317.892 13.5913 318.039 16.0909 318.775 18.3944C318.432 21.531 318.579 27.9514 318.579 30.549C319.217 35.401 318.775 41.0373 318.922 45.6443ZM313.132 32.4114C312.887 32.2644 313.23 31.1861 312.936 30.8431C312.74 30.647 311.562 31.0881 311.316 30.8431C309.844 31.0881 308.618 32.2644 307.44 33.7347C306.851 35.5971 306.41 36.5773 306.704 37.9986C306.851 39.665 308.078 40.2531 308.961 40.3021C309.795 40.3511 310.63 39.91 311.316 39.665C311.954 39.4689 312.494 38.5377 313.132 38.3417C313.23 36.5773 313.132 34.2248 313.132 32.4114Z" fill="white"/>
<path d="M22.1797 20.1097C21.5908 22.2172 21.8853 22.4132 20.4132 24.4227C18.4504 24.0796 17.9107 24.3737 16.4386 22.4622C16.6839 20.7959 15.6044 20.4038 14.6721 19.3256C12.5621 19.3746 11.5317 21.5801 10.5012 23.1974C9.96144 26.6281 11.6298 26.6772 14.0342 26.7262C15.6044 26.7262 17.6653 26.3341 19.0883 28.2945C20.4132 29.5688 22.5722 31.2351 21.2964 34.5679C21.3455 36.3322 20.8548 38.0476 19.9716 39.5179C18.9902 41.1843 17.6162 42.6056 16.2914 43.4388C13.7888 44.1739 11.3354 43.3898 9.27447 42.1155C7.90054 41.2333 6.62474 40.1551 5.64335 39.1258L5.34894 36.9204C5.54521 36.3322 5.79056 35.8421 6.33032 35.4501C7.11543 34.6659 9.12727 33.2936 10.6484 35.6951C11.4335 36.9204 13.2 37.7045 14.2795 37.5575C14.2305 37.6065 14.2305 37.7536 14.1814 37.9006C14.8684 37.2634 15.6044 35.9402 16.046 34.6659C16.5367 33.9307 15.31 32.4114 14.9665 31.7743C14.7702 31.5292 14.4758 31.4312 14.2305 31.4802L13.7398 31.4312C12.464 31.9213 10.7466 31.5292 9.2254 30.794C7.65519 30.0099 6.33032 28.8826 5.93777 28.1965C4.95638 26.3341 4.80918 24.5207 5.20173 22.8053C5.64335 20.8939 6.72287 19.0315 7.90054 17.4141C9.02913 15.9438 10.5503 14.6205 12.6603 14.1304C14.4758 13.5423 16.3404 13.9344 17.9107 14.8656C19.7753 15.9928 21.3455 17.9043 22.1797 20.1097ZM42.3682 35.401C41.4358 36.1362 40.6507 38.6848 39.2277 39.1258C37.8047 40.2041 36.1364 40.8902 34.1736 40.6452C32.2599 40.7922 30.4934 40.3511 29.6102 39.1749C28.3344 38.0966 27.353 36.5773 26.4207 35.058C25.0958 32.9995 24.9486 29.9119 25.7828 27.3633C25.5374 26.5791 26.3716 25.795 26.8623 25.2068C27.5492 24.0796 28.5797 23.1484 29.8555 22.6583C30.5915 22.4132 31.3766 22.2662 32.2599 22.0211C34.8115 21.7271 36.8233 22.9523 39.0314 23.9326C43.2514 26.5791 42.6135 31.2351 42.3682 35.401ZM37.4122 30.402C36.3326 29.3727 36.4308 27.0692 33.1431 27.0692C32.4562 27.3633 31.0822 26.9712 31.0822 28.1475C30.7878 28.9316 30.7388 30.2549 30.6406 30.9901C30.886 32.4604 31.4748 33.6857 32.6034 34.7639C32.7997 34.8619 32.9959 34.9109 33.0941 35.058C34.3699 35.8421 36.4308 34.8619 37.1177 33.7837C37.8047 33.0975 37.5103 31.2351 37.4122 30.402ZM62.9492 29.2257V38.4397C62.9492 40.4981 63.7343 41.5274 61.7225 43.1447C59.7106 43.5858 59.3181 43.9289 58.3857 42.9487C56.7174 41.2333 53.7242 37.2144 51.8595 35.7441C51.1726 34.3228 51.1726 34.7149 51.0744 34.5679V35.058C51.0744 36.9204 51.8595 39.3219 51.9086 41.1353V42.0665C51.9577 43.1447 52.5956 43.8309 51.6142 44.7621C50.044 46.1834 48.7191 47.2126 46.9526 45.1051C46.8054 42.5076 46.5601 39.812 46.1675 37.1654C45.824 35.058 45.4315 32.9505 45.2843 30.8431C44.6954 29.9609 44.8426 29.0297 45.2843 28.1475L45.5787 27.8534C45.4315 24.0306 49.7496 24.4227 51.6633 26.8732C52.1049 27.4613 52.5465 28.0494 53.0863 28.4415C54.0186 30.1569 57.3062 33.3916 58.2876 35.058L57.7969 32.0193C57.846 29.7648 56.7665 27.8044 57.3062 25.6969C57.6006 24.2266 58.7292 23.7855 60.005 23.2954C64.5194 24.1776 62.5076 27.5103 62.9492 29.2257ZM87.652 15.1107C87.7011 16.2379 87.4067 17.5122 86.7688 17.9533C85.7383 18.5414 83.2358 19.3256 82.9904 21.0409C84.1681 21.9231 86.2781 23.4425 86.5234 24.8148C88.0446 26.6281 87.2104 29.1767 87.2104 31.2842C86.0327 32.7545 85.8365 34.7149 84.4625 36.0382C83.2849 38.4887 78.3779 39.4199 75.7282 39.4689C75.581 39.861 74.845 41.0373 74.6978 42.2135C74.5505 43.4878 75.0412 44.664 75.2375 45.1051C76.7587 45.3012 80.4389 46.4284 81.7637 47.2126C82.4016 47.6047 82.9414 48.1438 83.4321 48.6339C86.2781 51.7216 85.6893 56.3776 85.4439 60.1514C83.9718 62.6509 81.6656 65.4445 78.427 65.9347C77.6419 66.0817 77.004 65.9347 76.268 65.9347C75.4829 65.9347 74.845 66.0327 74.1089 65.8366C71.0666 65.1505 69.1529 62.1608 67.6809 59.8573C65.3746 56.0345 66.2088 48.3889 70.6741 46.1344C70.5269 45.2522 70.1343 43.7328 70.2815 42.2135C70.4287 40.8412 71.1157 39.4199 71.312 38.5867C68.6132 36.8223 66.8957 34.0778 66.6013 31.0881C66.5523 30.549 66.5032 29.9609 66.6013 29.4708C66.6995 28.7846 67.1411 28.0004 67.4355 27.3633C68.7113 24.5207 71.7536 19.8647 75.4338 19.4236C76.268 19.3256 79.3103 20.0607 79.9482 19.8157C79.9482 18.1003 81.7637 15.0126 82.647 14.1304C83.2358 13.4933 84.1681 13.1992 85.9837 13.3953C87.2595 13.5913 87.652 14.2775 87.652 15.1107ZM81.1258 28.5886C80.8314 27.3633 79.4084 26.2361 78.0345 26.138C77.4456 26.089 76.1698 25.5009 75.5319 25.5499C74.2561 26.7262 71.5573 28.8826 72.5878 30.794C72.9803 31.5782 74.1089 33.8327 74.894 34.0778C75.5319 33.9797 76.3661 33.9307 76.9549 34.0287C77.2003 34.0778 79.114 33.2446 79.4084 32.9995L80.4879 32.0193C81.6165 30.9901 81.5674 30.2059 81.1258 28.5886ZM79.8991 54.7112C78.8686 53.731 76.6605 50.2022 75.0412 50.2513C74.1089 50.3493 73.5201 50.9374 72.9313 51.2805C72.6859 51.8686 71.8027 54.7602 71.8517 55.3484C71.9008 56.3286 73.1275 58.387 73.9127 59.0242C74.1089 59.1222 74.9922 59.1222 75.2375 59.2202C77.1021 59.5143 78.5742 59.5143 79.7028 58.093C80.3898 57.2108 79.9972 55.6424 79.8991 54.7112ZM126.115 48.3889C124.741 49.4181 123.416 49.6631 121.846 48.3889C119.883 44.7131 120.718 44.272 119.442 40.6942C118.019 40.9883 113.21 40.8412 112.229 40.7922L111.787 41.4784L111.296 44.2229L111.395 44.8601C111.395 45.0071 111.198 45.0561 111.149 45.2032C111.051 45.6933 110.953 46.3304 110.708 47.2616C109.235 49.222 107.076 51.0354 105.604 47.6537L104.77 46.3794C104.721 45.6933 105.212 44.9091 105.457 44.517C105.457 44.37 105.506 44.321 105.555 44.2229L105.506 43.5858L105.752 42.9977L105.85 42.9487C105.653 42.0175 105.85 41.8704 106.095 40.8412C105.752 40.6942 105.212 40.5472 104.672 40.3511C103.936 40.1061 103.151 39.4689 103.004 39.1258C102.513 38.1456 102.758 36.8714 103.74 35.9402C104.132 35.5481 104.819 35.205 105.506 35.058C106.34 34.9109 107.125 35.009 107.469 35.058C108.156 32.6074 108.941 30.0589 109.53 27.1182C110.021 26.187 109.972 24.1776 110.56 22.6093C111.395 20.4038 111.002 19.9137 111.983 17.7572C111.689 15.8458 113.897 13.8364 115.124 13.1502C117.626 13.2973 117.97 14.2775 118.608 15.7478C119 17.4141 119.295 17.7572 119.982 18.1983C119.638 19.3256 120.472 20.4038 120.57 22.0702C122.092 25.0108 121.748 28.4415 123.122 31.4312C123.024 32.9995 124.005 34.2248 124.005 35.7931C124.889 37.9986 124.839 40.4981 125.821 42.6546C126.213 44.9091 127.391 45.6933 126.115 48.3889ZM118.215 35.254L117.97 33.8817L117.872 33.2446C117.381 30.549 116.547 26.3341 116.449 25.2068C116.056 24.3246 115.811 23.2954 115.811 22.2662C115.271 24.3737 113.995 29.2747 113.308 32.4114C113.21 32.8035 113.063 32.5094 112.965 32.9015C112.916 33.2446 113.161 33.4896 113.112 33.8327L112.867 35.303C113.455 35.352 117.724 35.303 118.215 35.254ZM161.536 29.1277C162.125 31.1861 160.653 33.1466 160.8 34.8129C159.77 39.5669 154.078 42.6056 151.87 43.5858C149.661 44.7621 146.178 44.9581 145.343 42.8507C144.313 42.3115 144.215 39.1749 146.079 38.9298V38.8808C145.981 34.0287 145.638 28.0004 145.245 23.3444C143.479 22.6583 141.859 22.1192 143.969 19.0315C146.325 17.5122 149.76 17.5612 151.673 18.1003C155.403 18.3944 157.758 20.4038 159.524 23.1974C159.868 25.1088 161.978 26.9222 161.536 29.1277ZM156.482 30.451C156.286 27.6084 155.844 25.893 154.716 24.8638C154.568 24.7167 152.704 23.7855 152.409 23.5895C151.968 23.4915 150.545 23.2954 150.152 23.2464C150.005 25.5009 151.526 27.9024 150.937 30.647C151.379 32.1663 151.281 36.6263 151.232 38.2437C152.017 37.9006 153.636 36.9694 153.881 36.8223C155.403 35.7441 156.727 33.6367 156.482 30.451ZM182.314 41.6744C182.314 43.3898 181.381 44.664 179.418 45.3012C177.848 45.0561 176.965 44.1739 176.965 43.3408C176.965 42.7526 177.161 42.4096 177.161 41.0373C177.161 40.8902 177.112 40.8412 177.112 40.8412C176.376 42.2625 173.776 43.4388 171.567 43.4388C168.918 43.4388 167.446 41.0863 166.66 40.6942C165.385 40.057 165.188 37.6555 165.09 36.4303C165.581 32.3134 166.906 31.2351 168.378 29.9609L168.82 29.8628C169.065 29.7158 168.82 29.5198 169.114 29.3727C169.899 29.0297 171.028 28.8336 172.254 28.8336C173.677 28.8336 175.248 29.0787 176.572 29.5198C176.671 28.0985 176.474 26.2361 176.278 24.8638C175.493 23.7855 175.002 23.5405 174.217 23.5405C172.058 23.5405 170.684 26.6281 169.016 26.6281C166.906 26.6281 165.777 25.1088 165.777 23.6875C165.777 23.0504 167.004 21.531 167.593 21.188C167.691 21.237 168.083 21.188 168.182 21.188C168.378 21.188 168.329 21.139 168.623 20.8449C170.292 19.3746 171.469 18.5414 174.561 18.5414C177.014 18.5414 178.388 19.2275 179.615 20.5018C181.97 22.9033 181.774 25.3539 181.921 28.2945C181.97 29.0297 181.774 30.3039 181.823 30.9901L182.166 38.8808C182.215 39.861 182.314 40.7432 182.314 41.6744ZM176.769 35.6461C176.769 34.0778 175.248 32.9015 173.579 32.9015C171.862 32.9015 170.144 33.9307 170.144 35.8911C170.144 37.6555 172.402 38.8318 173.677 38.8318C175.346 38.8318 176.769 37.4595 176.769 35.6461ZM205.005 20.0607C206.133 24.1286 203.827 25.0598 202.944 27.0692C202.159 28.3435 197.89 39.0278 197.791 39.959C196.908 41.2823 197.595 42.5566 196.172 43.5858C195.681 45.5462 194.602 47.2616 194.455 49.3201C193.081 54.3191 191.658 59.6613 189.695 62.994C188.714 65.5426 185.818 66.3757 183.954 62.2098C182.923 60.4945 187.389 53.0939 188.517 48.0948C189.204 45.2032 190.529 41.9685 191.461 39.0768C191.167 38.7828 190.873 38.4397 190.725 37.9986C189.891 36.7243 188.763 34.7149 188.223 33.3916C187.291 30.9901 183.267 29.2747 186.211 24.9128C187.389 24.1286 189.155 23.0504 190.431 24.2756C191.265 25.942 192.492 27.5103 192.737 29.4217L194.209 32.5094C195.436 29.8138 197.006 25.844 197.595 22.7563C198.478 18.2473 201.962 16.777 205.005 20.0607ZM247.786 20.2568C247.197 22.0211 247.246 22.5113 247.099 24.1776C247.001 25.5499 245.97 31.4312 245.872 32.8035C245.823 33.7837 245.725 34.8129 245.48 35.7441C245.725 38.9298 244.744 42.0665 244.891 45.2522L244.695 46.2324C244.596 47.0166 244.744 47.6537 244.498 48.4379C244.106 50.9864 240.573 53.0449 238.855 50.7414C237.629 49.3201 237.874 48.1438 237.285 46.2324C236.893 45.1542 235.617 43.1447 235.126 42.6056C233.997 40.6452 234.243 40.8902 234.194 41.0373C234.096 41.4293 233.899 41.8704 233.654 42.3115C233.605 42.6546 232.722 43.4878 232.476 43.9289C231.789 45.1542 231.299 46.3304 231.004 46.9675C231.102 47.9478 230.857 49.271 230.366 50.3493C230.121 51.3295 229.238 52.1137 228.551 52.8488C226.048 52.9958 224.085 52.2607 224.184 49.8102C224.92 47.0656 223.595 44.468 223.399 41.7724C223.104 38.3417 222.417 35.5971 222.613 32.1663L222.761 31.4802L222.123 26.8242C220.7 24.1286 219.424 18.5904 223.889 18.0513C228.649 18.0513 226.441 23.4915 227.128 25.4519C228.305 29.0297 228.698 35.9402 228.992 39.665C229.041 39.3709 229.679 38.1456 229.876 37.6555C230.415 36.5283 230.906 33.6857 231.397 32.1173C231.544 31.5782 231.789 31.1861 231.887 30.696C232.427 29.8138 233.507 28.8336 235.028 29.8628C235.568 30.451 236.009 31.1371 236.402 31.8233C237.481 33.8817 238.119 36.3813 238.904 37.8026C239.101 38.1456 239.346 38.4887 239.542 38.6848C239.542 37.8516 239.837 36.0872 239.788 35.058C241.407 32.4604 240.082 25.3049 241.505 22.3642C241.456 21.188 241.456 19.6196 241.849 17.6102C241.75 16.924 242.535 17.1691 242.928 16.679C244.008 15.3557 245.283 14.8166 246.903 15.6498C248.914 17.0711 248.326 18.4434 247.786 20.2568ZM266.012 35.401C265.079 36.1362 264.294 38.6848 262.871 39.1258C261.448 40.2041 259.78 40.8902 257.817 40.6452C255.903 40.7922 254.137 40.3511 253.254 39.1749C251.978 38.0966 250.996 36.5773 250.064 35.058C248.739 32.9995 248.592 29.9119 249.426 27.3633C249.181 26.5791 250.015 25.795 250.506 25.2068C251.193 24.0796 252.223 23.1484 253.499 22.6583C254.235 22.4132 255.02 22.2662 255.903 22.0211C258.455 21.7271 260.467 22.9523 262.675 23.9326C266.895 26.5791 266.257 31.2351 266.012 35.401ZM261.056 30.402C259.976 29.3727 260.074 27.0692 256.787 27.0692C256.1 27.3633 254.726 26.9712 254.726 28.1475C254.431 28.9316 254.382 30.2549 254.284 30.9901C254.529 32.4604 255.118 33.6857 256.247 34.7639C256.443 34.8619 256.639 34.9109 256.738 35.058C258.013 35.8421 260.074 34.8619 260.761 33.7837C261.448 33.0975 261.154 31.2351 261.056 30.402ZM283.845 25.1578C284.777 27.8044 285.415 31.4802 282.863 31.2351C280.508 31.6762 280.999 28.4415 279.919 28.6866C278.643 28.5396 276.239 30.3039 275.945 31.3822C275.601 31.8233 275.945 33.3916 275.797 34.1758C275.945 34.5679 276.092 35.205 275.846 35.8421C275.896 36.7243 276.043 37.8516 276.043 38.9788C276.043 40.2041 276.141 42.9487 274.571 43.8309C273.099 44.1739 272.951 44.615 271.234 44.0269C270.253 42.4586 270.007 40.5472 270.547 39.1258C270.302 37.7536 270.302 36.2832 270.302 34.9599C270.302 33.4406 270.302 31.9703 270.007 30.5C270.007 30.451 270.4 25.1088 270.351 25.0598C269.517 21.188 275.503 19.4726 275.945 23.4425C276.092 23.8835 276.141 24.3246 276.092 24.6677C277.122 23.7855 277.711 22.3642 279.134 22.5113C281.146 22.9523 282.471 23.4425 283.845 25.1578ZM295.937 42.7036C296.575 42.8016 297.409 43.6838 297.507 44.7131C297.654 46.0854 296.82 47.7517 295.544 48.2418C294.808 48.4869 293.385 48.7809 292.06 48.7809C290.883 48.7809 289.754 48.5849 289.214 47.9478C288.184 44.223 287.889 42.5076 287.742 38.8318C287.644 35.058 287.153 31.2351 287.055 27.3143C286.957 22.0702 286.466 16.875 285.583 11.6799C285.73 10.2586 285.436 9.08235 285.632 7.9551C285.78 7.17093 286.123 6.38676 287.006 5.55358C288.478 5.30853 289.509 5.6516 290.147 6.19072C290.981 6.87687 291.373 7.9551 291.324 8.73927C291.275 9.08235 291.226 9.57245 291.275 9.96454C291.619 10.4546 291.177 9.96454 291.766 11.2878C291.717 13.4933 291.226 16.2379 291.766 18.1983C291.913 18.6884 291.913 19.4236 291.619 20.2078C292.06 21.6781 291.619 23.1484 292.502 24.5207C292.551 27.2653 292.257 30.1079 292.944 32.6564C292.845 34.8129 292.698 37.3615 293.434 39.959C292.796 41.0863 293.336 41.2823 293.483 42.4586V42.5566C293.827 43.8799 295.005 42.6056 295.937 42.7036ZM318.922 45.6443C318.971 46.8695 319.069 47.8497 318.922 48.8299C318.775 49.8102 318.481 50.7414 317.695 51.8196C317.156 52.0156 316.665 52.1137 316.223 52.1137C314.653 52.0647 313.917 50.7414 313.328 49.222C313.23 47.6537 313.23 45.2522 313.476 43.6838C313.377 43.6838 312.151 44.7621 312.102 44.7621C311.267 45.4972 309.795 46.6245 307.538 45.9873C306.262 46.5755 304.152 44.7131 302.926 44.419C301.159 42.7036 300.816 39.2239 300.816 36.8714C300.816 34.9599 301.503 33.6857 301.944 32.0193C303.711 27.5103 308.372 23.7855 312.936 24.8638C312.887 24.4227 312.887 20.0117 312.936 19.5216C312.298 16.63 313.083 13.5423 312.347 10.7977V9.71948C312.347 8.78828 312.249 8.15114 312.445 7.17093C313.23 5.79864 314.359 5.11249 315.438 5.01447C316.959 4.86743 318.333 5.84765 318.53 7.66104C318.628 8.3962 318.481 9.27839 318.088 10.2586C317.892 13.5913 318.039 16.0909 318.775 18.3944C318.432 21.531 318.579 27.9514 318.579 30.549C319.217 35.401 318.775 41.0373 318.922 45.6443ZM313.132 32.4114C312.887 32.2644 313.23 31.1861 312.936 30.8431C312.74 30.647 311.562 31.0881 311.316 30.8431C309.844 31.0881 308.618 32.2644 307.44 33.7347C306.851 35.5971 306.41 36.5773 306.704 37.9986C306.851 39.665 308.078 40.2531 308.961 40.3021C309.795 40.3511 310.63 39.91 311.316 39.665C311.954 39.4689 312.494 38.5377 313.132 38.3417C313.23 36.5773 313.132 34.2248 313.132 32.4114Z" stroke="#24265B" stroke-width="10" mask="url(#path-1-outside-1)"/>
<path d="M19.5636 84.6424C19.6313 85.3453 19.5297 87.9559 19.191 88.9935C18.8523 89.9641 18.5814 90.0979 18.0733 90.9681C17.5314 91.8049 16.8202 92.4743 15.7364 92.809C15.1945 93.0767 14.3817 93.1771 13.5011 93.2441C12.8914 93.311 12.2479 93.4449 11.6383 93.2775C11.0964 93.1771 10.2497 93.1437 9.7078 92.809C9.03042 92.3404 9.03043 90.1984 9.87714 89.8637C9.91101 88.2906 9.33524 84.6424 8.92882 83.6718C9.13203 82.2996 7.47247 77.1788 7.16765 75.5388C6.3548 75.6057 6.2532 76.0073 5.27101 75.1371C4.76298 74.4008 5.13553 73.7649 5.50809 72.8277C6.45641 71.991 7.64181 71.3216 8.92882 70.9535C10.1481 70.5184 11.4012 70.5184 12.5866 70.5184C13.1963 70.5184 14.043 70.8865 14.7204 71.0204L16.4138 72.7608C17.1589 73.5306 17.3621 75.2375 17.1589 76.342C17.1589 77.2792 16.6509 78.5845 16.0412 79.5551C16.4477 79.7559 17.3621 79.9233 18.0733 80.6261C18.8523 81.3959 19.6313 83.1028 19.5636 84.6424ZM16.1767 84.2073C16.109 83.6718 15.6687 83.2367 15.1606 82.9355C14.6526 82.7347 13.0608 82.6677 12.5866 82.8351V82.8686C12.5528 82.902 12.5866 83.1698 12.6205 83.4041C12.6882 83.6049 12.8914 84.7763 12.7898 85.2784L13.264 88.2571C13.1963 88.5249 13.264 89.3951 13.2979 89.6628C13.8059 89.7298 15.1268 89.1273 15.3977 88.9265C16.109 87.9894 16.4138 86.0816 16.1767 84.2073ZM14.2462 76.1412C14.1107 75.8065 13.2301 74.4343 12.9592 74.3673C11.7738 73.9322 11.7738 74.0996 10.7577 74.3673C10.7916 74.8024 11.6722 78.3167 11.8415 78.9192C12.2479 78.6849 13.6366 78.8188 13.6366 78.7853C13.772 78.4171 14.5171 76.7771 14.2462 76.1412ZM33.4303 76.0743C34.2093 78.8522 32.6175 79.4881 32.0079 80.8604C31.466 81.7306 28.5194 89.0269 28.4517 89.6628C27.842 90.5665 28.3162 91.4367 27.334 92.1396C26.9953 93.4784 26.2502 94.6498 26.1486 96.0555C25.2003 99.4694 24.2181 103.118 22.8633 105.393C22.186 107.134 20.1877 107.703 18.9007 104.858C18.1895 103.687 21.2715 98.6326 22.0505 95.2188C22.5246 93.2441 23.4391 91.0351 24.0826 89.0604C23.8794 88.8596 23.6762 88.6253 23.5746 88.3241C22.9988 87.4539 22.2198 86.0816 21.8473 85.1779C21.2038 83.5379 18.4265 82.3665 20.4587 79.3877C21.2715 78.8522 22.4908 78.1159 23.3714 78.9526C23.9471 80.0906 24.7938 81.1616 24.9632 82.4669L25.9792 84.5755C26.826 82.7347 27.9098 80.0237 28.3162 77.9151C28.9258 74.8359 31.3305 73.8318 33.4303 76.0743ZM59.7075 79.5551C59.5043 80.7265 58.0819 81.5298 57.9802 81.4294C56.9642 82.0653 55.7449 81.6637 54.5934 81.7641C54.6611 81.9984 54.7289 82.2661 54.7289 82.5004C55.1353 84.3412 55.8804 86.3828 55.982 88.2906C56.6932 90.1984 56.3546 92.2065 56.1852 94.1477C55.474 95.3526 55.9481 96.5575 54.6611 97.729C53.408 99.2016 51.7146 100.005 49.6147 100.507C48.5986 99.9045 47.7181 100.942 46.2956 100.072C45.2456 100.038 44.4328 99.369 43.9925 98.4988L44.0264 97.2939C44.2973 96.4906 44.5344 96.1894 45.2795 95.7208C46.4988 95.2857 47.2778 96.089 48.3954 96.4571C51.7484 96.7584 52.9338 93.6122 52.5274 90.8008C52.3242 89.1943 51.85 87.6212 51.7484 86.1486C51.3759 84.9437 50.8678 83.471 50.8001 82.1657C48.9035 82.2996 46.0246 83.6718 44.907 81.329C44.5005 79.053 45.8892 78.9192 47.21 78.7518C50.1227 78.7184 52.9677 78.3837 55.8804 77.9151C56.6932 77.8147 57.6416 77.7477 58.7592 78.0824C59.3689 78.3167 59.4366 79.1535 59.7075 79.5551ZM73.6759 86.5502C73.0324 87.0522 72.4905 88.7926 71.5083 89.0939C70.5261 89.8302 69.3746 90.2988 68.0199 90.1314C66.699 90.2318 65.4797 89.9306 64.8701 89.1273C63.9895 88.391 63.3121 87.3535 62.6686 86.3159C61.7542 84.9102 61.6526 82.8016 62.2283 81.0612C62.059 80.5257 62.6348 79.9902 62.9734 79.5886C63.4476 78.8188 64.1588 78.1828 65.0394 77.8481C65.5475 77.6808 66.0894 77.5804 66.699 77.413C68.4602 77.2122 69.8488 78.049 71.3729 78.7184C74.2856 80.5257 73.8453 83.7053 73.6759 86.5502ZM70.2552 83.1363C69.5101 82.4335 69.5778 80.8604 67.3086 80.8604C66.8345 81.0612 65.8861 80.7935 65.8861 81.5967C65.6829 82.1322 65.6491 83.0359 65.5813 83.5379C65.7507 84.542 66.1571 85.3788 66.9361 86.1151C67.0716 86.182 67.207 86.2155 67.2748 86.3159C68.1553 86.8514 69.5778 86.182 70.052 85.4457C70.5262 84.9771 70.3229 83.7053 70.2552 83.1363ZM87.8814 82.333V88.6253C87.8814 90.031 88.4233 90.7339 87.0347 91.8384C85.6461 92.1396 85.3751 92.3739 84.7316 91.7045C83.5801 90.533 81.5141 87.7886 80.2271 86.7845C79.7529 85.8139 79.7529 86.0816 79.6852 85.9812V86.3159C79.6852 87.5877 80.2271 89.2277 80.261 90.4661V91.102C80.2948 91.8384 80.7351 92.3069 80.0577 92.9428C78.9739 93.9135 78.0595 94.6163 76.8402 93.1771C76.7386 91.4033 76.5693 89.5624 76.2983 87.7551C76.0612 86.3159 75.7903 84.8767 75.6887 83.4375C75.2823 82.8351 75.3839 82.1992 75.6887 81.5967L75.8919 81.3959C75.7903 78.7853 78.7707 79.053 80.0916 80.7265C80.3964 81.1281 80.7012 81.5298 81.0738 81.7975C81.7173 82.969 83.9865 85.1779 84.6639 86.3159L84.3252 84.2408C84.3591 82.7012 83.6139 81.3624 83.9865 79.9233C84.1897 78.9192 84.9687 78.6179 85.8493 78.2833C88.9652 78.8857 87.5766 81.1616 87.8814 82.333ZM102.426 90.8343C102.426 92.0057 101.782 92.8759 100.427 93.311C99.3435 93.1437 98.7339 92.5412 98.7339 91.9722C98.7339 91.5706 98.8693 91.3363 98.8693 90.3992C98.8693 90.2988 98.8355 90.2653 98.8355 90.2653C98.3274 91.2359 96.5324 92.0392 95.0083 92.0392C93.1794 92.0392 92.1634 90.4326 91.6215 90.1649C90.7409 89.7298 90.6054 88.0898 90.5377 87.253C90.8764 84.4416 91.7908 83.7053 92.8069 82.8351L93.1117 82.7682C93.281 82.6677 93.1117 82.5339 93.3149 82.4335C93.8568 82.1992 94.6358 82.0653 95.4825 82.0653C96.4647 82.0653 97.5485 82.2326 98.4629 82.5339C98.5307 81.5633 98.3952 80.2914 98.2597 79.3543C97.7178 78.6179 97.3791 78.4506 96.8372 78.4506C95.347 78.4506 94.3987 80.5592 93.2471 80.5592C91.7908 80.5592 91.0118 79.5216 91.0118 78.551C91.0118 78.1159 91.8585 77.0784 92.265 76.8441C92.3327 76.8775 92.6036 76.8441 92.6714 76.8441C92.8069 76.8441 92.773 76.8106 92.9762 76.6098C94.1277 75.6057 94.9406 75.0367 97.0743 75.0367C98.7677 75.0367 99.716 75.5053 100.563 76.3755C102.188 78.0155 102.053 79.689 102.155 81.6971C102.188 82.1992 102.053 83.0694 102.087 83.5379L102.324 88.9265C102.358 89.5959 102.426 90.1984 102.426 90.8343ZM98.5984 86.7175C98.5984 85.6465 97.5485 84.8433 96.3969 84.8433C95.2115 84.8433 94.0261 85.5461 94.0261 86.8849C94.0261 88.0898 95.5841 88.893 96.4647 88.893C97.6162 88.893 98.5984 87.9559 98.5984 86.7175ZM116.563 82.6008C116.258 83.1028 116.055 83.3706 115.818 83.5045C115.446 83.7722 115.039 83.7388 114.43 83.6384C114.43 83.6384 112.939 83.973 111.72 84.1404C111.822 85.1445 111.72 86.4163 111.788 87.6212C111.788 87.9559 111.923 88.0898 111.957 88.391C111.957 88.6922 111.856 89.0939 111.889 89.3616C111.957 90.533 111.991 91.6041 111.889 92.1396C111.991 92.4408 111.991 93.5118 111.991 93.7796C112.194 94.0473 112.601 94.5159 113.143 94.0808C113.583 93.7461 114.057 92.5077 114.531 92.24C114.904 91.9722 115.242 91.9388 115.446 92.0392C117.647 92.4408 116.326 95.9551 116.123 96.1559C115.988 96.3567 115.107 97.3943 113.955 97.9298C113.278 98.231 112.296 98.0971 111.822 98.1641C110.941 98.3983 109.959 97.8294 109.383 97.3608C109.011 97.1935 108.536 96.2228 108.536 95.52C108.536 93.3445 108.333 91.5706 108.265 89.6628C108.265 89.2612 108.503 88.7926 108.503 88.3575C108.503 87.9894 108.299 87.6547 108.299 87.2865V85.8473C108.164 85.2784 108.232 84.8433 108.299 84.4081C107.486 84.5086 107.08 84.609 106.03 84.4751C105.183 84.04 104.337 84.2408 104.235 82.8351C104.167 81.9649 104.574 81.262 105.285 80.4922C105.59 80.191 105.929 79.9902 106.199 79.9233C106.911 79.7894 107.588 80.191 108.401 79.9902C108.435 78.8522 108.367 77.7477 108.333 76.6433C108.299 76.0408 108.164 75.5053 108.164 74.9028C108.164 74.8024 108.299 74.6351 108.299 74.5347C108.299 74.3673 108.13 74.2 108.13 74.0661C108.164 73.4971 108.367 72.9281 108.503 72.3926C109.349 71.1543 110.501 70.4514 111.754 71.2212C112.126 71.7567 112.296 72.1918 112.364 72.6269C112.533 73.6979 111.889 74.5682 112.093 75.773C112.059 75.9739 111.991 79.1869 111.991 79.7224C113.176 79.5551 114.362 78.7184 115.513 79.4212C116.157 80.3249 116.766 81.4963 116.563 82.6008ZM131.446 93.6792C131.615 94.2147 130.87 94.6833 130.464 94.8841C127.483 95.3861 127.856 94.5828 127.483 92.3404C127.213 91.0016 127.45 89.6963 126.84 88.4245C126.908 87.2865 126.975 85.0441 126.196 84.1404C125.79 84.0735 125.147 83.973 124.401 84.1069C123.521 84.6759 123.69 86.8514 123.724 87.7551C123.758 88.0228 123.724 88.3241 123.758 88.6253C123.792 88.9935 123.927 89.3616 123.961 89.7298C124.063 90.4996 124.063 91.2694 124.164 92.0392C124.198 92.4073 124.334 92.809 124.368 93.1437C124.469 94.1477 123.961 94.7167 123.182 95.2188C119.524 95.8212 120.71 93.3445 120.032 91.6375C120.202 90.8343 119.965 90.1314 119.829 89.3616L119.761 88.6588C119.728 88.2906 119.626 87.9894 119.592 87.6212C119.423 86.8179 119.355 86.0147 119.287 85.2449C119.152 82.8016 119.016 77.9151 119.05 75.3714C119.05 74.5012 118.712 73.8653 118.779 72.9951C118.678 72.6939 118.373 69.782 118.373 69.4139C118.271 69.1796 118.203 68.9453 118.17 68.6775C118.441 67.9077 119.016 66.6024 119.931 66.3682C120.066 66.3347 120.405 66.3347 120.608 66.3682C121.624 66.4686 122.166 67.3388 122.369 68.2759C122.505 68.8449 122.64 69.4139 122.539 69.9828C122.573 70.0163 122.776 72.2253 122.606 72.3592C122.64 74.5012 122.302 78.8188 122.843 80.6596C123.318 80.4588 123.792 80.2579 124.3 80.0906C124.334 80.0237 125.688 79.7894 125.79 79.7894C127.179 79.8898 128.127 80.3249 128.906 81.4628C129.211 81.8979 129.583 82.4335 129.854 82.9355C130.633 84.3077 130.836 86.0147 130.667 87.5877C130.972 88.5918 130.938 89.6963 130.836 90.7004C131.277 91.5706 131.175 92.742 131.446 93.6792ZM145.042 90.8343C145.042 92.0057 144.398 92.8759 143.044 93.311C141.96 93.1437 141.35 92.5412 141.35 91.9722C141.35 91.5706 141.486 91.3363 141.486 90.3992C141.486 90.2988 141.452 90.2653 141.452 90.2653C140.944 91.2359 139.149 92.0392 137.625 92.0392C135.796 92.0392 134.78 90.4326 134.238 90.1649C133.357 89.7298 133.222 88.0898 133.154 87.253C133.493 84.4416 134.407 83.7053 135.423 82.8351L135.728 82.7682C135.897 82.6677 135.728 82.5339 135.931 82.4335C136.473 82.1992 137.252 82.0653 138.099 82.0653C139.081 82.0653 140.165 82.2326 141.079 82.5339C141.147 81.5633 141.012 80.2914 140.876 79.3543C140.334 78.6179 139.996 78.4506 139.454 78.4506C137.963 78.4506 137.015 80.5592 135.864 80.5592C134.407 80.5592 133.628 79.5216 133.628 78.551C133.628 78.1159 134.475 77.0784 134.881 76.8441C134.949 76.8775 135.22 76.8441 135.288 76.8441C135.423 76.8441 135.389 76.8106 135.593 76.6098C136.744 75.6057 137.557 75.0367 139.691 75.0367C141.384 75.0367 142.332 75.5053 143.179 76.3755C144.805 78.0155 144.669 79.689 144.771 81.6971C144.805 82.1992 144.669 83.0694 144.703 83.5379L144.94 88.9265C144.974 89.5959 145.042 90.1984 145.042 90.8343ZM141.215 86.7175C141.215 85.6465 140.165 84.8433 139.013 84.8433C137.828 84.8433 136.643 85.5461 136.643 86.8849C136.643 88.0898 138.2 88.893 139.081 88.893C140.233 88.893 141.215 87.9559 141.215 86.7175ZM159.586 82.333V88.6253C159.586 90.031 160.128 90.7339 158.739 91.8384C157.351 92.1396 157.08 92.3739 156.436 91.7045C155.285 90.533 153.219 87.7886 151.932 86.7845C151.458 85.8139 151.458 86.0816 151.39 85.9812V86.3159C151.39 87.5877 151.932 89.2277 151.966 90.4661V91.102C152 91.8384 152.44 92.3069 151.762 92.9428C150.679 93.9135 149.764 94.6163 148.545 93.1771C148.443 91.4033 148.274 89.5624 148.003 87.7551C147.766 86.3159 147.495 84.8767 147.393 83.4375C146.987 82.8351 147.089 82.1992 147.393 81.5967L147.597 81.3959C147.495 78.7853 150.475 79.053 151.796 80.7265C152.101 81.1281 152.406 81.5298 152.779 81.7975C153.422 82.969 155.691 85.1779 156.369 86.3159L156.03 84.2408C156.064 82.7012 155.319 81.3624 155.691 79.9233C155.894 78.9192 156.673 78.6179 157.554 78.2833C160.67 78.8857 159.281 81.1616 159.586 82.333ZM193.416 88.5584C193.89 89.7967 193.551 91.671 192.874 92.6416L191.452 93.1437C189.657 92.5077 189.589 91.2024 189.758 90.4326C189.657 89.0939 189.521 87.822 189.453 86.5167C188.945 85.68 189.081 83.0024 188.573 82.2326L188.403 80.9943C188.031 81.5967 187.76 82.1657 187.15 82.8686C186.981 83.6049 185.254 85.7804 184.746 86.2824C184.712 86.3159 184.542 86.182 184.542 86.249C185.186 87.6882 183.933 88.3241 182.984 88.893C181.189 88.3241 180.885 87.0857 179.97 86.4833C179.394 85.9477 177.667 83.8392 177.057 83.1363C177.024 83.3371 176.956 83.5379 176.854 83.7722C176.38 86.0481 176.143 90.7673 175.33 92.5412C174.856 92.7755 174.822 92.809 174.788 92.809L174.551 92.9763C174.382 93.0767 173.467 93.5453 172.621 92.6416C171.503 91.9388 172.214 89.6963 172.113 89.1943C172.316 88.391 173.4 79.3543 173.264 78.9192C172.892 77.8481 172.553 77.0784 173.366 76.0408C173.908 75.1037 175.262 74.1665 176.82 75.5388C177.735 76.5763 177.938 77.4465 178.514 78.5845C179.09 79.4212 181.494 82.2661 182.172 83.0024C182.883 82.0988 185.965 77.6808 186.236 76.8106C186.541 75.8065 186.845 74.9028 188.031 74.4677C189.386 73.9657 190.266 74.6351 191.079 75.5053C192.772 77.3126 191.689 79.12 192.4 80.8939C192.603 83.0024 193.687 86.3159 193.416 88.5584ZM208.062 90.8343C208.062 92.0057 207.418 92.8759 206.064 93.311C204.98 93.1437 204.37 92.5412 204.37 91.9722C204.37 91.5706 204.506 91.3363 204.506 90.3992C204.506 90.2988 204.472 90.2653 204.472 90.2653C203.964 91.2359 202.169 92.0392 200.645 92.0392C198.816 92.0392 197.8 90.4326 197.258 90.1649C196.377 89.7298 196.242 88.0898 196.174 87.253C196.513 84.4416 197.427 83.7053 198.443 82.8351L198.748 82.7682C198.917 82.6677 198.748 82.5339 198.951 82.4335C199.493 82.1992 200.272 82.0653 201.119 82.0653C202.101 82.0653 203.185 82.2326 204.099 82.5339C204.167 81.5633 204.031 80.2914 203.896 79.3543C203.354 78.6179 203.015 78.4506 202.473 78.4506C200.983 78.4506 200.035 80.5592 198.883 80.5592C197.427 80.5592 196.648 79.5216 196.648 78.551C196.648 78.1159 197.495 77.0784 197.901 76.8441C197.969 76.8775 198.24 76.8441 198.308 76.8441C198.443 76.8441 198.409 76.8106 198.612 76.6098C199.764 75.6057 200.577 75.0367 202.711 75.0367C204.404 75.0367 205.352 75.5053 206.199 76.3755C207.825 78.0155 207.689 79.689 207.791 81.6971C207.825 82.1992 207.689 83.0694 207.723 83.5379L207.96 88.9265C207.994 89.5959 208.062 90.1984 208.062 90.8343ZM204.235 86.7175C204.235 85.6465 203.185 84.8433 202.033 84.8433C200.848 84.8433 199.662 85.5461 199.662 86.8849C199.662 88.0898 201.22 88.893 202.101 88.893C203.252 88.893 204.235 87.9559 204.235 86.7175ZM221.759 90.031C221.962 91.2694 222.03 92.2065 220.845 93.0767C219.998 93.2775 219.592 93.9469 218.711 93.2775C217.966 92.4408 217.458 90.8343 216.916 89.7633C216.543 89.0939 214.918 86.182 214.308 85.4457C214.274 86.5837 214.071 91.2694 214.173 92.4408C214.274 93.2441 214.037 93.7796 213.8 94.4824C213.089 95.0849 212.716 95.453 211.734 94.7167C211.463 94.6163 211.328 94.3486 211.091 94.1477C211.091 91.7379 211.023 90.3992 210.921 88.96C210.752 87.6212 211.124 85.3118 211.091 83.9061C210.684 83.4041 210.752 82.4335 211.294 81.9984C211.26 80.8269 212.107 80.1241 213.123 80.1575C213.868 80.1575 214.681 80.5257 215.324 81.4294C215.629 81.831 215.866 82.1322 216.272 82.4669C216.577 83.6049 218.169 86.3494 218.745 87.32C218.745 87.2865 218.88 83.9396 218.914 83.8726C218.948 82.2326 218.034 81.0612 218.271 79.3543C218.542 78.3167 219.219 78.1494 220.032 77.8481C221.048 78.0155 221.556 78.4506 221.759 78.9192C222.199 79.8563 221.658 81.0612 221.962 81.7306C221.929 83.8726 221.793 88.1233 221.759 90.031ZM236.676 82.333V88.6253C236.676 90.031 237.218 90.7339 235.829 91.8384C234.441 92.1396 234.17 92.3739 233.526 91.7045C232.375 90.533 230.309 87.7886 229.022 86.7845C228.547 85.8139 228.547 86.0816 228.48 85.9812V86.3159C228.48 87.5877 229.022 89.2277 229.055 90.4661V91.102C229.089 91.8384 229.53 92.3069 228.852 92.9428C227.768 93.9135 226.854 94.6163 225.635 93.1771C225.533 91.4033 225.364 89.5624 225.093 87.7551C224.856 86.3159 224.585 84.8767 224.483 83.4375C224.077 82.8351 224.178 82.1992 224.483 81.5967L224.686 81.3959C224.585 78.7853 227.565 79.053 228.886 80.7265C229.191 81.1281 229.496 81.5298 229.868 81.7975C230.512 82.969 232.781 85.1779 233.458 86.3159L233.12 84.2408C233.154 82.7012 232.408 81.3624 232.781 79.9233C232.984 78.9192 233.763 78.6179 234.644 78.2833C237.76 78.8857 236.371 81.1616 236.676 82.333Z" fill="#24265B"/>
</svg>
