<svg id="Shadow" xmlns="http://www.w3.org/2000/svg" viewBox="0 0 455.73 692.02"><defs><style>.cls-1,.cls-4{fill:#24265b;}.cls-1{opacity:0.1;isolation:isolate;}.cls-2{fill:#eeb9a9;}.cls-2,.cls-3,.cls-4,.cls-5,.cls-6{stroke:#24265b;stroke-linecap:round;stroke-linejoin:round;stroke-width:3px;}.cls-3{fill:none;}.cls-5{fill:#cc2929;}.cls-6{fill:#fff;}</style></defs><title>topic_videogames</title><path class="cls-1" d="M178.68,625.83C163.84,625.83,0,638.6,0,652.18s61.23,34,98.35,34,64.22-12.66,84-12.66S266.42,692,289.71,692s37.87-25.8,48.53-23.91,117.49,22,117.49,6.38S381.48,655.86,371,651.12s-2.87-6.29-10.22-12.4-39.79-11-53.61-11S229.35,640,216.45,640,193.56,625.83,178.68,625.83Z"/><path class="cls-2" d="M190.79,619c1.8-20,7.09-66.93,11.32-105.11,4.64-41.82,26.61-111.68,28.12-117.46a78.66,78.66,0,0,1,8.92-1.43c1.25,4.65,10,46.83,16.12,93.68s9.44,126,9.44,126a18.65,18.65,0,0,1,0,8.18c-2.39,8.37,7,4.76,14.68,10.08,3.64,2.53,7.26,4.17,11.1,3.3a4.27,4.27,0,0,0,5.77-1.77l.08-.15a6,6,0,0,1,5.15-1.58,3.11,3.11,0,0,0,2.71-3.27,2.8,2.8,0,0,0,2.75-3.68,1.85,1.85,0,0,0-1.1-3.48,6.49,6.49,0,0,1-1.78.23c-3.9-2.4-26.24-5.82-27.4-9.66,0,0,7.68-77.55,10.12-115.53.69-10.78,4-89.52.9-118-7.53-70.4-7.53-97.42-6.16-130.23,1.41,6.14,18.84,7.93,20.38-4.52s-2.84-99.56-20-112.6c-8.88-6.75-37-8.65-40.65-19.32a40.79,40.79,0,0,1-1.34-5.36,32.43,32.43,0,0,1-10.13,1.33c-7.17,0-21.4-8.49-27.42-14.87v1.88c0,15-11.79,25-25.06,28.49C161.74,128.23,149,137.43,143.82,153S124,226.08,124,266.51c0,10.41,29.34,11.88,28.84-2.79-.32-9.24,13.63-40.08,18.21-56.13,3.56,28.44,19.6,50,9.36,109.51-7.39,43,2.37,71.47,1.69,75.22s-5.72,57.71-7.43,120.61c-.89,32.36,4.45,103.46,4.06,105.75"/><path class="cls-2" d="M292.41,630.29c1.81,0,4.71.9,3.92,4"/><path class="cls-2" d="M297.82,629.07a2.86,2.86,0,0,1,2.5,3.53"/><path class="cls-2" d="M301.48,626.69a2.86,2.86,0,0,1,2.5,3.53"/><path class="cls-2" d="M302.28,624c2,.28,4.55,1.19,4.67,1.71"/><path class="cls-2" d="M281.5,169.9c1.49,22,2.27,37.69,0,79.19"/><path class="cls-3" d="M245.54,171.1c4.68,1,7.88,7.09,4.76,11.15-1.87,2.44-6,1.88-7.19,1.43s-3.07-.72-3.56-2.89c-.58-2.58,2.12-3.86,3.5-2.61s.81,3.67.06,5.51a7.35,7.35,0,0,1-7.46,4c-4.29-.42-5.9-4.9-4.33-9.53"/><path class="cls-3" d="M252.35,169.22c3.88-3.19,15.4,4.54,7,10.18"/><path class="cls-3" d="M224.27,181.83c2.9,2.26-.75,11.73-6.14,6.63"/><path class="cls-3" d="M245.57,199.16c1.89,3.34-.1,8.51-4.2,8.79-2.47.17-4.29-2.59-4.68-3.58s-1.19-2.23-.14-3.68a1.84,1.84,0,0,1,3.44.72c0,1.5-1.78,2.44-3.29,3a5.91,5.91,0,0,1-6.39-2.37c-2-2.81-.17-6.16,3.45-7.67"/><path class="cls-3" d="M250.28,208.63c2.86.46,5,4.07,3.19,6.61-1.06,1.53-3.55,1.3-4.31,1.06s-1.88-.35-2.23-1.65a1.39,1.39,0,0,1,2-1.68c.87.72.59,2.2.19,3.33a4.45,4.45,0,0,1-4.4,2.64c-2.61-.13-3.71-2.8-2.89-5.65"/><path class="cls-3" d="M246.87,193c4.14-2.85,15,5.83,6.09,10.73"/><path class="cls-3" d="M217.12,205.5c-2-3.09,4.57-10.83,8-4.24"/><path class="cls-3" d="M225.26,170.53c1.47-5.23,16.47-5.5,12.48,4.71"/><path class="cls-3" d="M235,209.9c-.11,3.68-9.9,6.32-9-1"/><path class="cls-3" d="M256,188.38c2.54-2.66,11.59,1.93,6,6.77"/><path class="cls-2" d="M178.52,176.83c-1.42,8.61-5.21,21.77-7.47,30.74"/><path class="cls-3" d="M245.54,171.1c4.68,1,7.88,7.09,4.76,11.15-1.87,2.44-6,1.88-7.19,1.43s-3.07-.72-3.56-2.89c-.58-2.58,2.12-3.86,3.5-2.61s.81,3.67.06,5.51a7.35,7.35,0,0,1-7.46,4c-4.29-.42-5.9-4.9-4.33-9.53"/><path class="cls-3" d="M252.35,169.22c3.88-3.19,15.4,4.54,7,10.18"/><path class="cls-3" d="M224.27,181.83c2.9,2.26-.75,11.73-6.14,6.63"/><path class="cls-3" d="M245.57,199.16c1.89,3.34-.1,8.51-4.2,8.79-2.47.17-4.29-2.59-4.68-3.58s-1.19-2.23-.14-3.68a1.84,1.84,0,0,1,3.44.72c0,1.5-1.78,2.44-3.29,3a5.91,5.91,0,0,1-6.39-2.37c-2-2.81-.17-6.16,3.45-7.67"/><path class="cls-3" d="M250.28,208.63c2.86.46,5,4.07,3.19,6.61-1.06,1.53-3.55,1.3-4.31,1.06s-1.88-.35-2.23-1.65a1.39,1.39,0,0,1,2-1.68c.87.72.59,2.2.19,3.33a4.45,4.45,0,0,1-4.4,2.64c-2.61-.13-3.71-2.8-2.89-5.65"/><path class="cls-3" d="M246.87,193c4.14-2.85,15,5.83,6.09,10.73"/><path class="cls-3" d="M217.12,205.5c-2-3.09,4.57-10.83,8-4.24"/><path class="cls-3" d="M225.26,170.53c1.47-5.23,16.47-5.5,12.48,4.71"/><path class="cls-3" d="M235,209.9c-.11,3.68-9.9,6.32-9-1"/><path class="cls-3" d="M256,188.38c2.54-2.66,11.59,1.93,6,6.77"/><path class="cls-4" d="M283,162.78s1.75,8.95,2,11.89c.23,2.45-5.58,8-5.58,8s-6.37-3.79-6.94-6.4-1.28-12.61-1.28-12.61Z"/><path class="cls-4" d="M198.68,167s.82,9.09,1.42,12c.5,2.43,8.73,6.23,8.73,6.23s6-5.35,5.78-8-2.49-12.5-2.49-12.5Z"/><polygon class="cls-4" points="273.48 182.25 273.83 186.92 284.37 186.32 284.37 181.83 273.48 182.25"/><polygon class="cls-4" points="200.23 184.49 200.59 189.17 214.63 187.74 214.63 183.26 200.23 184.49"/><path class="cls-5" d="M240.46,3.2c-24.41-6.14-47,4.57-52.32,28.89-1,4.55-4.38,11.44-8.51,13.86-8.11,4.76-3.4,21.08,6.8,23.05,0,0-.88-5.8,3.85-6.95,3.26-.79,7.27.24,6.28.58,0,0,8-16.21,22.16-21.34s32.53-11.92,42.55-7.72C261.76,24.28,254,6.59,240.46,3.2Z"/><path class="cls-6" d="M255.68,17.46c2.38,5.71.49,11.52-4.35,12-7.4.65-15.06-2.93-17.27-9.44-2-5.79.57-13.18,7.13-13.34C246.9,6.48,253.59,12.51,255.68,17.46Z"/><path class="cls-5" d="M252.88,24.43c-22.87-.34-46.42,15.24-47.87,27"/><path class="cls-5" d="M196.55,62.63c6.18-8.1,10.77-15.42,16.82-19.14,10.36-6.38,26-24,50.92-17.75,8.62,2.17,12.57,9.76,10.9,16.43-2.25,9-9.38,11.79-16,13.48,0,0-1.62-16.19-14.3-19.38S205.22,52.83,196.55,62.63Z"/><path class="cls-5" d="M237.83,20.18l3.85,3.06s2.59-5.46,2.57-7.3c.89,1.32,2.28,2.61,3,3.84a10.37,10.37,0,0,0,1.8-3.26c.66,1.27,2.73,6.6,2.73,7.81,1.66-.1,3.84-.42,3.84-.42s-3.13-8.7-6.57-12.52a24.34,24.34,0,0,0-2.17,2.75s-4.32-3.9-5.35-4.65C240.68,12.34,237.83,20.18,237.83,20.18Z"/><path class="cls-5" d="M217.12,192.46c6.94,5.64,48.34,5.36,54.39-1.18,0-1.51-.16-4.39,2.17-5.11a23,23,0,0,1,10.69-.58c1.15.25,1.71,2.16,1.87,4.56,1.81,27.22-.68,48.58-3,59-3,13.47,9.11,95.72,11.2,151.9,2.14,57.54,2.4,148.62-.56,157.87-10.76,1.1-30.33,2.13-40.29-1.78.21-19.86,1.34-105.62-12.45-147.14-1.9-1.16-8.64-1.51-11.32,0-10.76,39.38-17.44,109.81-16.44,143.23-8.78,2.73-38.72.71-45.12-1.42-5.18-122.31,11.41-152.19,6.08-167.27-8.88-25.12-1.74-67.52-.28-83.71.58-6.46,5.15-10,9.92-10.12,18.13-.45,23.54-23.63,21-49.58-2.13-22.22-4.78-42-6.41-47.2-.36-1.14-.67-3.9,2-4.72a49.52,49.52,0,0,1,14-1.42C216.78,187.83,217,190.83,217.12,192.46Z"/><path class="cls-5" d="M170.14,127.06c8.45-3.4,24,16.12,26.29,36.8.76,7.07,17.47,3.55,17.3-1.42-.48-14.4-8.82-34.49-25.8-43.38C182.68,116.28,168,125.1,170.14,127.06Z"/><path class="cls-5" d="M247.68,118.28c7.69,2.91,22.19,26.73,22.19,42.91,0,3.91,13,4.78,13.27,1.42,1.18-16.53-10-33.17-15.85-39.39C262.68,118.23,248.92,114.83,247.68,118.28Z"/><path class="cls-5" d="M220.5,216.12c14.22,2.38,38.29,1.24,52-2.33,2.71-.7,4.83.32,5.24,2.39.51,2.61.58,48.68-6.54,58.43-11.8,16.15-48.07,15.82-52.08,5.63-2.61-6.65,4-32.3-1-59.08C217.68,218.5,218.46,215.83,220.5,216.12Z"/><path class="cls-4" d="M187.68,73.42s-2.71,1.64-4.49.53c-1.07,2.8,1.51,7.56,4.49,7.49-.93,2.06-2.49,4.71-4.73,5,1.67,2.41,8,3.18,10,1.73-1.57,4.24-2.73,9.1-5,10.4,4.14-.12,9.06.36,11.58-3.32a9.76,9.76,0,0,1-3.78,8.54c3.1.7,7.87-4.27,7.87-4.27l.35-5a27.65,27.65,0,0,1-2.86-5L199.36,78S190.27,80.65,187.68,73.42Z"/><path class="cls-4" d="M203.58,51.83c-1.21,7-2.78,19.32,6.11,28.46,1.43,1.47-5.94-.47-8.27-2s-3.29-10.8-3.14-17.87C199.5,56.65,203.58,51.83,203.58,51.83Z"/><path class="cls-4" d="M258.52,62.31s.71,5.28,5.54,5c.39,5-2.13,4.9-3.91,6.09a5.68,5.68,0,0,1,1.71,6.1c-2.63-2.24-4.71-.73-4.71-.73Z"/><path class="cls-3" d="M234.19,144c4.68,1,7.88,7.09,4.76,11.15-1.87,2.44-6,1.88-7.19,1.43s-3.07-.72-3.56-2.89c-.58-2.58,2.12-3.86,3.5-2.61s.81,3.67.06,5.51a7.35,7.35,0,0,1-7.46,4c-4.29-.42-5.9-4.9-4.33-9.53"/><path class="cls-2" d="M178.68,618.68c-.67,4-22.41,10.15-26,13a6.5,6.5,0,0,1-1.8,0,1.85,1.85,0,0,0-.66,3.59,3,3,0,0,0,3.19,3.35,6.42,6.42,0,0,0,8.2,3.9l.21-.08a4.26,4.26,0,0,0,5.9,1.24l.1-.07c3.93.39,7.31-1.69,10.6-4.67,6.9-6.23,16.72-3.84,13.3-11.84a18.65,18.65,0,0,1-1-8.12"/><path class="cls-2" d="M165.28,638c-1.79.27-4.56,1.48-3.39,4.43"/><path class="cls-2" d="M159.77,637.45a2.86,2.86,0,0,0-2,3.82"/><path class="cls-2" d="M155.84,635.54a2.86,2.86,0,0,0-2,3.82"/><path class="cls-2" d="M154.68,633c-2,.53-4.37,1.75-4.42,2.28"/></svg>