<svg id="Shadow" xmlns="http://www.w3.org/2000/svg" viewBox="0 0 580.73 679.9"><defs><style>.cls-1,.cls-4,.cls-6,.cls-8{fill:#24265b;}.cls-1{opacity:0.1;isolation:isolate;}.cls-2{fill:#eeb9a9;}.cls-2,.cls-3,.cls-4,.cls-6,.cls-7,.cls-9{stroke:#24265b;stroke-linecap:round;stroke-linejoin:round;}.cls-2,.cls-3,.cls-6,.cls-9{stroke-width:3px;}.cls-3{fill:none;}.cls-4{stroke-width:9px;}.cls-5{fill:#d6cf90;}.cls-7{fill:#fff;stroke-width:2.55px;}.cls-9{fill:#cc8a29;}</style></defs><title>topic_tv</title><path class="cls-1" d="M303.68,613.71c-14.84,0-178.68,12.77-178.68,26.35s61.23,34,98.35,34,64.22-12.66,84-12.66,84.07,18.5,107.36,18.5,37.87-25.8,48.53-23.91,117.49,22,117.49,6.38S506.48,643.74,496,639s-2.87-6.29-10.22-12.4S424,611.14,410.14,611.14s-55.79,16.73-68.69,16.73S318.56,613.71,303.68,613.71Z"/><path class="cls-2" d="M412.68,367.2c-7.53-70.4-7.53-97.42-6.16-130.23,1.41,6.14,18.84,7.93,20.38-4.52s-2.84-99.56-20-112.6c-8.88-6.75-37-8.65-40.65-19.32a41.18,41.18,0,0,1-1.34-5.36,32.45,32.45,0,0,1-10.13,1.33c-7.17,0-21.4-8.49-27.42-14.87v1.88c0,15-11.79,25-25.06,28.49-15.57,4.12-28.35,13.32-33.49,28.87S249,214,249,254.4c0,10.41,29.34,11.88,28.84-2.79-.32-9.24,13.63-40.08,18.21-56.13,3.56,28.44,19.6,50.05,9.36,109.51C298,347.93,415.68,395.66,412.68,367.2Z"/><path class="cls-3" d="M359.19,131.9c4.68,1,7.88,7.09,4.76,11.15-1.87,2.44-5.95,1.88-7.19,1.43s-3.07-.72-3.56-2.89c-.58-2.58,2.12-3.86,3.5-2.61s.81,3.67.06,5.51a7.34,7.34,0,0,1-7.46,4c-4.29-.42-5.9-4.9-4.33-9.53"/><path class="cls-4" d="M5.88,10.5c0-2.66,2.56-6,7.53-6a21.28,21.28,0,0,1,3.87.72c.41-.14.83-.26,1.25-.36.87,0,2.82,2,2.82,4.12a1.62,1.62,0,0,1-1.5,1.73h0c-1.72,0-2.71-2.92-5.38-2.92A1.4,1.4,0,0,0,12.83,9a.5.5,0,0,0,0,.12c0,2,3.51,1.48,6.48,3.46a4.7,4.7,0,0,1,2.39,4.29c0,3-2.46,6.37-8.42,6.37a15.66,15.66,0,0,1-6-1.23c-1.23-.69-1.82-3.4-1.82-4.71a1.19,1.19,0,0,1,1-1.37h.12c1.82,0,1.51,4.07,6.22,4.07.56,0,2-.28,2-1.25,0-1.84-3.51-1.38-6.35-3.66A5.88,5.88,0,0,1,5.88,10.5Z"/><path class="cls-4" d="M30.51,17.3c0,1.72.72,2.13,1.41,2.13s1.25-.59,1.71-.59A1.17,1.17,0,0,1,34.5,20c0,1.69-2.92,3.17-5.5,3.17a4.32,4.32,0,0,1-4.58-4,3.87,3.87,0,0,1,0-.59V13.29a.84.84,0,0,0-.13-.72,3.35,3.35,0,0,0-1,0,2.17,2.17,0,0,1-1.13-.1,1.45,1.45,0,0,1-.13-1,.82.82,0,0,1,.23-.85L28.1,6.91a1.66,1.66,0,0,1,1.33-.28c1,0,1.07-.1,1.07,1.07a8,8,0,0,0,.08,1.89c.08.2.26.2.92.2h1.79c1.1,0,1.1.08,1.1,1.23,0,1.46-.18,1.56-1.18,1.56H31.44c-.9,0-1,0-1,.95v3.81Z"/><path class="cls-4" d="M48.05,16.71c0,4.5,1.54,2,1.54,3.43s-2,3-3.87,3S43.65,21.83,43,21.83a4,4,0,0,0-1.2.64,4.64,4.64,0,0,1-2.51.67c-2.12,0-4.25-1.13-4.25-3.66,0-1.82,1.74-4.07,6.25-4.07.79,0,1.15.05,1.15-.87s0-2.61-1.2-2.61c-1.54,0-1.69,2.76-4,2.76a1.38,1.38,0,0,1-1.43-1.33v-.08c0-2.18,4.33-3.58,6.76-3.58C44,9.7,48,10.26,48,14.1v2.61ZM40.37,19a1.24,1.24,0,0,0,1.06,1.38h0c1,0,1-1,1-1.82,0-.56,0-1.2-.69-1.2A1.56,1.56,0,0,0,40.37,19Z"/><path class="cls-4" d="M51.94,15.08c0-2.51-1.59-1.1-1.59-2.66,0-2,6-2.59,6.22-2.59,1,0,1,.26,1.1,1.13,0,.31,0,.9.43.9.61,0,1-2,3.2-2a2.79,2.79,0,0,1,2.85,2.73,2.44,2.44,0,0,1,0,.27A3.13,3.13,0,0,1,61,15.93c-1.66,0-2.12-1.46-2.79-1.46s-.59,1.72-.59,2.18a24.3,24.3,0,0,0,.2,2.82c.15,1.13,2.1.43,2.1,2s-2.23,1.64-5,1.64c-1.18,0-4.66.05-4.66-1.71,0-1.08,1.18-1.08,1.46-2a12.73,12.73,0,0,0,.28-2.82v-1.5Z"/><path class="cls-4" d="M66.45,15.08c0-2.51-1.59-1.1-1.59-2.66,0-2,6-2.59,6.22-2.59,1,0,1,.26,1.1,1.13,0,.31,0,.9.43.9.61,0,1-2,3.2-2a2.79,2.79,0,0,1,2.85,2.73,2.44,2.44,0,0,1,0,.27,3.13,3.13,0,0,1-3.15,3.07c-1.66,0-2.12-1.46-2.79-1.46s-.59,1.72-.59,2.18a24.3,24.3,0,0,0,.2,2.82c.15,1.13,2.1.43,2.1,2s-2.25,1.74-5.07,1.74c-1.18,0-4.66.05-4.66-1.71,0-1.08,1.18-1.08,1.46-2a12.73,12.73,0,0,0,.28-2.82v-1.6Z"/><path class="cls-4" d="M86.68,18.1c0,3,1.51,1.92,1.51,3.28,0,1.74-3.25,1.74-4.4,1.74-4.4,0-4.58-1-4.58-1.61,0-.92,1-1,1.36-1.77a17,17,0,0,0,.1-5.55c-.23-.9-1.54-.61-1.54-1.77,0-1.82,6.5-2.59,6.76-2.59.77,0,.79.59.79,1.13V18.1ZM81.58,9c-1.07,0-2.23-.49-2.23-1.74,0-1.69,3.38-2.38,4.68-2.38,1,0,2.48.33,2.48,1.61C86.52,8.5,83,9,81.58,9Z"/><path class="cls-4" d="M96.07,18.56c0,2.48.87,2,.87,3,0,1.59-3.4,1.54-4.45,1.54s-3.63,0-3.63-1.54c0-1.23,1.18-.13,1.25-2.64l.1-3.84c.05-1.89-1.51-1.28-1.51-2.64S94.59,9.8,95.1,9.8a1,1,0,0,1,.92,1v.46a.56.56,0,0,0,.46.66h0c.41,0,.64-.54,1.15-1.08a3.58,3.58,0,0,1,2.74-1c5.3,0,4.4,5.2,4.66,9.09.13,2,1.18,1.56,1.18,2.66,0,.46.1,1.54-4.71,1.54-.92,0-3.38.05-3.38-1.38,0-.92.84-.49,1-2.15.13-1.82.85-5.91-1.56-5.91-1.64,0-1.48,1.77-1.48,2.92v2Z"/><path class="cls-4" d="M113.38,28c-4.74,0-6.53-1.79-6.53-3.43,0-1.48,1.41-1.51,1.41-1.89s-1.38-1-1.38-2.18c0-1.82,2.07-2.35,2.07-2.71s-1.74-1.48-1.74-3.38c0-3.1,3.87-4.53,6.45-4.53,1.3,0,3.07.49,4,.49,2,0,2.92-1.36,3.3-1.36a1.15,1.15,0,0,1,.84,1.25c0,1.43-1.43,2.46-1.43,2.74s.08.54.08.79c0,3.46-4,4.63-6.83,4.63-.44,0-.87-.08-1.33-.08a.65.65,0,0,0-.69.61v.08c0,.79,1.13,1,1.72,1,.79,0,3.76-.43,4.79-.43,2.66,0,3.79,1.51,3.79,3C121.85,24.93,119.68,28,113.38,28Zm.26-2.2c.84,0,2.76-.13,2.76-1.31a.87.87,0,0,0-1-.78h0c-.38,0-1.38.15-2.2.15-.59,0-2-.2-2.25-.2a.35.35,0,0,0-.31.38v0c0,1.36,2,1.72,3,1.72Zm.15-14a1.61,1.61,0,0,0-1.44,1.76s0,.05,0,.08c0,1,.26,3.1,1.56,3.1,1.15,0,1.54-1,1.54-2s-.24-2.94-1.67-2.94Z"/><path class="cls-4" d="M33.74,62.87C33.43,73.71,22.17,74.71,19.3,74.71c-5.94,0-14.8-2.46-14.8-9.78,0-3.33,2.3-6.14,5.73-6.14,3,0,5.94,1.84,5.94,5.07,0,.87-.36,1.74-.36,2.41a1.91,1.91,0,0,0,1.9,1.92,2.07,2.07,0,0,0,.35,0c6-.61,3.18-11.06,3.58-20.28C21.9,42.2,17,45.22,17,41.79c0-1,.41-4.25,10.39-4.25,9.68,0,10.8,2.36,10.8,3.79,0,2.66-4,1.43-4.1,5.74Z"/><path class="cls-4" d="M39.52,62.21c0-9.17,8-14.34,16.49-14.34A13.61,13.61,0,0,1,70.08,61a1.48,1.48,0,0,1,0,.21c0,8.4-9,13.52-16.54,13.52S39.52,70.3,39.52,62.21Zm14.29-8.3a2.68,2.68,0,0,0-2.53,2.84,1.79,1.79,0,0,0,0,.23c.2,3.23,1.13,11.11,4.66,11.32,1.95.1,2.36-1.54,2.36-3.17C58.31,62.82,57.29,53.91,53.81,53.91Z"/><path class="cls-4" d="M86.27,65.48c0,5,1.74,4.1,1.74,6,0,3.18-6.81,3.07-8.91,3.07s-7.27,0-7.27-3.07c0-2.46,2.36-.26,2.51-5.27l.2-7.68c.1-3.79-3-2.56-3-5.27S83.32,48,84.34,48a1.9,1.9,0,0,1,1.84,2v0c0,.31-.05.61-.05.92a1.14,1.14,0,0,0,.93,1.32h.07c.82,0,1.28-1.08,2.3-2.15A7.11,7.11,0,0,1,94.91,48c10.6,0,8.81,10.39,9.32,18.18.26,4,2.35,3.12,2.35,5.32,0,.92.2,3.07-9.42,3.07-1.84,0-6.76.1-6.76-2.77,0-1.84,1.69-1,1.95-4.3.26-3.64,1.69-11.83-3.12-11.83-3.28,0-3,3.53-3,5.84v3.94Z"/><path class="cls-4" d="M133.83,61.8c0,9,3.07,4.1,3.07,6.86,0,2.92-4,6.09-7.73,6.09-4,0-4.15-2.61-5.43-2.61-.61,0-1.28.67-2.41,1.28a9.36,9.36,0,0,1-5,1.33c-4.25,0-8.5-2.25-8.5-7.32,0-3.64,3.48-8.14,12.49-8.14,1.59,0,2.3.1,2.3-1.74,0-1.69-.05-5.22-2.41-5.22-3.07,0-3.38,5.53-7.94,5.53a2.76,2.76,0,0,1-2.87-2.65V55c0-4.35,8.65-7.17,13.52-7.17,2.92,0,10.91,1.13,10.91,8.81V61.8Zm-15.36,4.51c0,1.33.72,2.77,2.2,2.77,2,0,2.1-2.1,2.1-3.64,0-1.13,0-2.41-1.38-2.41a3.13,3.13,0,0,0-2.92,3.27Z"/><path class="cls-4" d="M154.21,63c0,3.43,1.43,4.25,2.82,4.25,1.59,0,2.51-1.18,3.43-1.18s1.74,1.43,1.74,2.36c0,3.38-5.84,6.35-11,6.35-2.61,0-9.17-1.13-9.17-9.27V54.93c0-.92,0-1.28-.26-1.43a6.7,6.7,0,0,0-2,0c-1.33,0-2,0-2.25-.2s-.26-.87-.26-2c0-.72-.15-1.28.46-1.69l11.67-7.42c1.18-.72,1.13-.56,2.66-.56,2,0,2.15-.2,2.15,2.15a16,16,0,0,0,.15,3.79c.15.41.51.41,1.84.41h3.58c2.2,0,2.2.15,2.2,2.46,0,2.92-.36,3.12-2.36,3.12h-3.53c-1.79,0-1.89.05-1.89,1.89V63Z"/><path class="cls-4" d="M196,66.4c0,4.35,2.51,3.28,2.51,5.27,0,3-6.55,2.92-8.45,2.92-1.59,0-7.78,0-7.78-2.61,0-1.49,1.43-1.43,1.84-4a29.26,29.26,0,0,0,.36-5.12c0-2.56-.05-7.37-3.69-7.37-3.12,0-3,2.66-3,5v5.94c0,4.25,2,3.38,2,5.22,0,3-5.84,3-7.78,3-7.32,0-9-1.54-9-3.12,0-2,2-1.13,2.87-4.45.61-2.41.61-9.17.61-12,0-2.3-.15-4.66-.2-7-.1-3.64-3.17-2.36-3.17-4.76,0-4.1,13.31-5.17,13.36-5.17,1.54,0,1.64.46,1.64,2l-.31,9.73c0,1-.1,2.61,1.23,2.61,1.54,0,2.2-4.56,7.94-4.56,9.42,0,8.76,8.86,8.81,10.29Z"/><path class="cls-4" d="M225.79,61.8c0,9,3.07,4.1,3.07,6.86,0,2.92-4,6.09-7.73,6.09-4,0-4.15-2.61-5.43-2.61-.61,0-1.28.67-2.41,1.28a9.36,9.36,0,0,1-5,1.33c-4.25,0-8.5-2.25-8.5-7.32,0-3.64,3.48-8.14,12.49-8.14,1.59,0,2.3.1,2.3-1.74,0-1.69-.05-5.22-2.41-5.22-3.07,0-3.38,5.53-7.94,5.53a2.76,2.76,0,0,1-2.87-2.65V55c0-4.35,8.65-7.17,13.52-7.17,2.92,0,10.91,1.13,10.91,8.81V61.8Zm-15.36,4.51c0,1.33.72,2.77,2.2,2.77,2,0,2.1-2.1,2.1-3.64,0-1.13.05-2.41-1.38-2.41a3.13,3.13,0,0,0-2.92,3.27Z"/><path class="cls-4" d="M244.83,65.48c0,5,1.74,4.1,1.74,6,0,3.18-6.81,3.07-8.91,3.07s-7.27,0-7.27-3.07c0-2.46,2.36-.26,2.51-5.27l.2-7.68c.1-3.79-3-2.56-3-5.27S241.88,48,242.9,48a1.9,1.9,0,0,1,1.84,2v0c0,.31-.05.61-.05.92a1.14,1.14,0,0,0,.93,1.32h.07c.82,0,1.28-1.08,2.3-2.15a7.11,7.11,0,0,1,5.48-2.1c10.6,0,8.81,10.39,9.32,18.18.26,4,2.35,3.12,2.35,5.32,0,.92.2,3.07-9.42,3.07-1.84,0-6.76.1-6.76-2.77,0-1.84,1.69-1,1.95-4.3.26-3.64,1.69-11.83-3.12-11.83-3.28,0-3,3.53-3,5.84v3.94Z"/><path class="cls-4" d="M19.1,110.85c-.31-.67-.87-2.2-1.79-2.2-1.59,0-1.08,6.76-1.08,8.45,0,5.48,3.28,2.92,3.28,5.68,0,2.92-5.48,3-7.48,3-1.79,0-6.45-.15-6.45-2.82,0-2.92,3.07-.51,3.48-4.71a156.61,156.61,0,0,0,.87-16.49c0-3.07-.2-4.66-.77-5.84s-3.43-1.43-3.43-3.53c0-2.92,4.76-3.64,8.86-3.64,6,0,5.89,1,7.42,3.64,1.79,3,5,11.42,7.22,11.93,1.59.36,3.69-5.84,5.53-9.22,2.61-4.81,2.66-6.35,9.42-6.35,2.25,0,7.37.15,7.37,3.38,0,2-2.3,2.46-2.82,4.2a68.21,68.21,0,0,0-.77,9.78c0,.77.31,6.4.51,11.16.15,3.74,3.23,2.92,3.23,5.22,0,3.43-7,3.28-9.27,3.28-2.1,0-9.11.2-9.11-3.07,0-1.79,2.3-2.1,2.66-3.74.2-.87,1.23-9.68-.56-9.68-1.59,0-3.23,4.51-4.45,7.12-1.13,2.35-3,8.19-4.61,8-.82-.1-1.23,0-4.3-6.91Z"/><path class="cls-4" d="M79.15,113c0,9,3.07,4.1,3.07,6.86,0,2.92-4,6.09-7.73,6.09-4,0-4.15-2.61-5.43-2.61-.61,0-1.28.67-2.41,1.28a9.36,9.36,0,0,1-5,1.33c-4.25,0-8.5-2.25-8.5-7.32,0-3.64,3.48-8.14,12.49-8.14,1.59,0,2.3.1,2.3-1.74,0-1.69,0-5.22-2.41-5.22-3.07,0-3.38,5.53-7.94,5.53a2.76,2.76,0,0,1-2.87-2.65v-.17c0-4.35,8.65-7.17,13.52-7.17,2.92,0,10.91,1.13,10.91,8.81V113Zm-15.36,4.51c0,1.33.72,2.77,2.2,2.77,2,0,2.1-2.1,2.1-3.64,0-1.13,0-2.41-1.38-2.41a3.13,3.13,0,0,0-2.92,3.27Z"/><path class="cls-4" d="M98.2,116.71c0,5,1.74,4.1,1.74,6,0,3.18-6.81,3.07-8.91,3.07s-7.27,0-7.27-3.07c0-2.46,2.36-.26,2.51-5.27l.2-7.68c.1-3.79-3-2.56-3-5.27s11.78-5.27,12.8-5.27a1.9,1.9,0,0,1,1.84,2v0c0,.31,0,.61,0,.92a1.14,1.14,0,0,0,.93,1.32h.07c.82,0,1.28-1.08,2.3-2.15a7.11,7.11,0,0,1,5.48-2.1c10.6,0,8.81,10.39,9.32,18.18.26,4,2.35,3.12,2.35,5.32,0,.92.2,3.07-9.42,3.07-1.84,0-6.76.1-6.76-2.77,0-1.84,1.69-1,2-4.3.26-3.64,1.69-11.83-3.12-11.83-3.28,0-3,3.53-3,5.84v4Z"/><path class="cls-4" d="M134.29,116.71c0,5,1.74,4.1,1.74,6,0,3.18-6.81,3.07-8.91,3.07s-7.27,0-7.27-3.07c0-2.46,2.36-.26,2.51-5.27l.2-7.68c.1-3.79-3-2.56-3-5.27s11.78-5.27,12.8-5.27a1.9,1.9,0,0,1,1.84,2v0c0,.31,0,.61,0,.92a1.14,1.14,0,0,0,.93,1.32h.07c.82,0,1.28-1.08,2.3-2.15a7.11,7.11,0,0,1,5.48-2.1c10.6,0,8.81,10.39,9.32,18.18.26,4,2.35,3.12,2.35,5.32,0,.92.2,3.07-9.42,3.07-1.84,0-6.76.1-6.76-2.77,0-1.84,1.69-1,2-4.3.26-3.64,1.69-11.83-3.12-11.83-3.28,0-3,3.53-3,5.84v4Z"/><path class="cls-4" d="M22.68,158c0,6,2,2.73,2,4.57s-2.66,4.06-5.15,4.06c-2.7,0-2.76-1.74-3.62-1.74a5.35,5.35,0,0,0-1.6.85,6.17,6.17,0,0,1-3.35.89c-2.83,0-5.67-1.5-5.67-4.88,0-2.42,2.32-5.43,8.33-5.43,1.06,0,1.54.07,1.54-1.16s0-3.48-1.6-3.48c-2,0-2.25,3.69-5.29,3.69a1.84,1.84,0,0,1-1.91-1.77v-.11c0-2.9,5.77-4.78,9-4.78,1.95,0,7.27.75,7.27,5.87V158Zm-10.24,3a1.64,1.64,0,0,0,1.42,1.83h.05c1.3,0,1.4-1.4,1.4-2.42,0-.75,0-1.6-.92-1.6A2.1,2.1,0,0,0,12.44,161Z"/><path class="cls-4" d="M35.07,149c.61.1,1.16.24,1.4.24a2.13,2.13,0,0,0,.92-.24,3.15,3.15,0,0,1,.92-.2c1.57,0,3.14,3.14,3.14,4.54a1.64,1.64,0,0,1-1.67,1.6c-2,0-3-2.7-4.54-2.7A1.24,1.24,0,0,0,34,153.35c0,2.18,7.51,2.59,7.51,7.89,0,3.21-3.11,5.43-6.66,5.43a17.9,17.9,0,0,1-2.53-.24c-.85-.1-1.6-.2-1.81-.2a5.05,5.05,0,0,0-.68.07,3.5,3.5,0,0,1-.65.07,1.62,1.62,0,0,1-1.51-.66,7.63,7.63,0,0,1-1.71-4.2c0-.89.31-1.6,1.3-1.6,1.5,0,2.87,3.38,4.78,3.38a1.17,1.17,0,0,0,1.32-1,.28.28,0,0,0,0-.09c0-2-6.69-2.25-6.69-7.89,0-3.41,2.8-5.56,6.32-5.56A10.2,10.2,0,0,1,35.07,149Z"/><path class="cls-4" d="M75.38,161.11c0,2.9,1.67,2.18,1.67,3.52,0,2-4.37,2-5.63,2-1.06,0-5.19,0-5.19-1.74,0-1,1-1,1.23-2.7a18.72,18.72,0,0,0,.22-3.43c0-1.71,0-4.92-2.46-4.92-2.08,0-2,1.78-2,3.31v4c0,2.83,1.37,2.25,1.37,3.48,0,2-3.89,2-5.19,2-4.88,0-6-1-6-2.08,0-1.37,1.33-.75,1.91-3a49.77,49.77,0,0,0,.41-8c0-1.54-.1-3.11-.14-4.64-.07-2.42-2.12-1.57-2.12-3.18,0-2.73,8.88-3.45,8.91-3.45,1,0,1.09.31,1.09,1.3l-.2,6.49c0,.65-.07,1.74.82,1.74s1.47-3,5.29-3c6.28,0,5.84,5.91,5.87,6.86Z"/><path class="cls-4" d="M87.8,159.88c0,4,2,2.56,2,4.37,0,2.32-4.34,2.32-5.87,2.32-5.87,0-6.11-1.33-6.11-2.15,0-1.23,1.4-1.3,1.81-2.36a22.48,22.48,0,0,0,.14-7.41c-.31-1.19-2-.82-2-2.36,0-2.42,8.67-3.45,9-3.45,1,0,1.06.78,1.06,1.5v9.52ZM81,147.76c-1.43,0-3-.65-3-2.32,0-2.25,4.51-3.18,6.25-3.18,1.37,0,3.31.44,3.31,2.15.08,2.67-4.61,3.35-6.55,3.35Z"/><path class="cls-4" d="M92.58,156.71c0-2.18-.44-2.8-.79-3.11s-.92-.34-.92-1.23c0-2.53,8.47-3.48,8.53-3.48.85,0,.92.75.92,1.47,0,.41-.14,1.57.58,1.57.34,0,.89-.75,1.84-1.54a6.75,6.75,0,0,1,4.33-1.5c4.06,0,4.1,3,4.81,3a11.59,11.59,0,0,0,1.88-1.54,6.92,6.92,0,0,1,4.13-1.5c3.24,0,5.26,1.78,5.26,5.12v7.2c0,2,1.26,2.15,1.26,3.14,0,2.15-3.89,2.25-5.22,2.25-1.13,0-5.09-.24-5.09-2,0-1.26,1.19-1.23,1.19-3.21v-3.07c0-1.43.17-4.3-1.78-4.3s-1.74,2.32-1.74,3.58v2.15c0,4.2,1.23,3.48,1.23,4.75,0,2.12-4.1,2.15-5.33,2.15-5.15,0-5.43-1-5.39-1.91,0-1.81,1.74-.38,1.64-4.44v-1.95c0-1.23.17-4.3-1.77-4.3s-1.74,2.32-1.74,3.58v2.77c0,3.14.92,2.94.92,4.16,0,.89-.78,2.08-5.46,2.08-1.33,0-5.36,0-5.36-1.78,0-1.54,2-.72,2-5v-3.11Z"/><path class="cls-4" d="M134.68,149c.61.1,1.16.24,1.4.24A2.13,2.13,0,0,0,137,149a3.15,3.15,0,0,1,.92-.2c1.57,0,3.14,3.14,3.14,4.54a1.64,1.64,0,0,1-1.67,1.6c-1.95,0-3-2.7-4.54-2.7a1.24,1.24,0,0,0-1.23,1.16c0,2.18,7.51,2.59,7.51,7.89,0,3.21-3.11,5.43-6.66,5.43a17.9,17.9,0,0,1-2.53-.24c-.85-.1-1.6-.2-1.81-.2a5.05,5.05,0,0,0-.68.07,3.5,3.5,0,0,1-.65.07,1.63,1.63,0,0,1-1.5-.65,7.63,7.63,0,0,1-1.71-4.2c0-.89.31-1.6,1.3-1.6,1.5,0,2.87,3.38,4.78,3.38a1.17,1.17,0,0,0,1.32-1,.28.28,0,0,0,0-.09c0-2-6.69-2.25-6.69-7.89,0-3.41,2.8-5.56,6.32-5.56A10.09,10.09,0,0,1,134.68,149Z"/><path class="cls-4" d="M150.92,158.34c-.37,0-.92-.1-.92.48,0,1.71,2.22,3.14,3.82,3.14,2.56,0,3.82-1.54,4.54-1.54a1.79,1.79,0,0,1,1.33,1.71c0,2.63-4.81,4.54-7.89,4.54-6.14,0-9.32-4.44-9.32-8.84,0-5.26,4.47-9.08,9.59-9.08,5.8,0,8.36,4.47,8.36,7,0,2.25-1,2.56-2.12,2.56H150.9Zm3-4.3a2,2,0,0,0-1.81-2.17h-.19a2.26,2.26,0,0,0-2,2.25c0,1.23,1.16,1,2,1s2,.16,2-1.07Z"/><path class="cls-4" d="M171.6,160.08a10.34,10.34,0,0,0,.14,2.29c.38,1.23,1.91.65,1.91,2.08,0,2.29-4.16,2.12-5.63,2.12s-6.34.14-6.34-2.25c0-1.19,1.47-.75,1.88-2s.44-5.67.44-7.34a32.86,32.86,0,0,0-.24-5.43c-.51-2.53-2.53-1.64-2.53-3.58,0-3,8.88-3.69,9.35-3.69,1.16,0,1.43.75,1.43,1.78,0,.78-.44,4.54-.44,9.42v6.62Z"/><path class="cls-4" d="M177.13,157.35c.07-1.06-.27-1.6-1.37-1.6-.41,0-1.47.17-1.47-.44,0-2.7-.2-3,.82-3.07.41,0,1-.07,1-.65s-1.3-1.91-1.3-4.06c0-4.06,4.2-5.43,7.61-5.43,5.56,0,6.86,2.94,6.86,4.4a2.62,2.62,0,0,1-2.59,2.63c-3,0-3.35-3.07-5.29-3.07a1.16,1.16,0,0,0-1.16,1.18v0c0,2.15,3.55,2.87,4.16,4.37a.41.41,0,0,0,.43.39h0c1.43,0,3.38-.38,3.31.65l-.17,2.49c0,.51-.41.58-.89.58-2,0-2.36,0-2.36,2.22a12.61,12.61,0,0,0,.34,3c.61,2,3,1,3,3.07,0,.82-.07,2.49-7.75,2.49-1.64,0-6,0-6-2.42,0-1.91,2.39-1,2.53-3.11Z"/><path class="cls-5" d="M4.82,9.43c0-2.66,2.56-6,7.53-6a21.28,21.28,0,0,1,3.87.72c.41-.14.83-.26,1.25-.36.87,0,2.82,2,2.82,4.12A1.62,1.62,0,0,1,18.86,9.7h-.09c-1.72,0-2.71-2.92-5.38-2.92A1.4,1.4,0,0,0,11.77,8a.5.5,0,0,0,0,.12c0,2,3.51,1.48,6.48,3.46a4.71,4.71,0,0,1,2.38,4.18c0,3-2.46,6.37-8.42,6.37a15.66,15.66,0,0,1-6-1.23c-1.23-.69-1.82-3.4-1.82-4.71a1.19,1.19,0,0,1,1-1.37h.11c1.82,0,1.51,4.07,6.22,4.07.56,0,2-.28,2-1.25,0-1.84-3.51-1.38-6.35-3.66A5.9,5.9,0,0,1,4.82,9.43Z"/><path class="cls-5" d="M29.44,16.24c0,1.72.72,2.13,1.41,2.13s1.25-.59,1.71-.59A1.17,1.17,0,0,1,33.43,19c0,1.69-2.92,3.17-5.5,3.17a4.32,4.32,0,0,1-4.58-4,3.87,3.87,0,0,1,0-.59V12.22a.84.84,0,0,0-.13-.72,3.35,3.35,0,0,0-1,0,2.17,2.17,0,0,1-1.13-.1,1.45,1.45,0,0,1-.13-1,.82.82,0,0,1,.23-.85L27,5.84a1.66,1.66,0,0,1,1.33-.28c1,0,1.07-.1,1.07,1.08a8,8,0,0,0,.08,1.89c.08.2.26.2.92.2h1.79c1.1,0,1.1.08,1.1,1.23,0,1.46-.18,1.56-1.18,1.56H30.37c-.9,0-.95,0-.95,1v3.81Z"/><path class="cls-5" d="M47,15.65c0,4.5,1.54,2,1.54,3.43s-2,3-3.87,3-2.07-1.31-2.71-1.31a4,4,0,0,0-1.2.64,4.64,4.64,0,0,1-2.51.67C36.11,22.08,34,21,34,18.42c0-1.82,1.74-4.07,6.25-4.07.79,0,1.15.05,1.15-.87s0-2.61-1.2-2.61c-1.54,0-1.69,2.76-4,2.76a1.38,1.38,0,0,1-1.43-1.33v-.08c0-2.18,4.33-3.58,6.76-3.58C43,8.64,47,9.2,47,13V15.6ZM39.3,17.9a1.24,1.24,0,0,0,1.06,1.38h0c1,0,1-1,1-1.82,0-.56,0-1.2-.69-1.2A1.57,1.57,0,0,0,39.3,17.9Z"/><path class="cls-5" d="M50.87,14c0-2.51-1.59-1.1-1.59-2.66,0-2,6-2.59,6.22-2.59,1,0,1,.26,1.1,1.13,0,.31,0,.9.43.9.61,0,1-2,3.2-2a2.79,2.79,0,0,1,2.85,2.73,2.44,2.44,0,0,1,0,.27,3.13,3.13,0,0,1-3.15,3.07c-1.66,0-2.12-1.46-2.79-1.46s-.59,1.72-.59,2.18a24.3,24.3,0,0,0,.2,2.82c.15,1.13,2.1.43,2.1,2s-2.25,1.74-5.07,1.74c-1.18,0-4.66.05-4.66-1.71,0-1.08,1.18-1.08,1.46-2a12.73,12.73,0,0,0,.28-2.82V14Z"/><path class="cls-5" d="M65.39,14c0-2.51-1.59-1.1-1.59-2.66,0-2,6-2.59,6.22-2.59,1,0,1,.26,1.1,1.13,0,.31,0,.9.43.9.61,0,1-2,3.2-2a2.79,2.79,0,0,1,2.85,2.73,2.44,2.44,0,0,1,0,.27,3.13,3.13,0,0,1-3.15,3.07c-1.66,0-2.12-1.46-2.79-1.46s-.59,1.72-.59,2.18a24.3,24.3,0,0,0,.2,2.82c.15,1.13,2.1.43,2.1,2s-2.25,1.74-5.07,1.74c-1.18,0-4.66.05-4.66-1.71,0-1.08,1.18-1.08,1.46-2a12.73,12.73,0,0,0,.28-2.82V14Z"/><path class="cls-5" d="M85.58,17c0,3,1.51,1.92,1.51,3.28,0,1.74-3.25,1.74-4.4,1.74-4.4,0-4.58-1-4.58-1.61,0-.92,1-1,1.36-1.77a17,17,0,0,0,.1-5.55c-.23-.9-1.54-.61-1.54-1.77,0-1.82,6.5-2.59,6.76-2.59.77,0,.79.59.79,1.13V17ZM80.51,7.94c-1.08,0-2.23-.49-2.23-1.74,0-1.69,3.38-2.38,4.68-2.38,1,0,2.48.33,2.48,1.61,0,2-3.46,2.51-4.92,2.51Z"/><path class="cls-5" d="M95,17.49c0,2.48.87,2,.87,3,0,1.59-3.4,1.54-4.45,1.54s-3.63,0-3.63-1.54c0-1.23,1.18-.13,1.25-2.64l.1-3.84c0-1.87-1.47-1.3-1.47-2.61s5.89-2.64,6.4-2.64a1,1,0,0,1,.92,1v.46a.56.56,0,0,0,.46.66h.05c.41,0,.64-.54,1.15-1.08a3.58,3.58,0,0,1,2.74-1c5.3,0,4.4,5.2,4.66,9.09.13,2,1.18,1.56,1.18,2.66,0,.46.1,1.54-4.71,1.54-.92,0-3.38,0-3.38-1.38,0-.92.84-.49,1-2.15.13-1.82.85-5.91-1.56-5.91-1.64,0-1.48,1.77-1.48,2.92v2Z"/><path class="cls-5" d="M112.31,27c-4.74,0-6.53-1.79-6.53-3.43,0-1.48,1.41-1.51,1.41-1.89s-1.38-1-1.38-2.18c0-1.82,2.07-2.35,2.07-2.71s-1.74-1.48-1.74-3.38c0-3.1,3.87-4.53,6.45-4.53,1.3,0,3.07.49,4,.49,2,0,2.92-1.36,3.3-1.36a1.15,1.15,0,0,1,.84,1.25c0,1.43-1.43,2.46-1.43,2.74s.08.54.08.79c0,3.46-4,4.63-6.83,4.63-.44,0-.87-.08-1.33-.08a.65.65,0,0,0-.69.61V18c0,.79,1.13,1,1.72,1,.79,0,3.76-.43,4.79-.43,2.66,0,3.79,1.51,3.79,3C120.78,23.87,118.58,27,112.31,27Zm.26-2.2c.84,0,2.76-.13,2.76-1.31a.87.87,0,0,0-1-.78h0c-.38,0-1.38.15-2.2.15-.59,0-2-.2-2.25-.2a.35.35,0,0,0-.31.38v0C109.57,24.4,111.57,24.76,112.57,24.76Zm.11-14a1.61,1.61,0,0,0-1.44,1.76s0,0,0,.08c0,1,.26,3.1,1.56,3.1,1.15,0,1.54-1,1.54-2S114.15,10.71,112.68,10.71Z"/><path class="cls-5" d="M32.68,61.8C32.37,72.71,21.1,73.71,18.23,73.71c-5.94,0-14.8-2.46-14.8-9.78,0-3.33,2.3-6.14,5.73-6.14,3,0,5.94,1.84,5.94,5.07,0,.87-.36,1.74-.36,2.41a1.91,1.91,0,0,0,1.9,1.92,2.07,2.07,0,0,0,.35,0c6-.61,3.17-11.06,3.58-20.28C20.83,41.2,16,44.22,16,40.79c0-1,.41-4.25,10.39-4.25,9.68,0,10.8,2.36,10.8,3.79,0,2.66-4,1.43-4.1,5.74Z"/><path class="cls-5" d="M38.46,61.14c0-9.17,8-14.34,16.49-14.34A13.61,13.61,0,0,1,69,60a1.48,1.48,0,0,1,0,.21c0,8.4-9,13.52-16.54,13.52S38.46,69.23,38.46,61.14Zm14.29-8.3a2.68,2.68,0,0,0-2.53,2.84,1.79,1.79,0,0,0,0,.23c.2,3.23,1.13,11.11,4.66,11.32,2,.1,2.36-1.54,2.36-3.17,0-2.35-1-11.22-4.52-11.22Z"/><path class="cls-5" d="M85.2,64.42c0,5,1.74,4.1,1.74,6,0,3.17-6.81,3.07-8.91,3.07s-7.27,0-7.27-3.07c0-2.46,2.36-.26,2.51-5.27l.2-7.68c.1-3.79-3-2.56-3-5.27s11.78-5.27,12.8-5.27a1.9,1.9,0,0,1,1.84,2v0c0,.31,0,.61,0,.92A1.14,1.14,0,0,0,86,51.17h.07c.82,0,1.28-1.08,2.3-2.15a7.11,7.11,0,0,1,5.48-2.1c10.6,0,8.81,10.39,9.32,18.18.26,4,2.35,3.12,2.35,5.33,0,.92.2,3.07-9.42,3.07-1.84,0-6.76.1-6.76-2.77,0-1.84,1.69-1,2-4.3.26-3.64,1.69-11.83-3.12-11.83-3.28,0-3,3.53-3,5.84v3.94Z"/><path class="cls-5" d="M132.77,60.71c0,9,3.07,4.1,3.07,6.86,0,2.92-4,6.09-7.73,6.09-4,0-4.15-2.61-5.43-2.61-.61,0-1.28.67-2.41,1.28a9.36,9.36,0,0,1-5,1.33c-4.25,0-8.5-2.25-8.5-7.32,0-3.64,3.48-8.14,12.49-8.14,1.59,0,2.3.1,2.3-1.74s0-5.22-2.41-5.22c-3.07,0-3.38,5.53-7.94,5.53a2.76,2.76,0,0,1-2.87-2.65V54c0-4.35,8.65-7.17,13.52-7.17,2.92,0,10.91,1.13,10.91,8.81v5.12Zm-15.36,4.51c0,1.33.72,2.77,2.2,2.77,2,0,2.1-2.1,2.1-3.64,0-1.13.05-2.41-1.38-2.41a3.13,3.13,0,0,0-2.92,3.3Z"/><path class="cls-5" d="M153.14,61.91c0,3.43,1.43,4.25,2.82,4.25,1.59,0,2.51-1.18,3.43-1.18s1.74,1.43,1.74,2.36c0,3.38-5.84,6.35-11,6.35-2.61,0-9.17-1.13-9.17-9.27V53.87c0-.92,0-1.28-.26-1.43a6.7,6.7,0,0,0-2,0c-1.33,0-2,0-2.25-.2s-.26-.87-.26-2c0-.72-.15-1.28.46-1.69l11.68-7.42c1.18-.72,1.13-.56,2.66-.56,2,0,2.15-.2,2.15,2.15a16,16,0,0,0,.15,3.79c.15.41.51.41,1.84.41h3.55c2.2,0,2.2.15,2.2,2.46,0,2.92-.36,3.12-2.36,3.12H155c-1.79,0-1.89,0-1.89,1.89V62Z"/><path class="cls-5" d="M195,65.34c0,4.35,2.51,3.28,2.51,5.27,0,3-6.55,2.92-8.45,2.92-1.59,0-7.78,0-7.78-2.61,0-1.49,1.43-1.43,1.84-4a29.26,29.26,0,0,0,.36-5.12c0-2.56-.05-7.37-3.69-7.37-3.12,0-3,2.66-3,5v5.94c0,4.25,2,3.38,2,5.22,0,3-5.84,3-7.78,3-7.32,0-9-1.54-9-3.12,0-2,2-1.13,2.87-4.45.61-2.41.61-9.17.61-12,0-2.3-.15-4.66-.2-7-.1-3.64-3.17-2.36-3.17-4.76,0-4.1,13.31-5.17,13.36-5.17,1.54,0,1.64.46,1.64,1.95l-.3,9.67c-.05,1-.1,2.61,1.23,2.61,1.54,0,2.2-4.56,7.94-4.56,9.42,0,8.76,8.86,8.81,10.29Z"/><path class="cls-5" d="M224.68,60.71c0,9,3.07,4.1,3.07,6.86,0,2.92-4,6.09-7.73,6.09-4,0-4.15-2.61-5.43-2.61-.61,0-1.28.67-2.41,1.28a9.36,9.36,0,0,1-5,1.33c-4.25,0-8.5-2.25-8.5-7.32,0-3.64,3.48-8.14,12.49-8.14,1.59,0,2.3.1,2.3-1.74s-.05-5.22-2.41-5.22c-3.07,0-3.38,5.53-7.94,5.53a2.76,2.76,0,0,1-2.87-2.65V54c0-4.35,8.65-7.17,13.52-7.17,2.92,0,10.91,1.13,10.91,8.81v5.12Zm-15.36,4.51c0,1.33.72,2.77,2.2,2.77,1.95,0,2.1-2.1,2.1-3.64,0-1.13,0-2.41-1.38-2.41a3.13,3.13,0,0,0-2.88,3.3Z"/><path class="cls-5" d="M243.77,64.42c0,5,1.74,4.1,1.74,6,0,3.17-6.81,3.07-8.91,3.07s-7.27,0-7.27-3.07c0-2.46,2.36-.26,2.51-5.27l.2-7.68c.1-3.79-3-2.56-3-5.27s11.78-5.27,12.8-5.27a1.9,1.9,0,0,1,1.84,2v0c0,.31-.05.61-.05.92a1.14,1.14,0,0,0,.93,1.32h.07c.82,0,1.28-1.08,2.3-2.15a7.11,7.11,0,0,1,5.48-2.1c10.6,0,8.81,10.39,9.32,18.18.26,4,2.35,3.12,2.35,5.33,0,.92.2,3.07-9.42,3.07-1.84,0-6.76.1-6.76-2.77,0-1.84,1.69-1,1.95-4.3.26-3.64,1.69-11.83-3.12-11.83-3.28,0-3,3.53-3,5.84v3.94Z"/><path class="cls-5" d="M18,109.78c-.31-.67-.87-2.2-1.79-2.2-1.59,0-1.07,6.76-1.07,8.45,0,5.48,3.28,2.92,3.28,5.68,0,2.92-5.48,3-7.48,3-1.79,0-6.45-.15-6.45-2.82,0-2.92,3.07-.51,3.48-4.71a156.61,156.61,0,0,0,.87-16.49c0-3.07-.2-4.66-.77-5.84s-3.43-1.43-3.43-3.53c0-2.92,4.76-3.64,8.86-3.64,6,0,5.89,1,7.42,3.64,1.79,3,5,11.42,7.22,11.93,1.59.36,3.69-5.84,5.53-9.22,2.61-4.81,2.66-6.35,9.42-6.35,2.25,0,7.37.15,7.37,3.38,0,2-2.3,2.46-2.82,4.2A68.21,68.21,0,0,0,46.9,105c0,.77.31,6.4.51,11.16.15,3.74,3.23,2.92,3.23,5.22,0,3.43-7,3.28-9.27,3.28-2.1,0-9.11.2-9.11-3.07,0-1.79,2.3-2.1,2.66-3.74.2-.87,1.23-9.68-.56-9.68-1.59,0-3.23,4.51-4.45,7.12-1.13,2.35-3,8.19-4.61,8-.82-.1-1.23,0-4.3-6.91Z"/><path class="cls-5" d="M78.09,111.93c0,9,3.07,4.1,3.07,6.86,0,2.92-4,6.09-7.73,6.09-4,0-4.15-2.61-5.43-2.61-.61,0-1.28.67-2.41,1.28a9.36,9.36,0,0,1-5,1.33c-4.25,0-8.5-2.25-8.5-7.32,0-3.64,3.48-8.14,12.49-8.14,1.59,0,2.3.1,2.3-1.74s0-5.22-2.41-5.22c-3.07,0-3.38,5.53-7.94,5.53a2.76,2.76,0,0,1-2.87-2.65v-.17c0-4.35,8.65-7.17,13.52-7.17,2.92,0,10.91,1.13,10.91,8.81v5.12Zm-15.41,4.51c0,1.33.72,2.77,2.2,2.77,2,0,2.1-2.1,2.1-3.64,0-1.13,0-2.41-1.38-2.41A3.12,3.12,0,0,0,62.68,116.44Z"/><path class="cls-5" d="M97.13,115.62c0,5,1.74,4.1,1.74,6,0,3.17-6.81,3.07-8.91,3.07s-7.27,0-7.27-3.07c0-2.46,2.36-.26,2.51-5.27l.2-7.68c.1-3.79-3-2.56-3-5.27s11.78-5.27,12.8-5.27a1.9,1.9,0,0,1,1.84,2v0c0,.31-.05.61-.05.92a1.14,1.14,0,0,0,.93,1.32H98c.82,0,1.28-1.08,2.3-2.15a7.11,7.11,0,0,1,5.48-2.1c10.6,0,8.81,10.39,9.32,18.18.26,4,2.35,3.12,2.35,5.33,0,.92.2,3.07-9.42,3.07-1.84,0-6.76.1-6.76-2.77,0-1.84,1.69-1,1.95-4.3.26-3.64,1.69-11.83-3.12-11.83-3.28,0-3,3.53-3,5.84v3.94Z"/><path class="cls-5" d="M133.23,115.62c0,5,1.74,4.1,1.74,6,0,3.17-6.81,3.07-8.91,3.07s-7.27,0-7.27-3.07c0-2.46,2.36-.26,2.51-5.27l.2-7.68c.1-3.79-3-2.56-3-5.27s11.78-5.27,12.8-5.27a1.9,1.9,0,0,1,1.84,2v0c0,.31,0,.61,0,.92a1.14,1.14,0,0,0,.93,1.32h.07c.82,0,1.28-1.08,2.3-2.15a7.11,7.11,0,0,1,5.48-2.1c10.6,0,8.81,10.39,9.32,18.18.26,4,2.35,3.12,2.35,5.33,0,.92.2,3.07-9.42,3.07-1.84,0-6.76.1-6.76-2.77,0-1.84,1.69-1,1.95-4.3.26-3.64,1.69-11.83-3.12-11.83-3.28,0-3,3.53-3,5.84v3.94Z"/><path class="cls-5" d="M21.61,157c0,6,2,2.73,2,4.57S21,165.6,18.46,165.6c-2.7,0-2.76-1.74-3.62-1.74a5.35,5.35,0,0,0-1.6.85,6.17,6.17,0,0,1-3.35.89c-2.83,0-5.67-1.5-5.67-4.88,0-2.42,2.32-5.43,8.33-5.43,1.06,0,1.54.07,1.54-1.16s0-3.48-1.6-3.48c-2,0-2.25,3.69-5.29,3.69a1.84,1.84,0,0,1-1.91-1.77v-.11c0-2.9,5.77-4.78,9-4.78,1.95,0,7.27.75,7.27,5.87V157Zm-10.24,3a1.64,1.64,0,0,0,1.42,1.83h.05c1.3,0,1.4-1.4,1.4-2.42,0-.75,0-1.6-.92-1.6A2.09,2.09,0,0,0,11.37,160Z"/><path class="cls-5" d="M34,147.89c.61.1,1.16.24,1.4.24a2.13,2.13,0,0,0,.92-.24,3.15,3.15,0,0,1,.92-.2c1.57,0,3.14,3.14,3.14,4.54a1.64,1.64,0,0,1-1.67,1.6c-2,0-3-2.7-4.54-2.7a1.24,1.24,0,0,0-1.23,1.16c0,2.18,7.51,2.59,7.51,7.89,0,3.21-3.11,5.43-6.66,5.43a17.9,17.9,0,0,1-2.53-.24c-.85-.1-1.6-.2-1.81-.2a5.05,5.05,0,0,0-.68.07,3.5,3.5,0,0,1-.65.07,1.63,1.63,0,0,1-1.5-.65,7.63,7.63,0,0,1-1.71-4.2c0-.89.31-1.6,1.3-1.6,1.5,0,2.87,3.38,4.78,3.38a1.17,1.17,0,0,0,1.32-1,.28.28,0,0,0,0-.09c0-2-6.69-2.25-6.69-7.89,0-3.41,2.8-5.56,6.32-5.56A10.09,10.09,0,0,1,34,147.89Z"/><path class="cls-5" d="M74.31,160c0,2.9,1.67,2.18,1.67,3.52,0,2-4.37,1.95-5.63,1.95-1.06,0-5.19,0-5.19-1.74,0-1,1-1,1.23-2.7a19.49,19.49,0,0,0,.24-3.41c0-1.71,0-4.92-2.46-4.92-2.08,0-2,1.78-2,3.31v4c0,2.83,1.37,2.25,1.37,3.48,0,2-3.89,2-5.19,2-4.88,0-6-1-6-2.08,0-1.37,1.33-.75,1.91-3a49.77,49.77,0,0,0,.41-8c0-1.54-.1-3.11-.14-4.64-.07-2.42-2.12-1.57-2.12-3.17,0-2.73,8.88-3.45,8.91-3.45,1,0,1.09.31,1.09,1.3l-.2,6.49c0,.65-.07,1.74.82,1.74s1.47-3,5.29-3c6.28,0,5.84,5.91,5.87,6.86Z"/><path class="cls-5" d="M86.74,158.81c0,4,2,2.56,2,4.37,0,2.32-4.34,2.32-5.87,2.32-5.87,0-6.11-1.33-6.11-2.15,0-1.23,1.4-1.3,1.81-2.36a22.48,22.48,0,0,0,.14-7.41c-.31-1.19-2-.82-2-2.36,0-2.42,8.67-3.45,9-3.45,1,0,1.06.78,1.06,1.5v9.52ZM80,146.71c-1.43,0-3-.65-3-2.32,0-2.25,4.51-3.18,6.25-3.18,1.37,0,3.31.44,3.31,2.15C86.57,146,81.92,146.71,80,146.71Z"/><path class="cls-5" d="M91.52,155.6c0-2.18-.44-2.8-.79-3.11s-.92-.34-.92-1.23c0-2.53,8.47-3.48,8.53-3.48.85,0,.92.75.92,1.47,0,.41-.14,1.57.58,1.57.34,0,.89-.75,1.84-1.54a6.75,6.75,0,0,1,4.33-1.5c4.06,0,4.1,3,4.81,3a11.59,11.59,0,0,0,1.88-1.54,6.92,6.92,0,0,1,4.13-1.5c3.24,0,5.26,1.78,5.26,5.12v7.2c0,2,1.26,2.15,1.26,3.14,0,2.15-3.89,2.25-5.22,2.25-1.13,0-5.09-.24-5.09-2,0-1.26,1.19-1.23,1.19-3.21v-3c0-1.43.17-4.3-1.77-4.3s-1.74,2.32-1.74,3.58v2.12c0,4.2,1.23,3.48,1.23,4.75,0,2.12-4.1,2.15-5.33,2.15-5.15,0-5.43-1-5.39-1.91,0-1.81,1.74-.38,1.64-4.44v-1.95c0-1.23.17-4.3-1.78-4.3s-1.74,2.32-1.74,3.58v2.77c0,3.14.92,2.94.92,4.16,0,.89-.78,2.08-5.46,2.08-1.33,0-5.36,0-5.36-1.78,0-1.54,2-.72,2-5v-3.14Z"/><path class="cls-5" d="M133.6,147.89c.61.1,1.16.24,1.4.24a2.13,2.13,0,0,0,.92-.24,3.15,3.15,0,0,1,.92-.2c1.57,0,3.14,3.14,3.14,4.54a1.64,1.64,0,0,1-1.67,1.6c-1.95,0-3-2.7-4.54-2.7a1.24,1.24,0,0,0-1.23,1.16c0,2.18,7.51,2.59,7.51,7.89,0,3.21-3.11,5.43-6.66,5.43a17.9,17.9,0,0,1-2.53-.24c-.85-.1-1.6-.2-1.81-.2a5.05,5.05,0,0,0-.68.07,3.5,3.5,0,0,1-.65.07,1.63,1.63,0,0,1-1.5-.65,7.63,7.63,0,0,1-1.71-4.2c0-.89.31-1.6,1.3-1.6,1.5,0,2.87,3.38,4.78,3.38a1.17,1.17,0,0,0,1.32-1,.28.28,0,0,0,0-.09c0-2-6.69-2.25-6.69-7.89,0-3.41,2.8-5.56,6.32-5.56A10.09,10.09,0,0,1,133.6,147.89Z"/><path class="cls-5" d="M149.85,157.28c-.37,0-.92-.1-.92.48,0,1.71,2.22,3.14,3.82,3.14,2.56,0,3.82-1.54,4.54-1.54a1.79,1.79,0,0,1,1.33,1.71c0,2.63-4.81,4.54-7.89,4.54-6.14,0-9.32-4.44-9.32-8.84,0-5.26,4.47-9.08,9.59-9.08,5.8,0,8.36,4.47,8.36,7,0,2.25-1,2.56-2.12,2.56h-7.41Zm3-4.3a2,2,0,0,0-1.81-2.17h-.19a2.26,2.26,0,0,0-2,2.25c0,1.23,1.16,1,2,1s2,.15,2-1.08Z"/><path class="cls-5" d="M170.53,159a10.34,10.34,0,0,0,.14,2.29c.38,1.23,1.91.65,1.91,2.08,0,2.29-4.16,2.12-5.63,2.12s-6.27.2-6.27-2.26c0-1.19,1.47-.75,1.88-2s.44-5.67.44-7.34a32.86,32.86,0,0,0-.24-5.43c-.51-2.53-2.53-1.64-2.53-3.58,0-3,8.88-3.69,9.35-3.69,1.16,0,1.43.75,1.43,1.78,0,.78-.44,4.54-.44,9.42V159Z"/><path class="cls-5" d="M176.06,156.29c.07-1.06-.27-1.6-1.37-1.6-.41,0-1.47.17-1.47-.44,0-2.7-.2-3,.82-3.07.41,0,1-.07,1-.65s-1.3-1.91-1.3-4.06c0-4.06,4.2-5.43,7.61-5.43,5.56,0,6.86,2.94,6.86,4.4a2.62,2.62,0,0,1-2.59,2.63c-3,0-3.35-3.07-5.29-3.07a1.16,1.16,0,0,0-1.16,1.18v0c0,2.15,3.55,2.87,4.16,4.37a.41.41,0,0,0,.43.39h.05c1.43,0,3.38-.38,3.31.65l-.17,2.49c0,.51-.41.58-.89.58-2,0-2.36,0-2.36,2.22a12.61,12.61,0,0,0,.34,3c.61,2,3,1,3,3.07,0,.82-.07,2.49-7.75,2.49-1.64,0-6,0-6-2.42,0-1.91,2.39-1,2.53-3.11Z"/><path class="cls-6" d="M401.68,602.84s7.68-79.68,10.12-117.66c.69-10.78,3.95-89.52.9-118C411.18,353,410,340.53,409,329.45c-5.2,8.22-84.49,12.84-106.21.43-1.12,28.83,4.88,47.35,4.31,50.32-.68,3.76-5.72,57.71-7.44,120.61-.89,32.36,4.45,103.46,4.06,105.75l12.07.28c1.8-20,7.09-66.93,11.32-105.11,4.64-41.82,26.61-111.68,28.12-117.46a78.87,78.87,0,0,1,8.92-1.43c1.25,4.65,10,46.83,16.12,93.68s9.4,128.11,9.4,128.11l7,.36Z"/><path class="cls-7" d="M425.74,601.33c-10.44-1.74-26.74,3.78-26.74,3.78-3.92.8-13.62-2-14.26,1.76s3.49,8.84,3.49,8.84l29,10.54,20.31-9.08S436.18,603.08,425.74,601.33Z"/><path class="cls-8" d="M386.78,613.62c-2.68,2.32,4.64,9.29,29.92,14.38,11.78,2.37,25.49-12.06,20.11-14.65-.41,3.66-2-3-5.17-4.13s-9.47,2-8.47,5.31.29,7.82-4,7.91S387.42,617.36,386.78,613.62Z"/><path class="cls-8" d="M389.94,609.22s1,6.88,5.19,5.52c7.38-2.37,19.32,3.87,19.32,3.87s-13.13-9.43-17.44-7.94A6.84,6.84,0,0,1,389.94,609.22Z"/><path class="cls-8" d="M395.12,607.12a.17.17,0,0,1,0-.1v-.3a3.68,3.68,0,0,1,.28-.91,4.28,4.28,0,0,1,.74-1.09,5,5,0,0,1,1.17-.93,5.86,5.86,0,0,1,.67-.32,5.31,5.31,0,0,1,.68-.2,3.63,3.63,0,0,1,1.23,0,3.13,3.13,0,0,1,.85.22,1.77,1.77,0,0,1,.31.15,1,1,0,0,1,.38,1.36l-.05.08-.11.14-.1.11a1.51,1.51,0,0,1-.23.21c-.14.13-.35.25-.57.41a3.5,3.5,0,0,1-.36.22,2.82,2.82,0,0,1-.38.21c-.26.14-.53.25-.79.37l-.77.36c-.26.11-.48.24-.69.34l-.53.27-.15.06h-.05a.78.78,0,0,1-1.1.08.74.74,0,0,1-.16-.19Z"/><path class="cls-8" d="M398.79,606.24a.17.17,0,0,1,0-.1v-.3a3.68,3.68,0,0,1,.28-.91,4.28,4.28,0,0,1,.74-1.09,5,5,0,0,1,1.17-.93,5.86,5.86,0,0,1,.67-.32,5.31,5.31,0,0,1,.68-.2,3.63,3.63,0,0,1,1.23,0,3.13,3.13,0,0,1,.85.22,1.77,1.77,0,0,1,.31.15,1,1,0,0,1,.38,1.36.56.56,0,0,1-.05.08l-.11.14-.1.11a1.51,1.51,0,0,1-.23.21c-.14.13-.35.25-.57.41a3.5,3.5,0,0,1-.36.22,2.82,2.82,0,0,1-.38.21c-.26.14-.53.25-.79.37l-.77.36c-.26.11-.48.24-.69.34l-.53.27-.15.06h-.05a.78.78,0,0,1-1.1.08.74.74,0,0,1-.16-.19Z"/><path class="cls-8" d="M407.33,606.59a2.67,2.67,0,0,1-.14-.36,3.72,3.72,0,0,1-.18-.94,4.3,4.3,0,0,1,.14-1.38,4.17,4.17,0,0,1,.77-1.53,3.94,3.94,0,0,1,.64-.65,3.61,3.61,0,0,1,.74-.48,3.41,3.41,0,0,1,.76-.26,2.71,2.71,0,0,1,.69-.08,2.62,2.62,0,0,1,.56,0,3.25,3.25,0,0,1,.42.11,2.13,2.13,0,0,1,.35.14,1,1,0,0,1,.38,1.36.91.91,0,0,1-.11.16l-.15.18-.22.22c-.13.13-.33.26-.51.43a2.09,2.09,0,0,0-.28.24c-.08.1-.19.15-.26.24s-.17.14-.24.23a1.75,1.75,0,0,0-.24.23,5.27,5.27,0,0,0-.49.57c-.16.22-.31.46-.45.68l-.34.57a1.64,1.64,0,0,0-.14.22.85.85,0,1,1-1.7.1Z"/><path class="cls-8" d="M404,606.71a2.67,2.67,0,0,1-.14-.36,3.72,3.72,0,0,1-.18-.94,4.3,4.3,0,0,1,.14-1.38,4.17,4.17,0,0,1,.77-1.53,3.94,3.94,0,0,1,.64-.65,3.61,3.61,0,0,1,.74-.48,3.41,3.41,0,0,1,.76-.26,3.08,3.08,0,0,1,.68-.08,2.62,2.62,0,0,1,.56,0,3.25,3.25,0,0,1,.42.11,2.13,2.13,0,0,1,.35.14,1,1,0,0,1,.38,1.36.91.91,0,0,1-.11.16l-.15.18-.22.22c-.13.13-.33.26-.51.43a2.09,2.09,0,0,0-.28.24c-.08.1-.19.15-.26.24s-.17.14-.24.23a1.75,1.75,0,0,0-.24.23,5.27,5.27,0,0,0-.49.57c-.16.22-.31.46-.45.68l-.34.57a1.64,1.64,0,0,0-.14.22.85.85,0,1,1-1.68.25A.76.76,0,0,1,404,606.71Z"/><path class="cls-9" d="M246.28,208.27c0,8.06,28.33,14.1,45.54,14.1.15,15.07.19,42.5.77,63.39.61,22-3.19,37.5-.77,55.26,3.34,24.55,130.13,18.68,127.57,4.6s-12.88-97.51-12.88-110.14c0-5.15,1.22-21.47,1.22-21.47S434,209.08,434,199.09c0-25.15-8.23-42.51-14.83-68-3.83-14.79-26.95-19.18-41.41-23.78-2.07-2.59-8.65-5.34-10-4.13,14.63,20.25,6.89,38.25-3.75,47.5-36.24-6.64-48.74-34-44-48.77-.71-2.26-7.21.07-8.19,2.2-17.21,2.84-43.49,11.5-48.09,30.37C256.47,164.14,248.06,179.25,246.28,208.27Z"/><path class="cls-3" d="M404.37,156.35S409.48,189,407.72,214"/><path class="cls-3" d="M302.81,168.29c-.71,18.27-6.12,34.86-6.76,47.8-.23,4.68-1.54,6.27-5,6.27"/><path class="cls-3" d="M311.8,104.1c-5.9,35.66,39.46,53.44,54.34,55.81,11.22-11.14,24.38-26.55,11.64-52.61"/><path class="cls-3" d="M296.06,214c-3.2,4.23-50.3-4.31-49.21-12.57"/><path class="cls-3" d="M408.44,208.27c8.15,0,25.57-9.19,25.57-12.94"/><path class="cls-3" d="M291.08,332.71c5,28.44,127.42,20.27,127.42,6.63"/><path class="cls-7" d="M292.15,607.41c-13.5-.44-18,14.81-18,14.81s15,12.55,25.17,12.55,21.91-10.92,22.18-15.49-4.27-10.85-9.46-11.9S302.85,607.76,292.15,607.41Z"/><path class="cls-8" d="M321.44,619.29c2.4,4.18-11.8,15.49-22.18,15.49s-27.72-4.14-26.93-12.27c.21-2.11.55-5.18,4.92-6.28-1.15,2.53.62,3.87,1.54,1.24,1.42-4.06,14.71-3,15.07,1.94.18,2.58,1.51,7.55,9.68,7.39S320.29,623.53,321.44,619.29Z"/><path class="cls-8" d="M303.54,622.22s4.24-6.46,7-6.27,2.56-3.79,2.56-3.79,4,7.44,0,7.2S303.54,622.22,303.54,622.22Z"/><path class="cls-8" d="M301,606a.21.21,0,0,1,.1-.06l.3-.16a4.37,4.37,0,0,1,1-.34,5.52,5.52,0,0,1,1.52-.06,6,6,0,0,1,1.67.43c.26.12.52.25.77.39a5.14,5.14,0,0,1,.67.48,4.84,4.84,0,0,1,1,1.07,3.86,3.86,0,0,1,.45.91,2.38,2.38,0,0,1,.11.38,1,1,0,0,1-.83,1.15.81.81,0,0,1-.31,0h-.12a1.89,1.89,0,0,1-.34-.09c-.21-.06-.47-.19-.78-.3a4.81,4.81,0,0,1-.46-.22,4.44,4.44,0,0,1-.49-.24c-.33-.16-.65-.35-1-.52s-.66-.33-1-.46l-.9-.37-.64-.29-.18-.07h-.07a.83.83,0,0,1-.81-.85.9.9,0,0,1,.13-.42Z"/><path class="cls-8" d="M294.42,606.28h.45a4,4,0,0,1,1.09,0,5.2,5.2,0,0,1,1.44.48,5.82,5.82,0,0,1,1.41,1,7,7,0,0,1,.58.64,6.24,6.24,0,0,1,.46.68,5,5,0,0,1,.52,1.34,3.74,3.74,0,0,1,.1,1,2.54,2.54,0,0,1,0,.39,1,1,0,0,1-1.17.79.89.89,0,0,1-.31-.11l-.11-.06a1.94,1.94,0,0,1-.29-.21c-.18-.13-.37-.34-.62-.56a3.65,3.65,0,0,1-.36-.37,3.41,3.41,0,0,1-.37-.39c-.25-.27-.49-.56-.74-.83s-.5-.54-.75-.78-.5-.46-.72-.66l-.56-.47a.86.86,0,0,1-.14-.13h-.06a.84.84,0,0,1-.46-1.08.85.85,0,0,1,.27-.35Z"/><path class="cls-8" d="M303.38,611.6l-.29-.21c-.17-.12-.42-.39-.67-.55l-.81-.65-.9-.68c-.61-.42-1.18-.81-1.65-1.16-.23-.18-.44-.32-.59-.45a.44.44,0,0,1-.19-.19.85.85,0,0,1-.08-1.69,3.53,3.53,0,0,1,.46-.17,3.79,3.79,0,0,1,1.11-.13,4.41,4.41,0,0,1,.73.09,4.12,4.12,0,0,1,.78.23,5.34,5.34,0,0,1,1.48.9,6.69,6.69,0,0,1,1.13,1.25l.39.65c.11.22.2.45.29.64a3.56,3.56,0,0,1,.24.92v.36a.94.94,0,0,1-.9,1A.9.9,0,0,1,303.38,611.6Z"/></svg>